<svg xmlns="http://www.w3.org/2000/svg" width="757.5" height="1200" viewBox="0 0 606.000000 960.000000"><g transform="matrix(.1 0 0-.1 0 960)"><path d="m5002 8073l-712-126-66 34c-58 29-78 34-159 37-111 5-172-7-266-51-63-30-74-33-109-24-29 8-45 8-62-2-13-6-41-22-63-34-22-11-71-26-108-33-70-13-130-47-141-81-5-15-53-26-283-65-223-38-280-44-288-34-19 24-50 34-131 41-54 4-84 3-88-4-4-6-19-8-35-5-15 3-43 2-62-3-20-6-45-6-61-1-38 13-103-7-128-39-11-14-23-42-26-62l-6-36-951-164c-524-91-960-168-969-173-27-13-11-41 21-35 183 37 1893 328 1898 323 4-3 2-23-3-44-7-29-14-38-34-40-79-11-1853-322-1858-326-2-3-2-12 2-21 4-12 14-15 33-11 45 10 1812 316 1823 316 6 0 10-15 10-34 0-26 8-41 35-65 20-17 40-31 45-31 35 0-20-404-79-580-62-184-71-228-71-338 0-199 29-288 150-457 31-44 60-88 63-97 9-25 67-58 103-58 67 0 134 30 190 84 30 29 56 50 59 48 3-3 5-20 5-38 0-78 32-183 100-324 38-80 83-183 100-230 27-75 30-93 25-150-5-48-14-75-36-105-38-54-48-104-58-308l-9-172-52-145c-29-80-58-162-66-182-7-20-25-87-39-149-22-99-23-114-11-128 13-14 13-32-4-146-22-145-25-342-9-500 5-55 14-175 18-267 10-196 22-230 103-303 57-52 111-70 180-61 43 6 52 3 99-29 124-85 498-152 652-116l38 9-6-41c-5-32 0-57 18-102 22-54 57-244 57-311 0-14-15-61-34-103-40-90-53-184-37-274 6-34 16-97 22-140 7-48 21-91 34-110 19-29 26-32 71-32 27 0 59-6 71-13 31-17 51-15 92 10 20 13 53 23 73 24 26 0 47 8 65 25 16 14 41 33 56 43 37 23 50 58 37 105-6 22-6 50-1 71 5 19 12 47 15 62 4 16 15 29 29 34 57 17 104 47 125 79 14 20 38 39 58 45 32 11 64 51 64 80 0 7 14 42 30 80 41 92 40 161 0 283-34 101-34 115 16 281 47 157 25 268-64 331-39 27-51 30-120 30-43 0-91-4-109-8l-32-8-23 73c-13 42-23 98-22 133 2 757 5 850 26 866l20 16-21 74c-32 114-61 337-61 467 0 192-46 370-126 493-49 75-54 89-54 138 0 44-6 63-28 95-27 39-27 40-27 210 1 223 14 292 66 349 67 71 88 109 134 243 34 97 53 135 76 156 37 34 61 88 93 208 27 99 35 115 103 198 67 82 86 127 86 202 0 94-37 171-119 250-35 34-64 63-64 65 0 2 20 15 44 29 93 54 155 172 156 292 0 77-25 176-60 232-25 41-25 42 3 42 49 0 1329 228 1340 239 7 7 8 14 1 21-6 6-257-34-698-111l-689-120-34 33c-38 37-41 48-13 48 17 0 1319 222 1378 236 26 5 27 38 2 40-8 1-336-55-728-123m-827-114c77-29 131-73 190-155 60-83 85-152 92-252 5-69 4-77-31-147-65-131-135-169-341-183-145-11-200-23-192-45 2-8 21-11 59-9 49 3 56 1 61-17 3-11 1-38-4-58-14-61-12-85 8-81 12 2 22 21 31 63 18 81 39 101 112 109 72 8 100-4 178-78 65-61 92-111 99-180 7-70-25-151-90-228-77-90-77-90-92-177-18-102-33-136-83-187-32-33-45-59-67-130-39-129-77-194-149-255-74-64-95-88-96-111 0-22 8-23 32-1 23 20 23 14-3-83-18-68-20-97-15-204 3-69 13-152 22-185l15-60-48-43c-65-59-165-105-308-143-105-28-136-32-250-33-144 0-211 14-300 64l-50 29-23 96c-33 139-56 195-116 279-29 40-61 95-70 121-15 47-23 185-10 198 3 3 31-8 61-25 48-27 61-30 112-25 73 6 107 22 91 42-8 10-18 12-29 6-9-5-37-11-62-15-44-6-50-4-123 44-42 28-76 55-76 58 0 4 35 37 78 73l78 67 34-19c41-21 103-25 119-6 16 20 3 27-38 21-29-5-42-1-63 18l-27 23 19 60c11 33 24 86 30 117 15 78 27 88 108 88 102 1 182 37 182 82 0 24-6 23-41-6-26-22-103-46-147-46-9 0-45 10-78 22-50 18-69 20-100 13-43-11-62-45-25-45 11 0 23 5 26 10 8 12 52 13 59 1 3-4 1-21-4-37-5-16-16-67-25-114-9-47-26-101-37-120-11-19-61-69-111-110-61-50-98-90-114-120-13-25-44-64-69-87-43-40-50-43-103-43-58 0-101 19-101 45 0 7-25 44-55 82-86 107-132 203-144 303-22 170-11 269 44 410 18 47 43 122 54 166 21 83 66 467 57 490-3 7-22 22-44 33-65 33-69 43-49 119 9 37 17 75 17 84 0 22 27 30 97 27 32-2 72 1 89 5 41 9 49-10 23-52-21-36-53-47-110-39-28 4-39 2-36-6 2-7 29-12 68-13 57-1 68-4 98-32 32-30 33-35 27-78-4-34-3-45 7-42 6 3 13 25 15 50 2 36-2 51-22 75l-25 29 32 17c35 18 187 35 187 21 0-18-23-90-42-136-17-41-28-51-74-73-61-29-68-39-24-33 29 4 30 4 25-31-3-20-9-82-14-138-10-108-6-139 31-225l20-47-28-73c-34-91-77-149-157-213-77-62-127-151-127-226 0-49 15-73 31-48 5 8 9 29 9 48 0 57 36 115 123 197 116 110 133 135 164 233 63 196 216 349 369 367 41 5 66 0 140-26 102-37 154-47 154-31 0 5-10 16-22 22-21 11-21 12-3 25 10 8 44 23 74 34 31 11 71 28 89 38 34 17 91 94 118 157l14 36 38-30c20-17 58-36 84-42 41-11 55-10 103 5 36 11 55 22 55 33 0 11-6 14-22 9-68-19-117-18-162 4-78 37-196 183-196 241 0 50 213 283 305 333 139 76 297 98 410 55m-497-65c-25-25-28-26-43-11-23 23-10 37 33 37h37l-27-26m-61-25c9-9 8-18-4-35-23-36-26-34-61 39-6 12 53 8 65-4m-68-45c27-34 26-45-3-73l-23-22-6 29c-3 16-17 40-31 53-34 32-33 39 8 39 25 0 40-7 55-26m-86-26c48-64 50-76 25-108-29-37-38-37-38-1 0 44-41 96-73 94-35-2-34 12 1 31 41 23 59 19 85-16m-56-84c21-42 14-49-59-58-70-10-559-95-581-102-15-5-17-1-11 38 4 24 8 45 10 47 4 4 571 108 602 110 16 1 27-8 39-35m-787-36c25-41 25-84 1-124-18-29-56-50-65-35-3 3 1 25 7 48 10 39 6 70-19 131-4 8 4 12 25 12 25 0 36-7 51-32m-246 8c23-9 37-24 45-46 15-45 15-47-18-53-45-9-68 2-75 34-7 35-26 39-26 5 0-17-7-26-26-30-15-4-28-5-30-3-2 2 2 21 9 43 12 35 38 54 85 63 1 1 18-5 36-13m152-21c24-58 16-122-21-158-25-26-34-20-22 13 9 25 8 36-5 63-28 54-47 105-40 111 3 3 21 6 39 6 29 0 36-5 49-35m202 2c27-56-15-147-67-147-19 0-19 2-5 35 19 45 18 95-2 123-16 23-16 23 22 20 31-2 42-9 52-31m697-90c0-41 6-64 28-98l28-44-40 43c-50 54-81 129-60 143 34 21 44 11 44-44m-60-40c26-63 29-84 29-172 0-55-3-120-7-145-7-44-9-46-70-70-57-23-75-25-227-25-149 0-170-2-213-22-57-26-156-119-199-185-17-26-35-48-39-48-14 0-39 82-39 129 0 27 5 95 10 150 10 94 14 106 46 149 43 55 49 71 58 137 4 28 11 56 15 63 7 11 515 108 581 111 22 1 29-8 55-72m133-121c26-16 1-117-41-169l-23-29 1 105v104l26-2c14-1 31-5 37-9m433-2245c-6-10-35-35-66-56-30-20-53-41-50-46 8-12 62 16 101 53l31 29 35-48c20-26 44-66 55-88 27-54 69-286 88-480 21-220 44-391 56-422 5-14 6-29 2-33-128-110-241-173-382-212-60-16-91-19-149-14-41 3-78 8-83 12-5 3-9 73-9 155v151l29 26c15 15 49 46 74 68 48 44 87 109 87 144 0 33-21 19-62-40-22-32-61-70-95-93-88-58-90-61-97-189-4-62-9-148-12-190l-6-77-61-20c-125-41-311-53-425-26-89 21-145 53-240 136-81 70-83 73-77 107 10 52 78 274 113 368 41 111 51 171 56 359 5 169 13 216 47 259l21 26 41-34c23-18 69-43 101-55 77-29 249-45 325-31 67 12 209 58 216 70 13 20-19 19-102-5-155-45-205-50-316-32-103 18-139 32-198 78-28 22-38 39-43 70-4 23-5 44-3 46 3 2 22-8 42-22 89-59 272-88 424-66 184 27 405 112 491 189l45 40 3-44c2-24-2-52-7-63m221-1298c2-60 3-268 3-464v-356l-30 23c-42 32-110 45-176 35-66-11-101-24-117-44-21-25 5-31 41-9 76 46 181 35 241-26 45-45 56-80 31-99-42-30-260-10-352 32-62 28-109 92-117 159-17 142-17 146 0 146 15 0 15 2 0 25-20 30-111 359-121 435-3 30-8 62-11 71-4 14 9 15 104 11 79-3 125 0 172 12 103 26 211 73 265 115 28 22 53 40 58 40 4 1 8-47 9-106m-1262-116c62-31 70-32 200-35 93-3 154 1 198 11 34 8 62 11 62 6 0-4-14-39-32-76-26-56-53-88-146-179-69-67-112-116-108-123 5-8 25 4 58 34 28 26 60 51 71 57 18 9 19 8 13-18-4-16-11-69-16-119-9-89-10-90-52-127-23-20-39-40-36-43 3-4 23-2 45 4 55 16 190 13 258-4 92-24 158-61 246-142 90-81 138-101 286-123 96-14 185-3 287 35 157 59 280 19 307-102 14-60 8-94-38-242-29-95-28-116 22-280 31-105 31-145 0-213-14-29-25-60-25-69 0-28-40-69-66-69-13 0-24-6-24-13 0-26-104-107-138-107-5 0-10 21-9 48 0 32-13 82-42 155-46 121-47 131-25 290 14 105 14 121 0 178-23 88-48 123-108 153-81 41-145 31-226-32-31-24-51-31-122-38-160-17-314-10-430 19-105 27-249 89-305 131-16 13-41 29-54 36-23 12-23 11-17-14 6-26 6-26-49-26-51 0-59 3-100 41-24 22-54 62-67 87-21 44-23 58-21 201 2 107-3 204-17 315-25 201-25 238 1 401l21 133 67-54c36-30 95-69 131-87m614 6c2-16 8-46 11-68 4-22 31-128 60-235 43-158 54-214 57-292l4-97-46 33c-25 19-60 41-78 50-42 22-168 46-236 46h-53l4 103c5 125 19 165 89 259 29 40 66 103 81 140 23 54 33 68 58 76 43 14 43 14 49-15m568-1164c29-16 65-72 77-122 6-26 10-51 7-55-2-4-9-66-16-138l-11-130 36-109c49-146 55-226 25-328-22-73-22-78-6-96 24-27 12-67-24-80-16-5-33-18-39-29-7-14-24-21-61-24-28-3-58-12-68-22-10-9-31-16-46-16-25 0-27 3-21 23 16 52 16 79 1 112-10 19-14 39-11 44 10 17-12 21-25 6-10-13-10-23 5-54 27-60-1-121-56-121-40 0-57 31-69 125-6 44-15 100-21 125-16 75-3 175 30 234 66 114 81 146 83 175 4 39-14 41-25 2-10-42-24-46-19-6 6 53-37 286-59 318-24 34-17 92 13 108 24 13 35 5 19-15-8-9-9-16-2-21 6-3 34 17 63 45 28 28 65 55 82 60 33 10 110 4 138-11"/><path d="m3713 7133l-30-38h-134c-125 0-138-2-191-27-34-16-58-33-58-42 0-20-1-21 55 10 46 26 49 27 176 20 145-8 169-1 213 57 49 64 19 82-31 20"/><path d="m2961 7013c-58-21-131-91-131-126 0-35 18-35 31 1 27 70 114 121 186 107 39-7 54 0 46 20-7 20-74 18-132-2"/><path d="m3921 6939c-6-18-11-100-11-183 0-236-9-264-153-506-125-211-185-356-159-382 8-8 14-5 20 13 5 13 21 59 37 103 18 51 57 122 112 204 94 139 121 189 155 283 21 59 23 80 23 281 0 120-3 218-7 218-3 0-11-14-17-31"/><path d="m4056 6945c-27-41-42-121-26-140 12-15 14-15 23 0 5 9 6 27 3 39-3 13 3 38 14 59 32 60 21 95-14 42"/><path d="m3660 6933c0-3 12-36 26-72 21-52 25-74 20-113-5-39-4-48 8-48 38 0 28 151-14 210-20 28-40 39-40 23"/><path d="m4353 6928c-6-7-13-31-17-53-15-89-23-101-102-150-81-51-115-88-96-107 9-9 19-6 39 13 16 14 55 45 88 69 33 24 63 48 67 54 16 24 49 169 40 178-5 5-13 4-19-4"/><path d="m3170 6773c0-10 17-52 38-93 35-71 40-76 82-88 25-7 79-24 120-37 46-14 79-20 85-14 18 18-22 40-114 64-50 13-99 29-107 36-9 7-31 43-50 81-33 66-54 86-54 51"/><path d="m4021 6518c-6-17-11-61-11-97 0-80 25-131 65-131 33 0 32 11-6 63-30 40-31 45-25 114 6 77-5 103-23 51"/><path d="m3449 6477c0-1-2-29-3-62-3-71-32-135-84-182-19-17-31-36-27-42 3-6 11-8 17-5 8 5 9 1 4-12-25-62-4-204 29-204 19 0 19 16-1 95l-16 63 28 64c15 34 38 80 51 100 43 70 53 168 18 182-8 3-15 4-16 3"/><path d="m2974 6331c6-59 59-162 102-200 42-38 88-41 166-11 67 26 95 47 82 60-7 7-29 2-68-16-110-50-167-20-245 131-42 80-42 80-37 36"/><path d="m2611 6184c-49-73-65-120-38-112 6 2 21 22 32 45 29 59 54 83 86 83 29 0 33-3 70-53 20-27 39-28 39-3 0 21-97 116-119 116-13 0-36-24-70-76"/><path d="m3917 6145c-29-30-79-70-111-89-47-29-55-37-41-42 11-5 36 2 64 17 57 30 176 143 167 158-13 20-27 12-79-44"/><path d="m3461 5805c-95-39-101-43-82-54 28-17 181 47 181 76 0 18-4 17-99-22"/><path d="m3690 5821c0-25 48-63 74-59 33 5 29 26-7 42-19 7-38 19-41 25-11 18-26 13-26-8"/><path d="m3146 5751c-27-42-54-56-86-46-14 5-20 2-20-9 0-12 10-16 40-16 48 0 110 48 110 86 0 35-16 29-44-15"/><path d="m3212 5647c-45-45-82-86-82-90 0-4 9-7 21-7 23 0 131 106 155 153 27 51-8 30-94-56"/><path d="m3660 5712c0-4 16-24 36-43 42-40 59-70 68-121 8-45 36-53 36-10-1 39-31 102-72 145-32 34-68 49-68 29"/><path d="m3556 5687c-61-92-53-528 8-467 6 6 5 48-2 112-16 141-15 183 8 280 11 46 20 86 20 91 0 15-20 6-34-16"/><path d="m3844 5037c-142-99-344-167-497-167-70 0-89-3-94-15-3-9-4-17-2-19 9-8 240 15 294 29 107 27 395 177 395 205 0 21-38 8-96-33"/><path d="m2908 4963c-26-30-48-81-48-111 0-16 11-62 25-102 32-93 31-102-5-143-20-24-26-37-19-44 21-21-6-203-41-284-18-41-41-96-51-124-19-52-26-165-10-165 12 0 18 21 26 95 4 40 22 93 52 158 41 89 46 108 55 214 9 104 14 121 39 156 16 22 29 45 29 52 0 6-14 40-32 75-40 81-42 134-5 188 15 21 27 41 27 45 0 14-27 7-42-10"/><path d="m3126 4671c-7-11 57-94 111-142 45-41 80-56 95-41 6 6-14 26-55 55-69 50-117 100-117 123 0 15-26 19-34 5"/><path d="m4004 3229c-16-18-27-20-69-16-27 3-63 9-79 13-45 11-28-18 20-33 62-19 118-16 148 8 28 22 35 49 13 49-8 0-22-9-33-21"/><path d="m2946 3318c-18-26-22-151-6-193 9-24 35-43 46-33 3 3-3 32-12 66-17 61-13 145 7 157 14 9 11 25-5 25-8 0-22-10-30-22"/><path d="m3175 2940c-19-30 110-104 212-121 105-17 193 0 180 35-5 13-12 14-32 6-15-6-64-10-110-10-83 0-84 0-151 46-79 54-90 59-99 44"/><path d="m4241 2829c-25-11-51-17-58-15-17 7-29-22-15-36 7-7 25-3 57 11 26 12 55 21 65 21 26 0 43-26 36-55-9-33 1-50 20-34 23 19 17 73-11 103-29 31-37 32-94 5"/><path d="m4365 2056c-21-31-16-80 7-84 13-3 17 3 17 25 0 15 2 40 6 56 9 34-9 36-30 3"/><path d="m4098 1651c-23-13-31-14-48-3-38 23-110 11-110-20 0-5 19-8 43-8 23 0 61-1 84-2 45-2 67 10 61 34-2 12-7 12-30-1"/></g></svg>