<svg xmlns="http://www.w3.org/2000/svg" width="658.75" height="1200" viewBox="0 0 527.000000 960.000000"><g transform="matrix(.1 0 0-.1 0 960)"><path d="m3799 8671c-113-29-183-64-244-122-66-62-105-132-145-257-22-68-38-100-59-118-16-13-38-50-51-84-27-72-24-139 11-219 19-45 20-57 10-89-6-20-18-46-26-56-14-19-16-18-82 12-109 49-157 55-290 36-112-15-116-15-137 4-65 60-198 102-324 102-106 0-184-17-281-61l-65-30-176 35c-287 58-448 58-567 0-80-38-101-43-328-69-304-34-338-41-393-81-26-19-54-37-62-40-73-28-95-42-118-76-23-35-24-44-19-111 4-39 14-97 22-127 8-30 15-81 15-113 0-84 27-298 50-396 26-108 62-193 143-333 35-62 105-183 154-268 95-164 193-357 193-379 0-7-28 12-62 42-181 157-462 378-476 375-10-2-18-12-20-23-2-15 63-73 288-255 241-195 290-239 290-260 0-19-23-47-92-112-80-76-95-86-109-75-10 6-133 107-274 222-315 258-302 248-320 241-41-15-10-48 242-252 141-115 274-222 295-238 37-27 38-29 22-47-34-38-3-305 44-369 10-14 59-45 108-70 123-62 190-109 251-179 44-50 60-61 103-71 68-16 143-6 221 32 51 24 79 30 139 32 156 5 230 85 217 235-7 68-6 67-76 123-24 18-24 21-13 71 7 29 17 98 24 154l12 103-75 77c-52 54-98 116-146 198-161 274-204 391-229 625-16 150-14 207 12 332 8 40 14 89 12 110-3 42 1 43 52 25 58-20 251-14 353 11 112 28 171 29 163 5-51-170-71-496-42-674 33-198 119-564 146-619 18-37 40-281 40-446v-81l-50-65c-60-77-76-120-85-224-4-43-16-99-26-123-22-51-54-172-64-244-3-26-15-73-26-105-30-85-71-453-76-678l-5-192-46-6c-137-19-221-66-263-149-12-22-41-96-65-164-24-68-50-135-57-148l-13-25-58 44c-119 89-256 124-355 91-103-34-153-102-171-235-11-75-10-99 9-209 34-198 35-246 16-457-16-167-17-210-7-292 14-111 31-145 119-241 32-36 74-94 94-130 45-83 83-111 154-111 39 0 56 5 70 20 18 20 18 20 41-5 30-32 86-33 172-3 60 21 64 21 91 5 33-19 133-23 175-7 23 8 28 6 40-18 19-36 134-137 218-191 37-24 77-58 88-77 31-50 118-124 178-152 122-56 304-77 406-48 68 20 136 81 156 140 12 36 13 37 31 20 10-9 19-23 19-30 0-7 10-25 23-39 33-38 115-55 278-55 236 0 316 43 364 196 22 72 91 213 194 393 106 186 137 253 161 341 32 120 59 374 71 675 11 263 13 281 32 298 21 18 21 19 4 125-13 84-16 140-11 262 6 135 4 169-15 268-20 105-21 121-9 230 18 170 16 275-6 363l-19 75 27 118c23 100 25 125 17 177-6 33-20 77-33 97-44 70-25 209 67 492 49 148 65 224 65 305v70l40-46c22-26 57-54 77-63 21-9 53-28 72-41 52-38 126-31 235 21 27 13 53 24 58 24 5 0 54-38 111-85 101-84 103-85 157-85 78 0 125 16 171 57 41 37 59 82 59 148 0 93-14 110-227 272-15 12-14 18 10 67 15 30 27 63 27 73 0 39-51 122-130 213-92 105-136 168-145 209-4 18 8 69 36 151 45 136 42 130 169 335 130 208 168 290 191 409 25 123 29 245 10 308-12 41-11 52 4 92 41 108-38 215-160 216-22 0-62 7-90 16-29 10-95 18-158 19-60 2-110 5-113 7-2 2 15 60 38 128l40 125-5 130c-8 194-51 304-152 393-128 113-393 169-576 123m355-75c202-77 307-197 323-371 7-78-7-161-59-339-45-155-87-261-150-376-52-97-223-351-255-382-30-28-77-29-179-4-108 27-129 43-173 140-26 56-59 105-101 152-91 100-97 116-81 214 8 45 10 84 6 88-15 15-43-40-54-110-15-88-9-109 53-182 24-28 60-85 79-126 49-101 103-170 154-196 44-23 46-34 6-34-46 0-63-17-63-64 0-74 43-83 52-11 3 29 6 30 63 38 33 5 91 8 128 7 97-1 128 19 205 133 33 51 100 148 147 217 47 69 107 168 133 220 26 52 48 97 50 100 2 2 23-6 47-19 33-17 53-38 75-78 17-30 36-53 43-50 23 7 17 43-17 97-19 30-33 56-31 58 6 6 174-17 216-30 43-12 90-52 121-103l18-30v28c0 16-5 37-10 48-18 34 9 22 30-13 25-41 25-69 0-117-15-31-17-45-10-72 15-50 12-111-10-249-24-148-35-171-192-445-103-180-120-219-171-372-41-124-57-187-57-226 0-76 10-117 27-117 13 0 15 12 11 65-2 36-3 65-2 65 1 0 13-18 28-40 14-22 42-54 61-71 35-32 110-152 140-222 14-34 14-40-3-72l-17-35-38 36c-36 36-39 37-95 31-95-8-190-72-193-130-3-45 4-93 17-119 25-49 18-64-42-94-53-26-57-26-88-11-54 25-132 130-120 161 9 24 19 20 57-24 34-40 57-51 57-27 0 7-20 42-45 78-39 56-45 71-45 117 0 29-6 63-14 75-7 12-17 57-20 99l-7 77 42 41c49 47 46 62-6 31-20-11-38-21-41-21-2 0-4 20-4 44 0 30 5 46 15 50 8 3 15 17 15 31 0 14 9 43 20 64 11 22 22 59 26 83 4 27 17 54 34 73 34 36 82 132 100 198 8 31 11 78 7 133l-5 86 57 61c81 89 112 131 165 228 73 136 115 276 87 294-15 8-40-22-51-63-38-142-54-184-87-234-40-60-175-219-182-213-2 2 2 19 8 36 7 22 8 36 1 43-6 6-17-7-31-39-20-46-21-55-11-140 17-143-8-238-93-347-54-68-225-181-225-148 0 17 37 85 54 99 18 15 22 41 6 41-5 0-27-24-49-53-77-105-129-131-244-125-88 4-173 42-199 88-21 36-48 40-48 6 0-31 83-109 136-127 22-7 81-13 139-13 112 0 239 28 314 70 50 28 51 28 51 12 0-35-45-100-86-124-56-33-60-59-6-52l37 5 5-81c3-44 5-119 5-166 0-106-24-162-115-270-34-41-66-85-71-98-14-37-11-82 7-89 20-7 32 11 27 40-2 12 6 33 17 47l20 25v-65c0-97-17-182-60-310-39-112-70-248-70-302 0-19-12-36-43-62-45-37-135-82-144-72-3 2 9 47 27 100 27 83 30 99 20 134-5 22-19 51-29 64-16 19-20 20-26 7-3-8-1-28 5-43 5-15 10-45 10-66 0-50-47-201-67-217-23-18-142-42-243-50l-89-6 6 38c8 48-15 45-37-4l-15-33-105 7c-103 5-318 33-332 41-4 3-2 16 4 30 14 30-3 174-34 304-18 74-27 91-64 128-33 34-49 43-70 40-32-4-46-28-16-28 29 0 79-56 98-109 14-42 38-325 27-343-9-17-421 111-524 162-95 48-105 59-86 97 29 57 36 124 27 257-6 81-6 154 0 195 5 36 10 71 10 76 0 6 5 3 10-5 5-8 10-34 10-57 0-48 11-60 35-36 27 26 13 87-45 199-79 156-162 458-196 714-19 143-14 301 10 395 26 97 77 215 92 215 42 0 86-33 144-109 60-77 90-99 90-66 0 30-33 80-110 166-42 47-100 120-129 162-28 42-56 77-61 77-18 0-10-34 20-89 17-30 29-55 27-57-1-1-49-8-107-14-58-6-139-18-180-26-110-21-241-18-330 7-101 28-168 65-274 154-93 77-135 101-161 91-35-13-10-59 45-83 14-6 52-33 85-60 33-27 80-63 104-79 28-18 54-46 69-75 23-46 23-47 10-165-20-181-16-298 16-449 16-71 41-161 56-200 42-105 242-464 286-513 87-98 98-139 67-255-9-34-18-64-19-66-2-1-13 4-26 13-16 11-23 26-23 49 0 31-1 32-47 35-63 4-137-29-187-83-51-56-66-104-56-190 8-74 8-74 109-157l57-47-60-31c-101-51-211-35-244 36-10 19-17 42-17 51 0 8-26 52-57 97-54 76-57 84-55 134 2 56-5 63-33 32-14-16-17-30-12-76 5-47 12-62 46-99 54-59 57-94 4-44-21 19-55 48-75 63-37 26-38 29-38 86 0 56-2 60-30 75l-30 16 20 38c19 38 18 51-6 51-16 0-54-62-54-89 0-12 11-31 25-43 19-17 25-31 25-64v-43l-32 13c-20 8-40 27-51 49-19 38-47 169-47 223 0 52 33 106 95 159 60 51 142 150 169 202 33 64 9 194-30 162-11-9-14-8-14 3 0 7-25 65-55 128-30 63-55 120-55 126 0 6-34 62-76 125-179 270-311 616-334 879-5 58-12 113-15 123-8 20-2 21 26 7 24-14 24-9-5 64-13 34-26 87-30 118-5 51-4 59 20 88 15 17 52 44 83 61 31 16 70 38 86 49 51 32 142 48 320 55 190 7 205 10 360 68 101 38 118 41 205 41 69 0 138-10 254-34l160-34-48-21c-26-11-44-24-40-28 4-4 30-7 58-7 41 0 63 7 111 36 148 90 267 117 421 95 153-21 205-49 280-149 65-87 89-81 59 15-6 19-2 22 48 33 99 20 188 15 259-16 111-48 169-32 198 56 12 38 14 39 31 24 20-18 49-12 49 10 0 8-18 28-39 45-33 27-42 41-52 89-23 111 7 218 65 233 24 7 33 3 57-22 28-30 49-31 49-3 0 16-38 58-59 65-10 4-8 22 9 84 33 119 99 232 156 270 38 25 152 66 209 76 95 15 243 4 319-25m-3055-2804c1-7-3-10-9-7-5 3-10 21-9 38 1 31 1 31 9 7 4-14 8-31 9-38m3046-184c-20-30-19-56 4-94 19-31 33-114 19-114-4 0-28 19-53 43-40 39-45 48-45 88 0 25 8 57 19 75 10 17 29 60 42 95l24 64 3-68c2-48-1-73-13-89m647-15l180-147-4-67c-3-49-9-74-23-90-28-31-77-49-132-49-46 0-54 5-181 108l-134 108-25 76c-28 83-27 111 10 153 20 24 83 53 115 55 7 0 94-66 194-147m-462-223c20 0 57 10 82 23 37 19 49 21 62 12 9-7 16-15 16-19 0-12-89-47-143-56-63-10-91 0-112 39-23 46-18 53 21 26 23-16 51-25 74-25m-2639-156c157-127 149-118 149-174 0-103-41-146-145-157l-53-6-85 69c-76 61-87 74-97 115-16 66 2 121 60 181 26 27 53 48 62 48 8 0 57-34 109-76m446-382c73-37 413-148 695-228 140-39 577-45 717-10 71 18 225 87 256 115 43 39 45 36 45-43 0-73-2-78-35-114-25-28-60-50-125-76-85-35-108-57-76-69 39-15 146 34 216 99l47 43 16-35c22-45 21-78-3-155-30-98-35-184-16-258 21-83 20-136-5-244-25-107-22-222 10-328 26-88 34-164 21-228-14-73-14-289-1-325 10-25 8-33-14-61-27-36-123-87-195-105-25-6-119-14-210-17-178-6-279 4-352 36l-43 18 1 74c1 271 2 276 33 311 34 39 90 68 186 97 120 36 215 94 193 116-6 6-65-4-124-21l-21-6 19 58c11 32 26 67 34 78 31 45 5 86-29 45-10-13-34-53-52-89-29-58-44-73-140-144-69-52-115-94-130-120-27-46-40-133-51-338-7-125-7-127-33-137-81-33-344-56-536-48-108 5-151 11-250 40-66 19-144 40-173 47-59 14-105 47-128 92-13 25-13 46-4 148 6 65 10 237 8 382-3 267 12 501 48 743 15 104 102 427 113 421 3-2 60-14 126-26 130-24 168-39 236-96 24-20 56-41 70-46l27-9-28-74c-34-92-74-160-104-180-12-8-48-20-79-26-65-13-108-1-134 37-17 26-14 46 23 170 13 45 24 92 24 104 0 33-30 21-51-20-24-47-59-211-59-277 0-51-1-54-29-59-53-11-93-66-57-80 7-3 37 9 65 26 44 27 66 33 141 39 78 7 97 13 157 47 63 37 70 44 113 124 25 47 55 100 67 116l22 31 71-24c206-69 606-102 695-58 42 21 57 51 30 61-8 4-24-1-34-10-12-11-49-20-107-26-80-9-110-6-301 25-254 41-381 68-422 90-17 8-55 35-84 59-72 58-78 61-197 90-96 24-155 50-178 79-6 8-6 44 1 108 10 92 11 95 28 78 10-10 35-27 56-37m-332-1547c0-44-3-148-7-231-6-157 1-204 37-244 17-19 31-110 60-387 27-263 70-490 114-599 65-165 73-199 59-264-15-72-5-112 25-108 20 3 23 11 29 78 10 100 4 140-38 235-41 93-81 291-119 595-35 266-43 405-24 397 148-64 264-89 500-108 140-11 165-10 255 6 54 10 135 28 179 41 44 13 82 24 85 24 10 0 11-508 1-665-13-219-71-464-158-670-37-88-58-162-68-245-9-70-26-94-83-122-42-21-61-23-187-23-126 0-145 3-193 24-39 18-61 36-79 65-38 61-113 129-192 176-79 47-183 151-241 242-97 150-130 394-91 668 26 181 26 282 1 384-24 96-24 93-1 72 23-21 41-14 41 15 0 34-36 91-105 167-73 81-71 71-28 180 28 74 28 117-2 117-15 0-21-9-26-40-4-22-17-60-28-85-11-25-21-62-21-83v-39l-37 23c-57 33-57 35-39 73 9 19 28 86 42 148 33 149 59 192 144 236 56 29 71 32 129 30l66-3v-80m-634-296c46-28 124-78 173-110 49-33 113-66 142-75 80-23 89-42 135-280 22-115 22-128 10-250-18-193-17-189-54-119-18 33-67 95-110 139-42 44-75 81-73 84 3 2 19-1 37-7 46-16 55-14 34 9-27 30-75 41-170 38-84-3-87-2-111 25-13 15-24 37-24 47 0 18-71 80-92 80-25 0-18-34 14-68 19-20 45-58 58-85 28-61 47-71 124-62l61 6 56-63c87-98 124-155 167-258 34-82 42-115 56-240 23-196 32-240 61-282 21-31 22-37 9-42-48-18-131 5-144 40-12 29-44 31-63 4-29-41-146-67-164-36-23 38-80 45-129 15-53-33-74-23-114 51-19 36-60 90-91 120-48 47-61 68-90 145-41 112-48 230-25 418 13 108 14 151 3 289-23 316-13 415 46 470 37 33 74 46 138 47 38 1 59-7 130-50m2683-541c-2-308-4-354-23-453-28-137-47-181-165-364-129-202-182-304-197-380-15-81-59-148-119-181-40-21-60-25-170-28-69-2-151 1-182 7-51 9-63 17-123 76l-66 67 31 101c73 234 142 469 166 567 26 102 27 117 33 505l6 400 30-1c17-1 73-11 125-23 167-37 475-25 589 23 31 13 58 24 61 25 3 0 5-153 4-341"/><path d="m1560 7760c-11-7-6-13 25-25 22-9 69-31 105-48 53-25 61-31 45-38-25-9-71-3-155 23-83 25-244 27-322 4-59-17-108-49-108-71 0-26 18-25 49 1 45 38 109 40 341 13 181-21 204-22 228-8 65 36 18 104-95 139-73 22-91 24-113 10"/><path d="m2417 7621c-20-4-40-11-44-14-16-16 12-19 82-8 96 16 166 3 236-45 29-19 54-32 58-29 12 13-18 42-75 69-48 24-74 30-139 32-44 2-97-1-118-5"/><path d="m4755 7580c-4-6 7-31 24-57 25-37 31-57 31-100 0-39 4-55 15-60 25-9 29 3 27 79-2 51-9 82-23 104-25 41-60 57-74 34"/><path d="m945 7456c-127-40-198-127-198-246 0-60 15-100 38-100 18 0 19 11 3 62-9 32-8 48 6 95 10 31 31 69 46 84 24 25 99 53 193 73 30 7 36 30 11 40-23 9-54 6-99-8"/><path d="m2843 7438c-14-18-21-41-37-118-27-126-84-205-216-293-67-45-72-51-53-60 30-13 102 31 189 117 79 79 127 164 145 258 16 79 0 132-28 96"/><path d="m3025 7431c-17-29 249-246 390-317 116-59 120-63 118-124-2-35 2-50 10-50 52 0 47 101-6 159-12 12-67 46-122 73-60 30-126 74-165 108-78 69-198 160-210 160-5 0-11-4-15-9"/><path d="m1347 7376c-54-15-87-40-72-55 6-6 30-3 65 9 40 14 83 19 160 19 170 1 283-31 368-102 45-38 62-40 62-7 0 27-80 74-190 111-83 28-110 33-220 36-84 2-141-2-173-11"/><path d="m989 6993c-11-12-14-56-14-182v-166l43-108c46-114 82-167 112-167 31 0 30 14-1 61-109 160-135 271-116 487 9 93 3 109-24 75"/><path d="m2496 6773c-55-20-78-45-59-64 9-9 17-7 32 12 18 23 25 24 140 25 66 0 123 3 126 6 15 15-34 31-107 34-62 3-95 0-132-13"/><path d="m3524 6716c-3-14-3-29 0-35 7-10-13-111-25-125-4-4-24 4-46 18-72 49-270 99-280 70-2-7 18-13 52-17 61-6 157-47 230-97 26-18 52-30 58-27 25 9 52 129 48 215-1 30-29 28-37-2"/><path d="m2416 6633c-18-18 7-122 52-208 11-22 54-71 96-108 42-38 113-116 158-173 44-57 85-104 90-104 14 0 21 28 14 55-3 13-31 51-62 84l-56 61 55-25c119-55 318-77 436-50 196 45 196 46 267 152 41 62 69 136 60 160-6 14-8 14-25-1-10-9-23-34-30-56-14-47-81-134-123-160-83-50-213-27-332 60-74 54-96 61-96 31 0-28 58-69 153-107l82-34h-55c-86 0-260 26-316 48-62 23-161 89-208 139-20 21-59 82-86 135-51 97-62 113-74 101"/><path d="m3647 6526c-62-14-98-39-81-56 7-7 25-4 57 10 26 12 70 24 97 27 31 3 49 10 47 17-5 16-53 17-120 2"/><path d="m2267 6234c-11-12-8-52 7-87 11-28 28-40 107-76 68-32 100-52 114-75 14-22 35-36 69-47 27-8 69-32 93-53 41-36 63-40 63-11 0 16-48 54-105 83-75 38-80 44-85 119-4 61-7 68-27 71-20 3-23-1-23-33v-36l-47 7c-56 8-109 29-119 46-5 7-11 31-14 52-5 38-19 54-33 40"/><path d="m3485 6141c9-54-16-71-106-71-59 0-71-4-123-37-39-26-59-46-63-65-3-15-12-29-20-32-8-3-57 0-109 6-66 8-100 9-112 2-9-6-32-40-49-77-29-60-35-67-62-67-37 0-48-15-22-29 50-27 102 4 122 75 8 25 19 50 26 55 8 7 38 7 88 0 42-6 94-11 116-11 37 0 40 3 64 51 21 41 35 55 72 71 31 14 55 18 77 13 117-24 129-17 134 84 4 68 3 71-18 71-20 0-21-3-15-39"/><path d="m3575 6104c-20-30-29-84-17-101 4-7 35-15 67-19 77-8 105-25 105-64 0-60 15-77 74-90 83-17 101-36 101-107 0-53 2-58 23-61 34-5 37 21 12 91-36 98-45 107-100 107-58 0-73 15-65 66 9 65-9 86-85 99-85 14-89 17-83 65 6 46-7 52-32 14"/><path d="m2377 5963c-12-11-8-48 8-69 22-29 18-34-24-34-53 0-89 15-128 52-19 19-38 28-47 25-23-9-20-21 16-56 39-38 124-71 182-71 39 0 45-3 56-30 7-17 27-43 45-59 38-33 113-51 126-30 12 19 3 27-39 35-20 4-43 11-49 16-7 6-34 52-59 104-46 92-74 130-87 117"/><path d="m3490 5868c0-59-5-93-18-118-15-31-22-35-60-38-33-2-55 4-96 27-72 42-156 41-156-1 0-18 5-20 41-15 34 4 53 0 106-29 63-33 126-44 168-28 25 10 42 54 54 137 9 64 8 84-4 112-23 58-35 42-35-47"/><path d="m2977 5720c-52-32-82-74-92-126-7-40-19-48-108-64-63-11-71-16-94-51-30-45-79-79-116-79-27 0-67 40-124 123-26 38-38 47-62 47-33 0-60-25-44-41 8-8 17-7 32 1 20 10 23 7 42-37 40-93 96-143 163-143 13 0 47 16 75 35 28 19 60 35 71 35 33 0 60-56 60-122 0-71 13-81 117-97 39-6 78-13 85-16 20-8 39 17 28 35-5 8-37 17-76 21-37 5-75 16-84 24-10 9-20 38-24 71-3 31-15 73-26 94l-20 39 54 15c67 20 89 46 106 125 15 71 22 78 75 83 35 3 40 6 40 28 0 35-23 35-78 0"/><path d="m3547 5744c-13-13-7-45 14-75 18-26 26-29 73-29 68 0 116-16 116-40 0-22 28-34 46-19 20 16 17 43-5 63-14 12-45 20-101 25-58 5-84 11-91 22-18 33-45 60-52 53"/><path d="m3456 5575c6-48 3-63-20-110-33-64-32-108 2-113 25-4 27 1 10 27-10 16-6 27 24 72 68 104 71 118 32 154-44 41-55 34-48-30"/><path d="m3785 5507c-4-13 3-42 14-67 31-67 27-115-14-180-39-60-44-83-17-78 10 2 32 32 52 73 43 87 47 155 11 228-25 52-38 59-46 24"/><path d="m3406 5285c-20-42-45-59-106-75-55-14-90-36-90-56 0-24 29-28 53-6 14 12 43 22 77 26 30 4 60 10 66 14 17 11 42 65 46 97 5 45-25 44-46 0"/><path d="m3486 5263c-9-9-7-32 5-76 13-46 52-67 128-67 39 0 53-4 65-21 15-22 46-23 53-2 3 7-7 24-21 38-18 18-36 25-64 25-64 0-101 18-122 60-21 41-33 53-44 43"/><path d="m3347 5110c-3-11-1-38 4-60 5-22 6-53 3-68-11-47-78-186-97-200-12-10-17-24-15-45 2-27 8-33 31-35 28-3 39 19 17 33-7 4-2 16 13 29 37 34 91 180 92 246 0 80-34 153-48 100"/><path d="m2847 4163c-15-14-6-44 16-52 12-5 114-11 227-14 194-4 470-33 470-47 0-4-75-17-167-29-246-33-348-50-410-72-66-22-83-35-83-60 0-28 28-24 110 15 78 38 130 48 355 71 164 16 212 26 245 53 74 60-84 96-475 108-168 5-235 11-250 20-22 16-29 17-38 7"/><path d="m2016 3917c-50-75-64-283-37-534 12-104 13-154 4-230-11-99-6-123 23-123 7 0 19 10 26 23 18 30 16 284-2 402-18 119-17 255 4 331 18 68 21 154 6 154-5 0-16-10-24-23"/><path d="m2538 3590c-25-15-22-39 5-49 12-4 58-11 102-14 108-8 152-26 245-98 82-63 110-70 110-26 0 50-121 128-260 166-92 26-180 35-202 21"/><path d="m2271 1471c-23-15-15-60 24-137 44-87 101-144 144-144 17 0 32 4 36 9 3 5-20 34-51 63-68 63-114 132-114 169 0 31-20 51-39 40"/><path d="m1405 1766c-10-66 4-100 43-104 52-5 56 40 10 108-33 49-46 48-53-4"/><path d="m1243 1774c-3-9-2-37 3-63 8-40 12-46 37-49 26-3 27-2 27 42 0 62-50 114-67 70"/></g></svg>