<svg xmlns="http://www.w3.org/2000/svg" width="1078.75" height="1200" viewBox="0 0 863.000000 960.000000"><g transform="matrix(.1 0 0-.1 0 960)"><path d="m6907 9120c-101-25-193-108-257-231-51-99-80-208-85-328l-3-94-72-28c-99-38-191-95-290-180-107-91-192-146-244-159-149-38-269-76-322-101l-60-28-60 24c-178 73-424-18-559-208l-20-27-48 16-47 16 26 31c15 18 43 65 63 107l36 75v225c0 182-3 240-18 305-23 99-87 230-139 284-83 87-245 138-376 120-135-19-242-95-303-215-30-60-34-77-37-168-3-64-9-104-17-111-17-13-45-101-45-139 0-16 10-50 22-75 25-51 100-131 123-131 19 0 20 4-15-120-17-58-30-115-30-127 0-29-32-49-112-72-101-29-146-53-243-127l-90-70-50 14c-28 8-96 15-155 15-86 0-114-4-153-21-54-24-166-109-194-148-18-24-21-25-163-27-136-2-149-4-205-30-48-23-229-67-280-69-5 0-68 10-140 22-100 17-150 20-215 15-95-7-269-31-294-41-9-3-40 4-69 16-70 31-172 31-242 2-27-12-90-26-138-31-48-6-107-19-131-29l-43-19-13 36c-44 127-139 245-238 293-138 68-292 34-401-89-237-266-223-762 29-997 75-70 127-91 230-91 66 0 95 5 133 22 50 23 153 114 162 143 4 13 16 18 39 18 19 0 42 5 53 10 18 10 21 5 36-61 35-152 138-302 248-362 43-23 69-30 134-33 113-6 177 20 259 102 111 111 174 265 183 452l6 110 51-7c28-5 91-19 141-34 136-38 163-35 344 41 64 26 65 26 130 11 52-13 76-14 116-5 38 8 82 7 197-7 163-20 245-17 332 13 45 15 58 16 67 6 15-19 249-546 249-562 0-19 106-131 210-222 63-56 123-117 132-135 31-59 60-213 55-288-4-55-13-86-55-172-46-94-52-116-67-227-13-103-14-145-5-258 7-74 9-160 5-190-11-101-56-343-96-520-21-96-39-180-39-186 0-6 27-26 60-45 33-19 59-41 60-49 0-8-7-71-15-140-9-73-15-207-15-320 0-173-20-460-37-515-3-11-32-76-65-144-50-105-63-146-90-275-46-224-44-261 32-551l63-240v-145c0-80-3-162-7-183-5-24-4-55 4-82 10-36 10-51-4-93-19-57-20-52 50-202 41-87 55-131 60-180 11-116 52-251 87-288 46-48 172-130 211-137 34-7 133 4 266 29 58 11 79 20 95 40 13 16 31 26 47 26 58 0 127 94 128 173 0 52-10 68-114 178-143 152-303 415-361 595l-28 85 17 177c24 241 39 327 76 418 43 109 50 176 38 372-15 245-13 254 75 434 77 156 97 211 97 262 0 17 12 41 29 62 88 99 139 232 161 414 17 137 40 292 46 302 11 18 24 6 47-45 13-29 70-122 126-205 112-168 125-203 114-316-5-61-4-68 32-132l38-67-12-76c-7-42-18-110-26-151-8-41-14-135-15-208 0-215 32-330 131-463 28-38 57-89 64-112 35-118 26-302-26-511-21-86-32-157-36-243l-6-123 49-49c31-31 64-53 89-60 22-6 112-11 200-11h161l68-44c85-56 112-61 356-61 233 0 274 10 351 84 43 42 49 52 49 89 0 91-14 103-201 157-184 54-182 53-386 231-61 53-202 244-215 291-5 21-3 111 7 249 15 208 15 230-6 533-20 303-21 467-3 656 7 68-10 189-36 255-14 38-16 69-12 190 2 85-1 184-8 240-24 185-24 187 0 200 32 17 20 61-35 122-60 67-77 124-80 268-2 124-11 157-81 290-18 36-51 108-71 160-35 88-38 103-38 197-1 56-4 105-8 109-3 4-4 40 0 81 6 68 4 75-18 99-26 28-25 6-16 315 4 136 7 150 36 216 25 57 31 86 32 145 1 40 6 125 13 188 9 91 8 134-2 205-14 95-11 196 8 280 8 38 8 71-2 135-18 126-16 155 12 186 52 54 76 64 192 79 62 9 145 24 183 36 80 24 257 113 330 166 37 27 99 53 237 99 103 34 204 72 225 85 21 13 70 54 109 91l71 68 54-25c103-47 224-31 319 45 28 22 98 111 116 148 1 2 27-14 57-35 50-34 59-45 77-99 45-133 149-262 250-312 46-23 68-27 135-27 71 0 89 4 147 33 119 58 213 192 259 368 29 110 28 297 0 408-46 176-147 317-268 374-49 23-71 27-138 26-103 0-157-25-244-112-71-70-93-82-151-82-38 0-38 0-50 53-7 28-32 94-56 144-51 106-130 196-204 230-55 25-141 35-193 23m170-82c48-22 118-93 156-159 24-41 77-179 77-201 0-4-34-8-77-8-68 0-82-4-139-35-69-39-239-95-378-125-49-11-92-20-94-20-2 0-1 37 3 83 23 259 133 441 293 482 56 15 102 10 159-17m-2415-176c128-56 202-168 243-364 21-99 29-277 17-389-9-82-17-110-54-185-54-110-90-134-203-134-68 0-78 3-192 60-67 34-127 68-134 76-9 11-12 39-11 84 3 62 1 70-19 80-21 12-21 10-17-27 3-21-1-54-7-73-18-50-6-71 70-125 145-104 260-145 358-128l57 10v-31c-1-27-20-92-45-148-5-14-2-18 14-18 33 0 59 56 76 161l6 37 34-11c40-12 44-22 15-39-29-19-25-38 9-38 24 0 40 12 83 62 136 159 207 212 319 237 67 16 173 13 219-5l41-16-26-34c-35-46-65-113-65-147 0-24 4-28 23-25 16 2 26 15 37 50 27 85 67 128 168 181 76 40 109 51 200 66 59 10 123 26 142 36 44 22 121 79 235 175 157 132 244 170 530 235 123 29 300 86 360 119 33 18 62 22 178 26 75 3 137 2 137-1 0-3-9-24-20-47-41-85-54-160-55-309 0-93-3-139-10-133-5 4-44 33-85 64-41 31-81 61-87 66-7 6-13 24-13 41 0 21-6 32-24 40-32 15-173-31-214-69-15-15-60-79-100-143-76-124-188-243-273-292-24-13-100-41-169-62-69-21-133-41-142-47-23-11-23-2 1 87 21 82 29 99 88 181 44 63 54 94 29 94-35 0-134-146-156-230-6-25-16-62-21-83-14-54-61-102-164-169-109-71-226-111-381-131-106-14-149-29-214-75l-25-17 24 34 24 33-24-7c-13-4-32-15-41-26-20-23-33-129-24-202 25-216 20-240-66-308-81-64-141-89-219-89-57 0-72 4-110 30-47 31-61 25-35-15 29-44 65-60 136-60 92 0 127 10 203 55 36 22 71 40 76 40 6 0 11-16 11-37 0-36 0-36-20-18-28 25-34 14-16-30 23-53 21-120-4-145-11-11-26-17-35-14-8 4-15 1-15-5 0-16 26-24 54-17 15 4 30 20 40 43l16 38-5-40c-3-22-8-93-11-158-8-136-18-151-64-96-26 32-33 34-101 39-73 5-73 5-83 38-6 22-14 32-25 30-22-4-25-30-7-72l15-36h76c70 0 76-2 84-23 13-34 37-50 70-45 28 4 29 3 24-31-5-41-66-168-119-251-38-60-61-69-81-30-7 14-18 25-25 25-22 0-20-40 3-68 17-23 28-27 59-25 35 2 40 6 55 42 8 23 25 52 36 66l20 25-5-70c-3-38-12-108-21-155-14-72-14-95-4-153 14-77 7-111-28-135-22-14-23-13-23 21 0 20 5 48 10 63 7 17 7 31 1 37-15 15-41-35-48-91-5-49-7-51-52-70-114-48-178-55-420-48-124 4-245 9-268 12-38 5-42 9-48 42-8 42-32 92-44 92-21 0-29-26-16-50 8-14 14-35 15-47 0-20-3-21-32-12-18 5-65 26-104 47l-72 36-6 61c-4 33-17 107-30 163-28 122-52 161-146 240-110 91-207 191-228 235-12 23-40 85-63 137-74 170-126 283-163 360-20 41-32 76-27 78 5 2 35 21 67 44 56 39 59 40 95 28 41-14 69-8 69 13 0 18-35 34-93 42-41 6-48 4-83-28-49-44-143-91-221-111-76-20-152-20-268-1-110 18-180 19-240 3-42-11-50-10-90 11-50 26-44 27-185-36-113-50-189-51-334-5-54 18-111 32-127 32-23 0-29 5-29 21 0 78-64 228-136 322-25 33-44 60-42 62 2 2 55 13 118 24 191 35 331 26 518-34 90-28 117-27 107 4-5 15 0 21 26 26 17 4 78 27 136 52l104 45 87-9c140-13 147-11 229 68 44 43 93 79 128 95 55 25 63 26 184 21 145-6 225-27 311-81 63-41 100-47 100-16 0 24-42 52-122 82-32 11-58 23-57 27 0 3 38 34 84 68 67 50 99 67 162 84 43 12 93 28 111 35 18 8 38 12 43 9 5-4 14 6 20 22 16 42 59 253 59 289 0 33-33 84-55 84-18 0-74 66-92 109-20 48-10 116 22 137 21 14 26 14 54 0 36-19 41-20 41-3 0 7-14 25-31 40-31 27-31 28-27 105 9 159 104 286 248 333 14 5 70 7 125 5 75-2 112-8 147-24m3228-68c42-12 67-29 115-77 115-117 165-256 165-457 0-201-50-340-166-457-49-50-71-65-118-78-180-52-338 71-417 325-20 63-24 96-24 210 0 114 4 147 24 210 54 173 140 282 255 322 64 22 98 22 166 2m-747-533c4-20 20-37 51-57 25-16 46-34 46-39 0-23-98-131-143-159-76-47-209-47-248 0-9 11-9 18 3 32 8 9 32 46 54 82 46 78 100 140 123 140 9 1 27 7 41 15 42 24 67 19 73-14m-6213-732c69-29 142-110 190-211 22-45 40-87 40-92-1-20-125-96-224-136-141-57-146-61-146-118 0-151 101-315 223-360l52-20-43-41c-69-66-115-86-202-86-59 0-85 5-120 24-96 50-189 186-227 331-23 90-23 292 1 380 49 180 163 318 291 351 43 11 108 3 165-22m819-256c87-31 175-146 227-298 26-74 28-92 28-230 0-136-2-157-27-231-46-137-135-251-231-295-59-27-148-25-211 5-64 29-144 115-185 195-49 97-70 196-70 326 0 193 51 340 159 453 90 96 187 119 310 75m-384-69c-97-119-145-264-145-442v-102l-27-11c-16-6-62-9-104-7-89 4-102 12-160 101-38 59-89 193-89 235 0 12 8 25 18 29 70 25 272 129 328 169 60 43 156 81 212 83 7 1-8-24-33-55m3960-1683c-24-47-73-99-119-126-94-54-364-82-630-66-192 12-277 29-310 60-55 52-80 18-108-146-18-109-20-134-9-147 31-37 39-19 43 97 2 62 9 122 16 134l12 22 53-24c28-13 79-27 112-31 33-4 63-12 67-18 4-6 8-32 8-57 0-45-3-50-65-107-35-34-97-80-137-103-93-54-123-80-106-91 27-16 64-8 78 17 9 17 38 35 94 57 128 52 201 140 200 240v47l125-6c157-7 354 10 478 43 108 28 138 42 188 85l35 31v-28c0-16-5-47-10-69-7-31-5-49 12-90 11-27 24-59 28-71 6-15 1-33-20-65-35-57-82-193-78-227 2-21 9-28 31-30 17-2 27 2 28 10 0 7 2 47 2 89 2 65 6 81 31 119l28 43 50-98c74-145 79-164 83-310 2-71 8-143 15-160 6-16 34-56 61-87 27-31 49-61 49-66 0-6-12-14-27-20-29-10-163-114-176-137-8-16-105-53-232-91-92-27-275-44-330-30-25 6-26 9-20 54 12 96 16 112 29 112 35 0 120 34 151 61 19 17 49 56 67 87 17 31 51 85 75 120 24 35 40 69 37 77-15 37-41 12-162-156l-62-86-74-12c-116-19-136-48-136-201 0-69-2-78-22-88-51-26-317-113-391-128-97-20-137-15-276 32-133 46-201 80-201 100 0 9 9 50 20 92 10 43 40 171 65 285 41 188 45 221 44 335 0 70-3 147-7 172-5 25-4 105 0 178 8 131 9 135 60 250 28 64 54 120 58 125 4 4 26-3 51-17 108-59 259-86 524-93 166-5 215-3 285 12 111 22 228 68 282 109 47 37 57 33 33-13m321-1342c15-132 15-382-1-456-6-26-4-33 8-33 11 0 19-16 26-52 24-122 23-160-4-292-26-132-27-156-2-156 11 0 16-31 21-147 4-82 12-210 18-287 11-139 9-244-12-545-13-188-9-236 24-277 13-16 47-58 75-94 78-100 271-304 315-333 22-15 77-35 131-47 123-28 232-80 241-115 8-34-5-47-76-79-83-37-165-49-295-42-161 10-221 22-311 67-99 49-233 70-331 52-70-13-106-2-147 48-28 33-29 35-22 129 3 52 20 151 37 220 41 169 56 335 40 452-14 110-29 146-87 220-96 123-130 255-121 473 5 127 30 280 48 300 18 19 8 62-36 150-43 87-45 93-45 181 0 123-17 172-97 279-62 83-163 246-163 263 0 4 60 7 133 8 228 2 394 58 532 182 44 39 81 69 83 68 1-2 9-63 18-137m-931-370c-9-96-23-200-32-233-15-53-98-197-128-221-7-5-21-41-30-80-9-38-30-95-47-125-17-30-37-68-46-85-8-16-30-55-48-85-18-30-43-93-54-140-12-47-39-116-60-155-47-84-80-197-110-368-18-105-20-130-9-143 18-22 23-9 49 121 33 170 58 254 93 312 17 29 35 53 39 53 8 0 13-185 8-295-1-39-14-90-36-148-47-121-64-197-64-298 0-48-9-137-19-198-22-121-18-151 28-269 76-192 262-486 367-578 79-69 99-108 85-162-16-56-38-82-70-82-22 0-30 6-35 25-5 18-13 25-30 25-29 0-39-21-25-57 16-44 5-54-53-52-30 2-74-5-101-14-26-9-74-17-106-17-50 0-66 5-117 39-87 57-113 88-123 152-5 30-14 66-20 81-6 15-20 74-31 130-11 56-26 113-34 127-7 14-29 56-49 93l-35 66 15 52c13 44 13 62 3 110-11 51-10 64 7 111 33 90 13 254-66 549-69 256-74 285-62 392 14 126 47 235 120 400 33 75 66 158 72 185 6 26 15 190 19 363 4 173 11 326 14 340 3 14 9 69 13 123 5 84 8 98 22 93 244-83 279-85 459-30 152 47 236 71 240 69 1-1-5-80-13-176"/><path d="m6686 8245c-81-24-103-36-92-53 4-6 33-1 79 14 39 13 85 26 100 29 29 6 33 28 6 32-8 1-49-9-93-22"/><path d="m6045 8047c-13-10-17-19-10-25 15-15 227-20 232-5 7 20-38 35-121 40-63 4-86 1-101-10"/><path d="m4289 7798c-3-30 5-56 32-109 32-64 70-99 107-99 23 0 21 4-30 58-42 44-58 69-68 110-8 29-19 52-27 52-7 0-14-6-14-12"/><path d="m4911 7574c-53-11-73-21-108-56-46-45-53-65-26-75 11-4 27 6 52 36 33 38 42 43 106 52 76 12 112 32 85 49-19 12-30 12-109-6"/><path d="m4438 7474c-48-7-146-18-218-23-72-5-134-11-137-14-3-4-3-13 0-22 9-22 91-19 287 10 204 31 207 31 270-1 47-23 54-25 67-11 14 14 9 19-45 46-68 35-91 36-224 15"/><path d="m3875 7278c-10-18-46-59-79-90-51-49-58-59-46-72 7-9 19-16 27-16 22 0 108 86 133 134 37 68 4 109-35 44"/><path d="m3088 7189c-10-5-18-17-18-26 0-14 13-15 108-9 110 7 141 2 230-40 38-18 67-15 67 6 0 23-61 48-159 65-101 17-203 19-228 4"/><path d="m2791 7160c-30-17-78-48-107-71-60-46-112-68-164-69-55-1-80-10-80-31 0-16 8-19 44-19 25 0 56 4 71 10 30 11 67-3 99-39 11-12 27-21 38-21 30 0 21 37-16 67l-35 27 102 53c107 56 154 93 143 112-11 18-38 13-95-19"/><path d="m4780 7177c0-7 18-48 39-89 72-138 63-227-31-320-59-59-122-99-233-147-229-101-365-93-441 26-62 97-236 253-283 253-35 0-24-33 17-57 62-35 138-109 196-192 32-46 76-94 108-117l53-39h107 107l138 70c155 79 301 185 326 237 26 56 39 121 33 165-6 44-56 154-85 186-24 28-51 41-51 24"/><path d="m5097 6723c-2-5-7-20-11-35-7-32-22-35-54-12-31 21-30-5 1-34 39-36 97-22 97 23 0 34 27 32 78-5 78-56 87-30 11 30-36 29-60 40-84 40-19 0-36-3-38-7"/><path d="m4828 6663c-15-15-36-50-48-78-27-63-44-81-102-111-53-27-73-54-63-91 4-18 11-23 28-21 16 2 21 10 22 32 0 25 8 34 50 59 78 45 103 74 116 133 17 77 21 81 64 65 20-7 39-10 43-6 14 13-17 40-49 43-27 2-40-3-61-25"/><path d="m4987 6654c-3-3 5-31 19-61 20-46 23-65 17-110-8-74-24-90-111-108-59-12-89-26-163-76-149-100-200-111-217-46-10 40-47 46-47 8 0-37 63-83 123-89 64-6 110 16 178 84 47 47 58 54 128 69 97 22 130 48 146 115 15 64 6 113-32 173-32 51-32 50-41 41"/><path d="m4181 6460c-12-7-12-12 3-35 9-14 31-34 47-44 37-23 22-31-55-31-57 0-99 23-111 60-10 32-25 23-25-16 0-48 14-70 51-83 51-18 110-13 155 13 22 13 62 25 88 28 85 10 89 48 6 48-61 0-99 14-125 45-14 17-24 22-34 15"/><path d="m4180 6261c0-5 12-19 27-31 27-21 27-22 9-36-11-8-35-14-52-14-26 0-39 8-61 35-15 19-31 35-35 35-24 0 12-76 50-107 23-19 73-16 110 7l32 20 45-22c36-18 47-20 58-9 10 10 5 18-23 41-33 27-140 90-154 90-3 0-6-4-6-9"/><path d="m5074 6163l7-100-40-36c-49-44-70-50-138-39-71 12-111 4-130-24-18-29-68-32-114-8-31 16-59 13-59-5 0-6 20-22 43-36 55-31 112-33 143-4 26 24 79 38 149 39 71 1 135 28 162 69 38 56 27 209-18 236-9 6-11-13-5-92"/><path d="m4566 6105c-31-48-59-48-169 0-16 6-18 4-15-16 5-34 61-63 126-64 45 0 57 4 73 24 19 23 26 81 10 81-5 0-16-11-25-25"/><path d="m4210 6003c0-10 11-38 23-63 38-75 121-100 181-55 29 22 8 38-31 23-26-10-35-8-67 12-21 12-49 40-63 61-28 42-43 50-43 22"/><path d="m4640 5854c0-39 52-86 92-82 32 3 53 28 24 28-9 0-36 18-60 40-24 22-46 40-50 40-3 0-6-12-6-26"/><path d="m5080 5788c-22-24-27-77-8-96 19-19 25-14 37 32 21 84 11 107-29 64"/><path d="m4660 5725c-23-28 15-138 63-183 32-31 90-44 114-27 15 11 12 15-33 38-66 34-90 63-98 119-8 54-27 76-46 53"/><path d="m946 6992c-90-31-66-55 29-30 45 12 45 12 84-26 34-33 43-37 81-34 52 4 68 28 19 28-24 0-41 9-70 40-43 46-66 49-143 22"/><path d="m4910 5103c-80-9-206-35-256-54-78-29-111-89-50-89 13 0 30 7 37 17 19 23 85 50 139 57 71 10 403 36 407 33 2-2-16-10-39-17-46-13-297-119-359-151-49-24-109-77-109-94 0-30 24-24 88 20 79 53 317 156 467 202 56 17 60 20 60 48v30l-175 1c-96 1-191-1-210-3"/><path d="m5321 4816c-49-53-92-60-391-64-183-2-277-7-281-14-19-31 3-33 279-30 243 3 284 6 338 23 65 21 108 56 102 85-5 27-22 27-47 0"/><path d="m5580 3778c-11-18-20-37-20-41 0-5-29-22-65-38-67-30-75-39-51-58 20-17 63 2 114 52 48 46 72 85 65 105-8 20-22 14-43-20"/><path d="m5417 3383c-14-14-6-43 16-54 12-7 40-27 61-46 23-19 50-33 65-33 24 1 23 4-25 48-29 26-57 57-63 70-11 21-40 29-54 15"/><path d="m5490 2659v-102l-36-34c-41-38-40-66 2-61 44 5 65 46 77 146 11 95 0 152-29 152-11 0-14-22-14-101"/><path d="m5445 1782c-14-21-30-53-35-71-21-73 42-151 122-151 67 0 61 53-7 66-19 3-41 14-50 24-15 17-15 22 7 77 37 93 13 130-37 55"/><path d="m6257 1393c-13-13-7-21 24-27 17-3 39-16 50-28 15-19 20-21 28-9 14 22-3 47-40 60-37 13-53 14-62 4"/><path d="m4372 3545c-17-14-58-35-91-46-91-31-178-136-142-172 9-9 24 2 65 47 40 45 74 70 142 105 67 35 89 51 89 66 0 29-28 29-63 0"/><path d="m4403 3456c11-78 50-138 78-120 14 8 11 31-11 66-11 18-20 48-20 66 0 28-3 32-26 32-26 0-26-2-21-44"/><path d="m4210 3131c0-40 24-56 88-56 41 0 57 4 65 17 16 25 6 29-47 19-45-8-48-7-68 20-27 37-38 37-38 0"/><path d="m3958 2905c-5-6-1-111 8-203 6-55 25-85 49-76 11 5 12 12 4 32-19 49-26 122-17 173 7 36 6 55-3 65-12 14-31 18-41 9"/><path d="m4063 1505c-65-55-85-136-35-143 18-3 26 5 41 41 11 25 28 48 39 51 31 10 55 42 47 65-10 31-46 26-92-14"/><path d="m4449 804c-11-13-7-21 23-51 43-42 68-40 68 7 0 26-6 33-35 46-42 17-40 17-56-2"/><path d="m4266 701c-14-15-15-23-6-40 14-26 36-26 78-1 46 28 40 54-14 58-30 2-45-2-58-17"/></g></svg>