<svg xmlns="http://www.w3.org/2000/svg" width="793.75" height="1200" viewBox="0 0 635.000000 960.000000"><g transform="matrix(.1 0 0-.1 0 960)"><path d="m3063 8216c-115-36-203-135-234-262-7-27-25-75-40-106-40-79-47-123-50-285-2-79-5-143-7-143-8 0-906-150-928-155-14-3-25 2-33 18-6 12-44 44-84 71-68 45-75 48-121 42-35-4-58-13-77-32-31-30-109-59-182-69-26-4-54-13-62-21-7-8-19-14-25-14-6 0-24-7-40-15-23-12-31-25-36-53l-6-38-414-68c-395-66-468-84-419-102 9-4 213 26 452 66l436 72 23-28c20-26 29-43 22-44-38-4-942-161-946-164-2-3-2-13 2-22 4-11 13-14 29-11 28 7 913 157 925 157 5 0 15-28 21-62 7-35 14-73 17-85 2-13 17-38 33-56 47-53 90-213 102-372 22-318 32-376 90-542 36-103 64-143 133-198 34-27 60-59 76-93 31-64 42-72 100-72 67 0 110 16 145 54 19 21 48 39 75 46 62 17 141 58 248 129 101 68 151 120 219 228 26 40 49 73 52 73 3 0 14-20 24-43 10-24 33-61 52-82 28-30 37-51 46-104 12-70 49-175 80-227 24-40 37-109 39-204 1-121-15-205-49-253-40-56-49-102-60-313-9-169-12-185-49-294-22-63-51-144-65-180-29-73-77-264-77-309 0-16 5-31 11-33 9-3 5-49-11-163-20-138-22-183-17-330 4-93 12-210 18-260 5-49 12-142 13-205 4-157 17-199 83-270 67-73 118-95 202-87 55 5 62 3 106-29 96-67 330-125 520-128 66 0 139 2 162 7l42 7-5-47c-4-36 0-60 15-96 25-58 52-207 54-302 2-61-2-78-30-131-43-83-51-177-29-339 30-216 49-253 127-242 28 4 53 0 72-10 33-17 69-11 105 18 15 11 40 19 63 19 25 0 46 7 58 19 11 11 34 27 50 36 50 25 64 56 57 122-3 34-1 80 7 111 12 52 14 54 72 77 38 16 73 40 100 70 23 25 49 45 58 45 22 0 55 45 67 91 6 21 22 62 35 91 35 76 34 154-6 272-35 105-34 122 13 280 25 84 29 115 26 182-4 102-33 150-115 190-48 24-61 26-126 21-39-4-83-9-97-12-24-6-26-3-48 77-28 101-27 60-18 583 8 399 10 431 27 445 17 15 17 17-2 85-32 113-69 387-69 516 0 96-6 140-30 244-34 139-41 157-105 255-37 56-43 74-48 133-4 53-10 74-27 92-20 22-22 31-17 85 5 39 19 84 43 132 31 61 38 89 48 180l11 107 65 77c36 42 86 116 113 166 42 80 47 97 47 154 0 35 2 64 6 64 3 0 31-17 62-39 132-89 204-112 289-93 57 13 217-5 265-29 68-35 142-20 187 37 12 15 21 35 21 45 0 10 13 38 30 61 47 68 82 203 88 335 5 126-18 257-85 498-33 118-37 142-37 263-1 90 3 135 11 140 6 4 239 45 517 91 279 46 509 88 513 93 20 33-33 28-524-55-279-47-509-84-510-83-1 1 1 20 4 42l5 41 512 85c464 77 511 87 511 104 0 11-7 19-15 18-8-1-239-39-513-84l-498-84-31 39c-41 49-114 95-150 95-16 0-43-7-60-16-18-10-45-14-67-11-20 2-63-4-96-14-33-10-78-19-100-19-22 0-50-7-63-15-24-18-57-114-48-143 6-17-26-24-396-86-222-36-406-66-410-66-3 0 2 17 12 38 52 110 52 263 0 369-55 111-190 209-327 238-83 18-174 18-230 1m232-40c125-33 247-123 296-217 33-65 38-195 11-286-26-83-57-127-122-171-31-21-50-41-50-53 0-24 8-24 28 1 16 20 17 19 18-27 0-29 11-68 25-98 20-41 33-54 74-73 28-13 78-42 113-64 74-48 131-58 192-34 83 33 228 12 297-44 17-14 46-47 64-73 48-69 78-99 92-94 7 2 11 10 9 16-3 13 13 14 102 1 77-11 149-40 184-73 29-27 77-106 69-114-4-3-45 3-92 14-53 12-88 16-92 10-15-25 110-62 183-53 29 3 59 9 68 12 24 9 19 31-8 38-30 7-66 81-66 134 0 26 10 53 31 86 37 55 36 82-10 244-20 72-24 99-14 95 7-3 13 2 13 10 0 23-47 56-89 63-83 14-101 24-126 74l-25 49 35 7c20 3 48 4 64 1 39-8 51 8 51 68 0 37-6 60-25 88-26 37-55 49-55 23 0-13-77-32-88-22-2 3-1 26 3 51 9 66 32 85 98 84 28-1 44-3 35-6-10-2-18-9-18-14 0-15 27-10 61 10 37 23 67 17 75-15 8-33 33-32 26 2-7 35-44 58-85 50-23-4-28-3-17 4 22 14 61 12 111-5 29-11 46-12 53-5 7 7 6 10-2 10-27 0-9 20 24 26 43 8 100-15 141-58l28-29v-257c0-252 1-259 29-357 90-315 100-430 53-618-16-62-38-125-52-145-14-21-28-54-32-76-4-28-14-43-37-57-52-32-71-33-133-4-42 19-85 29-154 35-64 5-109 15-137 29-48 24-62 26-62 8 0-7 17-23 38-35l37-22h-37c-53 0-136 34-189 77-25 21-62 49-83 63-27 18-46 44-67 90-42 92-45 107-20 115 24 7 29 35 7 35-17 0-56-46-56-66 0-8 12-48 26-90 58-173 42-261-73-402-133-164-133-163-133-259 0-75-5-96-41-191-36-93-42-118-43-191l-1-83-44-40c-198-175-711-237-891-107-44 32-44 31-59 182-8 87-18 125-49 200-42 101-59 167-43 167 6 0 38-27 71-59 46-45 60-66 60-87 0-31 90-254 103-254 15 0 5 42-33 138-22 54-40 110-40 124 0 38-45 97-147 192-91 86-130 139-152 208-18 55-6 61 44 26 61-43 145-50 237-19 70 23 128 55 128 71 0 19-39 10-86-20-90-57-177-50-256 19l-44 39 31 97c30 94 32 97 80 127 28 17 64 43 82 59 17 15 41 30 52 34 12 3 21 11 21 16 0 19-36 8-99-30-46-27-98-48-170-65-108-26-145-46-124-67 8-8 17-7 34 4 30 19 99 33 99 20 0-40-45-171-79-229-23-39-41-74-41-77 0-4-20-37-43-74-64-99-310-314-333-290-2 2 13 18 35 35 37 30 57 67 41 77-4 3-32-18-61-46-29-27-81-66-116-86-35-19-78-52-94-73-37-46-77-64-122-56-28 5-39 16-61 56-15 27-54 74-87 102-65 57-86 90-123 196-55 154-65 204-80 422-14 197-18 224-50 320-33 101-34 105-15 108 29 5 18 25-19 34-43 12-57 37-81 147-22 100-49 151-101 190-17 12-30 30-30 41 0 21 35 50 62 50 31 0 144-82 156-112 15-40 35-36 27 5-7 35-14 42-93 92-50 31-52 34-34 44 34 18 87 13 124-13 20-13 51-29 71-35 24-8 37-19 39-33 4-31 28-35 28-5 0 32-23 51-92 77-32 12-58 25-58 30 0 16 57 21 125 10 84-13 105-24 102-52-1-11 4-23 11-25 8-3 12 7 12 31 0 42-13 51-90 61-68 9-76 14-53 30 29 20 85 28 116 16 34-13 123-86 133-109 4-10 10-57 13-106 4-64 10-91 20-94 10-3 13 2 9 21-5 26 6 37 38 37 10 0 14-14 14-54v-54l-65-42c-112-73-124-106-84-236 26-86 57-141 120-210 26-29 56-68 65-86 22-41 24-131 4-175-10-24-11-36-3-44 8-8 24 18 60 93 61 127 126 190 226 219l30 8-6-44c-2-25-1-45 4-45 16 0 30 41 40 122 18 150 33 183 120 269 97 96 159 128 260 135 109 8 114 9 183 72 35 32 83 66 107 76 24 10 61 25 82 34 43 18 81 58 102 109 18 42 19 53 5 53-5 0-18-17-29-38-11-21-27-44-35-51-14-12-19-8-36 30-11 24-20 54-20 66 0 29-21 39-95 48-46 6-66 14-87 36-26 26-28 32-28 116 0 48 5 129 9 180 8 77 15 102 44 155 20 35 41 86 48 113 16 65 23 79 73 133 60 66 122 92 221 92 44 0 103-6 130-14m1294-523c6-20 9-38 8-39-3-3-1072-184-1087-184-20 0-10 36 18 63 26 25 56 31 527 111 275 46 505 84 512 85 7 1 17-16 22-36m-133-150c27-70 39-87 69-95 17-4 48-12 71-18 49-12 53-18 89-174l29-119-27-51c-15-28-31-63-37-78l-9-27-47 20c-51 23-175 48-239 49-36 0-43 4-60 36-10 20-42 57-71 83-86 78-211 100-356 62-75-19-97-15-141 27-15 15-60 43-100 62-50 24-79 46-95 70-22 33-22 35-5 39 48 11 862 148 886 150 24 1 30-5 43-36m-1683-143c14-11 40-20 60-20 116 0 13-23-457-101-290-48-540-91-557-94l-30-7 3 43 3 43 455 77c250 42 465 77 476 78 12 1 33-8 47-19m197-123l19-48-72-33c-40-18-95-52-123-76-48-41-59-45-169-66-139-27-191-55-296-157-79-76-103-121-120-225-9-53-16-72-27-72-47 0-176-93-213-154l-17-29-11 40c-6 22-23 50-37 64-93 87-194 263-194 339 0 44 20 69 90 113 77 48 85 60 84 126l-1 56 506 87c278 47 519 85 535 84 24-1 31-8 46-49m895-1889c-8-59-27-85-92-126-45-28-54-42-27-42 17 0 93 49 113 74 12 14 19 9 56-43 23-33 49-77 58-98 22-53 64-275 77-413 18-198 50-452 61-493 12-47 12-47-86-122-132-101-327-171-450-162-113 9-105-4-105 174v154l89 87c89 88 126 151 103 174-11 11-20 2-71-69-17-23-56-59-88-81-96-65-92-56-103-254-5-96-14-186-19-200-26-69-386-107-540-57-71 23-127 58-213 133l-86 76 13 57c17 69 71 244 115 367 43 123 50 168 55 352 4 175 15 236 48 278l22 27 45-35c63-50 173-84 302-91 90-6 115-3 198 18 127 33 177 54 162 69-8 8-40 2-122-22-142-41-203-46-318-26-104 18-153 39-206 89-32 30-36 40-36 83 0 48 1 49 18 28 55-70 259-114 434-94 199 23 470 123 547 204 19 20 39 36 44 36 5 0 6-23 2-52m222-1853c-1-192 2-366 7-385l9-34-36 31c-58 51-127 63-226 42-57-12-108-46-92-62 6-6 22-2 48 14 31 19 52 24 110 24 63 0 76-3 113-30 24-16 52-46 63-66 19-32 20-39 7-54-13-15-30-17-150-12-204 7-281 40-330 143-27 54-41 201-20 214 9 6 9 13-3 31-30 45-148 521-134 535 2 2 32-1 67-7 74-12 145-5 250 22 89 24 221 86 270 127l35 30 7-107c4-58 6-263 5-456m-1355 352c34-20 80-43 103-49 53-16 286-15 353 1 29 7 56 11 59 8 10-11-56-139-98-188-23-27-67-70-98-94-64-50-105-100-96-116 4-5 31 13 62 41 52 48 93 77 93 66 0-3-7-31-15-63-8-31-15-78-15-104 0-65-13-94-54-121-37-24-50-56-19-43 50 19 125 27 195 21 151-13 255-62 385-180 129-118 356-149 570-77 137 46 215 40 280-22 23-22 35-45 43-84 13-60 10-77-31-217-36-124-36-149 1-272 45-149 48-198 16-262-14-28-26-59-26-69 0-10-9-33-20-50-15-26-27-33-50-33-17 0-30-5-30-13 0-21-49-66-100-92l-50-25v50c0 48-6 69-65 225l-27 70 16 121c21 158 20 202-4 272-26 74-81 126-151 141-71 16-122 0-188-55-21-17-46-27-69-29-20 0-85-7-145-15-123-16-217-7-383 35-114 29-198 66-295 131-69 46-95 51-71 14 12-19 9-20-48-20-57 0-63 2-106 42-84 77-87 91-95 358-4 129-12 267-19 305-16 101-14 265 4 375 27 158 19 147 76 98 27-24 78-60 112-81m683-43c4-31 33-152 65-268 48-177 58-228 63-318l5-107-45 34c-24 19-64 43-87 55-47 22-186 50-253 50h-43l6 108c7 131 20 170 89 264 30 40 69 105 86 144 31 70 47 84 100 93 4 1 10-24 14-55m585-1182c48-24 84-90 83-156 0-28-3-114-8-192-8-137-7-143 18-210 58-156 66-254 28-367-21-64-22-69-6-81 28-21 16-68-22-85-18-8-35-22-38-32-6-18-34-29-78-29-16 0-40-9-54-20-24-19-63-26-75-15-3 3 2 26 11 50 15 41 14 47-2 74-9 16-17 41-17 56 0 17-5 25-12 22-13-4-14-44-3-107 14-77-80-125-116-59-16 30-39 174-45 284-6 111 5 161 52 222 32 43 74 132 74 160 0 39-18 34-33-9l-15-43-1 40c0 22-11 99-23 170-15 95-27 138-44 161-21 29-22 34-9 70 9 27 20 40 35 42 19 3 20 1 11-17-21-38 9-34 47 7 55 59 98 82 157 82 28 0 66-8 85-18"/><path d="m3082 7788c-20-20-14-28 13-16 32 14 52-2 61-50 8-44-11-122-33-139-20-15-69-17-78-3-13 21-25 9-25-26 0-52-14-70-69-89-49-16-80-40-68-52 4-3 13-1 20 6 8 6 37 18 65 26 40 12 53 22 66 49 9 19 14 41 10 49-4 12 3 14 39 10 37-4 48-2 66 18 29 31 43 88 35 140-11 68-68 111-102 77"/><path d="m4731 7673c1-61 11-95 28-101 10-3 12 0 7 14-4 11-10 45-13 77-7 69-23 76-22 10"/><path d="m3501 7134c-24-30-29-94-8-94 21 0 28 12 16 26-8 10-6 22 10 47 12 19 21 37 21 41 0 14-20 4-39-20"/><path d="m3935 7126c-12-9-16-19-11-32 7-18 8-18 21-1 19 26 87 34 116 13 26-18 59-21 59-5 0 32-148 53-185 25"/><path d="m3187 7103c-16-16-4-23 38-23 63 0 102-38 159-155 46-95 58-111 76-100 5 3-2 21-15 41-13 19-35 65-49 103-35 90-66 119-142 131-32 6-59 10-60 10 0 0-4-3-7-7"/><path d="m3875 7030c-3-5-3-37 1-69 6-57 5-61-23-88-16-15-46-41-66-56-39-29-52-77-22-77 8 0 15 9 15 20 0 12 16 28 43 44 24 14 54 37 66 50 21 22 23 31 17 78-4 29-6 65-6 81 0 27-13 36-25 17"/><path d="m4939 6963c-1-5-2-35-3-68-1-46-6-67-23-89-27-34-30-59-6-54 21 4 53 57 64 109 7 29 5 49-5 74-14 33-25 44-27 28"/><path d="m2715 6891c-6-11-1-15 46-30 29-9 40-20 52-53l17-41 57 7c32 4 75 9 95 12 35 6 38 4 74-46 26-37 42-50 57-48 11 2 22 9 25 17 3 9-1 11-16 7-17-6-24 1-40 38-13 29-31 50-52 61-30 16-36 15-95 0l-63-18-34 38c-42 49-108 79-123 56"/><path d="m2571 6828c-48-26-81-75-81-121 0-43 23-28 38 25 13 49 37 71 91 85 17 4 32 13 34 18 4 19-39 16-82-7"/><path d="m4254 6784c-31-34-78-47-86-22-5 15-28 1-28-17 0-24 48-29 91-9 42 19 83 60 73 75-9 14-17 10-50-27"/><path d="m3480 6787c0-10 14-44 30-77 45-89 54-173 30-290-38-190-36-300 6-300 13 0 15 5 8 28-14 42-8 137 16 252 27 133 22 202-25 297-18 37-40 77-49 88-14 18-15 18-16 2"/><path d="m3887 6783c-14-13-7-24 11-19 22 7 41-12 71-71 23-46 55-71 67-52 4 7-1 16-10 21-9 5-24 27-33 49-22 57-81 97-106 72"/><path d="m3180 6707c-24-9-23-10 19-18 25-5 48-14 53-21 5-7 6-45 3-84-4-55-2-74 9-83 11-9 16-9 21 0 4 6 2 14-4 18-8 5-7 25 6 75 16 65 16 68-3 87-27 27-74 38-104 26"/><path d="m3730 6678c0-7 7-26 15-42 9-17 18-71 22-130 5-91 3-107-17-156-13-30-30-60-38-67-9-8-19-49-26-112-12-99-13-101-59-150-31-33-47-59-47-76 0-32 18-32 26 0 3 14 22 38 41 52 48 37 65 76 69 158 3 78 14 115 42 143 33 33 47 132 33 234-12 94-33 158-50 158-6 0-11-6-11-12"/><path d="m4510 6657c-21-11-25-20-25-61-1-51-20-76-57-76-21 0-24-18-4-26 20-8 73 22 88 49 6 12 12 33 12 47 1 20 7 26 31 28 26 3 41-8 135-106 116-120 144-136 199-107 17 8 31 22 31 30 0 20-29 19-36 0-4-8-18-15-34-15-24 0-46 20-130 114-123 137-151 153-210 123"/><path d="m3100 6609c0-6 17-28 38-48 24-24 41-52 48-81 6-25 17-59 25-77 12-29 11-35-9-62-12-17-22-33-22-36 0-12 28-4 43 13 28 31 31 68 8 112-12 22-21 53-21 67 0 33-35 86-71 107-32 19-39 20-39 5"/><path d="m1645 6470c-15-23-10-159 9-221 20-69 50-109 82-109 31 0 30 5-7 48-47 53-62 97-68 202-4 67-9 91-16 80"/><path d="m4083 6428c-6-7-13-26-17-43-13-53-32-65-106-65-62 0-69 2-93 30-29 32-57 40-57 15 0-8 7-15 14-15 8 0 21-12 28-27 13-28 14-28 112-28 109 0 126 9 126 71 0 17 7 37 15 44 8 7 15 16 15 21 0 13-26 11-37-3"/><path d="m2780 6392c0-29 78-115 130-144 71-38 150-54 199-39 53 16 90 46 74 61-9 10-17 7-34-9-28-26-119-30-139-6-7 8-28 17-49 20-60 10-77 21-122 79-46 59-59 67-59 38"/><path d="m2105 6319c-63-65-131-109-167-109-15 0-28-4-28-10 0-22 76-10 123 20 67 42 137 109 137 131 0 29-12 23-65-32"/><path d="m3170 6186c0-29 68-112 140-171 41-34 77-70 78-81 5-27 20-40 32-28 23 23-11 74-81 123-47 33-82 68-110 110-40 60-59 75-59 47"/><path d="m2401 6111c-52-50-140-101-175-101-25 0-26 2-20 40 6 40 6 40-25 40-41 0-76-18-142-75-30-26-73-58-96-72-41-24-57-53-30-53 16 0 85 46 156 104 30 24 62 47 73 49 15 4 18-1 18-38 0-31 5-45 17-49 20-8 107 20 148 47 45 30 135 120 135 134 0 22-17 15-59-26"/><path d="m3064 6033c-11-36-22-48-59-68-43-23-47-41-7-38 32 3 92 63 92 92 0 27-19 37-26 14"/><path d="m2880 5897c0-8 12-20 26-27 14-8 35-32 45-53 11-21 24-35 29-32 19 12 10 36-31 80-41 45-69 57-69 32"/><path d="m3660 5825c0-20 71-90 98-97 12-3 26 0 32 7 12 15 7 19-32 29-15 3-39 22-54 41-28 37-44 44-44 20"/><path d="m3284 5735c-7-19-14-37-14-40 0-4-23-37-50-73-39-51-50-74-48-96 4-37 28-48 28-13 0 14 19 53 43 88 40 59 77 136 77 159 0 23-22 7-36-25"/><path d="m3496 5742c-13-21-45-287-40-335 8-81 13-97 30-97 13 0 15 6 10 33-17 78-17 101-2 221 9 69 19 140 23 156 5 28-8 42-21 22"/><path d="m3766 5150c-168-110-313-160-488-169-119-6-134-10-125-33 4-11 26-12 125-2 162 17 227 34 359 98 138 67 223 121 223 141 0 23-11 19-94-35"/><path d="m2789 5068c-26-28-49-79-49-111 0-13 14-63 30-112l30-89-22-33c-13-18-26-33-31-33-4 0-5-17-1-37 3-21 1-79-4-129-9-72-20-112-57-195-48-110-75-233-55-253 17-17 27 8 34 84 4 52 17 91 51 162 47 97 64 177 65 292 0 50 4 63 30 93 38 43 38 73 0 143-38 72-40 132-5 184 38 57 28 79-16 34"/><path d="m3020 4766c0-34 127-168 178-187 33-13 57 7 28 25-56 34-157 122-168 147-13 30-38 40-38 15"/><path d="m3939 3284c-24-29-55-34-119-17-34 8-64 12-68 8-12-12 26-32 87-45 51-11 63-10 94 5 36 17 52 39 41 56-8 13-20 11-35-7"/><path d="m2826 3356c-28-59-16-187 20-216 26-22 36 2 19 43-17 41-20 162-5 172 15 9 12 35-4 35-7 0-21-15-30-34"/><path d="m3073 2974c-8-21 20-45 99-85 114-58 308-59 308-3 0 13-6 14-27 8-16-5-71-9-123-9-93 0-96 1-143 35-97 70-106 74-114 54"/><path d="m4172 2860c-23-10-49-17-56-14-20 8-31-16-15-32 12-11 23-9 71 10 51 21 59 22 78 9 16-11 20-23 18-50-4-46 16-54 31-12 11 33 5 55-27 92-19 22-46 21-100-3"/><path d="m4311 2064c-26-34-25-87 2-92 13-3 17 3 17 28 0 17 5 41 11 52 18 34-5 43-30 12"/><path d="m4028 1641c-23-13-31-14-48-3-23 14-79 16-99 3-8-5-11-16-8-25 5-13 11-13 37-4 23 8 35 7 43-1 17-17 72-13 98 8 32 27 14 44-23 22"/></g></svg>