<svg xmlns="http://www.w3.org/2000/svg" width="1200" height="813.75" viewBox="0 0 960.000000 651.000000"><g transform="matrix(.1 0 0-.1 0 651)"><path d="m1183 6195c-105-32-223-141-276-252-30-65-32-74-31-183 0-94 6-139 32-246 47-195 46-205-53-366-92-148-163-238-212-267-99-58-140-98-175-168-31-64-33-74-36-194-4-119-2-130 23-190 25-58 29-80 36-244 4-99 13-218 19-265 13-98 61-254 132-425 27-66 58-158 69-205 23-101 44-143 111-229 28-35 60-87 73-116 13-28 37-63 53-77 42-35 139-52 211-38 71 13 151 13 151-1 0-6-9-22-20-36-25-32-25-69 0-133 24-61 25-118 4-225-29-151-22-228 31-367 7-16-1-18-86-18-79 0-100-4-134-23-91-52-205-243-251-422-23-91-24-106-14-166 21-124 91-229 189-287l45-26 1571-7c973-4 1587-3 1615 3 95 20 150 79 170 183 17 89 24 328 12 429-12 104-41 156-110 194-51 28-83 31-477 41l-280 6 135 69c136 69 248 105 427 136l71 13 52-44c42-35 61-61 91-127 47-100 100-171 210-278 208-200 401-306 681-373 48-11 143-39 211-61l125-40 403-410c433-438 459-460 554-460 44 0 131 37 156 66 18 21 822 1329 851 1384 24 46 23 106-4 160-25 48 32 7-759 542-297 200-318 209-395 170-64-33-128-111-344-424-121-175-213-299-225-302-12-4-52 10-104 34-68 33-96 54-150 112-173 188-249 261-416 395-101 80-206 157-240 173-33 15-91 42-128 59-79 35-215 137-238 178-9 15-22 45-29 66-14 45-37 58-147 86-112 29-187 27-269-5-72-30-95-30-364-1-106 12-153 12-305 0l-180-15-43 23-42 24-112-24c-61-12-163-38-226-58-114-34-116-34-153-18-22 10-49 15-66 12-69-14-67-15-94 42-31 64-41 71-98 71-40 0-43 2-37 23 17 59 36 174 36 221 0 42 5 57 24 75 19 18 30 21 60 16l36-7v-75c0-125 44-169 166-166 224 5 493 176 543 345 23 77 31 89 61 100 33 11 50 34 50 68 0 19 4 20 48 15 26-3 1312-102 2857-220 1546-118 2834-217 2863-220 48-6 53-5 50 12-3 17-199 33-2893 240-1590 122-2898 222-2907 222-14 1-18 12-20 59-2 47-7 59-24 66-20 9-22 19-26 105-3 89-6 101-42 166-21 38-46 79-55 92-34 43-124 112-192 148-58 30-83 37-178 47-121 12-282 0-320-23-22-14-36-43-46-96-6-29-11-33-61-43-71-15-108-47-130-113-20-62-40-87-68-87-47 0-51 12-51 137 0 144-6 156-109 241-54 45-97 93-157 178-94 133-156 186-268 229-55 21-74 33-90 61-12 20-28 34-40 34-34 0-34 19 0 38 18 9 55 36 84 58l52 41 67-12c125-24 160 4 216 170 43 126 61 223 67 360 9 214-30 330-154 452-129 127-322 204-510 202-48 0-107-6-130-14m234-40c142-30 228-68 324-145 87-70 124-121 155-215 34-107 40-204 20-339-32-211-79-348-133-384-27-17-85-11-148 17-42 19-218 139-293 200-46 37-48 47-26 129 4 15 2 22-8 22-19 0-62-92-54-116 9-28 160-163 244-219 39-26 72-52 72-56 0-10-55-52-98-73-35-18-87-93-98-140-5-25-9-28-38-22-17 4-56 21-86 40-70 43-124 60-162 52-42-8-58-23-58-54 0-25 0-25 21-6 36 32 107 25 171-19 40-27 73-40 135-51 46-9 89-13 98-10 21 9 19 31-5 37-15 4-20 14-20 36 0 41 11 39 52-8 40-46 55-55 138-76 60-16 117-48 148-85 7-8 33-45 57-82 24-36 95-120 158-185 92-95 115-126 121-157 10-52-2-141-27-200-20-48-20-50-3-60 85-50 123-88 150-152 16-37 25-69 20-73-5-5-39-17-76-29-66-19-68-19-68-1 0 11 13 43 30 72 35 62 36 74 13 99-33 37-58 12-31-32 10-16 7-25-22-61-25-31-34-53-35-80v-36l-170-74c-133-57-180-73-215-72-25 1-99 2-166 3l-121 3 24 43c54 96 68 251 37 389-9 39-17 84-18 100-1 28 1 30 32 27 18-1 98-32 178-68 128-58 155-67 222-71 57-4 87-1 115 10 20 9 37 20 37 24 0 4-38 8-84 8h-85l-143 72c-175 88-261 123-304 123-27 0-36 7-64 49l-31 50 20 39c24 46 37 150 21 172-9 13-12 12-25-4-8-11-15-36-15-57 0-41-14-61-105-160-63-67-92-118-81-144 9-25 20-18 45 31 27 49 64 84 91 84 27 0 46-29 80-120 72-196 94-409 51-506-31-71-67-102-137-120-81-22-113-40-120-70-4-14-4-27-2-30 3-2 25 5 50 16 102 45 334 72 452 52 76-12 89-9 315 95 184 84 291 127 298 119 2-2-13-14-33-27-47-28-29-36 30-14 71 27 85 49 96 151 13 115 23 144 63 181 29 28 116 83 129 83 4 0 4-9 1-20-3-10-8-18-12-17-3 1-8-2-11-8-15-33 183-59 230-31 73 44 134 43 181-3 37-37 48-106 22-132-18-18-117-42-127-31-3 2-2 18 1 34 6 28 5 30-15 19-17-9-22-22-24-69l-3-57-47 2c-34 1-48-3-48-12 0-17 23-25 76-25 41 0 46 3 55 29 11 30 38 41 104 41 40 0 47-16 66-162 14-112 15-112-70-166-45-29-58-33-73-23-24 15-26 14-30-11-2-14-17-31-40-43l-36-19-99 23c-54 13-113 27-131 33-30 9-41 5-132-47-84-47-120-76-227-184-138-139-215-195-384-279-136-68-256-102-384-109-83-5-98-3-87 8 36 38-1 38-93-1-121-52-207-32-241 57-10 26-45 83-77 125-65 86-77 118-77 197 0 47-10 74-90 235-123 248-149 361-150 654v112l43-6c112-16 207-62 207-100 0-8 5-14 10-14 6 0 10 13 10 29 0 40-47 79-140 115-105 41-143 69-176 129-26 48-28 61-29 157 0 95 3 111 28 165 37 79 51 93 187 186 131 90 165 117 157 125-3 3-19-1-35-10-27-14-21-2 53 109 81 121 125 212 125 259 0 12-14 90-31 172-21 101-32 180-33 244-1 92 0 97 39 170 41 77 130 177 185 205 69 36 162 43 267 20m1453-1826c78-18 187-78 250-139 70-67 118-159 126-241l5-54-30 68c-41 95-69 128-157 186-110 74-154 84-348 81-214-4-206-5-206 25 0 37 32 63 87 70 26 4 53 8 58 10 23 8 173 4 215-6m-340-164c0-26-44-62-137-108-70-36-93-67-94-131 0-28-4-69-8-91l-7-40-20 59c-12 38-31 72-53 93l-34 33h35c47 0 63 15 88 81 11 31 28 64 38 72 21 19 125 55 165 56 22 1 27-3 27-24m422-8c124-61 198-139 243-258 24-61 33-75 71-98 52-31 55-39 46-111-7-51-10-56-47-76-36-18-42-27-63-92-51-160-223-283-460-331-81-17-110-14-137 14-22 21-25 33-25 93v69l58-13c88-21 134-18 173 11 19 14 47 33 63 42 57 36 152 113 172 140 46 63 55 140 29 263-30 141-75 208-169 251-70 32-196 22-196-15 0-21-21-25-90-19l-63 6 7 61c3 33 11 65 16 70 17 17 91 25 206 22 97-2 118-5 166-29m73-339c17-94 20-194 6-203-17-10-46 128-42 200 1 17 2 50 2 75 0 65 16 31 34-72m-684-660c-18-87-19-110-10-167 14-81 14-98-3-118-16-20-209-165-213-161-2 2 1 28 6 58 5 30 7 70 4 88-7 36-78 122-102 122-31 0-24-31 16-75 47-51 48-59 18-170l-22-80-71-47c-92-62-169-82-284-76-57 4-102 13-137 28-54 23-129 93-156 147l-16 30 80 11c62 9 110 26 222 77 251 116 377 202 509 347 46 50 103 106 128 124l45 33 3-35c2-19-6-80-17-136m82-157c16-6 31-27 47-65 22-54 22-58 6-99-9-23-50-80-91-126-70-78-82-101-51-101 18 0 86 74 155 169 33 46 74 92 91 102 29 18 31 18 73-2l44-22 100 32c101 31 317 81 350 81 39 0 43-13 26-67l-16-50-42 4c-29 4-70-4-140-27-55-17-132-38-171-46-66-14-75-14-121 4-57 22-73 19-73-12 0-30 34-59 68-59 48 1 255 42 316 63 58 20 126 26 139 14 4-4-7-22-23-40-41-47-50-90-50-235 0-100 8-175 40-367 42-252 65-336 105-374 32-30 31-38-2-38-47 0-99-19-150-53-81-56-503-191-673-217-119-17-416 11-595 56-82 21-150 79-253 216-114 151-202 332-202 414 0 43 38 215 51 228 5 6 16 3 26-6 48-42 138-71 258-83 135-14 405 73 405 131 0 22-32 17-115-22-102-47-201-67-288-59-87 9-160 28-195 52-69 44-141 155-142 215 0 29 21 50 28 28 10-29 79-93 125-117 139-70 301-62 455 23 233 128 450 301 470 376 10 38 6 58-14 58-8 0-14 7-14 15 0 17 9 19 43 6m1915-47c42-9 85-20 94-25 10-5 31-35 47-67 16-31 44-71 63-88 54-52 195-143 284-184 45-21 104-53 131-71 88-60 274-221 466-406 196-189 248-230 322-259l44-16 116 53c65 29 169 83 232 120 63 38 141 83 173 100 53 28 80 53 194 182 31 35 50 34 87-2 32-33 38-66 12-75-14-6-11-11 17-34 30-26 33-32 28-70-14-99-93-201-222-287-91-60-104-75-165-198-47-94-47-94-139-99-49-3-64 3-42 17 6 3 10 17 10 31 0 13-4 24-10 24-5 0-10-5-10-11 0-13-62-39-94-39-36 0-174 107-295 229-164 164-366 348-424 385-29 18-124 74-213 123-148 84-348 224-435 306-23 21-43 55-54 87-29 87-65 113-197 145-141 34-159 34-288 6-111-24-139-24-390-2-96 9-217 4-390-14-40-4-60-2-73 8-17 14-16 17 2 61 13 29 27 46 38 47 10 0 90 6 178 12 130 10 184 10 290-1 198-21 307-20 390 6 85 26 123 27 223 6m-18-169c58-14 115-33 128-41 13-9 39-49 57-89 27-60 45-83 97-126 135-113 268-203 383-261 233-117 253-133 665-533 232-226 289-255 495-255h123l78 40c112 57 163 97 251 201 101 119 108 130 138 221 29 84 51 107 115 115 48 7 70-14 99-93 11-33 32-80 46-107 55-104 30-183-145-453-155-238-237-387-250-452-28-147-68-201-165-227-91-25-172-16-239 27-55 35-228 179-366 303-142 128-209 160-629 305-344 118-378 136-556 299-183 168-222 217-270 331-19 46-41 90-50 100-26 28-18 39 27 37 33-2 43 2 46 15 2 11-6 22-23 30-21 9-45 7-133-11-59-12-161-31-227-42-119-19-122-21-406-159-158-77-293-140-301-140-28 0-67 40-93 96-71 149-131 629-95 754 17 59 30 68 126 84 172 30 316 37 463 24 184-17 319-14 406 10 93 26 85 26 205-3m2677-536c268-181 493-339 500-351 25-46 16-109-26-179-21-35-213-347-425-694-427-694-412-675-511-675-34 0-62 7-87 23-33 19-638 612-638 624 0 9 105-82 208-180 133-127 201-162 312-161 86 1 137 15 200 55 61 38 87 81 106 170 8 41 24 93 34 117 25 56 135 239 222 370 182 273 214 379 148 495-16 29-39 83-50 121-28 88-63 126-117 126-56 0-136-43-155-83-9-17-34-70-56-118-60-126-162-228-344-343l-26-17 29 72c16 40 35 79 42 88 7 8 53 45 103 82 110 82 143 118 182 201 38 81 48 130 34 176-6 21-14 54-17 75-11 68-93 137-147 124-13-4-41-30-63-59-61-84-85-107-161-158-87-59-363-214-370-208-8 9 368 540 417 590 51 52 98 70 141 55 15-5 247-157 515-338m-5623-388c47-93 145-227 213-292 55-54 80-70 133-87 211-69 582-89 789-44 57 13 140 37 185 54 44 16 135 48 201 69 66 22 138 52 161 68 47 32 87 47 159 56 78 9 105 23 105 54 0 23 9 29 84 60l85 34 386-11c542-15 520 0 520-337 0-115-4-236-8-268-10-69-42-112-106-140-43-19-69-19-1620-12l-1576 7-52 33c-62 41-109 107-135 187-23 76-23 116 2 212 27 103 67 189 130 280 75 109 103 123 238 124l82 1 24-48"/><path d="m1096 5281c-6-10 11-71 40-141 27-68 144-234 157-221 17 17-2 58-54 118-59 66-109 166-109 218 0 33-20 49-34 26"/><path d="m868 4867c-9-12-18-32-22-44-4-11-36-40-71-63-69-45-87-78-37-65 64 15 147 95 158 153 8 37-9 49-28 19"/><path d="m1061 4000c-12-7-12-11-3-23 22-26 62-206 62-279 0-66 2-72 34-104 23-23 43-34 63-34h28l-25 20c-14 11-28 20-31 20-15 0-28 62-33 155-8 166-50 273-95 245"/><path d="m1585 3910c-18-28 59-100 116-107 31-5 50-15 71-39 37-41 103-74 152-74 52 0 42 20-19 35-35 9-57 23-81 51-40 48-28 59 57 51 62-5 71-3 62 19-8 22-68 27-153 14l-80-12-53 36c-56 39-63 41-72 26"/><path d="m1550 3761c0-47 128-93 210-75 24 5 45 15 48 23 4 11-7 13-56 7-67-8-113 6-146 43-24 27-56 28-56 2"/><path d="m681 3662c-12-23-15-62-4-62 3 0 14 7 23 15 27 25 98 9 137-30 41-41 50-89 29-164-19-67-19-110-2-166 8-29 17-40 31-40 23 0 23 12 1 72-15 39-14 47 4 105 24 76 25 118 5 186-14 45-22 55-57 73-23 12-67 24-99 26-50 5-58 3-68-15"/><path d="m2902 3658c-42-19-48-38-13-38 23 0 65 33 60 47-2 6-21 2-47-9"/><path d="m1895 3359c-69-70-141-120-222-152-76-30-83-31-238-32-146 0-164 2-206 23-57 28-65 28-73-2-14-56 22-75 155-83 134-9 310 22 424 73 54 23 225 176 225 200 0 25-25 15-65-27"/><path d="m980 2975c0-8 19-23 43-33 23-11 51-29 61-41 22-24 66-29 66-7 0 27-108 96-150 96-11 0-20-7-20-15"/><path d="m1865 2262c-16-4-31-14-33-22-2-13 15-15 103-15h106l35-37c19-21 34-47 34-59 0-24-81-209-92-209-3 0-20 17-37 38-36 46-71 131-71 175-1 30-1 31-15 13-20-27-19-62 4-129 25-72 60-122 105-153 20-14 36-29 36-34 0-15 74-49 142-65 88-21 298-20 369 1 68 20 123 48 174 88 38 30 42 31 148 33 110 1 132 9 120 40-3 8-22 13-52 13-99 0-175-20-296-78l-120-57h-130c-116 0-139 3-217 29-115 37-119 43-77 109 43 67 89 156 89 172 0 29-61 94-112 119-56 27-159 40-213 28"/><path d="m6493 2158c-23-26-43-61-43-77 0-6 20 10 45 35 25 25 43 49 40 55-9 14-20 11-42-13"/><path d="m4380 2578c-14-6-54-10-88-9-71 2-83-16-22-32 70-18 175 11 155 43-7 12-13 12-45-2"/><path d="m4094 2406c-28-13-107-61-175-106-153-103-223-135-363-167-86-19-125-23-173-18-62 7-63 6-63-18 0-23 5-26 53-32 66-8 228 24 341 67 44 17 123 60 175 96 53 36 142 87 199 114 79 37 103 52 100 66-5 26-37 25-94-2"/><path d="m4630 2152c0-20 56-57 186-123 211-108 255-142 408-312 98-109 120-125 142-106 13 10 9 15-22 33-24 13-61 53-98 106-83 116-123 154-251 235-191 120-365 200-365 167"/><path d="m6876 1796c-18-38-22-91-6-81 6 3 10 14 10 24 0 9 13 30 30 46 31 30 31 45 1 45-11 0-25-14-35-34"/><path d="m6146 1133c57-107 71-122 118-133 79-18 150 34 144 105-4 42-28 38-52-10-17-32-27-41-53-43-46-5-70 12-99 70-29 58-66 98-89 98-12 0-5-20 31-87"/><path d="m937 1433c-16-16-5-43 26-62 86-53 28-51 1702-49 1542 3 1550 3 1550 23 0 20-7 20-1555 21-1154 0-1566 4-1596 12-23 7-58 23-78 37-41 28-40 28-49 18"/></g></svg>