<?xml version="1.0" encoding="utf-8"?>
<!-- Generator: Adobe Illustrator 16.2.0, SVG Export Plug-In . SVG Version: 6.00 Build 0)  -->
<!DOCTYPE svg PUBLIC "-//W3C//DTD SVG 1.1//EN" "http://www.w3.org/Graphics/SVG/1.1/DTD/svg11.dtd">
<svg version="1.1" xmlns="http://www.w3.org/2000/svg" xmlns:xlink="http://www.w3.org/1999/xlink" x="0px" y="0px" width="24px"
	 height="24px" viewBox="0 0 24 24" enable-background="new 0 0 24 24" xml:space="preserve">
<g id="Layer_1" display="none">
	<polygon display="inline" fill="#FFFFFF" points="21.427,15.14 23,13.566 21.427,12.007 17.493,15.927 8.066,6.5 11.987,2.58 
		10.426,1.007 8.854,2.58 7.28,1.007 4.92,3.354 3.346,1.78 1.773,3.354 3.346,4.928 1,7.287 2.574,8.86 1,10.434 2.574,12.007 
		6.494,8.074 15.919,17.5 11.987,21.434 13.573,22.993 15.133,21.434 16.706,22.993 19.066,20.647 20.641,22.22 22.214,20.647 
		20.641,19.074 23,16.727 	"/>
</g>
<g id="Layer_2">
	<path fill="#FFFFFF" d="M8.453,23H0.36c0-3.466,0-6.946,0.373-10.613C1.053,9.453,1.6,6.4,2.2,3.32H1.506V1h1.16h3.48h1.16v2.32
		H6.6c0.613,3.08,1.16,6.133,1.48,9.066C8.453,16.054,8.453,19.534,8.453,23 M23.506,18.374c0,2.56-2.064,4.626-4.625,4.626h-3.482
		c-2.545,0-4.625-2.066-4.625-4.626v-2.32h7.868l3.186-5.521l1.814,1.041l-2.602,4.48h2.467V18.374L23.506,18.374z"/>
</g>
</svg>
