<?xml version="1.0" encoding="utf-8"?>
<!-- Generator: Adobe Illustrator 16.2.0, SVG Export Plug-In . SVG Version: 6.00 Build 0)  -->
<!DOCTYPE svg PUBLIC "-//W3C//DTD SVG 1.1//EN" "http://www.w3.org/Graphics/SVG/1.1/DTD/svg11.dtd">
<svg version="1.1" id="Layer_1" xmlns="http://www.w3.org/2000/svg" xmlns:xlink="http://www.w3.org/1999/xlink" x="0px" y="0px"
	 width="24px" height="24px" viewBox="0 0 24 24" enable-background="new 0 0 24 24" xml:space="preserve">
<polygon fill="#FFFFFF" points="21.427,15.14 23,13.566 21.427,12.007 17.493,15.927 8.066,6.5 11.987,2.58 10.426,1.007 
	8.854,2.58 7.28,1.007 4.92,3.354 3.346,1.78 1.773,3.354 3.346,4.928 1,7.287 2.574,8.86 1,10.434 2.574,12.007 6.494,8.074 
	15.919,17.5 11.987,21.434 13.573,22.993 15.133,21.434 16.706,22.993 19.066,20.647 20.641,22.22 22.214,20.647 20.641,19.074 
	23,16.727 "/>
</svg>
