<?xml version="1.0" encoding="utf-8"?>
<!-- Generator: Adobe Illustrator 16.2.0, SVG Export Plug-In . SVG Version: 6.00 Build 0)  -->
<!DOCTYPE svg PUBLIC "-//W3C//DTD SVG 1.1//EN" "http://www.w3.org/Graphics/SVG/1.1/DTD/svg11.dtd">
<svg version="1.1" id="Layer_1" xmlns="http://www.w3.org/2000/svg" xmlns:xlink="http://www.w3.org/1999/xlink" x="0px" y="0px"
	 width="269px" height="163.16px" viewBox="0 0 269 163.16" enable-background="new 0 0 269 163.16" xml:space="preserve">
<g>
	<path fill-rule="evenodd" clip-rule="evenodd" fill="#FFFFFF" d="M221.494,124.813c9.667,0,17.506,5.227,17.506,11.667
		s-7.84,11.667-17.506,11.667c-9.654,0-17.494-5.227-17.494-11.667S211.84,124.813,221.494,124.813z"/>
	<path fill-rule="evenodd" clip-rule="evenodd" fill="#FFFFFF" d="M259.494,150.813c4.693,0,8.506,2.547,8.506,5.667
		c0,3.133-3.813,5.68-8.506,5.68S251,159.613,251,156.48C251,153.36,254.8,150.813,259.494,150.813z"/>
	<path fill-rule="evenodd" clip-rule="evenodd" d="M203,136.48c0-7.28,8.586-12.667,18.494-12.667
		c9.866,0,18.506,5.413,18.506,12.667c0,7.293-8.6,12.667-18.506,12.667C211.64,149.146,203,143.747,203,136.48z M238,136.48
		c0-5.586-7.093-10.667-16.506-10.667c-9.454,0-16.494,5.053-16.494,10.667c0,5.6,7.093,10.667,16.494,10.667
		C230.959,147.146,238,142.106,238,136.48z"/>
	<path fill-rule="evenodd" clip-rule="evenodd" fill="#FFFFFF" d="M119,1c65.133,0,118,36.093,118,80.56
		c0,44.48-52.867,80.574-118,80.574S1,126.04,1,81.56C1,37.093,53.867,1,119,1z"/>
	<path fill-rule="evenodd" clip-rule="evenodd" d="M0,81.56C0,36.227,53.693,0,119,0s119,36.227,119,81.56
		c0,45.347-53.693,81.574-119,81.574S0,126.907,0,81.56z M236,81.56C236,37.96,183.959,2,119,2C54.027,2,2,37.96,2,81.56
		c0,43.613,52.027,79.574,117,79.574C183.959,161.134,236,125.173,236,81.56z"/>
	<path fill-rule="evenodd" clip-rule="evenodd" d="M250,156.48c0-3.867,4.414-6.667,9.494-6.667c5.106,0,9.506,2.827,9.506,6.667
		c0,3.88-4.426,6.68-9.506,6.68C254.4,163.16,250,160.333,250,156.48z M267,156.48c0-2.374-3.146-4.667-7.506-4.667
		c-4.333,0-7.494,2.307-7.494,4.667c0,2.387,3.133,4.68,7.494,4.68C263.827,161.16,267,158.854,267,156.48z"/>
</g>
</svg>
