<?xml version="1.0" encoding="utf-8"?>
<!-- Generator: Adobe Illustrator 16.2.0, SVG Export Plug-In . SVG Version: 6.00 Build 0)  -->
<!DOCTYPE svg PUBLIC "-//W3C//DTD SVG 1.1//EN" "http://www.w3.org/Graphics/SVG/1.1/DTD/svg11.dtd">
<svg version="1.1" id="Layer_1" xmlns="http://www.w3.org/2000/svg" xmlns:xlink="http://www.w3.org/1999/xlink" x="0px" y="0px"
	 width="64.801px" height="52.634px" viewBox="0 0 64.801 52.634" enable-background="new 0 0 64.801 52.634" xml:space="preserve">
<g>
	<path fill="#DD0000" d="M40.017,18.94h14.579v-2.907H40.017V18.94z M40.017,16.033 M40.017,13.112h11.659v-2.908H40.017V13.112z
		 M40.017,7.283h20.407V4.362H40.017V7.283z M45.845,29.146c-0.8,0-1.453-0.64-1.453-1.454v-4.375h-5.828
		c-1.615,0-2.923-1.307-2.923-2.907v-17.5C35.641,1.294,36.948,0,38.563,0h23.314c1.615,0,2.923,1.307,2.923,2.908v17.5
		c0,1.6-1.308,2.907-2.923,2.907h-8.885l-5.4,5.416c-0.281,0.28-0.653,0.414-1.014,0.414H45.845L45.845,29.146z"/>
	<path fill="#999999" d="M34.426,38.469H14.179v-4.054h20.247V38.469z M34.426,34.415 M34.426,30.373H18.234v-4.055h16.192V30.373z
		 M34.426,22.262H6.082v-4.041h28.344V22.262z M26.331,52.634c1.12,0,2.027-0.906,2.027-2.014v-6.082h8.098
		c2.227,0,4.04-1.814,4.04-4.055v-24.29c0-2.241-1.813-4.055-4.04-4.055H4.055C1.828,12.138,0,13.952,0,16.193v24.29
		c0,2.24,1.828,4.055,4.055,4.055h12.351l7.497,7.51c0.4,0.387,0.908,0.586,1.414,0.586H26.331L26.331,52.634z"/>
</g>
</svg>
