<?xml version="1.0" encoding="utf-8"?>
<!-- Generator: Adobe Illustrator 16.2.0, SVG Export Plug-In . SVG Version: 6.00 Build 0)  -->
<!DOCTYPE svg PUBLIC "-//W3C//DTD SVG 1.1//EN" "http://www.w3.org/Graphics/SVG/1.1/DTD/svg11.dtd">
<svg version="1.1" id="Layer_1" xmlns="http://www.w3.org/2000/svg" xmlns:xlink="http://www.w3.org/1999/xlink" x="0px" y="0px"
	 width="61.401px" height="58.494px" viewBox="0 0 61.401 58.494" enable-background="new 0 0 61.401 58.494" xml:space="preserve">
<g>
	<g>
		<path fill="#000000" d="M24.123,0c6.664,0,12.061,5.398,12.061,12.062c0,2.745-0.934,5.277-2.479,7.33
			c-2.585,0.959-4.904,2.492-6.837,4.424l-2.745,0.307c-6.664,0-12.062-5.397-12.062-12.061C12.061,5.398,17.459,0,24.123,0"/>
		<path fill="#000000" d="M0,48.245v-6.023c0-6.397,9.983-11.635,22.617-12.062c-0.973,2.346-1.506,4.878-1.506,7.53
			c0,3.891,1.146,7.543,3.012,10.555H0z"/>
	</g>
	<path fill-rule="evenodd" clip-rule="evenodd" fill="#DD0000" d="M57.161,58.494l-9.382-9.369
		c-5.265,3.332-12.327,2.706-16.926-1.893c-5.331-5.317-5.331-13.953,0-19.271c5.316-5.331,13.953-5.331,19.271,0
		c4.599,4.585,5.225,11.648,1.893,16.912l9.384,9.384L57.161,58.494z M45.887,42.995c2.985-2.973,2.985-7.811,0-10.796
		c-2.973-2.985-7.81-2.985-10.795,0s-2.985,7.823,0,10.796C38.078,45.979,42.915,45.979,45.887,42.995z"/>
</g>
</svg>
