<?xml version="1.0" encoding="utf-8"?>
<!-- Generator: Adobe Illustrator 16.2.0, SVG Export Plug-In . SVG Version: 6.00 Build 0)  -->
<!DOCTYPE svg PUBLIC "-//W3C//DTD SVG 1.1//EN" "http://www.w3.org/Graphics/SVG/1.1/DTD/svg11.dtd">
<svg version="1.1" id="Layer_1" xmlns="http://www.w3.org/2000/svg" xmlns:xlink="http://www.w3.org/1999/xlink" x="0px" y="0px"
	 width="62.8px" height="63.132px" viewBox="0 0 62.8 63.132" enable-background="new 0 0 62.8 63.132" xml:space="preserve">
<g>
	<path fill="#666666" d="M37.308,29.446v33.683h-5.743V48.779h-5.743v14.351H20.08V29.446c-5.943-3.131-10.033-9.367-10.033-16.535
		v-1.439h5.729v1.439c0,7.168,5.743,12.911,12.924,12.911c7.168,0,12.911-5.743,12.911-12.911v-1.439h5.729v1.439
		C47.34,20.08,43.235,26.315,37.308,29.446 M57.388,0v14.351h-5.744V8.607H5.743v5.743H0V0h5.743v5.743h45.901V0H57.388
		 M28.7,11.473c-3.198,0-5.755,2.558-5.755,5.742c0,3.185,2.557,5.744,5.755,5.744c3.171,0,5.73-2.559,5.73-5.744
		C34.43,14.031,31.871,11.473,28.7,11.473L28.7,11.473z"/>
	<path fill="#DD0000" d="M54.415,62.996c-0.706,0.333-1.572,0.04-1.906-0.68l-3.116-6.781l-3.586,2.891
		c-0.239,0.2-0.545,0.32-0.893,0.32c-0.785,0-1.426-0.64-1.426-1.439v-21.45c0-0.786,0.641-1.427,1.426-1.427
		c0.348,0,0.681,0.12,0.92,0.32l0.014-0.013L62.29,48.526c0.611,0.52,0.679,1.413,0.172,2.025c-0.212,0.254-0.505,0.427-0.813,0.479
		l-4.518,0.893l3.146,6.755c0.372,0.721,0.026,1.559-0.681,1.892L54.415,62.996z M49.313,51.977
		c0.718-0.346,1.559-0.026,1.904,0.679l3.291,7.143l2.572-1.213l-3.305-7.129c-0.347-0.705-0.026-1.571,0.679-1.892l0.401-0.12
		l3.289-0.639l-11.791-9.914v15.417l2.6-2.105L49.313,51.977L49.313,51.977z"/>
</g>
</svg>
