<?xml version="1.0" encoding="utf-8"?>
<!-- Generator: Adobe Illustrator 16.2.0, SVG Export Plug-In . SVG Version: 6.00 Build 0)  -->
<!DOCTYPE svg PUBLIC "-//W3C//DTD SVG 1.1//EN" "http://www.w3.org/Graphics/SVG/1.1/DTD/svg11.dtd">
<svg version="1.1" id="Layer_1" xmlns="http://www.w3.org/2000/svg" xmlns:xlink="http://www.w3.org/1999/xlink" x="0px" y="0px"
	 width="79.4px" height="42.547px" viewBox="0 0 79.4 42.547" enable-background="new 0 0 79.4 42.547" xml:space="preserve">
<g>
	<path d="M41.773,34.866l5.469-3.762c2.682,2.975,6.563,4.84,10.884,4.84c8.097,0,14.671-6.574,14.671-14.671
		c0-8.095-6.574-14.671-14.671-14.671c-2.468,0-4.802,0.6-6.841,1.681l0,0L29.45,23.288l-3.734-5.441L47.469,2.868
		C50.604,1.04,54.244,0,58.126,0C69.864,0,79.4,9.537,79.4,21.273c0,11.737-9.536,21.274-21.274,21.274
		C51.551,42.547,45.668,39.56,41.773,34.866z"/>
	
		<linearGradient id="SVGID_1_" gradientUnits="userSpaceOnUse" x1="295.2429" y1="-367.9106" x2="312.9987" y2="-355.9068" gradientTransform="matrix(1 0 0 -1 -267.6602 -347.4121)">
		<stop  offset="0" style="stop-color:#DD0000"/>
		<stop  offset="1" style="stop-color:#000000"/>
	</linearGradient>
	<polygon fill="url(#SVGID_1_)" points="33.198,23.915 21.194,24.902 26.436,14.058 27.943,16.258 47.617,2.774 51.364,8.242 
		31.691,21.713 	"/>
	<path d="M37.626,7.682l-5.469,3.761c-2.681-2.974-6.575-4.841-10.883-4.841c-8.11,0-14.687,6.576-14.687,14.671
		c0,8.097,6.576,14.671,14.687,14.671c2.467,0,4.788-0.599,6.828-1.68l0,0l21.834-15.005l3.733,5.443L31.931,39.68
		c-3.135,1.826-6.776,2.867-10.656,2.867C9.523,42.547,0,33.01,0,21.273C0,9.537,9.523,0,21.274,0
		C27.836,0,33.719,2.987,37.626,7.682z"/>
	
		<linearGradient id="SVGID_2_" gradientUnits="userSpaceOnUse" x1="321.0613" y1="-368.4912" x2="300.253" y2="-381.9908" gradientTransform="matrix(1 0 0 -1 -267.6602 -347.4121)">
		<stop  offset="0" style="stop-color:#DD0000"/>
		<stop  offset="1" style="stop-color:#000000"/>
	</linearGradient>
	<polygon fill="url(#SVGID_2_)" points="46.202,18.632 58.206,17.646 52.952,28.489 51.443,26.29 31.784,39.774 28.036,34.304 
		47.696,20.819 	"/>
</g>
</svg>
