<?xml version="1.0" encoding="utf-8"?>
<!-- Generator: Adobe Illustrator 16.2.0, SVG Export Plug-In . SVG Version: 6.00 Build 0)  -->
<!DOCTYPE svg PUBLIC "-//W3C//DTD SVG 1.1//EN" "http://www.w3.org/Graphics/SVG/1.1/DTD/svg11.dtd">
<svg version="1.1" id="Layer_1" xmlns="http://www.w3.org/2000/svg" xmlns:xlink="http://www.w3.org/1999/xlink" x="0px" y="0px"
	 width="68.2px" height="61.004px" viewBox="0 0 68.2 61.004" enable-background="new 0 0 68.2 61.004" xml:space="preserve">
<g>
	<path fill-rule="evenodd" clip-rule="evenodd" fill="#666666" d="M33.354,61.004l1.214-8.14l-2.163-20.798l-5.136,7.018
		c-0.547,0.772-1.441,1.307-2.695,1.348H8.471c-4.442,0-4.297-5.71,0-5.71H22.48l8.511-12.008c0.68-0.761,2.228-1.12,3.402-1.201
		l4.203-0.293l4.749,10.7l1.627-10.126c-0.839,0-0.786-1.053,0-1.053c-1,0-0.866-1.228,0-1.228h2.923c0.854,0,0.814,1.228,0,1.228
		c0.814,0,0.801,1.053,0,1.053l1.614,10.126l5.003-10.7l4.203,0.293c1.174,0.081,2.734,0.44,3.401,1.201l5.551,13.127
		c0.347,1.176,0.532,2.348,0.532,3.511L67.8,57.854c0,2.576-5.416,2.71-5.416,0L62.117,38.95l-1.802-3.655l-1.774,17.569l1.215,8.14
		H33.354z M47.201,52.239c0.387-0.401,0.387-1.028,0-1.415c-0.386-0.387-1.014-0.387-1.414,0c-0.387,0.387-0.387,1.014,0,1.415
		C46.187,52.625,46.815,52.625,47.201,52.239z M47.201,46.982c0.387-0.388,0.387-1.016,0-1.401c-0.386-0.388-1.014-0.388-1.414,0
		c-0.387,0.386-0.387,1.014,0,1.401C46.187,47.369,46.815,47.369,47.201,46.982z M47.201,41.738c0.387-0.399,0.387-1.027,0-1.414
		c-0.386-0.387-1.014-0.387-1.414,0c-0.387,0.387-0.387,1.015,0,1.414C46.187,42.126,46.815,42.126,47.201,41.738z M39.836,15.563
		c-3.562-3.548-3.562-9.339,0-12.901c3.563-3.549,9.339-3.549,12.901,0c3.562,3.562,3.562,9.353,0,12.901
		C49.175,19.125,43.399,19.125,39.836,15.563z"/>
	<path fill-rule="evenodd" clip-rule="evenodd" fill="#DD0000" d="M3.349,32.8l-1.655-0.854L0,31.706v-0.654h23.213v0.654
		l-1.708,0.24L19.851,32.8H3.349z M5.055,23.154c1.601-1.601,3.643-2.495,5.751-2.668v-0.667H9.312l2.242-2.242l2.241,2.242H12.3
		v0.667c2.094,0.173,4.15,1.067,5.75,2.668c1.774,1.761,2.668,4.082,2.695,6.391H2.361C2.387,27.236,3.281,24.916,5.055,23.154z"/>
</g>
</svg>
