<?xml version="1.0" encoding="utf-8"?>
<!-- Generator: Adobe Illustrator 16.2.0, SVG Export Plug-In . SVG Version: 6.00 Build 0)  -->
<!DOCTYPE svg PUBLIC "-//W3C//DTD SVG 1.1//EN" "http://www.w3.org/Graphics/SVG/1.1/DTD/svg11.dtd">
<svg version="1.1" id="Layer_1" xmlns="http://www.w3.org/2000/svg" xmlns:xlink="http://www.w3.org/1999/xlink" x="0px" y="0px"
	 width="60px" height="45.983px" viewBox="0 0 60 45.983" enable-background="new 0 0 60 45.983" xml:space="preserve">
<g>
	<path fill-rule="evenodd" clip-rule="evenodd" fill="#999999" d="M0,45.983V30c0-1.482,1.203-2.686,2.687-2.686h3.047v-2.418
		c0-1.484,1.202-2.687,2.686-2.687h4.998c1.482,0,2.686,1.203,2.686,2.687v2.418h9.273v-2.418c0-1.484,1.203-2.687,2.7-2.687h4.997
		c1.483,0,2.687,1.203,2.687,2.687v2.418h9.274v-2.418c0-1.484,1.202-2.687,2.685-2.687h5.012c1.483,0,2.687,1.203,2.687,2.687
		v2.418h1.897C58.797,27.314,60,28.517,60,30v15.983H0z"/>
	<path fill-rule="evenodd" clip-rule="evenodd" fill="#DD0000" d="M0,23.787V7.791c0-1.483,1.203-2.687,2.687-2.687h3.047V2.7
		C5.734,1.216,6.936,0,8.42,0h4.998c1.482,0,2.686,1.216,2.686,2.7v2.405h9.273V2.7c0-1.483,1.203-2.7,2.7-2.7h4.997
		c1.483,0,2.687,1.216,2.687,2.7v2.405h9.274V2.7c0-1.483,1.202-2.7,2.685-2.7h5.012c1.483,0,2.687,1.216,2.687,2.7v2.405h1.897
		C58.797,5.104,60,6.308,60,7.791v15.996H0z"/>
</g>
</svg>
