<?xml version="1.0" encoding="utf-8"?>
<!-- Generator: Adobe Illustrator 16.2.0, SVG Export Plug-In . SVG Version: 6.00 Build 0)  -->
<!DOCTYPE svg PUBLIC "-//W3C//DTD SVG 1.1//EN" "http://www.w3.org/Graphics/SVG/1.1/DTD/svg11.dtd">
<svg version="1.1" id="Layer_1" xmlns="http://www.w3.org/2000/svg" xmlns:xlink="http://www.w3.org/1999/xlink" x="0px" y="0px"
	 width="75.7px" height="54.111px" viewBox="0 0 75.7 54.111" enable-background="new 0 0 75.7 54.111" xml:space="preserve">
<g>
	<path fill="#999999" d="M0,44.451V5.548C0,2.641,2.628,0,5.548,0h55.575c2.921,0,5.562,2.641,5.562,5.548v22.886
		c-2.094-0.893-4.401-1.4-6.816-1.4c-9.521,0-17.27,7.735-17.27,17.271c0,2.001,0.346,3.922,0.974,5.708H5.548
		C2.628,50.013,0,47.374,0,44.451z M38.891,41.677v-2.786c0-5.549-11.11-8.576-16.671-8.576c-5.548,0-16.671,3.027-16.671,8.576
		v2.786H38.891z M30.555,16.671c0-4.614-3.721-8.336-8.335-8.336c-4.602,0-8.335,3.722-8.335,8.336c0,4.601,3.734,8.335,8.335,8.335
		C26.834,25.006,30.555,21.272,30.555,16.671z M58.349,22.22v-2.775H38.891v2.775H58.349z M61.124,16.671v-2.787H38.891v2.787
		H61.124z M61.124,11.109V8.335H38.891v2.774H61.124z"/>
	<path fill-rule="evenodd" clip-rule="evenodd" fill="#DD0000" d="M58.016,53.241l-8.003-8.016c-1.173-1.173-1.173-3.067,0-4.242
		c1.174-1.172,3.067-1.172,4.242,0l5.895,5.882l10.431-10.429c1.172-1.174,3.078-1.174,4.24,0c1.172,1.16,1.172,3.067,0,4.24
		l-12.55,12.564C61.096,54.401,59.189,54.401,58.016,53.241z"/>
</g>
</svg>
