<?xml version="1.0" encoding="utf-8"?>
<!-- Generator: Adobe Illustrator 16.2.0, SVG Export Plug-In . SVG Version: 6.00 Build 0)  -->
<!DOCTYPE svg PUBLIC "-//W3C//DTD SVG 1.1//EN" "http://www.w3.org/Graphics/SVG/1.1/DTD/svg11.dtd">
<svg version="1.1" id="Layer_1" xmlns="http://www.w3.org/2000/svg" xmlns:xlink="http://www.w3.org/1999/xlink" x="0px" y="0px"
	 width="72.799px" height="72.802px" viewBox="0 0 72.799 72.802" enable-background="new 0 0 72.799 72.802" xml:space="preserve">
<g>
	<path fill="#999999" d="M19.123,55.798V17.004c0-2.399,1.919-4.32,4.319-4.32h17.277l12.958,12.958v30.155
		c0,2.398-1.921,4.318-4.32,4.318H23.442C21.042,60.116,19.123,58.196,19.123,55.798z M28.215,54.051v-2.772h1.506
		c0.88,0,1.573-0.214,2.079-0.667c0.508-0.44,0.76-1.026,0.76-1.76s-0.252-1.319-0.76-1.772c-0.506-0.453-1.199-0.681-2.079-0.681
		h-3.04v7.652H28.215z M38.626,53.171c0.613-0.599,0.907-1.359,0.907-2.307v-1.266c0-0.934-0.294-1.707-0.907-2.293
		c-0.601-0.6-1.374-0.907-2.306-0.907h-2.628v7.652h2.628C37.252,54.051,38.026,53.758,38.626,53.171z M42.279,54.051v-3.173h3.199
		v-1.186h-3.199v-2.107h3.732v-1.187h-5.265v7.652H42.279z M35.227,52.878v-5.293h1.013c0.547,0,0.974,0.188,1.294,0.561
		C37.839,48.519,38,48.998,38,49.585v1.279c0,0.602-0.16,1.08-0.466,1.454c-0.32,0.373-0.747,0.56-1.294,0.56H35.227z
		 M28.215,50.104v-2.52h1.506c0.44,0,0.759,0.121,0.973,0.36c0.227,0.24,0.333,0.547,0.333,0.92c0,0.359-0.107,0.653-0.333,0.879
		c-0.213,0.241-0.547,0.36-0.973,0.36H28.215z M46.533,40.6v-1.693H27.309V40.6H46.533z M46.533,37.214v-1.693H27.309v1.693H46.533z
		 M46.533,33.828v-1.693H27.309v1.693H46.533z M50.438,27.802L38.56,15.924v11.878H50.438z"/>
	<path fill-rule="evenodd" clip-rule="evenodd" fill="#DD0000" d="M10.658,62.144c-14.211-14.211-14.211-37.274,0-51.485
		c14.211-14.211,37.274-14.211,51.483,0c14.212,14.21,14.212,37.274,0,51.485C47.932,76.354,24.869,76.354,10.658,62.144z
		 M57.597,59.529L13.271,15.204l-1.228,1.374C1.98,28.909,2.699,47.118,14.19,58.61c11.492,11.491,29.702,12.211,42.033,2.159
		L57.597,59.529z M58.61,14.191C47.878,3.473,31.308,2.126,19.123,10.165l-2.2,1.626l44.086,44.1l1.627-2.213
		C70.674,41.493,69.341,24.922,58.61,14.191z"/>
</g>
</svg>
