<?xml version="1.0" encoding="utf-8"?>
<!-- Generator: Adobe Illustrator 16.2.0, SVG Export Plug-In . SVG Version: 6.00 Build 0)  -->
<!DOCTYPE svg PUBLIC "-//W3C//DTD SVG 1.1//EN" "http://www.w3.org/Graphics/SVG/1.1/DTD/svg11.dtd">
<svg version="1.1" id="Layer_1" xmlns="http://www.w3.org/2000/svg" xmlns:xlink="http://www.w3.org/1999/xlink" x="0px" y="0px"
	 width="56.8px" height="54.215px" viewBox="0 0 56.8 54.215" enable-background="new 0 0 56.8 54.215" xml:space="preserve">
<g>
	<path fill="#000000" d="M51.628,43.886v2.585H5.158v-2.585l5.171-5.157v-15.5c0-7.996,5.237-15.046,12.9-17.312v-0.76
		C23.229,2.306,25.548,0,28.399,0c2.84,0,5.157,2.306,5.157,5.158v0.76c7.678,2.266,12.915,9.316,12.915,17.312v15.5L51.628,43.886
		L51.628,43.886z"/>
	<path fill="#000000" d="M33.557,49.057c0,2.839-2.317,5.158-5.157,5.158c-2.852,0-5.171-2.319-5.171-5.158"/>
	<path fill="#DD0000" d="M48.402,3.079l-3.665,3.665c4.412,4.357,6.891,10.288,6.891,16.485H56.8
		C56.8,15.673,53.802,8.383,48.402,3.079 M0,23.229h5.158c0-6.197,2.478-12.128,6.89-16.485L8.383,3.079
		C2.999,8.383,0,15.673,0,23.229"/>
</g>
</svg>
