<?xml version="1.0" encoding="utf-8"?>
<!-- Generator: Adobe Illustrator 16.2.0, SVG Export Plug-In . SVG Version: 6.00 Build 0)  -->
<!DOCTYPE svg PUBLIC "-//W3C//DTD SVG 1.1//EN" "http://www.w3.org/Graphics/SVG/1.1/DTD/svg11.dtd">
<svg version="1.1" id="Layer_1" xmlns="http://www.w3.org/2000/svg" xmlns:xlink="http://www.w3.org/1999/xlink" x="0px" y="0px"
	 width="71.1px" height="71.113px" viewBox="0 0 71.1 71.113" enable-background="new 0 0 71.1 71.113" xml:space="preserve">
<g>
	<path fill-rule="evenodd" clip-rule="evenodd" fill="#DD0000" d="M25.491,45.621c-5.546-5.545-5.546-14.571,0-20.117
		c5.545-5.546,14.558-5.546,20.105,0c5.545,5.546,5.545,14.572,0,20.117C40.049,51.167,31.036,51.167,25.491,45.621z M35.463,46.008
		v-0.132V46.008l1.227-0.025c3.306-0.081,6.507-0.293,7.614-2.014l0.025-0.027v-2.506l-0.013-0.014
		c-0.707-2.053-2.801-3.253-5.6-3.813h-0.015c-2.159-0.053-0.894-1.76,0.521-3.973l0.44-0.707l0.186-0.32h-0.026
		c0.454-0.973,0.721-2.12,0.721-3.333c0-3.533-2.239-6.466-5.067-6.466c-2.838,0-5.079,2.934-5.079,6.466
		c0,1.239,0.267,2.387,0.733,3.374h-0.026l0.32,0.519l0.158,0.267c1.44,2.28,2.894,4.12,0.654,4.173H32.21
		c-2.786,0.56-4.879,1.76-5.6,3.813v0.014v2.506l0.014,0.027c1.12,1.721,4.32,1.933,7.625,2.014L35.463,46.008z"/>
	<path fill-rule="evenodd" clip-rule="evenodd" fill="#999999" d="M40.077,71.113l-9.36-0.214L29.65,60.193
		c-2.52-0.6-4.959-1.587-7.213-2.946l-8.732,6.68l-6.546-6.68l6.746-8.492c-1.346-2.227-2.333-4.599-2.933-7.066L0,40.076
		l0.212-9.333l10.706-1.093c0.587-2.467,1.547-4.853,2.88-7.08l-6.6-8.959l6.773-6.427l8.266,6.813
		c2.24-1.374,4.64-2.387,7.133-3.013L31.01,0l9.346,0.239l1.04,10.679c2.493,0.587,4.906,1.546,7.16,2.893l8.959-6.599l6.426,6.799
		l-6.826,8.253c1.387,2.239,2.386,4.666,3.013,7.146L71.1,31.05l-0.227,9.345l-10.679,1.053c-0.6,2.506-1.587,4.947-2.961,7.213
		L63.9,57.42l-6.692,6.532l-8.452-6.772c-2.227,1.361-4.615,2.348-7.08,2.96L40.077,71.113z M49.342,49.355
		c7.613-7.613,7.613-19.972,0-27.598c-7.599-7.599-19.985-7.599-27.598,0c-7.6,7.626-7.6,19.985,0,27.598
		C29.357,56.953,41.743,56.953,49.342,49.355z"/>
</g>
</svg>
