<?xml version="1.0" encoding="utf-8"?>
<!-- Generator: Adobe Illustrator 16.2.0, SVG Export Plug-In . SVG Version: 6.00 Build 0)  -->
<!DOCTYPE svg PUBLIC "-//W3C//DTD SVG 1.1//EN" "http://www.w3.org/Graphics/SVG/1.1/DTD/svg11.dtd">
<svg version="1.1" id="Layer_1" xmlns="http://www.w3.org/2000/svg" xmlns:xlink="http://www.w3.org/1999/xlink" x="0px" y="0px"
	 width="67.101px" height="62.878px" viewBox="0 0 67.101 62.878" enable-background="new 0 0 67.101 62.878" xml:space="preserve">
<g>
	<path fill="#999999" d="M28.2,0c7.787,0,14.107,6.307,14.107,14.093c0,3.213-1.094,6.16-2.894,8.56
		c-3.027,1.134-5.747,2.934-8,5.187L28.2,28.187c-7.787,0-14.094-6.308-14.094-14.094C14.106,6.307,20.413,0,28.2,0 M0,56.386
		v-7.039c0-7.48,11.68-13.614,26.439-14.107c-1.12,2.746-1.759,5.707-1.759,8.813c0,4.547,1.346,8.813,3.52,12.333H0z"/>
	<path fill="#DD0000" d="M63.053,46.986c0.079-0.559,0.134-1.12,0.134-1.706s-0.055-1.159-0.134-1.761l3.72-2.866
		c0.333-0.267,0.427-0.746,0.214-1.133l-3.521-6.093c-0.213-0.387-0.692-0.547-1.079-0.387L58,34.8
		c-0.906-0.68-1.867-1.28-2.974-1.72l-0.654-4.667c-0.064-0.427-0.439-0.733-0.88-0.733h-7.039c-0.44,0-0.813,0.306-0.88,0.733
		l-0.654,4.667c-1.106,0.44-2.052,1.04-2.973,1.72l-4.387-1.76c-0.387-0.16-0.854,0-1.067,0.387l-3.519,6.093
		c-0.227,0.387-0.134,0.866,0.214,1.133l3.706,2.866c-0.068,0.602-0.12,1.175-0.12,1.761s0.052,1.147,0.12,1.706l-3.706,2.922
		c-0.348,0.266-0.44,0.744-0.214,1.133l3.519,6.094c0.214,0.385,0.681,0.518,1.067,0.385l4.387-1.786
		c0.921,0.707,1.866,1.308,2.973,1.747l0.654,4.667c0.067,0.427,0.439,0.731,0.88,0.731h7.039c0.44,0,0.815-0.305,0.88-0.731
		l0.654-4.667c1.106-0.453,2.067-1.04,2.974-1.747l4.387,1.786c0.387,0.133,0.866,0,1.079-0.385l3.521-6.094
		c0.213-0.389,0.119-0.867-0.214-1.133L63.053,46.986z M49.973,51.44c-3.4,0-6.161-2.759-6.161-6.16c0-3.4,2.761-6.16,6.161-6.16
		c3.413,0,6.159,2.759,6.159,6.16C56.132,48.681,53.386,51.44,49.973,51.44L49.973,51.44z"/>
</g>
</svg>
