<?xml version="1.0" encoding="utf-8"?>
<!-- Generator: Adobe Illustrator 16.2.0, SVG Export Plug-In . SVG Version: 6.00 Build 0)  -->
<!DOCTYPE svg PUBLIC "-//W3C//DTD SVG 1.1//EN" "http://www.w3.org/Graphics/SVG/1.1/DTD/svg11.dtd">
<svg version="1.1" id="Layer_1" xmlns="http://www.w3.org/2000/svg" xmlns:xlink="http://www.w3.org/1999/xlink" x="0px" y="0px"
	 width="72.5px" height="67.203px" viewBox="0 0 72.5 67.203" enable-background="new 0 0 72.5 67.203" xml:space="preserve">
<g>
	<path fill-rule="evenodd" clip-rule="evenodd" fill="#FFFFFF" d="M47.144,66.198l-2.708-5.026
		C38.333,62.265,34,62.398,28.573,60.772l-2.307,5.146c-0.639,0.747-1.44,1.2-2.44,1.226l-6.372-2.306
		c-1.093-0.467-1.48-1.386-1.493-2.572l1.893-5.573c-7.08-5.186-10.026-12.958-9.026-20.277c-5.452-0.959-8.345-4.652-8.772-8.745
		c-0.439-4.172,1.747-8.706,5.894-10.092c1.306-0.44,2.72,0.267,3.159,1.587c0.441,1.306-0.266,2.72-1.573,3.159
		c-1.533,0.507-2.746,2.546-2.506,4.826c0.107,1.08,0.547,2.067,1.359,2.84c0.72,0.692,1.88,1.319,3.708,1.56
		c3.972-9.999,15.971-17.692,35.42-14.172c2.547-4.359,5.585-8.065,11.118-8.679c-1.317,3.36-2.317,6.879-2.158,10.985
		c5.585,3.12,10.212,7.266,10.985,14.092h4.905c1.026,0,1.841,0.494,2.133,2.306v8.679c-0.013,0.64-0.2,1.267-1.76,1.907h-4.758
		c-2.122,4.612-5.08,8.385-10.693,11.518l1.346,3.399c0.188,1.106,0.133,2.093-0.398,2.841l-6.238,2.585
		C48.758,67.305,47.623,67.411,47.144,66.198z M57.889,37.734c1.201-1.213,1.201-3.172,0-4.386c-1.213-1.213-3.174-1.213-4.387,0
		c-1.214,1.213-1.214,3.172,0,4.386C54.715,38.935,56.676,38.935,57.889,37.734z M18.761,3.5C23.427-1.167,31-1.167,35.666,3.5
		c2.347,2.333,3.505,5.412,3.505,8.479c-6.277-1.973-17.743-1.04-22.596,5.425C14.267,12.911,15.001,7.259,18.761,3.5z"/>
</g>
</svg>
