<?xml version="1.0" encoding="utf-8"?>
<!-- Generator: Adobe Illustrator 16.2.0, SVG Export Plug-In . SVG Version: 6.00 Build 0)  -->
<!DOCTYPE svg PUBLIC "-//W3C//DTD SVG 1.1//EN" "http://www.w3.org/Graphics/SVG/1.1/DTD/svg11.dtd">
<svg version="1.1" id="Layer_1" xmlns="http://www.w3.org/2000/svg" xmlns:xlink="http://www.w3.org/1999/xlink" x="0px" y="0px"
	 width="61px" height="65.702px" viewBox="0 0 61 65.702" enable-background="new 0 0 61 65.702" xml:space="preserve">
<g>
	<path fill-rule="evenodd" clip-rule="evenodd" fill="#DD0000" d="M30.158,65.702L3.926,50.555V20.262L30.173,5.116l26.218,15.146
		v30.293L30.158,65.702z M30.158,61.654l22.735-13.115V22.292L30.158,9.163L7.426,22.292v26.246L30.158,61.654z"/>
	<path fill-rule="evenodd" clip-rule="evenodd" fill="#999999" d="M12.407,59.905L0,52.732V38.388l12.407-7.159l12.423,7.159v14.344
		L12.407,59.905z M48.578,59.905l-12.42-7.173V38.388l12.42-7.159L61,38.388v14.344L48.578,59.905z M30.158,28.69L17.75,21.518
		V7.173L30.158,0l12.423,7.173v14.345L30.158,28.69z"/>
</g>
</svg>
