<?xml version="1.0" encoding="utf-8"?>
<!-- Generator: Adobe Illustrator 16.2.0, SVG Export Plug-In . SVG Version: 6.00 Build 0)  -->
<!DOCTYPE svg PUBLIC "-//W3C//DTD SVG 1.1//EN" "http://www.w3.org/Graphics/SVG/1.1/DTD/svg11.dtd">
<svg version="1.1" id="Layer_1" xmlns="http://www.w3.org/2000/svg" xmlns:xlink="http://www.w3.org/1999/xlink" x="0px" y="0px"
	 width="47.1px" height="54.721px" viewBox="0 0 47.1 54.721" enable-background="new 0 0 47.1 54.721" xml:space="preserve">
<g>
	<polyline fill="#DD0000" points="38.906,16.483 44.364,16.483 36.169,5.552 27.974,16.483 33.433,16.483 33.433,38.345 
		27.974,38.345 36.169,49.263 44.364,38.345 38.906,38.345 	"/>
	<polyline fill="#DD0000" points="47.1,0.094 25.239,0.094 25.239,5.552 47.1,5.552 	"/>
	<polyline fill="#DD0000" points="47.1,49.263 25.239,49.263 25.239,54.721 47.1,54.721 	"/>
	<path fill="#999999" d="M9.57,0c3.016,0,5.472,2.442,5.472,5.458c0,3.017-2.456,5.472-5.472,5.472
		c-3.017,0-5.459-2.456-5.459-5.472C4.111,2.442,6.553,0,9.57,0L9.57,0z M5.472,13.667h8.195c3.03,0,5.473,2.443,5.473,5.458v15.042
		h-4.098v20.5H4.111v-20.5H0V19.125C0,16.11,2.456,13.667,5.472,13.667"/>
</g>
</svg>
