<?xml version="1.0" encoding="utf-8"?>
<!-- Generator: Adobe Illustrator 16.2.0, SVG Export Plug-In . SVG Version: 6.00 Build 0)  -->
<!DOCTYPE svg PUBLIC "-//W3C//DTD SVG 1.1//EN" "http://www.w3.org/Graphics/SVG/1.1/DTD/svg11.dtd">
<svg version="1.1" id="Layer_1" xmlns="http://www.w3.org/2000/svg" xmlns:xlink="http://www.w3.org/1999/xlink" x="0px" y="0px"
	 width="74.899px" height="183.511px" viewBox="0 0 74.899 183.511" enable-background="new 0 0 74.899 183.511"
	 xml:space="preserve">
<path fill-rule="evenodd" clip-rule="evenodd" fill="#808080" d="M0.68,183.511L0,182.778c0.986-0.92,1.959-1.813,2.946-2.706
	l0.68,0.732C2.639,181.698,1.666,182.604,0.68,183.511z M6.598,178.138l-0.667-0.745c0.987-0.894,1.987-1.773,2.986-2.653
	l0.667,0.746C8.584,176.366,7.584,177.246,6.598,178.138z M12.569,172.834l-0.653-0.746c0.986-0.88,1.973-1.773,2.959-2.666
	l0.68,0.731C14.556,171.061,13.569,171.955,12.569,172.834z M18.488,167.436l-0.679-0.734c0.959-0.906,1.919-1.825,2.878-2.76
	l0.693,0.708C20.421,165.595,19.461,166.529,18.488,167.436z M24.207,161.796l-0.72-0.692c0.907-0.947,1.813-1.907,2.72-2.906
	l0.747,0.666C26.033,159.877,25.126,160.85,24.207,161.796z M29.592,155.852l-0.76-0.654c0.84-0.999,1.679-2.025,2.519-3.078
	l0.773,0.613C31.285,153.798,30.445,154.839,29.592,155.852z M34.563,149.533l-0.813-0.587c0.773-1.052,1.533-2.132,2.292-3.252
	l0.827,0.56C36.11,147.386,35.337,148.48,34.563,149.533z M39.069,142.895l-0.853-0.533c0.692-1.106,1.387-2.239,2.065-3.413
	l0.866,0.508C40.456,140.629,39.763,141.776,39.069,142.895z M43.108,135.95l-0.88-0.467c0.628-1.146,1.239-2.332,1.84-3.532
	l0.893,0.439C44.361,133.617,43.735,134.804,43.108,135.95z M46.72,128.78l-0.907-0.414c0.547-1.187,1.094-2.399,1.641-3.64
	l0.906,0.4C47.827,126.379,47.267,127.592,46.72,128.78z M49.919,121.42L49,121.047c0.479-1.199,0.975-2.439,1.453-3.705
	l0.934,0.347C50.906,118.968,50.414,120.208,49.919,121.42z M52.759,113.929l-0.934-0.333c0.44-1.227,0.866-2.492,1.293-3.772
	l0.946,0.32C53.639,111.423,53.2,112.69,52.759,113.929z M55.292,106.318l-0.946-0.293c0.387-1.252,0.772-2.521,1.146-3.826
	l0.959,0.293C56.079,103.786,55.691,105.064,55.292,106.318z M57.557,98.625l-0.974-0.265c0.348-1.253,0.694-2.547,1.04-3.854
	l0.96,0.254C58.25,96.081,57.904,97.361,57.557,98.625z M59.57,90.882l-0.973-0.239c0.307-1.28,0.613-2.573,0.921-3.893l0.973,0.227
	C60.184,88.296,59.877,89.602,59.57,90.882z M61.369,83.071l-0.972-0.213c0.279-1.279,0.547-2.586,0.826-3.906l0.974,0.2
	C61.93,80.485,61.65,81.791,61.369,83.071z M62.983,75.233l-0.974-0.2c0.239-1.28,0.493-2.586,0.734-3.919l0.985,0.186
	C63.49,72.621,63.236,73.94,62.983,75.233z M64.436,67.355l-0.986-0.173c0.226-1.293,0.452-2.612,0.666-3.932l0.986,0.159
	C64.889,64.742,64.663,66.063,64.436,67.355z M65.743,59.451l-0.986-0.147c0.199-1.306,0.399-2.625,0.599-3.958l0.986,0.146
	C66.141,56.838,65.942,58.158,65.743,59.451z M66.915,51.533l-0.985-0.134c0.173-1.306,0.359-2.626,0.532-3.959l1,0.133
	C67.275,48.907,67.102,50.226,66.915,51.533z M67.969,43.602l-0.987-0.12c0.159-1.32,0.32-2.64,0.479-3.973l0.999,0.12
	C68.302,40.962,68.141,42.295,67.969,43.602z M68.914,35.657l-0.985-0.12c0.147-1.307,0.293-2.626,0.438-3.973l0.987,0.106
	C69.208,33.018,69.061,34.337,68.914,35.657z M69.768,27.699l-0.987-0.106c0.133-1.307,0.253-2.64,0.387-3.973l1,0.094
	C70.034,25.046,69.901,26.379,69.768,27.699z M70.542,19.728l-1-0.093c0.119-1.307,0.239-2.64,0.346-3.973l1,0.08
	C70.768,17.088,70.648,18.408,70.542,19.728z M71.22,11.756l-0.999-0.08l0.188-2.412l-3.479-0.267L71.634,0l3.265,9.624l-3.491-0.28
	L71.22,11.756z"/>
</svg>
