<?xml version="1.0" encoding="utf-8"?>
<!-- Generator: Adobe Illustrator 16.2.0, SVG Export Plug-In . SVG Version: 6.00 Build 0)  -->
<!DOCTYPE svg PUBLIC "-//W3C//DTD SVG 1.1//EN" "http://www.w3.org/Graphics/SVG/1.1/DTD/svg11.dtd">
<svg version="1.1" id="Layer_1" xmlns="http://www.w3.org/2000/svg" xmlns:xlink="http://www.w3.org/1999/xlink" x="0px" y="0px"
	 width="66.2px" height="353.83px" viewBox="0 0 66.2 353.83" enable-background="new 0 0 66.2 353.83" xml:space="preserve">
<path fill-rule="evenodd" clip-rule="evenodd" fill="#808080" d="M58.434,350.588l0.814-0.586c0.774,1.094,1.562,2.16,2.349,3.242
	l-0.801,0.586C59.995,352.75,59.208,351.67,58.434,350.588z M53.857,344.01l0.827-0.56c0.747,1.107,1.494,2.2,2.254,3.295
	l-0.813,0.573C55.352,346.211,54.604,345.118,53.857,344.01z M49.44,337.311l0.854-0.546c0.708,1.134,1.441,2.241,2.175,3.362
	l-0.84,0.547C50.895,339.554,50.16,338.433,49.44,337.311z M45.224,330.491l0.854-0.52c0.681,1.147,1.375,2.281,2.081,3.415
	l-0.854,0.534C46.598,332.774,45.904,331.64,45.224,330.491z M41.167,323.566l0.866-0.494c0.668,1.161,1.322,2.322,2.002,3.471
	l-0.866,0.506C42.502,325.889,41.834,324.728,41.167,323.566z M37.297,316.548l0.881-0.467c0.627,1.173,1.268,2.336,1.908,3.509
	l-0.867,0.48C38.564,318.896,37.924,317.722,37.297,316.548z M33.614,309.423l0.894-0.44c0.601,1.187,1.2,2.374,1.815,3.563
	l-0.881,0.453C34.814,311.81,34.215,310.623,33.614,309.423z M30.118,302.216l0.907-0.427c0.56,1.201,1.135,2.402,1.721,3.603
	l-0.907,0.44C31.251,304.632,30.678,303.418,30.118,302.216z M26.795,294.916l0.921-0.413c0.533,1.229,1.08,2.442,1.627,3.656
	l-0.907,0.413C27.876,297.358,27.329,296.131,26.795,294.916z M23.66,287.524l0.934-0.374c0.507,1.228,1.015,2.455,1.534,3.683
	l-0.92,0.4C24.687,289.993,24.167,288.766,23.66,287.524z M20.724,280.065l0.934-0.347c0.467,1.241,0.948,2.481,1.441,3.722
	l-0.934,0.374C21.684,282.56,21.191,281.319,20.724,280.065z M17.961,272.539l0.947-0.334c0.44,1.255,0.895,2.51,1.348,3.764
	l-0.934,0.347C18.855,275.062,18.401,273.807,17.961,272.539z M15.399,264.946l0.947-0.308c0.415,1.269,0.828,2.523,1.255,3.79
	l-0.947,0.32C16.227,267.481,15.813,266.213,15.399,264.946z M13.024,257.287l0.961-0.28c0.374,1.268,0.761,2.548,1.161,3.816
	l-0.961,0.294C13.784,259.849,13.397,258.567,13.024,257.287z M10.835,249.573l0.975-0.267c0.333,1.282,0.693,2.575,1.054,3.857
	l-0.961,0.266C11.543,252.149,11.183,250.854,10.835,249.573z M8.848,241.809l0.974-0.241c0.307,1.294,0.64,2.589,0.96,3.87
	l-0.96,0.254C9.488,244.396,9.167,243.103,8.848,241.809z M7.059,233.988l0.975-0.214c0.28,1.294,0.573,2.603,0.867,3.896
	l-0.974,0.227C7.619,236.591,7.339,235.295,7.059,233.988z M5.458,226.129l0.987-0.188c0.24,1.309,0.494,2.615,0.761,3.922
	l-0.975,0.201C5.965,228.758,5.711,227.436,5.458,226.129z M4.057,218.229l0.988-0.162c0.213,1.322,0.44,2.63,0.667,3.938
	l-0.974,0.172C4.497,220.871,4.27,219.55,4.057,218.229z M2.87,210.303l0.987-0.135c0.174,1.321,0.374,2.63,0.574,3.951
	l-1.001,0.146C3.229,212.944,3.042,211.622,2.87,210.303z M1.869,202.35l1.001-0.12c0.146,1.321,0.307,2.656,0.466,3.976
	l-1.001,0.121C2.175,205.005,2.015,203.671,1.869,202.35z M1.082,194.369l1.001-0.094c0.12,1.334,0.24,2.655,0.359,3.977
	l-0.987,0.107C1.321,197.024,1.201,195.69,1.082,194.369z M0.507,186.362l1.001-0.052c0.08,1.32,0.16,2.654,0.267,3.989
	l-1.001,0.066C0.681,189.031,0.587,187.697,0.507,186.362z M0.147,178.356l1.001-0.039c0.04,1.334,0.093,2.669,0.146,4.003l-1,0.039
	C0.24,181.025,0.187,179.69,0.147,178.356z M0,170.337h1c0,1.321,0.014,2.656,0.041,3.99l-1,0.013
	C0.014,173.005,0,171.671,0,170.337z M1,166.333l-1-0.013c0.014-1.334,0.027-2.668,0.067-4.003l1.001,0.026
	C1.028,163.665,1.014,164.999,1,166.333z M1.175,158.34l-1.001-0.026c0.053-1.348,0.106-2.683,0.173-4.017l1.001,0.053
	C1.281,155.685,1.228,157.006,1.175,158.34z M1.575,150.361l-1.001-0.067c0.093-1.334,0.187-2.669,0.294-4.003l1.001,0.081
	C1.762,147.705,1.668,149.027,1.575,150.361z M2.202,142.395l-1.001-0.093c0.133-1.334,0.268-2.669,0.4-3.99l1,0.107
	C2.456,139.739,2.322,141.06,2.202,142.395z M3.056,134.455l-0.987-0.134c0.159-1.321,0.333-2.642,0.507-3.976l1,0.146
	C3.389,131.799,3.216,133.12,3.056,134.455z M4.15,126.528l-0.988-0.147c0.201-1.321,0.414-2.642,0.627-3.963l0.987,0.174
	C4.563,123.9,4.351,125.208,4.15,126.528z M5.472,118.655l-0.988-0.187c0.24-1.321,0.494-2.628,0.76-3.936l0.974,0.2
	C5.965,116.026,5.711,117.334,5.472,118.655z M7.033,110.809l-0.975-0.2c0.28-1.308,0.574-2.615,0.881-3.923l0.974,0.227
	C7.606,108.207,7.326,109.515,7.033,110.809z M8.848,103.029l-0.974-0.24c0.333-1.294,0.667-2.589,1-3.883l0.974,0.253
	C9.501,100.454,9.167,101.735,8.848,103.029z M10.902,95.317l-0.96-0.281c0.374-1.281,0.748-2.562,1.134-3.843l0.961,0.28
	C11.65,92.754,11.276,94.035,10.902,95.317z M13.224,87.67l-0.96-0.307c0.413-1.281,0.828-2.548,1.254-3.816l0.947,0.321
	C14.039,85.135,13.624,86.403,13.224,87.67z M15.786,80.104l-0.947-0.347c0.453-1.254,0.921-2.508,1.388-3.763l0.947,0.36
	C16.694,77.596,16.24,78.85,15.786,80.104z M18.615,72.632l-0.935-0.374c0.494-1.241,1.001-2.481,1.521-3.709l0.921,0.386
	C19.616,70.163,19.109,71.391,18.615,72.632z M21.698,65.265l-0.908-0.413c0.534-1.214,1.081-2.442,1.642-3.656l0.907,0.427
	C22.779,62.824,22.231,64.038,21.698,65.265z M25.047,58.006l-0.894-0.427c0.586-1.215,1.174-2.402,1.788-3.603l0.881,0.454
	C26.222,55.618,25.634,56.806,25.047,58.006z M28.664,50.895l-0.881-0.481c0.627-1.174,1.268-2.348,1.921-3.522l0.867,0.493
	C29.931,48.545,29.291,49.707,28.664,50.895z M32.546,43.915l-0.854-0.507c0.667-1.161,1.347-2.308,2.042-3.456l0.854,0.521
	C33.907,41.62,33.228,42.754,32.546,43.915z M36.696,37.083l-0.841-0.533c0.721-1.135,1.441-2.256,2.188-3.363l0.828,0.546
	C38.138,34.841,37.417,35.962,36.696,37.083z M41.113,30.424l-0.827-0.561c0.774-1.107,1.534-2.202,2.321-3.283l0.814,0.587
	C42.647,28.25,41.875,29.33,41.113,30.424z M45.797,23.952l-0.8-0.6c0.8-1.068,1.613-2.122,2.442-3.176l0.787,0.614
	C47.412,21.844,46.598,22.898,45.797,23.952z M50.734,17.681l-0.773-0.64c0.84-1.028,1.708-2.055,2.574-3.07l0.762,0.654
	C52.429,15.626,51.575,16.653,50.734,17.681z M55.925,11.609l-0.746-0.667c0.879-0.987,1.787-1.975,2.694-2.962l0.733,0.68
	C57.7,9.634,56.806,10.622,55.925,11.609z M62.623,9.514l-5.776-5.551L66.2,0L62.623,9.514z"/>
</svg>
