<?xml version="1.0" encoding="utf-8"?>
<!-- Generator: Adobe Illustrator 16.2.0, SVG Export Plug-In . SVG Version: 6.00 Build 0)  -->
<!DOCTYPE svg PUBLIC "-//W3C//DTD SVG 1.1//EN" "http://www.w3.org/Graphics/SVG/1.1/DTD/svg11.dtd">
<svg version="1.1" id="Layer_1" xmlns="http://www.w3.org/2000/svg" xmlns:xlink="http://www.w3.org/1999/xlink" x="0px" y="0px"
	 width="167.9px" height="117.727px" viewBox="0 0 167.9 117.727" enable-background="new 0 0 167.9 117.727" xml:space="preserve">
<path fill-rule="evenodd" clip-rule="evenodd" fill="#CCCCCC" d="M148.342,116.69c-0.8-1.119-0.544-2.679,0.572-3.494l10.134-7.304
	C88.514,100.972,34.043,69.204,0.274,3.643C-0.352,2.417,0.129,0.91,1.355,0.284c1.227-0.641,2.733-0.16,3.36,1.066
	c32.954,64.002,85.931,94.877,155.106,99.582l-7.28-10.104c-0.812-1.106-0.56-2.68,0.561-3.479c1.119-0.815,2.679-0.563,3.494,0.56
	l10.837,15.023c0.802,1.119,0.546,2.679-0.573,3.491l-15.023,10.826C150.717,118.063,149.157,117.811,148.342,116.69z"/>
</svg>
