<?xml version="1.0" encoding="utf-8"?>
<!-- Generator: Adobe Illustrator 16.2.0, SVG Export Plug-In . SVG Version: 6.00 Build 0)  -->
<!DOCTYPE svg PUBLIC "-//W3C//DTD SVG 1.1//EN" "http://www.w3.org/Graphics/SVG/1.1/DTD/svg11.dtd">
<svg version="1.1" id="Layer_1" xmlns="http://www.w3.org/2000/svg" xmlns:xlink="http://www.w3.org/1999/xlink" x="0px" y="0px"
	 width="139.999px" height="140px" viewBox="0 0 139.999 140" enable-background="new 0 0 139.999 140" xml:space="preserve">
<g>
	<path fill-rule="evenodd" clip-rule="evenodd" fill="#B2B2B2" d="M46.822,136.042C10.373,123.244-8.826,83.287,3.959,46.823
		C16.746,10.373,56.715-8.826,93.165,3.959c36.449,12.785,55.661,52.755,42.876,89.207c-0.32,0.906-0.653,1.799-1,2.68
		c-9.76-4.333-21.597-2.507-29.597,5.479c-8.52,8.52-10.039,21.399-4.573,31.465C84.605,140.789,65.273,142.509,46.822,136.042z
		 M85.926,107.086l0.666-8.574c1.253,2.894,5.133,5.188,7.653,3.199l11.691-11.705c2.162-2.479,1.748-6.267,0-9.398L93.925,61.968
		c-2.466-2.813-5.692-4.932-10.932-4.932H80.9l-8.213,19.518L74.74,77.3c0.587,0.213,0.894,0.867,0.667,1.467l-3.36,9.198
		c-0.227,0.587-0.88,0.895-1.466,0.68l-5.547-2.039c-0.586-0.213-0.893-0.867-0.68-1.453l3.054-8.347l-8.32-19.771h-2.092
		c-5.24,0-8.454,2.12-10.934,4.932L34.051,80.607c-1.734,3.132-2.16,6.92,0,9.398l11.705,11.705c2.52,1.989,6.387-0.306,7.653-3.199
		l0.666,8.574H85.926z M53.035,94.42l-9.585-9.666l7.999-11.24l1.64,20.972C53.076,94.472,53.062,94.446,53.035,94.42z
		 M86.899,94.486l1.64-20.972l8.014,11.24l-9.602,9.666C86.938,94.446,86.926,94.472,86.899,94.486z M69.995,75.207l7.651-18.17
		H62.342L69.995,75.207z M83.206,36.117c0-7.292-5.92-13.212-13.211-13.212c-7.294,0-13.199,5.92-13.199,13.212
		S62.701,49.33,69.995,49.33C77.286,49.33,83.206,43.41,83.206,36.117z"/>
	<path fill="#DD0000" d="M111.496,131.924h25.451v3.639h-25.451V131.924z M111.496,135.563 M118.764,128.297v-10.905h-7.268
		l12.721-12.719l12.73,12.719h-7.278v10.905H118.764z"/>
</g>
</svg>
