<?xml version="1.0" encoding="utf-8"?>
<!-- Generator: Adobe Illustrator 16.2.0, SVG Export Plug-In . SVG Version: 6.00 Build 0)  -->
<!DOCTYPE svg PUBLIC "-//W3C//DTD SVG 1.1//EN" "http://www.w3.org/Graphics/SVG/1.1/DTD/svg11.dtd">
<svg version="1.1" id="Layer_1" xmlns="http://www.w3.org/2000/svg" xmlns:xlink="http://www.w3.org/1999/xlink" x="0px" y="0px"
	 width="130.9px" height="180.523px" viewBox="0 0 130.9 180.523" enable-background="new 0 0 130.9 180.523" xml:space="preserve">
<g>
	<path fill-rule="evenodd" clip-rule="evenodd" fill="#B2B2B2" d="M0,167.992V12.515C0,5.611,5.611,0,12.529,0h94.9
		c6.917,0,12.528,5.611,12.528,12.515v125.462c-8.171-1.359-16.859,1.119-23.151,7.411c-9.598,9.598-10.304,24.726-2.146,35.136
		H12.529C5.611,180.523,0,174.91,0,167.992z M95.527,115.132V72.48c0-3.918-3.186-7.104-7.105-7.104H77.759l-7.117-7.104H49.316
		l-7.104,7.104H31.549c-3.932,0-7.117,3.187-7.117,7.104v42.651c0,3.933,3.185,7.117,7.117,7.117h56.873
		C92.341,122.249,95.527,119.064,95.527,115.132z M42.211,93.807c0-9.811,7.957-17.768,17.768-17.768
		c9.823,0,17.78,7.957,17.78,17.768c0,9.823-7.957,17.78-17.78,17.78C50.168,111.587,42.211,103.629,42.211,93.807z M70.642,93.807
		c0-5.879-4.772-10.663-10.663-10.663c-5.892,0-10.663,4.784-10.663,10.663c0,5.891,4.771,10.662,10.663,10.662
		C65.87,104.469,70.642,99.697,70.642,93.807z"/>
	<polygon fill="#DD0000" points="111.374,180.442 111.374,167.727 100.257,167.727 100.257,159.995 111.374,159.995 
		111.374,147.906 119.851,147.906 119.851,159.995 130.9,159.995 130.9,167.727 119.851,167.727 119.851,180.442 	"/>
</g>
</svg>
