<?xml version="1.0" encoding="utf-8"?>
<!-- Generator: Adobe Illustrator 16.2.0, SVG Export Plug-In . SVG Version: 6.00 Build 0)  -->
<!DOCTYPE svg PUBLIC "-//W3C//DTD SVG 1.1//EN" "http://www.w3.org/Graphics/SVG/1.1/DTD/svg11.dtd">
<svg version="1.1" id="Layer_1" xmlns="http://www.w3.org/2000/svg" xmlns:xlink="http://www.w3.org/1999/xlink" x="0px" y="0px"
	 width="163.4px" height="84.622px" viewBox="0 0 163.4 84.622" enable-background="new 0 0 163.4 84.622" xml:space="preserve">
<path fill-rule="evenodd" clip-rule="evenodd" fill="#CCCCCC" d="M154.484,84.499l-17.64-5.653c-1.32-0.412-2.039-1.825-1.627-3.146
	c0.428-1.307,1.827-2.027,3.147-1.614l11.626,3.732C119.459,23.314,51.862,0.743,2.745,5.649c-1.374,0.147-2.6-0.866-2.733-2.24
	c-0.133-1.372,0.867-2.585,2.24-2.733c50.69-5.066,120.755,18.159,152.378,75.183l3.894-12.146c0.414-1.307,1.828-2.025,3.134-1.613
	c1.32,0.426,2.04,1.827,1.626,3.146l-5.653,17.641C157.204,84.206,155.791,84.926,154.484,84.499z"/>
</svg>
