<?xml version="1.0" encoding="utf-8"?>
<!-- Generator: Adobe Illustrator 16.2.0, SVG Export Plug-In . SVG Version: 6.00 Build 0)  -->
<!DOCTYPE svg PUBLIC "-//W3C//DTD SVG 1.1//EN" "http://www.w3.org/Graphics/SVG/1.1/DTD/svg11.dtd">
<svg version="1.1" id="Layer_1" xmlns="http://www.w3.org/2000/svg" xmlns:xlink="http://www.w3.org/1999/xlink" x="0px" y="0px"
	 width="74.827px" height="84.187px" viewBox="0 0 74.827 84.187" enable-background="new 0 0 74.827 84.187" xml:space="preserve">
<path fill-rule="evenodd" clip-rule="evenodd" fill="none" d="M-12.091-3.414c27.32-27.333,71.68-27.333,99,0
	c27.333,27.32,27.333,71.68,0,99c-27.32,27.333-71.68,27.333-99,0C-39.424,68.267-39.424,23.907-12.091-3.414z"/>
<path fill-rule="evenodd" clip-rule="evenodd" fill="#EDEDED" d="M21.482,84.187L20.815,75.6c-1.253,2.893-5.133,5.187-7.653,3.2
	L1.469,67.093c-2.16-2.466-1.747-6.266,0-9.399l12.013-18.64c2.467-2.813,5.693-4.92,10.934-4.92h2.093l8.32,19.76l-3.053,8.347
	c-0.227,0.586,0.08,1.253,0.68,1.466l5.534,2.027c0.6,0.213,1.253-0.08,1.466-0.68l3.374-9.2c0.213-0.587-0.093-1.253-0.68-1.467
	l-2.04-0.747l8.214-19.506h2.093c5.24,0,8.453,2.107,10.934,4.92l12.013,18.64c1.733,3.133,2.16,6.934,0,9.399L61.656,78.8
	c-2.52,1.987-6.387-0.307-7.653-3.2l-0.667,8.586H21.482z M20.509,71.586l-1.64-20.973l-8.013,11.24l9.6,9.667
	C20.469,71.533,20.482,71.56,20.509,71.586z M54.375,71.52l9.587-9.667l-8-11.24l-1.64,20.973
	C54.335,71.56,54.349,71.533,54.375,71.52z M37.416,52.307l-7.653-18.173h15.307L37.416,52.307z M24.202,13.2
	c0-7.28,5.92-13.2,13.213-13.2c7.293,0,13.2,5.92,13.2,13.2c0,7.293-5.907,13.213-13.2,13.213
	C30.122,26.413,24.202,20.493,24.202,13.2z"/>
</svg>
