<?xml version="1.0" encoding="utf-8"?>
<!-- Generator: Adobe Illustrator 16.2.0, SVG Export Plug-In . SVG Version: 6.00 Build 0)  -->
<!DOCTYPE svg PUBLIC "-//W3C//DTD SVG 1.1//EN" "http://www.w3.org/Graphics/SVG/1.1/DTD/svg11.dtd">
<svg version="1.1" id="Layer_1" xmlns="http://www.w3.org/2000/svg" xmlns:xlink="http://www.w3.org/1999/xlink" x="0px" y="0px"
	 width="190.101px" height="284.616px" viewBox="-60.598 -135.954 190.101 284.616"
	 enable-background="new -60.598 -135.954 190.101 284.616" xml:space="preserve">
<g>
	<path fill="#B2B2B2" d="M-25.298,81.519v-4.984c6.359,2.893,14.144,1.623,19.249-3.709l0.36-0.371
		c6.465-6.746,6.238-17.492-0.52-23.953l-2.852-2.733c3.771-0.44,7.424-2.146,10.263-5.106l0.347-0.371
		c6.466-6.746,6.239-17.492-0.52-23.957L-9.861,5.895c4.027-0.306,7.958-2.026,10.97-5.172l0.348-0.374
		c6.465-6.745,6.238-17.475-0.52-23.954L-18.1-41.841c-2.092-2.014-4.585-3.373-7.198-4.093v-77.436
		c0-6.945,5.625-12.584,12.571-12.584h88.604c6.935,0,12.572,5.639,12.572,12.584v56.974c-5.105,0.306-7.719,1.92-10.172,3.706
		c-18.303,13.303-6.172,32.085,0.266,43.042c3.041,5.173,6.427,10.624,8.494,16.571l1.412,5.478v79.117
		c0,6.944-5.639,12.583-12.572,12.583h-88.604C-19.673,94.102-25.298,88.462-25.298,81.519z M52.738-122.716
		c0-1.694-1.372-3.079-3.079-3.079H14.706c-1.692,0-3.078,1.385-3.078,3.079c0,1.707,1.386,3.092,3.078,3.092h34.953
		C51.366-119.624,52.738-121.009,52.738-122.716z"/>
	<path d="M-18.353,78.05v-0.012c4.479,0.027,8.959-1.72,12.303-5.213l0.36-0.373c6.465-6.746,6.238-17.49-0.52-23.953l-2.852-2.732
		c3.771-0.439,7.424-2.146,10.263-5.105l0.347-0.373c6.466-6.746,6.239-17.49-0.52-23.955L-9.861,5.895
		c4.027-0.306,7.958-2.026,10.97-5.172l0.348-0.374c6.465-6.745,6.238-17.475-0.52-23.954L-18.1-41.841
		c-0.08-0.081-0.172-0.16-0.252-0.241v-67.784h99.856v45.163c-1.213,0.6-2.239,1.292-3.226,2.014
		c-18.303,13.303-6.172,32.085,0.267,43.042c0.974,1.653,1.974,3.333,2.959,5.04V78.05H-18.353z"/>
	<path fill="#B2B2B2" d="M21.025,130.388L-5.702,97.849H76.72c8.584,0,15.557-6.973,15.557-15.561V2.442
		c-1.493-9.225-6.612-17.276-10.53-23.954c-6.599-11.238-16.65-27.02-1.293-38.178c2.451-1.786,4.892-3.387,11.81-3
		c0.108,0,0.215,0.012,0.333,0.052c2.107,0.734,3.734,2.546,4.787,5.613l23.66,62.918c8.438,20.608,10.318,40.846,6.731,60.761
		c-4.705,26.566-7.185,54.026-8.344,82.008H28.824C27.718,141.453,24.971,135.464,21.025,130.388z M-27.444,70.667l-11.917-11.412
		c-5.266-5.063-5.452-13.449-0.387-18.728l0.346-0.375c5.052-5.278,13.45-5.452,18.729-0.397l11.903,11.41
		c5.28,5.064,5.466,13.451,0.401,18.729l-0.347,0.372C-13.768,75.546-22.165,75.718-27.444,70.667z M-20.205,38.501l-19.036-18.236
		c-5.279-5.053-5.452-13.45-0.4-18.729l0.359-0.374C-34.23-4.104-25.83-4.29-20.553,0.763L-1.53,19
		c5.279,5.064,5.466,13.451,0.413,18.729l-0.359,0.375C-6.528,43.378-14.926,43.554-20.205,38.501z M-20.299-1.437l-19.036-18.235
		c-5.279-5.052-5.452-13.45-0.4-18.729l0.359-0.36c5.052-5.279,13.452-5.465,18.716-0.4l19.036,18.235
		C3.655-15.873,3.843-7.475-1.209-2.209l-0.36,0.373C-6.622,3.442-15.02,3.615-20.299-1.437z M-28.378-46.521l-24.914-12.25
		c-6.531-3.266-9.171-11.238-5.905-17.77l0.239-0.453c3.266-6.531,11.238-9.185,17.77-5.905l12.81,6.292V-46.521L-28.378-46.521z"/>
	<rect x="-18.353" y="-109.866" fill="#DD0000" width="99.857" height="22.369"/>
	<path fill="#FFFFFF" d="M66.083-90.683l-0.133-1.734c-0.255,0.587-1.041,1.053-1.561,0.64l-2.36-2.373
		c-0.438-0.493-0.358-1.267,0-1.893l2.427-3.786c0.506-0.574,1.16-1,2.227-1h0.413l1.692,4.012l-0.625,1.694
		c-0.041,0.12,0.024,0.252,0.146,0.293l1.118,0.413c0.121,0.04,0.255-0.013,0.296-0.146l0.68-1.854
		c0.054-0.12-0.014-0.253-0.135-0.306l-0.412-0.147l1.666-3.959h0.427c1.055,0,1.721,0.426,2.213,1l2.438,3.786
		c0.348,0.626,0.44,1.399,0,1.893l-2.372,2.373c-0.506,0.413-1.294-0.053-1.561-0.64l-0.133,1.734H66.083z M65.881-93.229
		l-0.334-4.253l-1.625,2.279l1.945,1.959C65.868-93.243,65.881-93.243,65.881-93.229z M72.747-93.243l1.946-1.959l-1.626-2.279
		l-0.334,4.253C72.747-93.243,72.747-93.243,72.747-93.243z M29.717-93.896v-6.746h1.187l0.079,0.573
		c0.135-0.212,0.308-0.373,0.521-0.492c0.199-0.107,0.439-0.174,0.706-0.174c0.6,0,1.066,0.241,1.399,0.707
		c0.333,0.48,0.508,1.094,0.508,1.867v0.093c0,0.721-0.175,1.307-0.508,1.734c-0.333,0.44-0.8,0.667-1.399,0.667
		c-0.253,0-0.479-0.053-0.68-0.147c-0.187-0.094-0.359-0.227-0.506-0.413v2.333h-1.307V-93.896z M49.885-93.896v-6.746h1.188
		l0.08,0.573c0.133-0.212,0.307-0.373,0.52-0.492c0.199-0.107,0.44-0.174,0.707-0.174c0.6,0,1.066,0.241,1.399,0.707
		c0.333,0.48,0.507,1.094,0.507,1.867v0.093c0,0.721-0.174,1.307-0.507,1.734c-0.333,0.44-0.801,0.667-1.399,0.667
		c-0.254,0-0.479-0.053-0.68-0.147c-0.188-0.094-0.359-0.227-0.508-0.413v2.333h-1.307V-93.896z M12.602-96.362
		C12.2-96.829,12-97.416,12-98.148v-0.094c0-0.733,0.2-1.333,0.602-1.786c0.398-0.466,0.973-0.707,1.678-0.707
		c0.72,0,1.294,0.241,1.693,0.694c0.414,0.466,0.613,1.066,0.613,1.799v0.094c0,0.733-0.199,1.32-0.6,1.786
		c-0.413,0.453-0.973,0.694-1.692,0.694C13.575-95.668,13.014-95.909,12.602-96.362z M35.396-96.348
		c-0.427-0.453-0.627-1.027-0.627-1.721v-0.173c0-0.72,0.2-1.319,0.587-1.786c0.398-0.466,0.934-0.707,1.6-0.707
		c0.668,0,1.174,0.2,1.533,0.601c0.359,0.398,0.547,0.932,0.547,1.613v0.706h-2.906l-0.014,0.027
		c0.026,0.32,0.133,0.585,0.319,0.799c0.2,0.2,0.453,0.307,0.786,0.307c0.281,0,0.533-0.027,0.72-0.094
		c0.188-0.054,0.401-0.147,0.628-0.28l0.36,0.812c-0.2,0.173-0.454,0.307-0.772,0.414c-0.334,0.107-0.682,0.16-1.08,0.16
		C36.368-95.668,35.809-95.895,35.396-96.348z M45.473-96.348c-0.412-0.453-0.626-1.027-0.626-1.721v-0.173
		c0-0.72,0.2-1.319,0.601-1.786c0.399-0.466,0.934-0.707,1.6-0.707c0.652,0,1.158,0.2,1.533,0.601
		c0.358,0.398,0.547,0.932,0.547,1.613v0.706h-2.92v0.027c0.026,0.32,0.133,0.585,0.319,0.799c0.188,0.2,0.453,0.307,0.772,0.307
		c0.295,0,0.533-0.027,0.732-0.094c0.188-0.054,0.399-0.147,0.627-0.28l0.348,0.812c-0.188,0.173-0.455,0.307-0.773,0.414
		c-0.32,0.107-0.682,0.16-1.064,0.16C46.459-95.668,45.899-95.895,45.473-96.348z M3.202-95.762v-5.546H1.35v-1.013h5.012v1.013
		H4.509v5.546H3.202z M7.056-95.762v-4.879h2.039c0.653,0,1.16,0.121,1.519,0.346c0.361,0.227,0.534,0.56,0.534,1.014
		c0,0.226-0.067,0.438-0.227,0.613c-0.147,0.173-0.361,0.306-0.641,0.4c0.374,0.081,0.655,0.213,0.841,0.414
		c0.187,0.199,0.28,0.425,0.28,0.692c0,0.466-0.175,0.813-0.508,1.04c-0.347,0.24-0.838,0.359-1.479,0.359L7.056-95.762
		L7.056-95.762z M17.372-95.762v-4.879h1.32v2.96l0.027,0.013l1.586-2.973h1.319v4.879h-1.319v-2.973l-0.027-0.013l-1.586,2.986
		H17.372z M26.144-95.762v-3.866H24.61v-1.013h4.413v1.013h-1.56v3.866H26.144z M39.782-95.762v-4.879h1.305v1.973H42.7v-1.973
		h1.307v4.879H42.7v-1.893h-1.613v1.893H39.782z M-14.247-95.869v-1.239H-4.01v1.239H-14.247z M15.04-97.095
		c0.159-0.267,0.239-0.626,0.239-1.066v-0.094c0-0.425-0.08-0.773-0.239-1.053c-0.16-0.267-0.413-0.413-0.761-0.413
		c-0.333,0-0.586,0.146-0.732,0.413c-0.159,0.28-0.24,0.627-0.24,1.053v0.094c0,0.453,0.081,0.799,0.227,1.08
		c0.16,0.267,0.413,0.401,0.761,0.401C14.64-96.681,14.88-96.815,15.04-97.095z M32.569-97.055c0.147-0.254,0.227-0.587,0.227-1.014
		v-0.093c0-0.467-0.079-0.827-0.227-1.119c-0.16-0.28-0.387-0.427-0.707-0.427c-0.2,0-0.359,0.041-0.506,0.12
		c-0.135,0.08-0.254,0.201-0.333,0.347v2.133c0.079,0.133,0.198,0.24,0.333,0.32c0.146,0.066,0.306,0.107,0.52,0.107
		C32.196-96.681,32.423-96.815,32.569-97.055z M52.738-97.055c0.146-0.254,0.228-0.587,0.228-1.014v-0.093
		c0-0.467-0.082-0.827-0.228-1.119c-0.159-0.28-0.387-0.427-0.706-0.427c-0.199,0-0.359,0.041-0.507,0.12
		c-0.133,0.08-0.254,0.201-0.334,0.347v2.133c0.08,0.133,0.201,0.24,0.334,0.32c0.146,0.066,0.308,0.107,0.521,0.107
		C52.364-96.681,52.592-96.815,52.738-97.055z M9.921-96.895c0.107-0.081,0.173-0.213,0.173-0.386c0-0.16-0.054-0.294-0.159-0.387
		c-0.106-0.081-0.281-0.133-0.521-0.133h-1.04v1.039h1.04C9.641-96.762,9.814-96.815,9.921-96.895z M69.308-97.134l-1.547-3.693
		h3.106L69.308-97.134z M-14.247-98.334v-1.241H-4.01v1.241H-14.247z M9.667-98.774c0.121-0.068,0.174-0.188,0.174-0.347
		c0-0.174-0.067-0.307-0.188-0.388c-0.12-0.08-0.306-0.12-0.56-0.12h-0.72v0.974h0.76C9.374-98.655,9.547-98.695,9.667-98.774z
		 M37.741-98.681v-0.12c0-0.281-0.053-0.495-0.188-0.667c-0.133-0.161-0.333-0.254-0.6-0.254c-0.238,0-0.427,0.093-0.572,0.28
		c-0.135,0.186-0.227,0.44-0.254,0.733l0.014,0.027L37.741-98.681L37.741-98.681z M47.833-98.681v-0.12
		c0-0.281-0.066-0.495-0.199-0.667c-0.12-0.161-0.32-0.254-0.586-0.254c-0.241,0-0.441,0.093-0.574,0.28
		c-0.146,0.186-0.227,0.44-0.268,0.733l0.014,0.027L47.833-98.681L47.833-98.681z M-14.247-100.8v-1.241H-4.01v1.241H-14.247z
		 M18.359-101.8c-0.28-0.241-0.414-0.547-0.387-0.935v-0.026h0.961c0,0.16,0.052,0.294,0.146,0.4
		c0.081,0.094,0.227,0.147,0.427,0.147c0.187,0,0.333-0.053,0.413-0.147c0.094-0.105,0.146-0.24,0.146-0.4h0.96l0.013,0.026
		c0.015,0.388-0.119,0.694-0.399,0.935c-0.28,0.239-0.667,0.359-1.133,0.359C19.025-101.44,18.652-101.561,18.359-101.8z
		 M66.627-105.067c0-1.479,1.201-2.679,2.681-2.679s2.679,1.2,2.679,2.679c0,1.48-1.199,2.68-2.679,2.68
		S66.627-103.587,66.627-105.067z"/>
	<path fill="#EDEDED" d="M18.746-51.145c0.532-0.053,0.946,0.105,1.213,0.573l0.652,1.88c0.094,0.52,0.094,1-0.133,1.399
		c-0.613,0.692-1.227,1.252-1.84,0.893l-0.227-0.466c-0.094,0.159-0.346,0.253-0.653,0.306c-0.213-0.053-0.346,0.027-0.453,0.12
		c-0.252,0.186-0.6,0.107-0.959-0.026c-0.36,0.079-0.641,0.052-0.853-0.134c-1.161-0.227-1.521,0.44-1.974,0.853L11.495-42.2
		c-0.254,0.652-0.269,1.359-0.241,2.066c0.026,0.692-0.079,1.306-0.44,2.199c-0.173,0.386-0.08,0.519,0.32,0.333
		c1.667-1.147,3.506-1.386,5.6-0.173c2.799-1.867,5.918-2.146,9.611,0.574l2.425-1.307c0.161-0.134,0.281-0.32,0.333-0.56
		l-0.172-1.427c-1.067-0.147-1.573-0.813-1.693-1.839c-0.12-0.094-0.16,0.2-0.079,0.985c-0.215-0.639-0.454-1.265-0.188-2.025
		c0.173-0.759-0.573-2.853-1.081-4.6c-0.186-0.466-0.252-0.919-0.052-1.373c0.094-0.385,0.133-0.813,0.173-1.266
		c0.174-2.04,0.374-4.052,1.813-5.172c0.334-0.32,0.532-0.521,0.706-0.84c0.359-0.493,0.906-0.986,1.786-1.106
		c0.453-0.106,0.893-0.32,1.346-0.681c0.294-0.426,0.747-0.706,1.454-0.773c0.466-0.039,0.919-0.026,1.333,0.254
		c0.306,0.401,0.613,0.746,1.172,0.48c1.975-0.946,3.039,1.16,3.308,4.505c1.012,1.199,1.639,2.48,1.146,3.986
		c-0.238,1.066-0.373,2.105,0.627,3.053c-0.293,0.079-0.627-0.12-0.973-0.414c0.173,0.454,0.066,0.867-0.227,1.28
		c0.078-0.426,0.039-0.746-0.201-0.906c-0.014,0.293-0.08,0.587-0.2,0.88c-0.199,0.879-0.16,1.853,0.2,2.933
		c0.174,0.785,0.014,1.32-0.387,1.626c0.187-0.333,0.268-0.667,0.094-1.014c-0.106,0.427-0.279,0.854-0.6,1.281l1.465,0.586
		c0.826-0.545,1.521-1.252,2.135-2.066c0.707-1.027,1.691-1.893,3.186-2.453c1.053-2.292,2.426-4.439,5.225-5.919
		c0.429-0.188,0.613-0.987,0.773-1.906c0.133-0.959-0.199-1.532-0.613-2.053c-1.412-1.826-1.72-4.612-2.373-7.105
		c-0.52-2.106-1.371-3.893-2.238-5.651c-0.187-0.441-0.506-0.627-0.866-0.734c-0.96-0.201-1.866-0.507-2.438-1.346
		c-0.254-0.32-0.427-0.414-0.574-0.4c-0.238-0.04-0.371-0.173-0.547-0.28c-0.944,0.479-1.904,1.146-2.904,1.946
		c-0.627,0.372-1.227-0.307-0.32-0.934c0.893-0.667,1.666-1.521,2.439-2.36c0.238-0.346,0.027-0.559-0.48-0.693
		c-0.959-0.04-1.932-0.186-2.893-0.346c-0.973,0-2.053,0.08-2.079-0.547c-0.08-0.399,0.174-0.519,0.667-0.399
		c1.053,0.026,2.064,0.066,2.719,0.041c0.68-0.148,1.359-0.267,2.146-0.188c0.293,0,0.228-0.28,0.039-0.654
		c-0.64-1.132-1.732-1.959-2.758-2.825c-0.349-0.441-0.613-0.867-0.521-1.294c0.026-0.213,0.159-0.306,0.491-0.147l1.453,1.161
		c-0.453-0.534-0.894-1.053-0.586-1.627c0.267-0.267,1.358,0.786,2.133,1.28c0.733,0.707,1.373,1.453,1.853,2.267
		c0.667,0.933,1.44,1.786,2.44,2.439c1.199-1.067,1.813-0.895,1.399,0.613c-0.229,0.413,0.318,0.88,0.853,1.346
		c0.561,0.6,1.133,1.146,1.572,2.053c0.723,1.213,1.935,2.679,3.295,4.226c1.904,2.532,3.49,5.639,4.918,9.024
		c0.254,0.574,0.346,1.134,0.332,1.708c-0.013,0.346,0.055,0.718,0.24,1.105c0.307,0.626,0.161,1.414-0.134,2.253
		c-1.146,2.826-2.226,6.332-3.319,9.77c-0.853,2.507-2.398,4.387-4.305,5.932c-0.507,0.4-0.761,1.066-0.693,2.081
		c0.065,3.04-0.119,5.973-2.358,8.158c-0.267,0.346-0.399,0.84-0.453,1.386c-0.374,2.906-1.254,5.572-2.521,8.052
		c-0.053,0.201-0.092,0.413-0.039,0.667c0.438,2.239,0.506,4.384-0.842,6.145l-0.078,1.986c0.105,0.201,0.213,0.413,0.199,0.613
		c0.188,0.28,0.227,0.56,0.199,0.841c0.348,0.373,0.348,1.613,0.268,3.131C43.886-1.664,44.1-0.89,44.5-0.036l0.933,2.239
		c3.721,6.864,5.093,16.341,5.267,26.5c0.026,1.043,0.213,2.08,0.746,3.135c2.84,3.705,3.346,7.224,2.973,12.742
		c-0.213,3.106-0.439,6.213-0.347,9.318c0.026,0.389,0.095,0.786,0.333,1.239c0.348,0.747,0.586,1.508,0.613,2.252
		c1.053,2.239,2.771,3.96,4.506,5.12c0.467,0.107,0.826,0.531,1.133,1.117c-0.039,0.666-0.398,0.975-1.119,0.867
		c-0.521,0.174-1.053,0.161-1.586-0.039c-0.787,0.346-1.627,0.373-2.521,0.08c-0.627,0.159-1.134,0.092-1.548-0.16
		c-0.227-0.32-0.358-0.639-0.438-0.972c-0.107-0.452-0.427-0.575-0.854-0.508c-2.066,0.119-2.987-0.761-2.453-2.88
		c0.094-0.533,0.227-1.08,0.133-1.627c-0.173-1.039-0.238-2.064-0.253-3.094c-0.626-3.397-1.692-6.705-3.746-9.823
		c-2.692-4.063-2.532-8.132-2.065-12.197c-1.293-2.213-2.453-4.452-3.092-6.771c-0.509-1.4-1.254-2.733-2.16-4.026
		c-2.254-3.347-3.612-6.919-4.905-10.491c-0.161,1.2-0.441,2.279-0.813,3.266c-0.348,1.187-0.64,2.399-0.813,3.692
		c-0.28,1.946-0.92,3.759-1.507,5.573c-0.613,2.158-0.946,4.398-1.04,6.705c0.44,0.838,0.854,1.666,1.188,2.49
		c0.492,1.47,1.427,3.521,2.612,5.879c1,1.936,1.68,4.039,1.16,6.828c-0.36,2.705,1.932,10.836,2.599,12.557
		c2.627,5.518-0.651,5.013-3.186,4.932c-1.68-0.281-3.226-0.359-4.532,0c-1.134,0.133-2.266,0.188-3.413,0.053
		c-1.413,0.269-2.64,0.281-3.585-0.078c-0.893-0.025-0.961-0.307-0.494-0.76c-0.12-0.414,0.333-0.654,0.935-0.867l1.599-0.295
		c0.333-0.104,0.627-0.225,0.853-0.385c1.36-0.867,2.413-1.947,3.84-2.761c0.48-0.306,0.906-0.705,1.239-1.228
		c-0.572-3.69-2.213-7.942-4.599-12.116c-1.387-2.761-2.52-5.56-2.773-8.69c-0.32-1.746-0.986-3.679-1.839-5.691
		c-0.52-1.268-0.733-2.506-0.52-3.707c0.066-1.065-0.294-2.211-0.894-3.373c-3.453-7.316-0.64-17.82,2.613-28.539
		c-0.054-0.333,0.025-0.639,0.186-0.932c-0.053-0.32-0.013-0.613,0.214-0.827l0.133-1.307c-0.293-1.692-0.079-3.105,0.32-4.426
		c0.613-2.506,2.279-5.45,1.106-7.144c-0.72-1.36-1.239-2.705-1.705-4.065c-0.389-0.733-0.88-1.44-1.587-2.121
		c-0.613-0.667-1.079-1.812-1.227-2.746c-0.308-0.853-1.279-0.799-2.493-0.427c-4.358,1.614-8.158,0.574-11.664-1.866
		c-0.613-0.333-1.294-0.639-2.014-0.92c-1.079-0.505-1.812-1.28-2.372-2.092c-0.613-0.88-0.534-1.48-0.186-1.974
		c0.306-0.319,0.413-0.733,0.359-1.213c0.053-0.786,0.521-1.919,1.573-3.505c0.267-0.413,0.493-0.84,0.734-1.227
		c0.559-1.173,1.733-2.279,3.346-3.333c1.333-0.893,2.333-2.226,3.279-3.653c0.16-0.28,0.399-0.532,0.707-0.759
		c0.199-0.188,0.373-0.387,0.52-0.574c0.093-0.266,0.319-0.466,0.8-0.573c0.186-0.107,0.333-0.201,0.427-0.307
		c0.254-0.24,0.92-0.333,1.626-0.413c0.32-0.053,0.613-0.132,0.88-0.253c0.333-0.08,0.653-0.093,0.986-0.052
		c0.293-0.014,0.561-0.068,0.8-0.188C17.934-51.652,18.346-51.452,18.746-51.145z"/>
</g>
</svg>
