<?xml version="1.0" encoding="utf-8"?>
<!-- Generator: Adobe Illustrator 16.2.0, SVG Export Plug-In . SVG Version: 6.00 Build 0)  -->
<!DOCTYPE svg PUBLIC "-//W3C//DTD SVG 1.1//EN" "http://www.w3.org/Graphics/SVG/1.1/DTD/svg11.dtd">
<svg version="1.1" id="Layer_1" xmlns="http://www.w3.org/2000/svg" xmlns:xlink="http://www.w3.org/1999/xlink" x="0px" y="0px"
	 width="154.799px" height="49.202px" viewBox="0 0 154.799 49.202" enable-background="new 0 0 154.799 49.202"
	 xml:space="preserve">
<path fill-rule="evenodd" clip-rule="evenodd" fill="#CCCCCC" d="M1.667,39.339c-1.307-0.467-1.987-1.891-1.521-3.186
	c0.467-1.308,1.894-1.987,3.188-1.521c56.835,20.152,103.71,7.629,143.438-29.551c0.013-0.013,0.039-0.039,0.065-0.066
	l-13.109,0.041c-1.386,0.013-2.506-1.107-2.506-2.494c0-1.374,1.107-2.494,2.493-2.507L152.239,0c1.386,0,2.506,1.108,2.506,2.494
	l0.055,18.524c0.013,1.387-1.107,2.507-2.479,2.507c-1.389,0.013-2.509-1.107-2.509-2.479l-0.039-11.923
	C108.831,47.223,60.144,60.077,1.667,39.339z"/>
</svg>
