<?xml version="1.0" encoding="utf-8"?>
<!-- Generator: Adobe Illustrator 16.2.0, SVG Export Plug-In . SVG Version: 6.00 Build 0)  -->
<!DOCTYPE svg PUBLIC "-//W3C//DTD SVG 1.1//EN" "http://www.w3.org/Graphics/SVG/1.1/DTD/svg11.dtd">
<svg version="1.1" id="Layer_1" xmlns="http://www.w3.org/2000/svg" xmlns:xlink="http://www.w3.org/1999/xlink" x="0px" y="0px"
	 width="158.1px" height="37.124px" viewBox="0 0 158.1 37.124" enable-background="new 0 0 158.1 37.124" xml:space="preserve">
<path fill-rule="evenodd" clip-rule="evenodd" fill="#DD0000" d="M86.745,33.697l2.213-0.92c0.4,0.947,1.36,2.067,2.92,2.067
	c1.921,0,3.107-1.187,3.107-3.4v-0.84h-0.093c-0.574,0.707-1.667,1.32-3.054,1.32c-2.907,0-5.561-2.534-5.561-5.787
	c0-3.281,2.653-5.828,5.561-5.828c1.387,0,2.48,0.613,3.054,1.307h0.093v-0.947h2.414v10.415c0,4.293-2.521,6.04-5.521,6.04
	C89.064,37.124,87.371,35.245,86.745,33.697z M148.446,36.751l2.587-5.76l-4.534-10.334h2.733l3.027,7.4h0.093l2.92-7.4h2.827
	l-7.001,16.095H148.446z M1.214,35.337l16.402-16.402l5.134,5.121L3.467,35.017C2.614,35.511,1.827,35.591,1.214,35.337z M0,33.017
	V2.827c0-0.494,0.08-0.934,0.227-1.294l16.349,16.349L0.201,34.244C0.067,33.897,0,33.484,0,33.017z M42.406,22.91
	c0-4.974,4.174-9.015,9.147-9.015c2.747,0,4.707,1.081,6.174,2.48l-1.733,1.734c-1.054-0.987-2.48-1.747-4.441-1.747
	c-3.627,0-6.467,2.92-6.467,6.548c0,3.626,2.84,6.547,6.467,6.547c2.348,0,3.694-0.947,4.548-1.8c0.706-0.707,1.16-1.72,1.346-3.094
	h-5.894v-2.467h8.281c0.093,0.44,0.133,0.96,0.133,1.533c0,1.854-0.506,4.134-2.134,5.761c-1.574,1.653-3.6,2.534-6.281,2.534
	C46.58,31.924,42.406,27.87,42.406,22.91z M60.848,26.123c0-3.374,2.614-5.814,5.827-5.814c3.201,0,5.827,2.44,5.827,5.814
	c0,3.333-2.626,5.801-5.827,5.801C63.462,31.924,60.848,29.457,60.848,26.123z M73.556,26.123c0-3.374,2.614-5.814,5.828-5.814
	c3.213,0,5.827,2.44,5.827,5.814c0,3.333-2.613,5.801-5.827,5.801C76.17,31.924,73.556,29.457,73.556,26.123z M102.947,26.123
	c0-3.454,2.48-5.814,5.467-5.814c3.014,0,4.494,2.4,4.974,3.694l0.266,0.667l-7.761,3.2c0.587,1.173,1.507,1.76,2.813,1.76
	c1.294,0,2.201-0.626,2.854-1.6l1.974,1.32c-0.626,0.947-2.173,2.574-4.828,2.574C105.4,31.924,102.947,29.376,102.947,26.123z
	 M136.284,28.137c0-2.494,2.48-3.841,4.92-3.841c1.2,0,2.187,0.4,2.654,0.654v-0.173c-0.027-1.4-1.36-2.187-2.681-2.187
	c-0.947,0-1.84,0.307-2.32,1.253l-2.267-0.947c0.8-1.8,2.707-2.614,4.547-2.614c2.92,0,5.187,1.694,5.187,4.721v6.534h-2.466V30.23
	h-0.08c-0.601,0.894-1.547,1.667-3.254,1.667C138.284,31.897,136.284,30.417,136.284,28.137z M99.16,31.577V14.508h2.546v17.069
	H99.16z M119.229,31.577V14.508h6.107c2.814,0,5.601,2.041,5.601,5.294c0,3.254-2.787,5.308-5.601,5.308h-3.56v6.467H119.229z
	 M132.337,31.577V14.508h2.547v17.069H132.337z M69.942,26.123c0-2.094-1.507-3.52-3.267-3.52s-3.281,1.426-3.281,3.52
	c0,2.053,1.521,3.507,3.281,3.507S69.942,28.176,69.942,26.123z M82.65,26.123c0-2.094-1.507-3.52-3.267-3.52
	c-1.761,0-3.28,1.426-3.28,3.52c0,2.053,1.52,3.507,3.28,3.507C81.144,29.63,82.65,28.176,82.65,26.123z M95.159,26.137
	c0-2.041-1.36-3.534-3.094-3.534c-1.76,0-3.24,1.493-3.24,3.534c0,2.027,1.48,3.493,3.24,3.493
	C93.799,29.63,95.159,28.164,95.159,26.137z M143.859,26.937c-0.681-0.333-1.214-0.574-2.321-0.574
	c-1.253,0-2.707,0.506-2.707,1.813c0,1.041,1.16,1.454,2,1.454C142.298,29.63,143.658,28.51,143.859,26.937z M105.467,25.937
	l5.2-2.147c-0.293-0.733-1.146-1.227-2.16-1.227C107.213,22.563,105.4,23.696,105.467,25.937z M24.097,23.296l-5.428-5.414
	l5.361-5.361l6.054,3.427c1.907,1.081,1.907,2.867,0,3.947L24.097,23.296z M128.39,19.802c0-1.347-1.094-2.92-2.988-2.92h-3.626
	v5.854h3.626C127.296,22.736,128.39,21.122,128.39,19.802z M17.616,16.829L1.28,0.479c0.2-0.066,0.427-0.106,0.654-0.106
	c0.467,0,0.986,0.147,1.533,0.454l19.229,10.935L17.616,16.829z M42.859,10.108V7.361h0.8c0.707-0.613,1.054-1.654,1.04-3.134V0.173
	h5.467v7.188h0.92v2.747h-1.013V8.374h-6.214v1.734H42.859z M53.287,7.307c-0.813-0.827-1.213-1.84-1.213-3.027
	c0-1.2,0.4-2.214,1.213-3.04c0.8-0.827,1.8-1.24,3-1.24c1.187,0,2.187,0.413,3,1.24c0.8,0.84,1.213,1.84,1.213,3.04
	c0,1.187-0.413,2.2-1.213,3.027c-0.8,0.827-1.813,1.253-3,1.253C55.087,8.561,54.087,8.134,53.287,7.307z M103.133,8.534
	c-1.014-0.093-1.867-0.494-2.574-1.227c-0.8-0.827-1.2-1.84-1.2-3.027c0-1.2,0.4-2.214,1.2-3.04c0.813-0.827,1.813-1.24,3.014-1.24
	c1.186,0,2.187,0.413,2.987,1.24c0.813,0.84,1.213,1.84,1.213,3.04c0,1.187-0.4,2.2-1.2,3.027c-0.814,0.827-1.814,1.253-3,1.253
	C103.414,8.561,103.266,8.548,103.133,8.534z M65.355,8.534c-1.014-0.093-1.881-0.494-2.601-1.2
	c-0.813-0.827-1.213-1.84-1.213-3.067c0-1.213,0.4-2.228,1.213-3.041C63.582,0.399,64.582,0,65.795,0c1.227,0,2.24,0.44,3,1.333
	L68.062,2.04c-0.066-0.08-0.133-0.159-0.213-0.239c-0.534-0.533-1.214-0.788-2.054-0.788c-0.121,0-0.227,0-0.333,0.014
	c-0.747,0.054-1.387,0.36-1.934,0.88c-0.613,0.6-0.92,1.386-0.92,2.36c0,0.974,0.307,1.773,0.92,2.374
	c0.613,0.6,1.374,0.907,2.267,0.907c0.974,0,1.813-0.4,2.52-1.187l0.72,0.72c-0.374,0.453-0.84,0.813-1.4,1.081
	c-0.56,0.253-1.187,0.387-1.84,0.387C65.635,8.548,65.489,8.548,65.355,8.534z M76.983,8.374l0.28-0.974
	c0.174,0.094,0.36,0.147,0.547,0.147c0.24,0,0.44-0.053,0.56-0.147c0.133-0.093,0.267-0.266,0.374-0.52l0.307-0.654L76.29,0.173
	h1.228l2.027,4.708h0.053l1.974-4.708h1.24l-3.107,6.908c-0.427,0.987-1.054,1.467-1.907,1.467
	C77.543,8.548,77.277,8.494,76.983,8.374z M72.25,8.374V1.187h-2.294V0.173h5.627v1.014h-2.294v7.187H72.25z M83.998,8.374V0.173
	h5.921v8.201h-1.054V1.187h-3.813v7.187H83.998z M91.799,8.374V0.173h1.053v3.521h4.094V0.173H98v8.201h-1.054V4.68h-4.094v3.694
	H91.799z M112.081,8.374V0.173h2.96c0.64,0,1.187,0.214,1.667,0.64c0.467,0.427,0.707,0.96,0.707,1.601
	c0,0.387-0.106,0.72-0.307,1.027c-0.2,0.293-0.48,0.52-0.814,0.68v0.041c0.414,0.133,0.734,0.373,1,0.706
	c0.253,0.333,0.387,0.72,0.387,1.173c0,0.667-0.24,1.228-0.733,1.667c-0.494,0.44-1.08,0.667-1.747,0.667H112.081z M58.515,6.627
	c0.6-0.613,0.906-1.4,0.906-2.347c0-0.96-0.307-1.733-0.906-2.36c-0.613-0.613-1.347-0.907-2.228-0.907
	c-0.88,0-1.613,0.294-2.227,0.907c-0.6,0.627-0.906,1.4-0.906,2.36c0,0.947,0.307,1.733,0.906,2.347
	c0.614,0.614,1.347,0.92,2.227,0.92C57.167,7.547,57.901,7.241,58.515,6.627z M105.787,6.627c0.614-0.613,0.92-1.4,0.92-2.347
	c0-0.96-0.307-1.733-0.92-2.36c-0.6-0.613-1.346-0.907-2.213-0.907c-0.88,0-1.627,0.294-2.228,0.907
	c-0.613,0.627-0.92,1.4-0.92,2.36c0,0.947,0.307,1.733,0.92,2.347c0.6,0.614,1.347,0.92,2.228,0.92
	C104.44,7.547,105.187,7.241,105.787,6.627z M49.113,7.361V1.187h-3.36v3.04c0.014,1.293-0.239,2.347-0.773,3.134H49.113z
	 M116.228,6.934c0.253-0.28,0.374-0.587,0.374-0.92s-0.12-0.64-0.387-0.92c-0.253-0.28-0.6-0.414-1.013-0.414h-2.066v2.681h2.107
	C115.655,7.361,115.975,7.214,116.228,6.934z M116.001,3.293c0.227-0.253,0.36-0.546,0.36-0.867c0-0.307-0.12-0.6-0.36-0.853
	c-0.227-0.253-0.533-0.387-0.92-0.387h-1.947v2.506h1.906C115.442,3.693,115.761,3.56,116.001,3.293z"/>
</svg>
