<?xml version="1.0" encoding="utf-8"?>
<!-- Generator: Adobe Illustrator 16.2.0, SVG Export Plug-In . SVG Version: 6.00 Build 0)  -->
<!DOCTYPE svg PUBLIC "-//W3C//DTD SVG 1.1//EN" "http://www.w3.org/Graphics/SVG/1.1/DTD/svg11.dtd">
<svg version="1.1" id="Layer_1" xmlns="http://www.w3.org/2000/svg" xmlns:xlink="http://www.w3.org/1999/xlink" x="0px" y="0px"
	 width="152.5px" height="38.85px" viewBox="0 0 152.5 38.85" enable-background="new 0 0 152.5 38.85" xml:space="preserve">
<path fill="#FFFFFF" d="M56.18,38.85V20.378h2.759v2.306h0.054c0.906-1.559,2.598-2.505,4.411-2.452c3.519,0,5.851,2.786,5.851,7.09
	s-2.306,7.077-5.798,7.077c-1.798,0.093-3.492-0.853-4.358-2.425h-0.066v6.876H56.18z M71.454,38.85V20.378h2.745v2.306h0.054
	c0.919-1.559,2.612-2.505,4.424-2.452c3.519,0,5.838,2.786,5.838,7.09s-2.306,7.077-5.785,7.077
	c-1.799,0.093-3.492-0.853-4.372-2.425h-0.067v6.876H71.454z M91.699,28.961h2.906c0.213,1.879,2.052,3.119,4.558,3.119
	c2.399,0,4.132-1.24,4.132-2.946c0-1.466-1.053-2.359-3.505-2.958l-2.479-0.6c-3.492-0.839-5.118-2.479-5.118-5.131
	c0-3.278,2.865-5.531,6.931-5.531c4.025,0,6.771,2.252,6.864,5.531h-2.879c-0.16-1.892-1.732-3.038-4.025-3.038
	c-2.292,0-3.865,1.16-3.865,2.838c0,1.347,1,2.146,3.452,2.746l2.106,0.52c3.905,0.919,5.518,2.493,5.518,5.278
	c0,3.558-2.839,5.784-7.344,5.784C94.724,34.572,91.885,32.4,91.699,28.961z M116.608,27.322c0-4.371,2.573-7.117,6.584-7.117
	s6.57,2.746,6.57,7.117c0,4.372-2.545,7.104-6.57,7.104C119.154,34.426,116.608,31.694,116.608,27.322z M139.826,27.375
	c0-4.344,2.518-7.17,6.423-7.17c3.838,0,6.251,2.639,6.251,6.85v0.973h-9.796v0.173c-0.173,1.985,1.293,3.745,3.278,3.918
	c0.147,0.013,0.307,0.013,0.454,0.013c1.373,0.133,2.679-0.667,3.199-1.958h2.705c-0.373,2.532-2.839,4.251-5.971,4.251
	C142.331,34.426,139.826,31.72,139.826,27.375z M109.585,30.587V22.63h-2.026v-2.252h2.026V17.1h2.852v3.278h2.639v2.252h-2.639
	v7.65c0,1.186,0.534,1.746,1.693,1.746c0.307,0,0.626-0.027,0.933-0.067v2.239c-0.52,0.106-1.053,0.146-1.573,0.133
	C110.678,34.333,109.585,33.28,109.585,30.587z M37.482,34.252l6.864-19.032h3.198l6.864,19.032h-3.119l-1.746-5.145h-7.25
	l-1.746,5.145H37.482z M132.109,34.252V20.378h2.732v2.373h0.053c0.387-1.52,1.772-2.573,3.346-2.52c0.319,0,0.653,0.04,0.973,0.107
	v2.666c-0.413-0.12-0.853-0.187-1.28-0.174c-1.586-0.066-2.919,1.173-2.985,2.759c0,0.146,0,0.293,0.014,0.44v8.223H132.109z
	 M3.496,30.028c-2.839-4.146-5.051-11.688-2.093-16.82c1.4-2.493,3.998-4.079,6.864-4.171c2.172-0.041,4.185,1.465,5.531,1.465
	c1.306,0,3.799-1.813,6.371-1.545c2.453,0.08,4.718,1.306,6.118,3.305c-2.212,1.359-3.572,3.772-3.612,6.371
	c0,2.945,1.759,5.598,4.478,6.744c-0.52,1.693-1.306,3.279-2.333,4.731c-1.359,2.053-2.799,4.065-5.078,4.092
	c-2.226,0.053-2.972-1.293-5.518-1.293c-2.559,0-3.358,1.266-5.478,1.346C6.575,34.333,4.922,32.066,3.496,30.028z M126.871,27.322
	c0-2.999-1.373-4.771-3.678-4.771s-3.679,1.787-3.679,4.771c0,3.012,1.373,4.758,3.679,4.758S126.871,30.334,126.871,27.322z
	 M66.323,27.322c0-2.812-1.453-4.651-3.665-4.651c-2.186,0-3.639,1.878-3.639,4.651c0,2.799,1.453,4.665,3.639,4.665
	C64.87,31.986,66.323,30.147,66.323,27.322z M81.597,27.322c0-2.812-1.453-4.651-3.679-4.651c-2.172,0-3.625,1.878-3.625,4.651
	c0,2.799,1.453,4.665,3.625,4.665C80.144,31.986,81.597,30.147,81.597,27.322z M48.797,26.735l-2.839-8.343h-0.08l-2.826,8.343
	H48.797z M146.502,22.524c-0.08,0-0.173,0-0.253,0c-1.933-0.013-3.519,1.546-3.531,3.492v0.027h6.93
	C149.754,24.203,148.341,22.617,146.502,22.524z M70.374,13.088c-0.159-0.027-0.292-0.054-0.386-0.08l0.133-1.053
	c-0.027-0.014,0.053,0,0.24,0.013c0.187,0.014,0.307,0.014,0.36,0.014c0.293,0,0.533-0.121,0.706-0.387
	c0.187-0.24,0.347-0.534,0.466-0.839l0.32-0.773l-2.759-7.277h1.506l1.573,4.678l0.24,0.933h0.04l1.812-5.611h1.507l-3.119,8.556
	c-0.186,0.506-0.453,0.946-0.799,1.306c-0.36,0.373-0.826,0.56-1.413,0.56C70.681,13.128,70.548,13.114,70.374,13.088z
	 M62.285,12.981V2.706h1.04l0.2,0.973c0.253-0.36,0.546-0.64,0.906-0.827c0.374-0.187,0.787-0.28,1.266-0.28
	c0.92,0,1.626,0.373,2.146,1.093c0.506,0.733,0.76,1.693,0.76,2.892v0.147c0,1.066-0.253,1.932-0.773,2.585
	c-0.506,0.653-1.213,0.986-2.106,0.986c-0.466,0-0.866-0.08-1.213-0.226c-0.346-0.16-0.626-0.387-0.88-0.693v3.625H62.285z
	 M40.201,9.529c-0.747-0.48-1.106-1.2-1.08-2.133l0.013-0.04h1.293c0,0.52,0.227,0.96,0.679,1.32
	c0.454,0.36,1.026,0.533,1.746,0.533c0.827,0,1.466-0.173,1.919-0.506c0.467-0.347,0.693-0.787,0.693-1.333
	c0-0.613-0.213-1.067-0.626-1.359c-0.427-0.293-1.053-0.44-1.879-0.44h-1.253V4.504h1.253c0.8,0,1.386-0.146,1.772-0.453
	c0.387-0.293,0.573-0.706,0.573-1.226c0-0.506-0.2-0.933-0.613-1.267c-0.413-0.333-1.026-0.493-1.839-0.493
	c-0.64,0-1.186,0.16-1.625,0.493c-0.44,0.32-0.653,0.72-0.653,1.2h-1.292l-0.014-0.041c-0.013-0.8,0.32-1.453,1.013-1.958
	C40.973,0.253,41.84,0,42.853,0c1.187,0,2.106,0.253,2.785,0.747c0.68,0.493,1.027,1.186,1.027,2.105
	c0,0.453-0.16,0.879-0.467,1.266c-0.307,0.374-0.747,0.666-1.293,0.88c0.613,0.2,1.093,0.493,1.413,0.893
	c0.333,0.4,0.493,0.88,0.493,1.453c0,0.919-0.36,1.639-1.093,2.159c-0.732,0.507-1.679,0.773-2.865,0.773
	C41.826,10.275,40.947,10.022,40.201,9.529z M49.09,9.676c-0.4-0.387-0.6-0.933-0.6-1.639c0-0.707,0.28-1.253,0.853-1.653
	c0.573-0.399,1.359-0.6,2.346-0.6h1.466V5.051c0-0.44-0.133-0.786-0.399-1.04c-0.267-0.24-0.64-0.374-1.133-0.374
	c-0.426,0-0.773,0.107-1.053,0.333c-0.267,0.227-0.413,0.493-0.413,0.8h-1.279l-0.013-0.041c-0.027-0.546,0.227-1.039,0.759-1.479
	c0.533-0.453,1.226-0.68,2.08-0.68c0.839,0,1.52,0.213,2.025,0.64c0.52,0.426,0.773,1.053,0.773,1.853v3.572
	c0,0.267,0.013,0.52,0.04,0.759c0.027,0.254,0.08,0.494,0.146,0.734h-1.386c-0.053-0.227-0.079-0.426-0.106-0.6
	c-0.027-0.16-0.041-0.333-0.041-0.506c-0.253,0.347-0.586,0.653-0.986,0.893c-0.413,0.24-0.839,0.36-1.306,0.36
	C50.09,10.275,49.503,10.076,49.09,9.676z M100.229,9.236c-0.614-0.68-0.919-1.573-0.919-2.666V6.264
	c0-1.053,0.319-1.933,0.946-2.639c0.626-0.693,1.373-1.053,2.226-1.053c1,0,1.759,0.307,2.265,0.906
	c0.507,0.6,0.773,1.413,0.773,2.412v0.853h-4.811l-0.027,0.027c0.013,0.706,0.2,1.292,0.547,1.746
	c0.346,0.466,0.839,0.693,1.453,0.693c0.466,0,0.866-0.067,1.213-0.2c0.346-0.133,0.64-0.307,0.893-0.534l0.52,0.88
	c-0.253,0.253-0.613,0.479-1.04,0.653c-0.44,0.173-0.959,0.266-1.586,0.266C101.655,10.275,100.842,9.929,100.229,9.236z
	 M77.811,9.676c-0.572-0.4-0.853-0.96-0.839-1.693l0.014-0.053h1.292c0,0.36,0.146,0.653,0.453,0.906
	c0.293,0.254,0.68,0.387,1.16,0.387c0.493,0,0.866-0.107,1.146-0.346c0.267-0.213,0.4-0.506,0.4-0.839c0-0.4-0.12-0.68-0.347-0.867
	c-0.24-0.186-0.613-0.28-1.105-0.28h-1.293V5.798h1.293c0.466,0,0.813-0.093,1.012-0.267c0.2-0.186,0.307-0.453,0.307-0.786
	c0-0.319-0.107-0.573-0.347-0.8c-0.24-0.2-0.6-0.319-1.066-0.319c-0.426,0-0.786,0.12-1.066,0.333
	c-0.294,0.24-0.44,0.506-0.44,0.826h-1.28l-0.014-0.04c-0.026-0.64,0.24-1.16,0.787-1.559c0.533-0.4,1.212-0.6,2.012-0.6
	c0.866,0,1.546,0.187,2.039,0.56c0.493,0.374,0.733,0.907,0.733,1.6c0,0.333-0.106,0.64-0.307,0.907
	c-0.2,0.28-0.479,0.493-0.839,0.652c0.413,0.16,0.733,0.374,0.946,0.667c0.227,0.307,0.333,0.653,0.333,1.067
	c0,0.692-0.267,1.239-0.8,1.625c-0.533,0.399-1.239,0.586-2.105,0.586C79.091,10.249,78.397,10.062,77.811,9.676z M56.46,10.129
	V2.706h4.718v1.066h-3.372v6.357H56.46z M84.448,10.129V2.706h1.347v5.277h0.04l3.279-5.277h1.346v7.423h-1.346V4.864l-0.04-0.013
	l-3.278,5.278H84.448z M94.337,10.129V3.759h-2.398V2.706h6.211v1.053h-2.453v6.371H94.337z M110.531,10.129V2.706h2.918
	c0.986,0,1.746,0.173,2.279,0.519c0.546,0.333,0.813,0.839,0.813,1.533c0,0.346-0.106,0.653-0.319,0.933
	c-0.213,0.267-0.507,0.467-0.894,0.613c0.467,0.121,0.827,0.333,1.08,0.64c0.267,0.32,0.387,0.666,0.387,1.08
	c0,0.693-0.24,1.213-0.747,1.573c-0.519,0.346-1.212,0.533-2.119,0.533H110.531z M66.75,8.503c0.333-0.466,0.506-1.066,0.506-1.813
	V6.557c0-0.853-0.173-1.533-0.506-2.079c-0.333-0.533-0.813-0.799-1.466-0.799c-0.387,0-0.72,0.08-0.986,0.253
	c-0.28,0.186-0.493,0.413-0.667,0.72v3.585c0.174,0.307,0.387,0.546,0.667,0.72c0.267,0.173,0.613,0.253,1.013,0.253
	C65.95,9.209,66.429,8.969,66.75,8.503z M52.382,8.757c0.387-0.254,0.653-0.534,0.773-0.854V6.69h-1.52
	c-0.546,0-0.986,0.146-1.305,0.413c-0.32,0.28-0.494,0.6-0.494,0.959c0,0.333,0.107,0.587,0.307,0.787
	c0.213,0.187,0.506,0.293,0.919,0.293C51.542,9.143,51.996,9.01,52.382,8.757z M115.063,8.81c0.253-0.2,0.373-0.466,0.373-0.826
	c0-0.347-0.12-0.626-0.373-0.813c-0.253-0.2-0.64-0.292-1.133-0.292h-2.053V9.09h2.053C114.423,9.09,114.81,8.996,115.063,8.81z
	 M15.278,3.426c1.266-1.439,3.025-2.346,4.917-2.546c0.147,1.946-0.453,3.865-1.706,5.358c-1.199,1.492-3.025,2.359-4.958,2.345
	C13.412,6.69,14.038,4.852,15.278,3.426z M114.756,5.598c0.293-0.173,0.426-0.427,0.426-0.773c0-0.36-0.133-0.613-0.44-0.8
	c-0.28-0.173-0.72-0.266-1.292-0.266h-1.573v2.079h1.586C114.036,5.837,114.462,5.758,114.756,5.598z M104.16,5.678V5.491
	c0-0.52-0.133-0.96-0.413-1.32s-0.706-0.533-1.266-0.533c-0.454,0-0.84,0.187-1.16,0.574c-0.32,0.373-0.52,0.853-0.586,1.426
	l0.013,0.04H104.16z"/>
</svg>
