<?xml version="1.0" encoding="utf-8"?>
<!-- Generator: Adobe Illustrator 16.2.0, SVG Export Plug-In . SVG Version: 6.00 Build 0)  -->
<!DOCTYPE svg PUBLIC "-//W3C//DTD SVG 1.1//EN" "http://www.w3.org/Graphics/SVG/1.1/DTD/svg11.dtd">
<svg version="1.1" id="Layer_1" xmlns="http://www.w3.org/2000/svg" xmlns:xlink="http://www.w3.org/1999/xlink" x="0px" y="0px"
	 width="158.1px" height="37.042px" viewBox="0 0 158.1 37.042" enable-background="new 0 0 158.1 37.042" xml:space="preserve">
<path fill-rule="evenodd" clip-rule="evenodd" fill="#DD0000" d="M86.737,33.615l2.214-0.92c0.399,0.934,1.374,2.066,2.92,2.066
	c1.92,0,3.107-1.186,3.107-3.413v-0.841h-0.093c-0.56,0.707-1.667,1.32-3.053,1.32c-2.907,0-5.561-2.52-5.561-5.773
	c0-3.28,2.653-5.84,5.561-5.84c1.387,0,2.494,0.626,3.053,1.307h0.093v-0.946h2.414v10.427c0,4.28-2.521,6.04-5.521,6.04
	C89.057,37.042,87.377,35.148,86.737,33.615z M148.447,36.655l2.586-5.76l-4.547-10.333h2.747l3.027,7.4h0.093l2.921-7.4h2.826
	l-7,16.094H148.447z M1.214,35.255l16.4-16.414l5.133,5.134L3.467,34.935C2.601,35.415,1.813,35.508,1.214,35.255z M0,32.921V2.747
	C0,2.24,0.08,1.813,0.227,1.453l16.334,16.334L0.2,34.148C0.066,33.815,0,33.402,0,32.921z M42.402,22.814
	c0-4.974,4.174-9.014,9.147-9.014c2.746,0,4.707,1.08,6.173,2.494l-1.733,1.733c-1.053-0.987-2.48-1.76-4.44-1.76
	c-3.627,0-6.467,2.921-6.467,6.547c0,3.627,2.84,6.56,6.467,6.56c2.346,0,3.693-0.947,4.546-1.813
	c0.707-0.693,1.16-1.707,1.347-3.093h-5.894v-2.467h8.28c0.093,0.44,0.133,0.974,0.133,1.547c0,1.84-0.507,4.134-2.133,5.76
	c-1.574,1.64-3.601,2.52-6.28,2.52C46.576,31.828,42.402,27.788,42.402,22.814z M60.843,26.028c0-3.36,2.613-5.813,5.827-5.813
	c3.2,0,5.827,2.454,5.827,5.813c0,3.347-2.627,5.8-5.827,5.8C63.456,31.828,60.843,29.375,60.843,26.028z M73.55,26.028
	c0-3.36,2.613-5.813,5.826-5.813c3.214,0,5.827,2.454,5.827,5.813c0,3.347-2.613,5.8-5.827,5.8
	C76.164,31.828,73.55,29.375,73.55,26.028z M102.938,26.028c0-3.453,2.48-5.813,5.466-5.813c3.014,0,4.494,2.4,4.974,3.707
	l0.267,0.654l-7.76,3.213c0.587,1.16,1.52,1.761,2.813,1.761c1.293,0,2.2-0.64,2.854-1.614l1.986,1.333
	c-0.64,0.934-2.187,2.561-4.84,2.561C105.404,31.828,102.938,29.281,102.938,26.028z M136.286,28.041
	c0-2.493,2.48-3.826,4.907-3.826c1.213,0,2.2,0.386,2.653,0.653v-0.173c-0.013-1.399-1.346-2.2-2.667-2.2
	c-0.946,0-1.84,0.307-2.333,1.253l-2.253-0.947c0.786-1.8,2.693-2.613,4.547-2.613c2.906,0,5.173,1.693,5.173,4.72v6.546h-2.467
	v-1.32h-0.08c-0.586,0.906-1.533,1.667-3.24,1.667C138.273,31.802,136.286,30.335,136.286,28.041z M99.151,31.481V14.427h2.56
	v17.054H99.151z M119.232,31.481V14.427h6.094c2.827,0,5.6,2.041,5.6,5.28c0,3.267-2.773,5.307-5.6,5.307h-3.561v6.467H119.232z
	 M132.326,31.481V14.427h2.546v17.054H132.326z M69.937,26.028c0-2.094-1.507-3.52-3.267-3.52c-1.76,0-3.28,1.426-3.28,3.52
	c0,2.066,1.52,3.521,3.28,3.521C68.43,29.548,69.937,28.094,69.937,26.028z M82.657,26.028c0-2.094-1.52-3.52-3.281-3.52
	c-1.76,0-3.28,1.426-3.28,3.52c0,2.066,1.52,3.521,3.28,3.521C81.137,29.548,82.657,28.094,82.657,26.028z M95.151,26.055
	c0-2.054-1.36-3.547-3.093-3.547c-1.761,0-3.241,1.493-3.241,3.547c0,2.014,1.48,3.494,3.241,3.494
	C93.791,29.548,95.151,28.068,95.151,26.055z M143.846,26.841c-0.667-0.32-1.2-0.574-2.32-0.574c-1.253,0-2.693,0.507-2.693,1.827
	c0,1.027,1.16,1.454,1.986,1.454C142.299,29.548,143.66,28.428,143.846,26.841z M105.458,25.854l5.201-2.16
	c-0.294-0.72-1.147-1.227-2.161-1.227C107.205,22.468,105.404,23.601,105.458,25.854z M24.094,23.215l-5.427-5.428l5.36-5.36
	l6.054,3.44c1.907,1.08,1.907,2.854,0,3.934L24.094,23.215z M128.379,19.708c0-1.333-1.081-2.92-2.987-2.92h-3.627v5.854h3.627
	C127.298,22.641,128.379,21.041,128.379,19.708z M17.614,16.734L1.267,0.4C1.48,0.32,1.693,0.28,1.934,0.28
	c0.466,0,0.986,0.146,1.533,0.467l19.228,10.92L17.614,16.734z M44.055,7.32c-0.827-0.813-1.24-1.84-1.24-3.04
	c0-1.213,0.414-2.24,1.24-3.054C44.882,0.414,45.896,0,47.068,0c0.587,0,1.147,0.107,1.681,0.347
	c0.533,0.227,0.959,0.533,1.28,0.906l-0.72,0.72C48.762,1.333,48.029,1,47.068,1c-0.866,0-1.6,0.307-2.24,0.907
	c-0.627,0.613-0.934,1.399-0.934,2.373c0,0.96,0.307,1.747,0.934,2.36c0.64,0.601,1.374,0.907,2.24,0.907
	c0.921,0,1.681-0.307,2.294-0.92c0.387-0.4,0.613-0.947,0.68-1.654h-2.974V3.987h3.974C51.069,4.2,51.095,4.401,51.095,4.6
	c0,1.147-0.333,2.053-1.013,2.733c-0.773,0.813-1.774,1.214-3.014,1.214C45.896,8.547,44.882,8.134,44.055,7.32z M83.391,8.534
	c-1.014-0.093-1.854-0.506-2.56-1.227c-0.8-0.827-1.214-1.84-1.214-3.027c0-1.2,0.414-2.213,1.214-3.04
	C81.63,0.414,82.63,0,83.831,0c1.186,0,2.186,0.414,3,1.24c0.8,0.84,1.213,1.84,1.213,3.04c0,1.187-0.413,2.2-1.213,3.027
	c-0.8,0.827-1.8,1.24-3,1.24C83.684,8.547,83.537,8.547,83.391,8.534z M52.603,8.36V0.173h4.787v1.014h-3.733v2.6h3.359V4.76h-3.359
	v2.6h3.733v1H52.603z M60.763,8.36V1.187h-2.28V0.173h5.627v1.014h-2.294V8.36H60.763z M68.176,8.36V0.173h1.053V8.36H68.176z
	 M72.843,8.36V1.187H70.55V0.173h5.641v1.014h-2.294V8.36H72.843z M89.51,8.36V0.173h1.28l3.987,6.374h0.04l-0.04-1.574v-4.8h1.053
	V8.36h-1.107l-4.16-6.667h-0.04l0.04,1.573V8.36H89.51z M86.057,6.627c0.601-0.613,0.906-1.4,0.906-2.347
	c0-0.96-0.306-1.747-0.906-2.347C85.444,1.307,84.697,1,83.831,1c-0.88,0-1.627,0.307-2.227,0.933
	c-0.601,0.6-0.907,1.387-0.907,2.347c0,0.947,0.307,1.734,0.907,2.347c0.6,0.613,1.346,0.92,2.227,0.92
	C84.697,7.547,85.444,7.241,86.057,6.627z"/>
</svg>
