<?xml version="1.0" encoding="utf-8"?>
<!-- Generator: Adobe Illustrator 16.2.0, SVG Export Plug-In . SVG Version: 6.00 Build 0)  -->
<!DOCTYPE svg PUBLIC "-//W3C//DTD SVG 1.1//EN" "http://www.w3.org/Graphics/SVG/1.1/DTD/svg11.dtd">
<svg version="1.1" id="Layer_1" xmlns="http://www.w3.org/2000/svg" xmlns:xlink="http://www.w3.org/1999/xlink" x="0px" y="0px"
	 width="152.5px" height="38.414px" viewBox="0 0 152.5 38.414" enable-background="new 0 0 152.5 38.414" xml:space="preserve">
<path fill="#DD0000" d="M56.181,38.414V19.947h2.76v2.32h0.04c0.92-1.574,2.613-2.521,4.427-2.454c3.52,0,5.84,2.787,5.84,7.08
	c0,4.307-2.307,7.08-5.787,7.08c-1.8,0.094-3.506-0.853-4.373-2.426h-0.067v6.867H56.181z M71.447,38.414V19.947h2.747v2.32h0.067
	c0.906-1.574,2.6-2.521,4.413-2.454c3.52,0,5.84,2.787,5.84,7.08c0,4.307-2.307,7.08-5.787,7.08
	c-1.799,0.094-3.493-0.853-4.359-2.426H74.3v6.867H71.447z M91.701,28.533h2.906c0.213,1.88,2.04,3.121,4.547,3.121
	c2.399,0,4.133-1.24,4.133-2.947c0-1.466-1.041-2.359-3.507-2.96l-2.466-0.6c-3.494-0.84-5.121-2.48-5.121-5.133
	c0-3.267,2.867-5.534,6.934-5.534c4.013,0,6.773,2.267,6.867,5.534h-2.88c-0.173-1.893-1.746-3.04-4.04-3.04
	c-2.294,0-3.854,1.16-3.854,2.853c0,1.347,1,2.134,3.454,2.747l2.093,0.506c3.907,0.934,5.533,2.494,5.533,5.28
	c0,3.56-2.84,5.787-7.36,5.787C94.727,34.146,91.874,31.973,91.701,28.533z M116.606,26.893c0-4.373,2.574-7.106,6.587-7.106
	c4.014,0,6.573,2.733,6.573,7.106c0,4.374-2.547,7.107-6.573,7.107C119.153,34,116.606,31.267,116.606,26.893z M139.82,26.96
	c0-4.36,2.533-7.173,6.426-7.173c3.84,0,6.253,2.626,6.253,6.84V27.6H142.7v0.173c-0.174,1.986,1.293,3.747,3.28,3.92
	c0.159,0.013,0.307,0.013,0.453,0.013c1.387,0.134,2.693-0.667,3.213-1.96h2.693C151.966,32.28,149.5,34,146.367,34
	C142.327,34,139.82,31.293,139.82,26.96z M109.58,30.16V22.2h-2.027v-2.253h2.027v-3.266h2.854v3.266h2.64V22.2h-2.64v7.667
	c0,1.173,0.533,1.733,1.693,1.733c0.319,0,0.627-0.026,0.933-0.067v2.24c-0.52,0.107-1.053,0.146-1.573,0.133
	C110.674,33.907,109.58,32.854,109.58,30.16z M37.474,33.827L44.341,14.8h3.2l6.867,19.026h-3.12l-1.747-5.146h-7.253l-1.747,5.146
	H37.474z M132.113,33.827v-13.88h2.72v2.374h0.067c0.373-1.52,1.773-2.574,3.333-2.507c0.333,0,0.653,0.041,0.974,0.107v2.667
	c-0.414-0.133-0.84-0.186-1.28-0.186c-1.573-0.053-2.92,1.173-2.973,2.76c-0.014,0.146-0.014,0.293,0.013,0.44v8.227H132.113z
	 M3.487,29.613c-2.84-4.16-5.04-11.693-2.08-16.826c1.387-2.507,3.986-4.081,6.854-4.174c2.173-0.053,4.186,1.454,5.533,1.454
	c1.307,0,3.8-1.8,6.373-1.534c2.44,0.08,4.72,1.308,6.121,3.308c-2.214,1.359-3.574,3.76-3.613,6.359c0,2.946,1.76,5.6,4.466,6.747
	c-0.52,1.693-1.293,3.293-2.319,4.733c-1.374,2.054-2.813,4.066-5.08,4.093c-2.227,0.053-2.974-1.307-5.521-1.307
	c-2.56,0-3.36,1.28-5.479,1.36C6.567,33.907,4.914,31.64,3.487,29.613z M126.874,26.893c0-3-1.374-4.76-3.68-4.76
	s-3.68,1.773-3.68,4.76c0,3.014,1.373,4.761,3.68,4.761S126.874,29.907,126.874,26.893z M66.314,26.893
	c0-2.813-1.454-4.653-3.667-4.653c-2.174,0-3.64,1.88-3.64,4.653c0,2.8,1.466,4.667,3.64,4.667
	C64.86,31.56,66.314,29.72,66.314,26.893z M81.594,26.893c0-2.813-1.454-4.653-3.667-4.653c-2.187,0-3.64,1.88-3.64,4.653
	c0,2.8,1.453,4.667,3.64,4.667C80.14,31.56,81.594,29.72,81.594,26.893z M48.794,26.307l-2.84-8.333h-0.08l-2.827,8.333H48.794z
	 M146.514,22.093c-0.093,0-0.173,0-0.267,0c-1.933-0.013-3.52,1.547-3.533,3.493v0.027h6.947
	C149.754,23.773,148.354,22.2,146.514,22.093z M138.993,6.681c0-0.173,0.014-0.347,0.041-0.521c-0.24-1.733,0.986-3.333,2.733-3.56
	c0.146-0.027,0.293-0.041,0.44-0.041c1.92,0,3.08,1.32,3.08,3.48v0.48h-4.867v0.08c-0.094,1,0.653,1.879,1.653,1.959
	c0.066,0.014,0.12,0.014,0.173,0.014c0.667,0.08,1.32-0.253,1.64-0.84h1.32c-0.387,1.306-1.64,2.146-2.987,2
	C140.487,9.773,139.047,8.414,138.993,6.681z M48.607,6.787c-0.027-0.213-0.027-0.427,0-0.641c-0.173-1.799,1.147-3.387,2.934-3.56
	c1.8-0.173,3.4,1.147,3.573,2.934c0.014,0.213,0.014,0.426,0,0.626c0.174,1.8-1.146,3.387-2.933,3.574
	C50.38,9.894,48.78,8.574,48.607,6.787z M78.527,6.773c-0.027-0.2-0.027-0.413,0-0.627c-0.173-1.799,1.147-3.387,2.934-3.56
	c1.8-0.173,3.399,1.147,3.573,2.934c0.013,0.213,0.013,0.426,0,0.626c0.173,1.8-1.147,3.387-2.934,3.574
	C80.3,9.894,78.701,8.574,78.527,6.773z M106.113,6.787c-0.026-0.213-0.026-0.427,0-0.641c-0.173-1.799,1.133-3.387,2.934-3.56
	c1.8-0.173,3.387,1.147,3.56,2.934c0.027,0.213,0.027,0.426,0,0.626c0.173,1.8-1.133,3.387-2.933,3.574
	C107.874,9.894,106.287,8.574,106.113,6.787z M94.034,6.146c0-2.186,1.12-3.56,2.867-3.56c0.879-0.04,1.707,0.427,2.107,1.213h0.106
	V0.014h1.36v9.587H99.18V8.507h-0.12c-0.439,0.773-1.267,1.24-2.16,1.199C95.154,9.707,94.034,8.333,94.034,6.146z M86.473,7.854
	c-0.013-0.066-0.013-0.133-0.013-0.2c0-1.253,0.92-1.96,2.573-2.067l1.853-0.107v-0.6c0-0.72-0.48-1.133-1.414-1.133
	c-0.747,0-1.28,0.28-1.426,0.76h-1.32C86.86,3.32,87.98,2.56,89.541,2.56c1.733,0,2.706,0.867,2.706,2.32v4.72H90.94V8.627h-0.106
	c-0.453,0.707-1.24,1.12-2.08,1.08C87.607,9.827,86.594,9,86.473,7.854z M126.62,7.773V3.88h-1.094V2.734h1.094V0.987h1.36v1.747
	h1.493V3.88h-1.493v3.546c0,0.72,0.293,1.04,0.973,1.04c0.173,0,0.346-0.013,0.52-0.04V9.56c-0.24,0.053-0.493,0.08-0.733,0.08
	C127.22,9.64,126.62,9.107,126.62,7.773z M39.407,9.601V0.454h3.293c2.227-0.16,4.173,1.52,4.32,3.746
	c0.026,0.267,0.014,0.534-0.013,0.8c0,2.92-1.586,4.601-4.307,4.601H39.407z M57.994,9.601l-1.906-6.894h1.386l1.24,5.254h0.093
	l1.427-5.254h1.293l1.427,5.254h0.106l1.227-5.254h1.36l-1.894,6.894h-1.413l-1.427-5.08h-0.107l-1.413,5.08H57.994z M67.247,9.601
	V2.707h1.307V3.8h0.106c0.36-0.813,1.173-1.307,2.054-1.24c1.24-0.08,2.32,0.84,2.413,2.08c0.013,0.16,0,0.32-0.026,0.494v4.467
	h-1.36V5.467c0-1.106-0.479-1.653-1.479-1.653c-0.88-0.04-1.613,0.641-1.667,1.507c0,0.08,0,0.16,0.013,0.24v4.041H67.247z
	 M114.434,9.601V2.707h1.32V3.8h0.093c0.36-0.813,1.173-1.307,2.054-1.24c1.239-0.08,2.319,0.84,2.413,2.08
	c0.013,0.16,0,0.32-0.026,0.494v4.467h-1.36V5.467c0-1.106-0.48-1.653-1.48-1.653c-0.879-0.04-1.613,0.641-1.653,1.507
	c-0.014,0.08,0,0.16,0,0.24v4.041H114.434z M131.34,9.601V0h1.346v3.813h0.107c0.36-0.813,1.213-1.306,2.107-1.24
	c1.239-0.066,2.319,0.893,2.387,2.146c0.013,0.133,0,0.28-0.014,0.426v4.454H135.9V5.48c0-1.107-0.507-1.653-1.467-1.653
	c-0.894-0.08-1.667,0.586-1.733,1.467c-0.014,0.093-0.014,0.186,0,0.28v4.027H131.34z M75.273,9.587V0.014h1.36v9.573H75.273z
	 M90.887,7.107c0-0.014,0-0.04,0-0.053V6.48l-1.68,0.107c-0.947,0.067-1.374,0.387-1.374,1S88.367,8.56,89.1,8.56
	C90.007,8.654,90.793,8,90.887,7.107z M53.714,6.146c0-1.493-0.68-2.373-1.854-2.373c-1.187,0-1.853,0.88-1.853,2.373
	c0,1.507,0.667,2.374,1.853,2.374C53.034,8.521,53.714,7.654,53.714,6.146z M83.621,6.146c0-1.493-0.667-2.373-1.841-2.373
	c-1.186,0-1.853,0.88-1.853,2.373c0,1.507,0.667,2.374,1.853,2.374C82.954,8.521,83.621,7.654,83.621,6.146z M111.207,6.146
	c0-1.493-0.667-2.373-1.84-2.373c-1.187,0-1.854,0.88-1.854,2.373c0,1.507,0.667,2.374,1.854,2.374
	C110.541,8.521,111.207,7.654,111.207,6.146z M99.14,6.146c0-1.426-0.72-2.333-1.853-2.333c-1.147,0-1.84,0.88-1.84,2.333
	c0,1.467,0.68,2.333,1.84,2.333C98.434,8.48,99.14,7.601,99.14,6.146z M45.58,5.613c0.014-0.2,0.014-0.399-0.026-0.6
	c0.227-1.573-0.88-3.026-2.453-3.24c-0.187-0.026-0.374-0.04-0.56-0.026h-1.72v6.56h1.72C44.127,8.4,45.487,7.187,45.58,5.613z
	 M15.274,3c1.267-1.44,3.026-2.346,4.92-2.546C20.341,2.4,19.741,4.307,18.487,5.8c-1.213,1.506-3.041,2.374-4.96,2.36
	C13.407,6.267,14.034,4.414,15.274,3z M142.367,3.734c-0.054-0.014-0.107-0.014-0.174-0.014c-0.96,0-1.76,0.773-1.773,1.747v0.041
	h3.48C143.967,4.601,143.287,3.8,142.367,3.734z"/>
</svg>
