<?xml version="1.0" encoding="utf-8"?>
<!-- Generator: Adobe Illustrator 16.2.0, SVG Export Plug-In . SVG Version: 6.00 Build 0)  -->
<!DOCTYPE svg PUBLIC "-//W3C//DTD SVG 1.1//EN" "http://www.w3.org/Graphics/SVG/1.1/DTD/svg11.dtd">
<svg version="1.1" id="Layer_1" xmlns="http://www.w3.org/2000/svg" xmlns:xlink="http://www.w3.org/1999/xlink" x="0px" y="0px"
	 width="18.701px" height="180.033px" viewBox="0 0 18.701 180.033" enable-background="new 0 0 18.701 180.033"
	 xml:space="preserve">
<path fill-rule="evenodd" clip-rule="evenodd" fill="#808080" d="M13.971,180.033l-0.973-0.227c0.294-1.238,0.573-2.53,0.84-3.889
	l0.986,0.2C14.558,177.477,14.265,178.782,13.971,180.033z M15.542,172.161l-0.984-0.158c0.212-1.28,0.412-2.585,0.6-3.943
	l0.986,0.146C15.957,169.565,15.756,170.885,15.542,172.161z M16.662,164.238l-0.999-0.12c0.161-1.293,0.294-2.625,0.439-3.97
	l0.986,0.106C16.956,161.6,16.809,162.932,16.662,164.238z M17.461,156.26l-0.999-0.081c0.121-1.305,0.213-2.623,0.306-3.982
	l0.999,0.08C17.674,153.621,17.568,154.953,17.461,156.26z M18.035,148.281l-0.999-0.054c0.079-1.317,0.146-2.649,0.214-3.996
	l0.984,0.054C18.18,145.63,18.1,146.962,18.035,148.281z M18.407,140.289l-0.999-0.038c0.054-1.319,0.094-2.651,0.133-3.983
	l0.999,0.026C18.5,137.639,18.46,138.971,18.407,140.289z M18.62,132.285l-0.998-0.013c0.025-1.319,0.039-2.651,0.053-3.996
	l0.999,0.013C18.659,129.635,18.646,130.966,18.62,132.285z M18.701,124.294h-0.999c0-1.332-0.014-2.664-0.014-3.996l0.998-0.013
	C18.686,121.63,18.701,122.962,18.701,124.294z M17.568,112.319l0.999-0.025c0.027,1.331,0.053,2.663,0.066,3.995l-0.999,0.013
	C17.622,114.983,17.595,113.651,17.568,112.319z M17.328,104.328l0.998-0.026c0.055,1.332,0.094,2.664,0.135,3.996l-0.999,0.026
	C17.42,106.992,17.382,105.66,17.328,104.328z M16.981,96.35l0.999-0.039c0.067,1.332,0.134,2.664,0.188,3.996l-0.999,0.039
	C17.115,99.014,17.049,97.682,16.981,96.35z M16.515,88.386l0.999-0.067c0.094,1.332,0.174,2.665,0.239,3.996l-0.985,0.053
	C16.689,91.035,16.609,89.717,16.515,88.386z M15.943,80.421l0.999-0.08c0.107,1.332,0.2,2.664,0.308,3.996l-0.999,0.066
	C16.157,83.071,16.05,81.752,15.943,80.421z M15.251,72.469l0.999-0.093c0.119,1.318,0.239,2.65,0.358,3.982l-0.999,0.08
	C15.503,75.12,15.371,73.788,15.251,72.469z M14.437,64.531l0.999-0.12c0.134,1.318,0.281,2.65,0.414,3.982L14.864,68.5
	C14.731,67.168,14.585,65.836,14.437,64.531z M13.493,56.606l0.986-0.133c0.172,1.318,0.333,2.637,0.491,3.969l-0.985,0.12
	C13.826,59.23,13.665,57.911,13.493,56.606z M12.4,48.694l0.986-0.146c0.2,1.306,0.385,2.624,0.572,3.956l-0.999,0.147
	C12.787,51.318,12.587,50,12.4,48.694z M11.149,40.81l0.972-0.16c0.227,1.292,0.452,2.611,0.651,3.942l-0.984,0.16
	C11.588,43.42,11.361,42.115,11.149,40.81z M9.696,32.964l0.972-0.186c0.269,1.279,0.508,2.597,0.76,3.929l-0.986,0.174
	C10.202,35.562,9.95,34.257,9.696,32.964z M8.003,25.173l0.974-0.227c0.307,1.279,0.6,2.584,0.879,3.903l-0.973,0.213
	C8.591,27.744,8.297,26.438,8.003,25.173z M6.021,17.461l0.959-0.279c0.358,1.265,0.706,2.543,1.039,3.875L7.06,21.311
	C6.713,19.992,6.366,18.7,6.021,17.461z M3.609,9.87l0.946-0.333c0.439,1.225,0.853,2.491,1.278,3.809l-0.958,0.293
	C4.462,12.333,4.049,11.082,3.609,9.87z M0,10.136L0.44,0l7.032,7.313L0,10.136z"/>
</svg>
