<?xml version="1.0" encoding="utf-8"?>
<!-- Generator: Adobe Illustrator 16.2.0, SVG Export Plug-In . SVG Version: 6.00 Build 0)  -->
<!DOCTYPE svg PUBLIC "-//W3C//DTD SVG 1.1//EN" "http://www.w3.org/Graphics/SVG/1.1/DTD/svg11.dtd">
<svg version="1.1" id="Layer_1" xmlns="http://www.w3.org/2000/svg" xmlns:xlink="http://www.w3.org/1999/xlink" x="0px" y="0px"
	 width="236.2px" height="311.07px" viewBox="0 0 236.2 311.07" enable-background="new 0 0 236.2 311.07" xml:space="preserve">
<g>
	<polygon fill="#FFFFFF" points="0.506,60.482 0.506,0.493 192.354,0.493 192.354,5.332 201.072,14.184 192.354,23.036 
		192.354,60.482 	"/>
	<path fill="#CCCCCC" d="M207.897,14.877c0-7.798,6.346-14.145,14.158-14.145S236.2,7.079,236.2,14.877
		c0,7.813-6.332,14.158-14.145,14.158S207.897,22.689,207.897,14.877z"/>
	<path fill="#FFFFFF" d="M222.108,15.984c4.52,0,8.186,1.826,8.186,4.094v2.053h-16.383v-2.053
		C213.911,17.81,217.577,15.984,222.108,15.984 M222.108,5.732c2.253,0,4.094,1.84,4.094,4.106c0,2.253-1.841,4.092-4.094,4.092
		c-2.266,0-4.105-1.839-4.105-4.092C218.002,7.572,219.842,5.732,222.108,5.732L222.108,5.732z"/>
	<rect x="12.198" y="17.623" fill="#CCCCCC" width="140.708" height="3.999"/>
	<rect x="12.198" y="28.408" fill="#CCCCCC" width="108.155" height="3.999"/>
	<rect x="12.198" y="39.193" fill="#CCCCCC" width="140.708" height="3.999"/>
	<path fill="#B0B0B0" d="M169.971,14.544l2.986,1.493l-0.213,3.333l2.771-1.854l2.785,1.84l-0.199-3.319l2.975-1.493l-2.975-1.493
		l0.199-3.306l-2.785,1.813l-2.771-1.84l0.187,3.346L169.971,14.544z M184.834,26.062l-4.453-1.52l-1.532,4.438l-3.413-6.666
		l-3.24,6.666l-1.533-4.438l-4.451,1.52l3.238-6.666c-1.066-1.333-1.705-3.013-1.705-4.853c0-4.292,3.491-7.771,7.771-7.771
		c4.292,0,7.771,3.479,7.771,7.771c0,1.84-0.627,3.52-1.692,4.853L184.834,26.062L184.834,26.062z"/>
	<polygon fill="#FFFFFF" points="0.506,110.501 0.506,70.508 192.354,70.508 192.354,75.08 201.072,83.24 192.354,91.384 
		192.354,110.501 	"/>
	<circle fill="#CCCCCC" cx="222.042" cy="83.719" r="14.144"/>
	<path fill="#FFFFFF" d="M222.096,84.812c4.531,0,8.197,1.827,8.197,4.093v2.054h-16.396v-2.054
		C213.896,86.638,217.563,84.812,222.096,84.812 M222.096,74.561c2.266,0,4.105,1.84,4.105,4.105c0,2.253-1.841,4.093-4.105,4.093
		c-2.268,0-4.094-1.84-4.094-4.093C218.002,76.4,219.829,74.561,222.096,74.561L222.096,74.561z"/>
	<rect x="12.198" y="83.426" fill="#CCCCCC" width="140.708" height="4"/>
	<rect x="12.198" y="94.21" fill="#CCCCCC" width="108.155" height="4"/>
	<path fill="#B0B0B0" d="M164.918,92.704h18.664L174.25,76.6L164.918,92.704z M175.104,90.171h-1.693v-1.694h1.693 M175.104,86.771
		h-1.693v-3.386h1.693V86.771z"/>
	<polygon fill="#FFFFFF" points="0.506,160.732 0.506,120.74 192.354,120.74 192.354,125.219 201.072,133.23 192.354,141.256 
		192.354,160.732 	"/>
	<path fill="#CCCCCC" d="M207.897,133.564c0-7.812,6.332-14.144,14.145-14.144c7.813,0,14.146,6.332,14.146,14.144
		c0,7.813-6.332,14.158-14.146,14.158C214.229,147.722,207.897,141.375,207.897,133.564z"/>
	<path fill="#FFFFFF" d="M222.096,134.657c4.531,0,8.197,1.84,8.197,4.105v2.04h-16.396v-2.04
		C213.896,136.497,217.563,134.657,222.096,134.657 M222.096,124.419c2.266,0,4.105,1.826,4.105,4.092s-1.841,4.106-4.105,4.106
		c-2.268,0-4.094-1.84-4.094-4.106S219.829,124.419,222.096,124.419L222.096,124.419z"/>
	<path fill="#B0B0B0" d="M174.943,140.283l6.358-6.359l-1.279-1.28l-5.079,5.065l-2.8-2.786l-1.28,1.28L174.943,140.283z
		 M175.85,127.125c5.012,0,9.079,4.064,9.079,9.078c0,5-4.066,9.064-9.079,9.064c-5.014,0-9.064-4.064-9.064-9.064
		C166.786,131.19,170.836,127.125,175.85,127.125L175.85,127.125z"/>
	<rect x="12.198" y="130.498" fill="#CCCCCC" width="140.708" height="3.999"/>
	<rect x="12.198" y="142.216" fill="#CCCCCC" width="108.155" height="4"/>
	<polygon fill="#FFFFFF" points="0.506,230.654 0.506,170.664 192.354,170.664 192.354,175.77 201.072,185.088 192.354,194.42 
		192.354,230.654 	"/>
	<path fill="#CCCCCC" d="M207.897,187.088c0-7.813,6.332-14.158,14.145-14.158c7.813,0,14.146,6.346,14.146,14.158
		c0,7.812-6.332,14.144-14.146,14.144C214.229,201.232,207.897,194.9,207.897,187.088z"/>
	<path fill="#FFFFFF" d="M222.096,188.181c4.531,0,8.197,1.827,8.197,4.093v2.054h-16.396v-2.054
		C213.896,190.007,217.563,188.181,222.096,188.181 M222.096,177.929c2.266,0,4.105,1.84,4.105,4.106
		c0,2.253-1.841,4.093-4.105,4.093c-2.268,0-4.094-1.84-4.094-4.093C218.002,179.77,219.829,177.929,222.096,177.929
		L222.096,177.929z"/>
	<path fill="#B0B0B0" d="M176.569,186.834c1.508,0,2.721,1.213,2.721,2.72c0,1.493-1.213,2.706-2.721,2.706
		c-1.492,0-2.706-1.213-2.706-2.706C173.863,188.048,175.077,186.834,176.569,186.834 M176.569,185.022
		c-2.492,0-4.52,2.026-4.52,4.532c0,2.493,2.027,4.52,4.52,4.52c2.508,0,4.52-2.026,4.52-4.52
		C181.088,187.048,179.077,185.022,176.569,185.022 M169.331,182.302h2.721l1.814-1.8h5.426l1.801,1.8h2.72
		c1,0,1.813,0.813,1.813,1.813v10.864c0,1-0.813,1.813-1.813,1.813h-14.478c-1,0-1.813-0.813-1.813-1.813v-10.864
		C167.518,183.115,168.331,182.302,169.331,182.302L169.331,182.302z"/>
	<rect x="10.745" y="182.209" fill="#E3E3E3" width="42.393" height="37.554"/>
	<rect x="63.082" y="182.209" fill="#E3E3E3" width="42.406" height="37.554"/>
	<rect x="115.433" y="182.209" fill="#E3E3E3" width="42.394" height="37.554"/>
	<polygon fill="#FFFFFF" points="0.506,300.562 0.506,240.572 192.354,240.572 192.354,245.678 201.072,254.996 192.354,264.315 
		192.354,300.562 	"/>
	<path fill="#CCCCCC" d="M207.897,256.983c0-7.799,6.332-14.145,14.145-14.145c7.813,0,14.146,6.346,14.146,14.145
		c0,7.813-6.332,14.158-14.146,14.158C214.229,271.141,207.897,264.795,207.897,256.983z"/>
	<path fill="#FFFFFF" d="M222.096,258.089c4.531,0,8.197,1.826,8.197,4.092v2.053h-16.396v-2.053
		C213.896,259.916,217.563,258.089,222.096,258.089 M222.096,247.837c2.266,0,4.105,1.84,4.105,4.093
		c0,2.267-1.841,4.106-4.105,4.106c-2.268,0-4.094-1.841-4.094-4.106C218.002,249.677,219.829,247.837,222.096,247.837
		L222.096,247.837z"/>
	<rect x="12.198" y="256.703" fill="#CCCCCC" width="140.708" height="3.999"/>
	<rect x="12.198" y="267.488" fill="#CCCCCC" width="108.155" height="3.999"/>
	<rect x="12.198" y="278.272" fill="#CCCCCC" width="140.708" height="3.999"/>
	<path fill="#B0B0B0" d="M169.144,259.302h7.879v-1.573h-7.879V259.302z M169.144,256.143h6.306v-1.573h-6.306V256.143z
		 M169.144,252.997h11.024v-1.573h-11.024V252.997z M172.29,264.821c-0.426,0-0.785-0.359-0.785-0.785v-2.374h-3.146
		c-0.88,0-1.571-0.706-1.571-1.572v-9.465c0-0.867,0.707-1.573,1.571-1.573h12.611c0.864,0,1.571,0.707,1.571,1.573v9.465
		c0,0.866-0.707,1.572-1.571,1.572h-4.813l-2.92,2.933c-0.158,0.146-0.347,0.227-0.546,0.227H172.29L172.29,264.821z"/>
	<path fill="#CCCCCC" d="M0,60.99V0h192.86v5.132l8.905,9.052l-8.905,9.052V60.99H0z M191.86,59.99V22.822l8.506-8.638l-8.506-8.651
		V1H1v58.99H191.86z"/>
	<path fill="#CCCCCC" d="M0,110.994V70.001h192.86v4.866l8.945,8.373l-8.945,8.357v19.396H0z M191.86,109.994V91.171l8.479-7.932
		l-8.479-7.933v-4.306H1v38.993H191.86z"/>
	<path fill="#CCCCCC" d="M0,161.24v-40.993h192.86v4.746l8.945,8.238l-8.945,8.238v19.771L0,161.24L0,161.24z M191.86,160.24
		v-19.196l8.465-7.813l-8.465-7.799v-4.186H1v38.993H191.86z"/>
	<path fill="#CCCCCC" d="M0,231.161v-60.99h192.86v5.398l8.893,9.52l-8.893,9.519v36.555L0,231.161L0,231.161z M191.86,230.161
		v-35.94l8.52-9.132l-8.52-9.118v-4.799H1v58.99L191.86,230.161L191.86,230.161z"/>
	<path fill="#CCCCCC" d="M0,301.068v-60.989h192.86v5.399l8.893,9.519l-8.893,9.519v36.554L0,301.068L0,301.068z M191.86,300.069
		v-35.94l8.52-9.132l-8.52-9.118v-4.799H1v58.989H191.86z"/>
</g>
</svg>
