<?xml version="1.0" encoding="utf-8"?>
<!-- Generator: Adobe Illustrator 16.2.0, SVG Export Plug-In . SVG Version: 6.00 Build 0)  -->
<!DOCTYPE svg PUBLIC "-//W3C//DTD SVG 1.1//EN" "http://www.w3.org/Graphics/SVG/1.1/DTD/svg11.dtd">
<svg version="1.1" id="Layer_1" xmlns="http://www.w3.org/2000/svg" xmlns:xlink="http://www.w3.org/1999/xlink" x="0px" y="0px"
	 width="211.8px" height="126.157px" viewBox="0 0 211.8 126.157" enable-background="new 0 0 211.8 126.157" xml:space="preserve">
<path fill-rule="evenodd" clip-rule="evenodd" fill="#808080" d="M208.119,123.531l0.654-0.746c0.999,0.866,2.013,1.733,3.026,2.611
	l-0.653,0.761C210.134,125.277,209.119,124.411,208.119,123.531z M202.081,118.291l0.653-0.759c1,0.88,2.013,1.746,3.013,2.626
	l-0.653,0.76C204.094,120.038,203.081,119.158,202.081,118.291z M196.041,113.039l0.654-0.747c1,0.867,2.013,1.747,3.013,2.614
	l-0.652,0.76C198.056,114.786,197.041,113.919,196.041,113.039z M190.002,107.8l0.653-0.76c1,0.88,2.013,1.747,3.013,2.627
	l-0.653,0.746C192.015,109.546,191.002,108.667,190.002,107.8z M183.95,102.574l0.652-0.761c1,0.867,2.015,1.748,3.027,2.613
	l-0.653,0.761C185.963,104.307,184.95,103.441,183.95,102.574z M177.871,97.374l0.653-0.76c1.013,0.867,2.025,1.734,3.038,2.6
	l-0.652,0.761C179.896,99.094,178.884,98.241,177.871,97.374z M171.777,92.202l0.641-0.76c1.013,0.852,2.039,1.719,3.053,2.573
	l-0.639,0.76C173.805,93.922,172.791,93.055,171.777,92.202z M165.633,87.068l0.639-0.759c1.027,0.84,2.054,1.707,3.079,2.56
	l-0.639,0.759C167.685,88.776,166.658,87.923,165.633,87.068z M159.459,82.004l0.627-0.773c1.039,0.839,2.066,1.68,3.106,2.532
	l-0.641,0.773C161.526,83.684,160.486,82.843,159.459,82.004z M153.233,76.99l0.627-0.786c1.039,0.826,2.079,1.666,3.12,2.506
	l-0.628,0.773C155.313,78.644,154.273,77.817,153.233,76.99z M146.955,72.044l0.612-0.786c1.055,0.813,2.106,1.641,3.146,2.466
	l-0.613,0.786C149.048,73.685,148.007,72.858,146.955,72.044z M140.608,67.192l0.601-0.801c1.065,0.801,2.119,1.614,3.187,2.427
	l-0.614,0.786C142.729,68.792,141.662,67.991,140.608,67.192z M134.196,62.419l0.586-0.8c1.081,0.786,2.146,1.573,3.227,2.373
	l-0.6,0.801C136.342,63.992,135.263,63.206,134.196,62.419z M127.704,57.753l0.572-0.813c1.094,0.773,2.187,1.546,3.267,2.32
	l-0.586,0.813C129.877,59.299,128.796,58.526,127.704,57.753z M121.131,53.207l0.573-0.827c1.093,0.747,2.199,1.506,3.293,2.267
	l-0.573,0.813C123.331,54.7,122.237,53.954,121.131,53.207z M114.492,48.781l0.547-0.84c1.106,0.72,2.226,1.467,3.333,2.2
	l-0.547,0.826C116.718,50.234,115.599,49.5,114.492,48.781z M107.747,44.488l0.532-0.854c1.134,0.707,2.267,1.414,3.386,2.133
	l-0.533,0.84C110.012,45.901,108.879,45.181,107.747,44.488z M100.921,40.328l0.519-0.853c1.147,0.68,2.293,1.359,3.427,2.053
	l-0.52,0.866C103.213,41.702,102.067,41.008,100.921,40.328z M94.001,36.342l0.494-0.88c1.173,0.667,2.333,1.32,3.48,1.987
	l-0.494,0.866C96.321,37.649,95.175,36.995,94.001,36.342z M87.002,32.516l0.467-0.893c1.173,0.627,2.359,1.266,3.52,1.907
	l-0.479,0.879C89.349,33.769,88.176,33.143,87.002,32.516z M79.896,28.863l0.439-0.894c1.201,0.586,2.387,1.2,3.573,1.8
	l-0.453,0.893C82.27,30.049,81.083,29.45,79.896,28.863z M72.697,25.397l0.427-0.907c1.213,0.56,2.413,1.133,3.626,1.707
	l-0.439,0.906C75.11,26.53,73.911,25.957,72.697,25.397z M65.418,22.118l0.4-0.92c1.227,0.533,2.453,1.066,3.666,1.626l-0.413,0.907
	C67.858,23.184,66.645,22.651,65.418,22.118z M58.046,19.038l0.373-0.92c1.24,0.493,2.48,1,3.707,1.506l-0.374,0.933
	C60.525,20.038,59.286,19.531,58.046,19.038z M50.594,16.171l0.346-0.933c1.267,0.453,2.506,0.933,3.759,1.413l-0.36,0.934
	C53.1,17.104,51.847,16.638,50.594,16.171z M43.075,13.519l0.319-0.947c1.267,0.427,2.52,0.854,3.787,1.307l-0.333,0.934
	C45.594,14.372,44.328,13.945,43.075,13.519z M35.462,11.079l0.293-0.959c1.28,0.386,2.56,0.786,3.826,1.2l-0.307,0.946
	C38.008,11.866,36.742,11.465,35.462,11.079z M27.796,8.853l0.267-0.96c1.293,0.347,2.573,0.72,3.853,1.08l-0.28,0.96
	C30.37,9.572,29.09,9.212,27.796,8.853z M8.373,7.839L0,2.106L9.932,0L8.373,7.839z M20.064,6.853l0.24-0.973
	c1.306,0.32,2.599,0.654,3.879,0.987l-0.24,0.959C22.651,7.493,21.371,7.172,20.064,6.853z M12.278,5.08l0.213-0.973
	c1.307,0.28,2.613,0.56,3.906,0.853l-0.213,0.986C14.891,5.639,13.585,5.359,12.278,5.08z"/>
</svg>
