<?xml version="1.0" encoding="utf-8"?>
<!-- Generator: Adobe Illustrator 16.2.0, SVG Export Plug-In . SVG Version: 6.00 Build 0)  -->
<!DOCTYPE svg PUBLIC "-//W3C//DTD SVG 1.1//EN" "http://www.w3.org/Graphics/SVG/1.1/DTD/svg11.dtd">
<svg version="1.1" id="Layer_1" xmlns="http://www.w3.org/2000/svg" xmlns:xlink="http://www.w3.org/1999/xlink" x="0px" y="0px"
	 width="45.8px" height="113.079px" viewBox="0 0 45.8 113.079" enable-background="new 0 0 45.8 113.079" xml:space="preserve">
<path fill-rule="evenodd" clip-rule="evenodd" fill="#808080" d="M44.372,109.104l1.001-0.106c0.135,1.32,0.28,2.655,0.428,3.977
	l-0.988,0.105C44.666,111.758,44.519,110.438,44.372,109.104z M43.493,101.151l0.986-0.105c0.16,1.32,0.307,2.64,0.455,3.974
	l-1.001,0.107C43.785,103.806,43.638,102.473,43.493,101.151z M42.532,93.214l1-0.133c0.16,1.334,0.334,2.655,0.481,3.976
	l-0.988,0.121C42.865,95.856,42.705,94.535,42.532,93.214z M41.464,85.29l0.985-0.147c0.201,1.321,0.389,2.642,0.563,3.976
	l-0.988,0.134C41.838,87.917,41.651,86.611,41.464,85.29z M40.209,77.393l0.987-0.175c0.227,1.321,0.454,2.642,0.654,3.963
	l-0.988,0.159C40.65,80.02,40.436,78.712,40.209,77.393z M38.716,69.546l0.986-0.198c0.267,1.307,0.534,2.614,0.788,3.936
	l-0.988,0.187C39.25,72.163,38.996,70.854,38.716,69.546z M36.929,61.769l0.974-0.24c0.318,1.295,0.639,2.59,0.934,3.896
	l-0.975,0.226C37.568,64.356,37.248,63.063,36.929,61.769z M34.78,54.084l0.948-0.293c0.399,1.281,0.773,2.562,1.134,3.854
	l-0.961,0.268C35.541,56.633,35.167,55.352,34.78,54.084z M32.205,46.534l0.935-0.347c0.48,1.255,0.921,2.522,1.349,3.79
	l-0.949,0.319C33.111,49.042,32.673,47.788,32.205,46.534z M29.177,39.169l0.906-0.414c0.548,1.228,1.081,2.455,1.589,3.696
	l-0.921,0.374C30.244,41.598,29.724,40.384,29.177,39.169z M25.641,32.032l0.881-0.48c0.642,1.187,1.254,2.375,1.841,3.575
	l-0.894,0.44C26.881,34.38,26.269,33.193,25.641,32.032z M21.586,25.174l0.84-0.546c0.734,1.134,1.439,2.281,2.107,3.428
	l-0.854,0.507C23,27.43,22.306,26.295,21.586,25.174z M17.01,18.651l0.801-0.601c0.813,1.067,1.614,2.147,2.375,3.242l-0.814,0.573
	C18.611,20.785,17.823,19.718,17.01,18.651z M11.94,12.514l0.747-0.667c0.907,1.001,1.774,2.028,2.628,3.042l-0.774,0.641
	C13.701,14.515,12.834,13.515,11.94,12.514z M9.232,9.592L6.417,6.791L4.016,9.326L0,0l9.526,3.522L7.111,6.07l2.841,2.829
	L9.232,9.592z"/>
</svg>
