<?xml version="1.0" encoding="utf-8"?>
<!-- Generator: Adobe Illustrator 16.2.0, SVG Export Plug-In . SVG Version: 6.00 Build 0)  -->
<!DOCTYPE svg PUBLIC "-//W3C//DTD SVG 1.1//EN" "http://www.w3.org/Graphics/SVG/1.1/DTD/svg11.dtd">
<svg version="1.1" id="Layer_1" xmlns="http://www.w3.org/2000/svg" xmlns:xlink="http://www.w3.org/1999/xlink" x="0px" y="0px"
	 width="94.7px" height="434.776px" viewBox="0 0 94.7 434.776" enable-background="new 0 0 94.7 434.776" xml:space="preserve">
<path fill-rule="evenodd" clip-rule="evenodd" fill="#808080" d="M0.706,434.776L0,434.07c0.92-0.935,1.854-1.88,2.787-2.854
	l0.72,0.68C2.574,432.883,1.64,433.844,0.706,434.776z M6.241,428.964l-0.747-0.667c0.894-0.974,1.773-1.975,2.653-2.987l0.76,0.667
	C8.014,426.989,7.12,427.989,6.241,428.964z M11.507,422.923l-0.76-0.64c0.84-1.015,1.68-2.042,2.533-3.094l0.773,0.626
	C13.201,420.869,12.361,421.908,11.507,422.923z M16.548,416.682l-0.8-0.612c0.813-1.04,1.614-2.106,2.427-3.175l0.8,0.601
	C18.161,414.574,17.348,415.629,16.548,416.682z M21.348,410.269l-0.799-0.588c0.773-1.064,1.546-2.159,2.32-3.253l0.813,0.573
	C22.908,408.108,22.135,409.188,21.348,410.269z M25.962,403.708l-0.827-0.56c0.733-1.093,1.48-2.2,2.213-3.321l0.84,0.547
	C27.442,401.494,26.708,402.615,25.962,403.708z M30.375,397.014l-0.84-0.533c0.707-1.119,1.414-2.24,2.121-3.387l0.853,0.534
	C31.802,394.773,31.082,395.894,30.375,397.014z M34.603,390.214l-0.854-0.52c0.68-1.135,1.36-2.28,2.04-3.44l0.854,0.506
	C35.962,387.92,35.282,389.067,34.603,390.214z M38.656,383.294l-0.867-0.495c0.654-1.146,1.307-2.306,1.947-3.479l0.88,0.479
	C39.962,380.974,39.309,382.146,38.656,383.294z M42.536,376.293l-0.88-0.48c0.626-1.16,1.253-2.333,1.88-3.52l0.88,0.453
	C43.79,373.946,43.163,375.119,42.536,376.293z M46.256,369.199l-0.893-0.467c0.6-1.174,1.199-2.36,1.8-3.56l0.894,0.44
	C47.456,366.813,46.857,368.012,46.256,369.199z M49.817,362.011l-0.894-0.426c0.574-1.199,1.147-2.399,1.72-3.613l0.906,0.427
	C50.977,359.612,50.404,360.824,49.817,362.011z M53.23,354.771l-0.907-0.412c0.547-1.214,1.095-2.428,1.642-3.64l0.919,0.398
	C54.336,352.344,53.79,353.558,53.23,354.771z M56.498,347.45l-0.92-0.398c0.52-1.214,1.053-2.44,1.572-3.667l0.921,0.386
	C57.55,345.01,57.016,346.236,56.498,347.45z M59.605,340.077l-0.922-0.387c0.495-1.228,1-2.455,1.495-3.707l0.932,0.373
	C60.605,337.61,60.11,338.838,59.605,340.077z M62.578,332.637l-0.934-0.359c0.479-1.241,0.961-2.482,1.428-3.735l0.932,0.347
	C63.538,330.143,63.058,331.396,62.578,332.637z M65.405,325.143l-0.934-0.348c0.453-1.24,0.906-2.492,1.347-3.76l0.946,0.334
	C66.311,322.636,65.858,323.889,65.405,325.143z M68.098,317.595l-0.947-0.333c0.428-1.254,0.866-2.507,1.293-3.773l0.948,0.32
	C68.965,315.075,68.525,316.341,68.098,317.595z M70.645,310.008l-0.947-0.319c0.413-1.254,0.814-2.52,1.214-3.801l0.96,0.307
	C71.471,307.46,71.059,308.741,70.645,310.008z M73.059,302.367l-0.948-0.293c0.389-1.267,0.773-2.547,1.147-3.827l0.96,0.28
	C73.833,299.82,73.458,301.101,73.059,302.367z M75.337,294.688l-0.959-0.28c0.373-1.267,0.732-2.547,1.094-3.842l0.96,0.269
	C76.072,292.126,75.711,293.407,75.337,294.688z M77.5,286.979l-0.974-0.266c0.346-1.281,0.692-2.574,1.025-3.867l0.975,0.253
	C78.179,284.394,77.846,285.687,77.5,286.979z M79.512,279.219l-0.974-0.239c0.333-1.294,0.653-2.573,0.961-3.881l0.973,0.239
	C80.152,276.633,79.833,277.94,79.512,279.219z M81.406,271.444l-0.974-0.227c0.294-1.293,0.601-2.599,0.894-3.906l0.974,0.227
	C82.005,268.846,81.699,270.139,81.406,271.444z M83.167,263.632l-0.987-0.214c0.279-1.294,0.561-2.601,0.839-3.906l0.974,0.2
	C83.726,261.019,83.445,262.324,83.167,263.632z M84.792,255.79l-0.985-0.199c0.267-1.307,0.52-2.613,0.773-3.921l0.973,0.188
	C85.312,253.178,85.045,254.483,84.792,255.79z M86.299,247.924l-0.987-0.187c0.24-1.308,0.467-2.615,0.706-3.934l0.975,0.173
	C86.766,245.297,86.54,246.617,86.299,247.924z M87.672,240.029l-0.987-0.16c0.214-1.307,0.427-2.626,0.641-3.946l0.987,0.16
	C88.099,237.403,87.885,238.724,87.672,240.029z M88.926,232.122l-0.986-0.146c0.186-1.32,0.386-2.641,0.573-3.96l0.987,0.147
	C89.313,229.482,89.125,230.803,88.926,232.122z M90.045,224.188l-0.985-0.133c0.172-1.307,0.347-2.628,0.52-3.961l0.986,0.133
	C90.394,221.548,90.232,222.868,90.045,224.188z M91.046,216.242l-0.986-0.107c0.159-1.32,0.307-2.654,0.453-3.974l1,0.107
	C91.367,213.602,91.207,214.921,91.046,216.242z M91.926,208.294l-0.985-0.107c0.133-1.32,0.266-2.654,0.385-3.974l1,0.093
	C92.193,205.641,92.074,206.961,91.926,208.294z M92.685,200.321l-1-0.094c0.121-1.32,0.229-2.653,0.334-3.987l1,0.08
	C92.914,197.654,92.806,198.987,92.685,200.321z M93.326,192.333l-1-0.066c0.094-1.333,0.188-2.654,0.268-3.987l1,0.054
	C93.513,189.68,93.419,191,93.326,192.333z M93.833,184.346l-1-0.067c0.08-1.32,0.146-2.653,0.213-3.987l1,0.053
	C93.98,181.679,93.914,183.013,93.833,184.346z M94.232,176.346l-1-0.041c0.055-1.333,0.107-2.667,0.147-4l1,0.04
	C94.339,173.679,94.287,175.012,94.232,176.346z M94.5,168.345l-1-0.027c0.039-1.333,0.065-2.667,0.093-4l1,0.013
	C94.566,165.678,94.54,167.012,94.5,168.345z M94.66,160.331l-1-0.013c0.013-1.32,0.025-2.654,0.04-3.987h1
	C94.685,157.664,94.672,158.998,94.66,160.331z M93.672,148.33l1-0.013c0.013,1.347,0.027,2.68,0.027,4.013h-1
	C93.7,150.997,93.685,149.664,93.672,148.33z M93.54,140.343l1-0.027c0.026,1.333,0.054,2.667,0.081,4l-1,0.013
	C93.593,143.01,93.566,141.676,93.54,140.343z M93.287,132.355l1-0.04c0.039,1.333,0.093,2.667,0.133,4l-1,0.027
	C93.379,135.022,93.339,133.689,93.287,132.355z M92.914,124.369l1-0.053c0.066,1.333,0.133,2.667,0.199,4l-1,0.04
	C93.046,127.036,92.98,125.702,92.914,124.369z M92.433,116.381l1-0.066c0.08,1.333,0.174,2.667,0.252,4l-1,0.066
	C92.607,119.048,92.527,117.714,92.433,116.381z M91.833,108.42l1-0.093c0.107,1.333,0.213,2.667,0.307,4l-0.987,0.067
	C92.046,111.074,91.941,109.741,91.833,108.42z M91.125,100.446l1-0.093c0.121,1.333,0.241,2.667,0.36,3.987l-0.985,0.093
	C91.379,103.113,91.259,101.78,91.125,100.446z M90.313,92.499l0.987-0.106c0.146,1.333,0.293,2.653,0.427,3.987l-1,0.093
	C90.593,95.153,90.458,93.833,90.313,92.499z M89.379,84.566l0.987-0.121c0.173,1.32,0.333,2.64,0.48,3.974l-0.987,0.106
	C89.7,87.206,89.54,85.885,89.379,84.566z M88.338,76.631l0.987-0.133c0.188,1.32,0.359,2.654,0.534,3.974l-0.987,0.121
	C88.7,79.285,88.526,77.965,88.338,76.631z M87.193,68.725l0.987-0.147c0.199,1.32,0.399,2.64,0.586,3.96l-0.987,0.146
	C87.592,71.365,87.393,70.044,87.193,68.725z M85.94,60.831l0.986-0.16c0.213,1.32,0.426,2.626,0.639,3.947l-0.985,0.16
	C86.366,63.458,86.153,62.151,85.94,60.831z M84.58,52.95l0.985-0.174c0.227,1.32,0.468,2.627,0.694,3.948l-0.986,0.159
	C85.045,55.577,84.819,54.27,84.58,52.95z M83.112,45.096l0.987-0.187c0.252,1.307,0.493,2.614,0.747,3.934l-0.987,0.173
	C83.62,47.709,83.366,46.403,83.112,45.096z M81.539,37.256l0.987-0.2c0.266,1.307,0.534,2.614,0.8,3.92l-0.987,0.2
	C82.085,39.869,81.819,38.563,81.539,37.256z M79.872,29.441l0.975-0.213c0.293,1.307,0.573,2.6,0.853,3.907l-0.973,0.213
	C80.445,32.042,80.167,30.748,79.872,29.441z M78.098,21.642l0.975-0.228c0.306,1.308,0.599,2.601,0.906,3.907l-0.987,0.213
	C78.699,24.241,78.406,22.948,78.098,21.642z M76.218,13.867l0.974-0.24c0.32,1.307,0.641,2.601,0.96,3.894l-0.973,0.24
	C76.859,16.467,76.551,15.174,76.218,13.867z M71.645,10.027L73.192,0l6.201,8.04l-3.389,0.867l0.214,0.84L75.246,10l-0.214-0.84
	L71.645,10.027z"/>
</svg>
