<?xml version="1.0" encoding="utf-8"?>
<!-- Generator: Adobe Illustrator 16.2.0, SVG Export Plug-In . SVG Version: 6.00 Build 0)  -->
<!DOCTYPE svg PUBLIC "-//W3C//DTD SVG 1.1//EN" "http://www.w3.org/Graphics/SVG/1.1/DTD/svg11.dtd">
<svg version="1.1" id="Layer_1" xmlns="http://www.w3.org/2000/svg" xmlns:xlink="http://www.w3.org/1999/xlink" x="0px" y="0px"
	 width="256px" height="27.842px" viewBox="0 0 256 27.842" enable-background="new 0 0 256 27.842" xml:space="preserve">
<g>
	<rect fill-rule="evenodd" clip-rule="evenodd" width="256" height="27.842"/>
	<g>
		<g>
			<polygon fill="#FFFFFF" points="14.241,8.046 16.771,15.386 16.812,15.386 19.37,8.046 21.98,8.046 21.98,17.997 19.995,17.997 
				19.995,15.027 20.182,10.631 20.142,10.631 17.478,17.997 16.132,17.997 13.481,10.657 13.441,10.657 13.628,15.027 
				13.628,17.997 11.63,17.997 11.63,8.046 			"/>
			<path fill="#FFFFFF" d="M26.363,14.894l0.08,0.413h0.04l1.412-4.703h2.145l-2.998,8.499c-0.213,0.533-0.492,0.986-0.852,1.346
				c-0.36,0.36-0.906,0.546-1.625,0.546c-0.173,0-0.319-0.013-0.466-0.04c-0.146-0.027-0.319-0.066-0.519-0.12l0.226-1.453
				c0.066,0,0.12,0.014,0.2,0.027c0.066,0,0.12,0.013,0.173,0.013c0.333,0,0.586-0.08,0.76-0.253c0.186-0.16,0.32-0.359,0.413-0.6
				l0.24-0.573l-2.638-7.393h2.158L26.363,14.894z"/>
			<path fill="#FFFFFF" d="M37.447,16.612c0.347,0,0.639-0.106,0.853-0.319c0.213-0.2,0.32-0.479,0.32-0.826h1.812l0.013,0.041
				c0.027,0.759-0.253,1.385-0.839,1.878c-0.586,0.506-1.306,0.76-2.158,0.76c-1.106,0-1.958-0.347-2.558-1.04
				c-0.599-0.706-0.893-1.598-0.893-2.69v-0.213c0-1.079,0.293-1.985,0.893-2.678c0.586-0.706,1.438-1.066,2.544-1.066
				c0.905,0,1.651,0.266,2.211,0.786c0.56,0.52,0.826,1.199,0.799,2.051l-0.013,0.04H38.62c0-0.387-0.107-0.706-0.32-0.959
				s-0.493-0.374-0.866-0.374c-0.533,0-0.906,0.201-1.119,0.613c-0.213,0.414-0.32,0.946-0.32,1.586v0.2
				c0,0.666,0.107,1.199,0.32,1.598C36.527,16.399,36.901,16.612,37.447,16.612z"/>
			<path fill="#FFFFFF" d="M45.933,17.997c-0.08-0.159-0.133-0.346-0.187-0.533c-0.053-0.187-0.093-0.373-0.12-0.572
				c-0.2,0.36-0.479,0.666-0.813,0.893c-0.333,0.24-0.733,0.36-1.199,0.36c-0.773,0-1.373-0.201-1.786-0.6
				c-0.426-0.399-0.64-0.946-0.64-1.625c0-0.733,0.28-1.292,0.839-1.692c0.559-0.4,1.373-0.6,2.452-0.6H45.6v-0.586
				c0-0.36-0.093-0.625-0.28-0.826c-0.187-0.2-0.466-0.292-0.839-0.292c-0.32,0-0.573,0.079-0.746,0.239
				c-0.173,0.147-0.267,0.374-0.267,0.653l-1.918-0.014l-0.013-0.04c-0.026-0.626,0.24-1.159,0.813-1.612
				c0.573-0.466,1.332-0.693,2.265-0.693c0.893,0,1.612,0.227,2.158,0.679c0.546,0.454,0.826,1.093,0.826,1.918v3.064
				c0,0.346,0.027,0.666,0.08,0.972c0.053,0.307,0.133,0.613,0.253,0.905H45.933z M44.107,16.665c0.347,0,0.653-0.079,0.933-0.252
				c0.28-0.173,0.453-0.373,0.56-0.613v-1.039h-1.119c-0.427,0-0.746,0.106-0.959,0.32c-0.227,0.213-0.333,0.466-0.333,0.772
				c0,0.24,0.08,0.44,0.24,0.586C43.602,16.599,43.815,16.665,44.107,16.665z"/>
			<rect x="49.209" y="7.327" fill="#FFFFFF" width="1.999" height="10.67"/>
			<path fill="#FFFFFF" d="M56.124,18.145c-1.065,0-1.918-0.347-2.558-1.026c-0.626-0.68-0.946-1.559-0.946-2.611v-0.267
				c0-1.105,0.292-2.011,0.906-2.717c0.599-0.706,1.412-1.066,2.424-1.066c0.999,0,1.771,0.307,2.331,0.906
				c0.546,0.599,0.826,1.425,0.826,2.451v1.079h-4.423l-0.013,0.04c0.04,0.493,0.2,0.893,0.493,1.199
				c0.293,0.32,0.679,0.479,1.172,0.479c0.453,0,0.813-0.053,1.106-0.133c0.292-0.094,0.612-0.24,0.958-0.427l0.546,1.239
				c-0.306,0.24-0.707,0.454-1.186,0.613C57.27,18.064,56.723,18.145,56.124,18.145z M55.951,12.002
				c-0.374,0-0.667,0.147-0.879,0.427s-0.346,0.653-0.387,1.119l0.014,0.026h2.451v-0.173c0-0.426-0.093-0.773-0.293-1.026
				C56.656,12.123,56.35,12.002,55.951,12.002z"/>
			<path fill="#FFFFFF" d="M62.091,10.604l0.094,1.053c0.24-0.374,0.546-0.667,0.906-0.879c0.359-0.213,0.772-0.32,1.212-0.32
				c0.746,0,1.332,0.24,1.758,0.706c0.413,0.48,0.626,1.212,0.626,2.211v4.622h-2.012v-4.609c0-0.506-0.093-0.852-0.292-1.065
				c-0.2-0.2-0.506-0.307-0.906-0.307c-0.266,0-0.506,0.054-0.719,0.16c-0.213,0.106-0.387,0.266-0.52,0.453v5.368H60.24v-7.393
				H62.091z"/>
			<path fill="#FFFFFF" d="M67.874,14.361c0-1.173,0.253-2.105,0.746-2.825c0.506-0.719,1.226-1.079,2.131-1.079
				c0.374,0,0.707,0.08,0.999,0.24c0.307,0.159,0.56,0.399,0.787,0.692V7.327h1.998v10.67h-1.718l-0.16-0.892
				c-0.227,0.333-0.506,0.6-0.826,0.772c-0.319,0.173-0.679,0.267-1.092,0.267c-0.906,0-1.612-0.333-2.118-1
				c-0.493-0.666-0.746-1.545-0.746-2.638V14.361z M69.858,14.507c0,0.653,0.107,1.159,0.333,1.532
				c0.213,0.373,0.573,0.559,1.066,0.559c0.28,0,0.533-0.066,0.745-0.186c0.213-0.106,0.4-0.28,0.534-0.506V12.75
				c-0.133-0.227-0.307-0.414-0.52-0.534c-0.213-0.133-0.466-0.2-0.746-0.2c-0.493,0-0.853,0.213-1.065,0.652
				c-0.227,0.427-0.347,1-0.347,1.693V14.507z"/>
			<path fill="#FFFFFF" d="M80.422,17.997c-0.067-0.159-0.133-0.346-0.187-0.533c-0.054-0.187-0.08-0.373-0.107-0.572
				c-0.213,0.36-0.479,0.666-0.813,0.893c-0.333,0.24-0.732,0.36-1.199,0.36c-0.773,0-1.373-0.201-1.798-0.6
				c-0.413-0.399-0.626-0.946-0.626-1.625c0-0.733,0.28-1.292,0.84-1.692c0.559-0.4,1.372-0.6,2.451-0.6h1.106v-0.586
				c0-0.36-0.094-0.625-0.28-0.826c-0.187-0.2-0.454-0.292-0.826-0.292c-0.32,0-0.573,0.079-0.746,0.239
				c-0.173,0.147-0.267,0.374-0.267,0.653l-1.931-0.014v-0.04c-0.041-0.626,0.239-1.159,0.813-1.612
				c0.573-0.466,1.332-0.693,2.265-0.693c0.879,0,1.598,0.227,2.158,0.679c0.546,0.454,0.826,1.093,0.826,1.918v3.064
				c0,0.346,0.026,0.666,0.08,0.972c0.053,0.307,0.133,0.613,0.24,0.905H80.422z M78.597,16.665c0.36,0,0.666-0.079,0.946-0.252
				c0.267-0.173,0.453-0.373,0.546-0.613v-1.039h-1.106c-0.427,0-0.746,0.106-0.972,0.32c-0.213,0.213-0.32,0.466-0.32,0.772
				c0,0.24,0.08,0.44,0.24,0.586C78.091,16.599,78.317,16.665,78.597,16.665z"/>
			<path fill="#FFFFFF" d="M87.496,12.323l-0.719-0.027c-0.307,0-0.546,0.067-0.733,0.187c-0.2,0.12-0.346,0.293-0.439,0.519v4.996
				h-1.999v-7.393h1.852l0.093,1.093c0.173-0.386,0.4-0.693,0.68-0.906c0.267-0.213,0.586-0.333,0.946-0.333
				c0.106,0,0.2,0.013,0.279,0.027c0.08,0.013,0.173,0.04,0.253,0.066L87.496,12.323z"/>
		</g>
	</g>
</g>
</svg>
