<?xml version="1.0" encoding="utf-8"?>
<!-- Generator: Adobe Illustrator 16.2.0, SVG Export Plug-In . SVG Version: 6.00 Build 0)  -->
<!DOCTYPE svg PUBLIC "-//W3C//DTD SVG 1.1//EN" "http://www.w3.org/Graphics/SVG/1.1/DTD/svg11.dtd">
<svg version="1.1" id="Layer_1" xmlns="http://www.w3.org/2000/svg" xmlns:xlink="http://www.w3.org/1999/xlink" x="0px" y="0px"
	 width="256px" height="27.829px" viewBox="0 0 256 27.829" enable-background="new 0 0 256 27.829" xml:space="preserve">
<g>
	<rect fill-rule="evenodd" clip-rule="evenodd" width="256" height="27.829"/>
	<g>
		<path fill="#FFFFFF" d="M15.133,12.469l0.16,0.52h0.04l1.892-4.955h2.104l-3.396,8.073c-0.293,0.652-0.626,1.159-1.026,1.505
			c-0.386,0.359-0.946,0.533-1.678,0.533c-0.106,0-0.24,0-0.386-0.014c-0.147,0-0.253-0.013-0.333-0.026l-0.014-1.533
			c0.053,0.014,0.147,0.027,0.267,0.027s0.213,0,0.28,0c0.359,0,0.639-0.081,0.813-0.24c0.187-0.146,0.333-0.4,0.453-0.719
			l0.146-0.373L10.95,8.033h2.146L15.133,12.469z"/>
		<path fill="#FFFFFF" d="M20.408,17.998v-7.393H23.5c0.985,0,1.758,0.173,2.305,0.519c0.559,0.346,0.826,0.853,0.826,1.545
			c0,0.346-0.106,0.652-0.347,0.919c-0.226,0.266-0.559,0.479-0.972,0.613c0.559,0.107,0.986,0.319,1.266,0.626
			c0.293,0.293,0.439,0.652,0.439,1.053c0,0.706-0.266,1.225-0.786,1.584c-0.52,0.36-1.265,0.533-2.251,0.533H20.408z M22.407,14.92
			v1.558h1.572c0.359,0,0.612-0.066,0.786-0.199c0.173-0.12,0.253-0.32,0.253-0.573s-0.08-0.453-0.239-0.586
			c-0.16-0.133-0.427-0.2-0.799-0.2H22.407z M22.407,13.615h1.159c0.359,0,0.639-0.053,0.812-0.173
			c0.174-0.121,0.267-0.307,0.267-0.534c0-0.279-0.093-0.466-0.28-0.599c-0.187-0.12-0.479-0.187-0.866-0.187h-1.093V13.615z"/>
		<path fill="#FFFFFF" d="M31.492,18.144c-1.066,0-1.918-0.347-2.558-1.026c-0.639-0.679-0.959-1.559-0.959-2.611v-0.267
			c0-1.106,0.307-2.011,0.906-2.718c0.613-0.72,1.425-1.065,2.438-1.065c0.999,0,1.771,0.306,2.318,0.906
			c0.56,0.599,0.839,1.413,0.839,2.438v1.093h-4.422l-0.014,0.041c0.04,0.492,0.2,0.892,0.493,1.198
			c0.28,0.32,0.68,0.467,1.172,0.467c0.439,0,0.813-0.041,1.106-0.134c0.293-0.08,0.612-0.227,0.959-0.413l0.533,1.226
			c-0.293,0.253-0.692,0.453-1.186,0.625C32.638,18.064,32.091,18.144,31.492,18.144z M31.319,12.003
			c-0.373,0-0.667,0.133-0.879,0.426c-0.213,0.279-0.347,0.653-0.4,1.105l0.026,0.04h2.452v-0.173c0-0.426-0.106-0.772-0.306-1.026
			C32.025,12.123,31.719,12.003,31.319,12.003z"/>
		<path fill="#FFFFFF" d="M35.742,16.452c0.453-0.479,0.759-0.933,0.919-1.398c0.16-0.453,0.24-1.106,0.266-1.958l0.041-2.491h5.448
			v5.861h1.066l-0.134,3.744h-1.852v-2.211h-4.369v2.211h-1.866l-0.173-3.757H35.742z M38.912,13.095
			c-0.026,0.733-0.12,1.372-0.267,1.932c-0.159,0.546-0.359,1.026-0.626,1.425h2.412v-4.263h-1.492L38.912,13.095z"/>
		<path fill="#FFFFFF" d="M44.188,14.228c0-1.106,0.306-2.011,0.919-2.705c0.613-0.706,1.466-1.065,2.558-1.065
			c1.093,0,1.958,0.359,2.571,1.052c0.626,0.707,0.933,1.612,0.933,2.718v0.146c0,1.105-0.307,2.025-0.92,2.717
			c-0.626,0.706-1.479,1.053-2.571,1.053c-1.093,0-1.945-0.347-2.571-1.053c-0.613-0.692-0.919-1.612-0.919-2.717V14.228z
			 M46.173,14.374c0,0.666,0.12,1.212,0.359,1.612c0.24,0.413,0.626,0.613,1.146,0.613c0.52,0,0.893-0.2,1.133-0.613
			c0.239-0.413,0.359-0.946,0.359-1.612v-0.146c0-0.653-0.12-1.186-0.359-1.612c-0.24-0.413-0.626-0.613-1.146-0.613
			c-0.506,0-0.892,0.2-1.132,0.626c-0.24,0.413-0.359,0.945-0.359,1.599V14.374z"/>
		<polygon fill="#FFFFFF" points="56.87,15.679 56.923,15.679 58.828,10.604 61.319,10.604 61.319,17.998 59.334,17.998 
			59.334,13.574 59.294,13.574 57.575,17.998 56.23,17.998 54.552,13.668 54.512,13.681 54.512,17.998 52.513,17.998 52.513,10.604 
			54.991,10.604 		"/>
		<path fill="#FFFFFF" d="M69.458,10.604v7.393h-1.985v-5.862h-1.785v1.612c0,1.465-0.213,2.531-0.666,3.224
			c-0.439,0.679-1.212,1.026-2.292,1.026h-0.319l-0.027-1.572l0.213-0.013c0.466,0,0.759-0.187,0.893-0.56
			c0.133-0.373,0.2-1.065,0.2-2.104v-3.144H69.458z"/>
		<path fill="#FFFFFF" d="M74.188,18.144c-1.065,0-1.918-0.347-2.558-1.026c-0.639-0.679-0.959-1.559-0.959-2.611v-0.267
			c0-1.106,0.307-2.011,0.906-2.718c0.613-0.72,1.412-1.065,2.438-1.065c0.999,0,1.772,0.306,2.317,0.906
			c0.56,0.599,0.84,1.413,0.84,2.438v1.093h-4.423l-0.013,0.041c0.04,0.492,0.2,0.892,0.492,1.198c0.28,0.32,0.68,0.467,1.173,0.467
			c0.44,0,0.813-0.041,1.106-0.134c0.292-0.08,0.613-0.227,0.958-0.413l0.533,1.226c-0.292,0.253-0.692,0.453-1.185,0.625
			C75.333,18.064,74.787,18.144,74.188,18.144z M74.015,12.003c-0.374,0-0.666,0.133-0.879,0.426
			c-0.213,0.279-0.346,0.653-0.399,1.105l0.026,0.04h2.451v-0.173c0-0.426-0.106-0.772-0.306-1.026
			C74.708,12.123,74.414,12.003,74.015,12.003z"/>
		<polygon fill="#FFFFFF" points="84.725,17.998 82.727,17.998 82.727,15.133 80.289,15.133 80.289,17.998 78.291,17.998 
			78.291,10.604 80.289,10.604 80.289,13.588 82.727,13.588 82.727,10.604 84.725,10.604 		"/>
		<polygon fill="#FFFFFF" points="90.653,10.604 92.651,10.604 92.651,17.998 90.653,17.998 90.653,13.481 90.613,13.481 
			88.202,17.998 86.204,17.998 86.204,10.604 88.202,10.604 88.202,15.093 88.242,15.107 		"/>
		<path fill="#FFFFFF" d="M100.378,10.604v7.393h-1.972v-2.598h-1.212l-1.452,2.598H93.73l1.639-2.917
			c-0.453-0.2-0.799-0.479-1.052-0.826c-0.24-0.36-0.36-0.759-0.36-1.199c0-0.719,0.28-1.305,0.853-1.771
			c0.573-0.453,1.346-0.679,2.318-0.679H100.378z M95.955,13.109c0,0.253,0.094,0.479,0.293,0.666c0.2,0.186,0.479,0.28,0.839,0.28
			h1.319v-1.932h-1.279c-0.373,0-0.666,0.107-0.866,0.307C96.048,12.629,95.955,12.855,95.955,13.109z"/>
		<polygon fill="#FFFFFF" points="109.956,10.604 111.954,10.604 111.954,17.998 109.956,17.998 109.956,13.481 109.916,13.481 
			107.505,17.998 105.507,17.998 105.507,10.604 107.505,10.604 107.505,15.093 107.545,15.107 		"/>
		<path fill="#FFFFFF" d="M123.291,17.998h-1.998v-2.345c-0.16,0.04-0.333,0.067-0.519,0.08c-0.174,0.013-0.333,0.026-0.493,0.026
			c-1.093,0-1.932-0.24-2.518-0.706c-0.586-0.466-0.892-1.172-0.892-2.132v-2.317h1.998v2.317c0,0.493,0.106,0.826,0.333,1.013
			c0.213,0.186,0.573,0.28,1.079,0.28c0.173,0,0.333-0.014,0.506-0.027c0.16-0.013,0.333-0.04,0.506-0.079v-3.503h1.998V17.998z"/>
		<path fill="#FFFFFF" d="M129.126,17.998c-0.067-0.173-0.133-0.347-0.187-0.533c-0.054-0.186-0.094-0.373-0.107-0.573
			c-0.213,0.36-0.479,0.653-0.813,0.893c-0.333,0.24-0.733,0.36-1.199,0.36c-0.786,0-1.373-0.2-1.798-0.599
			c-0.413-0.4-0.626-0.946-0.626-1.639c0-0.719,0.28-1.279,0.839-1.678c0.56-0.399,1.373-0.6,2.438-0.6h1.12v-0.586
			c0-0.359-0.094-0.639-0.28-0.825c-0.186-0.2-0.466-0.293-0.826-0.293c-0.32,0-0.573,0.08-0.746,0.227
			c-0.187,0.16-0.267,0.373-0.267,0.652h-1.931v-0.04c-0.041-0.626,0.226-1.172,0.813-1.625c0.573-0.453,1.319-0.679,2.265-0.679
			c0.879,0,1.598,0.226,2.145,0.679c0.56,0.453,0.826,1.093,0.826,1.918v3.051c0,0.346,0.027,0.679,0.08,0.985
			c0.053,0.307,0.146,0.613,0.253,0.906H129.126z M127.301,16.666c0.346,0,0.666-0.094,0.932-0.267c0.28-0.173,0.466-0.373,0.56-0.6
			V14.76h-1.12c-0.426,0-0.746,0.106-0.958,0.32c-0.227,0.2-0.333,0.467-0.333,0.759c0,0.253,0.08,0.453,0.253,0.6
			C126.795,16.585,127.021,16.666,127.301,16.666z"/>
		<polygon fill="#FFFFFF" points="138.571,12.123 136.213,12.123 136.213,17.998 134.202,17.998 134.202,12.123 131.87,12.123 
			131.87,10.604 138.571,10.604 		"/>
	</g>
</g>
</svg>
