<?xml version="1.0" encoding="utf-8"?>
<!-- Generator: Adobe Illustrator 16.2.0, SVG Export Plug-In . SVG Version: 6.00 Build 0)  -->
<!DOCTYPE svg PUBLIC "-//W3C//DTD SVG 1.1//EN" "http://www.w3.org/Graphics/SVG/1.1/DTD/svg11.dtd">
<svg version="1.1" id="Layer_1" xmlns="http://www.w3.org/2000/svg" xmlns:xlink="http://www.w3.org/1999/xlink" x="0px" y="0px"
	 width="255.7px" height="127.943px" viewBox="0 0 255.7 127.943" enable-background="new 0 0 255.7 127.943" xml:space="preserve">
<path fill-rule="evenodd" clip-rule="evenodd" fill="#CCCCCC" d="M0,127.943v-20.295h26.709v20.295H0z M38.163,127.943v-20.295
	h26.708v20.295H38.163z M76.326,127.943v-20.295h26.708v20.295H76.326z M114.502,127.943v-20.295h26.696v20.295H114.502z
	 M152.665,127.943v-20.295h26.696v20.295H152.665z M190.828,127.943v-20.295h26.695v20.295H190.828z M228.991,127.943v-20.295H255.7
	v20.295H228.991z M0,101.035V80.74h26.709v20.295H0z M38.163,101.035V80.74h26.708v20.295H38.163z M76.326,101.035V80.74h26.708
	v20.295H76.326z M114.502,101.035V80.74h26.696v20.295H114.502z M152.665,101.035V80.74h26.696v20.295H152.665z M190.828,101.035
	V80.74h26.695v20.295H190.828z M228.991,101.035V80.74H255.7v20.295H228.991z M0,74.112V53.817h26.709v20.295H0z M38.163,74.112
	V53.817h26.708v20.295H38.163z M76.326,74.112V53.817h26.708v20.295H76.326z M114.502,74.112V53.817h26.696v20.295H114.502z
	 M152.852,74.112V53.817h26.709v20.295H152.852z M190.828,74.112V53.817h26.695v20.295H190.828z M228.991,74.112V53.817H255.7
	v20.295H228.991z M0,47.204V26.909h26.709v20.295H0z M38.163,47.204V26.909h26.708v20.295H38.163z M76.326,47.204V26.909h26.708
	v20.295H76.326z M114.502,47.204V26.909h26.696v20.295H114.502z M152.665,47.204V26.909h26.696v20.295H152.665z M190.828,47.204
	V26.909h26.695v20.295H190.828z M228.991,47.204V26.909H255.7v20.295H228.991z M0,20.281V0h26.709v20.281H0z M38.163,20.281V0
	h26.708v20.281H38.163z M76.326,20.281V0h26.708v20.281H76.326z M114.502,20.281V0h26.696v20.281H114.502z M152.665,20.281V0h26.696
	v20.281H152.665z M190.828,20.281V0h26.695v20.281H190.828z M228.991,20.281V0H255.7v20.281H228.991z"/>
</svg>
