<?xml version="1.0" encoding="utf-8"?>
<!-- Generator: Adobe Illustrator 16.2.0, SVG Export Plug-In . SVG Version: 6.00 Build 0)  -->
<!DOCTYPE svg PUBLIC "-//W3C//DTD SVG 1.1//EN" "http://www.w3.org/Graphics/SVG/1.1/DTD/svg11.dtd">
<svg version="1.1" id="Layer_1" xmlns="http://www.w3.org/2000/svg" xmlns:xlink="http://www.w3.org/1999/xlink" x="0px" y="0px"
	 width="28.6px" height="130.91px" viewBox="0 0 28.6 130.91" enable-background="new 0 0 28.6 130.91" xml:space="preserve">
<path fill-rule="evenodd" clip-rule="evenodd" fill="#808080" d="M0,126.89l1.002,0.014c0,1.336,0,2.672,0,3.994l-0.988,0.013
	C0,129.575,0,128.239,0,126.89z M1.029,122.896l-1.002-0.013c0.026-1.336,0.054-2.672,0.08-4.008l1.002,0.013
	C1.083,120.238,1.056,121.574,1.029,122.896z M1.229,114.895l-1.002-0.04c0.041-1.323,0.094-2.658,0.161-4.008l1.001,0.055
	C1.323,112.237,1.27,113.56,1.229,114.895z M1.59,106.895l-1.002-0.055c0.066-1.336,0.161-2.659,0.24-4.008l1.002,0.068
	C1.737,104.235,1.657,105.571,1.59,106.895z M2.111,98.905l-0.988-0.067c0.093-1.336,0.213-2.672,0.334-4.008l0.988,0.094
	C2.325,96.26,2.218,97.583,2.111,98.905z M2.819,90.942l-0.989-0.106c0.133-1.321,0.267-2.657,0.414-3.993l1.002,0.12
	C3.1,88.285,2.952,89.606,2.819,90.942z M3.714,82.982l-1.001-0.12c0.173-1.322,0.334-2.658,0.521-3.981l0.989,0.133
	C4.048,80.337,3.875,81.66,3.714,82.982z M4.782,75.062l-0.988-0.148c0.2-1.336,0.4-2.657,0.614-3.966l0.988,0.159
	C5.184,72.416,4.983,73.738,4.782,75.062z M6.065,67.153l-0.988-0.175c0.241-1.31,0.48-2.631,0.721-3.94l0.988,0.187
	C6.533,64.534,6.292,65.844,6.065,67.153z M7.561,59.297l-0.975-0.2c0.268-1.309,0.548-2.618,0.829-3.927l0.975,0.214
	C8.109,56.679,7.829,57.988,7.561,59.297z M9.284,51.483l-0.975-0.227c0.307-1.309,0.628-2.604,0.962-3.9l0.961,0.241
	C9.912,48.892,9.592,50.188,9.284,51.483z M11.261,43.735l-0.975-0.268c0.361-1.295,0.722-2.578,1.096-3.86l0.961,0.28
	C11.969,41.157,11.609,42.44,11.261,43.735z M13.505,36.054l-0.961-0.293c0.401-1.283,0.814-2.552,1.243-3.821l0.948,0.321
	C14.307,33.516,13.893,34.785,13.505,36.054z M16.03,28.48l-0.934-0.333c0.454-1.27,0.921-2.525,1.388-3.781l0.936,0.361
	C16.953,25.969,16.484,27.225,16.03,28.48z M18.889,21.013l-0.922-0.375c0.508-1.242,1.029-2.484,1.577-3.7l0.908,0.401
	C19.917,18.555,19.397,19.771,18.889,21.013z M22.109,13.706L21.2,13.279c0.575-1.229,1.162-2.432,1.764-3.62l0.896,0.454
	C23.257,11.288,22.683,12.49,22.109,13.706z M27.787,10.139l-7.094-3.741L28.6,0L27.787,10.139z"/>
</svg>
