<?xml version="1.0" encoding="utf-8"?>
<!-- Generator: Adobe Illustrator 16.2.0, SVG Export Plug-In . SVG Version: 6.00 Build 0)  -->
<!DOCTYPE svg PUBLIC "-//W3C//DTD SVG 1.1//EN" "http://www.w3.org/Graphics/SVG/1.1/DTD/svg11.dtd">
<svg version="1.1" id="Layer_1" xmlns="http://www.w3.org/2000/svg" xmlns:xlink="http://www.w3.org/1999/xlink" x="0px" y="0px"
	 width="960px" height="33.12px" viewBox="0 0 960 33.12" enable-background="new 0 0 960 33.12" xml:space="preserve">
<g>
	<path fill-rule="evenodd" clip-rule="evenodd" d="M0,33.12V0h106.08v33.12H0z M107.08,33.12V0h144.733v33.12H107.08z
		 M252.813,33.12V0h134.493v33.12H252.813z M388.307,33.12V0h124.48v33.12H388.307z M513.787,33.12V0h124.479v33.12H513.787z
		 M639.266,33.12V0H960v33.12H639.266z"/>
	<g>
		<g>
			<path fill-rule="evenodd" clip-rule="evenodd" fill="#FFFFFF" d="M35.626,26.546V22.36h-8.32V12.133H43.96V22.36l0,0v4.187
				H35.626z M27.253,8.707v-3H43.96v3H27.253z"/>
		</g>
		<g>
			<polygon fill-rule="evenodd" clip-rule="evenodd" fill="#DD0000" points="43.907,26.546 43.907,22.36 43.907,22.36 
				43.907,12.133 56.173,12.133 50.987,8.707 43.907,8.707 43.907,5.707 52.227,5.707 77.333,22.36 52.24,22.36 52.24,26.546 			"/>
		</g>
	</g>
	<path fill-rule="evenodd" clip-rule="evenodd" fill="#DD0000" d="M919.266,8.093c4.787-4.773,12.534-4.773,17.32,0
		c4.773,4.786,4.773,12.534,0,17.32c-4.787,4.773-12.533,4.773-17.32,0C914.493,20.627,914.493,12.879,919.266,8.093z"/>
	<path fill-rule="evenodd" clip-rule="evenodd" fill="#FFFFFF" d="M924.439,24.72l-0.146-1.88c-0.28,0.64-1.12,1.146-1.667,0.707
		l-2.573-2.56c-0.467-0.546-0.374-1.373,0-2.053l2.64-4.08c0.533-0.613,1.239-1.08,2.387-1.08h0.453l1.827,4.32l-0.667,1.827
		c-0.054,0.133,0.013,0.28,0.146,0.32l1.213,0.439c0.12,0.053,0.266-0.013,0.32-0.146l0.733-2c0.053-0.133-0.013-0.28-0.146-0.32
		l-0.453-0.173l1.8-4.266h0.453c1.146,0,1.854,0.467,2.399,1.08l2.627,4.08c0.373,0.68,0.467,1.507,0,2.053l-2.56,2.56
		c-0.547,0.44-1.4-0.066-1.667-0.707l-0.146,1.88H924.439z M924.227,21.973l-0.36-4.586l-1.747,2.453l2.093,2.107
		C924.213,21.96,924.213,21.96,924.227,21.973z M931.626,21.947l2.107-2.107l-1.76-2.453l-0.347,4.586
		C931.626,21.96,931.626,21.96,931.626,21.947z M927.92,17.747l-1.667-3.973h3.347L927.92,17.747z M925.04,10.44
		c0-1.6,1.293-2.894,2.88-2.894c1.6,0,2.893,1.293,2.893,2.894c0,1.6-1.293,2.894-2.893,2.894
		C926.333,13.333,925.04,12.04,925.04,10.44z"/>
	<g>
		<path fill="#FFFFFF" d="M159.333,24.4c-0.146-0.027-0.32-0.066-0.533-0.12l0.24-1.506c0.053,0.013,0.12,0.027,0.2,0.027
			c0.067,0.013,0.133,0.013,0.187,0.013c0.333,0,0.6-0.08,0.787-0.253c0.187-0.16,0.32-0.373,0.427-0.613l0.24-0.601l-2.72-7.653
			h2.213l1.307,4.44l0.08,0.427h0.04l1.467-4.867h2.227l-3.107,8.799c-0.227,0.547-0.52,1.014-0.893,1.387
			c-0.374,0.374-0.933,0.561-1.667,0.561C159.64,24.44,159.48,24.426,159.333,24.4z M579.414,24.28v-10.6h1.866l0.12,0.907
			c0.227-0.333,0.493-0.586,0.813-0.773c0.32-0.186,0.693-0.28,1.121-0.28c0.946,0,1.68,0.374,2.2,1.12
			c0.52,0.734,0.787,1.707,0.787,2.921v0.146c0,1.133-0.267,2.053-0.787,2.733c-0.52,0.693-1.253,1.04-2.187,1.04
			c-0.413,0-0.76-0.079-1.08-0.227c-0.307-0.146-0.573-0.373-0.799-0.653v3.667H579.414z M170.96,20.307
			c-0.773-0.8-1.16-1.827-1.16-3.08v-2.04c0-1.254,0.373-2.28,1.133-3.08c0.747-0.813,1.733-1.214,2.933-1.214
			c1.28,0,2.28,0.333,2.987,0.986c0.72,0.654,1.08,1.547,1.053,2.667l-0.013,0.04h-2.013c0-0.68-0.16-1.2-0.48-1.56
			c-0.333-0.36-0.84-0.534-1.533-0.534c-0.613,0-1.107,0.254-1.467,0.748c-0.36,0.506-0.547,1.146-0.547,1.919v2.067
			c0,0.787,0.187,1.426,0.573,1.933c0.387,0.493,0.907,0.747,1.547,0.747c0.653,0,1.133-0.174,1.44-0.52
			c0.307-0.347,0.467-0.867,0.467-1.547h2l0.013,0.04c0.013,1.107-0.32,2-1.013,2.641c-0.693,0.653-1.667,0.986-2.907,0.986
			C172.733,21.506,171.733,21.107,170.96,20.307z M187.68,20.44c-0.653-0.707-0.986-1.614-0.986-2.693v-0.293
			c0-1.133,0.307-2.066,0.933-2.8c0.627-0.746,1.467-1.106,2.52-1.106c1.04,0,1.84,0.32,2.414,0.934
			c0.56,0.627,0.854,1.467,0.854,2.533v1.12h-4.574l-0.014,0.054c0.041,0.493,0.201,0.906,0.507,1.239
			c0.293,0.32,0.706,0.48,1.213,0.48c0.467,0,0.84-0.04,1.147-0.133c0.307-0.094,0.626-0.24,0.986-0.44l0.56,1.28
			c-0.307,0.253-0.72,0.467-1.227,0.64c-0.507,0.16-1.066,0.253-1.68,0.253C189.227,21.506,188.346,21.146,187.68,20.44z
			 M203.76,20.907c-0.373-0.387-0.573-1-0.573-1.854v-3.907h-1.12v-1.453h1.12v-1.88h2.067v1.88h1.293v1.453h-1.293v3.893
			c0,0.307,0.066,0.521,0.187,0.64c0.12,0.133,0.293,0.2,0.493,0.2c0.107,0,0.2-0.013,0.28-0.026c0.08-0.014,0.174-0.027,0.28-0.053
			l0.174,1.493c-0.214,0.066-0.413,0.12-0.613,0.16c-0.2,0.027-0.413,0.053-0.64,0.053C204.707,21.506,204.146,21.307,203.76,20.907
			z M208.373,20.72c-0.6-0.507-0.88-1.093-0.854-1.76l0.014-0.041h1.893c0.014,0.414,0.146,0.707,0.4,0.893
			c0.254,0.187,0.587,0.267,1,0.267c0.387,0,0.68-0.067,0.88-0.227c0.2-0.147,0.293-0.347,0.293-0.613
			c0-0.227-0.107-0.414-0.32-0.587c-0.227-0.16-0.626-0.307-1.227-0.44c-0.907-0.186-1.586-0.453-2.053-0.813
			c-0.453-0.36-0.693-0.854-0.693-1.48c0-0.654,0.28-1.213,0.84-1.68c0.547-0.454,1.293-0.694,2.227-0.694
			c0.973,0,1.746,0.24,2.333,0.694c0.573,0.453,0.853,1.04,0.826,1.733l-0.013,0.04h-2c0-0.307-0.094-0.56-0.293-0.747
			c-0.186-0.2-0.48-0.293-0.853-0.293c-0.333,0-0.6,0.08-0.787,0.24c-0.2,0.174-0.293,0.374-0.293,0.613
			c0,0.24,0.107,0.44,0.307,0.587c0.2,0.146,0.6,0.28,1.213,0.399c0.947,0.187,1.654,0.467,2.107,0.84
			c0.454,0.36,0.68,0.867,0.68,1.507c0,0.694-0.293,1.254-0.88,1.68c-0.587,0.44-1.373,0.667-2.333,0.667
			C209.76,21.506,208.96,21.24,208.373,20.72z M291.307,20.293c-0.773-0.801-1.16-1.827-1.16-3.081v-2.04
			c0-1.253,0.373-2.28,1.12-3.08c0.76-0.813,1.747-1.214,2.946-1.214c1.28,0,2.28,0.333,2.987,0.987
			c0.72,0.653,1.066,1.547,1.053,2.667l-0.014,0.041h-2.013c0-0.667-0.16-1.187-0.493-1.561c-0.32-0.36-0.827-0.533-1.521-0.533
			c-0.613,0-1.106,0.253-1.466,0.747c-0.36,0.506-0.547,1.146-0.547,1.92v2.066c0,0.787,0.187,1.427,0.573,1.934
			c0.386,0.494,0.894,0.747,1.546,0.747c0.654,0,1.133-0.173,1.44-0.52c0.307-0.346,0.467-0.853,0.467-1.547h2l0.013,0.041
			c0.014,1.12-0.32,2-1.013,2.64c-0.693,0.653-1.667,0.986-2.907,0.986C293.08,21.493,292.08,21.093,291.307,20.293z
			 M299.787,20.867c-0.426-0.414-0.653-0.974-0.653-1.68c0-0.761,0.293-1.333,0.866-1.747c0.587-0.413,1.427-0.627,2.533-0.627h1.16
			v-0.6c0-0.373-0.106-0.653-0.293-0.867c-0.187-0.2-0.48-0.293-0.854-0.293c-0.333,0-0.6,0.08-0.773,0.24
			c-0.187,0.16-0.28,0.386-0.28,0.68l-2-0.013V15.92c-0.04-0.654,0.24-1.213,0.84-1.68c0.6-0.467,1.373-0.707,2.346-0.707
			c0.92,0,1.654,0.24,2.227,0.707c0.574,0.466,0.854,1.12,0.854,1.986v3.16c0,0.36,0.027,0.693,0.08,1.013
			c0.054,0.32,0.146,0.627,0.267,0.946h-2.067c-0.08-0.187-0.146-0.36-0.2-0.56c-0.053-0.187-0.093-0.387-0.12-0.587
			c-0.213,0.36-0.48,0.68-0.827,0.92c-0.347,0.253-0.773,0.373-1.253,0.373C300.84,21.493,300.227,21.28,299.787,20.867z
			 M311.947,20.426c-0.667-0.706-0.987-1.6-0.987-2.693v-0.28c0-1.146,0.307-2.08,0.934-2.813c0.626-0.733,1.467-1.107,2.52-1.107
			c1.027,0,1.826,0.32,2.4,0.947c0.573,0.613,0.854,1.453,0.854,2.52v1.133h-4.574l-0.013,0.04c0.04,0.493,0.213,0.907,0.507,1.24
			c0.307,0.319,0.706,0.479,1.227,0.479c0.453,0,0.84-0.04,1.133-0.133c0.307-0.093,0.64-0.24,1-0.44l0.56,1.28
			c-0.32,0.254-0.72,0.467-1.227,0.641c-0.507,0.16-1.067,0.252-1.693,0.252C313.493,21.493,312.6,21.133,311.947,20.426z
			 M327.52,20.453c-0.52-0.68-0.772-1.6-0.772-2.733v-0.146c0-1.214,0.253-2.187,0.772-2.921c0.521-0.746,1.253-1.12,2.214-1.12
			c0.373,0,0.72,0.094,1.026,0.253c0.307,0.16,0.574,0.4,0.813,0.706v-4.199h2.067v11.053h-1.773l-0.173-0.946
			c-0.24,0.36-0.52,0.627-0.854,0.813c-0.32,0.187-0.706,0.28-1.12,0.28C328.773,21.493,328.04,21.146,327.52,20.453z
			 M335.493,20.867c-0.439-0.414-0.653-0.974-0.653-1.68c0-0.761,0.294-1.333,0.867-1.747c0.574-0.413,1.427-0.627,2.533-0.627
			h1.147v-0.6c0-0.373-0.094-0.653-0.28-0.867c-0.2-0.2-0.48-0.293-0.867-0.293c-0.333,0-0.586,0.08-0.773,0.24
			c-0.187,0.16-0.267,0.386-0.267,0.68l-2-0.013l-0.014-0.041c-0.027-0.654,0.253-1.213,0.854-1.68
			c0.586-0.467,1.374-0.707,2.333-0.707c0.92,0,1.667,0.24,2.24,0.707c0.56,0.466,0.854,1.12,0.854,1.986v3.16
			c0,0.36,0.026,0.693,0.08,1.013c0.053,0.32,0.133,0.627,0.254,0.946h-2.067c-0.066-0.187-0.134-0.36-0.187-0.56
			c-0.053-0.187-0.093-0.387-0.12-0.587c-0.214,0.36-0.494,0.68-0.84,0.92c-0.347,0.253-0.761,0.373-1.24,0.373
			C336.546,21.493,335.92,21.28,335.493,20.867z M436.04,20.426c-0.653-0.706-0.986-1.6-0.986-2.693v-0.28
			c0-1.146,0.307-2.08,0.933-2.813c0.627-0.733,1.467-1.107,2.52-1.107c1.027,0,1.84,0.32,2.4,0.947
			c0.574,0.613,0.867,1.453,0.867,2.52v1.133H437.2l-0.014,0.04c0.027,0.493,0.201,0.907,0.507,1.24
			c0.293,0.319,0.707,0.479,1.213,0.479c0.454,0,0.84-0.04,1.147-0.133c0.293-0.093,0.626-0.24,0.986-0.44l0.56,1.28
			c-0.307,0.254-0.72,0.467-1.227,0.641c-0.506,0.16-1.066,0.252-1.68,0.252C437.586,21.493,436.707,21.133,436.04,20.426z
			 M448.626,20.4c-0.626-0.72-0.933-1.64-0.933-2.773v-0.213c0-1.134,0.307-2.054,0.92-2.787c0.613-0.72,1.493-1.094,2.64-1.094
			c0.946,0,1.706,0.28,2.28,0.813c0.586,0.533,0.867,1.24,0.84,2.121l-0.013,0.04h-1.88c0-0.387-0.107-0.72-0.32-0.986
			c-0.227-0.254-0.52-0.387-0.906-0.387c-0.547,0-0.934,0.213-1.16,0.64c-0.227,0.414-0.333,0.959-0.333,1.64v0.213
			c0,0.68,0.107,1.227,0.333,1.639c0.227,0.427,0.613,0.627,1.173,0.627c0.36,0,0.654-0.106,0.88-0.319
			c0.227-0.214,0.333-0.494,0.333-0.854h1.88l0.013,0.04c0.027,0.773-0.267,1.427-0.867,1.947c-0.6,0.52-1.347,0.786-2.24,0.786
			C450.12,21.493,449.24,21.133,448.626,20.4z M459.933,20.72c-0.6-0.521-0.88-1.107-0.853-1.773l0.013-0.04h1.893
			c0.014,0.413,0.147,0.707,0.4,0.894c0.266,0.186,0.586,0.28,1,0.28c0.386,0,0.68-0.08,0.879-0.227
			c0.201-0.16,0.294-0.361,0.294-0.627c0-0.227-0.107-0.414-0.32-0.586c-0.227-0.16-0.626-0.307-1.227-0.44
			c-0.907-0.173-1.587-0.453-2.054-0.813c-0.453-0.36-0.68-0.854-0.68-1.48c0-0.653,0.267-1.213,0.826-1.68
			c0.561-0.453,1.294-0.693,2.228-0.693c0.973,0,1.76,0.24,2.333,0.693s0.853,1.04,0.826,1.734L465.48,16h-1.987
			c0-0.307-0.106-0.56-0.293-0.747c-0.2-0.2-0.493-0.293-0.866-0.293c-0.333,0-0.601,0.079-0.787,0.252
			c-0.187,0.16-0.293,0.361-0.293,0.6c0,0.24,0.106,0.44,0.307,0.587c0.2,0.146,0.6,0.28,1.227,0.4
			c0.934,0.186,1.64,0.466,2.093,0.84c0.467,0.36,0.693,0.866,0.693,1.506c0,0.693-0.293,1.253-0.893,1.693
			c-0.586,0.426-1.36,0.653-2.333,0.653C461.333,21.493,460.52,21.227,459.933,20.72z M467.64,20.426
			c-0.654-0.706-0.987-1.6-0.987-2.693v-0.28c0-1.146,0.307-2.08,0.934-2.813c0.626-0.733,1.467-1.107,2.52-1.107
			c1.041,0,1.841,0.32,2.414,0.947c0.561,0.613,0.854,1.453,0.854,2.52v1.133H468.8l-0.014,0.04c0.04,0.493,0.2,0.907,0.506,1.24
			c0.293,0.319,0.707,0.479,1.213,0.479c0.467,0,0.84-0.04,1.146-0.133c0.307-0.093,0.627-0.24,0.987-0.44l0.56,1.28
			c-0.307,0.254-0.72,0.467-1.227,0.641c-0.506,0.16-1.067,0.252-1.68,0.252C469.186,21.493,468.307,21.133,467.64,20.426z
			 M475.08,20.72c-0.587-0.521-0.88-1.107-0.84-1.773l0.014-0.04h1.88c0.013,0.413,0.16,0.707,0.413,0.894
			c0.254,0.186,0.587,0.28,1,0.28c0.374,0,0.667-0.08,0.867-0.227c0.2-0.16,0.307-0.361,0.307-0.627
			c0-0.227-0.121-0.414-0.333-0.586c-0.227-0.16-0.627-0.307-1.227-0.44c-0.906-0.173-1.587-0.453-2.04-0.813
			c-0.467-0.36-0.693-0.854-0.693-1.48c0-0.653,0.28-1.213,0.827-1.68c0.56-0.453,1.307-0.693,2.227-0.693
			c0.987,0,1.76,0.24,2.333,0.693c0.587,0.453,0.854,1.04,0.84,1.734L480.64,16h-2c0-0.307-0.107-0.56-0.294-0.747
			c-0.2-0.2-0.479-0.293-0.866-0.293c-0.333,0-0.601,0.079-0.787,0.252c-0.187,0.16-0.28,0.361-0.28,0.6
			c0,0.24,0.093,0.44,0.293,0.587c0.2,0.146,0.613,0.28,1.227,0.4c0.934,0.186,1.64,0.466,2.094,0.84
			c0.466,0.36,0.693,0.866,0.693,1.506c0,0.693-0.294,1.253-0.88,1.693c-0.6,0.426-1.373,0.653-2.347,0.653
			C476.48,21.493,475.667,21.227,475.08,20.72z M561.106,20.426c-0.667-0.706-1-1.6-1-2.693v-0.28c0-1.146,0.32-2.08,0.947-2.813
			c0.626-0.733,1.466-1.107,2.52-1.107c1.027,0,1.827,0.32,2.4,0.947c0.573,0.613,0.853,1.453,0.853,2.52v1.133h-4.573l-0.014,0.04
			c0.04,0.493,0.213,0.907,0.507,1.24c0.307,0.319,0.707,0.479,1.227,0.479c0.453,0,0.84-0.04,1.133-0.133
			c0.308-0.093,0.641-0.24,1-0.44l0.561,1.28c-0.32,0.254-0.72,0.467-1.227,0.641c-0.506,0.16-1.066,0.252-1.693,0.252
			C562.653,21.493,561.76,21.133,561.106,20.426z M568.613,20.4c-0.627-0.72-0.934-1.64-0.934-2.773v-0.213
			c0-1.134,0.307-2.054,0.92-2.787c0.627-0.72,1.494-1.094,2.64-1.094c0.946,0,1.707,0.28,2.28,0.813
			c0.586,0.533,0.867,1.24,0.84,2.121l-0.014,0.04h-1.879c0-0.387-0.107-0.72-0.32-0.986c-0.227-0.254-0.52-0.387-0.907-0.387
			c-0.546,0-0.933,0.213-1.16,0.64c-0.213,0.414-0.333,0.959-0.333,1.64v0.213c0,0.68,0.12,1.227,0.333,1.639
			c0.227,0.427,0.613,0.627,1.173,0.627c0.36,0,0.653-0.106,0.88-0.319c0.227-0.214,0.333-0.494,0.333-0.854h1.879l0.014,0.04
			c0.027,0.773-0.267,1.427-0.867,1.947c-0.6,0.52-1.346,0.786-2.239,0.786C570.106,21.493,569.227,21.133,568.613,20.4z
			 M588.333,20.426c-0.654-0.706-0.987-1.6-0.987-2.693v-0.28c0-1.146,0.32-2.08,0.934-2.813c0.626-0.733,1.467-1.107,2.521-1.107
			c1.04,0,1.84,0.32,2.413,0.947c0.574,0.613,0.854,1.453,0.854,2.52v1.133h-4.574l-0.013,0.04c0.04,0.493,0.2,0.907,0.506,1.24
			c0.293,0.319,0.707,0.479,1.213,0.479c0.467,0,0.84-0.04,1.146-0.133c0.307-0.093,0.627-0.24,0.987-0.44l0.56,1.28
			c-0.307,0.254-0.72,0.467-1.227,0.641c-0.493,0.16-1.067,0.252-1.68,0.252C589.879,21.493,589,21.133,588.333,20.426z
			 M595.773,20.72c-0.587-0.521-0.867-1.107-0.84-1.773l0.014-0.04h1.879c0.027,0.413,0.16,0.707,0.414,0.894
			c0.253,0.186,0.586,0.28,1,0.28c0.374,0,0.667-0.08,0.866-0.227c0.201-0.16,0.308-0.361,0.308-0.627
			c0-0.227-0.107-0.414-0.333-0.586c-0.213-0.16-0.627-0.307-1.213-0.44c-0.907-0.173-1.601-0.453-2.054-0.813
			c-0.467-0.36-0.693-0.854-0.693-1.48c0-0.653,0.28-1.213,0.827-1.68c0.56-0.453,1.307-0.693,2.227-0.693
			c0.986,0,1.76,0.24,2.333,0.693c0.587,0.453,0.854,1.04,0.84,1.734L601.333,16h-2c0-0.307-0.094-0.56-0.294-0.747
			c-0.2-0.2-0.479-0.293-0.866-0.293c-0.333,0-0.601,0.079-0.787,0.252c-0.187,0.16-0.281,0.361-0.281,0.6
			c0,0.24,0.094,0.44,0.294,0.587c0.2,0.146,0.613,0.28,1.227,0.4c0.946,0.186,1.64,0.466,2.106,0.84
			c0.453,0.36,0.681,0.866,0.681,1.506c0,0.693-0.294,1.253-0.88,1.693c-0.6,0.426-1.374,0.653-2.347,0.653
			C597.173,21.493,596.373,21.227,595.773,20.72z M146.44,21.346V11.04h2.693l2.627,7.601h0.04l2.653-7.601h2.693v10.307h-2.067
			V18.28l0.2-4.547l-0.04-0.013l-2.76,7.626h-1.387l-2.747-7.6l-0.04,0.013l0.2,4.52v3.066H146.44z M179.307,21.346v-11.04h2.066
			v11.04H179.307z M183.173,21.346v-7.653h2.066v7.653H183.173z M194.587,21.346v-7.653h1.92l0.093,1.093
			c0.253-0.387,0.574-0.693,0.934-0.907c0.373-0.213,0.8-0.333,1.253-0.333c0.773,0,1.387,0.254,1.813,0.733
			c0.44,0.48,0.654,1.253,0.654,2.294v4.772h-2.067v-4.772c0-0.521-0.106-0.88-0.32-1.094c-0.2-0.214-0.52-0.32-0.934-0.32
			c-0.28,0-0.52,0.053-0.747,0.16c-0.213,0.12-0.386,0.267-0.533,0.48v5.546H194.587z M307.44,21.346V10.293h2.066v11.053H307.44z
			 M318.84,21.346V13.68h1.92l0.093,1.094c0.254-0.387,0.574-0.693,0.947-0.907c0.373-0.214,0.787-0.333,1.253-0.333
			c0.772,0,1.373,0.253,1.813,0.733c0.426,0.494,0.653,1.254,0.653,2.294v4.786h-2.079V16.56c0-0.507-0.107-0.88-0.307-1.093
			c-0.214-0.213-0.521-0.32-0.947-0.32c-0.267,0-0.52,0.053-0.733,0.16c-0.213,0.12-0.4,0.28-0.547,0.48v5.56H318.84z
			 M343.027,21.346V13.68h1.92l0.093,1.133c0.173-0.399,0.414-0.72,0.693-0.934c0.294-0.227,0.613-0.346,0.987-0.346
			c0.106,0,0.2,0.013,0.293,0.027c0.08,0.026,0.173,0.04,0.267,0.067l-0.227,1.826l-0.747-0.013c-0.307,0-0.56,0.066-0.76,0.187
			c-0.2,0.133-0.347,0.306-0.453,0.533v5.187H343.027z M419.733,21.346V11.04h7.054v1.587H421.8v2.586h4.28v1.6h-4.28v2.934h5v1.6
			H419.733z M427.24,21.346l2.387-3.879l-2.32-3.787h2.32l1.146,2.44h0.04l1.173-2.44h2.347l-2.307,3.787l2.373,3.879h-2.32
			l-1.254-2.546l-1.253,2.546H427.24z M442.973,21.346V13.68h1.92l0.093,1.133c0.173-0.399,0.414-0.72,0.693-0.934
			c0.28-0.227,0.613-0.346,0.987-0.346c0.106,0,0.2,0.013,0.293,0.027c0.08,0.026,0.174,0.04,0.253,0.067L447,15.453l-0.76-0.013
			c-0.307,0-0.56,0.066-0.76,0.187c-0.187,0.133-0.347,0.306-0.453,0.533v5.187H442.973z M455.653,21.346V13.68h2.067v7.667H455.653
			z M550.947,21.346V11.04h3.879c1.174,0,2.094,0.267,2.76,0.8c0.667,0.533,1,1.28,1,2.24c0,0.533-0.147,0.986-0.427,1.373
			c-0.267,0.373-0.68,0.693-1.213,0.92c0.6,0.187,1.04,0.48,1.307,0.907c0.266,0.414,0.399,0.933,0.399,1.56v0.747
			c0,0.293,0.041,0.601,0.12,0.906c0.08,0.32,0.213,0.547,0.4,0.694v0.159h-2.134c-0.187-0.159-0.307-0.413-0.373-0.76
			c-0.053-0.36-0.08-0.693-0.08-1.013v-0.72c0-0.52-0.133-0.92-0.427-1.201c-0.28-0.293-0.667-0.426-1.187-0.426h-1.96v4.12H550.947
			z M575.64,21.346V13.68h2.066v7.667H575.64z M303.12,19.693c0.28-0.187,0.467-0.387,0.573-0.627v-1.08h-1.16
			c-0.44,0-0.773,0.107-1,0.333c-0.227,0.213-0.333,0.48-0.333,0.787c0,0.253,0.08,0.467,0.253,0.626
			c0.173,0.146,0.4,0.228,0.693,0.228C302.507,19.96,302.84,19.867,303.12,19.693z M338.813,19.693
			c0.28-0.187,0.479-0.387,0.573-0.627v-1.08h-1.147c-0.439,0-0.773,0.107-1,0.333c-0.227,0.213-0.346,0.48-0.346,0.787
			c0,0.253,0.093,0.467,0.253,0.626c0.173,0.146,0.414,0.228,0.707,0.228C338.213,19.96,338.533,19.867,338.813,19.693z
			 M583.906,19.307c0.227-0.387,0.347-0.92,0.347-1.586v-0.146c0-0.72-0.12-1.308-0.36-1.761c-0.24-0.44-0.613-0.667-1.106-0.667
			c-0.307,0-0.574,0.066-0.8,0.187c-0.213,0.133-0.387,0.307-0.52,0.546v3.347c0.133,0.227,0.306,0.387,0.52,0.506
			c0.227,0.107,0.494,0.16,0.814,0.16C583.307,19.893,583.667,19.707,583.906,19.307z M331.027,19.707
			c0.213-0.12,0.4-0.307,0.546-0.533v-3.267c-0.146-0.24-0.333-0.427-0.546-0.561c-0.213-0.133-0.48-0.2-0.773-0.2
			c-0.494,0-0.867,0.227-1.107,0.667c-0.227,0.453-0.346,1.041-0.346,1.761v0.146c0,0.68,0.12,1.2,0.346,1.586
			s0.587,0.573,1.093,0.573C330.546,19.879,330.8,19.826,331.027,19.707z M191.387,16.773v-0.187c0-0.44-0.107-0.786-0.307-1.053
			c-0.2-0.253-0.52-0.387-0.934-0.387c-0.373,0-0.68,0.147-0.907,0.44c-0.213,0.293-0.36,0.68-0.414,1.146l0.027,0.041H191.387z
			 M315.653,16.76v-0.186c0-0.44-0.107-0.787-0.32-1.054c-0.2-0.254-0.507-0.387-0.92-0.387c-0.387,0-0.693,0.146-0.907,0.44
			c-0.227,0.293-0.36,0.68-0.414,1.146l0.014,0.04H315.653z M439.747,16.76v-0.186c0-0.44-0.106-0.787-0.307-1.054
			c-0.213-0.254-0.52-0.387-0.933-0.387c-0.387,0-0.68,0.146-0.907,0.44c-0.227,0.293-0.36,0.68-0.414,1.146l0.027,0.04H439.747z
			 M471.346,16.76v-0.186c0-0.44-0.106-0.787-0.307-1.054c-0.2-0.254-0.52-0.387-0.934-0.387c-0.386,0-0.68,0.146-0.906,0.44
			c-0.213,0.293-0.36,0.68-0.413,1.146l0.026,0.04H471.346z M564.813,16.76v-0.186c0-0.44-0.106-0.787-0.32-1.054
			c-0.2-0.254-0.506-0.387-0.92-0.387c-0.387,0-0.693,0.146-0.906,0.44c-0.227,0.293-0.36,0.68-0.413,1.146l0.013,0.04H564.813z
			 M592.04,16.76v-0.186c0-0.44-0.106-0.787-0.307-1.054c-0.2-0.254-0.52-0.387-0.933-0.387c-0.374,0-0.681,0.146-0.907,0.44
			c-0.213,0.293-0.36,0.68-0.413,1.146l0.026,0.04H592.04z M556.093,15.266c0.293-0.253,0.426-0.613,0.426-1.093
			c0-0.48-0.133-0.854-0.426-1.134c-0.28-0.28-0.707-0.413-1.267-0.413h-1.813v3h1.787
			C555.373,15.627,555.813,15.506,556.093,15.266z M183.173,11.854v-1.547h2.066v1.547H183.173z M455.653,11.854v-1.56h2.067v1.56
			H455.653z M575.64,11.854v-1.56h2.066v1.56H575.64z"/>
	</g>
</g>
</svg>
