<?xml version="1.0" encoding="utf-8"?>
<!-- Generator: Adobe Illustrator 16.2.0, SVG Export Plug-In . SVG Version: 6.00 Build 0)  -->
<!DOCTYPE svg PUBLIC "-//W3C//DTD SVG 1.1//EN" "http://www.w3.org/Graphics/SVG/1.1/DTD/svg11.dtd">
<svg version="1.1" id="Layer_1" xmlns="http://www.w3.org/2000/svg" xmlns:xlink="http://www.w3.org/1999/xlink" x="0px" y="0px"
	 width="256px" height="27.842px" viewBox="0 0 256 27.842" enable-background="new 0 0 256 27.842" xml:space="preserve">
<g>
	<rect fill-rule="evenodd" clip-rule="evenodd" width="256" height="27.842"/>
	<g>
		<polygon fill="#FFFFFF" points="14.241,8.046 16.771,15.386 16.812,15.386 19.37,8.046 21.98,8.046 21.98,17.997 19.995,17.997 
			19.995,15.028 20.182,10.631 20.142,10.631 17.478,17.997 16.132,17.997 13.481,10.657 13.441,10.657 13.628,15.028 
			13.628,17.997 11.63,17.997 11.63,8.046 		"/>
		<path fill="#FFFFFF" d="M23.379,14.228c0-1.093,0.307-1.999,0.933-2.705c0.613-0.706,1.465-1.066,2.558-1.066
			c1.093,0,1.945,0.36,2.571,1.066c0.613,0.692,0.932,1.599,0.932,2.705v0.146c0,1.119-0.319,2.025-0.932,2.718
			c-0.613,0.705-1.479,1.053-2.558,1.053c-1.093,0-1.958-0.348-2.571-1.053c-0.626-0.693-0.933-1.6-0.933-2.718V14.228z
			 M25.377,14.374c0,0.666,0.12,1.212,0.347,1.625c0.24,0.4,0.625,0.613,1.159,0.613c0.506,0,0.892-0.213,1.132-0.626
			c0.24-0.399,0.359-0.946,0.359-1.612v-0.146c0-0.653-0.12-1.186-0.373-1.599c-0.24-0.413-0.613-0.626-1.132-0.626
			c-0.52,0-0.893,0.213-1.133,0.626c-0.239,0.413-0.359,0.946-0.359,1.599V14.374z"/>
		<path fill="#FFFFFF" d="M36.021,10.604h1.984v7.393h-1.984v-4.515h-0.041l-2.424,4.515h-1.999v-7.393h1.999v4.502h0.04
			L36.021,10.604z M37.101,7.38l0.013,0.041c0.026,0.572-0.173,1.052-0.599,1.411c-0.427,0.374-0.999,0.56-1.719,0.56
			c-0.733,0-1.305-0.186-1.732-0.56c-0.426-0.359-0.626-0.839-0.599-1.411l0.013-0.041h1.452c0,0.239,0.067,0.44,0.213,0.6
			c0.133,0.146,0.359,0.227,0.653,0.227c0.28,0,0.493-0.08,0.64-0.227c0.133-0.16,0.2-0.36,0.2-0.6H37.101z"/>
		<polygon fill="#FFFFFF" points="45.879,15.227 45.106,15.227 45.106,17.997 43.108,17.997 43.108,10.604 45.106,10.604 
			45.106,13.416 45.813,13.416 47.398,10.604 49.929,10.604 47.505,14.095 50.143,17.997 47.478,17.997 		"/>
		<path fill="#FFFFFF" d="M55.191,17.997c-0.067-0.158-0.133-0.346-0.187-0.532c-0.054-0.187-0.094-0.372-0.12-0.572
			c-0.201,0.36-0.467,0.666-0.8,0.893c-0.347,0.239-0.746,0.36-1.199,0.36c-0.786,0-1.385-0.201-1.798-0.601
			c-0.427-0.399-0.626-0.946-0.626-1.624c0-0.734,0.28-1.293,0.839-1.692c0.56-0.4,1.373-0.6,2.438-0.6h1.12v-0.586
			c0-0.36-0.094-0.625-0.28-0.826c-0.186-0.2-0.466-0.292-0.826-0.292c-0.333,0-0.573,0.079-0.76,0.239
			c-0.173,0.147-0.253,0.374-0.253,0.653l-1.931-0.014l-0.014-0.04c-0.027-0.626,0.24-1.159,0.826-1.612
			c0.573-0.466,1.319-0.693,2.251-0.693c0.893,0,1.612,0.227,2.158,0.679c0.56,0.454,0.826,1.093,0.826,1.918v3.064
			c0,0.346,0.027,0.666,0.08,0.973c0.053,0.307,0.133,0.612,0.253,0.904H55.191z M53.366,16.665c0.346,0,0.666-0.078,0.932-0.252
			c0.28-0.174,0.466-0.373,0.56-0.613v-1.039h-1.12c-0.426,0-0.746,0.106-0.958,0.32c-0.227,0.213-0.333,0.466-0.333,0.771
			c0,0.24,0.08,0.44,0.253,0.587C52.86,16.598,53.086,16.665,53.366,16.665z"/>
		<path fill="#FFFFFF" d="M64.783,10.604v7.393h-1.985v-5.861h-1.786v1.613c0,1.465-0.226,2.53-0.666,3.224
			c-0.453,0.692-1.212,1.024-2.291,1.024h-0.32l-0.027-1.57h0.213c0.453,0,0.759-0.188,0.893-0.561s0.2-1.079,0.2-2.117v-3.145
			H64.783z"/>
		<path fill="#FFFFFF" d="M69.512,18.145c-1.066,0-1.918-0.348-2.559-1.026c-0.639-0.68-0.958-1.559-0.958-2.611v-0.267
			c0-1.105,0.306-2.011,0.905-2.717c0.6-0.706,1.412-1.066,2.438-1.066c0.986,0,1.772,0.307,2.318,0.906
			c0.559,0.599,0.826,1.425,0.826,2.451v1.079h-4.41l-0.027,0.04c0.04,0.493,0.2,0.893,0.493,1.199
			c0.293,0.32,0.679,0.479,1.185,0.479c0.44,0,0.813-0.053,1.093-0.133c0.293-0.094,0.613-0.24,0.959-0.427l0.546,1.239
			c-0.307,0.24-0.693,0.453-1.186,0.613C70.644,18.065,70.111,18.145,69.512,18.145z M69.338,12.002
			c-0.373,0-0.666,0.147-0.879,0.427c-0.213,0.28-0.347,0.653-0.4,1.119l0.027,0.026h2.438v-0.173c0-0.426-0.093-0.773-0.293-1.026
			C70.031,12.123,69.738,12.002,69.338,12.002z"/>
		<polygon fill="#FFFFFF" points="80.049,17.997 78.051,17.997 78.051,15.133 75.613,15.133 75.613,17.997 73.615,17.997 
			73.615,10.604 75.613,10.604 75.613,13.602 78.051,13.602 78.051,10.604 80.049,10.604 		"/>
		<path fill="#FFFFFF" d="M81.661,16.453c0.454-0.467,0.76-0.933,0.92-1.399c0.159-0.453,0.253-1.106,0.266-1.958l0.04-2.491h5.462
			v5.861h1.066l-0.147,3.758h-1.852v-2.227h-4.37v2.227h-1.865l-0.16-3.771H81.661z M84.845,13.095
			c-0.04,0.732-0.133,1.372-0.28,1.933c-0.16,0.545-0.359,1.024-0.626,1.425h2.411v-4.263h-1.492L84.845,13.095z"/>
		<path fill="#FFFFFF" d="M94.756,17.997c-0.066-0.158-0.133-0.346-0.186-0.532c-0.053-0.187-0.094-0.372-0.106-0.572
			c-0.213,0.36-0.48,0.666-0.813,0.893c-0.333,0.239-0.732,0.36-1.199,0.36c-0.772,0-1.372-0.201-1.798-0.601
			c-0.413-0.399-0.626-0.946-0.626-1.624c0-0.734,0.28-1.293,0.839-1.692c0.56-0.4,1.373-0.6,2.438-0.6h1.119v-0.586
			c0-0.36-0.093-0.625-0.28-0.826c-0.187-0.2-0.466-0.292-0.826-0.292c-0.32,0-0.573,0.079-0.746,0.239
			c-0.174,0.147-0.267,0.374-0.267,0.653l-1.932-0.014v-0.04c-0.04-0.626,0.24-1.159,0.813-1.612
			c0.573-0.466,1.333-0.693,2.265-0.693c0.879,0,1.599,0.227,2.145,0.679c0.56,0.454,0.84,1.093,0.84,1.918v3.064
			c0,0.346,0.026,0.666,0.066,0.973c0.054,0.307,0.146,0.612,0.253,0.904H94.756z M92.931,16.665c0.36,0,0.666-0.078,0.946-0.252
			c0.267-0.174,0.454-0.373,0.546-0.613v-1.039h-1.119c-0.413,0-0.746,0.106-0.959,0.32c-0.213,0.213-0.333,0.466-0.333,0.771
			c0,0.24,0.094,0.44,0.253,0.587C92.425,16.598,92.651,16.665,92.931,16.665z"/>
		<path fill="#FFFFFF" d="M104.614,14.507c0,1.093-0.253,1.972-0.759,2.638c-0.506,0.666-1.212,1-2.118,1
			c-0.386,0-0.733-0.066-1.026-0.214c-0.306-0.146-0.56-0.36-0.772-0.64v3.557H97.94V10.604h1.799l0.12,0.866
			c0.213-0.319,0.479-0.572,0.786-0.746c0.306-0.173,0.666-0.266,1.079-0.266c0.919,0,1.625,0.36,2.131,1.079
			c0.506,0.72,0.759,1.652,0.759,2.825V14.507z M102.616,14.361c0-0.693-0.106-1.266-0.346-1.693
			c-0.227-0.439-0.586-0.652-1.066-0.652c-0.306,0-0.56,0.067-0.772,0.187c-0.213,0.12-0.373,0.292-0.493,0.519v3.237
			c0.12,0.213,0.279,0.373,0.493,0.479c0.213,0.106,0.479,0.173,0.786,0.173c0.479,0,0.839-0.199,1.065-0.572
			c0.227-0.373,0.333-0.893,0.333-1.532V14.361z"/>
		<path fill="#FFFFFF" d="M107.971,12.989h1.386c0.999,0,1.772,0.24,2.345,0.693c0.573,0.453,0.853,1.066,0.853,1.798
			c0,0.759-0.28,1.358-0.853,1.825c-0.573,0.466-1.346,0.691-2.345,0.691h-3.397v-7.393h2.011V12.989z M107.971,14.534v1.945h1.386
			c0.413,0,0.707-0.094,0.906-0.279c0.2-0.174,0.307-0.414,0.307-0.693s-0.107-0.506-0.307-0.692
			c-0.199-0.187-0.493-0.28-0.906-0.28H107.971z"/>
	</g>
</g>
</svg>
