<?xml version="1.0" encoding="utf-8"?>
<!-- Generator: Adobe Illustrator 16.2.0, SVG Export Plug-In . SVG Version: 6.00 Build 0)  -->
<!DOCTYPE svg PUBLIC "-//W3C//DTD SVG 1.1//EN" "http://www.w3.org/Graphics/SVG/1.1/DTD/svg11.dtd">
<svg version="1.1" id="Layer_1" xmlns="http://www.w3.org/2000/svg" xmlns:xlink="http://www.w3.org/1999/xlink" x="0px" y="0px"
	 width="256px" height="27.829px" viewBox="0 0 256 27.829" enable-background="new 0 0 256 27.829" xml:space="preserve">
<g>
	<rect fill-rule="evenodd" clip-rule="evenodd" width="256" height="27.829"/>
	<g>
		<g>
			<polygon fill="#FFFFFF" points="19.676,17.998 17.691,17.998 13.667,11.19 13.628,11.204 13.628,17.998 11.63,17.998 
				11.63,8.033 13.628,8.033 17.651,14.84 17.691,14.827 17.691,8.033 19.676,8.033 			"/>
			<path fill="#FFFFFF" d="M21.074,14.228c0-1.106,0.307-2.011,0.933-2.705c0.613-0.706,1.465-1.065,2.558-1.065
				c1.092,0,1.945,0.359,2.571,1.052c0.613,0.707,0.919,1.612,0.919,2.718v0.146c0,1.105-0.306,2.025-0.919,2.717
				c-0.626,0.706-1.479,1.053-2.558,1.053c-1.106,0-1.958-0.347-2.571-1.053c-0.626-0.692-0.933-1.612-0.933-2.717V14.228z
				 M23.073,14.374c0,0.666,0.12,1.212,0.347,1.612c0.239,0.413,0.625,0.613,1.159,0.613c0.506,0,0.892-0.2,1.132-0.613
				s0.359-0.946,0.359-1.612v-0.146c0-0.653-0.132-1.186-0.373-1.612c-0.24-0.413-0.613-0.613-1.132-0.613
				c-0.52,0-0.893,0.2-1.132,0.626c-0.24,0.413-0.36,0.945-0.36,1.599V14.374z"/>
			<path fill="#FFFFFF" d="M31.666,8.779v1.825h1.252v1.398h-1.252v3.77c0,0.28,0.066,0.493,0.173,0.613
				c0.12,0.12,0.28,0.186,0.479,0.186c0.106,0,0.2-0.013,0.28-0.026c0.067,0,0.16-0.027,0.253-0.054l0.173,1.439
				c-0.2,0.08-0.399,0.12-0.586,0.16c-0.187,0.04-0.4,0.053-0.626,0.053c-0.679,0-1.212-0.187-1.585-0.573
				c-0.373-0.373-0.56-0.972-0.56-1.798v-3.77h-1.079v-1.398h1.079V8.779H31.666z"/>
			<path fill="#FFFFFF" d="M36.288,17.998H34.29v-7.393h1.998V17.998z M36.288,8.833H34.29V7.327h1.998V8.833z"/>
			<path fill="#FFFFFF" d="M38.446,17.998v-5.995H37.34v-1.398h1.106V9.778c0-0.826,0.24-1.465,0.719-1.919
				c0.479-0.453,1.146-0.679,2.012-0.679c0.173,0,0.346,0.013,0.519,0.041c0.173,0.026,0.373,0.066,0.586,0.106l-0.173,1.479
				c-0.107-0.013-0.213-0.026-0.319-0.04c-0.107-0.013-0.227-0.027-0.36-0.027c-0.32,0-0.573,0.094-0.733,0.267
				c-0.173,0.186-0.253,0.44-0.253,0.773v0.826h1.466v1.398h-1.466v5.995H38.446z"/>
			<path fill="#FFFFFF" d="M45.04,17.998h-1.998v-7.393h1.998V17.998z M45.04,8.833h-1.998V7.327h1.998V8.833z"/>
			<path fill="#FFFFFF" d="M49.783,16.599c0.36,0,0.64-0.094,0.852-0.307c0.213-0.2,0.32-0.479,0.32-0.826h1.812l0.026,0.041
				c0.014,0.746-0.266,1.373-0.852,1.878c-0.573,0.506-1.292,0.759-2.158,0.759c-1.106,0-1.958-0.347-2.558-1.053
				c-0.587-0.692-0.893-1.585-0.893-2.677v-0.213c0-1.092,0.293-1.984,0.893-2.691c0.599-0.693,1.452-1.052,2.544-1.052
				c0.919,0,1.652,0.267,2.211,0.786c0.56,0.52,0.826,1.199,0.813,2.052l-0.013,0.04h-1.825c0-0.386-0.107-0.706-0.307-0.959
				c-0.213-0.253-0.506-0.373-0.879-0.373c-0.52,0-0.893,0.2-1.119,0.613c-0.213,0.413-0.32,0.933-0.32,1.585v0.2
				c0,0.666,0.107,1.2,0.32,1.599C48.876,16.399,49.25,16.599,49.783,16.599z"/>
			<path fill="#FFFFFF" d="M58.269,17.998c-0.067-0.173-0.133-0.347-0.187-0.533c-0.053-0.186-0.094-0.373-0.106-0.573
				c-0.213,0.36-0.479,0.653-0.813,0.893c-0.333,0.24-0.733,0.36-1.2,0.36c-0.786,0-1.372-0.2-1.798-0.599
				c-0.413-0.4-0.626-0.946-0.626-1.639c0-0.719,0.28-1.279,0.839-1.678c0.56-0.399,1.373-0.6,2.438-0.6h1.119v-0.586
				c0-0.359-0.094-0.639-0.28-0.825c-0.186-0.2-0.466-0.293-0.825-0.293c-0.32,0-0.573,0.08-0.746,0.227
				c-0.187,0.16-0.267,0.373-0.267,0.652h-1.931v-0.04c-0.04-0.626,0.227-1.172,0.813-1.625c0.573-0.453,1.318-0.679,2.264-0.679
				c0.879,0,1.599,0.226,2.146,0.679c0.56,0.453,0.826,1.093,0.826,1.918v3.051c0,0.346,0.026,0.679,0.079,0.985
				c0.053,0.307,0.147,0.613,0.254,0.906H58.269z M56.443,16.666c0.346,0,0.666-0.094,0.932-0.267c0.28-0.173,0.466-0.373,0.56-0.6
				V14.76h-1.119c-0.426,0-0.746,0.106-0.959,0.32c-0.227,0.2-0.333,0.467-0.333,0.759c0,0.253,0.08,0.453,0.253,0.6
				C55.938,16.585,56.164,16.666,56.443,16.666z"/>
			<path fill="#FFFFFF" d="M63.824,8.779v1.825h1.252v1.398h-1.252v3.77c0,0.28,0.066,0.493,0.186,0.613
				c0.106,0.12,0.267,0.186,0.466,0.186c0.107,0,0.2-0.013,0.28-0.026c0.067,0,0.16-0.027,0.267-0.054l0.16,1.439
				c-0.2,0.08-0.386,0.12-0.586,0.16c-0.187,0.04-0.4,0.053-0.626,0.053c-0.68,0-1.212-0.187-1.585-0.573
				c-0.373-0.373-0.559-0.972-0.559-1.798v-3.77h-1.079v-1.398h1.079V8.779H63.824z"/>
			<path fill="#FFFFFF" d="M68.446,17.998h-1.998v-7.393h1.998V17.998z M68.446,8.833h-1.998V7.327h1.998V8.833z"/>
			<path fill="#FFFFFF" d="M69.778,14.228c0-1.106,0.306-2.011,0.919-2.705c0.626-0.706,1.479-1.065,2.558-1.065
				c1.105,0,1.958,0.359,2.571,1.052c0.626,0.707,0.933,1.612,0.933,2.718v0.146c0,1.105-0.306,2.025-0.919,2.717
				c-0.626,0.706-1.479,1.053-2.571,1.053s-1.945-0.347-2.558-1.053c-0.626-0.692-0.933-1.612-0.933-2.717V14.228z M71.763,14.374
				c0,0.666,0.12,1.212,0.36,1.612c0.239,0.413,0.625,0.613,1.146,0.613c0.52,0,0.893-0.2,1.132-0.613
				c0.239-0.413,0.36-0.946,0.36-1.612v-0.146c0-0.653-0.121-1.186-0.36-1.612c-0.24-0.413-0.626-0.613-1.146-0.613
				c-0.507,0-0.893,0.2-1.132,0.626c-0.24,0.413-0.36,0.945-0.36,1.599V14.374z"/>
			<path fill="#FFFFFF" d="M79.823,10.604l0.08,1.052c0.253-0.373,0.56-0.666,0.919-0.879c0.36-0.213,0.76-0.32,1.212-0.32
				c0.746,0,1.332,0.24,1.745,0.706c0.426,0.466,0.626,1.212,0.626,2.211v4.623h-1.999v-4.609c0-0.506-0.106-0.853-0.306-1.066
				c-0.2-0.2-0.506-0.306-0.906-0.306c-0.267,0-0.506,0.053-0.706,0.16c-0.213,0.107-0.387,0.253-0.533,0.453v5.369h-1.999v-7.393
				H79.823z"/>
			<path fill="#FFFFFF" d="M89.907,15.959c0-0.213-0.106-0.412-0.32-0.572s-0.613-0.293-1.186-0.413
				c-0.866-0.187-1.532-0.44-1.971-0.799c-0.453-0.346-0.666-0.826-0.666-1.425c0-0.64,0.267-1.173,0.799-1.625
				c0.533-0.44,1.252-0.666,2.145-0.666c0.946,0,1.706,0.226,2.265,0.666c0.546,0.439,0.826,0.999,0.8,1.678l-0.014,0.04h-1.931
				c0-0.292-0.094-0.533-0.281-0.719c-0.186-0.2-0.465-0.292-0.839-0.292c-0.319,0-0.572,0.079-0.759,0.239
				c-0.187,0.16-0.28,0.36-0.28,0.6c0,0.227,0.107,0.413,0.293,0.56c0.2,0.146,0.586,0.267,1.186,0.386
				c0.906,0.186,1.585,0.453,2.025,0.799c0.44,0.36,0.667,0.839,0.667,1.466c0,0.666-0.28,1.211-0.853,1.625
				c-0.572,0.427-1.318,0.64-2.264,0.64c-0.986,0-1.759-0.253-2.332-0.746c-0.573-0.506-0.839-1.079-0.812-1.705l0.013-0.053h1.825
				c0.013,0.399,0.146,0.693,0.387,0.866c0.253,0.187,0.572,0.267,0.958,0.267c0.374,0,0.653-0.067,0.853-0.213
				C89.801,16.413,89.907,16.213,89.907,15.959z"/>
			<path fill="#FFFFFF" d="M100.964,17.998c-0.08-0.173-0.146-0.347-0.2-0.533c-0.04-0.186-0.08-0.373-0.106-0.573
				c-0.2,0.36-0.479,0.653-0.813,0.893c-0.333,0.24-0.733,0.36-1.199,0.36c-0.773,0-1.372-0.2-1.798-0.599
				c-0.413-0.4-0.626-0.946-0.626-1.639c0-0.719,0.279-1.279,0.839-1.678s1.373-0.6,2.452-0.6h1.105v-0.586
				c0-0.359-0.093-0.639-0.28-0.825c-0.186-0.2-0.453-0.293-0.825-0.293c-0.32,0-0.573,0.08-0.746,0.227
				c-0.174,0.16-0.267,0.373-0.267,0.652h-1.931v-0.04c-0.027-0.626,0.239-1.172,0.812-1.625s1.333-0.679,2.265-0.679
				c0.879,0,1.599,0.226,2.158,0.679c0.546,0.453,0.826,1.093,0.826,1.918v3.051c0,0.346,0.026,0.679,0.08,0.985
				c0.054,0.307,0.134,0.613,0.253,0.906H100.964z M99.126,16.666c0.359,0,0.666-0.094,0.946-0.267
				c0.266-0.173,0.453-0.373,0.545-0.6V14.76h-1.105c-0.427,0-0.746,0.106-0.973,0.32c-0.213,0.2-0.319,0.467-0.319,0.759
				c0,0.253,0.08,0.453,0.24,0.6C98.619,16.585,98.846,16.666,99.126,16.666z"/>
			<path fill="#FFFFFF" d="M105.973,10.604l0.08,1.052c0.253-0.373,0.546-0.666,0.906-0.879c0.373-0.213,0.773-0.32,1.213-0.32
				c0.759,0,1.332,0.24,1.758,0.706c0.413,0.466,0.626,1.212,0.626,2.211v4.623h-1.998v-4.609c0-0.506-0.107-0.853-0.307-1.066
				c-0.2-0.2-0.506-0.306-0.905-0.306c-0.267,0-0.506,0.053-0.72,0.16c-0.2,0.107-0.386,0.253-0.52,0.453v5.369h-1.998v-7.393
				H105.973z"/>
			<path fill="#FFFFFF" d="M111.741,14.361c0-1.173,0.253-2.105,0.76-2.824c0.493-0.72,1.212-1.079,2.131-1.079
				c0.359,0,0.692,0.08,0.999,0.24c0.293,0.16,0.546,0.387,0.772,0.693V7.327h2.012v10.671h-1.719l-0.174-0.906
				c-0.226,0.347-0.506,0.613-0.825,0.787c-0.306,0.173-0.68,0.266-1.079,0.266c-0.919,0-1.625-0.333-2.118-0.999
				c-0.506-0.667-0.76-1.545-0.76-2.638V14.361z M113.726,14.507c0,0.639,0.12,1.159,0.333,1.519c0.213,0.373,0.573,0.56,1.065,0.56
				c0.293,0,0.533-0.053,0.76-0.173c0.213-0.107,0.386-0.281,0.519-0.507v-3.157c-0.133-0.227-0.306-0.413-0.519-0.546
				c-0.213-0.12-0.466-0.187-0.746-0.187c-0.493,0-0.839,0.213-1.066,0.653c-0.227,0.426-0.346,0.999-0.346,1.692V14.507z"/>
			<path fill="#FFFFFF" d="M125.303,10.604l0.08,0.972c0.24-0.359,0.533-0.625,0.893-0.825c0.36-0.187,0.773-0.293,1.239-0.293
				c0.48,0,0.879,0.106,1.212,0.32c0.347,0.213,0.6,0.519,0.772,0.946c0.227-0.4,0.52-0.707,0.893-0.933
				c0.36-0.213,0.786-0.333,1.279-0.333c0.733,0,1.306,0.253,1.732,0.76c0.426,0.506,0.625,1.265,0.625,2.304v4.477h-1.998v-4.489
				c0-0.56-0.08-0.946-0.266-1.172c-0.187-0.213-0.454-0.32-0.813-0.32c-0.28,0-0.533,0.067-0.732,0.187
				c-0.213,0.12-0.374,0.293-0.506,0.52c0,0.093,0.013,0.16,0.013,0.227s0,0.12,0,0.186v4.863h-1.985v-4.489
				c0-0.546-0.093-0.933-0.279-1.159c-0.174-0.227-0.454-0.333-0.813-0.333c-0.266,0-0.506,0.053-0.706,0.147
				c-0.213,0.106-0.374,0.253-0.506,0.439v5.395h-1.985v-7.393H125.303z"/>
			<path fill="#FFFFFF" d="M138.837,18.144c-1.065,0-1.918-0.347-2.558-1.026c-0.626-0.679-0.946-1.559-0.946-2.611v-0.267
				c0-1.106,0.293-2.011,0.906-2.718c0.599-0.72,1.412-1.065,2.424-1.065c1,0,1.772,0.306,2.332,0.906
				c0.546,0.599,0.826,1.413,0.826,2.438v1.093h-4.423l-0.014,0.041c0.041,0.492,0.2,0.892,0.493,1.198
				c0.293,0.32,0.679,0.467,1.172,0.467c0.453,0,0.813-0.041,1.105-0.134c0.293-0.08,0.613-0.227,0.959-0.413l0.546,1.226
				c-0.307,0.253-0.706,0.453-1.185,0.625C139.983,18.064,139.437,18.144,138.837,18.144z M138.664,12.003
				c-0.373,0-0.666,0.133-0.878,0.426c-0.213,0.279-0.347,0.653-0.387,1.105l0.013,0.04h2.452v-0.173
				c0-0.426-0.094-0.772-0.293-1.026C139.37,12.123,139.064,12.003,138.664,12.003z"/>
			<path fill="#FFFFFF" d="M146.99,15.959c0-0.213-0.107-0.412-0.319-0.572c-0.213-0.16-0.613-0.293-1.186-0.413
				c-0.879-0.187-1.532-0.44-1.985-0.799c-0.439-0.346-0.667-0.826-0.667-1.425c0-0.64,0.281-1.173,0.813-1.625
				c0.533-0.44,1.252-0.666,2.145-0.666c0.946,0,1.705,0.226,2.251,0.666c0.56,0.439,0.826,0.999,0.813,1.678l-0.014,0.04h-1.932
				c0-0.292-0.093-0.533-0.28-0.719c-0.2-0.2-0.466-0.292-0.839-0.292c-0.319,0-0.573,0.079-0.759,0.239
				c-0.187,0.16-0.28,0.36-0.28,0.6c0,0.227,0.093,0.413,0.293,0.56c0.2,0.146,0.586,0.267,1.186,0.386
				c0.906,0.186,1.585,0.453,2.025,0.799c0.44,0.36,0.666,0.839,0.666,1.466c0,0.666-0.279,1.211-0.853,1.625
				c-0.573,0.427-1.332,0.64-2.264,0.64c-0.986,0-1.759-0.253-2.332-0.746c-0.573-0.506-0.84-1.079-0.813-1.705l0.014-0.053h1.825
				c0.014,0.399,0.133,0.693,0.386,0.866c0.24,0.187,0.573,0.267,0.959,0.267c0.373,0,0.652-0.067,0.853-0.213
				C146.883,16.413,146.99,16.213,146.99,15.959z"/>
			<path fill="#FFFFFF" d="M154.21,15.959c0-0.213-0.106-0.412-0.319-0.572s-0.6-0.293-1.186-0.413
				c-0.866-0.187-1.532-0.44-1.972-0.799c-0.453-0.346-0.666-0.826-0.666-1.425c0-0.64,0.267-1.173,0.8-1.625
				c0.533-0.44,1.252-0.666,2.158-0.666c0.932,0,1.692,0.226,2.251,0.666c0.56,0.439,0.826,0.999,0.799,1.678l-0.014,0.04h-1.931
				c0-0.292-0.094-0.533-0.28-0.719c-0.187-0.2-0.466-0.292-0.826-0.292c-0.333,0-0.586,0.079-0.773,0.239s-0.267,0.36-0.267,0.6
				c0,0.227,0.094,0.413,0.28,0.56c0.2,0.146,0.586,0.267,1.186,0.386c0.906,0.186,1.585,0.453,2.025,0.799
				c0.453,0.36,0.666,0.839,0.666,1.466c0,0.666-0.279,1.211-0.853,1.625c-0.572,0.427-1.318,0.64-2.251,0.64
				c-0.985,0-1.772-0.253-2.344-0.746c-0.573-0.506-0.839-1.079-0.813-1.705l0.014-0.053h1.825c0.013,0.399,0.146,0.693,0.386,0.866
				c0.253,0.187,0.573,0.267,0.973,0.267c0.36,0,0.652-0.067,0.839-0.213C154.117,16.413,154.21,16.213,154.21,15.959z"/>
			<path fill="#FFFFFF" d="M161.777,17.998c-0.08-0.173-0.133-0.347-0.187-0.533c-0.053-0.186-0.093-0.373-0.12-0.573
				c-0.2,0.36-0.466,0.653-0.813,0.893c-0.333,0.24-0.733,0.36-1.199,0.36c-0.772,0-1.373-0.2-1.785-0.599
				c-0.426-0.4-0.626-0.946-0.626-1.639c0-0.719,0.28-1.279,0.825-1.678c0.561-0.399,1.386-0.6,2.452-0.6h1.119v-0.586
				c0-0.359-0.093-0.639-0.28-0.825c-0.187-0.2-0.466-0.293-0.826-0.293c-0.333,0-0.586,0.08-0.759,0.227
				c-0.173,0.16-0.253,0.373-0.253,0.652h-1.932l-0.013-0.04c-0.027-0.626,0.239-1.172,0.813-1.625s1.332-0.679,2.265-0.679
				c0.893,0,1.612,0.226,2.158,0.679c0.546,0.453,0.826,1.093,0.826,1.918v3.051c0,0.346,0.027,0.679,0.08,0.985
				c0.053,0.307,0.133,0.613,0.253,0.906H161.777z M159.952,16.666c0.347,0,0.666-0.094,0.933-0.267
				c0.28-0.173,0.466-0.373,0.56-0.6V14.76h-1.119c-0.426,0-0.746,0.106-0.959,0.32c-0.226,0.2-0.333,0.467-0.333,0.759
				c0,0.253,0.08,0.453,0.24,0.6C159.445,16.585,159.672,16.666,159.952,16.666z"/>
			<path fill="#FFFFFF" d="M164.654,14.361c0-1.173,0.253-2.105,0.759-2.824c0.506-0.72,1.226-1.079,2.131-1.079
				c0.413,0,0.786,0.094,1.092,0.28c0.32,0.187,0.586,0.453,0.813,0.799l0.16-0.932h1.718v7.366c0,0.959-0.306,1.705-0.946,2.225
				c-0.625,0.533-1.505,0.786-2.638,0.786c-0.373,0-0.772-0.04-1.186-0.146c-0.426-0.107-0.813-0.239-1.159-0.426l0.36-1.492
				c0.306,0.146,0.625,0.266,0.932,0.333c0.32,0.08,0.666,0.12,1.04,0.12c0.545,0,0.946-0.12,1.211-0.346
				c0.253-0.227,0.387-0.586,0.387-1.066v-0.666c-0.227,0.28-0.479,0.48-0.773,0.626c-0.292,0.146-0.639,0.227-1.026,0.227
				c-0.905,0-1.612-0.333-2.118-0.999c-0.506-0.667-0.759-1.545-0.759-2.638V14.361z M166.653,14.507
				c0,0.639,0.106,1.159,0.319,1.519c0.226,0.373,0.573,0.56,1.066,0.56c0.307,0,0.572-0.053,0.786-0.16
				c0.2-0.12,0.373-0.28,0.506-0.492v-3.211c-0.133-0.226-0.307-0.4-0.506-0.52c-0.213-0.133-0.466-0.187-0.772-0.187
				c-0.479,0-0.839,0.213-1.065,0.653c-0.227,0.426-0.333,0.999-0.333,1.692V14.507z"/>
			<path fill="#FFFFFF" d="M176.137,18.144c-1.065,0-1.918-0.347-2.558-1.026c-0.64-0.679-0.959-1.559-0.959-2.611v-0.267
				c0-1.106,0.307-2.011,0.905-2.718c0.613-0.72,1.426-1.065,2.438-1.065c1,0,1.772,0.306,2.318,0.906
				c0.56,0.599,0.839,1.413,0.839,2.438v1.093h-4.423l-0.014,0.041c0.041,0.492,0.2,0.892,0.493,1.198
				c0.28,0.32,0.679,0.467,1.172,0.467c0.439,0,0.813-0.041,1.105-0.134c0.293-0.08,0.613-0.227,0.959-0.413l0.533,1.226
				c-0.293,0.253-0.692,0.453-1.186,0.625C177.283,18.064,176.737,18.144,176.137,18.144z M175.964,12.003
				c-0.373,0-0.666,0.133-0.878,0.426c-0.213,0.279-0.347,0.653-0.4,1.105l0.027,0.04h2.452v-0.173c0-0.426-0.107-0.772-0.307-1.026
				C176.67,12.123,176.364,12.003,175.964,12.003z"/>
			<path fill="#FFFFFF" d="M184.277,15.959c0-0.213-0.106-0.412-0.306-0.572c-0.213-0.16-0.613-0.293-1.186-0.413
				c-0.879-0.187-1.532-0.44-1.985-0.799c-0.439-0.346-0.666-0.826-0.666-1.425c0-0.64,0.267-1.173,0.813-1.625
				c0.533-0.44,1.252-0.666,2.145-0.666c0.946,0,1.692,0.226,2.251,0.666c0.56,0.439,0.826,0.999,0.813,1.678l-0.014,0.04h-1.932
				c0-0.292-0.093-0.533-0.292-0.719c-0.187-0.2-0.466-0.292-0.826-0.292c-0.319,0-0.573,0.079-0.759,0.239
				c-0.187,0.16-0.28,0.36-0.28,0.6c0,0.227,0.093,0.413,0.293,0.56c0.187,0.146,0.586,0.267,1.172,0.386
				c0.92,0.186,1.599,0.453,2.039,0.799c0.44,0.36,0.666,0.839,0.666,1.466c0,0.666-0.293,1.211-0.853,1.625
				c-0.573,0.427-1.332,0.64-2.264,0.64c-0.986,0-1.759-0.253-2.332-0.746c-0.573-0.506-0.853-1.079-0.826-1.705l0.013-0.053h1.825
				c0.027,0.399,0.146,0.693,0.399,0.866c0.24,0.187,0.56,0.267,0.959,0.267c0.373,0,0.652-0.067,0.853-0.213
				C184.184,16.413,184.277,16.213,184.277,15.959z"/>
		</g>
	</g>
</g>
</svg>
