<?xml version="1.0" encoding="utf-8"?>
<!-- Generator: Adobe Illustrator 16.2.0, SVG Export Plug-In . SVG Version: 6.00 Build 0)  -->
<!DOCTYPE svg PUBLIC "-//W3C//DTD SVG 1.1//EN" "http://www.w3.org/Graphics/SVG/1.1/DTD/svg11.dtd">
<svg version="1.1" id="Layer_1" xmlns="http://www.w3.org/2000/svg" xmlns:xlink="http://www.w3.org/1999/xlink" x="0px" y="0px"
	 width="67.6px" height="228.722px" viewBox="0 0 67.6 228.722" enable-background="new 0 0 67.6 228.722" xml:space="preserve">
<path fill-rule="evenodd" clip-rule="evenodd" fill="#808080" d="M0.493,228.722L0,227.855c1.146-0.652,2.279-1.346,3.412-2.038
	l0.52,0.839C2.799,227.376,1.653,228.056,0.493,228.722z M7.304,224.471l-0.56-0.826c1.093-0.746,2.173-1.519,3.239-2.305l0.6,0.812
	C9.503,222.938,8.41,223.711,7.304,224.471z M13.768,219.699l-0.626-0.772c1.039-0.827,2.065-1.68,3.079-2.546l0.64,0.76
	C15.847,218.021,14.821,218.873,13.768,219.699z M19.873,214.476l-0.68-0.734c0.973-0.906,1.932-1.825,2.865-2.758l0.707,0.72
	C21.818,212.635,20.845,213.569,19.873,214.476z M25.577,208.824l-0.733-0.693c0.906-0.96,1.799-1.946,2.679-2.946l0.746,0.666
	C27.39,206.851,26.483,207.851,25.577,208.824z M30.868,202.786l-0.773-0.626c0.854-1.026,1.68-2.067,2.493-3.119l0.786,0.613
	C32.561,200.72,31.721,201.759,30.868,202.786z M35.772,196.428l-0.813-0.586c0.773-1.065,1.533-2.158,2.281-3.265l0.825,0.573
	C37.317,194.257,36.559,195.35,35.772,196.428z M40.265,189.791l-0.841-0.545c0.708-1.106,1.4-2.24,2.093-3.387l0.854,0.507
	C41.691,187.525,40.983,188.658,40.265,189.791z M44.37,182.888l-0.867-0.48c0.641-1.158,1.279-2.332,1.893-3.505l0.88,0.467
	C45.662,180.555,45.023,181.728,44.37,182.888z M48.102,175.783l-0.907-0.439c0.587-1.186,1.161-2.386,1.707-3.599l0.919,0.413
	C49.261,173.385,48.688,174.585,48.102,175.783z M51.446,168.493l-0.92-0.388c0.521-1.226,1.041-2.452,1.533-3.691l0.933,0.374
	C52.486,166.041,51.966,167.268,51.446,168.493z M54.445,161.057l-0.946-0.347c0.466-1.24,0.919-2.493,1.358-3.759l0.948,0.333
	C55.365,158.55,54.912,159.817,54.445,161.057z M57.083,153.486l-0.944-0.307c0.412-1.253,0.812-2.533,1.198-3.799l0.96,0.279
	C57.898,150.953,57.497,152.219,57.083,153.486z M59.416,145.823l-0.958-0.281c0.346-1.266,0.692-2.56,1.025-3.852l0.974,0.254
	C60.124,143.25,59.776,144.529,59.416,145.823z M61.415,138.053l-0.973-0.227c0.307-1.294,0.601-2.586,0.894-3.892l0.972,0.212
	C62.029,135.452,61.723,136.759,61.415,138.053z M63.123,130.228l-0.974-0.199c0.252-1.292,0.491-2.612,0.732-3.919l0.986,0.175
	C63.628,127.604,63.389,128.922,63.123,130.228z M64.535,122.337l-0.987-0.158c0.214-1.307,0.413-2.627,0.601-3.946l0.986,0.148
	C64.947,119.699,64.747,121.019,64.535,122.337z M65.667,114.408l-0.985-0.133c0.159-1.32,0.319-2.64,0.466-3.959l0.987,0.107
	C65.987,111.756,65.84,113.075,65.667,114.408z M66.534,106.438l-1-0.093c0.133-1.319,0.24-2.652,0.333-3.972l1,0.066
	C66.773,103.772,66.654,105.104,66.534,106.438z M67.134,98.44l-0.986-0.053c0.066-1.319,0.146-2.652,0.2-3.985l1,0.04
	C67.28,95.789,67.214,97.122,67.134,98.44z M67.493,90.444l-0.999-0.026c0.04-1.333,0.067-2.666,0.08-3.999l1,0.013
	C67.561,87.778,67.533,89.111,67.493,90.444z M66.562,78.436l0.999-0.013c0.026,1.346,0.026,2.679,0.039,4.012h-0.999
	C66.588,81.101,66.588,79.769,66.562,78.436z M66.307,70.465l0.999-0.053c0.068,1.347,0.121,2.679,0.162,4.012l-1,0.026
	C66.428,73.131,66.374,71.798,66.307,70.465z M65.84,62.495l0.987-0.08c0.106,1.346,0.188,2.679,0.267,3.998l-0.986,0.066
	C66.027,65.147,65.934,63.828,65.84,62.495z M65.135,54.538l1-0.093c0.133,1.333,0.252,2.652,0.372,3.985l-1,0.079
	C65.4,57.191,65.268,55.871,65.135,54.538z M64.215,46.608l0.999-0.12c0.16,1.319,0.334,2.652,0.48,3.972l-0.986,0.12
	C64.548,49.26,64.388,47.941,64.215,46.608z M63.081,38.705l0.986-0.146c0.214,1.319,0.414,2.639,0.601,3.958l-0.985,0.147
	C63.481,41.344,63.295,40.024,63.081,38.705z M61.735,30.841l0.986-0.187c0.239,1.32,0.48,2.639,0.707,3.945l-0.986,0.174
	C62.216,33.467,61.975,32.147,61.735,30.841z M60.188,23.004l0.974-0.2c0.28,1.307,0.547,2.613,0.8,3.919l-0.973,0.2
	C60.735,25.617,60.457,24.311,60.188,23.004z M58.431,15.221l0.972-0.227c0.308,1.293,0.615,2.599,0.906,3.892l-0.973,0.227
	C59.044,17.82,58.736,16.514,58.431,15.221z M57.472,11.343l-0.573-2.186l-3.373,0.893L55.005,0l6.251,7.997l-3.385,0.906
	l0.572,2.199L57.472,11.343z"/>
</svg>
