<?xml version="1.0" encoding="utf-8"?>
<!-- Generator: Adobe Illustrator 16.2.0, SVG Export Plug-In . SVG Version: 6.00 Build 0)  -->
<!DOCTYPE svg PUBLIC "-//W3C//DTD SVG 1.1//EN" "http://www.w3.org/Graphics/SVG/1.1/DTD/svg11.dtd">
<svg preserveAspectRatio="none" version="1.1" id="Layer_1" xmlns="http://www.w3.org/2000/svg" xmlns:xlink="http://www.w3.org/1999/xlink" x="0px" y="0px"
	 width="591px" height="32.237px" viewBox="0 0 591 32.237" enable-background="new 0 0 591 32.237" xml:space="preserve">
<g>
	<polygon fill-rule="evenodd" clip-rule="evenodd" fill="#CCCCCC" points="0,32.237 0,23.198 0.786,23.171 24.425,20.651 
		49.637,19.691 147.323,19.385 171.748,16.852 197.746,13.692 221.385,13.065 247.383,11.799 271.022,12.438 294.66,11.479 
		393.933,2.639 419.145,2.333 443.571,2.639 467.982,13.812 492.407,13.185 566.469,3.28 590.88,1.386 590.88,32.237 	"/>
	<polygon fill-rule="evenodd" clip-rule="evenodd" fill="#DD0000" points="0.907,24.558 0.613,21.785 24.252,19.265 24.345,19.251 
		49.583,18.305 147.23,17.999 171.575,15.479 197.573,12.319 197.707,12.305 221.319,11.679 247.303,10.412 247.41,10.412 
		270.995,11.039 294.554,10.092 393.801,1.266 393.907,1.252 419.132,0.933 443.571,1.252 444.13,1.386 468.261,12.412 
		492.3,11.799 566.282,1.893 566.362,1.893 590.787,0 591,2.772 566.615,4.653 492.593,14.559 492.447,14.572 468.022,15.198 
		467.409,15.078 443.25,4.026 419.132,3.719 393.987,4.04 294.767,12.865 294.7,12.878 271.062,13.825 270.969,13.825 
		247.383,13.198 221.425,14.452 197.84,15.078 171.895,18.238 147.457,20.758 147.31,20.771 49.637,21.092 24.505,22.038 	"/>
</g>
</svg>
