<?xml version="1.0" encoding="utf-8"?>
<!-- Generator: Adobe Illustrator 16.2.0, SVG Export Plug-In . SVG Version: 6.00 Build 0)  -->
<!DOCTYPE svg PUBLIC "-//W3C//DTD SVG 1.1//EN" "http://www.w3.org/Graphics/SVG/1.1/DTD/svg11.dtd">
<svg version="1.1" id="Layer_1" xmlns="http://www.w3.org/2000/svg" xmlns:xlink="http://www.w3.org/1999/xlink" x="0px" y="0px"
	 width="162.3px" height="162.301px" viewBox="0 0 162.3 162.301" enable-background="new 0 0 162.3 162.301" xml:space="preserve">
<path fill-rule="evenodd" clip-rule="evenodd" fill="#808080" d="M81.245,162.301v-1c1.333,0,2.652-0.027,3.973-0.092l0.054,1
	C83.937,162.273,82.591,162.301,81.245,162.301z M73.204,161.927l0.093-0.999c1.32,0.133,2.641,0.227,3.974,0.294l-0.053,0.987
	C75.871,162.154,74.537,162.047,73.204,161.927z M89.285,161.901l-0.107-0.987c1.333-0.133,2.641-0.307,3.946-0.493l0.147,0.986
	C91.951,161.606,90.618,161.769,89.285,161.901z M65.244,160.741l0.2-0.974c1.293,0.253,2.6,0.479,3.92,0.681l-0.146,0.986
	C67.884,161.235,66.563,161.009,65.244,160.741z M97.231,160.714l-0.186-0.987c1.292-0.252,2.585-0.56,3.867-0.879l0.252,0.973
	C99.871,160.141,98.551,160.448,97.231,160.714z M57.443,158.781l0.293-0.947c1.267,0.387,2.533,0.733,3.827,1.054l-0.24,0.973
	C60.016,159.542,58.723,159.182,57.443,158.781z M105.033,158.727l-0.295-0.945c1.28-0.401,2.534-0.814,3.774-1.268l0.347,0.935
	C107.592,157.914,106.325,158.341,105.033,158.727z M49.869,156.047l0.387-0.92c1.227,0.521,2.453,1.001,3.707,1.44l-0.333,0.947
	C52.362,157.06,51.109,156.567,49.869,156.047z M112.605,155.98l-0.401-0.921c1.228-0.518,2.441-1.065,3.629-1.64l0.44,0.908
	C115.059,154.914,113.845,155.461,112.605,155.98z M42.616,152.58l0.479-0.879c1.161,0.627,2.333,1.226,3.534,1.798l-0.427,0.908
	C44.989,153.833,43.789,153.222,42.616,152.58z M119.846,152.486l-0.467-0.865c1.158-0.641,2.306-1.308,3.44-1.987l0.519,0.853
	C122.192,151.181,121.033,151.847,119.846,152.486z M35.735,148.407l0.56-0.827c1.094,0.748,2.214,1.453,3.347,2.146l-0.52,0.854
	C37.975,149.888,36.842,149.153,35.735,148.407z M126.726,148.301l-0.572-0.827c1.106-0.747,2.172-1.52,3.239-2.32l0.6,0.801
	C128.926,146.769,127.833,147.554,126.726,148.301z M29.308,143.567l0.627-0.761c1.026,0.84,2.066,1.667,3.12,2.467l-0.601,0.8
	C31.389,145.261,30.335,144.435,29.308,143.567z M133.14,143.461l-0.64-0.774c1.013-0.854,2.012-1.72,2.986-2.627l0.68,0.733
	C135.179,141.713,134.167,142.593,133.14,143.461z M23.375,138.127l0.72-0.692c0.92,0.932,1.88,1.853,2.853,2.759l-0.679,0.732
	C25.281,140.021,24.322,139.086,23.375,138.127z M139.059,137.994l-0.72-0.694c0.934-0.946,1.841-1.92,2.721-2.908l0.747,0.667
	C140.914,136.059,139.994,137.033,139.059,137.994z M18.014,132.127l0.773-0.628c0.84,1.027,1.693,2.042,2.574,3.027l-0.734,0.667
	C19.734,134.193,18.855,133.18,18.014,132.127z M144.407,131.979l-0.786-0.627c0.839-1.025,1.641-2.08,2.413-3.146l0.813,0.586
	C146.06,129.873,145.248,130.939,144.407,131.979z M13.268,125.633l0.84-0.547c0.733,1.107,1.48,2.2,2.267,3.267l-0.813,0.587
	C14.774,127.859,14.014,126.752,13.268,125.633z M149.126,125.473l-0.826-0.548c0.72-1.106,1.414-2.226,2.093-3.371l0.855,0.505
	C150.567,123.206,149.86,124.353,149.126,125.473z M9.188,118.698l0.894-0.465c0.613,1.173,1.253,2.333,1.92,3.479l-0.854,0.508
	C10.468,121.059,9.814,119.887,9.188,118.698z M153.194,118.525l-0.881-0.452c0.602-1.175,1.188-2.375,1.747-3.575l0.906,0.414
	C154.407,116.139,153.821,117.339,153.194,118.525z M5.828,111.392l0.92-0.373c0.493,1.227,1.026,2.44,1.574,3.642l-0.907,0.426
	C6.854,113.873,6.321,112.632,5.828,111.392z M156.553,111.22l-0.933-0.374c0.493-1.227,0.946-2.468,1.387-3.733l0.947,0.333
	C157.514,108.712,157.047,109.979,156.553,111.22z M3.2,103.779l0.96-0.281c0.36,1.281,0.76,2.546,1.2,3.788l-0.947,0.332
	C3.974,106.352,3.574,105.072,3.2,103.779z M159.155,103.604l-0.962-0.278c0.374-1.269,0.708-2.547,1.001-3.842l0.974,0.227
	C159.86,101.018,159.527,102.312,159.155,103.604z M1.347,95.952l0.974-0.187c0.24,1.306,0.52,2.612,0.826,3.893l-0.973,0.228
	C1.867,98.591,1.587,97.271,1.347,95.952z M160.995,95.766l-0.987-0.175c0.241-1.306,0.44-2.612,0.613-3.933l1,0.133
	C161.433,93.124,161.235,94.459,160.995,95.766z M0.28,87.978l0.987-0.079c0.12,1.32,0.266,2.641,0.439,3.946l-1,0.133
	C0.534,90.658,0.387,89.325,0.28,87.978z M162.035,87.791l-0.986-0.08c0.106-1.32,0.173-2.64,0.214-3.974l0.999,0.04
	C162.221,85.124,162.142,86.458,162.035,87.791z M0,81.151c0-1.347,0.027-2.693,0.093-4.027l1,0.053C1.027,78.497,1,79.818,1,81.151
	c0,0.933,0.013,1.854,0.04,2.773l-1,0.027C0.013,83.031,0,82.084,0,81.151z M161.127,75.791l1-0.067
	c0.094,1.333,0.147,2.68,0.173,4.027l-1,0.014C161.274,78.431,161.221,77.11,161.127,75.791z M1.387,73.217l-1-0.106
	c0.133-1.333,0.292-2.667,0.493-3.987l0.987,0.146C1.68,70.577,1.507,71.884,1.387,73.217z M160.221,67.897l0.986-0.161
	c0.212,1.32,0.399,2.641,0.559,3.987l-0.999,0.107C160.621,70.51,160.433,69.204,160.221,67.897z M2.547,65.35l-0.974-0.2
	c0.267-1.32,0.561-2.627,0.88-3.92l0.973,0.24C3.107,62.75,2.814,64.043,2.547,65.35z M158.513,60.136l0.975-0.266
	c0.346,1.293,0.667,2.6,0.96,3.906l-0.987,0.214C159.181,62.696,158.86,61.403,158.513,60.136z M4.494,57.643L3.547,57.35
	c0.387-1.28,0.813-2.56,1.266-3.813l0.947,0.346C5.308,55.123,4.894,56.376,4.494,57.643z M156.061,52.576l0.933-0.36
	c0.481,1.253,0.922,2.521,1.347,3.801l-0.959,0.306C156.966,55.056,156.526,53.816,156.061,52.576z M7.2,50.176L6.28,49.79
	c0.521-1.241,1.081-2.467,1.654-3.667l0.906,0.427C8.268,47.736,7.721,48.95,7.2,50.176z M152.86,45.309l0.894-0.453
	c0.601,1.2,1.175,2.414,1.707,3.64l-0.906,0.401C154.007,47.683,153.447,46.483,152.86,45.309z M10.641,43.002l-0.88-0.466
	c0.64-1.187,1.306-2.347,2.013-3.494l0.853,0.52C11.935,40.695,11.281,41.843,10.641,43.002z M148.94,38.389l0.854-0.533
	c0.72,1.133,1.399,2.28,2.066,3.453l-0.88,0.494C150.34,40.642,149.646,39.509,148.94,38.389z M14.774,36.215l-0.827-0.56
	c0.747-1.106,1.533-2.2,2.346-3.267l0.787,0.601C16.294,34.042,15.521,35.122,14.774,36.215z M144.368,31.882l0.786-0.613
	c0.825,1.054,1.627,2.133,2.399,3.241l-0.813,0.573C145.979,33.988,145.18,32.936,144.368,31.882z M19.561,29.869l-0.773-0.641
	c0.854-1.026,1.747-2.04,2.654-3.027l0.733,0.68C21.281,27.855,20.401,28.855,19.561,29.869z M139.179,25.869l0.721-0.693
	c0.933,0.973,1.827,1.973,2.707,2.986l-0.761,0.654C140.979,27.815,140.086,26.828,139.179,25.869z M24.935,24.028l-0.693-0.72
	c0.947-0.933,1.933-1.853,2.933-2.747l0.667,0.746C26.855,22.188,25.882,23.095,24.935,24.028z M133.418,20.388l0.654-0.747
	c1.013,0.867,2.013,1.773,2.987,2.693l-0.693,0.72C135.406,22.148,134.418,21.255,133.418,20.388z M30.868,18.735l-0.626-0.773
	c1.04-0.84,2.106-1.667,3.2-2.453l0.586,0.813C32.949,17.095,31.909,17.908,30.868,18.735z M127.153,15.508l0.573-0.814
	c1.094,0.773,2.173,1.561,3.227,2.387l-0.613,0.787C129.299,17.055,128.232,16.268,127.153,15.508z M37.295,14.055l-0.546-0.84
	c1.12-0.733,2.267-1.44,3.414-2.12l0.506,0.867C39.535,12.627,38.402,13.334,37.295,14.055z M120.418,11.268l0.495-0.867
	c1.171,0.653,2.318,1.346,3.453,2.054l-0.534,0.853C122.726,12.601,121.581,11.921,120.418,11.268z M44.149,10.041l-0.454-0.893
	c1.188-0.613,2.387-1.214,3.614-1.773l0.414,0.907C46.509,8.841,45.323,9.428,44.149,10.041z M113.312,7.721l0.399-0.92
	c1.241,0.547,2.454,1.106,3.654,1.707l-0.453,0.893C115.725,8.814,114.525,8.254,113.312,7.721z M51.376,6.721l-0.374-0.933
	c1.24-0.493,2.494-0.974,3.773-1.4l0.32,0.947C53.842,5.761,52.603,6.228,51.376,6.721z M105.885,4.895l0.306-0.96
	c1.281,0.414,2.548,0.866,3.802,1.347l-0.361,0.933C108.405,5.734,107.153,5.294,105.885,4.895z M58.883,4.134l-0.28-0.959
	c1.293-0.374,2.587-0.72,3.894-1.027l0.239,0.973C61.443,3.428,60.149,3.761,58.883,4.134z M98.218,2.814l0.212-0.974
	c1.32,0.28,2.614,0.6,3.908,0.947l-0.254,0.974C100.806,3.414,99.511,3.094,98.218,2.814z M66.616,2.307l-0.173-0.986
	c1.307-0.24,2.64-0.44,3.974-0.627l0.133,1C69.23,1.868,67.923,2.067,66.616,2.307z M90.377,1.521l0.107-1
	c1.346,0.16,2.68,0.347,3.987,0.56l-0.161,0.987C93.005,1.854,91.698,1.667,90.377,1.521z M74.497,1.268l-0.08-1
	C75.75,0.16,77.084,0.08,78.43,0.041l0.04,1C77.137,1.081,75.817,1.161,74.497,1.268z M82.444,1l0.013-1
	c1.348,0.027,2.694,0.08,4.028,0.16l-0.067,1C85.097,1.081,83.777,1.027,82.444,1z"/>
</svg>
