<?xml version="1.0" encoding="utf-8"?>
<!-- Generator: Adobe Illustrator 16.2.0, SVG Export Plug-In . SVG Version: 6.00 Build 0)  -->
<!DOCTYPE svg PUBLIC "-//W3C//DTD SVG 1.1//EN" "http://www.w3.org/Graphics/SVG/1.1/DTD/svg11.dtd">
<svg version="1.1" id="Layer_1" xmlns="http://www.w3.org/2000/svg" xmlns:xlink="http://www.w3.org/1999/xlink" x="0px" y="0px"
	 width="960px" height="33.106px" viewBox="0 0 960 33.106" enable-background="new 0 0 960 33.106" xml:space="preserve">
<g>
	<path fill-rule="evenodd" clip-rule="evenodd" d="M0,33.106V0h96.067v33.106H0z M97.067,33.106V0h144.747v33.106H97.067z
		 M242.813,33.106V0h144.493v33.106H242.813z M388.307,33.106V0h144.506v33.106H388.307z M533.813,33.106V0h144.494v33.106H533.813z
		 M679.307,33.106V0H960v33.106H679.307z"/>
	<g>
		<g>
			<path fill-rule="evenodd" clip-rule="evenodd" fill="#FFFFFF" d="M35.626,26.546V22.36h-8.32V12.133H43.96V22.36l0,0v4.186
				H35.626z M27.253,8.706v-3H43.96v3H27.253z"/>
		</g>
		<g>
			<polygon fill-rule="evenodd" clip-rule="evenodd" fill="#DD0000" points="43.907,26.546 43.907,22.36 43.907,22.36 
				43.907,12.133 56.173,12.133 50.987,8.706 43.907,8.706 43.907,5.706 52.227,5.706 77.333,22.36 52.24,22.36 52.24,26.546 			"/>
		</g>
	</g>
	<path fill-rule="evenodd" clip-rule="evenodd" fill="#DD0000" d="M919.266,8.093c4.787-4.773,12.534-4.773,17.32,0
		c4.773,4.787,4.773,12.534,0,17.32c-4.787,4.773-12.533,4.773-17.32,0C914.493,20.627,914.493,12.879,919.266,8.093z"/>
	<path fill-rule="evenodd" clip-rule="evenodd" fill="#FFFFFF" d="M924.439,24.72l-0.146-1.88c-0.28,0.64-1.12,1.133-1.667,0.706
		l-2.573-2.56c-0.467-0.546-0.374-1.373,0-2.054l2.64-4.079c0.533-0.613,1.239-1.08,2.387-1.08h0.453l1.827,4.319l-0.667,1.827
		c-0.054,0.133,0.013,0.28,0.146,0.32l1.213,0.44c0.12,0.053,0.266-0.014,0.32-0.147l0.733-2.013
		c0.053-0.121-0.013-0.267-0.146-0.32l-0.453-0.16l1.8-4.266h0.453c1.146,0,1.854,0.467,2.399,1.08l2.627,4.079
		c0.373,0.681,0.467,1.507,0,2.054l-2.56,2.56c-0.547,0.427-1.4-0.066-1.667-0.706l-0.146,1.88H924.439z M924.227,21.973l-0.36-4.6
		l-1.747,2.467l2.093,2.106C924.213,21.96,924.213,21.96,924.227,21.973z M931.626,21.946l2.107-2.106l-1.76-2.467l-0.347,4.6
		C931.626,21.96,931.626,21.96,931.626,21.946z M927.92,17.747l-1.667-3.973h3.347L927.92,17.747z M925.04,10.44
		c0-1.6,1.293-2.894,2.88-2.894c1.6,0,2.893,1.294,2.893,2.894c0,1.586-1.293,2.893-2.893,2.893
		C926.333,13.333,925.04,12.026,925.04,10.44z"/>
	<g>
		<path fill="#FFFFFF" d="M159.293,24.399c-0.146-0.026-0.333-0.066-0.533-0.12l0.24-1.506c0.053,0.013,0.12,0.013,0.187,0.026
			c0.08,0.013,0.133,0.013,0.2,0.013c0.333,0,0.6-0.08,0.787-0.253c0.173-0.16,0.32-0.373,0.413-0.627l0.253-0.586l-2.72-7.653
			h2.213l1.307,4.44l0.08,0.426h0.04l1.467-4.866h2.227l-3.107,8.8c-0.227,0.546-0.52,1.013-0.893,1.386
			c-0.374,0.374-0.933,0.561-1.68,0.561C159.6,24.44,159.44,24.426,159.293,24.399z M338.36,24.28v-10.6h1.866l0.12,0.906
			c0.227-0.333,0.506-0.6,0.813-0.773c0.32-0.186,0.693-0.28,1.12-0.28c0.947,0,1.68,0.374,2.213,1.12
			c0.521,0.734,0.787,1.707,0.787,2.92v0.146c0,1.134-0.267,2.04-0.787,2.733c-0.533,0.693-1.266,1.04-2.2,1.04
			c-0.399,0-0.76-0.08-1.066-0.227c-0.307-0.146-0.573-0.373-0.8-0.653v3.667H338.36z M436.906,24.28v-10.6h1.867l0.12,0.906
			c0.227-0.333,0.494-0.6,0.813-0.773c0.32-0.186,0.693-0.28,1.12-0.28c0.947,0,1.68,0.374,2.201,1.12
			c0.52,0.734,0.786,1.707,0.786,2.92v0.146c0,1.134-0.267,2.04-0.786,2.733c-0.521,0.693-1.254,1.04-2.187,1.04
			c-0.4,0-0.76-0.08-1.08-0.227c-0.307-0.146-0.574-0.373-0.8-0.653v3.667H436.906z M593.586,23.866v-2.533h-5.707V13.68h2.067
			v6.066h2.533V13.68h2.066v6.066h1.106v4.12H593.586z M321.027,23.627l-0.174-3.894h0.667c0.467-0.493,0.787-0.973,0.947-1.439
			c0.16-0.48,0.253-1.147,0.28-2.041l0.04-2.573h5.64v6.066h1.106l-0.133,3.88h-1.92v-2.294h-4.533v2.294H321.027z M139.533,20.413
			c-0.64-0.72-0.96-1.667-0.96-2.813v-0.146c0-1.146,0.32-2.08,0.96-2.813c0.64-0.72,1.52-1.094,2.653-1.094
			c1.133,0,2.013,0.374,2.653,1.094c0.64,0.733,0.96,1.667,0.96,2.813V17.6c0,1.147-0.32,2.094-0.96,2.813
			c-0.627,0.72-1.52,1.093-2.64,1.093C141.067,21.506,140.173,21.133,139.533,20.413z M175.147,20.44c-0.667-0.707-1-1.613-1-2.693
			v-0.293c0-1.134,0.32-2.066,0.947-2.8c0.627-0.746,1.453-1.107,2.507-1.107c1.04,0,1.84,0.32,2.413,0.934
			c0.573,0.627,0.854,1.467,0.854,2.534v1.12h-4.573l-0.013,0.04c0.04,0.507,0.213,0.92,0.507,1.253
			c0.293,0.32,0.707,0.48,1.227,0.48c0.453,0,0.827-0.041,1.134-0.133c0.307-0.093,0.64-0.24,0.987-0.44l0.56,1.28
			c-0.307,0.253-0.72,0.467-1.214,0.64c-0.507,0.16-1.067,0.253-1.693,0.253C176.68,21.506,175.8,21.146,175.147,20.44z
			 M289.88,20.866c-0.439-0.413-0.653-0.973-0.653-1.693c0-0.747,0.293-1.319,0.867-1.733c0.586-0.414,1.426-0.627,2.533-0.627
			h1.147V16.2c0-0.36-0.094-0.654-0.28-0.853c-0.2-0.2-0.48-0.307-0.853-0.307c-0.347,0-0.6,0.08-0.787,0.254
			c-0.173,0.16-0.266,0.387-0.266,0.667h-2v-0.04c-0.041-0.654,0.239-1.214,0.84-1.68c0.586-0.467,1.374-0.707,2.347-0.707
			c0.906,0,1.653,0.24,2.227,0.707c0.573,0.453,0.853,1.12,0.853,1.973v3.174c0,0.36,0.027,0.693,0.08,1.013
			c0.053,0.307,0.147,0.627,0.267,0.934h-2.066c-0.08-0.173-0.147-0.347-0.201-0.547c-0.053-0.2-0.093-0.387-0.12-0.6
			c-0.214,0.373-0.494,0.68-0.84,0.933c-0.347,0.24-0.761,0.374-1.24,0.374C290.933,21.493,290.32,21.28,289.88,20.866z
			 M306.293,20.426c-0.653-0.707-0.986-1.613-0.986-2.693V17.44c0-1.133,0.307-2.067,0.933-2.8c0.627-0.747,1.467-1.106,2.52-1.106
			c1.027,0,1.84,0.32,2.4,0.934c0.574,0.626,0.867,1.466,0.867,2.533v1.12h-4.574l-0.013,0.041c0.04,0.506,0.2,0.92,0.507,1.253
			c0.293,0.32,0.706,0.48,1.213,0.48c0.467,0,0.84-0.04,1.147-0.133c0.293-0.093,0.626-0.24,0.986-0.44l0.56,1.28
			c-0.307,0.254-0.72,0.467-1.227,0.641c-0.507,0.159-1.066,0.253-1.68,0.253C307.84,21.493,306.96,21.133,306.293,20.426z
			 M330.826,20.866c-0.439-0.413-0.653-0.973-0.653-1.693c0-0.747,0.293-1.319,0.867-1.733c0.586-0.414,1.427-0.627,2.533-0.627
			h1.147V16.2c0-0.36-0.094-0.654-0.281-0.853c-0.2-0.2-0.479-0.307-0.853-0.307c-0.347,0-0.601,0.08-0.787,0.254
			c-0.174,0.16-0.267,0.387-0.267,0.667h-2v-0.04c-0.04-0.654,0.24-1.214,0.84-1.68c0.587-0.467,1.374-0.707,2.347-0.707
			c0.906,0,1.653,0.24,2.227,0.707c0.573,0.453,0.854,1.12,0.854,1.973v3.174c0,0.36,0.026,0.693,0.08,1.013
			c0.053,0.307,0.147,0.627,0.254,0.934h-2.067c-0.066-0.173-0.133-0.347-0.187-0.547c-0.054-0.2-0.093-0.387-0.12-0.6
			c-0.213,0.373-0.493,0.68-0.84,0.933c-0.347,0.24-0.76,0.374-1.24,0.374C331.88,21.493,331.253,21.28,330.826,20.866z
			 M420.986,21.479c-0.146-0.013-0.266-0.013-0.333-0.026l-0.013-1.587c0.053,0.013,0.133,0.013,0.266,0.027
			c0.133,0,0.227,0,0.293,0c0.373,0,0.653-0.08,0.84-0.24c0.187-0.173,0.347-0.413,0.467-0.746l0.16-0.4l-3.64-7.48h2.239
			l2.107,4.587l0.16,0.547h0.04l1.947-5.134h2.187l-3.521,8.36c-0.293,0.667-0.653,1.187-1.053,1.56
			c-0.4,0.36-0.987,0.547-1.733,0.547C421.28,21.493,421.146,21.479,420.986,21.479z M445.333,20.866
			c-0.427-0.413-0.654-0.973-0.654-1.693c0-0.747,0.293-1.319,0.867-1.733c0.587-0.414,1.427-0.627,2.534-0.627h1.16V16.2
			c0-0.36-0.106-0.654-0.293-0.853c-0.187-0.2-0.48-0.307-0.854-0.307c-0.333,0-0.601,0.08-0.773,0.254
			c-0.187,0.16-0.28,0.387-0.28,0.667h-2v-0.04c-0.04-0.654,0.24-1.214,0.84-1.68c0.601-0.467,1.374-0.707,2.347-0.707
			c0.92,0,1.653,0.24,2.227,0.707c0.574,0.453,0.854,1.12,0.854,1.973v3.174c0,0.36,0.027,0.693,0.08,1.013
			c0.053,0.307,0.146,0.627,0.266,0.934h-2.066c-0.08-0.173-0.147-0.347-0.2-0.547c-0.053-0.2-0.094-0.387-0.121-0.6
			c-0.213,0.373-0.479,0.68-0.827,0.933c-0.346,0.24-0.773,0.374-1.253,0.374C446.387,21.493,445.773,21.28,445.333,20.866z
			 M474.213,20.426c-0.653-0.707-0.986-1.613-0.986-2.693V17.44c0-1.133,0.32-2.067,0.933-2.8c0.627-0.747,1.467-1.106,2.52-1.106
			c1.041,0,1.84,0.32,2.414,0.934c0.573,0.626,0.854,1.466,0.854,2.533v1.12h-4.574l-0.013,0.041c0.04,0.506,0.2,0.92,0.507,1.253
			c0.293,0.32,0.706,0.48,1.227,0.48c0.453,0,0.827-0.04,1.133-0.133c0.307-0.093,0.626-0.24,0.986-0.44l0.56,1.28
			c-0.306,0.254-0.72,0.467-1.227,0.641c-0.493,0.159-1.066,0.253-1.68,0.253C475.76,21.493,474.879,21.133,474.213,20.426z
			 M580.986,20.426c-0.667-0.707-1-1.613-1-2.693V17.44c0-1.133,0.32-2.067,0.947-2.8c0.627-0.747,1.454-1.106,2.506-1.106
			c1.041,0,1.84,0.32,2.414,0.934c0.573,0.626,0.854,1.466,0.854,2.533v1.12h-4.573l-0.014,0.041c0.04,0.506,0.214,0.92,0.507,1.253
			c0.293,0.32,0.707,0.48,1.227,0.48c0.454,0,0.827-0.04,1.133-0.133c0.307-0.093,0.64-0.24,0.987-0.44l0.56,1.28
			c-0.307,0.254-0.72,0.467-1.213,0.641c-0.507,0.159-1.066,0.253-1.693,0.253C582.52,21.493,581.64,21.133,580.986,20.426z
			 M597.48,20.426c-0.654-0.707-0.987-1.613-0.987-2.693V17.44c0-1.133,0.308-2.067,0.934-2.8c0.627-0.747,1.467-1.106,2.521-1.106
			c1.026,0,1.84,0.32,2.399,0.934c0.574,0.626,0.867,1.466,0.867,2.533v1.12h-4.573l-0.014,0.041c0.04,0.506,0.2,0.92,0.507,1.253
			c0.293,0.32,0.707,0.48,1.213,0.48c0.467,0,0.84-0.04,1.146-0.133c0.294-0.093,0.627-0.24,0.987-0.44l0.56,1.28
			c-0.307,0.254-0.72,0.467-1.227,0.641c-0.506,0.159-1.066,0.253-1.68,0.253C599.027,21.493,598.146,21.133,597.48,20.426z
			 M126.413,21.347V11.04h2.693l2.626,7.6h0.053l2.64-7.6h2.707v10.307h-2.067V18.28l0.2-4.547l-0.04-0.013l-2.76,7.627h-1.4
			l-2.733-7.6l-0.053,0.013l0.2,4.52v3.067H126.413z M147.04,21.347v-7.653h2.067v4.653l0.04,0.013l2.506-4.667h2.053v7.653h-2.053
			V16.68l-0.04-0.014l-2.507,4.68H147.04z M170.787,21.347V18.92c-0.173,0.04-0.347,0.066-0.533,0.08
			c-0.187,0.026-0.347,0.026-0.52,0.026c-1.12,0-1.987-0.24-2.6-0.72c-0.613-0.48-0.92-1.214-0.92-2.214v-2.399h2.067v2.399
			c0,0.507,0.106,0.867,0.333,1.054c0.227,0.2,0.6,0.293,1.12,0.293c0.187,0,0.36-0.014,0.52-0.027
			c0.173-0.026,0.36-0.053,0.533-0.094v-3.626h2.067v7.653H170.787z M182.04,21.347v-7.653h2.067v3.093h2.52v-3.093h2.067v7.653
			h-2.067v-2.96h-2.52v2.96H182.04z M190.213,21.347v-7.653h2.08v4.653l0.041,0.013l2.493-4.667h2.067v7.653h-2.067V16.68
			l-0.04-0.014l-2.494,4.68H190.213z M198.56,21.347v-7.653h2.066v2.92h0.72l1.654-2.92h2.613l-2.506,3.613l2.733,4.04h-2.76
			l-1.667-2.867h-0.787v2.867H198.56z M206.533,21.347v-7.653h2.066v4.653l0.041,0.013l2.493-4.667h2.066v7.653h-2.066V16.68
			l-0.04-0.014l-2.494,4.68H206.533z M280.44,21.333V11.026h2.066v4.214h0.893l2.734-4.214h2.533l-3.48,4.8l3.747,5.506h-2.52
			l-2.76-4.293h-1.146v4.293H280.44z M296.76,21.333l-0.026-1.627h0.213c0.48,0,0.787-0.2,0.92-0.586
			c0.146-0.387,0.213-1.106,0.213-2.173V13.68h5.974v7.653h-2.067v-6.067h-1.84v1.667c0,1.521-0.227,2.627-0.693,3.333
			c-0.453,0.72-1.253,1.067-2.373,1.067H296.76z M313.187,21.333V13.68h2.067v3.093h2.52V13.68h2.066v7.653h-2.066v-2.96h-2.52v2.96
			H313.187z M346.667,21.333V13.68h2.08v2.48h1.439c1.027,0,1.827,0.227,2.427,0.706c0.586,0.48,0.879,1.094,0.879,1.867
			c0,0.773-0.293,1.414-0.879,1.88c-0.6,0.479-1.4,0.72-2.427,0.72H346.667z M428.68,21.333V13.68h6.68v7.653h-2.067v-6.067h-2.533
			v6.067H428.68z M452.266,21.333l2.467-4.146l-2.346-3.506h2.6l1.547,2.879h0.747V13.68h2.054v2.879h0.76l1.547-2.879h2.6
			l-2.347,3.506l2.467,4.146h-2.64l-1.48-2.88h-0.906v2.88h-2.054v-2.88h-0.893l-1.48,2.88H452.266z M465.253,21.333V13.68h2.066
			v3.093h2.52V13.68h2.066v7.653h-2.066v-2.96h-2.52v2.96H465.253z M481.12,21.333V13.68h2.066v3.093h2.521V13.68h2.066v7.653
			h-2.066v-2.96h-2.521v2.96H481.12z M489.293,21.333V13.68h2.067v4.653l0.04,0.014l2.506-4.667h2.053v7.653h-2.053v-4.667
			l-0.04-0.014l-2.507,4.68H489.293z M497.08,21.333l1.693-3.014c-0.466-0.213-0.826-0.493-1.08-0.866
			c-0.254-0.36-0.374-0.773-0.374-1.24c0-0.733,0.293-1.347,0.893-1.826c0.587-0.467,1.387-0.707,2.387-0.707h3.374v7.653h-2.053
			v-2.68h-1.24l-1.506,2.68H497.08z M570.959,21.333V11.026h4.107c1.187,0,2.12,0.307,2.8,0.906c0.68,0.613,1.013,1.4,1.013,2.387
			c0,0.987-0.333,1.787-1.013,2.387c-0.681,0.601-1.613,0.894-2.8,0.894h-2.04v3.733H570.959z M604.373,21.333V13.68h6.667v7.653
			h-2.066v-6.067h-2.534v6.067H604.373z M614.56,21.333v-6.08h-2.414V13.68h6.934v1.573h-2.454v6.08H614.56z M620.426,21.333V13.68
			h2.08v2.48h1.44c1.026,0,1.84,0.227,2.426,0.706c0.586,0.48,0.88,1.094,0.88,1.867c0,0.773-0.294,1.414-0.88,1.88
			c-0.586,0.479-1.4,0.72-2.426,0.72H620.426z M627.973,21.333V13.68h2.066v7.653H627.973z M293.2,19.693
			c0.293-0.187,0.479-0.387,0.573-0.627v-1.08h-1.147c-0.44,0-0.773,0.106-1,0.32c-0.227,0.227-0.333,0.493-0.333,0.8
			c0,0.253,0.08,0.467,0.253,0.613c0.16,0.16,0.4,0.24,0.693,0.24C292.6,19.96,292.92,19.866,293.2,19.693z M334.146,19.693
			c0.293-0.187,0.48-0.387,0.574-0.627v-1.08h-1.147c-0.439,0-0.773,0.106-1,0.32c-0.227,0.227-0.333,0.493-0.333,0.8
			c0,0.253,0.08,0.467,0.253,0.613c0.16,0.16,0.4,0.24,0.693,0.24C333.546,19.96,333.867,19.866,334.146,19.693z M448.667,19.693
			c0.28-0.187,0.467-0.387,0.573-0.627v-1.08h-1.16c-0.44,0-0.773,0.106-1,0.32c-0.227,0.227-0.333,0.493-0.333,0.8
			c0,0.253,0.08,0.467,0.253,0.613c0.173,0.16,0.4,0.24,0.693,0.24C448.053,19.96,448.387,19.866,448.667,19.693z M143.373,19.266
			c0.24-0.426,0.36-0.973,0.36-1.667v-0.146c0-0.68-0.12-1.24-0.373-1.667c-0.253-0.426-0.64-0.64-1.173-0.64
			c-0.534,0-0.933,0.213-1.174,0.64c-0.253,0.44-0.373,0.987-0.373,1.667V17.6c0,0.694,0.12,1.254,0.36,1.68
			c0.254,0.414,0.653,0.627,1.2,0.627C142.733,19.907,143.12,19.693,143.373,19.266z M342.853,19.307
			c0.24-0.387,0.36-0.92,0.36-1.587v-0.146c0-0.72-0.12-1.307-0.373-1.76c-0.24-0.44-0.6-0.667-1.093-0.667
			c-0.32,0-0.587,0.066-0.8,0.187c-0.227,0.134-0.4,0.307-0.52,0.546v3.347c0.12,0.213,0.293,0.387,0.52,0.493
			c0.213,0.12,0.493,0.173,0.813,0.173C342.253,19.893,342.626,19.693,342.853,19.307z M441.4,19.307
			c0.227-0.387,0.347-0.92,0.347-1.587v-0.146c0-0.72-0.12-1.307-0.36-1.76c-0.24-0.44-0.614-0.667-1.107-0.667
			c-0.307,0-0.573,0.066-0.8,0.187c-0.214,0.134-0.387,0.307-0.521,0.546v3.347c0.134,0.213,0.307,0.387,0.521,0.493
			c0.227,0.12,0.493,0.173,0.813,0.173C440.8,19.893,441.16,19.693,441.4,19.307z M351.12,19.479c0.214-0.186,0.32-0.426,0.32-0.733
			c0-0.28-0.106-0.52-0.32-0.707c-0.2-0.2-0.52-0.293-0.934-0.293h-1.439v2.013h1.439C350.6,19.76,350.92,19.667,351.12,19.479z
			 M624.893,19.479c0.2-0.186,0.307-0.426,0.307-0.733c0-0.28-0.106-0.52-0.307-0.707c-0.213-0.2-0.533-0.293-0.946-0.293h-1.44
			v2.013h1.44C624.36,19.76,624.68,19.667,624.893,19.479z M326.373,19.733v-4.4h-1.547l-0.013,0.933
			c-0.04,0.76-0.134,1.414-0.294,1.987c-0.159,0.574-0.373,1.066-0.64,1.48H326.373z M501.92,17.266v-2.013h-1.32
			c-0.387,0-0.68,0.107-0.893,0.32c-0.214,0.2-0.32,0.44-0.32,0.707s0.106,0.494,0.307,0.693c0.2,0.187,0.493,0.293,0.879,0.293
			H501.92z M178.84,16.773v-0.187c0-0.44-0.094-0.787-0.307-1.053c-0.2-0.253-0.507-0.387-0.933-0.387
			c-0.373,0-0.68,0.147-0.907,0.44c-0.213,0.293-0.36,0.667-0.4,1.146l0.014,0.041H178.84z M310,16.76v-0.187
			c0-0.44-0.107-0.787-0.307-1.053c-0.213-0.254-0.52-0.387-0.934-0.387c-0.387,0-0.68,0.146-0.907,0.44
			c-0.227,0.293-0.36,0.667-0.413,1.146l0.027,0.04H310z M477.92,16.76v-0.187c0-0.44-0.107-0.787-0.307-1.053
			c-0.2-0.254-0.52-0.387-0.934-0.387c-0.373,0-0.68,0.146-0.907,0.44c-0.213,0.293-0.359,0.667-0.413,1.146l0.027,0.04H477.92z
			 M584.68,16.76v-0.187c0-0.44-0.093-0.787-0.307-1.053c-0.2-0.254-0.506-0.387-0.934-0.387c-0.373,0-0.68,0.146-0.906,0.44
			c-0.213,0.293-0.36,0.667-0.4,1.146l0.013,0.04H584.68z M601.186,16.76v-0.187c0-0.44-0.106-0.787-0.307-1.053
			c-0.213-0.254-0.52-0.387-0.933-0.387c-0.387,0-0.681,0.146-0.907,0.44c-0.227,0.293-0.36,0.667-0.413,1.146l0.026,0.04H601.186z
			 M576.373,15.533c0.307-0.307,0.453-0.707,0.453-1.2c0-0.493-0.146-0.907-0.439-1.227c-0.293-0.32-0.734-0.479-1.32-0.479h-2.04
			v3.387h2.04C575.64,16.014,576.08,15.854,576.373,15.533z"/>
	</g>
</g>
</svg>
