<?xml version="1.0" encoding="utf-8"?>
<!-- Generator: Adobe Illustrator 16.2.0, SVG Export Plug-In . SVG Version: 6.00 Build 0)  -->
<!DOCTYPE svg PUBLIC "-//W3C//DTD SVG 1.1//EN" "http://www.w3.org/Graphics/SVG/1.1/DTD/svg11.dtd">
<svg preserveAspectRatio="none" version="1.1" id="Layer_1" xmlns="http://www.w3.org/2000/svg" xmlns:xlink="http://www.w3.org/1999/xlink" x="0px" y="0px"
	 width="590.4px" height="32.239px" viewBox="0 0 590.4 32.239" enable-background="new 0 0 590.4 32.239" xml:space="preserve">
<g>
	<polygon fill-rule="evenodd" clip-rule="evenodd" fill="#CCCCCC" points="0.52,32.239 0.52,23.199 0.173,23.173 23.8,20.653 
		49.025,19.692 75.025,20.013 97.078,17.173 123.077,18.12 146.717,19.386 171.143,16.853 197.142,13.692 220.781,13.066 
		246.781,11.799 270.42,12.439 294.06,11.493 319.272,9.906 343.699,9.906 368.912,4.533 393.324,2.64 418.537,2.333 442.963,2.64 
		467.389,4.533 491.815,3.906 516.242,1.693 540.667,2.64 565.88,3.28 590.293,1.386 590.293,32.239 	"/>
	<polygon fill-rule="evenodd" clip-rule="evenodd" fill="#DD0000" points="0.293,24.56 0,21.786 23.626,19.266 23.719,19.266 
		48.945,18.306 49.012,18.306 74.905,18.626 96.878,15.799 97.104,15.786 123.117,16.733 146.663,17.986 170.956,15.479 
		196.955,12.32 197.088,12.306 220.701,11.68 246.688,10.413 246.794,10.413 270.38,11.04 293.967,10.106 319.153,8.52 
		319.246,8.52 343.525,8.52 368.592,3.173 368.778,3.146 393.205,1.253 393.298,1.253 418.523,0.947 442.963,1.253 443.056,1.253 
		467.403,3.146 491.722,2.52 516.095,0.32 516.281,0.306 540.694,1.253 565.827,1.88 590.187,0 590.4,2.773 565.974,4.667 
		565.827,4.667 540.601,4.04 516.255,3.093 491.922,5.293 491.842,5.293 467.403,5.933 467.27,5.919 442.883,4.04 418.523,3.72 
		393.378,4.04 369.084,5.919 343.965,11.266 343.672,11.293 319.286,11.293 294.1,12.879 270.447,13.826 270.354,13.826 
		246.768,13.199 220.808,14.453 197.222,15.079 171.276,18.239 146.836,20.772 146.623,20.772 122.997,19.506 97.118,18.56 
		75.171,21.399 74.972,21.399 49.012,21.093 23.88,22.04 	"/>
</g>
</svg>
