<?xml version="1.0" encoding="utf-8"?>
<!-- Generator: Adobe Illustrator 16.2.0, SVG Export Plug-In . SVG Version: 6.00 Build 0)  -->
<!DOCTYPE svg PUBLIC "-//W3C//DTD SVG 1.1//EN" "http://www.w3.org/Graphics/SVG/1.1/DTD/svg11.dtd">
<svg version="1.1" id="Layer_1" xmlns="http://www.w3.org/2000/svg" xmlns:xlink="http://www.w3.org/1999/xlink" x="0px" y="0px"
	 width="119.801px" height="254.061px" viewBox="0 0 119.801 254.061" enable-background="new 0 0 119.801 254.061"
	 xml:space="preserve">
<path fill-rule="evenodd" clip-rule="evenodd" fill="#808080" d="M61.534,254.061l-0.066-1c1.32-0.068,2.614-0.241,3.895-0.495
	l0.201,0.987C64.229,253.819,62.882,253.98,61.534,254.061z M53.438,253.38l0.227-0.974c1.28,0.293,2.575,0.492,3.882,0.6l-0.08,1
	C56.105,253.886,54.771,253.686,53.438,253.38z M69.484,252.499l-0.32-0.947c1.227-0.427,2.44-0.92,3.642-1.493l0.44,0.894
	C72.006,251.552,70.752,252.06,69.484,252.499z M45.833,250.592l0.454-0.894c1.187,0.613,2.388,1.133,3.601,1.588l-0.346,0.933
	C48.289,251.766,47.048,251.219,45.833,250.592z M76.795,249.004l-0.521-0.854c1.095-0.681,2.176-1.426,3.256-2.241l0.601,0.788
	C79.035,247.537,77.928,248.298,76.795,249.004z M39.03,246.203l0.614-0.787c1.067,0.841,2.134,1.6,3.215,2.309l-0.533,0.839
	C41.205,247.845,40.111,247.058,39.03,246.203z M83.237,244.121l-0.667-0.746c0.974-0.854,1.921-1.774,2.854-2.747l0.721,0.692
	C85.198,242.309,84.225,243.241,83.237,244.121z M33.095,240.734l0.733-0.68c0.92,0.986,1.854,1.92,2.814,2.787l-0.68,0.747
	C34.989,242.681,34.028,241.735,33.095,240.734z M88.853,238.332l-0.76-0.64c0.854-0.987,1.681-2.027,2.494-3.095l0.8,0.601
	C90.562,236.292,89.72,237.332,88.853,238.332z M27.933,234.558l0.8-0.6c0.801,1.08,1.627,2.121,2.454,3.121l-0.76,0.641
	C29.573,236.705,28.746,235.651,27.933,234.558z M93.747,231.944l-0.825-0.574c0.733-1.067,1.467-2.188,2.187-3.321l0.841,0.519
	C95.229,229.729,94.495,230.85,93.747,231.944z M23.424,227.888l0.854-0.52c0.707,1.147,1.427,2.268,2.147,3.349l-0.827,0.561
	C24.865,230.183,24.131,229.05,23.424,227.888z M98.018,225.126l-0.867-0.505c0.641-1.135,1.28-2.296,1.907-3.497l0.88,0.468
	C99.312,222.792,98.67,223.979,98.018,225.126z M19.489,220.885l0.88-0.467c0.627,1.201,1.254,2.374,1.894,3.509l-0.867,0.493
	C20.743,223.273,20.102,222.086,19.489,220.885z M101.751,218.003l-0.906-0.426c0.573-1.187,1.135-2.388,1.68-3.628l0.908,0.413
	C102.886,215.604,102.325,216.816,101.751,218.003z M16.034,213.629l0.92-0.401c0.534,1.228,1.094,2.441,1.655,3.629l-0.908,0.428
	C17.141,216.083,16.581,214.869,16.034,213.629z M105.021,210.667l-0.921-0.373c0.494-1.214,0.986-2.454,1.469-3.709l0.933,0.348
	C106.021,208.199,105.526,209.452,105.021,210.667z M13.019,206.186l0.934-0.347c0.467,1.253,0.96,2.493,1.454,3.707l-0.934,0.389
	C13.979,208.707,13.486,207.451,13.019,206.186z M107.888,203.171l-0.947-0.333c0.44-1.24,0.868-2.51,1.281-3.775l0.947,0.308
	C108.754,200.649,108.328,201.917,107.888,203.171z M10.378,198.609l0.948-0.308c0.413,1.28,0.84,2.535,1.267,3.788l-0.947,0.32
	C11.219,201.157,10.792,199.889,10.378,198.609z M110.383,195.54l-0.962-0.293c0.375-1.255,0.748-2.534,1.107-3.829l0.962,0.268
	C111.13,192.992,110.755,194.273,110.383,195.54z M8.097,190.911l0.961-0.267c0.347,1.295,0.72,2.574,1.094,3.843l-0.96,0.279
	C8.817,193.5,8.444,192.218,8.097,190.911z M112.529,187.817l-0.959-0.254c0.319-1.28,0.64-2.575,0.946-3.882l0.974,0.241
	C113.184,185.229,112.863,186.522,112.529,187.817z M6.123,183.135l0.974-0.227c0.307,1.307,0.614,2.602,0.947,3.882l-0.974,0.241
	C6.75,185.749,6.429,184.442,6.123,183.135z M114.371,180.001l-0.975-0.214c0.28-1.28,0.548-2.589,0.814-3.909l0.974,0.2
	C114.932,177.399,114.651,178.707,114.371,180.001z M4.455,175.291l0.988-0.186c0.253,1.307,0.52,2.614,0.787,3.907l-0.974,0.214
	C4.976,177.92,4.708,176.612,4.455,175.291z M115.932,172.13l-0.987-0.173c0.227-1.294,0.453-2.615,0.667-3.935l0.987,0.159
	C116.385,169.516,116.158,170.823,115.932,172.13z M3.068,167.395l0.987-0.16c0.214,1.321,0.427,2.641,0.667,3.936l-0.987,0.173
	C3.495,170.036,3.282,168.716,3.068,167.395z M117.198,164.22l-0.986-0.146c0.187-1.307,0.374-2.628,0.533-3.962l1,0.135
	C117.573,161.579,117.398,162.899,117.198,164.22z M1.96,159.444l0.988-0.12c0.16,1.334,0.346,2.654,0.52,3.962l-0.987,0.133
	C2.294,162.112,2.121,160.778,1.96,159.444z M118.213,156.257l-0.987-0.106c0.147-1.321,0.28-2.643,0.399-3.976l1.001,0.094
	C118.493,153.615,118.36,154.936,118.213,156.257z M1.094,151.481l1-0.094c0.121,1.334,0.253,2.654,0.4,3.976l-1,0.106
	C1.347,154.149,1.227,152.815,1.094,151.481z M118.973,148.279l-1.001-0.081c0.107-1.319,0.201-2.653,0.295-3.987l0.987,0.066
	C119.173,145.625,119.079,146.958,118.973,148.279z M0.494,143.478l1-0.053c0.08,1.333,0.16,2.653,0.267,3.974l-1,0.081
	C0.667,146.158,0.574,144.825,0.494,143.478z M119.48,140.275l-1.001-0.053c0.066-1.32,0.12-2.653,0.174-3.987l1,0.039
	C119.601,137.608,119.547,138.942,119.48,140.275z M0.12,135.475l1-0.041c0.04,1.348,0.094,2.668,0.16,4.002l-1,0.04
	C0.214,138.142,0.16,136.809,0.12,135.475z M119.759,132.259l-1-0.013c0.027-1.334,0.042-2.654,0.042-4.002l1,0.014
	C119.801,129.592,119.786,130.938,119.759,132.259z M0,127.458h1c0,1.334,0.013,2.668,0.027,3.987l-1,0.014
	C0.013,130.126,0,128.792,0,127.458z M118.72,120.267l1-0.027c0.039,1.321,0.054,2.668,0.066,4.002l-1,0.014
	C118.773,122.922,118.759,121.588,118.72,120.267z M1.014,123.455l-1-0.014c0.027-1.334,0.053-2.681,0.08-4.001l1,0.026
	C1.067,120.787,1.041,122.121,1.014,123.455z M118.399,112.277l1-0.053c0.081,1.334,0.133,2.668,0.188,4.002l-1,0.04
	C118.532,114.931,118.479,113.597,118.399,112.277z M1.241,115.479l-1-0.054c0.053-1.334,0.12-2.668,0.2-4.001l1,0.053
	C1.361,112.811,1.293,114.131,1.241,115.479z M117.839,104.313l1.001-0.093c0.119,1.334,0.213,2.667,0.307,4.001l-0.987,0.066
	C118.065,106.955,117.959,105.634,117.839,104.313z M1.708,107.501l-1-0.08c0.094-1.334,0.2-2.668,0.32-3.989l1,0.08
	C1.908,104.833,1.801,106.167,1.708,107.501z M117.039,96.363l1.001-0.12c0.146,1.32,0.293,2.654,0.427,3.988l-0.987,0.107
	C117.346,99.004,117.198,97.684,117.039,96.363z M2.401,99.538l-0.987-0.107c0.134-1.334,0.28-2.654,0.44-3.975l1,0.121
	C2.695,96.883,2.548,98.204,2.401,99.538z M115.985,88.453l0.986-0.16c0.2,1.32,0.388,2.641,0.56,3.975l-0.985,0.134
	C116.372,91.081,116.185,89.76,115.985,88.453z M3.362,91.614L2.374,91.48c0.174-1.333,0.374-2.654,0.574-3.975l0.987,0.147
	C3.735,88.973,3.549,90.28,3.362,91.614z M114.651,80.57l0.986-0.173c0.241,1.293,0.48,2.614,0.707,3.948l-0.986,0.16
	C115.132,83.184,114.905,81.877,114.651,80.57z M4.576,83.717l-0.987-0.173c0.227-1.321,0.467-2.641,0.72-3.949l0.974,0.187
	C5.042,81.089,4.802,82.397,4.576,83.717z M113.051,72.752l0.987-0.227c0.28,1.307,0.56,2.614,0.84,3.921l-0.987,0.201
	C113.624,75.341,113.344,74.033,113.051,72.752z M6.069,75.874l-0.974-0.2c0.267-1.321,0.547-2.628,0.854-3.922l0.974,0.213
	C6.629,73.26,6.336,74.567,6.069,75.874z M111.156,64.989l0.975-0.253c0.333,1.28,0.667,2.575,0.986,3.895l-0.974,0.227
	C111.823,67.564,111.503,66.27,111.156,64.989z M7.843,68.083l-0.974-0.24c0.333-1.307,0.667-2.601,1.014-3.882l0.96,0.267
	C8.498,65.496,8.164,66.79,7.843,68.083z M108.955,57.319l0.948-0.293c0.398,1.268,0.787,2.548,1.159,3.842l-0.975,0.28
	C109.729,59.854,109.342,58.586,108.955,57.319z M9.924,60.388l-0.96-0.281c0.374-1.308,0.773-2.574,1.174-3.842l0.947,0.294
	C10.685,57.826,10.298,59.093,9.924,60.388z M106.407,49.769l0.934-0.346c0.455,1.241,0.895,2.507,1.321,3.788l-0.947,0.32
	C107.287,52.25,106.847,50.997,106.407,49.769z M12.339,52.77l-0.947-0.32c0.44-1.28,0.88-2.534,1.347-3.788l0.934,0.347
	C13.22,50.25,12.766,51.503,12.339,52.77z M103.486,42.339l0.92-0.387c0.508,1.214,1.013,2.454,1.521,3.708l-0.935,0.374
	C104.5,44.78,103.993,43.553,103.486,42.339z M15.1,45.287l-0.92-0.36c0.494-1.267,1.014-2.495,1.534-3.708l0.92,0.387
	C16.114,42.819,15.607,44.047,15.1,45.287z M100.151,35.096l0.894-0.44c0.586,1.187,1.161,2.388,1.734,3.628l-0.907,0.414
	C101.298,37.47,100.725,36.27,100.151,35.096z M18.262,37.977l-0.908-0.427c0.588-1.227,1.161-2.441,1.761-3.615l0.894,0.453
	C19.422,35.563,18.835,36.75,18.262,37.977z M96.351,28.106l0.853-0.52c0.681,1.147,1.334,2.308,1.987,3.508l-0.88,0.467
	C97.67,30.387,97.018,29.227,96.351,28.106z M21.876,30.867l-0.88-0.48c0.653-1.201,1.334-2.361,2.014-3.481l0.854,0.507
	C23.184,28.533,22.53,29.693,21.876,30.867z M92.001,21.423l0.813-0.573c0.774,1.067,1.535,2.174,2.267,3.321l-0.839,0.547
	C93.508,23.584,92.762,22.49,92.001,21.423z M25.985,24.051l-0.827-0.547c0.747-1.147,1.508-2.241,2.295-3.308l0.8,0.587
	C27.492,21.836,26.732,22.931,25.985,24.051z M87.052,15.22l0.748-0.667c0.881,0.987,1.747,2.015,2.6,3.082l-0.786,0.613
	C88.772,17.194,87.92,16.181,87.052,15.22z M30.681,17.635l-0.774-0.627c0.867-1.067,1.748-2.08,2.641-3.054l0.734,0.68
	C32.401,15.594,31.534,16.595,30.681,17.635z M81.383,9.685l0.641-0.774c1.014,0.854,2.001,1.761,2.988,2.721l-0.707,0.721
	C83.345,11.405,82.37,10.512,81.383,9.685z M36.056,11.792l-0.68-0.721c0.987-0.947,2.001-1.84,3.028-2.667l0.626,0.773
	C38.03,9.991,37.03,10.872,36.056,11.792z M74.914,5.149l0.492-0.867c1.148,0.653,2.295,1.374,3.415,2.161L78.248,7.27
	C77.142,6.496,76.034,5.79,74.914,5.149z M42.206,6.817L41.645,5.99c1.134-0.774,2.294-1.48,3.468-2.108l0.467,0.881
	C44.446,5.376,43.313,6.056,42.206,6.817z M67.671,2.081l0.266-0.96c1.295,0.373,2.562,0.827,3.828,1.36l-0.387,0.92
	C70.151,2.881,68.911,2.441,67.671,2.081z M49.155,3.095l-0.374-0.92c1.28-0.507,2.562-0.934,3.868-1.268l0.24,0.974
	C51.636,2.202,50.383,2.615,49.155,3.095z M59.907,1c-1.054,0-2.108,0.053-3.149,0.174l-0.106-1C57.719,0.053,58.813,0,59.907,0
	c1.359,0,2.707,0.094,4.055,0.281l-0.146,0.987C62.521,1.094,61.215,1,59.907,1z"/>
</svg>
