<?xml version="1.0" encoding="utf-8"?>
<!-- Generator: Adobe Illustrator 16.2.0, SVG Export Plug-In . SVG Version: 6.00 Build 0)  -->
<!DOCTYPE svg PUBLIC "-//W3C//DTD SVG 1.1//EN" "http://www.w3.org/Graphics/SVG/1.1/DTD/svg11.dtd">
<svg version="1.1" id="Layer_1" xmlns="http://www.w3.org/2000/svg" xmlns:xlink="http://www.w3.org/1999/xlink" x="0px" y="0px"
	 width="164.4px" height="376.726px" viewBox="0 0 164.4 376.726" enable-background="new 0 0 164.4 376.726" xml:space="preserve">
<path fill-rule="evenodd" clip-rule="evenodd" fill="#808080" d="M0.987,376.726L0,376.7c0.013-1.32,0.04-2.653,0.066-3.999l1,0.025
	C1.04,374.059,1.013,375.392,0.987,376.726z M1.133,368.727l-1-0.026c0.013-1.32,0.04-2.653,0.054-3.999l1,0.026
	C1.16,366.061,1.146,367.394,1.133,368.727z M1.24,360.728l-1-0.013c0.013-1.333,0.04-2.666,0.053-3.999l1,0.013
	C1.28,358.062,1.253,359.395,1.24,360.728z M1.346,352.73l-1-0.014c0.014-1.333,0.041-2.666,0.053-3.999l1,0.013
	C1.386,350.063,1.36,351.396,1.346,352.73z M1.453,344.731l-1-0.013c0.026-1.334,0.053-2.667,0.067-4l1,0.014
	C1.506,342.065,1.479,343.398,1.453,344.731z M1.6,336.732l-1-0.013c0.013-1.333,0.04-2.666,0.08-3.999l1,0.013
	C1.64,334.066,1.613,335.399,1.6,336.732z M1.759,328.733l-1-0.025c0.04-1.32,0.067-2.653,0.106-4l1,0.026
	C1.827,326.082,1.8,327.415,1.759,328.733z M1.987,320.749l-1-0.04c0.04-1.32,0.08-2.653,0.12-3.999l1,0.04
	C2.066,318.083,2.026,319.416,1.987,320.749z M2.253,312.75l-1-0.027c0.053-1.333,0.107-2.666,0.16-4l1,0.041
	C2.359,310.097,2.306,311.43,2.253,312.75z M2.586,304.764l-1-0.04c0.067-1.333,0.133-2.666,0.2-3.999l1,0.053
	C2.706,302.112,2.653,303.445,2.586,304.764z M3,296.779l-1-0.054c0.066-1.319,0.146-2.652,0.227-3.999l1,0.066
	C3.146,294.125,3.066,295.458,3,296.779z M3.479,288.806l-0.986-0.066c0.08-1.333,0.173-2.666,0.28-3.999l0.986,0.08
	C3.666,286.155,3.573,287.473,3.479,288.806z M4.066,280.834l-1-0.079c0.107-1.32,0.213-2.653,0.333-3.986l0.987,0.079
	C4.279,278.182,4.172,279.515,4.066,280.834z M4.746,272.876l-1-0.094c0.12-1.333,0.253-2.653,0.387-3.986l0.986,0.094
	C4.986,270.223,4.866,271.543,4.746,272.876z M5.532,264.917l-1-0.106c0.134-1.318,0.28-2.652,0.44-3.972l0.986,0.106
	C5.812,262.263,5.666,263.597,5.532,264.917z M6.425,256.973l-1-0.121c0.16-1.319,0.32-2.64,0.494-3.973l1,0.133
	C6.746,254.333,6.585,255.653,6.425,256.973z M7.439,249.053l-1-0.134c0.186-1.32,0.373-2.653,0.56-3.972l0.987,0.146
	C7.799,246.414,7.612,247.734,7.439,249.053z M8.572,241.134l-0.987-0.146c0.2-1.32,0.413-2.641,0.627-3.961l0.986,0.16
	C8.985,238.508,8.772,239.829,8.572,241.134z M9.852,233.255l-0.987-0.173c0.213-1.307,0.454-2.626,0.68-3.946l0.986,0.188
	C10.292,230.629,10.065,231.935,9.852,233.255z M11.251,225.391l-0.973-0.187c0.24-1.308,0.493-2.627,0.76-3.935l0.973,0.201
	C11.758,222.778,11.504,224.083,11.251,225.391z M12.811,217.552l-0.986-0.2c0.28-1.308,0.56-2.613,0.84-3.919l0.973,0.213
	C13.358,214.953,13.078,216.245,12.811,217.552z M14.518,209.752l-0.973-0.227c0.293-1.306,0.6-2.6,0.906-3.905l0.973,0.239
	C15.117,207.153,14.811,208.447,14.518,209.752z M16.371,201.982l-0.973-0.241c0.32-1.293,0.653-2.587,1-3.893l0.96,0.254
	C17.024,199.395,16.69,200.688,16.371,201.982z M18.384,194.249l-0.96-0.266c0.347-1.281,0.707-2.574,1.08-3.854l0.96,0.267
	C19.09,191.689,18.744,192.969,18.384,194.249z M20.57,186.57l-0.96-0.293c0.387-1.28,0.773-2.546,1.16-3.825l0.959,0.292
	C21.33,184.011,20.943,185.291,20.57,186.57z M22.93,178.931l-0.96-0.307c0.414-1.267,0.827-2.533,1.24-3.799l0.959,0.307
	C23.743,176.398,23.33,177.665,22.93,178.931z M25.449,171.359l-0.947-0.333c0.44-1.253,0.88-2.52,1.333-3.773l0.934,0.333
	C26.329,168.84,25.876,170.092,25.449,171.359z M28.142,163.841l-0.933-0.347c0.466-1.253,0.933-2.506,1.426-3.746l0.934,0.36
	C29.075,161.348,28.608,162.587,28.142,163.841z M31.021,156.388l-0.919-0.373c0.493-1.24,0.986-2.48,1.506-3.707l0.919,0.374
	C32.021,153.922,31.515,155.148,31.021,156.388z M34.087,149.002l-0.919-0.387c0.52-1.226,1.053-2.453,1.6-3.679l0.906,0.413
	C35.141,146.563,34.608,147.79,34.087,149.002z M37.327,141.71l-0.919-0.413c0.56-1.213,1.12-2.427,1.693-3.639l0.906,0.426
	C38.434,139.298,37.874,140.498,37.327,141.71z M40.74,134.499l-0.893-0.44c0.586-1.199,1.173-2.399,1.786-3.586l0.893,0.453
	C41.927,132.112,41.327,133.299,40.74,134.499z M44.353,127.366l-0.893-0.467c0.613-1.173,1.239-2.36,1.879-3.533l0.88,0.48
	C45.593,125.02,44.966,126.193,44.353,127.366z M48.139,120.34l-0.879-0.493c0.653-1.16,1.307-2.32,1.973-3.48l0.866,0.494
	C49.432,118.021,48.779,119.181,48.139,120.34z M52.098,113.409l-0.853-0.507c0.68-1.146,1.36-2.292,2.053-3.438l0.854,0.519
	C53.458,111.129,52.778,112.262,52.098,113.409z M56.258,106.583l-0.854-0.534c0.707-1.12,1.426-2.252,2.146-3.373l0.839,0.533
	C57.67,104.343,56.964,105.463,56.258,106.583z M60.577,99.877l-0.827-0.56c0.734-1.107,1.48-2.213,2.227-3.319l0.826,0.56
	C62.056,97.665,61.311,98.771,60.577,99.877z M65.083,93.278l-0.826-0.573c0.773-1.093,1.546-2.186,2.333-3.267l0.799,0.587
	C66.616,91.105,65.843,92.186,65.083,93.278z M69.749,86.8l-0.8-0.6c0.787-1.066,1.6-2.133,2.4-3.2l0.8,0.613
	C71.335,84.667,70.536,85.733,69.749,86.8z M74.588,80.454l-0.787-0.627c0.827-1.04,1.653-2.093,2.493-3.132l0.773,0.626
	C76.228,78.361,75.401,79.4,74.588,80.454z M79.587,74.228l-0.773-0.64c0.853-1.027,1.706-2.053,2.573-3.08l0.76,0.653
	C81.293,72.175,80.44,73.202,79.587,74.228z M84.747,68.123l-0.748-0.653c0.867-1,1.748-2,2.641-3.013l0.746,0.667
	C86.492,66.123,85.612,67.123,84.747,68.123z M90.066,62.163l-0.747-0.68c0.905-0.973,1.812-1.959,2.719-2.933l0.733,0.68
	C91.865,60.204,90.959,61.177,90.066,62.163z M95.519,56.338l-0.722-0.693c0.921-0.96,1.854-1.92,2.788-2.88l0.72,0.707
	C97.371,54.418,96.438,55.377,95.519,56.338z M101.116,50.646l-0.705-0.72c0.945-0.934,1.905-1.867,2.865-2.8l0.693,0.72
	C103.01,48.778,102.064,49.699,101.116,50.646z M106.85,45.086l-0.68-0.734c0.959-0.907,1.945-1.826,2.919-2.732l0.68,0.733
	C108.795,43.26,107.822,44.166,106.85,45.086z M112.715,39.66l-0.667-0.747c0.987-0.879,1.987-1.772,2.987-2.667l0.666,0.76
	C114.701,37.887,113.702,38.767,112.715,39.66z M118.714,34.381l-0.652-0.759c1-0.867,2.026-1.734,3.052-2.6l0.641,0.773
	C120.728,32.648,119.714,33.515,118.714,34.381z M124.819,29.235l-0.639-0.773c1.025-0.853,2.066-1.693,3.106-2.533l0.626,0.786
	C126.873,27.555,125.847,28.396,124.819,29.235z M131.045,24.223l-0.626-0.787c1.054-0.827,2.106-1.64,3.16-2.466l0.613,0.8
	C133.139,22.583,132.086,23.396,131.045,24.223z M137.364,19.344l-0.6-0.8c1.067-0.8,2.132-1.586,3.213-2.387l0.6,0.8
	C139.498,17.757,138.431,18.544,137.364,19.344z M143.804,14.611l-0.587-0.813c1.08-0.773,2.159-1.56,3.253-2.333l0.587,0.827
	C145.964,13.065,144.87,13.837,143.804,14.611z M150.322,9.998l-0.56-0.827c1.093-0.746,2.187-1.506,3.293-2.253l0.561,0.827
	C152.51,8.492,151.416,9.251,150.322,9.998z M158.814,8.479L154.415,1.8L164.4,0L158.814,8.479z"/>
</svg>
