<?xml version="1.0" encoding="utf-8"?>
<!-- Generator: Adobe Illustrator 16.2.0, SVG Export Plug-In . SVG Version: 6.00 Build 0)  -->
<!DOCTYPE svg PUBLIC "-//W3C//DTD SVG 1.1//EN" "http://www.w3.org/Graphics/SVG/1.1/DTD/svg11.dtd">
<svg version="1.1" id="Layer_1" xmlns="http://www.w3.org/2000/svg" xmlns:xlink="http://www.w3.org/1999/xlink" x="0px" y="0px"
	 width="193px" height="142.297px" viewBox="0 0 193 142.297" enable-background="new 0 0 193 142.297" xml:space="preserve">
<g>
	<path fill-rule="evenodd" clip-rule="evenodd" fill="#FFFFFF" d="M23.505,19.999c9.652,0,17.505,5.226,17.505,11.666
		c0,6.44-7.853,11.666-17.505,11.666C13.852,43.331,6,38.104,6,31.665C6,25.225,13.852,19.999,23.505,19.999z"/>
	<path fill-rule="evenodd" clip-rule="evenodd" fill="#FFFFFF" d="M9.506,1c4.693,0,8.506,2.533,8.506,5.667
		s-3.813,5.666-8.506,5.666S1,9.8,1,6.667S4.813,1,9.506,1z"/>
	<path fill-rule="evenodd" clip-rule="evenodd" d="M5,31.665c0-7.279,8.599-12.666,18.505-12.666
		c9.852,0,18.505,5.413,18.505,12.666c0,7.28-8.6,12.666-18.505,12.666C13.638,44.331,5,38.917,5,31.665z M40.01,31.665
		c0-5.599-7.093-10.666-16.505-10.666C14.052,20.999,7,26.038,7,31.665c0,5.586,7.093,10.666,16.505,10.666
		C32.958,42.331,40.01,37.292,40.01,31.665z"/>
	<path fill-rule="evenodd" clip-rule="evenodd" fill="#FFFFFF" d="M99.006,14.306c51.33,0,92.994,28.451,92.994,63.502
		c0,35.051-41.664,63.489-92.994,63.489C47.664,141.297,6,112.859,6,77.808C6,42.757,47.664,14.306,99.006,14.306z"/>
	<path fill-rule="evenodd" clip-rule="evenodd" d="M5,77.808c0-35.917,42.504-64.502,94.007-64.502
		c51.49,0,93.994,28.585,93.994,64.502c0,35.918-42.503,64.489-93.994,64.489C47.503,142.297,5,113.726,5,77.808z M191,77.808
		c0-34.184-40.837-62.502-91.994-62.502C47.836,15.306,7,43.624,7,77.808c0,34.185,40.837,62.489,92.007,62.489
		C150.163,140.297,191,111.993,191,77.808z"/>
	<path fill-rule="evenodd" clip-rule="evenodd" d="M0,6.667C0,2.8,4.426,0,9.506,0c5.093,0,9.506,2.813,9.506,6.667
		c0,3.866-4.426,6.666-9.506,6.666C4.413,13.333,0,10.52,0,6.667z M17.012,6.667C17.012,4.28,13.866,2,9.506,2
		C5.173,2,2,4.307,2,6.667c0,2.386,3.146,4.666,7.506,4.666C13.839,11.333,17.012,9.026,17.012,6.667z"/>
</g>
</svg>
