<?xml version="1.0" encoding="utf-8"?>
<!-- Generator: Adobe Illustrator 16.2.0, SVG Export Plug-In . SVG Version: 6.00 Build 0)  -->
<!DOCTYPE svg PUBLIC "-//W3C//DTD SVG 1.1//EN" "http://www.w3.org/Graphics/SVG/1.1/DTD/svg11.dtd">
<svg version="1.1" id="Layer_1" xmlns="http://www.w3.org/2000/svg" xmlns:xlink="http://www.w3.org/1999/xlink" x="0px" y="0px"
	 width="223px" height="176.892px" viewBox="0 0 223 176.892" enable-background="new 0 0 223 176.892" xml:space="preserve">
<g>
	<path fill-rule="evenodd" clip-rule="evenodd" fill="#FFFFFF" d="M78.08,111.374C33.4,104.12,1,82.733,1,57.506
		C1,26.32,50.494,1,111.494,1S222,26.32,222,57.506C222,88.693,172.494,114,111.494,114c-7.467,0-14.747-0.373-21.8-1.093
		c-10.934,20.227-24.68,41.28-40.64,62.973C59.693,154.133,69.907,132.493,78.08,111.374z"/>
	<path fill-rule="evenodd" clip-rule="evenodd" d="M48.16,175.454c7.973-16.32,15.707-32.547,22.506-48.533l6.027-14.814L61.747,109
		C25.48,99.667,0,80.347,0,57.506C0,25.28,50.613,0,111.494,0C172.373,0,223,25.28,223,57.506C223,89.733,172.373,115,111.494,115
		c-3.747,0-7.454-0.093-11.107-0.28l-10.133-0.773l-8.414,14.787c-9.253,15.507-20,31.453-31.973,47.747
		C49.146,177.454,47.626,176.534,48.16,175.454z M88.813,112.427c0.2-0.347,0.587-0.56,0.987-0.52
		c7.013,0.72,14.266,1.093,21.693,1.093C172.613,113,221,87.653,221,57.506C221,27.36,172.613,2,111.494,2
		C50.373,2,2,27.36,2,57.506c0,24.361,31.52,45.627,76.24,52.88c0.626,0.106,1,0.76,0.773,1.347
		c-4.093,10.587-8.693,21.293-13.613,32.08l-10.6,22.32l4.973-6.973C70.867,143.16,80.64,127.56,88.813,112.427z"/>
</g>
</svg>
