<?xml version="1.0" encoding="utf-8"?>
<!-- Generator: Adobe Illustrator 16.2.0, SVG Export Plug-In . SVG Version: 6.00 Build 0)  -->
<!DOCTYPE svg PUBLIC "-//W3C//DTD SVG 1.1//EN" "http://www.w3.org/Graphics/SVG/1.1/DTD/svg11.dtd">
<svg version="1.1" id="Layer_1" xmlns="http://www.w3.org/2000/svg" xmlns:xlink="http://www.w3.org/1999/xlink" x="0px" y="0px"
	 width="47px" height="28.2px" viewBox="0 0 47 28.2" enable-background="new 0 0 47 28.2" xml:space="preserve">
<g>
	<path fill-rule="evenodd" clip-rule="evenodd" fill="#30B2B2" d="M13.979,28.2h19.042C40.739,28.2,47,21.938,47,14.207v-0.214
		C47,6.263,40.739,0,33.021,0H13.979C6.263,0,0,6.263,0,13.993v0.214C0,21.938,6.263,28.2,13.979,28.2z"/>
	<g>
		<path fill-rule="evenodd" clip-rule="evenodd" fill="#FFFFFF" d="M21.43,23.233l-9.813-4.313l2.91-2.897l9.801,4.313L21.43,23.233
			z M26.972,17.692l-3.767-1.643l-2.27-5.18l8.933,3.925L26.972,17.692z M32.486,12.177l-3.712-1.628l-2.282-5.167l8.892,3.899
			L32.486,12.177z M23.981,19.455L18.8,17.171l-1.654-3.766l2.897-2.91L23.981,19.455z M29.522,13.913l-5.181-2.283l-1.655-3.751
			h-0.014l2.911-2.925L29.522,13.913z"/>
	</g>
</g>
</svg>
