<?xml version="1.0" encoding="utf-8"?>
<!-- Generator: Adobe Illustrator 16.2.0, SVG Export Plug-In . SVG Version: 6.00 Build 0)  -->
<!DOCTYPE svg PUBLIC "-//W3C//DTD SVG 1.1//EN" "http://www.w3.org/Graphics/SVG/1.1/DTD/svg11.dtd">
<svg version="1.1" id="Layer_1" xmlns="http://www.w3.org/2000/svg" xmlns:xlink="http://www.w3.org/1999/xlink" x="0px" y="0px"
	 width="46.999px" height="28.191px" viewBox="0 0 46.999 28.191" enable-background="new 0 0 46.999 28.191" xml:space="preserve">
<g>
	<path fill-rule="evenodd" clip-rule="evenodd" fill="#FFB200" d="M13.99,28.191h19.022c7.715,0,13.987-6.26,13.987-13.989v-0.213
		C46.999,6.261,40.727,0,33.012,0H13.99C6.261,0,0,6.261,0,13.989v0.213C0,21.918,6.275,28.191,13.99,28.191z"/>
	<g>
		<path fill="#FFFFFF" d="M23.493,22.893c-3.47,0-6.299-2.816-6.299-6.301c0-4.205,6.299-11.306,6.299-11.306
			s6.314,7.101,6.314,11.306C29.808,20.076,26.977,22.893,23.493,22.893L23.493,22.893z"/>
	</g>
</g>
</svg>
