<?xml version="1.0" encoding="utf-8"?>
<!-- Generator: Adobe Illustrator 16.2.0, SVG Export Plug-In . SVG Version: 6.00 Build 0)  -->
<!DOCTYPE svg PUBLIC "-//W3C//DTD SVG 1.1//EN" "http://www.w3.org/Graphics/SVG/1.1/DTD/svg11.dtd">
<svg version="1.1" id="Layer_1" xmlns="http://www.w3.org/2000/svg" xmlns:xlink="http://www.w3.org/1999/xlink" x="0px" y="0px"
	 width="146.601px" height="67.722px" viewBox="0 0 146.601 67.722" enable-background="new 0 0 146.601 67.722"
	 xml:space="preserve">
<path fill-rule="evenodd" clip-rule="evenodd" fill="#CCCCCC" d="M128.094,66.845c-0.893-1.053-0.759-2.625,0.281-3.531l9.862-8.385
	C89.107,52.65,33.115,33.589,0.82,4.347c-1.027-0.92-1.093-2.506-0.174-3.532c0.92-1.013,2.507-1.093,3.533-0.173
	c31.11,28.176,85.636,46.93,133.833,49.275l-7.811-9.184c-0.893-1.052-0.773-2.625,0.281-3.518c1.052-0.893,2.625-0.773,3.519,0.28
	l12.009,14.101c0.893,1.055,0.76,2.627-0.293,3.521l-14.103,12.008C130.573,68.018,128.987,67.897,128.094,66.845z"/>
</svg>
