<?xml version="1.0" encoding="utf-8"?>
<!-- Generator: Adobe Illustrator 16.2.0, SVG Export Plug-In . SVG Version: 6.00 Build 0)  -->
<!DOCTYPE svg PUBLIC "-//W3C//DTD SVG 1.1//EN" "http://www.w3.org/Graphics/SVG/1.1/DTD/svg11.dtd">
<svg version="1.1" id="Layer_1" xmlns="http://www.w3.org/2000/svg" xmlns:xlink="http://www.w3.org/1999/xlink" x="0px" y="0px"
	 width="121.601px" height="53.146px" viewBox="0 0 121.601 53.146" enable-background="new 0 0 121.601 53.146"
	 xml:space="preserve">
<path fill-rule="evenodd" clip-rule="evenodd" fill="#CCCCCC" d="M98.189,50.896c-0.135-1.373,0.865-2.599,2.238-2.733l12.726-1.277
	C74.708,18.381,38.117,7.547,2.325,4.989C0.939,4.896-0.087,3.697,0.006,2.324C0.1,0.938,1.299-0.088,2.671,0.006
	C39.303,2.63,76.774,13.73,115.979,42.767l-1.2-12.14c-0.133-1.372,0.867-2.598,2.238-2.731c1.374-0.133,2.6,0.867,2.732,2.239
	l1.839,18.43c0.135,1.371-0.865,2.598-2.239,2.731l-18.43,1.839C99.548,53.267,98.322,52.267,98.189,50.896z"/>
</svg>
