<?xml version="1.0" encoding="utf-8"?>
<!-- Generator: Adobe Illustrator 16.2.0, SVG Export Plug-In . SVG Version: 6.00 Build 0)  -->
<!DOCTYPE svg PUBLIC "-//W3C//DTD SVG 1.1//EN" "http://www.w3.org/Graphics/SVG/1.1/DTD/svg11.dtd">
<svg version="1.1" id="Layer_1" xmlns="http://www.w3.org/2000/svg" xmlns:xlink="http://www.w3.org/1999/xlink" x="0px" y="0px"
	 width="45px" height="45px" viewBox="0 0 45 45" enable-background="new 0 0 45 45" xml:space="preserve">
<g>
	<path fill-rule="evenodd" clip-rule="evenodd" fill="#B2B2B2" d="M0,22.494C0,34.92,10.08,45,22.493,45
		C34.921,45,45,34.92,45,22.494C45,10.08,34.921,0,22.493,0C10.08,0,0,10.08,0,22.494z"/>
	<path fill="#FFFFFF" d="M33.44,28.747h-3.76v2.507h3.76 M33.44,32.494h-7.507V35h7.507 M33.44,25h-7.507v2.494h7.507 M33.44,13.747
		h-3.76v2.507h3.76 M33.44,10h-7.507v2.494h7.507 M33.44,21.253h-3.76v2.493h3.76 M33.44,17.494h-7.507V20h7.507 M14.053,16.253
		h3.748c1.386,0,2.505,1.12,2.505,2.493v6.88h-1.88V35h-5v-9.374H11.56v-6.88C11.56,17.373,12.68,16.253,14.053,16.253 M15.934,10
		c2.227,0,3.333,2.693,1.773,4.28c-1.574,1.56-4.281,0.44-4.281-1.786C13.426,11.12,14.547,10,15.934,10L15.934,10z"/>
</g>
</svg>
