<?xml version="1.0" encoding="utf-8"?>
<!-- Generator: Adobe Illustrator 16.2.0, SVG Export Plug-In . SVG Version: 6.00 Build 0)  -->
<!DOCTYPE svg PUBLIC "-//W3C//DTD SVG 1.1//EN" "http://www.w3.org/Graphics/SVG/1.1/DTD/svg11.dtd">
<svg version="1.1" id="Layer_1" xmlns="http://www.w3.org/2000/svg" xmlns:xlink="http://www.w3.org/1999/xlink" x="0px" y="0px"
	 width="137.5px" height="101.427px" viewBox="0 0 137.5 101.427" enable-background="new 0 0 137.5 101.427" xml:space="preserve">
<path fill-rule="evenodd" clip-rule="evenodd" d="M33.611,101.399c-8.788-1.4-16.082-5.8-19.163-16.509l-0.373-1.494h-0.547
	c-0.16,0-0.333-0.013-0.479-0.039c-4.147-0.827-7.401-2.215-9.615-4.334c-2.307-2.188-3.294-4.949-3.254-7.949
	c0.013-1.373,1.12-2.48,2.494-2.48h132.325c1.454,0,2.601,1.24,2.494,2.68c-0.267,3.575-1.507,6.801-4.294,9.016
	c-2.041,1.64-4.694,2.546-7.881,2.84l-1.24,0.08l-0.013,0.053c-2.427,10.241-8.761,17.496-21.843,18.163h-0.133H34.012
	C33.878,101.427,33.745,101.413,33.611,101.399z M102.008,96.426l1.987-0.16c9.774-1.188,13.976-7.081,15.589-15.989
	c0.213-1.214,1.293-2.093,2.534-2.054c4.081,0.12,6.521-0.693,7.961-1.84c0.693-0.547,1.253-1.252,1.654-2.16l0.253-0.626H5.621
	l0.493,0.906c0.213,0.32,0.467,0.613,0.76,0.894c1.12,1.068,2.947,2.054,5.827,2.761l1.094,0.24h97.747
	c1.374,0,2.494,1.121,2.494,2.507c0,1.374-1.12,2.494-2.494,2.494h-92.32c2.121,7.508,6.575,10.962,12.389,12.482l2.627,0.547
	H102.008z M33.185,64.462L1.5,50.646c-1.267-0.547-1.84-2.026-1.293-3.295c0.56-1.253,2.027-1.839,3.293-1.279l31.685,13.801
	c1.254,0.56,1.84,2.028,1.28,3.293C35.918,64.435,34.438,65.021,33.185,64.462z M117.891,63.821
	c-1.494-1.707-3.107-1.88-5.294-1.054c-0.894,0.333-1.894,0.134-2.587-0.521c-2.241-2.08-4.374-2.452-6.708-2.307
	c-0.814,0.054-1.601-0.293-2.107-0.92c-2.294-2.839-4.014-3.627-5.107-3.653c-1.027-0.027-2.44,0.573-4.227,3.026
	c-0.8,1.08-2.307,1.348-3.414,0.6c-1.72-1.146-3.294-1.426-4.867-1.173c-1.467,0.227-2.814-0.854-2.894-2.333
	c-0.107-2.08-1.521-3.614-3.334-4.107c-1.708-0.453-3.975,0.027-5.761,2.586c-0.76,1.094-2.227,1.401-3.36,0.707
	c-3.494-2.147-6.188-1.626-8.281,0.133c-0.787,0.667-1.907,0.773-2.813,0.281c-3.974-2.16-5.641-1.88-6.334-1.494
	c-0.4,0.227-0.8,0.613-1.253,1.333c-0.467,0.733-0.867,1.614-1.374,2.694c-0.64,1.399-2.387,1.879-3.653,1.026
	c-1.454-0.974-2.414-1.187-3.054-1.201c-0.64-0.013-1.253,0.186-2.081,0.627c-1.134,0.599-2.534,0.253-3.254-0.801
	c-1.014-1.494-2.347-2.039-4.241-2.054c-1.387-0.013-2.494-1.133-2.48-2.52c0-1.359,1.133-2.48,2.507-2.466
	c2.347,0.012,4.667,0.613,6.587,2.239l0.414,0.375l0.12-0.042c0.747-0.227,1.587-0.372,2.508-0.359
	c0.92,0.015,1.853,0.187,2.813,0.534l0.44,0.173l0.494-0.827c0.76-1.188,1.747-2.347,3.067-3.081c1.44-0.8,3.107-1.08,4.988-0.813
	c1.359,0.188,2.853,0.667,4.494,1.426l0.267,0.134l0.107-0.081c3.081-1.906,6.788-2.24,10.695-0.505l0.36-0.36
	c2.773-2.575,6.254-3.321,9.374-2.494c2.813,0.761,5.228,2.787,6.361,5.587l0.227,0.613l0.773,0.068
	c1.066,0.134,2.12,0.426,3.161,0.88l0.08,0.04l0.333-0.36c1.867-1.866,4.081-3.054,6.627-3c2.907,0.081,5.534,1.759,7.881,4.334
	l0.173,0.199l1.28,0.067c2.173,0.187,4.387,0.894,6.574,2.52l0.173,0.133c3.427-0.853,6.748-0.106,9.361,2.894
	c0.907,1.042,0.8,2.614-0.24,3.535C120.371,64.967,118.797,64.86,117.891,63.821z M45.8,41.232c-0.8-1.121-0.547-2.694,0.586-3.495
	c1.867-1.319,2.92-2.986,3.294-4.494c0.374-1.507,0.066-2.759-0.614-3.586c-1.493-1.787-2.974-4.334-2.894-7.255
	c0.053-1.507,0.52-3.014,1.467-4.427c0.947-1.401,2.321-2.654,4.121-3.774c1.174-0.72,2.72-0.359,3.454,0.814
	c0.72,1.173,0.36,2.719-0.814,3.441c-1.36,0.838-2.16,1.639-2.614,2.306c-0.439,0.654-0.586,1.24-0.613,1.787
	c-0.026,1.173,0.587,2.547,1.734,3.908c1.88,2.266,2.307,5.24,1.627,8.001c-0.694,2.76-2.507,5.414-5.254,7.361
	C48.161,42.619,46.601,42.351,45.8,41.232z M82.378,40.884c-0.8-1.133-0.546-2.693,0.587-3.494c1.867-1.321,2.92-3,3.293-4.494
	c0.374-1.507,0.067-2.761-0.614-3.587c-1.494-1.787-2.974-4.333-2.88-7.268c0.041-1.494,0.507-3,1.454-4.427
	c0.947-1.401,2.32-2.655,4.134-3.761c1.173-0.733,2.707-0.361,3.44,0.813c0.72,1.175,0.36,2.708-0.813,3.441
	c-1.36,0.841-2.147,1.626-2.614,2.308c-0.427,0.652-0.587,1.24-0.613,1.787c-0.027,1.16,0.6,2.533,1.733,3.907
	c1.88,2.254,2.307,5.227,1.627,8.001c-0.693,2.761-2.507,5.402-5.254,7.36C84.739,42.271,83.179,42.004,82.378,40.884z
	 M64.736,36.377c-0.826-1.107-0.6-2.68,0.507-3.494c1.8-1.36,2.774-2.921,3.04-4.266c0.253-1.254-0.053-2.534-1.214-3.695
	c-1.8-1.8-2.386-4.534-2.28-6.841c0.107-2.281,0.96-5.028,3.107-6.574c0.454-0.333,0.6-0.654,0.654-0.935
	c0.066-0.373,0.026-0.919-0.253-1.68c-0.574-1.56-1.907-3.306-3.254-4.561c-1.013-0.934-1.08-2.52-0.146-3.534
	c0.934-1.012,2.521-1.066,3.534-0.133c1.72,1.575,3.627,3.949,4.561,6.495c0.466,1.294,0.76,2.788,0.48,4.321
	c-0.307,1.586-1.173,3-2.64,4.067c-0.427,0.32-0.974,1.294-1.041,2.774c-0.08,1.479,0.36,2.614,0.814,3.067
	c2.333,2.333,3.16,5.295,2.587,8.215c-0.574,2.814-2.401,5.375-4.961,7.281C67.123,37.711,65.563,37.484,64.736,36.377z"/>
</svg>
