<?xml version="1.0" encoding="utf-8"?>
<!-- Generator: Adobe Illustrator 16.2.0, SVG Export Plug-In . SVG Version: 6.00 Build 0)  -->
<!DOCTYPE svg PUBLIC "-//W3C//DTD SVG 1.1//EN" "http://www.w3.org/Graphics/SVG/1.1/DTD/svg11.dtd">
<svg version="1.1" id="Layer_1" xmlns="http://www.w3.org/2000/svg" xmlns:xlink="http://www.w3.org/1999/xlink" x="0px" y="0px"
	 width="88.1px" height="82.962px" viewBox="0 0 88.1 82.962" enable-background="new 0 0 88.1 82.962" xml:space="preserve">
<path fill-rule="evenodd" clip-rule="evenodd" fill="#666666" d="M5.369,71.657c-3.759,0.627-7.238-6.998-4.226-8.171h85.82
	c2.999,1.173-0.466,8.798-4.239,8.171c-1.2,4.547-2.601,9.04-10.664,11.305H16.046C7.981,80.697,6.582,76.205,5.369,71.657z
	 M50.944,76.205c0-0.827-0.667-1.493-1.493-1.493H18.405c-0.827,0-1.506,0.667-1.506,1.493s0.679,1.506,1.506,1.506h31.045
	C50.277,77.71,50.944,77.031,50.944,76.205z M69.939,76.205c0-0.827-0.667-1.493-1.493-1.493H57.397
	c-0.828,0-1.507,0.667-1.507,1.493s0.679,1.506,1.507,1.506h11.049C69.273,77.71,69.939,77.031,69.939,76.205z M30.896,70.552
	c0-0.827-0.68-1.493-1.506-1.493H11.341c-0.827,0-1.507,0.667-1.507,1.493s0.68,1.506,1.507,1.506h18.048
	C30.216,72.058,30.896,71.379,30.896,70.552z M76.884,70.552c0-0.827-0.679-1.493-1.506-1.493H37.334
	c-0.825,0-1.506,0.667-1.506,1.493s0.681,1.506,1.506,1.506h38.044C76.205,72.058,76.884,71.379,76.884,70.552z M2.302,59.475
	c0.24-3.987,1.667-7.426,4.772-9.852c2.666-2.093,6.412-3.319,11.317-3.692l1.387-0.068l0.68-1.013
	c0.759-1.066,1.586-2.053,2.466-2.986l2.36,1.841c-1.253,1.333-2.4,2.799-3.413,4.412c-0.267,0.426-0.734,0.694-1.24,0.706
	c-5.651,0.134-9.371,1.333-11.704,3.161c-2.279,1.785-3.426,4.333-3.626,7.677c-0.053,0.827-0.76,1.454-1.586,1.401
	C2.889,61.021,2.263,60.301,2.302,59.475z M82.524,59.781c-0.547-3.919-2.359-6.12-4.798-7.558
	c-2.574-1.519-5.892-2.228-9.546-2.959c-0.439-0.081-0.826-0.36-1.026-0.76c-5.425-10.172-15.597-14.33-25.355-13.118
	c-0.825-0.306-1.746-0.492-2.771-0.452c-1.213,0.054-2.772-0.294-3.653-0.893l-0.147-0.174c11.891-4.132,25.887-0.813,33.486,11.358
	l0.72,1.239l2.04,0.413c6.345,1.414,12.796,3.8,14.024,12.478c0.12,0.827-0.455,1.586-1.281,1.707
	C83.404,61.167,82.644,60.594,82.524,59.781z M45.572,60.381c-0.626-0.254-1.212-0.627-1.746-1.16
	c-0.519-0.52-0.959-1.173-1.318-1.946c-0.361-0.76-0.027-1.653,0.718-2c0.748-0.361,1.641-0.027,2,0.719
	c0.24,0.521,0.494,0.88,0.734,1.121c0.225,0.227,0.466,0.372,0.692,0.466c0.494,0.187,1.133,0.201,2.053,0.054
	c0.812-0.133,1.587,0.414,1.72,1.226c0.146,0.827-0.414,1.6-1.227,1.733C48.105,60.781,46.812,60.86,45.572,60.381z M57.556,59.702
	c-0.813-0.16-1.333-0.96-1.159-1.774c0.159-0.813,0.959-1.319,1.773-1.16c0.573,0.121,1,0.134,1.333,0.094
	c0.333-0.052,0.586-0.147,0.799-0.28c0.44-0.28,0.84-0.786,1.266-1.599c0.388-0.734,1.294-1.027,2.027-0.641
	s1.027,1.293,0.639,2.027c-0.505,0.986-1.227,2.052-2.359,2.759C60.702,59.861,59.262,60.061,57.556,59.702z M69.313,58.741
	c-0.214-0.799,0.267-1.613,1.066-1.827c1.053-0.28,1.546-0.692,1.827-1.132c0.267-0.44,0.399-1.079,0.414-2
	c0.013-0.827,0.693-1.48,1.52-1.48c0.827,0.014,1.493,0.692,1.48,1.519c-0.014,1.121-0.162,2.4-0.867,3.533
	c-0.72,1.187-1.918,2.014-3.612,2.454C70.339,60.021,69.527,59.542,69.313,58.741z M14.766,58.476
	c-0.306-0.493-0.6-0.815-0.853-1.027c-0.253-0.2-0.506-0.32-0.747-0.386c-0.52-0.134-1.159-0.08-2.04,0.186
	c-0.8,0.228-1.626-0.24-1.853-1.026c-0.239-0.799,0.227-1.627,1.014-1.867c1.066-0.307,2.333-0.534,3.625-0.201
	c0.667,0.173,1.293,0.48,1.866,0.947c0.587,0.467,1.093,1.067,1.546,1.8c0.427,0.692,0.213,1.626-0.494,2.053
	C16.126,59.395,15.207,59.181,14.766,58.476z M29.763,58.608c-0.799-0.174-1.32-0.959-1.16-1.773
	c0.173-0.813,0.972-1.333,1.786-1.16c0.574,0.12,1,0.134,1.333,0.081c0.32-0.042,0.574-0.147,0.799-0.28
	c0.441-0.268,0.841-0.773,1.267-1.586c0.388-0.734,1.294-1.027,2.027-0.641c0.733,0.374,1.013,1.28,0.639,2.013
	c-0.52,0.986-1.227,2.066-2.359,2.774C32.908,58.767,31.468,58.968,29.763,58.608z M22.111,57.143
	c-0.653-0.174-1.28-0.493-1.853-0.961c-0.586-0.453-1.093-1.053-1.533-1.786c-0.439-0.707-0.213-1.639,0.493-2.067
	c0.707-0.438,1.626-0.212,2.053,0.493c0.306,0.495,0.6,0.814,0.866,1.027c0.253,0.213,0.493,0.32,0.747,0.387
	c0.506,0.134,1.147,0.081,2.026-0.173c0.8-0.227,1.627,0.24,1.866,1.027c0.228,0.799-0.239,1.625-1.04,1.852
	C24.671,57.248,23.404,57.476,22.111,57.143z M37.961,55.316l-0.401-2.2c-5.373-2.839-8.144-5.666-7.998-8.506
	c0.094-0.866-0.293-1.571-1-2.185L9.274,25.922c-0.706-0.799-1-1.692-0.2-2.598l4.466-4.24c0.827-0.654,1.732-0.453,2.666,0.32
	l17.556,17.515c0.534,0.455,1.372,0.694,2.705,0.6c2.093-0.453,4.601,0.306,9.198,7.292c-1.439,1.079-1.825,2.359-1.906,3.705
	c0.426,1.467-0.226,2.414-1.399,3.093c-1.32,0.293-2.347,0.959-2.6,2.599C39.333,55.075,38.667,55.262,37.961,55.316z
	 M49.384,53.116c-0.813-0.173-1.318-0.961-1.16-1.773c0.174-0.814,0.974-1.333,1.786-1.16c0.56,0.12,1,0.12,1.333,0.081
	c0.32-0.041,0.574-0.147,0.786-0.28c0.454-0.268,0.854-0.774,1.281-1.586c0.386-0.746,1.28-1.026,2.026-0.639
	c0.734,0.372,1.013,1.279,0.64,2.011c-0.521,0.988-1.228,2.067-2.36,2.772C52.531,53.276,51.091,53.477,49.384,53.116z
	 M58.089,53.022c-0.786-0.266-1.2-1.12-0.946-1.906c0.36-1.053,0.893-2.226,1.906-3.093c1.053-0.906,2.454-1.318,4.185-1.226
	c0.828,0.041,1.467,0.746,1.427,1.574c-0.053,0.825-0.76,1.466-1.585,1.413c-1.081-0.053-1.679,0.186-2.067,0.52
	c-0.399,0.347-0.718,0.906-1.013,1.773C59.729,52.862,58.875,53.289,58.089,53.022z M49.771,45.958
	c-0.786-0.267-1.2-1.119-0.946-1.907c0.359-1.039,0.893-2.212,1.907-3.079c1.052-0.906,2.451-1.318,4.185-1.226
	c0.827,0.041,1.466,0.746,1.425,1.574c-0.052,0.827-0.759,1.466-1.585,1.413c-1.081-0.053-1.679,0.186-2.066,0.52
	c-0.399,0.333-0.72,0.894-1.014,1.76C51.411,45.797,50.557,46.225,49.771,45.958z M76.258,39.48
	c-0.773-0.307-1.16-1.174-0.866-1.947c1.812-4.718,2.412-12.463-3.4-17.996c-2.76-2.612-4.772-5.877-5.319-9.291
	c-0.547-3.479,0.495-6.999,3.614-9.851c0.612-0.561,1.558-0.521,2.119,0.094c0.56,0.612,0.52,1.56-0.094,2.118
	c-2.373,2.172-3.065,4.68-2.666,7.171c0.4,2.586,1.987,5.293,4.413,7.585c7.038,6.706,6.198,15.89,4.132,21.249
	C77.897,39.385,77.032,39.771,76.258,39.48z M67.621,33.042c-0.774-0.294-1.161-1.16-0.867-1.935
	c1.706-4.425-0.066-8.729-2.839-10.438c-3.426-2.105-5.24-5.038-5.599-8.411c-0.359-3.305,0.68-6.838,2.572-10.224
	c0.401-0.733,1.307-0.986,2.04-0.587c0.72,0.401,0.972,1.32,0.574,2.042c-1.708,3.079-2.467,5.971-2.2,8.437
	c0.252,2.4,1.492,4.533,4.185,6.199c4.106,2.519,6.252,8.411,4.065,14.05C69.26,32.948,68.395,33.333,67.621,33.042z"/>
</svg>
