<?xml version="1.0" encoding="utf-8"?>
<!-- Generator: Adobe Illustrator 16.2.0, SVG Export Plug-In . SVG Version: 6.00 Build 0)  -->
<!DOCTYPE svg PUBLIC "-//W3C//DTD SVG 1.1//EN" "http://www.w3.org/Graphics/SVG/1.1/DTD/svg11.dtd">
<svg version="1.1" id="Layer_1" xmlns="http://www.w3.org/2000/svg" xmlns:xlink="http://www.w3.org/1999/xlink" x="0px" y="0px"
	 width="45px" height="45px" viewBox="0 0 45 45" enable-background="new 0 0 45 45" xml:space="preserve">
<g>
	<path fill-rule="evenodd" clip-rule="evenodd" fill="#B2B2B2" d="M0,22.494C0,34.92,10.08,45,22.507,45
		C34.919,45,45,34.92,45,22.494C45,10.08,34.919,0,22.507,0C10.08,0,0,10.08,0,22.494z"/>
	<path fill="#FFFFFF" d="M33.534,22.506c0-1.013-0.615-1.88-1.48-2.266c0.16,0.733,0.254,1.493,0.254,2.266
		c0,0.76-0.094,1.521-0.254,2.24C32.919,24.373,33.534,23.506,33.534,22.506 M11.48,22.506c0,1,0.614,1.867,1.48,2.24
		c-0.16-0.72-0.253-1.48-0.253-2.24c0-0.773,0.093-1.533,0.253-2.266C12.094,20.626,11.48,21.494,11.48,22.506 M17,24.947
		c0.92,2.173,3.054,3.68,5.507,3.68c2.454,0,4.574-1.507,5.506-3.68H17 M19.44,19.133c-0.84,0-1.533,0.68-1.533,1.533
		c0,0.84,0.693,1.533,1.533,1.533c0.854,0,1.534-0.693,1.534-1.533C20.974,19.813,20.294,19.133,19.44,19.133 M25.56,19.133
		c-0.84,0-1.52,0.68-1.52,1.533c0,0.84,0.68,1.533,1.52,1.533c0.854,0,1.534-0.693,1.534-1.533
		C27.094,19.813,26.414,19.133,25.56,19.133 M9.041,22.506c0-2.227,1.466-4.093,3.493-4.693c1.76-3.747,5.561-6.333,9.974-6.333
		c4.412,0,8.213,2.586,9.986,6.333c2.014,0.601,3.48,2.467,3.48,4.693c0,2.214-1.467,4.08-3.48,4.681
		c-1.773,3.746-5.574,6.333-9.986,6.333c-4.413,0-8.213-2.587-9.974-6.333C10.506,26.586,9.041,24.72,9.041,22.506L9.041,22.506z"/>
</g>
</svg>
