<?xml version="1.0" encoding="utf-8"?>
<!-- Generator: Adobe Illustrator 16.2.0, SVG Export Plug-In . SVG Version: 6.00 Build 0)  -->
<!DOCTYPE svg PUBLIC "-//W3C//DTD SVG 1.1//EN" "http://www.w3.org/Graphics/SVG/1.1/DTD/svg11.dtd">
<svg version="1.1" id="Layer_1" xmlns="http://www.w3.org/2000/svg" xmlns:xlink="http://www.w3.org/1999/xlink" x="0px" y="0px"
	 width="203.001px" height="65.668px" viewBox="0 0 203.001 65.668" enable-background="new 0 0 203.001 65.668"
	 xml:space="preserve">
<path fill-rule="evenodd" clip-rule="evenodd" fill="#CCCCCC" d="M0.395,64.515c-0.746-1.174-0.4-2.707,0.76-3.453
	C46.264,32.349,103.943,11.9,194.189,12.673l-8.917-8.345c-1.015-0.946-1.066-2.532-0.121-3.532c0.947-1.013,2.52-1.067,3.532-0.121
	l13.531,12.65c1,0.933,1.052,2.52,0.12,3.533l-12.651,13.53c-0.946,1-2.533,1.053-3.533,0.121c-1.013-0.947-1.065-2.534-0.119-3.533
	l8.691-9.305C105.023,16.819,48.17,37.068,3.847,65.274C2.674,66.021,1.127,65.674,0.395,64.515z"/>
</svg>
