<?xml version="1.0" encoding="utf-8"?>
<!-- Generator: Adobe Illustrator 16.2.0, SVG Export Plug-In . SVG Version: 6.00 Build 0)  -->
<!DOCTYPE svg PUBLIC "-//W3C//DTD SVG 1.1//EN" "http://www.w3.org/Graphics/SVG/1.1/DTD/svg11.dtd">
<svg version="1.1" id="Layer_1" xmlns="http://www.w3.org/2000/svg" xmlns:xlink="http://www.w3.org/1999/xlink" x="0px" y="0px"
	 width="47px" height="28.192px" viewBox="0 0 47 28.192" enable-background="new 0 0 47 28.192" xml:space="preserve">
<g>
	<path fill-rule="evenodd" clip-rule="evenodd" fill="#FF8200" d="M13.99,28.192h19.021C40.739,28.192,47,21.918,47,14.203v-0.227
		C47,6.26,40.739,0,33.011,0H13.99C6.273,0,0,6.26,0,13.976v0.227C0,21.918,6.273,28.192,13.99,28.192z"/>
	<g>
		<path fill-rule="evenodd" clip-rule="evenodd" fill="#FFFFFF" d="M16.219,22.573c0.467-2.59,3.723-3.738,7.355-1.922
			C21.304,24,17.939,24.642,16.219,22.573z M17.005,14.069c1.816,3.631,0.656,6.901-1.935,7.355
			C13,19.703,13.642,16.352,17.005,14.069z M20.583,18.221c0.453-2.589,3.71-3.751,7.342-1.935
			C25.656,19.649,22.305,20.276,20.583,18.221z M21.358,9.717c1.814,3.631,0.652,6.888-1.923,7.342
			C17.366,15.351,17.995,12,21.358,9.717z M24.935,13.855c0.453-2.576,3.711-3.737,7.354-1.922
			C30.008,15.297,26.657,15.925,24.935,13.855z M25.708,5.366c1.816,3.63,0.668,6.888-1.921,7.342
			C21.717,10.986,22.344,7.636,25.708,5.366z M27.737,9.798c-1.24-2.856,0.963-5.459,5.38-5.366
			C33.21,8.85,30.528,11.04,27.737,9.798z"/>
	</g>
</g>
</svg>
