<?xml version="1.0" encoding="utf-8"?>
<!-- Generator: Adobe Illustrator 16.2.0, SVG Export Plug-In . SVG Version: 6.00 Build 0)  -->
<!DOCTYPE svg PUBLIC "-//W3C//DTD SVG 1.1//EN" "http://www.w3.org/Graphics/SVG/1.1/DTD/svg11.dtd">
<svg version="1.1" id="Layer_1" xmlns="http://www.w3.org/2000/svg" xmlns:xlink="http://www.w3.org/1999/xlink" x="0px" y="0px"
	 width="45px" height="45px" viewBox="0 0 45 45" enable-background="new 0 0 45 45" xml:space="preserve">
<g>
	<path fill-rule="evenodd" clip-rule="evenodd" fill="#B2B2B2" d="M0,22.493C0,10.08,10.081,0,22.494,0C34.921,0,45,10.08,45,22.493
		C45,34.92,34.921,45,22.494,45C10.081,45,0,34.92,0,22.493z"/>
	<path fill="#FFFFFF" d="M18.734,37.613V34.8h-2.8v-2.813h2.8v-2.92c-3.986-0.68-7.027-4.146-7.027-8.32
		c0-4.653,3.773-8.426,8.441-8.426c1.799,0,3.466,0.56,4.839,1.533l3.48-3.653h-6.427V7.387h11.24v11.24h-2.813v-6.453l-3.494,3.64
		c1.014,1.387,1.601,3.093,1.601,4.933c0,4.174-3.04,7.641-7.027,8.32v2.92h2.814V34.8h-2.814v2.813H18.734z M25.76,20.746
		c0-3.106-2.521-5.626-5.612-5.626c-3.107,0-5.627,2.521-5.627,5.626c0,3.107,2.52,5.627,5.627,5.627
		C23.24,26.373,25.76,23.853,25.76,20.746z"/>
</g>
</svg>
