<?xml version="1.0" encoding="utf-8"?>
<!-- Generator: Adobe Illustrator 16.2.0, SVG Export Plug-In . SVG Version: 6.00 Build 0)  -->
<!DOCTYPE svg PUBLIC "-//W3C//DTD SVG 1.1//EN" "http://www.w3.org/Graphics/SVG/1.1/DTD/svg11.dtd">
<svg version="1.1" id="Layer_1" xmlns="http://www.w3.org/2000/svg" xmlns:xlink="http://www.w3.org/1999/xlink" x="0px" y="0px"
	 width="79px" height="76.879px" viewBox="0 0 79 76.879" enable-background="new 0 0 79 76.879" xml:space="preserve">
<path fill-rule="evenodd" clip-rule="evenodd" fill="#B2B2B2" d="M60.441,68.566l-1.509-1.294l1.615-0.868
	c1.321-0.787,2.548-1.694,3.616-2.602c2.322-1.947,2.628-5.43,0.667-7.751c-0.973-1.161-2.335-1.815-3.736-1.934l-0.894,0.012
	l0.64-1.093c0.614-1.268,0.881-2.709,0.814-4.255c-0.16-3.577-2.162-7.233-4.777-10.289c-3.937-4.617-10.18-8.938-17.372-10.726
	l-0.307-3.151h-5.457c-1.107,0-2.001-0.894-2.001-2.001c0-1.106,0.894-2.001,2.001-2.001h18.546
	c0.693-7.765,2.802-14.81,7.685-19.987c0.76-0.8,2.029-0.84,2.829-0.08c0.8,0.747,0.84,2.015,0.079,2.828
	c-3.949,4.19-5.883,10.088-6.564,17.239h20.681c1.095,0,2.001,0.895,2.001,2.001c0,1.108-0.907,2.001-2.001,2.001h-5.549
	l-4.964,52.264h-8.033C60.213,74.705,60.947,71.889,60.441,68.566z M6.043,69.101h50.942c0.547,3.642-0.879,6.165-4.043,7.672
	H10.899C6.537,74.558,5.923,71.876,6.043,69.101z M26.149,63.483c-2.854-1.909-4.896-2.255-6.483-2.055
	c-1.642,0.201-3.109,1.04-4.79,2.228c-2.281,1.614-4.99,1.695-7.471,0.934c-2.456-0.748-4.844-2.362-6.833-4.403
	c-0.774-0.788-0.759-2.056,0.027-2.829c0.802-0.774,2.068-0.761,2.829,0.026c1.653,1.694,3.481,2.869,5.149,3.376
	c1.642,0.507,2.976,0.346,3.99-0.374c1.749-1.228,3.909-2.601,6.604-2.935c2.763-0.348,5.765,0.413,9.206,2.708
	c2.989,1.989,7.166,1.721,9.247-0.213c2.029-1.882,4.563-2.108,6.738-1.694c2.162,0.413,4.19,1.48,5.684,2.536
	c1.067,0.759,2.39,0.879,4.043,0.373c1.682-0.507,3.522-1.641,5.245-3.096c0.839-0.706,2.108-0.601,2.814,0.24
	c0.721,0.842,0.601,2.108-0.24,2.829c-1.948,1.642-4.257,3.123-6.658,3.857c-2.442,0.747-5.149,0.733-7.512-0.935
	c-1.201-0.84-2.709-1.6-4.123-1.867c-1.375-0.267-2.456-0.055-3.269,0.693C36.731,66.245,30.46,66.353,26.149,63.483z
	 M31.888,30.435c18.092-0.588,34.049,20.146,22.188,23.91H9.685C-2.176,50.581,13.782,29.847,31.888,30.435z M20.906,45.644
	c0-0.947-0.774-1.721-1.721-1.721c-0.96,0-1.734,0.774-1.734,1.721c0,0.96,0.774,1.734,1.734,1.734
	C20.132,47.378,20.906,46.604,20.906,45.644z M44.963,45.644c0-0.947-0.774-1.721-1.721-1.721c-0.96,0-1.734,0.774-1.734,1.721
	c0,0.96,0.774,1.734,1.734,1.734C44.189,47.378,44.963,46.604,44.963,45.644z M34.249,38.785c0-1.281-1.04-2.335-2.335-2.335
	c-1.281,0-2.335,1.054-2.335,2.335c0,1.295,1.054,2.335,2.335,2.335C33.209,41.12,34.249,40.081,34.249,38.785z"/>
</svg>
