<?xml version="1.0" encoding="utf-8"?>
<!-- Generator: Adobe Illustrator 16.2.0, SVG Export Plug-In . SVG Version: 6.00 Build 0)  -->
<!DOCTYPE svg PUBLIC "-//W3C//DTD SVG 1.1//EN" "http://www.w3.org/Graphics/SVG/1.1/DTD/svg11.dtd">
<svg version="1.1" id="Layer_1" xmlns="http://www.w3.org/2000/svg" xmlns:xlink="http://www.w3.org/1999/xlink" x="0px" y="0px"
	 width="45px" height="45px" viewBox="0 0 45 45" enable-background="new 0 0 45 45" xml:space="preserve">
<g>
	<path fill-rule="evenodd" clip-rule="evenodd" fill="#B2B2B2" d="M0,22.5C0,10.09,10.08,0,22.493,0C34.92,0,45,10.09,45,22.5
		S34.92,45,22.493,45C10.08,45,0,34.909,0,22.5z"/>
	<path fill="#FFFFFF" d="M8.973,19.741c1.187-5.852,6.094-10.37,12.16-10.956V8.717h2.721v0.067
		c6.066,0.586,10.973,5.104,12.16,10.956c0.32,1.732,0.293,3.585,0,5.518c-1.188,5.852-6.094,10.37-12.16,10.957v0.066h-2.721
		v-0.066c-6.066-0.587-10.973-5.105-12.16-10.957C8.68,23.326,8.654,21.473,8.973,19.741z M11.533,21.127H14.2v2.759h-2.667
		c0.24,2,1.053,3.853,2.227,5.385l1.907-1.893l1.946,1.946l-1.893,1.879c1.533,1.187,3.373,1.986,5.373,2.24v-2.679h2.801v2.679
		c2.013-0.254,3.84-1.053,5.372-2.24l-1.893-1.879l1.947-1.946l1.906,1.893c1.187-1.533,1.987-3.386,2.227-5.385h-2.666v-2.759
		h2.666c-0.239-2.013-1.04-3.866-2.227-5.398l-1.906,1.893l-1.947-1.946l1.893-1.879c-1.532-1.187-3.359-1.986-5.372-2.24v2.68
		h-2.801v-2.68c-2,0.253-3.84,1.053-5.373,2.24l1.893,1.879l-1.946,1.946l-1.907-1.893C12.586,17.261,11.773,19.114,11.533,21.127z
		 M20.04,21.287l2.467-5.305l2.467,5.305c0.199,0.36,0.293,0.773,0.293,1.212c0,1.52-1.239,2.759-2.76,2.759
		c-1.519,0-2.746-1.24-2.746-2.759C19.76,22.06,19.854,21.647,20.04,21.287z"/>
</g>
</svg>
