<?xml version="1.0" encoding="utf-8"?>
<!-- Generator: Adobe Illustrator 16.2.0, SVG Export Plug-In . SVG Version: 6.00 Build 0)  -->
<!DOCTYPE svg PUBLIC "-//W3C//DTD SVG 1.1//EN" "http://www.w3.org/Graphics/SVG/1.1/DTD/svg11.dtd">
<svg version="1.1" id="Layer_1" xmlns="http://www.w3.org/2000/svg" xmlns:xlink="http://www.w3.org/1999/xlink" x="0px" y="0px"
	 width="100px" height="100px" viewBox="0 0 100 100" enable-background="new 0 0 100 100" xml:space="preserve">
<g>
	<path fill-rule="evenodd" clip-rule="evenodd" fill="#DD0000" d="M0,50C0,22.4,22.4,0,50,0c27.601,0,50,22.4,50,50
		c0,27.6-22.399,50-50,50C22.4,100,0,77.6,0,50z"/>
	<g>
		<path fill="#FFFFFF" d="M58.267,72.027h5.507V66.52h-5.507V72.027z M58.267,66.52 M47.253,72.027h5.508V66.52h-5.508V72.027z
			 M36.24,72.027h5.506V66.52H36.24V72.027z M58.267,61.014h5.507v-5.506h-5.507V61.014z M47.253,61.014h5.508v-5.506h-5.508V61.014
			z M36.24,61.014h5.506v-5.506H36.24V61.014z M58.267,50h5.507v-5.506h-5.507V50z M47.253,50h5.508v-5.506h-5.508V50z M36.24,50
			h5.506v-5.506H36.24V50z M36.24,38.987h27.533V27.973H36.24V38.987z M36.24,22.467h27.533c3.039,0,5.507,2.467,5.507,5.506v44.054
			c0,3.04-2.468,5.507-5.507,5.507H36.24c-3.041,0-5.52-2.467-5.52-5.507V27.973C30.72,24.934,33.2,22.467,36.24,22.467
			L36.24,22.467z"/>
	</g>
</g>
</svg>
