<?xml version="1.0" encoding="utf-8"?>
<!-- Generator: Adobe Illustrator 16.2.0, SVG Export Plug-In . SVG Version: 6.00 Build 0)  -->
<!DOCTYPE svg PUBLIC "-//W3C//DTD SVG 1.1//EN" "http://www.w3.org/Graphics/SVG/1.1/DTD/svg11.dtd">
<svg version="1.1" id="Layer_1" xmlns="http://www.w3.org/2000/svg" xmlns:xlink="http://www.w3.org/1999/xlink" x="0px" y="0px"
	 width="22px" height="22px" viewBox="0 0 22 22" enable-background="new 0 0 22 22" xml:space="preserve">
<g>
	<path fill-rule="evenodd" clip-rule="evenodd" fill="#FFFFFF" d="M1.993,11.006c0-4.979,4.039-9.015,9.008-9.015
		c4.982,0,9.007,4.036,9.007,9.015c0,4.966-4.024,9.002-9.007,9.002C6.032,20.008,1.993,15.972,1.993,11.006z"/>
	<path fill-rule="evenodd" clip-rule="evenodd" fill="#FF8200" d="M0,11.006C0,4.926,4.929,0,11,0c6.07,0,11,4.926,11,11.006
		C22,17.074,17.071,22,11,22C4.929,22,0,17.074,0,11.006z M18.014,11.006c0-3.876-3.135-7.023-7.014-7.023S3.986,7.13,3.986,11.006
		c0,3.864,3.136,7.01,7.015,7.01S18.014,14.87,18.014,11.006z"/>
</g>
</svg>
