<?xml version="1.0" encoding="utf-8"?>
<!-- Generator: Adobe Illustrator 16.2.0, SVG Export Plug-In . SVG Version: 6.00 Build 0)  -->
<!DOCTYPE svg PUBLIC "-//W3C//DTD SVG 1.1//EN" "http://www.w3.org/Graphics/SVG/1.1/DTD/svg11.dtd">
<svg version="1.1" id="Layer_1" xmlns="http://www.w3.org/2000/svg" xmlns:xlink="http://www.w3.org/1999/xlink" x="0px" y="0px"
	 width="100px" height="99.997px" viewBox="0 0 100 99.997" enable-background="new 0 0 100 99.997" xml:space="preserve">
<g>
	<polygon fill="#DD0000" points="80.885,99.323 80.885,90.164 72.873,90.164 72.873,84.577 80.885,84.577 80.885,75.847 
		86.991,75.847 86.991,84.577 94.977,84.577 94.977,90.164 86.991,90.164 86.991,99.323 	"/>
	<path fill-rule="evenodd" clip-rule="evenodd" fill="#B2B2B2" d="M14.638,85.351c-19.518-19.518-19.518-51.194,0-70.712
		s51.208-19.518,70.725,0c15.84,15.838,18.825,39.702,8.947,58.555c-6.935-5.013-16.693-4.4-22.945,1.838
		c-5.799,5.801-6.747,14.64-2.84,21.425C50.527,103.615,29.196,99.923,14.638,85.351z M44.928,47.088
		c-0.653-6.133-1.827-12.545-3.079-18.984h1.453v-4.866H31.169v4.866h1.453c-1.253,6.439-2.426,12.852-3.079,18.984
		c-0.801,7.692-0.801,14.972-0.801,22.25h16.984C45.727,62.061,45.727,54.781,44.928,47.088z M77.271,59.634v-4.853h-5.173
		l5.427-9.385l-3.772-2.186l-6.693,11.571H50.581v4.853c0,5.359,4.346,9.705,9.704,9.705h7.281
		C72.925,69.339,77.271,64.993,77.271,59.634z"/>
</g>
</svg>
