<?xml version="1.0" encoding="utf-8"?>
<!-- Generator: Adobe Illustrator 16.2.0, SVG Export Plug-In . SVG Version: 6.00 Build 0)  -->
<!DOCTYPE svg PUBLIC "-//W3C//DTD SVG 1.1//EN" "http://www.w3.org/Graphics/SVG/1.1/DTD/svg11.dtd">
<svg version="1.1" id="Layer_1" xmlns="http://www.w3.org/2000/svg" xmlns:xlink="http://www.w3.org/1999/xlink" x="0px" y="0px"
	 width="100px" height="90.906px" viewBox="0 0 100 90.906" enable-background="new 0 0 100 90.906" xml:space="preserve">
<path fill="#FFFFFF" d="M25,13.64c-8.867,0-18.414,1.827-25,6.827v66.626c0,1.134,1.133,2.28,2.267,2.28
	c0.453,0,0.68-0.319,1.133-0.319c6.147-2.961,15-4.961,21.6-4.961c8.854,0,18.4,1.813,25,6.813c6.133-3.853,17.268-6.813,25-6.813
	c7.494,0,15.227,1.414,21.586,4.827c0.453,0.213,0.682,0.134,1.135,0.134c1.133,0,2.279-1.147,2.279-2.281V20.466
	c-2.732-2.053-5.68-3.413-9.094-4.546V25v25v27.28C85.906,75.693,80.453,75,75,75c-7.732,0-18.867,2.96-25,6.826V50V29.546v-9.08
	C43.4,15.466,33.854,13.64,25,13.64 M81.813,0L59.08,20.466v50L81.813,50V0L81.813,0z"/>
</svg>
