<?xml version="1.0" encoding="utf-8"?>
<!-- Generator: Adobe Illustrator 16.2.0, SVG Export Plug-In . SVG Version: 6.00 Build 0)  -->
<!DOCTYPE svg PUBLIC "-//W3C//DTD SVG 1.1//EN" "http://www.w3.org/Graphics/SVG/1.1/DTD/svg11.dtd">
<svg version="1.1" id="Layer_1" xmlns="http://www.w3.org/2000/svg" xmlns:xlink="http://www.w3.org/1999/xlink" x="0px" y="0px"
	 width="90px" height="99.28px" viewBox="0 0 90 99.28" enable-background="new 0 0 90 99.28" xml:space="preserve">
<path fill="#FFFFFF" d="M58.013,78.906c-6.413,0-11.613-5.199-11.613-11.6c0-6.413,5.2-11.613,11.613-11.613
	c6.4,0,11.6,5.2,11.6,11.613C69.613,73.707,64.414,78.906,58.013,78.906 M75.693,78.44c6.173-9.787,3.2-22.747-6.494-28.867
	c-9.8-6.173-22.8-3.16-28.879,6.493c-6.213,9.8-3.201,22.707,6.506,28.867c6.773,4.32,15.4,4.32,22.227,0.093l14.48,14.253
	L90,92.827L75.693,78.44 M41.76,32.494V6.96l25.533,25.534H41.76 M46.4,0H9.28C4.146,0,0,4.16,0,9.28v74.267
	c0,5.12,4.146,9.28,9.28,9.28h32.48c-1.893-1.16-3.707-2.601-5.293-4.173C24.213,77.374,23.426,58.307,34.8,46.041
	c10.159-11.227,27.053-12.947,39.453-4.267v-13.92L46.4,0L46.4,0z"/>
</svg>
