<?xml version="1.0" encoding="utf-8"?>
<!-- Generator: Adobe Illustrator 16.2.0, SVG Export Plug-In . SVG Version: 6.00 Build 0)  -->
<!DOCTYPE svg PUBLIC "-//W3C//DTD SVG 1.1//EN" "http://www.w3.org/Graphics/SVG/1.1/DTD/svg11.dtd">
<svg version="1.1" id="Layer_1" xmlns="http://www.w3.org/2000/svg" xmlns:xlink="http://www.w3.org/1999/xlink" x="0px" y="0px"
	 width="70px" height="99.987px" viewBox="0 0 70 99.987" enable-background="new 0 0 70 99.987" xml:space="preserve">
<g>
	<path fill-rule="evenodd" clip-rule="evenodd" fill="#DD0000" d="M60.347,72.592l-6.145-6.145c9.476-9.475,9.476-24.855,0-34.33
		C49.441,27.355,43.191,24.987,36.928,25v16.5L16.178,20.75L36.928,0v16.316c8.473-0.026,16.96,3.184,23.419,9.658
		C73.217,38.842,73.217,59.723,60.347,72.592z"/>
	<path fill-rule="evenodd" clip-rule="evenodd" fill="#DD0000" d="M33.072,99.987V83.684c-8.474,0.025-16.96-3.185-23.421-9.658
		c-12.869-12.854-12.869-33.75,0-46.618l6.145,6.145c-9.487,9.474-9.487,24.869,0,34.342c4.763,4.751,11.013,7.132,17.276,7.106
		V58.513l20.75,20.737L33.072,99.987z"/>
</g>
</svg>
