<?xml version="1.0" encoding="utf-8"?>
<!-- Generator: Adobe Illustrator 16.2.0, SVG Export Plug-In . SVG Version: 6.00 Build 0)  -->
<!DOCTYPE svg PUBLIC "-//W3C//DTD SVG 1.1//EN" "http://www.w3.org/Graphics/SVG/1.1/DTD/svg11.dtd">
<svg version="1.1" id="Layer_1" xmlns="http://www.w3.org/2000/svg" xmlns:xlink="http://www.w3.org/1999/xlink" x="0px" y="0px"
	 width="20px" height="20px" viewBox="0 0 20 20" enable-background="new 0 0 20 20" xml:space="preserve">
<path fill="#FFFFFF" d="M7.867,13.987L9.44,15.56L15,10L9.44,4.453l-1.573,1.56l2.866,2.88H0v2.227h10.733L7.867,13.987z M17.773,0
	H2.213C0.987,0,0,1,0,2.227v4.44h2.213v-4.44h15.56v15.56H2.213v-4.453H0v4.453C0,19.013,0.987,20,2.213,20h15.56
	C19,20,20,19.013,20,17.786V2.227C20,1,19,0,17.773,0L17.773,0z"/>
</svg>
