<?xml version="1.0" encoding="utf-8"?>
<!-- Generator: Adobe Illustrator 16.2.0, SVG Export Plug-In . SVG Version: 6.00 Build 0)  -->
<!DOCTYPE svg PUBLIC "-//W3C//DTD SVG 1.1//EN" "http://www.w3.org/Graphics/SVG/1.1/DTD/svg11.dtd">
<svg version="1.1" id="Layer_1" xmlns="http://www.w3.org/2000/svg" xmlns:xlink="http://www.w3.org/1999/xlink" x="0px" y="0px"
	 width="20px" height="20.013px" viewBox="0 0 20 20.013" enable-background="new 0 0 20 20.013" xml:space="preserve">
<path fill="#7D7D7D" d="M12.568,2.295c2.869,0,5.15,2.281,5.15,5.15c0,2.855-2.281,5.137-5.15,5.137
	c-2.855,0-5.137-2.281-5.137-5.137C7.431,4.576,9.713,2.295,12.568,2.295 M12.568,0C8.472,0,5.137,3.335,5.137,7.445
	c0,1.841,0.68,3.522,1.788,4.83l-0.307,0.307H5.71L0,18.305l1.708,1.708l5.724-5.71v-0.907l0.307-0.307
	c1.294,1.107,2.989,1.788,4.83,1.788c4.11,0,7.432-3.335,7.432-7.431C20,3.335,16.678,0,12.568,0L12.568,0z"/>
</svg>
