<?xml version="1.0" encoding="utf-8"?>
<!-- Generator: Adobe Illustrator 16.2.0, SVG Export Plug-In . SVG Version: 6.00 Build 0)  -->
<!DOCTYPE svg PUBLIC "-//W3C//DTD SVG 1.1//EN" "http://www.w3.org/Graphics/SVG/1.1/DTD/svg11.dtd">
<svg version="1.1" id="Layer_1" xmlns="http://www.w3.org/2000/svg" xmlns:xlink="http://www.w3.org/1999/xlink" x="0px" y="0px"
	 width="50px" height="50px" viewBox="0 0 50 50" enable-background="new 0 0 50 50" xml:space="preserve">
<path fill="#B0B0B0" d="M19.673,41.533H7.5c0-5.213,0-10.44,0.574-15.96c0.466-4.4,1.307-9,2.213-13.626H9.233v-3.48h1.747h5.213
	h1.747v3.48H16.9c0.893,4.626,1.733,9.227,2.2,13.626C19.673,31.093,19.673,36.32,19.673,41.533 M42.301,34.573
	c0,3.84-3.107,6.96-6.961,6.96h-5.213c-3.854,0-6.96-3.12-6.96-6.96v-3.48H34.98l4.799-8.306L42.5,24.36l-3.893,6.733h3.693V34.573
	L42.301,34.573z"/>
</svg>
