<?xml version="1.0" encoding="utf-8"?>
<!-- Generator: Adobe Illustrator 16.2.0, SVG Export Plug-In . SVG Version: 6.00 Build 0)  -->
<!DOCTYPE svg PUBLIC "-//W3C//DTD SVG 1.1//EN" "http://www.w3.org/Graphics/SVG/1.1/DTD/svg11.dtd">
<svg version="1.1" id="Layer_1" xmlns="http://www.w3.org/2000/svg" xmlns:xlink="http://www.w3.org/1999/xlink" x="0px" y="0px"
	 width="50px" height="50px" viewBox="0 0 50 50" enable-background="new 0 0 50 50" xml:space="preserve">
<g>
	<path fill="#B0B0B0" d="M24.52,44.68l0.787-5.253l-1.4-13.414L20.6,30.533c-0.359,0.507-0.934,0.854-1.746,0.88H8.467
		c-2.867,0-2.773-3.693,0-3.693h9.039L23,19.987c0.426-0.507,1.426-0.733,2.186-0.787l2.721-0.187l3.067,6.907l1.039-6.533
		c-0.533,0-0.506-0.68,0-0.68c-0.64,0-0.56-0.787,0-0.787h1.881c0.56,0,0.533,0.787,0,0.787c0.533,0,0.533,0.68,0,0.68l1.053,6.533
		l3.227-6.907L40.88,19.2c0.76,0.054,1.76,0.28,2.2,0.787l3.573,8.466C46.88,29.2,47,29.96,47,30.72l-0.267,11.934
		c0,1.653-3.48,1.746-3.48,0l-0.173-12.2l-1.174-2.36l-1.133,11.334l0.786,5.253H24.52z M33.453,39.026
		c0.253-0.253,0.253-0.666,0-0.92c-0.253-0.24-0.653-0.24-0.907,0c-0.253,0.254-0.253,0.667,0,0.92
		C32.8,39.267,33.2,39.267,33.453,39.026z M33.453,35.64c0.253-0.253,0.253-0.666,0-0.92c-0.253-0.24-0.653-0.24-0.907,0
		c-0.253,0.254-0.253,0.667,0,0.92C32.8,35.88,33.2,35.88,33.453,35.64z M33.453,32.253c0.253-0.253,0.253-0.666,0-0.92
		c-0.253-0.24-0.653-0.24-0.907,0c-0.253,0.254-0.253,0.667,0,0.92C32.8,32.493,33.2,32.493,33.453,32.253z M28.706,15.374
		c-2.293-2.307-2.293-6.027,0-8.333c2.294-2.294,6.027-2.294,8.32,0c2.293,2.306,2.293,6.026,0,8.333
		C34.733,17.667,31,17.667,28.706,15.374z"/>
	<path fill="#B0B0B0" d="M5.16,26.479l-1.066-0.546L3,25.773V25.36h14.973v0.413l-1.094,0.16l-1.066,0.546H5.16z M6.266,20.253
		c1.027-1.027,2.348-1.6,3.707-1.707v-0.44H9.014l1.439-1.44l1.453,1.44h-0.973v0.44c1.359,0.107,2.68,0.68,3.719,1.707
		c1.135,1.146,1.721,2.64,1.734,4.133H4.533C4.547,22.893,5.119,21.4,6.266,20.253z"/>
</g>
</svg>
