<?xml version="1.0" encoding="utf-8"?>
<!-- Generator: Adobe Illustrator 16.2.0, SVG Export Plug-In . SVG Version: 6.00 Build 0)  -->
<!DOCTYPE svg PUBLIC "-//W3C//DTD SVG 1.1//EN" "http://www.w3.org/Graphics/SVG/1.1/DTD/svg11.dtd">
<svg version="1.1" id="Layer_1" xmlns="http://www.w3.org/2000/svg" xmlns:xlink="http://www.w3.org/1999/xlink" x="0px" y="0px"
	 width="50px" height="50px" viewBox="0 0 50 50" enable-background="new 0 0 50 50" xml:space="preserve">
<path fill="#FFFFFF" d="M30.713,27.453c-1.359,0-2.453-1.106-2.453-2.453s1.094-2.439,2.453-2.439c1.348,0,2.441,1.093,2.441,2.439
	S32.061,27.453,30.713,27.453 M24.18,31.533H40.5V18.48H24.18 M38.859,34.787v1.64c0,1.8-1.453,3.253-3.252,3.253h-22.84
	c-1.813,0-3.267-1.467-3.267-3.253v-22.84c0-1.813,1.454-3.267,3.267-3.267h22.84c1.799,0,3.252,1.453,3.252,3.267v1.626H24.18
	c-1.813,0-3.267,1.467-3.267,3.268v13.053c0,1.801,1.467,3.254,3.267,3.254H38.859z"/>
</svg>
