<?xml version="1.0" encoding="utf-8"?>
<!-- Generator: Adobe Illustrator 16.2.0, SVG Export Plug-In . SVG Version: 6.00 Build 0)  -->
<!DOCTYPE svg PUBLIC "-//W3C//DTD SVG 1.1//EN" "http://www.w3.org/Graphics/SVG/1.1/DTD/svg11.dtd">
<svg version="1.1" id="Layer_1" xmlns="http://www.w3.org/2000/svg" xmlns:xlink="http://www.w3.org/1999/xlink" x="0px" y="0px"
	 width="50px" height="50px" viewBox="0 0 50 50" enable-background="new 0 0 50 50" xml:space="preserve">
<path fill="#B0B0B0" d="M2.5,39.32V34.2c0-4.761,9.547-7.16,14.307-7.16c4.773,0,14.32,2.399,14.32,7.16v5.12H2.5z M35.221,39.32
	V34.2c0-3.067-1.654-5.333-4.027-7.054c0.721-0.106,1.387-0.106,1.986-0.106c4.76,0,14.32,2.399,14.32,7.16v5.12H35.221z
	 M10.673,16.826c0-3.399,2.747-6.146,6.133-6.146c3.4,0,6.146,2.747,6.146,6.146c0,3.387-2.747,6.134-6.146,6.134
	C13.42,22.96,10.673,20.213,10.673,16.826z M27.047,16.826c0-3.399,2.746-6.146,6.133-6.146s6.133,2.747,6.133,6.146
	c0,3.387-2.746,6.134-6.133,6.134S27.047,20.213,27.047,16.826z"/>
</svg>
