<?xml version="1.0" encoding="utf-8"?>
<!-- Generator: Adobe Illustrator 16.2.0, SVG Export Plug-In . SVG Version: 6.00 Build 0)  -->
<!DOCTYPE svg PUBLIC "-//W3C//DTD SVG 1.1//EN" "http://www.w3.org/Graphics/SVG/1.1/DTD/svg11.dtd">
<svg version="1.1" id="Layer_1" xmlns="http://www.w3.org/2000/svg" xmlns:xlink="http://www.w3.org/1999/xlink" x="0px" y="0px"
	 width="50px" height="50px" viewBox="0 0 50 50" enable-background="new 0 0 50 50" xml:space="preserve">
<path fill="#B0B0B0" d="M30.86,23.562v22.884h-3.902v-9.75h-3.903v9.75h-3.903V23.562c-4.035-2.131-6.819-6.367-6.819-11.242v-0.972
	h3.903v0.972c0,4.875,3.889,8.777,8.764,8.777s8.777-3.902,8.777-8.777v-0.972h3.903v0.972C37.681,17.195,34.883,21.43,30.86,23.562
	 M44.5,3.555v9.75h-3.903V9.403H9.403v3.903H5.5v-9.75h3.903v3.903h31.194V3.555H44.5 M25,11.348c-2.158,0-3.903,1.745-3.903,3.903
	c0,2.157,1.745,3.902,3.903,3.902c2.171,0,3.902-1.745,3.902-3.902C28.902,13.092,27.171,11.348,25,11.348L25,11.348z"/>
</svg>
