<?xml version="1.0" encoding="utf-8"?>
<!-- Generator: Adobe Illustrator 16.2.0, SVG Export Plug-In . SVG Version: 6.00 Build 0)  -->
<!DOCTYPE svg PUBLIC "-//W3C//DTD SVG 1.1//EN" "http://www.w3.org/Graphics/SVG/1.1/DTD/svg11.dtd">
<svg version="1.1" id="Layer_1" xmlns="http://www.w3.org/2000/svg" xmlns:xlink="http://www.w3.org/1999/xlink" x="0px" y="0px"
	 width="50px" height="50px" viewBox="0 0 50 50" enable-background="new 0 0 50 50" xml:space="preserve">
<polygon fill="#B0B0B0" points="41.293,30.427 44,27.707 41.293,25 34.507,31.773 18.213,15.506 25,8.72 22.293,6 19.572,8.72 
	16.854,6 12.787,10.066 10.066,7.36 7.359,10.066 10.066,12.787 6,16.854 8.721,19.573 6,22.28 8.721,25 15.506,18.213 
	31.786,34.493 25,41.28 27.72,44 30.44,41.28 33.146,44 37.213,39.92 39.933,42.653 42.653,39.92 39.933,37.214 44,33.146 "/>
</svg>
