<?xml version="1.0" encoding="utf-8"?>
<!-- Generator: Adobe Illustrator 16.2.0, SVG Export Plug-In . SVG Version: 6.00 Build 0)  -->
<!DOCTYPE svg PUBLIC "-//W3C//DTD SVG 1.1//EN" "http://www.w3.org/Graphics/SVG/1.1/DTD/svg11.dtd">
<svg version="1.1" id="Layer_1" xmlns="http://www.w3.org/2000/svg" xmlns:xlink="http://www.w3.org/1999/xlink" x="0px" y="0px"
	 width="50px" height="50px" viewBox="0 0 50 50" enable-background="new 0 0 50 50" xml:space="preserve">
<path fill="#B0B0B0" d="M16.268,48.063l-0.36-4.692c-0.693,1.573-2.813,2.839-4.186,1.747l-6.425-6.413
	c-1.173-1.359-0.946-3.439,0-5.159l6.585-10.198c1.36-1.546,3.119-2.705,5.999-2.705h1.146l4.559,10.823l-1.68,4.573
	c-0.12,0.333,0.054,0.693,0.373,0.813l3.04,1.105c0.319,0.121,0.679-0.053,0.799-0.372l1.84-5.04c0.119-0.32-0.041-0.68-0.36-0.8
	l-1.12-0.413l4.492-10.69h1.146c2.88,0,4.641,1.159,5.999,2.705l6.586,10.198c0.946,1.72,1.173,3.8,0,5.159l-6.412,6.413
	c-1.387,1.092-3.507-0.174-4.199-1.747l-0.36,4.692H16.268z M15.735,41.156l-0.894-11.49l-4.385,6.158l5.252,5.307
	C15.721,41.131,15.721,41.145,15.735,41.156z M34.292,41.131l5.252-5.307l-4.386-6.158l-0.894,11.49
	C34.278,41.145,34.292,41.131,34.292,41.131z M25,30.6L20.8,20.642h8.398L25,30.6z M17.761,9.176C17.761,5.177,21,1.938,25,1.938
	c3.999,0,7.239,3.239,7.239,7.238s-3.24,7.226-7.239,7.226C21,16.401,17.761,13.175,17.761,9.176z"/>
</svg>
