<?xml version="1.0" encoding="utf-8"?>
<!-- Generator: Adobe Illustrator 16.2.0, SVG Export Plug-In . SVG Version: 6.00 Build 0)  -->
<!DOCTYPE svg PUBLIC "-//W3C//DTD SVG 1.1//EN" "http://www.w3.org/Graphics/SVG/1.1/DTD/svg11.dtd">
<svg version="1.1" id="Layer_1" xmlns="http://www.w3.org/2000/svg" xmlns:xlink="http://www.w3.org/1999/xlink" x="0px" y="0px"
	 width="230.701px" height="117.388px" viewBox="0 0 230.701 117.388" enable-background="new 0 0 230.701 117.388"
	 xml:space="preserve">
<path fill-rule="evenodd" clip-rule="evenodd" fill="#CCCCCC" d="M213.673,116.693c-0.986-0.946-1.025-2.533-0.079-3.533l8.624-9.01
	C127.21,111.467,42.983,69.894,0.398,3.85c-0.747-1.16-0.414-2.706,0.746-3.452c1.16-0.746,2.706-0.413,3.452,0.746
	c41.52,64.393,124.025,105.298,217.527,97.994l-9.036-8.623c-1-0.961-1.026-2.546-0.081-3.546c0.961-0.986,2.533-1.026,3.532-0.08
	l13.396,12.81c0.987,0.946,1.027,2.531,0.08,3.531l-12.809,13.383C216.26,117.613,214.673,117.652,213.673,116.693z"/>
</svg>
