<?xml version="1.0" encoding="utf-8"?>
<!-- Generator: Adobe Illustrator 16.2.0, SVG Export Plug-In . SVG Version: 6.00 Build 0)  -->
<!DOCTYPE svg PUBLIC "-//W3C//DTD SVG 1.1//EN" "http://www.w3.org/Graphics/SVG/1.1/DTD/svg11.dtd">
<svg version="1.1" id="Layer_1" xmlns="http://www.w3.org/2000/svg" xmlns:xlink="http://www.w3.org/1999/xlink" x="0px" y="0px"
	 width="110px" height="110.014px" viewBox="0 0 110 110.014" enable-background="new 0 0 110 110.014" xml:space="preserve">
<path fill="#FFFFFF" d="M22,99.006c0-6.095,4.898-10.992,10.993-10.992C39.048,88.014,44,92.911,44,99.006
	c0,6.069-4.938,11.008-11.007,11.008C26.925,110.014,22,105.075,22,99.006z M76.994,99.006c0-6.095,4.897-10.992,11.007-10.992
	c6.042,0,10.993,4.897,10.993,10.992c0,6.069-4.925,11.008-10.993,11.008C81.918,110.014,76.994,105.075,76.994,99.006z M22,71.503
	c0-1.924,0.498-3.741,1.319-5.274L30.8,52.746L10.994,11.006H0V0h17.977l5.181,11.006h81.339c3.042,0,5.503,2.462,5.503,5.503
	c0,0.929-0.282,1.872-0.658,2.745l-19.698,35.59c-1.871,3.352-5.492,5.665-9.622,5.665H39.048l-4.951,8.962
	c-0.108,0.175-0.162,0.391-0.162,0.658c0,0.768,0.605,1.373,1.373,1.373h63.686v11.008h-66C26.925,82.511,22,77.586,22,71.503z
	 M56.447,55.492l2.934-2.92l2.92,2.92l2.92-2.92l-7.308-7.294l17.533-17.533l7.293,7.307l2.92-2.919l-2.92-2.935l2.92-2.92
	l-4.373-4.373l2.92-2.919l-2.92-2.933l-2.92,2.933l-4.373-4.374l-2.933,2.92l-2.92-2.92l-2.92,2.92l7.293,7.293l-17.52,17.52
	l-7.293-7.293l-2.92,2.92l2.92,2.92l-2.92,2.934l4.373,4.373l-2.934,2.92l2.934,2.92l2.92-2.92L56.447,55.492z"/>
</svg>
