<?xml version="1.0" encoding="utf-8"?>
<!-- Generator: Adobe Illustrator 16.2.0, SVG Export Plug-In . SVG Version: 6.00 Build 0)  -->
<!DOCTYPE svg PUBLIC "-//W3C//DTD SVG 1.1//EN" "http://www.w3.org/Graphics/SVG/1.1/DTD/svg11.dtd">
<svg version="1.1" id="Layer_1" xmlns="http://www.w3.org/2000/svg" xmlns:xlink="http://www.w3.org/1999/xlink" x="0px" y="0px"
	 width="155.299px" height="164.103px" viewBox="0 0 155.299 164.103" enable-background="new 0 0 155.299 164.103"
	 xml:space="preserve">
<path fill-rule="evenodd" clip-rule="evenodd" fill="#DD0000" d="M16.077,163.636L1.045,152.83c-1.12-0.801-1.386-2.358-0.574-3.478
	c0.8-1.12,2.359-1.388,3.479-0.574l10.155,7.29C7.349,55.705,69.17,17.404,152.29,0.052c1.346-0.28,2.679,0.587,2.957,1.934
	c0.281,1.346-0.586,2.679-1.932,2.958C71.529,22.015,12.799,58.836,19.063,155.202l7.25-10.089c0.8-1.119,2.359-1.372,3.478-0.572
	c1.119,0.799,1.386,2.373,0.573,3.49l-10.795,15.033C18.756,164.183,17.197,164.437,16.077,163.636z"/>
</svg>
