<?xml version="1.0" encoding="utf-8"?>
<!-- Generator: Adobe Illustrator 16.2.0, SVG Export Plug-In . SVG Version: 6.00 Build 0)  -->
<!DOCTYPE svg PUBLIC "-//W3C//DTD SVG 1.1//EN" "http://www.w3.org/Graphics/SVG/1.1/DTD/svg11.dtd">
<svg version="1.1" id="Layer_1" xmlns="http://www.w3.org/2000/svg" xmlns:xlink="http://www.w3.org/1999/xlink" x="0px" y="0px"
	 width="85.6px" height="69.109px" viewBox="0 0 85.6 69.109" enable-background="new 0 0 85.6 69.109" xml:space="preserve">
<g>
	<polygon fill="#DD0000" points="57.485,0 69.549,0 69.549,12.064 66.537,12.064 66.537,6.213 42.313,30.436 30.342,18.463 
		16.464,32.329 13.265,29.143 30.342,12.064 42.313,24.036 63.336,3.013 57.485,3.013 	"/>
	<polygon fill-rule="evenodd" clip-rule="evenodd" fill="#FFFFFF" points="0,69.109 0,63.11 15.264,63.11 15.264,36.195 
		27.329,36.195 27.329,63.11 36.368,63.11 36.368,39.208 48.432,39.208 48.432,63.11 57.485,63.11 57.485,24.129 69.549,24.129 
		69.549,63.11 85.6,63.11 85.6,69.109 	"/>
</g>
</svg>
