<?xml version="1.0" encoding="utf-8"?>
<!-- Generator: Adobe Illustrator 16.2.0, SVG Export Plug-In . SVG Version: 6.00 Build 0)  -->
<!DOCTYPE svg PUBLIC "-//W3C//DTD SVG 1.1//EN" "http://www.w3.org/Graphics/SVG/1.1/DTD/svg11.dtd">
<svg version="1.1" id="Layer_1" xmlns="http://www.w3.org/2000/svg" xmlns:xlink="http://www.w3.org/1999/xlink" x="0px" y="0px"
	 width="84.8px" height="84.163px" viewBox="0 0 84.8 84.163" enable-background="new 0 0 84.8 84.163" xml:space="preserve">
<g>
	<path fill-rule="evenodd" clip-rule="evenodd" fill="#FFFFFF" d="M21.485,84.163l-0.679-8.584c-1.254,2.893-5.119,5.186-7.638,3.2
		L1.464,67.088c-2.159-2.479-1.732-6.277,0-9.411l12.01-18.621c2.466-2.812,5.692-4.931,10.93-4.931h2.093l8.317,19.768
		l-3.052,8.331c-0.214,0.599,0.092,1.252,0.68,1.466l5.532,2.025c0.599,0.227,1.253-0.079,1.466-0.666l3.372-9.211
		c0.213-0.586-0.08-1.239-0.68-1.466l-2.039-0.747l8.211-19.5h2.092c5.24,0,8.466,2.12,10.931,4.931l5.08,7.878
		c-11.465,0.653-20.569,10.171-20.569,21.795c0,6.024,2.454,11.49,6.398,15.435H21.485z M20.499,71.567L18.859,50.6l-7.998,11.236
		l9.585,9.664C20.458,71.527,20.485,71.54,20.499,71.567z M37.4,52.292L29.75,34.125h15.302L37.4,52.292z M24.19,13.21
		C24.19,5.919,30.109,0,37.4,0s13.21,5.919,13.21,13.21c0,7.292-5.919,13.197-13.21,13.197S24.19,20.502,24.19,13.21z"/>
	<path fill="#DD0000" d="M57.209,79.445h5.012V64.396h-5.012V79.445z M84.8,65.648c0-1.399-1.132-2.506-2.504-2.506h-7.933
		l1.213-5.731c0.015-0.134,0.027-0.267,0.027-0.412c0-0.508-0.214-0.988-0.547-1.321l-1.333-1.319l-8.251,8.251
		c-0.467,0.467-0.732,1.093-0.732,1.787v12.542c0,1.373,1.12,2.507,2.505,2.507h11.291c1.039,0,1.932-0.627,2.306-1.533l3.786-8.837
		c0.107-0.293,0.172-0.601,0.172-0.921V65.648L84.8,65.648z"/>
</g>
</svg>
