<?xml version="1.0" encoding="utf-8"?>
<!-- Generator: Adobe Illustrator 16.2.0, SVG Export Plug-In . SVG Version: 6.00 Build 0)  -->
<!DOCTYPE svg PUBLIC "-//W3C//DTD SVG 1.1//EN" "http://www.w3.org/Graphics/SVG/1.1/DTD/svg11.dtd">
<svg version="1.1" id="Layer_1" xmlns="http://www.w3.org/2000/svg" xmlns:xlink="http://www.w3.org/1999/xlink" x="0px" y="0px"
	 width="131.5px" height="154.385px" viewBox="0 0 131.5 154.385" enable-background="new 0 0 131.5 154.385" xml:space="preserve">
<path fill-rule="evenodd" clip-rule="evenodd" fill="#CCCCCC" d="M19.072,154.236l-17.429-6.295
	c-1.293-0.467-1.96-1.906-1.494-3.201l6.294-17.43c0.48-1.291,1.908-1.972,3.201-1.505c1.308,0.479,1.974,1.906,1.507,3.214
	l-4.281,11.84C93.427,105.068,124.606,60.303,126.5,2.415c0.039-1.374,1.2-2.466,2.573-2.413c1.386,0.039,2.466,1.199,2.427,2.573
	C129.513,62.97,96.589,109.082,9.137,145.326l11.641,4.214c1.294,0.469,1.961,1.894,1.495,3.201
	C21.805,154.036,20.365,154.702,19.072,154.236z"/>
</svg>
