<?xml version="1.0" encoding="utf-8"?>
<!-- Generator: Adobe Illustrator 16.2.0, SVG Export Plug-In . SVG Version: 6.00 Build 0)  -->
<!DOCTYPE svg PUBLIC "-//W3C//DTD SVG 1.1//EN" "http://www.w3.org/Graphics/SVG/1.1/DTD/svg11.dtd">
<svg version="1.1" id="Layer_1" xmlns="http://www.w3.org/2000/svg" xmlns:xlink="http://www.w3.org/1999/xlink" x="0px" y="0px"
	 width="84.001px" height="60.04px" viewBox="0 0 84.001 60.04" enable-background="new 0 0 84.001 60.04" xml:space="preserve">
<g>
	<path fill="#FFFFFF" d="M0,49.316V6.162C0,2.932,2.932,0,6.174,0h61.639c3.244,0,6.176,2.932,6.176,6.162v25.387
		c-2.325-1.001-4.88-1.554-7.553-1.554c-10.58,0-19.159,8.579-19.159,19.159c0,2.215,0.378,4.351,1.066,6.324H6.174
		C2.932,55.479,0,52.559,0,49.316z M43.155,46.235v-3.079c0-6.176-12.323-9.525-18.497-9.525c-6.161,0-18.484,3.35-18.484,9.525
		v3.079H43.155z M33.914,18.498c0-5.107-4.148-9.256-9.256-9.256c-5.107,0-9.242,4.148-9.242,9.256c0,5.106,4.134,9.242,9.242,9.242
		C29.766,27.739,33.914,23.604,33.914,18.498z M64.734,24.658v-3.081H43.155v3.081H64.734z M67.813,18.498v-3.095H43.155v3.095
		H67.813z M67.813,12.323V9.242H43.155v3.081H67.813z"/>
	<path fill-rule="evenodd" clip-rule="evenodd" fill="#DD0000" d="M64.38,59.058l-8.891-8.876c-1.296-1.312-1.296-3.42,0-4.717
		c1.298-1.296,3.406-1.296,4.702,0l6.54,6.541l11.579-11.593c1.299-1.298,3.404-1.298,4.716,0c1.299,1.31,1.299,3.418,0,4.714
		L69.083,59.058C67.787,60.368,65.678,60.368,64.38,59.058z"/>
</g>
</svg>
