<?xml version="1.0" encoding="utf-8"?>
<!-- Generator: Adobe Illustrator 16.2.0, SVG Export Plug-In . SVG Version: 6.00 Build 0)  -->
<!DOCTYPE svg PUBLIC "-//W3C//DTD SVG 1.1//EN" "http://www.w3.org/Graphics/SVG/1.1/DTD/svg11.dtd">
<svg version="1.1" id="Layer_1" xmlns="http://www.w3.org/2000/svg" xmlns:xlink="http://www.w3.org/1999/xlink" x="0px" y="0px"
	 width="78.199px" height="93.198px" viewBox="0 0 78.199 93.198" enable-background="new 0 0 78.199 93.198" xml:space="preserve">
<path fill="#FFFFFF" d="M15.799,32.626l12.534,6.239L27.44,52.854l11.654-7.747l11.652,7.692L49.96,38.865l12.44-6.239
	l-12.495-6.293l0.841-13.893l-11.652,7.641L27.44,12.346l0.799,14.027L15.799,32.626z M78.199,80.946L59.507,74.56L53.08,93.198
	L38.72,65.239l-13.6,27.959L18.68,74.56L0,80.946l13.6-27.96c-4.467-5.587-7.134-12.68-7.134-20.36C6.466,14.6,21.081,0,39.094,0
	c18.025,0,32.627,14.6,32.627,32.626c0,7.681-2.654,14.773-7.12,20.36L78.199,80.946L78.199,80.946z"/>
</svg>
