<?xml version="1.0" encoding="utf-8"?>
<!-- Generator: Adobe Illustrator 16.2.0, SVG Export Plug-In . SVG Version: 6.00 Build 0)  -->
<!DOCTYPE svg PUBLIC "-//W3C//DTD SVG 1.1//EN" "http://www.w3.org/Graphics/SVG/1.1/DTD/svg11.dtd">
<svg version="1.1" id="Layer_1" xmlns="http://www.w3.org/2000/svg" xmlns:xlink="http://www.w3.org/1999/xlink" x="0px" y="0px"
	 width="212.5px" height="125.204px" viewBox="0 0 212.5 125.204" enable-background="new 0 0 212.5 125.204" xml:space="preserve">
<path fill-rule="evenodd" clip-rule="evenodd" fill="#CCCCCC" d="M1.542,125.009c-1.28-0.534-1.88-2-1.347-3.269
	c39.715-94.388,114-118.237,204.362-107.532l-6.425-10.398c-0.72-1.174-0.359-2.721,0.813-3.441
	c1.175-0.719,2.721-0.359,3.439,0.813l9.746,15.757c0.721,1.174,0.359,2.72-0.813,3.441l-15.759,9.732
	c-1.186,0.733-2.72,0.359-3.451-0.813c-0.721-1.173-0.36-2.707,0.813-3.44l10.879-6.706C114.968,8.676,43.364,32.032,4.808,123.675
	C4.274,124.941,2.809,125.542,1.542,125.009z"/>
</svg>
