<?xml version="1.0" encoding="utf-8"?>
<!-- Generator: Adobe Illustrator 16.2.0, SVG Export Plug-In . SVG Version: 6.00 Build 0)  -->
<!DOCTYPE svg PUBLIC "-//W3C//DTD SVG 1.1//EN" "http://www.w3.org/Graphics/SVG/1.1/DTD/svg11.dtd">
<svg version="1.1" id="Layer_1" xmlns="http://www.w3.org/2000/svg" xmlns:xlink="http://www.w3.org/1999/xlink" x="0px" y="0px"
	 width="24px" height="24px" viewBox="0 0 24 24" enable-background="new 0 0 24 24" xml:space="preserve">
<path fill="#DD0000" d="M3.6,15.6h12.001v-2.4H3.6V15.6z M3.6,13.2 M3.6,10.8h9.6V8.4H3.6V10.8z M3.6,6h16.8V3.6H3.6V6z M8.4,24
	c-0.654,0-1.2-0.533-1.2-1.199V19.2H2.4C1.08,19.2,0,18.133,0,16.8V2.4C0,1.066,1.08,0,2.4,0h19.201C22.934,0,24,1.08,24,2.4v14.4
	c0,1.333-1.066,2.399-2.399,2.399h-7.32l-4.44,4.453C9.6,23.879,9.307,24,9,24H8.4L8.4,24z"/>
</svg>
