<?xml version="1.0" encoding="utf-8"?>
<!-- Generator: Adobe Illustrator 16.2.0, SVG Export Plug-In . SVG Version: 6.00 Build 0)  -->
<!DOCTYPE svg PUBLIC "-//W3C//DTD SVG 1.1//EN" "http://www.w3.org/Graphics/SVG/1.1/DTD/svg11.dtd">
<svg version="1.1" id="Layer_1" xmlns="http://www.w3.org/2000/svg" xmlns:xlink="http://www.w3.org/1999/xlink" x="0px" y="0px"
	 width="24px" height="28.599px" viewBox="0 0 24 28.599" enable-background="new 0 0 24 28.599" xml:space="preserve">
<path fill="#DD0000" d="M4.853,10.014l3.84,1.907l-0.267,4.293L12,13.84l3.573,2.361l-0.239-4.28l3.813-1.907L15.319,8.08
	l0.254-4.266L12,6.16L8.426,3.787l0.24,4.307L4.853,10.014z M24,24.839l-5.733-1.958l-1.974,5.718l-4.414-8.585l-4.173,8.585
	l-1.974-5.718L0,24.839l4.173-8.585c-1.374-1.706-2.187-3.879-2.187-6.24C1.986,4.48,6.466,0,12,0
	c5.533,0,10.013,4.48,10.013,10.014c0,2.36-0.814,4.534-2.187,6.24L24,24.839L24,24.839z"/>
</svg>
