<?xml version="1.0" encoding="utf-8"?>
<!-- Generator: Adobe Illustrator 16.2.0, SVG Export Plug-In . SVG Version: 6.00 Build 0)  -->
<!DOCTYPE svg PUBLIC "-//W3C//DTD SVG 1.1//EN" "http://www.w3.org/Graphics/SVG/1.1/DTD/svg11.dtd">
<svg version="1.1" id="Layer_1" xmlns="http://www.w3.org/2000/svg" xmlns:xlink="http://www.w3.org/1999/xlink" x="0px" y="0px"
	 width="100px" height="100px" viewBox="0 0 100 100" enable-background="new 0 0 100 100" xml:space="preserve">
<path fill-rule="evenodd" clip-rule="evenodd" fill="#FF8200" d="M38.795,98.732l1.147-4.492c3.266,0.733,6.612,1.105,9.945,1.119
	l0.16,4.641C46.274,100,42.488,99.574,38.795,98.732z M53.686,99.853l-0.158-4.626c3.305-0.253,6.598-0.881,9.798-1.853l1.479,4.385
	C61.179,98.879,57.446,99.586,53.686,99.853z M24.958,93.293l2.52-3.907c2.866,1.64,5.866,2.935,8.959,3.907l-1.147,4.506
	C31.716,96.706,28.25,95.199,24.958,93.293z M68.244,96.56l-1.479-4.399c3-1.187,5.893-2.708,8.638-4.561l2.788,3.707
	C75.042,93.453,71.709,95.213,68.244,96.56z M20.491,79.507C4.2,63.214,4.2,36.774,20.491,20.481
	c16.291-16.294,42.741-16.294,59.033,0c16.276,16.293,16.276,42.733,0,59.026C63.232,95.786,36.782,95.786,20.491,79.507z
	 M14.639,85.359c-0.467-0.466-0.907-0.934-1.347-1.4l3.48-3.079c0.373,0.399,0.759,0.8,1.146,1.2c2.027,2.027,4.2,3.813,6.479,5.373
	l-2.507,3.905C19.332,89.626,16.905,87.626,14.639,85.359z M81.11,89.146l-2.786-3.706c1.307-1.04,2.56-2.161,3.76-3.36
	c1.199-1.2,2.318-2.454,3.346-3.733l3.705,2.786c-1.158,1.452-2.427,2.866-3.772,4.227C84.002,86.72,82.588,87.986,81.11,89.146z
	 M4.907,71.641l4.24-1.907c1.413,2.934,3.173,5.746,5.252,8.387l-3.48,3.079C8.52,78.199,6.507,74.986,4.907,71.641z M91.295,78.199
	l-3.708-2.786c1.867-2.746,3.388-5.64,4.574-8.64l4.398,1.467C95.214,71.707,93.455,75.053,91.295,78.199z M0.547,57.414l4.626-0.48
	c0.493,3.213,1.333,6.387,2.519,9.466l-4.239,1.907C2.067,64.773,1.108,61.119,0.547,57.414z M97.761,64.813l-4.388-1.467
	c0.974-3.214,1.602-6.507,1.854-9.813l4.627,0.159C99.586,57.453,98.88,61.186,97.761,64.813z M0.561,42.494l4.573,0.827
	c-0.493,3.32-0.613,6.667-0.373,10l-4.613,0.479C-0.146,50.041,0.001,46.241,0.561,42.494z M100,50.054l-4.641-0.16
	c0-3.333-0.372-6.667-1.106-9.934l4.479-1.16C99.573,42.507,100,46.28,100,50.054z M5.8,39.759l-4.573-0.84
	c0.414-1.827,0.933-3.639,1.547-5.399l0.013-0.026l2.16-5.227l4.092,2.214C7.613,33.467,6.533,36.574,5.8,39.759z M89.388,27.44
	l3.907-2.494c1.906,3.294,3.411,6.773,4.505,10.347l-4.492,1.147C92.347,33.347,91.028,30.321,89.388,27.44z M10.733,27.268
	l-4.147-2.241c0.507-0.879,1.041-1.733,0.081-0.013l2.959-4.532l0.16-0.228l3.479-4.186l0.093-0.106l3.24,3.333
	C14.319,21.774,12.359,24.454,10.733,27.268z M82.083,17.908c-0.388-0.388-0.786-0.775-1.188-1.148l3.053-3.479
	c0.48,0.44,0.946,0.894,1.413,1.347c2.253,2.267,4.253,4.694,5.999,7.241l-3.906,2.492C85.895,22.093,84.109,19.92,82.083,17.908z
	 M19.278,16.601l-3.36-3.28c0.814-0.76,1.64-1.48,0.094,0l4.28-3.561l0.12-0.08l4.626-3.039l2.213,4.092
	C24.438,12.36,21.758,14.321,19.278,16.601z M69.738,9.12l1.894-4.226c3.347,1.613,6.572,3.626,9.572,6.014l-3.067,3.479
	C75.497,12.293,72.684,10.548,69.738,9.12z M30.463,9.027l-2.213-4.08c3.426-1.639,6.999-2.88,10.639-3.706L39.715,5.8
	C36.542,6.535,33.437,7.614,30.463,9.027z M56.886,5.148l0.507-4.6c3.706,0.545,7.372,1.519,10.905,2.906l-1.894,4.227
	C63.313,6.481,60.125,5.641,56.886,5.148z M43.288,5.121l-0.827-4.56c3.746-0.56,7.546-0.707,11.318-0.413l-0.493,4.6
	C49.954,4.507,46.594,4.627,43.288,5.121z"/>
</svg>
