<?xml version="1.0" encoding="utf-8"?>
<!-- Generator: Adobe Illustrator 16.2.0, SVG Export Plug-In . SVG Version: 6.00 Build 0)  -->
<!DOCTYPE svg PUBLIC "-//W3C//DTD SVG 1.1//EN" "http://www.w3.org/Graphics/SVG/1.1/DTD/svg11.dtd">
<svg version="1.1" id="Layer_1" xmlns="http://www.w3.org/2000/svg" xmlns:xlink="http://www.w3.org/1999/xlink" x="0px" y="0px"
	 width="860px" height="74.12px" viewBox="0 0 860 74.12" enable-background="new 0 0 860 74.12" xml:space="preserve">
<g>
	<rect y="27.08" fill-rule="evenodd" clip-rule="evenodd" fill="#DD0000" width="25.2" height="25.2"/>
	<rect x="27.826" y="27.08" fill-rule="evenodd" clip-rule="evenodd" fill="#FFFFFF" width="25.2" height="25.2"/>
	<rect x="55.653" y="27.08" fill-rule="evenodd" clip-rule="evenodd" fill="#FFFFFF" width="25.2" height="25.2"/>
	<rect x="83.48" y="27.08" fill-rule="evenodd" clip-rule="evenodd" fill="#FFFFFF" width="25.2" height="25.2"/>
	<rect x="111.307" y="27.08" fill-rule="evenodd" clip-rule="evenodd" fill="#FFFFFF" width="25.2" height="25.2"/>
	<rect x="139.134" y="27.08" fill-rule="evenodd" clip-rule="evenodd" fill="#FFFFFF" width="25.2" height="25.2"/>
	<rect x="166.96" y="27.08" fill-rule="evenodd" clip-rule="evenodd" fill="#FFFFFF" width="25.2" height="25.2"/>
	<rect x="194.786" y="27.08" fill-rule="evenodd" clip-rule="evenodd" fill="#FFFFFF" width="25.2" height="25.2"/>
	<rect x="222.613" y="27.08" fill-rule="evenodd" clip-rule="evenodd" fill="#FFFFFF" width="25.2" height="25.2"/>
	<rect x="250.44" y="27.08" fill-rule="evenodd" clip-rule="evenodd" fill="#FFFFFF" width="25.2" height="25.2"/>
	<rect x="278.266" y="27.08" fill-rule="evenodd" clip-rule="evenodd" fill="#FFFFFF" width="25.201" height="25.2"/>
	<rect x="306.093" y="27.08" fill-rule="evenodd" clip-rule="evenodd" fill="#FFFFFF" width="25.2" height="25.2"/>
	<rect x="333.92" y="27.08" fill-rule="evenodd" clip-rule="evenodd" fill="#FFFFFF" width="25.2" height="25.2"/>
	<rect x="361.747" y="27.08" fill-rule="evenodd" clip-rule="evenodd" fill="#FFFFFF" width="25.2" height="25.2"/>
	<rect x="389.573" y="27.08" fill-rule="evenodd" clip-rule="evenodd" fill="#FFFFFF" width="25.201" height="25.2"/>
	<rect x="417.4" y="27.08" fill-rule="evenodd" clip-rule="evenodd" fill="#FFFFFF" width="25.2" height="25.2"/>
	<rect x="445.227" y="27.08" fill-rule="evenodd" clip-rule="evenodd" fill="#FFFFFF" width="25.2" height="25.2"/>
	<rect x="473.053" y="27.08" fill-rule="evenodd" clip-rule="evenodd" fill="#FFFFFF" width="25.2" height="25.2"/>
	<rect x="500.879" y="27.08" fill-rule="evenodd" clip-rule="evenodd" fill="#FFFFFF" width="25.201" height="25.2"/>
	<rect x="528.707" y="27.08" fill-rule="evenodd" clip-rule="evenodd" fill="#FFFFFF" width="25.2" height="25.2"/>
	<rect x="556.533" y="27.08" fill-rule="evenodd" clip-rule="evenodd" fill="#FFFFFF" width="25.2" height="25.2"/>
	<rect x="584.36" y="27.08" fill-rule="evenodd" clip-rule="evenodd" fill="#FFFFFF" width="25.2" height="25.2"/>
	<rect x="612.186" y="27.08" fill-rule="evenodd" clip-rule="evenodd" fill="#FFFFFF" width="25.201" height="25.2"/>
	<rect x="640.013" y="27.08" fill-rule="evenodd" clip-rule="evenodd" fill="#FFFFFF" width="25.2" height="25.2"/>
	<rect x="667.84" y="27.08" fill-rule="evenodd" clip-rule="evenodd" fill="#FFFFFF" width="25.2" height="25.2"/>
	<rect x="695.667" y="27.08" fill-rule="evenodd" clip-rule="evenodd" fill="#FFFFFF" width="25.2" height="25.2"/>
	<rect x="723.494" y="27.08" fill-rule="evenodd" clip-rule="evenodd" fill="#FFFFFF" width="25.2" height="25.2"/>
	<rect x="751.32" y="27.08" fill-rule="evenodd" clip-rule="evenodd" fill="#FFFFFF" width="25.2" height="25.2"/>
	<rect x="779.146" y="27.08" fill-rule="evenodd" clip-rule="evenodd" fill="#FFFFFF" width="25.2" height="25.2"/>
	<rect x="806.973" y="27.08" fill-rule="evenodd" clip-rule="evenodd" fill="#FFFFFF" width="25.2" height="25.2"/>
	<rect x="834.799" y="27.08" fill-rule="evenodd" clip-rule="evenodd" fill="#DD0000" width="25.201" height="25.2"/>
	<path fill="#FFFFFF" d="M11.96,43.747H6.12v-0.84l2.947-3.267c0.533-0.586,0.894-1.053,1.08-1.4c0.187-0.347,0.28-0.707,0.28-1.067
		c0-0.44-0.133-0.827-0.4-1.133c-0.253-0.307-0.6-0.453-1.04-0.453c-0.613,0-1.08,0.16-1.373,0.479
		c-0.294,0.32-0.44,0.76-0.44,1.333h-1.16L6,37.373c-0.027-0.773,0.24-1.426,0.773-1.959c0.534-0.52,1.267-0.787,2.213-0.787
		c0.813,0,1.453,0.24,1.934,0.707c0.48,0.467,0.72,1.066,0.72,1.8c0,0.493-0.147,0.986-0.44,1.466
		c-0.28,0.494-0.693,1.027-1.213,1.587l-2.36,2.573l0.013,0.027h4.32V43.747z"/>
	<path fill="#FFFFFF" d="M19.08,43.747h-5.84v-0.84l2.947-3.267c0.533-0.586,0.88-1.053,1.08-1.4c0.187-0.347,0.28-0.707,0.28-1.067
		c0-0.44-0.133-0.827-0.4-1.133c-0.253-0.307-0.6-0.453-1.04-0.453c-0.613,0-1.08,0.16-1.374,0.479
		c-0.293,0.32-0.44,0.76-0.44,1.333h-1.16l-0.013-0.027c-0.027-0.773,0.227-1.426,0.773-1.959c0.533-0.52,1.267-0.787,2.213-0.787
		c0.813,0,1.453,0.24,1.933,0.707c0.48,0.467,0.72,1.066,0.72,1.8c0,0.493-0.146,0.986-0.44,1.466
		c-0.293,0.494-0.693,1.027-1.213,1.587l-2.374,2.573l0.013,0.027h4.333V43.747z"/>
	<path fill="#999999" d="M40.187,43.747H34.36v-0.84l2.947-3.267c0.52-0.586,0.88-1.053,1.066-1.4
		c0.187-0.347,0.28-0.707,0.28-1.067c0-0.44-0.133-0.827-0.386-1.133c-0.267-0.307-0.614-0.453-1.04-0.453
		c-0.627,0-1.08,0.16-1.374,0.479c-0.293,0.32-0.453,0.76-0.453,1.333h-1.16l-0.013-0.027c-0.013-0.773,0.24-1.426,0.773-1.959
		c0.533-0.52,1.28-0.787,2.227-0.787c0.8,0,1.44,0.24,1.92,0.707s0.72,1.066,0.72,1.8c0,0.493-0.147,0.986-0.427,1.466
		c-0.293,0.494-0.707,1.027-1.227,1.587l-2.36,2.573l0.013,0.027h4.32V43.747z"/>
	<path fill="#999999" d="M43.146,38.693H44.2c0.547,0,0.92-0.133,1.146-0.413c0.227-0.267,0.333-0.64,0.333-1.121
		c0-0.52-0.12-0.906-0.373-1.173c-0.254-0.266-0.64-0.399-1.134-0.399c-0.48,0-0.854,0.133-1.134,0.413
		c-0.293,0.28-0.44,0.653-0.44,1.106h-1.16l-0.013-0.04c-0.027-0.667,0.227-1.253,0.733-1.72c0.52-0.48,1.187-0.72,2.013-0.72
		s1.493,0.227,1.987,0.667c0.493,0.44,0.747,1.067,0.747,1.894c0,0.373-0.12,0.733-0.347,1.106c-0.214,0.374-0.56,0.654-1,0.841
		c0.533,0.173,0.92,0.453,1.146,0.84c0.214,0.373,0.333,0.799,0.333,1.267c0,0.813-0.267,1.466-0.813,1.933
		c-0.534,0.467-1.214,0.707-2.053,0.707c-0.813,0-1.493-0.227-2.04-0.667c-0.533-0.44-0.787-1.04-0.773-1.799l0.027-0.041h1.16
		c0,0.48,0.146,0.854,0.427,1.134c0.293,0.266,0.693,0.413,1.2,0.413c0.52,0,0.92-0.147,1.213-0.413
		c0.293-0.28,0.44-0.693,0.44-1.24c0-0.56-0.134-0.96-0.4-1.227c-0.253-0.267-0.667-0.387-1.227-0.387h-1.053V38.693z"/>
	<path fill="#999999" d="M68.413,43.747h-5.827v-0.84l2.947-3.267c0.52-0.586,0.88-1.053,1.067-1.4
		c0.187-0.347,0.28-0.707,0.28-1.067c0-0.44-0.12-0.827-0.387-1.133s-0.613-0.453-1.04-0.453c-0.627,0-1.08,0.16-1.374,0.479
		c-0.293,0.32-0.44,0.76-0.44,1.333h-1.174l-0.013-0.027c-0.013-0.773,0.24-1.426,0.773-1.959c0.533-0.52,1.28-0.787,2.227-0.787
		c0.8,0,1.453,0.24,1.933,0.707c0.467,0.467,0.707,1.066,0.707,1.8c0,0.493-0.133,0.986-0.427,1.466
		c-0.293,0.494-0.693,1.027-1.227,1.587l-2.36,2.573l0.013,0.027h4.32V43.747z"/>
	<path fill="#999999" d="M74.56,40.72h1.24v0.959h-1.24v2.067h-1.2V41.68h-4.04v-0.693l3.96-6.227h1.28V40.72z M70.613,40.72h2.746
		v-4.213l-0.04-0.014l-0.12,0.32L70.613,40.72z"/>
	<path fill="#999999" d="M95.64,43.747h-5.827v-0.84l2.933-3.267c0.534-0.586,0.894-1.053,1.08-1.4s0.28-0.707,0.28-1.067
		c0-0.44-0.133-0.827-0.4-1.133c-0.253-0.307-0.6-0.453-1.04-0.453c-0.614,0-1.08,0.16-1.36,0.479
		c-0.307,0.32-0.453,0.76-0.453,1.333h-1.16l-0.013-0.027c-0.027-0.773,0.24-1.426,0.773-1.959c0.533-0.52,1.267-0.787,2.214-0.787
		c0.813,0,1.453,0.24,1.933,0.707s0.72,1.066,0.72,1.8c0,0.493-0.146,0.986-0.44,1.466c-0.28,0.494-0.693,1.027-1.213,1.587
		l-2.36,2.573l0.013,0.027h4.32V43.747z"/>
	<path fill="#999999" d="M97.28,39.693l0.52-4.934h4.493v1.08h-3.467l-0.293,2.521c0.187-0.134,0.4-0.254,0.627-0.347
		c0.24-0.093,0.507-0.146,0.813-0.146c0.826-0.013,1.48,0.253,1.947,0.8c0.48,0.546,0.72,1.293,0.72,2.213
		c0,0.907-0.24,1.627-0.733,2.174c-0.48,0.546-1.187,0.826-2.107,0.826c-0.76,0-1.4-0.213-1.906-0.626
		c-0.507-0.414-0.747-1.027-0.72-1.84v-0.027h1.107c0,0.48,0.133,0.867,0.426,1.134c0.28,0.266,0.64,0.399,1.094,0.399
		c0.507,0,0.906-0.187,1.2-0.547c0.28-0.36,0.427-0.853,0.427-1.479c0-0.574-0.146-1.054-0.44-1.427
		c-0.28-0.36-0.68-0.547-1.187-0.547c-0.48,0-0.826,0.066-1.04,0.214c-0.213,0.146-0.373,0.359-0.467,0.667L97.28,39.693z"/>
	<path fill="#999999" d="M122.853,43.747h-5.827v-0.84l2.947-3.267c0.533-0.586,0.88-1.053,1.066-1.4
		c0.187-0.347,0.293-0.707,0.293-1.067c0-0.44-0.133-0.827-0.4-1.133c-0.254-0.307-0.6-0.453-1.04-0.453
		c-0.627,0-1.08,0.16-1.374,0.479c-0.293,0.32-0.44,0.76-0.44,1.333h-1.173v-0.027c-0.027-0.773,0.227-1.426,0.76-1.959
		c0.546-0.52,1.28-0.787,2.227-0.787c0.813,0,1.453,0.24,1.933,0.707c0.48,0.467,0.72,1.066,0.72,1.8
		c0,0.493-0.147,0.986-0.44,1.466c-0.293,0.494-0.693,1.027-1.213,1.587l-2.374,2.573l0.013,0.027h4.32V43.747z"/>
	<path fill="#999999" d="M127.587,34.626c0.307,0,0.613,0.041,0.92,0.107c0.293,0.067,0.546,0.16,0.747,0.267L129,35.933
		c-0.2-0.107-0.413-0.186-0.64-0.253c-0.213-0.066-0.48-0.093-0.773-0.093c-0.64,0-1.16,0.253-1.547,0.773
		c-0.4,0.506-0.6,1.186-0.6,2.013v0.134c0.267-0.227,0.573-0.4,0.907-0.533c0.347-0.134,0.707-0.201,1.093-0.201
		c0.813,0,1.454,0.281,1.92,0.84c0.48,0.546,0.72,1.253,0.72,2.107c0,0.933-0.253,1.693-0.76,2.28
		c-0.506,0.587-1.187,0.88-2.04,0.88c-0.88,0-1.6-0.32-2.187-0.96c-0.573-0.64-0.853-1.533-0.853-2.693v-1.72
		c0-1.16,0.32-2.093,0.96-2.8C125.84,34.986,126.64,34.626,127.587,34.626z M127.173,38.68c-0.413,0-0.773,0.093-1.067,0.253
		c-0.293,0.173-0.507,0.4-0.667,0.68v0.72c0,0.826,0.174,1.467,0.534,1.907c0.346,0.453,0.786,0.68,1.307,0.68
		c0.506,0,0.893-0.213,1.173-0.627c0.267-0.426,0.413-0.946,0.413-1.573c0-0.6-0.147-1.08-0.453-1.467
		C128.12,38.88,127.706,38.68,127.173,38.68z"/>
	<path fill="#999999" d="M151.093,43.747h-5.84v-0.84l2.947-3.267c0.533-0.586,0.893-1.053,1.08-1.4
		c0.187-0.347,0.28-0.707,0.28-1.067c0-0.44-0.133-0.827-0.4-1.133c-0.254-0.307-0.6-0.453-1.04-0.453
		c-0.613,0-1.08,0.16-1.373,0.479c-0.294,0.32-0.44,0.76-0.44,1.333h-1.16l-0.013-0.027c-0.027-0.773,0.24-1.426,0.773-1.959
		c0.534-0.52,1.267-0.787,2.214-0.787c0.813,0,1.453,0.24,1.934,0.707c0.48,0.467,0.72,1.066,0.72,1.8
		c0,0.493-0.147,0.986-0.44,1.466c-0.28,0.494-0.693,1.027-1.213,1.587l-2.36,2.573v0.027h4.333V43.747z"/>
	<path fill="#999999" d="M158.2,35.72c-1.08,1.28-1.813,2.426-2.2,3.426c-0.374,1-0.654,2.214-0.814,3.626l-0.106,0.974h-1.214
		l0.093-0.974c0.174-1.413,0.507-2.68,1.014-3.799c0.493-1.107,1.173-2.201,2.04-3.253h-4.893v-0.96h6.08V35.72z"/>
	<path fill="#999999" d="M179.32,43.747h-5.826v-0.84l2.947-3.267c0.52-0.586,0.879-1.053,1.066-1.4
		c0.187-0.347,0.28-0.707,0.28-1.067c0-0.44-0.133-0.827-0.387-1.133c-0.266-0.307-0.613-0.453-1.04-0.453
		c-0.627,0-1.08,0.16-1.374,0.479c-0.293,0.32-0.453,0.76-0.453,1.333h-1.16l-0.013-0.027c-0.014-0.773,0.24-1.426,0.773-1.959
		c0.533-0.52,1.28-0.787,2.227-0.787c0.8,0,1.44,0.24,1.92,0.707c0.48,0.467,0.72,1.066,0.72,1.8c0,0.493-0.147,0.986-0.427,1.466
		c-0.293,0.494-0.707,1.027-1.227,1.587l-2.36,2.573L175,42.787h4.32V43.747z"/>
	<path fill="#999999" d="M186.12,37.106c0,0.467-0.134,0.88-0.4,1.227c-0.267,0.36-0.627,0.613-1.067,0.787
		c0.52,0.187,0.934,0.467,1.24,0.854s0.467,0.84,0.467,1.346c0,0.827-0.267,1.467-0.814,1.893c-0.533,0.44-1.24,0.667-2.106,0.667
		c-0.88,0-1.587-0.227-2.121-0.667c-0.546-0.426-0.813-1.066-0.813-1.893c0-0.506,0.16-0.959,0.453-1.346
		c0.307-0.387,0.72-0.667,1.24-0.854c-0.453-0.173-0.8-0.427-1.053-0.787c-0.253-0.347-0.387-0.76-0.387-1.227
		c0-0.8,0.24-1.4,0.734-1.84c0.493-0.427,1.133-0.64,1.933-0.64c0.786,0,1.44,0.213,1.934,0.64
		C185.866,35.707,186.12,36.307,186.12,37.106z M185.146,41.28c0-0.48-0.16-0.894-0.48-1.214c-0.333-0.307-0.734-0.467-1.24-0.467
		c-0.507,0-0.92,0.16-1.227,0.467c-0.32,0.32-0.48,0.734-0.48,1.214c0,0.52,0.16,0.92,0.48,1.2c0.307,0.293,0.72,0.44,1.24,0.44
		c0.506,0,0.92-0.147,1.24-0.44C185,42.187,185.146,41.787,185.146,41.28z M184.893,37.134c0-0.454-0.134-0.814-0.414-1.107
		c-0.28-0.293-0.627-0.44-1.053-0.44c-0.427,0-0.787,0.133-1.053,0.426c-0.266,0.28-0.4,0.654-0.4,1.121
		c0,0.453,0.133,0.813,0.413,1.093c0.266,0.28,0.613,0.414,1.053,0.414c0.426,0,0.773-0.133,1.053-0.414
		C184.76,37.947,184.893,37.587,184.893,37.134z"/>
	<polygon fill="#999999" points="208.76,43.747 207.533,43.747 207.533,35.947 205.693,35.974 205.693,35.093 208.76,34.76 	"/>
	<path fill="#999999" d="M238.333,43.747h-5.827v-0.84l2.934-3.267c0.533-0.586,0.894-1.053,1.08-1.4
		c0.187-0.347,0.281-0.707,0.281-1.067c0-0.44-0.134-0.827-0.4-1.133c-0.253-0.307-0.6-0.453-1.04-0.453
		c-0.613,0-1.08,0.16-1.374,0.479c-0.293,0.32-0.44,0.76-0.44,1.333h-1.16l-0.014-0.027c-0.027-0.773,0.24-1.426,0.773-1.959
		c0.533-0.52,1.267-0.787,2.213-0.787c0.813,0,1.453,0.24,1.933,0.707c0.48,0.467,0.72,1.066,0.72,1.8
		c0,0.493-0.146,0.986-0.44,1.466c-0.28,0.494-0.693,1.027-1.213,1.587L234,42.76l0.013,0.027h4.32V43.747z"/>
	<path fill="#999999" d="M263.4,38.693h1.067c0.533,0,0.92-0.133,1.146-0.413c0.227-0.267,0.333-0.64,0.333-1.121
		c0-0.52-0.12-0.906-0.374-1.173c-0.266-0.266-0.64-0.399-1.133-0.399c-0.48,0-0.854,0.133-1.147,0.413
		c-0.28,0.28-0.426,0.653-0.426,1.106h-1.16l-0.013-0.04c-0.027-0.667,0.227-1.253,0.733-1.72c0.521-0.48,1.187-0.72,2.014-0.72
		c0.826,0,1.493,0.227,1.986,0.667c0.494,0.44,0.734,1.067,0.734,1.894c0,0.373-0.107,0.733-0.333,1.106
		c-0.227,0.374-0.561,0.654-1.014,0.841c0.547,0.173,0.934,0.453,1.146,0.84c0.227,0.373,0.347,0.799,0.347,1.267
		c0,0.813-0.28,1.466-0.813,1.933c-0.534,0.467-1.228,0.707-2.054,0.707c-0.827,0-1.493-0.227-2.04-0.667
		c-0.533-0.44-0.787-1.04-0.773-1.799l0.026-0.041h1.16c0,0.48,0.134,0.854,0.427,1.134c0.293,0.266,0.693,0.413,1.2,0.413
		s0.92-0.147,1.2-0.413c0.293-0.28,0.44-0.693,0.44-1.24c0-0.56-0.121-0.96-0.387-1.227c-0.253-0.267-0.667-0.387-1.227-0.387H263.4
		V38.693z"/>
	<path fill="#999999" d="M294.827,40.72h1.24v0.959h-1.24v2.067h-1.213V41.68h-4.041v-0.693l3.974-6.227h1.28V40.72z M290.879,40.72
		h2.734v-4.213l-0.027-0.014l-0.12,0.32L290.879,40.72z"/>
	<path fill="#999999" d="M316.533,39.693l0.52-4.934h4.507v1.08h-3.48l-0.293,2.521c0.187-0.134,0.399-0.254,0.64-0.347
		c0.227-0.093,0.494-0.146,0.8-0.146c0.827-0.013,1.48,0.253,1.947,0.8c0.479,0.546,0.72,1.293,0.72,2.213
		c0,0.907-0.24,1.627-0.72,2.174c-0.494,0.546-1.2,0.826-2.12,0.826c-0.76,0-1.4-0.213-1.907-0.626s-0.747-1.027-0.72-1.84
		l0.014-0.027h1.093c0,0.48,0.146,0.867,0.426,1.134c0.28,0.266,0.64,0.399,1.094,0.399c0.52,0,0.92-0.187,1.2-0.547
		c0.28-0.36,0.426-0.853,0.426-1.479c0-0.574-0.146-1.054-0.44-1.427c-0.28-0.36-0.68-0.547-1.187-0.547
		c-0.48,0-0.827,0.066-1.04,0.214c-0.213,0.146-0.373,0.359-0.467,0.667L316.533,39.693z"/>
	<path fill="#999999" d="M347.853,34.626c0.307,0,0.613,0.041,0.92,0.107c0.293,0.067,0.546,0.16,0.746,0.267l-0.266,0.933
		c-0.2-0.107-0.414-0.186-0.627-0.253c-0.227-0.066-0.48-0.093-0.773-0.093c-0.64,0-1.16,0.253-1.56,0.773
		c-0.387,0.506-0.586,1.186-0.586,2.013v0.134c0.267-0.227,0.573-0.4,0.907-0.533c0.333-0.134,0.707-0.201,1.093-0.201
		c0.8,0,1.44,0.281,1.92,0.84c0.48,0.546,0.72,1.253,0.72,2.107c0,0.933-0.253,1.693-0.76,2.28c-0.506,0.587-1.187,0.88-2.04,0.88
		c-0.88,0-1.613-0.32-2.187-0.96c-0.573-0.64-0.866-1.533-0.866-2.693v-1.72c0-1.16,0.333-2.093,0.973-2.8
		C346.107,34.986,346.893,34.626,347.853,34.626z M347.44,38.68c-0.413,0-0.773,0.093-1.067,0.253
		c-0.293,0.173-0.506,0.4-0.667,0.68v0.72c0,0.826,0.173,1.467,0.52,1.907c0.36,0.453,0.8,0.68,1.32,0.68
		c0.493,0,0.894-0.213,1.16-0.627c0.28-0.426,0.426-0.946,0.426-1.573c0-0.6-0.16-1.08-0.453-1.467
		C348.387,38.88,347.973,38.68,347.44,38.68z"/>
	<path fill="#999999" d="M378.466,35.72c-1.08,1.28-1.813,2.426-2.2,3.426c-0.373,1-0.653,2.214-0.826,3.626l-0.094,0.974h-1.213
		l0.094-0.974c0.173-1.413,0.506-2.68,1.013-3.799c0.493-1.107,1.174-2.201,2.04-3.253h-4.893v-0.96h6.08V35.72z"/>
	<path fill="#999999" d="M407.387,37.106c0,0.467-0.133,0.88-0.4,1.227c-0.253,0.36-0.613,0.613-1.066,0.787
		c0.52,0.187,0.933,0.467,1.253,0.854c0.307,0.387,0.467,0.84,0.467,1.346c0,0.827-0.28,1.467-0.813,1.893
		c-0.547,0.44-1.254,0.667-2.106,0.667c-0.894,0-1.601-0.227-2.134-0.667c-0.533-0.426-0.8-1.066-0.8-1.893
		c0-0.506,0.146-0.959,0.453-1.346s0.72-0.667,1.227-0.854c-0.439-0.173-0.8-0.427-1.053-0.787c-0.253-0.347-0.374-0.76-0.374-1.227
		c0-0.8,0.24-1.4,0.72-1.84c0.494-0.427,1.133-0.64,1.947-0.64c0.787,0,1.426,0.213,1.934,0.64
		C407.133,35.707,407.387,36.307,407.387,37.106z M406.426,41.28c0-0.48-0.16-0.894-0.493-1.214
		c-0.32-0.307-0.733-0.467-1.227-0.467c-0.507,0-0.92,0.16-1.24,0.467C403.16,40.387,403,40.8,403,41.28c0,0.52,0.16,0.92,0.466,1.2
		c0.307,0.293,0.733,0.44,1.254,0.44c0.506,0,0.906-0.147,1.227-0.44C406.266,42.187,406.426,41.787,406.426,41.28z M406.173,37.134
		c0-0.454-0.146-0.814-0.414-1.107c-0.28-0.293-0.64-0.44-1.053-0.44c-0.44,0-0.787,0.133-1.054,0.426
		c-0.266,0.28-0.399,0.654-0.399,1.121c0,0.453,0.133,0.813,0.399,1.093c0.267,0.28,0.627,0.414,1.067,0.414
		c0.426,0,0.773-0.133,1.04-0.414C406.04,37.947,406.173,37.587,406.173,37.134z"/>
	<path fill="#999999" d="M429.506,42.92c0.601,0,1.066-0.227,1.427-0.667c0.36-0.453,0.533-1.12,0.533-2V39.84
		c-0.2,0.294-0.453,0.521-0.76,0.667c-0.293,0.146-0.64,0.227-1,0.227c-0.867,0-1.56-0.267-2.066-0.8
		c-0.521-0.546-0.773-1.28-0.773-2.227c0-0.893,0.266-1.64,0.813-2.213s1.2-0.867,1.973-0.867c0.934,0,1.681,0.293,2.214,0.88
		c0.547,0.586,0.813,1.453,0.813,2.586v2.147c0,1.173-0.293,2.066-0.88,2.693c-0.586,0.627-1.346,0.947-2.293,0.947
		c-0.307,0-0.64-0.04-0.96-0.093c-0.333-0.066-0.626-0.146-0.88-0.28l0.187-0.933c0.24,0.133,0.493,0.213,0.747,0.266
		C428.867,42.894,429.173,42.92,429.506,42.92z M429.707,39.773c0.44,0,0.813-0.093,1.12-0.28c0.293-0.2,0.507-0.439,0.64-0.746
		v-0.773c0-0.787-0.146-1.387-0.453-1.787c-0.307-0.4-0.747-0.6-1.32-0.6c-0.454,0-0.827,0.2-1.133,0.586
		c-0.32,0.4-0.48,0.907-0.48,1.533c0,0.613,0.146,1.12,0.439,1.494C428.813,39.587,429.2,39.773,429.707,39.773z"/>
	<polygon fill="#999999" points="455.227,43.747 454.013,43.747 454.013,35.947 452.173,35.974 452.173,35.093 455.227,34.76 	"/>
	<path fill="#999999" d="M464.56,40.32c0,1.147-0.253,2.027-0.761,2.64c-0.506,0.614-1.2,0.92-2.093,0.92
		c-0.88,0-1.587-0.306-2.093-0.92c-0.52-0.613-0.773-1.493-0.773-2.64v-2.133c0-1.147,0.253-2.027,0.773-2.641
		c0.506-0.613,1.2-0.92,2.08-0.92c0.893,0,1.586,0.307,2.106,0.92c0.507,0.613,0.761,1.494,0.761,2.641V40.32z M463.346,37.933
		c0-0.787-0.146-1.359-0.426-1.76c-0.28-0.387-0.68-0.586-1.227-0.586c-0.533,0-0.934,0.2-1.213,0.586
		c-0.28,0.4-0.427,0.973-0.427,1.76v2.627c0,0.773,0.146,1.36,0.427,1.76c0.28,0.4,0.693,0.6,1.227,0.6s0.946-0.2,1.227-0.586
		c0.28-0.4,0.413-0.987,0.413-1.773V37.933z"/>
	<polygon fill="#999999" points="483.466,43.747 482.24,43.747 482.24,35.947 480.4,35.974 480.4,35.093 483.466,34.76 	"/>
	<polygon fill="#999999" points="490.573,43.747 489.36,43.747 489.36,35.947 487.52,35.974 487.52,35.093 490.573,34.76 	"/>
	<polygon fill="#999999" points="512.693,43.747 511.48,43.747 511.48,35.947 509.64,35.974 509.64,35.093 512.693,34.76 	"/>
	<path fill="#999999" d="M522.173,43.747h-5.827v-0.84l2.934-3.267c0.533-0.586,0.894-1.053,1.08-1.4s0.28-0.707,0.28-1.067
		c0-0.44-0.134-0.827-0.4-1.133c-0.253-0.307-0.6-0.453-1.04-0.453c-0.613,0-1.08,0.16-1.373,0.479
		c-0.293,0.32-0.44,0.76-0.44,1.333h-1.16l-0.014-0.027c-0.027-0.773,0.24-1.426,0.773-1.959c0.533-0.52,1.267-0.787,2.213-0.787
		c0.813,0,1.453,0.24,1.933,0.707c0.48,0.467,0.72,1.066,0.72,1.8c0,0.493-0.146,0.986-0.439,1.466
		c-0.281,0.494-0.693,1.027-1.214,1.587l-2.36,2.573l0.013,0.027h4.32V43.747z"/>
	<polygon fill="#999999" points="539.92,43.747 538.707,43.747 538.707,35.947 536.867,35.974 536.867,35.093 539.92,34.76 	"/>
	<path fill="#999999" d="M545.227,38.693h1.066c0.534,0,0.92-0.133,1.147-0.413c0.227-0.267,0.333-0.64,0.333-1.121
		c0-0.52-0.133-0.906-0.387-1.173c-0.254-0.266-0.627-0.399-1.121-0.399c-0.479,0-0.853,0.133-1.146,0.413
		c-0.28,0.28-0.426,0.653-0.426,1.106h-1.174v-0.04c-0.026-0.667,0.213-1.253,0.734-1.72c0.506-0.48,1.187-0.72,2.013-0.72
		c0.827,0,1.494,0.227,1.987,0.667c0.493,0.44,0.733,1.067,0.733,1.894c0,0.373-0.107,0.733-0.333,1.106
		c-0.227,0.374-0.56,0.654-1.013,0.841c0.546,0.173,0.92,0.453,1.146,0.84c0.227,0.373,0.333,0.799,0.333,1.267
		c0,0.813-0.267,1.466-0.8,1.933s-1.227,0.707-2.054,0.707c-0.826,0-1.506-0.227-2.04-0.667c-0.533-0.44-0.8-1.04-0.773-1.799
		l0.013-0.041h1.16c0,0.48,0.147,0.854,0.44,1.134c0.293,0.266,0.693,0.413,1.2,0.413c0.507,0,0.907-0.147,1.2-0.413
		c0.293-0.28,0.44-0.693,0.44-1.24c0-0.56-0.133-0.96-0.387-1.227c-0.253-0.267-0.667-0.387-1.227-0.387h-1.066V38.693z"/>
	<polygon fill="#999999" points="568.146,43.747 566.933,43.747 566.933,35.947 565.093,35.974 565.093,35.093 568.146,34.76 	"/>
	<path fill="#999999" d="M576.653,40.72h1.24v0.959h-1.24v2.067h-1.213V41.68h-4.04v-0.693l3.973-6.227h1.28V40.72z M572.693,40.72
		h2.747v-4.213l-0.04-0.014l-0.107,0.32L572.693,40.72z"/>
	<polygon fill="#999999" points="596.387,43.747 595.16,43.747 595.16,35.947 593.32,35.974 593.32,35.093 596.387,34.76 	"/>
	<path fill="#999999" d="M600.373,39.693l0.52-4.934h4.507v1.08h-3.48l-0.293,2.521c0.187-0.134,0.4-0.254,0.64-0.347
		c0.228-0.093,0.494-0.146,0.8-0.146c0.827-0.013,1.48,0.253,1.96,0.8c0.467,0.546,0.706,1.293,0.706,2.213
		c0,0.907-0.239,1.627-0.72,2.174c-0.494,0.546-1.2,0.826-2.12,0.826c-0.76,0-1.399-0.213-1.907-0.626
		c-0.506-0.414-0.747-1.027-0.72-1.84l0.014-0.027h1.093c0,0.48,0.146,0.867,0.426,1.134c0.281,0.266,0.641,0.399,1.094,0.399
		c0.521,0,0.92-0.187,1.2-0.547c0.28-0.36,0.426-0.853,0.426-1.479c0-0.574-0.146-1.054-0.439-1.427
		c-0.281-0.36-0.68-0.547-1.187-0.547c-0.479,0-0.827,0.066-1.04,0.214c-0.213,0.146-0.373,0.359-0.466,0.667L600.373,39.693z"/>
	<polygon fill="#999999" points="622.6,43.747 621.373,43.747 621.373,35.947 619.533,35.974 619.533,35.093 622.6,34.76 	"/>
	<path fill="#999999" d="M629.68,34.626c0.307,0,0.613,0.041,0.907,0.107c0.307,0.067,0.56,0.16,0.76,0.267l-0.266,0.933
		c-0.201-0.107-0.414-0.186-0.627-0.253c-0.227-0.066-0.48-0.093-0.773-0.093c-0.653,0-1.16,0.253-1.56,0.773
		c-0.387,0.506-0.586,1.186-0.586,2.013v0.134c0.266-0.227,0.56-0.4,0.907-0.533c0.333-0.134,0.707-0.201,1.093-0.201
		c0.8,0,1.44,0.281,1.92,0.84c0.48,0.546,0.72,1.253,0.72,2.107c0,0.933-0.253,1.693-0.76,2.28c-0.521,0.587-1.187,0.88-2.041,0.88
		c-0.879,0-1.613-0.32-2.187-0.96c-0.573-0.64-0.866-1.533-0.866-2.693v-1.72c0-1.16,0.32-2.093,0.96-2.8
		C627.933,34.986,628.72,34.626,629.68,34.626z M629.266,38.68c-0.426,0-0.772,0.093-1.066,0.253c-0.293,0.173-0.52,0.4-0.667,0.68
		v0.72c0,0.826,0.173,1.467,0.52,1.907c0.36,0.453,0.787,0.68,1.32,0.68c0.494,0,0.88-0.213,1.16-0.627
		c0.28-0.426,0.414-0.946,0.414-1.573c0-0.6-0.147-1.08-0.44-1.467C630.213,38.88,629.787,38.68,629.266,38.68z"/>
	<polygon fill="#999999" points="649.813,43.747 648.6,43.747 648.6,35.947 646.76,35.974 646.76,35.093 649.813,34.76 	"/>
	<path fill="#999999" d="M659.28,35.72c-1.08,1.28-1.813,2.426-2.2,3.426c-0.374,1-0.654,2.214-0.814,3.626l-0.106,0.974h-1.213
		l0.093-0.974c0.173-1.413,0.507-2.68,1.014-3.799c0.493-1.107,1.173-2.201,2.04-3.253H653.2v-0.96h6.08V35.72z"/>
	<polygon fill="#999999" points="677.04,43.747 675.827,43.747 675.827,35.947 673.986,35.974 673.986,35.093 677.04,34.76 	"/>
	<path fill="#999999" d="M686.186,37.106c0,0.467-0.133,0.88-0.399,1.227c-0.253,0.36-0.613,0.613-1.066,0.787
		c0.52,0.187,0.933,0.467,1.253,0.854c0.307,0.387,0.467,0.84,0.467,1.346c0,0.827-0.28,1.467-0.813,1.893
		c-0.546,0.44-1.253,0.667-2.12,0.667c-0.88,0-1.586-0.227-2.12-0.667c-0.534-0.426-0.8-1.066-0.8-1.893
		c0-0.506,0.146-0.959,0.453-1.346s0.707-0.667,1.227-0.854c-0.439-0.173-0.8-0.427-1.053-0.787
		c-0.253-0.347-0.373-0.76-0.373-1.227c0-0.8,0.24-1.4,0.72-1.84c0.493-0.427,1.133-0.64,1.946-0.64c0.787,0,1.427,0.213,1.934,0.64
		C685.933,35.707,686.186,36.307,686.186,37.106z M685.227,41.28c0-0.48-0.16-0.894-0.494-1.214
		C684.414,39.76,684,39.6,683.506,39.6c-0.506,0-0.92,0.16-1.24,0.467c-0.307,0.32-0.467,0.734-0.467,1.214
		c0,0.52,0.16,0.92,0.467,1.2c0.307,0.293,0.734,0.44,1.24,0.44c0.507,0,0.92-0.147,1.24-0.44
		C685.066,42.187,685.227,41.787,685.227,41.28z M684.973,37.134c0-0.454-0.146-0.814-0.427-1.107
		c-0.267-0.293-0.626-0.44-1.04-0.44c-0.44,0-0.786,0.133-1.053,0.426c-0.267,0.28-0.4,0.654-0.4,1.121
		c0,0.453,0.133,0.813,0.4,1.093c0.267,0.28,0.627,0.414,1.053,0.414c0.44,0,0.787-0.133,1.054-0.414
		C684.84,37.947,684.973,37.587,684.973,37.134z"/>
	<polygon fill="#999999" points="707.28,43.747 706.066,43.747 706.066,35.947 704.227,35.974 704.227,35.093 707.28,34.76 	"/>
	<path fill="#999999" d="M713.346,42.92c0.601,0,1.067-0.227,1.427-0.667c0.359-0.453,0.533-1.12,0.533-2V39.84
		c-0.2,0.294-0.454,0.521-0.747,0.667c-0.307,0.146-0.64,0.227-1.014,0.227c-0.867,0-1.56-0.267-2.066-0.8
		c-0.521-0.546-0.773-1.28-0.773-2.227c0-0.893,0.28-1.64,0.813-2.213c0.547-0.573,1.201-0.867,1.974-0.867
		c0.933,0,1.68,0.293,2.227,0.88c0.533,0.586,0.799,1.453,0.799,2.586v2.147c0,1.173-0.293,2.066-0.879,2.693
		c-0.587,0.627-1.347,0.947-2.294,0.947c-0.307,0-0.64-0.04-0.959-0.093c-0.333-0.066-0.627-0.146-0.88-0.28l0.187-0.933
		c0.24,0.133,0.493,0.213,0.76,0.266C712.707,42.894,713.013,42.92,713.346,42.92z M713.546,39.773c0.44,0,0.813-0.093,1.12-0.28
		c0.293-0.2,0.507-0.439,0.64-0.746v-0.773c0-0.787-0.146-1.387-0.454-1.787c-0.293-0.4-0.746-0.6-1.32-0.6
		c-0.44,0-0.827,0.2-1.133,0.586c-0.32,0.4-0.48,0.907-0.48,1.533c0,0.613,0.146,1.12,0.44,1.494
		C712.653,39.587,713.04,39.773,713.546,39.773z"/>
	<path fill="#999999" d="M737.867,43.747h-5.827v-0.84l2.934-3.267c0.533-0.586,0.894-1.053,1.08-1.4s0.28-0.707,0.28-1.067
		c0-0.44-0.134-0.827-0.4-1.133c-0.253-0.307-0.6-0.453-1.04-0.453c-0.613,0-1.08,0.16-1.36,0.479
		c-0.307,0.32-0.453,0.76-0.453,1.333h-1.16l-0.014-0.027c-0.027-0.773,0.24-1.426,0.773-1.959c0.533-0.52,1.267-0.787,2.213-0.787
		c0.813,0,1.453,0.24,1.934,0.707c0.48,0.467,0.72,1.066,0.72,1.8c0,0.493-0.146,0.986-0.439,1.466
		c-0.28,0.494-0.693,1.027-1.214,1.587l-2.36,2.573l0.013,0.027h4.32V43.747z"/>
	<path fill="#999999" d="M744.84,40.32c0,1.147-0.253,2.027-0.76,2.64c-0.507,0.614-1.201,0.92-2.094,0.92
		c-0.879,0-1.573-0.306-2.093-0.92c-0.52-0.613-0.773-1.493-0.773-2.64v-2.133c0-1.147,0.253-2.027,0.773-2.641
		c0.507-0.613,1.214-0.92,2.093-0.92c0.88,0,1.574,0.307,2.094,0.92c0.506,0.613,0.76,1.494,0.76,2.641V40.32z M743.626,37.933
		c0-0.787-0.133-1.359-0.427-1.76c-0.28-0.387-0.68-0.586-1.213-0.586c-0.546,0-0.947,0.2-1.227,0.586
		c-0.28,0.4-0.426,0.973-0.426,1.76v2.627c0,0.773,0.146,1.36,0.426,1.76c0.293,0.4,0.693,0.6,1.227,0.6
		c0.547,0,0.947-0.2,1.227-0.586c0.281-0.4,0.414-0.987,0.414-1.773V37.933z"/>
	<path fill="#999999" d="M764.08,43.747h-5.827v-0.84l2.946-3.267c0.521-0.586,0.88-1.053,1.066-1.4
		c0.187-0.347,0.28-0.707,0.28-1.067c0-0.44-0.133-0.827-0.386-1.133c-0.267-0.307-0.614-0.453-1.041-0.453
		c-0.626,0-1.08,0.16-1.373,0.479c-0.293,0.32-0.44,0.76-0.44,1.333h-1.174l-0.013-0.027c-0.013-0.773,0.24-1.426,0.773-1.959
		c0.533-0.52,1.28-0.787,2.227-0.787c0.8,0,1.44,0.24,1.92,0.707c0.48,0.467,0.72,1.066,0.72,1.8c0,0.493-0.146,0.986-0.426,1.466
		c-0.294,0.494-0.707,1.027-1.227,1.587l-2.36,2.573l0.013,0.027h4.32V43.747z"/>
	<polygon fill="#999999" points="768.84,43.747 767.626,43.747 767.626,35.947 765.787,35.974 765.787,35.093 768.84,34.76 	"/>
	<path fill="#999999" d="M793.32,43.747h-5.826v-0.84l2.946-3.267c0.52-0.586,0.88-1.053,1.066-1.4
		c0.187-0.347,0.28-0.707,0.28-1.067c0-0.44-0.134-0.827-0.387-1.133c-0.267-0.307-0.613-0.453-1.04-0.453
		c-0.627,0-1.08,0.16-1.374,0.479c-0.307,0.32-0.453,0.76-0.453,1.333h-1.16l-0.013-0.027c-0.026-0.773,0.24-1.426,0.773-1.959
		c0.534-0.52,1.281-0.787,2.227-0.787c0.8,0,1.439,0.24,1.92,0.707c0.48,0.467,0.72,1.066,0.72,1.8c0,0.493-0.147,0.986-0.427,1.466
		c-0.293,0.494-0.706,1.027-1.227,1.587l-2.36,2.573L789,42.787h4.32V43.747z"/>
	<path fill="#999999" d="M800.44,43.747h-5.827v-0.84l2.933-3.267c0.534-0.586,0.894-1.053,1.08-1.4s0.28-0.707,0.28-1.067
		c0-0.44-0.133-0.827-0.4-1.133c-0.253-0.307-0.6-0.453-1.04-0.453c-0.613,0-1.08,0.16-1.373,0.479
		c-0.294,0.32-0.44,0.76-0.44,1.333h-1.159l-0.014-0.027c-0.027-0.773,0.24-1.426,0.773-1.959c0.533-0.52,1.266-0.787,2.213-0.787
		c0.813,0,1.454,0.24,1.934,0.707c0.479,0.467,0.72,1.066,0.72,1.8c0,0.493-0.146,0.986-0.44,1.466
		c-0.28,0.494-0.693,1.027-1.213,1.587l-2.359,2.573l0.013,0.027h4.32V43.747z"/>
	<path fill="#999999" d="M819.533,43.747h-5.827v-0.84l2.946-3.267c0.521-0.586,0.88-1.053,1.067-1.4
		c0.186-0.347,0.28-0.707,0.28-1.067c0-0.44-0.133-0.827-0.387-1.133c-0.267-0.307-0.613-0.453-1.041-0.453
		c-0.626,0-1.079,0.16-1.373,0.479c-0.307,0.32-0.453,0.76-0.453,1.333h-1.16l-0.014-0.027c-0.026-0.773,0.24-1.426,0.773-1.959
		c0.533-0.52,1.28-0.787,2.227-0.787c0.8,0,1.44,0.24,1.921,0.707c0.479,0.467,0.719,1.066,0.719,1.8
		c0,0.493-0.146,0.986-0.426,1.466c-0.293,0.494-0.707,1.027-1.227,1.587l-2.36,2.573l0.013,0.027h4.32V43.747z"/>
	<path fill="#999999" d="M822.494,38.693h1.053c0.547,0,0.92-0.133,1.147-0.413c0.227-0.267,0.333-0.64,0.333-1.121
		c0-0.52-0.121-0.906-0.374-1.173c-0.266-0.266-0.64-0.399-1.133-0.399c-0.48,0-0.853,0.133-1.146,0.413
		c-0.28,0.28-0.426,0.653-0.426,1.106h-1.16l-0.013-0.04c-0.027-0.667,0.227-1.253,0.733-1.72c0.521-0.48,1.187-0.72,2.013-0.72
		c0.827,0,1.494,0.227,1.987,0.667c0.494,0.44,0.747,1.067,0.747,1.894c0,0.373-0.121,0.733-0.347,1.106
		c-0.227,0.374-0.56,0.654-1,0.841c0.534,0.173,0.92,0.453,1.147,0.84c0.213,0.373,0.333,0.799,0.333,1.267
		c0,0.813-0.267,1.466-0.814,1.933c-0.533,0.467-1.213,0.707-2.053,0.707c-0.826,0-1.493-0.227-2.04-0.667
		c-0.533-0.44-0.787-1.04-0.773-1.799l0.026-0.041h1.16c0,0.48,0.146,0.854,0.427,1.134c0.293,0.266,0.693,0.413,1.2,0.413
		c0.507,0,0.92-0.147,1.213-0.413c0.294-0.28,0.44-0.693,0.427-1.24c0.013-0.56-0.121-0.96-0.387-1.227
		c-0.254-0.267-0.667-0.387-1.227-0.387h-1.053V38.693z"/>
	<path fill="#FFFFFF" d="M847.76,43.747h-5.827v-0.84l2.946-3.267c0.521-0.586,0.88-1.053,1.067-1.4
		c0.186-0.347,0.28-0.707,0.28-1.067c0-0.44-0.133-0.827-0.387-1.133c-0.267-0.307-0.613-0.453-1.041-0.453
		c-0.626,0-1.079,0.16-1.373,0.479c-0.293,0.32-0.44,0.76-0.44,1.333h-1.173l-0.014-0.027c-0.013-0.773,0.24-1.426,0.773-1.959
		c0.534-0.52,1.28-0.787,2.227-0.787c0.8,0,1.454,0.24,1.921,0.707c0.479,0.467,0.72,1.066,0.72,1.8
		c0,0.493-0.147,0.986-0.427,1.466c-0.293,0.494-0.693,1.027-1.227,1.587l-2.36,2.573l0.014,0.027h4.32V43.747z"/>
	<path fill="#FFFFFF" d="M853.906,40.72h1.24v0.959h-1.24v2.067h-1.213V41.68h-4.027v-0.693l3.96-6.227h1.28V40.72z M849.959,40.72
		h2.734v-4.213l-0.027-0.014l-0.12,0.32L849.959,40.72z"/>
	<path fill="#7D7D7D" d="M6.453,1.613h0.213c1.32,0,2.427,0.44,3.32,1.307c0.88,0.853,1.333,1.96,1.333,3.32
		c0,1.347-0.453,2.466-1.333,3.333c-0.893,0.866-2,1.293-3.32,1.293H6.453v1.547H4.906v-1.547H4.68c-1.333,0-2.44-0.427-3.32-1.28
		C0.48,8.72,0.04,7.613,0.04,6.253S0.48,3.787,1.36,2.92c0.894-0.866,1.987-1.307,3.32-1.307h0.227V0h1.547V1.613z M4.68,2.84
		c-1,0-1.76,0.307-2.293,0.92C1.84,4.373,1.573,5.2,1.573,6.24c0,1.053,0.267,1.894,0.813,2.493C2.92,9.347,3.68,9.653,4.68,9.653
		h0.227V2.84H4.68z M6.453,2.84v6.813H6.68c0.973,0,1.733-0.307,2.28-0.92C9.493,8.12,9.773,7.28,9.773,6.227
		c0-1.04-0.28-1.866-0.813-2.467C8.413,3.146,7.653,2.84,6.68,2.84H6.453z"/>
	<path fill="#7D7D7D" d="M16.56,12.106c-1.187,0-2.134-0.386-2.827-1.187c-0.707-0.786-1.053-1.813-1.053-3.066V7.507
		c0-1.214,0.36-2.227,1.08-3.04c0.72-0.8,1.573-1.2,2.56-1.2c1.16,0,2.027,0.347,2.614,1.04C19.52,5,19.813,5.92,19.813,7.08v0.96
		H14.28l-0.013,0.04c0.013,0.827,0.213,1.494,0.613,2.013c0.4,0.533,0.96,0.8,1.68,0.8c0.52,0,0.987-0.08,1.387-0.227
		c0.387-0.146,0.733-0.36,1.027-0.627l0.6,1.014c-0.307,0.307-0.707,0.56-1.2,0.76C17.88,12.013,17.267,12.106,16.56,12.106z
		 M16.32,4.48c-0.52,0-0.96,0.227-1.32,0.667c-0.374,0.427-0.6,0.974-0.68,1.64l0.014,0.04h3.933V6.613c0-0.6-0.16-1.106-0.494-1.52
		C17.453,4.693,16.96,4.48,16.32,4.48z"/>
	<path fill="#7D7D7D" d="M21.56,11.947v-8.52h3.36c1.133,0,2,0.187,2.626,0.586c0.613,0.387,0.92,0.973,0.92,1.76
		c0,0.4-0.12,0.748-0.36,1.067c-0.24,0.307-0.587,0.547-1.027,0.707c0.534,0.133,0.947,0.374,1.24,0.734
		c0.307,0.36,0.453,0.773,0.453,1.24c0,0.799-0.293,1.399-0.88,1.813c-0.573,0.4-1.387,0.613-2.427,0.613H21.56z M23.12,8.213v2.534
		h2.347c0.573,0,1.013-0.107,1.307-0.333c0.293-0.213,0.44-0.52,0.44-0.934c0-0.4-0.147-0.72-0.44-0.934
		C26.48,8.32,26.04,8.213,25.466,8.213H23.12z M23.12,7.027h1.813c0.653,0,1.146-0.107,1.48-0.293c0.333-0.2,0.507-0.493,0.507-0.88
		c0-0.414-0.174-0.72-0.507-0.92c-0.333-0.2-0.827-0.307-1.493-0.307h-1.8V7.027z"/>
	<path fill="#7D7D7D" d="M37.986,8c0,1.24-0.293,2.227-0.88,2.974c-0.587,0.76-1.4,1.133-2.44,1.133c-0.52,0-0.987-0.08-1.387-0.267
		c-0.387-0.173-0.72-0.44-1-0.786v4.173h-1.56v-11.8h1.187l0.253,1.094c0.28-0.4,0.627-0.72,1.04-0.934
		c0.414-0.214,0.893-0.32,1.44-0.32c1.066,0,1.88,0.413,2.467,1.254c0.586,0.84,0.88,1.946,0.88,3.319V8z M36.44,7.84
		c0-0.973-0.2-1.76-0.573-2.387c-0.387-0.613-0.947-0.933-1.68-0.933c-0.454,0-0.827,0.106-1.147,0.306
		c-0.32,0.201-0.573,0.48-0.76,0.827v4.12c0.187,0.347,0.44,0.627,0.76,0.814c0.32,0.2,0.693,0.307,1.16,0.307
		c0.733,0,1.293-0.28,1.667-0.813C36.24,9.546,36.44,8.854,36.44,8V7.84z"/>
	<path fill="#7D7D7D" d="M45.133,11.947c-0.053-0.267-0.094-0.494-0.12-0.68c-0.04-0.2-0.053-0.4-0.053-0.6
		c-0.293,0.413-0.667,0.747-1.134,1.026c-0.467,0.28-0.96,0.413-1.507,0.413c-0.88,0-1.56-0.227-2.026-0.68
		c-0.467-0.453-0.693-1.08-0.693-1.88c0-0.813,0.333-1.453,0.987-1.906c0.667-0.453,1.56-0.693,2.68-0.693h1.693v-0.84
		c0-0.493-0.16-0.894-0.467-1.187c-0.293-0.293-0.733-0.44-1.28-0.44c-0.507,0-0.906,0.133-1.227,0.387
		c-0.307,0.253-0.467,0.56-0.467,0.92h-1.48l-0.013-0.053c-0.04-0.613,0.253-1.187,0.88-1.693c0.613-0.52,1.413-0.773,2.387-0.773
		c0.96,0,1.746,0.24,2.333,0.733c0.587,0.493,0.88,1.2,0.88,2.12v4.106c0,0.307,0.013,0.6,0.053,0.88
		c0.027,0.28,0.08,0.561,0.173,0.84H45.133z M42.56,10.8c0.56,0,1.067-0.147,1.507-0.427c0.453-0.293,0.747-0.626,0.894-1V8h-1.747
		c-0.627,0-1.12,0.16-1.493,0.467c-0.386,0.32-0.573,0.68-0.573,1.107c0,0.386,0.12,0.68,0.36,0.893
		C41.746,10.693,42.093,10.8,42.56,10.8z"/>
	<path fill="#7D7D7D" d="M55.667,3.427v8.52H54.12V4.64h-2.88v2.414c0,1.68-0.227,2.92-0.68,3.706c-0.44,0.787-1.2,1.187-2.28,1.187
		h-0.44l0.027-1.32l0.32-0.013c0.56,0,0.947-0.267,1.16-0.813c0.214-0.534,0.333-1.454,0.333-2.734v-3.64H55.667z"/>
	<path fill="#7D7D7D" d="M59.32,6.667h2.12c1,0,1.787,0.24,2.347,0.72c0.56,0.493,0.84,1.12,0.84,1.88
		c0,0.787-0.28,1.427-0.854,1.92c-0.56,0.506-1.347,0.76-2.333,0.76h-3.68v-8.52h1.56V6.667z M59.32,7.894v2.827h2.12
		c0.547,0,0.96-0.133,1.227-0.4c0.267-0.266,0.4-0.6,0.4-0.986s-0.133-0.734-0.4-1.014c-0.267-0.293-0.68-0.426-1.227-0.426H59.32z"
		/>
	<polygon fill="#7D7D7D" points="195.333,0.48 198.986,9.8 199.04,9.8 202.693,0.48 204.68,0.48 204.68,11.947 203.12,11.947 
		203.12,7.414 203.28,2.747 203.24,2.733 199.533,11.947 198.493,11.947 194.8,2.76 194.76,2.773 194.906,7.414 194.906,11.947 
		193.346,11.947 193.346,0.48 	"/>
	<path fill="#7D7D7D" d="M212.467,11.947c-0.053-0.267-0.094-0.494-0.121-0.68c-0.026-0.2-0.04-0.4-0.053-0.6
		c-0.28,0.413-0.667,0.747-1.133,1.026c-0.454,0.28-0.96,0.413-1.494,0.413c-0.893,0-1.56-0.227-2.026-0.68s-0.707-1.08-0.693-1.88
		c-0.014-0.813,0.319-1.453,0.986-1.906c0.653-0.453,1.547-0.693,2.68-0.693h1.68v-0.84c0-0.493-0.146-0.894-0.453-1.187
		c-0.307-0.293-0.733-0.44-1.293-0.44c-0.493,0-0.906,0.133-1.213,0.387c-0.32,0.253-0.467,0.56-0.467,0.92h-1.48l-0.027-0.053
		c-0.026-0.613,0.267-1.187,0.88-1.693c0.627-0.52,1.413-0.773,2.387-0.773c0.973,0,1.747,0.24,2.333,0.733
		c0.587,0.493,0.894,1.2,0.894,2.12v4.106c0,0.307,0.014,0.6,0.04,0.88c0.027,0.28,0.093,0.561,0.173,0.84H212.467z M209.893,10.8
		c0.56,0,1.066-0.147,1.521-0.427c0.453-0.293,0.747-0.626,0.879-1V8h-1.733c-0.627,0-1.134,0.16-1.507,0.467
		c-0.374,0.32-0.56,0.68-0.56,1.107c0,0.386,0.12,0.68,0.346,0.893C209.08,10.693,209.426,10.8,209.893,10.8z"/>
	<path fill="#7D7D7D" d="M223.36,8c0,1.24-0.293,2.227-0.88,2.974c-0.587,0.76-1.4,1.133-2.427,1.133
		c-0.534,0-0.987-0.08-1.387-0.267c-0.4-0.173-0.733-0.44-1.014-0.786v4.173h-1.546v-11.8h1.186l0.24,1.094
		c0.28-0.4,0.627-0.72,1.04-0.934c0.414-0.214,0.894-0.32,1.454-0.32c1.053,0,1.866,0.413,2.453,1.254
		c0.586,0.84,0.88,1.946,0.88,3.319V8z M221.813,7.84c0-0.973-0.187-1.76-0.573-2.387c-0.387-0.613-0.947-0.933-1.68-0.933
		c-0.453,0-0.827,0.106-1.146,0.306c-0.307,0.201-0.574,0.48-0.761,0.827v4.12c0.187,0.347,0.454,0.627,0.761,0.814
		c0.319,0.2,0.706,0.307,1.159,0.307c0.734,0,1.294-0.28,1.667-0.813c0.387-0.534,0.573-1.227,0.573-2.08V7.84z"/>
	<polygon fill="#7D7D7D" points="231.84,4.626 229.027,4.626 229.027,11.947 227.48,11.947 227.48,4.626 224.707,4.626 
		224.707,3.427 231.84,3.427 	"/>
	<polygon points="27.693,73.986 25.893,73.986 25.893,66.6 24.066,66.6 24.066,65.32 27.693,65 	"/>
	<path d="M56.973,73.986H50.84v-1.173l2.906-3.12c0.413-0.48,0.72-0.88,0.894-1.213c0.173-0.333,0.267-0.64,0.267-0.92
		c0-0.387-0.107-0.693-0.307-0.934c-0.2-0.24-0.493-0.36-0.867-0.36c-0.413,0-0.733,0.133-0.947,0.413
		c-0.213,0.294-0.32,0.667-0.32,1.134h-1.76l-0.013-0.041c-0.013-0.813,0.254-1.493,0.8-2.053c0.56-0.561,1.307-0.854,2.24-0.854
		c0.92,0,1.653,0.253,2.187,0.733c0.52,0.48,0.786,1.121,0.786,1.921c0,0.546-0.146,1.04-0.44,1.506
		c-0.307,0.453-0.8,1.053-1.48,1.799l-1.6,1.748L53.2,72.6h3.773V73.986z"/>
	<path d="M81.893,68.733h1.013c0.427,0,0.747-0.12,0.947-0.333c0.213-0.227,0.32-0.546,0.32-0.933c0-0.374-0.107-0.653-0.32-0.88
		c-0.2-0.214-0.494-0.32-0.893-0.32c-0.333,0-0.614,0.094-0.854,0.293c-0.227,0.2-0.347,0.453-0.347,0.773h-1.733l-0.013-0.041
		c-0.027-0.693,0.24-1.28,0.8-1.733c0.573-0.454,1.267-0.693,2.107-0.693c0.92,0,1.667,0.227,2.227,0.667
		c0.547,0.453,0.827,1.08,0.827,1.906c0,0.387-0.12,0.761-0.374,1.121c-0.24,0.347-0.587,0.627-1.013,0.827
		c0.493,0.173,0.88,0.439,1.133,0.813c0.267,0.36,0.4,0.786,0.4,1.28c0,0.813-0.307,1.467-0.907,1.934
		c-0.6,0.466-1.36,0.707-2.293,0.707c-0.84,0-1.56-0.227-2.16-0.667c-0.6-0.44-0.88-1.066-0.866-1.866l0.013-0.041h1.747
		c0,0.347,0.12,0.627,0.373,0.854c0.24,0.227,0.56,0.333,0.934,0.333c0.427,0,0.746-0.12,0.987-0.347
		c0.24-0.227,0.36-0.547,0.36-0.934c0-0.479-0.12-0.827-0.347-1.04c-0.24-0.213-0.587-0.333-1.053-0.333h-1.013V68.733z"/>
	<path d="M110.56,70.653h1.027v1.387h-1.027v1.946h-1.787V72.04h-3.667l-0.08-1.08l3.72-5.96h1.813V70.653z M106.706,70.653h2.067
		v-3.24l-0.04-0.014l-0.146,0.253L106.706,70.653z"/>
	<path d="M132.733,70.013l0.52-5.013h5.013v1.453h-3.546l-0.24,2.067c0.16-0.121,0.36-0.228,0.6-0.308
		c0.227-0.079,0.493-0.12,0.773-0.12c0.867-0.013,1.534,0.24,2.014,0.787c0.467,0.534,0.707,1.267,0.707,2.227
		c0,0.867-0.253,1.587-0.773,2.16c-0.52,0.573-1.281,0.854-2.254,0.854c-0.826,0-1.533-0.227-2.12-0.681
		c-0.587-0.453-0.88-1.066-0.854-1.866l0.014-0.027l1.733-0.08c0,0.4,0.107,0.707,0.333,0.933s0.533,0.333,0.893,0.333
		c0.414,0,0.734-0.146,0.934-0.453c0.2-0.294,0.294-0.681,0.294-1.16c0-0.521-0.107-0.933-0.32-1.24
		c-0.214-0.32-0.533-0.48-0.947-0.48c-0.346,0-0.613,0.067-0.8,0.2c-0.173,0.121-0.307,0.294-0.387,0.521L132.733,70.013z"/>
	<path d="M163.333,64.867c0.346,0,0.653,0.041,0.933,0.107c0.293,0.053,0.573,0.16,0.867,0.28l-0.32,1.32
		c-0.28-0.094-0.52-0.174-0.733-0.213c-0.2-0.054-0.454-0.067-0.734-0.067c-0.546,0-0.986,0.2-1.32,0.614
		c-0.333,0.399-0.48,0.973-0.454,1.692l0.014,0.027c0.2-0.2,0.453-0.373,0.773-0.493c0.307-0.121,0.653-0.174,1.04-0.174
		c0.8,0,1.427,0.28,1.88,0.854s0.68,1.293,0.68,2.187c0,0.907-0.28,1.653-0.84,2.24c-0.56,0.586-1.28,0.88-2.173,0.88
		c-0.96,0-1.734-0.32-2.333-0.96c-0.587-0.653-0.893-1.546-0.893-2.68v-1.76c0-1.174,0.346-2.107,1.027-2.8
		C161.427,65.227,162.28,64.867,163.333,64.867z M162.92,69.32c-0.333,0-0.613,0.053-0.854,0.16
		c-0.227,0.107-0.413,0.253-0.547,0.44v0.601c0,0.706,0.134,1.252,0.387,1.639c0.267,0.387,0.6,0.574,1.04,0.574
		c0.36,0,0.667-0.173,0.88-0.507c0.227-0.347,0.346-0.747,0.346-1.227c0-0.507-0.12-0.907-0.346-1.213
		C163.6,69.48,163.307,69.32,162.92,69.32z"/>
	<path d="M197.093,66.387c-0.959,1.134-1.626,2.187-1.973,3.16c-0.36,0.974-0.6,2.147-0.76,3.534l-0.08,0.906h-1.813l0.093-0.906
		c0.134-1.32,0.44-2.534,0.893-3.641c0.467-1.106,1.093-2.12,1.907-3.053h-4.627V65h6.36V66.387z"/>
	<path d="M224.066,67.387c0,0.453-0.107,0.84-0.346,1.187c-0.24,0.346-0.56,0.626-0.987,0.813c0.48,0.2,0.854,0.493,1.134,0.867
		c0.28,0.373,0.413,0.8,0.413,1.28c0,0.827-0.28,1.467-0.84,1.92c-0.573,0.44-1.307,0.667-2.213,0.667
		c-0.92,0-1.667-0.227-2.227-0.667c-0.56-0.453-0.854-1.093-0.854-1.92c0-0.479,0.146-0.92,0.414-1.28
		c0.28-0.374,0.653-0.667,1.133-0.867c-0.414-0.2-0.747-0.467-0.987-0.813c-0.227-0.347-0.347-0.734-0.347-1.187
		c0-0.8,0.267-1.413,0.787-1.854c0.52-0.44,1.213-0.667,2.066-0.667c0.854,0,1.547,0.227,2.067,0.667
		C223.813,65.974,224.066,66.587,224.066,67.387z M222.48,71.414c0-0.414-0.12-0.734-0.347-0.974
		c-0.24-0.239-0.547-0.359-0.92-0.359c-0.373,0-0.68,0.12-0.906,0.359c-0.227,0.24-0.347,0.561-0.347,0.974
		c0,0.4,0.121,0.733,0.347,0.959c0.227,0.24,0.533,0.36,0.92,0.36c0.373,0,0.68-0.12,0.907-0.36
		C222.36,72.134,222.48,71.813,222.48,71.414z M222.28,67.467c0-0.36-0.106-0.653-0.293-0.88c-0.186-0.214-0.453-0.32-0.773-0.32
		c-0.333,0-0.586,0.106-0.773,0.32c-0.187,0.213-0.28,0.506-0.28,0.88c0,0.373,0.093,0.667,0.28,0.894
		c0.187,0.213,0.453,0.333,0.787,0.333c0.32,0,0.586-0.12,0.773-0.333C222.186,68.134,222.28,67.84,222.28,67.467z"/>
	<path d="M247.013,72.733c0.467,0,0.854-0.173,1.16-0.533c0.293-0.347,0.44-0.84,0.44-1.494v-0.453
		c-0.2,0.253-0.44,0.453-0.72,0.586c-0.267,0.134-0.573,0.2-0.893,0.2c-0.84,0-1.494-0.28-1.973-0.827
		c-0.48-0.546-0.72-1.28-0.72-2.213c0-0.894,0.28-1.64,0.854-2.24c0.573-0.586,1.293-0.893,2.173-0.893
		c0.906,0,1.653,0.32,2.227,0.959c0.573,0.627,0.866,1.521,0.866,2.654v2.133c0,1.08-0.319,1.947-0.959,2.574
		c-0.64,0.626-1.467,0.933-2.454,0.933c-0.307,0-0.64-0.027-0.96-0.093c-0.333-0.067-0.64-0.16-0.934-0.28l0.214-1.308
		c0.266,0.094,0.533,0.174,0.8,0.228C246.387,72.707,246.68,72.733,247.013,72.733z M247.307,69.72c0.293,0,0.546-0.067,0.773-0.174
		c0.227-0.107,0.4-0.253,0.533-0.44V68.28c0-0.667-0.107-1.16-0.347-1.507c-0.227-0.333-0.533-0.506-0.933-0.506
		c-0.36,0-0.654,0.16-0.88,0.506c-0.24,0.333-0.346,0.748-0.346,1.227c0,0.507,0.106,0.92,0.307,1.24
		C246.626,69.56,246.92,69.72,247.307,69.72z"/>
	<polygon points="273.093,73.986 271.293,73.986 271.293,66.6 269.467,66.6 269.467,65.32 273.093,65 	"/>
	<path d="M282.32,70.493c0,1.187-0.267,2.094-0.813,2.707s-1.28,0.92-2.213,0.92c-0.933,0-1.68-0.307-2.227-0.92
		s-0.827-1.521-0.827-2.707v-1.986c0-1.187,0.28-2.08,0.827-2.707c0.547-0.613,1.28-0.934,2.213-0.934
		c0.933,0,1.68,0.32,2.227,0.934c0.547,0.626,0.813,1.52,0.813,2.707V70.493z M280.533,68.32c0-0.707-0.107-1.227-0.32-1.56
		c-0.213-0.333-0.533-0.493-0.933-0.493c-0.4,0-0.707,0.16-0.92,0.493c-0.213,0.32-0.32,0.854-0.32,1.56v2.347
		c0,0.72,0.107,1.24,0.32,1.573c0.213,0.333,0.52,0.493,0.933,0.493c0.4,0,0.707-0.16,0.92-0.493c0.213-0.333,0.32-0.854,0.32-1.573
		V68.32z"/>
	<polygon points="301.32,73.986 299.52,73.986 299.52,66.6 297.693,66.6 297.693,65.32 301.32,65 	"/>
	<polygon points="308.573,73.986 306.773,73.986 306.773,66.6 304.947,66.6 304.947,65.32 308.573,65 	"/>
	<polygon points="330.56,73.986 328.76,73.986 328.76,66.6 326.933,66.6 326.933,65.32 330.56,65 	"/>
	<path d="M339.879,73.986h-6.146v-1.173l2.907-3.12c0.426-0.48,0.72-0.88,0.906-1.213c0.174-0.333,0.267-0.64,0.267-0.92
		c0-0.387-0.106-0.693-0.307-0.934c-0.213-0.24-0.493-0.36-0.866-0.36c-0.427,0-0.734,0.133-0.96,0.413
		c-0.213,0.294-0.32,0.667-0.32,1.134h-1.747l-0.014-0.041c-0.027-0.813,0.24-1.493,0.8-2.053c0.547-0.561,1.293-0.854,2.24-0.854
		c0.92,0,1.653,0.253,2.173,0.733c0.533,0.48,0.8,1.121,0.8,1.921c0,0.546-0.147,1.04-0.453,1.506
		c-0.293,0.453-0.787,1.053-1.48,1.799l-1.6,1.748l0.013,0.026h3.786V73.986z"/>
	<polygon points="357.773,73.986 355.973,73.986 355.973,66.6 354.146,66.6 354.146,65.32 357.773,65 	"/>
	<path d="M362.787,68.733h1.013c0.427,0,0.734-0.12,0.947-0.333c0.2-0.227,0.307-0.546,0.307-0.933c0-0.374-0.106-0.653-0.307-0.88
		c-0.213-0.214-0.507-0.32-0.894-0.32c-0.347,0-0.626,0.094-0.853,0.293c-0.24,0.2-0.347,0.453-0.347,0.773h-1.747l-0.013-0.041
		c-0.026-0.693,0.24-1.28,0.813-1.733c0.56-0.454,1.253-0.693,2.093-0.693c0.934,0,1.667,0.227,2.228,0.667
		c0.546,0.453,0.826,1.08,0.826,1.906c0,0.387-0.12,0.761-0.373,1.121c-0.24,0.347-0.587,0.627-1.014,0.827
		c0.493,0.173,0.88,0.439,1.133,0.813c0.267,0.36,0.4,0.786,0.4,1.28c0,0.813-0.307,1.467-0.907,1.934
		c-0.587,0.466-1.36,0.707-2.294,0.707c-0.84,0-1.546-0.227-2.146-0.667c-0.6-0.44-0.893-1.066-0.866-1.866v-0.041h1.76
		c0,0.347,0.12,0.627,0.36,0.854c0.254,0.227,0.56,0.333,0.947,0.333c0.413,0,0.747-0.12,0.987-0.347
		c0.24-0.227,0.36-0.547,0.36-0.934c0-0.479-0.12-0.827-0.36-1.04c-0.24-0.213-0.586-0.333-1.041-0.333h-1.013V68.733z"/>
	<polygon points="386.013,73.986 384.2,73.986 384.2,66.6 382.373,66.6 382.373,65.32 386.013,65 	"/>
	<path d="M394.48,70.653h1.014v1.387h-1.014v1.946h-1.8V72.04h-3.667l-0.08-1.08l3.72-5.96h1.827V70.653z M390.613,70.653h2.066
		v-3.24l-0.04-0.014l-0.146,0.253L390.613,70.653z"/>
	<polygon points="414.24,73.986 412.44,73.986 412.44,66.6 410.613,66.6 410.613,65.32 414.24,65 	"/>
	<path d="M417.653,70.013L418.173,65h5v1.453h-3.533l-0.24,2.067c0.16-0.121,0.36-0.228,0.6-0.308
		c0.227-0.079,0.494-0.12,0.773-0.12c0.867-0.013,1.533,0.24,2.013,0.787c0.467,0.534,0.707,1.267,0.707,2.227
		c0,0.867-0.254,1.587-0.787,2.16c-0.521,0.573-1.267,0.854-2.24,0.854c-0.826,0-1.533-0.227-2.133-0.681
		c-0.587-0.453-0.867-1.066-0.84-1.866l0.013-0.027l1.733-0.08c0,0.4,0.106,0.707,0.333,0.933s0.521,0.333,0.894,0.333
		c0.413,0,0.72-0.146,0.92-0.453c0.2-0.294,0.307-0.681,0.307-1.16c0-0.521-0.107-0.933-0.32-1.24
		c-0.213-0.32-0.533-0.48-0.959-0.48c-0.333,0-0.601,0.067-0.787,0.2c-0.187,0.121-0.32,0.294-0.387,0.521L417.653,70.013z"/>
	<polygon points="440.453,73.986 438.653,73.986 438.653,66.6 436.827,66.6 436.827,65.32 440.453,65 	"/>
	<path d="M447.24,64.867c0.347,0,0.653,0.041,0.946,0.107c0.28,0.053,0.561,0.16,0.854,0.28l-0.319,1.32
		C448.453,66.48,448.2,66.4,448,66.36c-0.213-0.054-0.467-0.067-0.747-0.067c-0.547,0-0.987,0.2-1.32,0.614
		c-0.32,0.399-0.48,0.973-0.453,1.692l0.014,0.027c0.2-0.2,0.466-0.373,0.772-0.493c0.307-0.121,0.654-0.174,1.041-0.174
		c0.8,0,1.426,0.28,1.879,0.854c0.467,0.573,0.693,1.293,0.693,2.187c0,0.907-0.28,1.653-0.853,2.24
		c-0.561,0.586-1.28,0.88-2.174,0.88c-0.96,0-1.733-0.32-2.32-0.96c-0.6-0.653-0.907-1.546-0.907-2.68v-1.76
		c0-1.174,0.347-2.107,1.026-2.8C445.333,65.227,446.2,64.867,447.24,64.867z M446.827,69.32c-0.333,0-0.614,0.053-0.854,0.16
		c-0.227,0.107-0.413,0.253-0.533,0.44v0.601c0,0.706,0.12,1.252,0.387,1.639c0.253,0.387,0.6,0.574,1.026,0.574
		c0.36,0,0.667-0.173,0.894-0.507c0.213-0.347,0.333-0.747,0.333-1.227c0-0.507-0.121-0.907-0.347-1.213
		S447.213,69.32,446.827,69.32z"/>
	<polygon points="467.68,73.986 465.867,73.986 465.867,66.6 464.04,66.6 464.04,65.32 467.68,65 	"/>
	<path d="M476.973,66.387c-0.973,1.134-1.627,2.187-1.973,3.16c-0.36,0.974-0.613,2.147-0.76,3.534l-0.093,0.906h-1.8l0.094-0.906
		c0.133-1.32,0.439-2.534,0.894-3.641c0.466-1.106,1.093-2.12,1.893-3.053h-4.613V65h6.36V66.387z"/>
	<polygon points="494.893,73.986 493.093,73.986 493.093,66.6 491.266,66.6 491.266,65.32 494.893,65 	"/>
	<path d="M503.947,67.387c0,0.453-0.12,0.84-0.36,1.187c-0.227,0.346-0.56,0.626-0.973,0.813c0.48,0.2,0.853,0.493,1.133,0.867
		c0.267,0.373,0.414,0.8,0.414,1.28c0,0.827-0.281,1.467-0.854,1.92c-0.56,0.44-1.293,0.667-2.2,0.667
		c-0.921,0-1.667-0.227-2.228-0.667c-0.573-0.453-0.853-1.093-0.853-1.92c0-0.479,0.133-0.92,0.413-1.28
		c0.267-0.374,0.653-0.667,1.133-0.867c-0.426-0.2-0.746-0.467-0.986-0.813c-0.227-0.347-0.347-0.734-0.347-1.187
		c0-0.8,0.254-1.413,0.787-1.854c0.52-0.44,1.2-0.667,2.066-0.667c0.854,0,1.533,0.227,2.067,0.667
		C503.68,65.974,503.947,66.587,503.947,67.387z M502.36,71.414c0-0.414-0.12-0.734-0.36-0.974
		c-0.227-0.239-0.534-0.359-0.907-0.359c-0.387,0-0.68,0.12-0.92,0.359c-0.227,0.24-0.333,0.561-0.333,0.974
		c0,0.4,0.107,0.733,0.346,0.959c0.228,0.24,0.534,0.36,0.921,0.36c0.373,0,0.667-0.12,0.906-0.36
		C502.24,72.134,502.36,71.813,502.36,71.414z M502.146,67.467c0-0.36-0.093-0.653-0.28-0.88c-0.2-0.214-0.453-0.32-0.773-0.32
		c-0.333,0-0.587,0.106-0.773,0.32c-0.187,0.213-0.28,0.506-0.28,0.88c0,0.373,0.093,0.667,0.28,0.894
		c0.187,0.213,0.454,0.333,0.787,0.333c0.319,0,0.573-0.12,0.76-0.333C502.053,68.134,502.146,67.84,502.146,67.467z"/>
	<polygon points="525.146,73.986 523.333,73.986 523.333,66.6 521.506,66.6 521.506,65.32 525.146,65 	"/>
	<path d="M530.92,72.733c0.48,0,0.867-0.173,1.16-0.533c0.293-0.347,0.453-0.84,0.453-1.494v-0.453
		c-0.213,0.253-0.453,0.453-0.72,0.586c-0.28,0.134-0.586,0.2-0.907,0.2c-0.826,0-1.493-0.28-1.973-0.827
		c-0.48-0.546-0.72-1.28-0.72-2.213c0-0.894,0.293-1.64,0.854-2.24c0.574-0.586,1.293-0.893,2.173-0.893
		c0.92,0,1.653,0.32,2.227,0.959c0.573,0.627,0.867,1.521,0.867,2.654v2.133c0,1.08-0.32,1.947-0.96,2.574
		c-0.64,0.626-1.467,0.933-2.453,0.933c-0.307,0-0.64-0.027-0.96-0.093c-0.333-0.067-0.64-0.16-0.933-0.28l0.213-1.308
		c0.267,0.094,0.534,0.174,0.8,0.228C530.293,72.707,530.586,72.733,530.92,72.733z M531.213,69.72c0.293,0,0.561-0.067,0.773-0.174
		c0.227-0.107,0.4-0.253,0.547-0.44V68.28c0-0.667-0.12-1.16-0.347-1.507c-0.239-0.333-0.546-0.506-0.946-0.506
		c-0.36,0-0.653,0.16-0.88,0.506c-0.227,0.333-0.347,0.748-0.347,1.227c0,0.507,0.106,0.92,0.307,1.24
		C530.533,69.56,530.827,69.72,531.213,69.72z"/>
	<path d="M555.44,73.986h-6.147v-1.173l2.907-3.12c0.427-0.48,0.72-0.88,0.907-1.213c0.173-0.333,0.253-0.64,0.253-0.92
		c0-0.387-0.094-0.693-0.307-0.934c-0.2-0.24-0.48-0.36-0.867-0.36c-0.413,0-0.72,0.133-0.946,0.413
		c-0.213,0.294-0.32,0.667-0.32,1.134h-1.747l-0.013-0.041c-0.027-0.813,0.24-1.493,0.799-2.053
		c0.547-0.561,1.294-0.854,2.227-0.854c0.934,0,1.654,0.253,2.187,0.733c0.533,0.48,0.8,1.121,0.8,1.921
		c0,0.546-0.16,1.04-0.453,1.506c-0.294,0.453-0.787,1.053-1.48,1.799l-1.6,1.748l0.013,0.026h3.787V73.986z"/>
	<path d="M562.613,70.493c0,1.187-0.28,2.094-0.827,2.707s-1.28,0.92-2.214,0.92c-0.933,0-1.68-0.307-2.227-0.92
		s-0.813-1.521-0.813-2.707v-1.986c0-1.187,0.266-2.08,0.813-2.707c0.547-0.613,1.28-0.934,2.214-0.934s1.68,0.32,2.227,0.934
		c0.547,0.626,0.827,1.52,0.827,2.707V70.493z M560.813,68.32c0-0.707-0.106-1.227-0.319-1.56c-0.214-0.333-0.521-0.493-0.934-0.493
		c-0.4,0-0.707,0.16-0.92,0.493c-0.214,0.32-0.32,0.854-0.32,1.56v2.347c0,0.72,0.106,1.24,0.32,1.573
		c0.213,0.333,0.52,0.493,0.933,0.493c0.414,0,0.72-0.16,0.921-0.493c0.213-0.333,0.319-0.854,0.319-1.573V68.32z"/>
	<path d="M581.653,73.986h-6.146v-1.173l2.907-3.12c0.426-0.48,0.719-0.88,0.906-1.213c0.174-0.333,0.253-0.64,0.253-0.92
		c0-0.387-0.093-0.693-0.293-0.934c-0.213-0.24-0.493-0.36-0.88-0.36c-0.414,0-0.72,0.133-0.947,0.413
		c-0.213,0.294-0.32,0.667-0.32,1.134h-1.746l-0.014-0.041c-0.027-0.813,0.24-1.493,0.8-2.053c0.547-0.561,1.293-0.854,2.227-0.854
		s1.653,0.253,2.187,0.733c0.533,0.48,0.8,1.121,0.8,1.921c0,0.546-0.147,1.04-0.454,1.506c-0.293,0.453-0.787,1.053-1.48,1.799
		l-1.6,1.748l0.014,0.026h3.786V73.986z"/>
	<polygon points="586.84,73.986 585.04,73.986 585.04,66.6 583.213,66.6 583.213,65.32 586.84,65 	"/>
	<path d="M610.879,73.986h-6.133v-1.173l2.906-3.12c0.427-0.48,0.72-0.88,0.894-1.213c0.187-0.333,0.267-0.64,0.267-0.92
		c0-0.387-0.093-0.693-0.307-0.934c-0.2-0.24-0.493-0.36-0.866-0.36c-0.414,0-0.734,0.133-0.947,0.413
		c-0.213,0.294-0.32,0.667-0.32,1.134h-1.76v-0.041c-0.027-0.813,0.24-1.493,0.787-2.053c0.56-0.561,1.307-0.854,2.24-0.854
		c0.933,0,1.653,0.253,2.187,0.733c0.533,0.48,0.8,1.121,0.8,1.921c0,0.546-0.16,1.04-0.453,1.506
		c-0.294,0.453-0.787,1.053-1.48,1.799l-1.6,1.748l0.014,0.026h3.772V73.986z"/>
	<path d="M618.146,73.986H612v-1.173l2.906-3.12c0.427-0.48,0.72-0.88,0.907-1.213c0.173-0.333,0.253-0.64,0.253-0.92
		c0-0.387-0.093-0.693-0.307-0.934c-0.2-0.24-0.48-0.36-0.867-0.36c-0.413,0-0.72,0.133-0.946,0.413
		c-0.214,0.294-0.32,0.667-0.32,1.134h-1.747l-0.013-0.041c-0.027-0.813,0.24-1.493,0.8-2.053c0.546-0.561,1.293-0.854,2.227-0.854
		s1.653,0.253,2.187,0.733c0.533,0.48,0.799,1.121,0.799,1.921c0,0.546-0.159,1.04-0.453,1.506
		c-0.293,0.453-0.786,1.053-1.479,1.799l-1.601,1.748l0.014,0.026h3.787V73.986z"/>
	<path d="M637.093,73.986h-6.134v-1.173l2.907-3.12c0.426-0.48,0.72-0.88,0.893-1.213c0.187-0.333,0.267-0.64,0.267-0.92
		c0-0.387-0.094-0.693-0.307-0.934c-0.201-0.24-0.494-0.36-0.867-0.36c-0.413,0-0.733,0.133-0.947,0.413
		c-0.213,0.294-0.32,0.667-0.32,1.134h-1.76v-0.041c-0.027-0.813,0.24-1.493,0.787-2.053c0.56-0.561,1.307-0.854,2.24-0.854
		c0.934,0,1.653,0.253,2.187,0.733c0.533,0.48,0.8,1.121,0.8,1.921c0,0.546-0.16,1.04-0.453,1.506
		c-0.293,0.453-0.787,1.053-1.48,1.799l-1.6,1.748l0.013,0.026h3.773V73.986z"/>
	<path d="M640.04,68.733h1.014c0.427,0,0.746-0.12,0.947-0.333c0.213-0.227,0.307-0.546,0.307-0.933c0-0.374-0.094-0.653-0.307-0.88
		c-0.201-0.214-0.506-0.32-0.893-0.32c-0.333,0-0.627,0.094-0.854,0.293s-0.347,0.453-0.347,0.773h-1.746l-0.014-0.041
		c-0.027-0.693,0.253-1.28,0.813-1.733c0.56-0.454,1.267-0.693,2.094-0.693c0.933,0,1.68,0.227,2.227,0.667
		c0.56,0.453,0.84,1.08,0.84,1.906c0,0.387-0.133,0.761-0.373,1.121c-0.253,0.347-0.586,0.627-1.026,0.827
		c0.506,0.173,0.879,0.439,1.146,0.813c0.253,0.36,0.387,0.786,0.387,1.28c0,0.813-0.294,1.467-0.894,1.934
		c-0.6,0.466-1.374,0.707-2.307,0.707c-0.827,0-1.547-0.227-2.147-0.667c-0.6-0.44-0.893-1.066-0.867-1.866l0.014-0.041h1.746
		c0,0.347,0.121,0.627,0.374,0.854c0.24,0.227,0.56,0.333,0.934,0.333c0.413,0,0.746-0.12,0.986-0.347
		c0.24-0.227,0.36-0.547,0.36-0.934c0-0.479-0.12-0.827-0.36-1.04c-0.227-0.213-0.587-0.333-1.04-0.333h-1.014V68.733z"/>
	<path d="M665.333,73.986h-6.147v-1.173l2.907-3.12c0.426-0.48,0.72-0.88,0.907-1.213c0.173-0.333,0.266-0.64,0.266-0.92
		c0-0.387-0.106-0.693-0.307-0.934c-0.213-0.24-0.493-0.36-0.866-0.36c-0.427,0-0.733,0.133-0.96,0.413
		c-0.213,0.294-0.32,0.667-0.32,1.134h-1.747l-0.013-0.041c-0.026-0.813,0.24-1.493,0.8-2.053c0.547-0.561,1.293-0.854,2.24-0.854
		c0.92,0,1.653,0.253,2.173,0.733c0.533,0.48,0.8,1.121,0.8,1.921c0,0.546-0.146,1.04-0.453,1.506
		c-0.293,0.453-0.787,1.053-1.48,1.799l-1.6,1.748l0.013,0.026h3.787V73.986z"/>
	<path d="M671.733,70.653h1.014v1.387h-1.014v1.946h-1.8V72.04h-3.667l-0.08-1.08L669.92,65h1.813V70.653z M667.867,70.653h2.066
		v-3.24l-0.04-0.014l-0.133,0.253L667.867,70.653z"/>
	<path d="M696.586,73.986h-6.146v-1.173l2.92-3.12c0.414-0.48,0.707-0.88,0.894-1.213c0.173-0.333,0.266-0.64,0.266-0.92
		c0-0.387-0.106-0.693-0.307-0.934c-0.213-0.24-0.493-0.36-0.867-0.36c-0.413,0-0.733,0.133-0.946,0.413
		c-0.227,0.294-0.333,0.667-0.333,1.134h-1.747l-0.013-0.041c-0.027-0.813,0.24-1.493,0.8-2.053
		c0.546-0.561,1.293-0.854,2.239-0.854c0.92,0,1.654,0.253,2.173,0.733c0.534,0.48,0.8,1.121,0.8,1.921
		c0,0.546-0.146,1.04-0.453,1.506c-0.294,0.453-0.787,1.053-1.48,1.799l-1.6,1.748l0.013,0.026h3.787V73.986z"/>
	<path d="M697.933,70.013l0.52-5.013h5.013v1.453h-3.546l-0.24,2.067c0.16-0.121,0.36-0.228,0.6-0.308
		c0.227-0.079,0.494-0.12,0.773-0.12c0.867-0.013,1.533,0.24,2.013,0.787c0.467,0.534,0.707,1.267,0.707,2.227
		c0,0.867-0.254,1.587-0.773,2.16c-0.52,0.573-1.28,0.854-2.253,0.854c-0.827,0-1.534-0.227-2.12-0.681
		c-0.587-0.453-0.88-1.066-0.853-1.866l0.013-0.027l1.733-0.08c0,0.4,0.107,0.707,0.333,0.933c0.227,0.227,0.52,0.333,0.894,0.333
		c0.414,0,0.733-0.146,0.933-0.453c0.2-0.294,0.293-0.681,0.293-1.16c0-0.521-0.106-0.933-0.32-1.24
		c-0.213-0.32-0.533-0.48-0.946-0.48c-0.347,0-0.613,0.067-0.8,0.2c-0.186,0.121-0.307,0.294-0.387,0.521L697.933,70.013z"/>
	<path d="M726.827,73.986h-6.133v-1.173l2.906-3.12c0.427-0.48,0.72-0.88,0.894-1.213c0.173-0.333,0.266-0.64,0.266-0.92
		c0-0.387-0.107-0.693-0.307-0.934c-0.2-0.24-0.494-0.36-0.867-0.36c-0.413,0-0.733,0.133-0.946,0.413
		c-0.214,0.294-0.32,0.667-0.32,1.134h-1.76l-0.014-0.041c-0.013-0.813,0.253-1.493,0.8-2.053c0.56-0.561,1.307-0.854,2.24-0.854
		c0.933,0,1.653,0.253,2.187,0.733c0.52,0.48,0.787,1.121,0.787,1.921c0,0.546-0.146,1.04-0.44,1.506
		c-0.307,0.453-0.8,1.053-1.479,1.799l-1.601,1.748l0.014,0.026h3.773V73.986z"/>
	<path d="M731.56,64.867c0.333,0,0.653,0.041,0.934,0.107c0.293,0.053,0.573,0.16,0.866,0.28l-0.32,1.32
		c-0.28-0.094-0.52-0.174-0.733-0.213c-0.213-0.054-0.454-0.067-0.734-0.067c-0.546,0-0.986,0.2-1.319,0.614
		c-0.333,0.399-0.48,0.973-0.454,1.692l0.014,0.027c0.2-0.2,0.453-0.373,0.76-0.493c0.307-0.121,0.667-0.174,1.054-0.174
		c0.8,0,1.427,0.28,1.88,0.854s0.68,1.293,0.68,2.187c0,0.907-0.28,1.653-0.84,2.24c-0.56,0.586-1.293,0.88-2.186,0.88
		c-0.947,0-1.72-0.32-2.32-0.96c-0.6-0.653-0.893-1.546-0.893-2.68v-1.76c0-1.174,0.346-2.107,1.026-2.8
		C729.64,65.227,730.506,64.867,731.56,64.867z M731.146,69.32c-0.333,0-0.613,0.053-0.854,0.16c-0.24,0.107-0.414,0.253-0.546,0.44
		v0.601c0,0.706,0.133,1.252,0.386,1.639c0.267,0.387,0.6,0.574,1.027,0.574c0.373,0,0.667-0.173,0.893-0.507
		C732.28,71.88,732.4,71.48,732.4,71c0-0.507-0.12-0.907-0.347-1.213S731.52,69.32,731.146,69.32z"/>
	<path d="M755.053,73.986h-6.133v-1.173l2.907-3.12c0.427-0.48,0.72-0.88,0.894-1.213c0.186-0.333,0.266-0.64,0.266-0.92
		c0-0.387-0.093-0.693-0.307-0.934c-0.2-0.24-0.48-0.36-0.867-0.36c-0.413,0-0.72,0.133-0.946,0.413
		c-0.214,0.294-0.32,0.667-0.32,1.134h-1.747l-0.013-0.041c-0.027-0.813,0.24-1.493,0.8-2.053c0.546-0.561,1.293-0.854,2.227-0.854
		S753.466,65.12,754,65.6c0.533,0.48,0.799,1.121,0.799,1.921c0,0.546-0.159,1.04-0.453,1.506c-0.293,0.453-0.786,1.053-1.479,1.799
		l-1.601,1.748l0.014,0.026h3.773V73.986z"/>
	<path d="M762.293,66.387c-0.973,1.134-1.626,2.187-1.973,3.16c-0.36,0.974-0.613,2.147-0.76,3.534l-0.08,0.906h-1.813l0.093-0.906
		c0.133-1.32,0.44-2.534,0.893-3.641c0.467-1.106,1.094-2.12,1.907-3.053h-4.627V65h6.36V66.387z"/>
	<path d="M781.266,73.986h-6.133v-1.173l2.907-3.12c0.427-0.48,0.72-0.88,0.894-1.213c0.187-0.333,0.267-0.64,0.267-0.92
		c0-0.387-0.093-0.693-0.307-0.934c-0.2-0.24-0.479-0.36-0.866-0.36c-0.414,0-0.72,0.133-0.947,0.413
		c-0.213,0.294-0.32,0.667-0.32,1.134h-1.747L775,67.773c-0.027-0.813,0.24-1.493,0.799-2.053c0.547-0.561,1.294-0.854,2.228-0.854
		c0.933,0,1.653,0.253,2.186,0.733c0.534,0.48,0.8,1.121,0.8,1.921c0,0.546-0.16,1.04-0.453,1.506
		c-0.294,0.453-0.787,1.053-1.48,1.799l-1.6,1.748l0.014,0.026h3.772V73.986z"/>
	<path d="M788.266,67.387c0,0.453-0.12,0.84-0.36,1.187c-0.24,0.346-0.56,0.626-0.973,0.813c0.48,0.2,0.854,0.493,1.12,0.867
		c0.28,0.373,0.413,0.8,0.413,1.28c0,0.827-0.28,1.467-0.84,1.92c-0.56,0.44-1.307,0.667-2.213,0.667
		c-0.92,0-1.654-0.227-2.228-0.667c-0.56-0.453-0.84-1.093-0.84-1.92c0-0.479,0.134-0.92,0.4-1.28
		c0.28-0.374,0.653-0.667,1.133-0.867c-0.413-0.2-0.747-0.467-0.973-0.813c-0.24-0.347-0.36-0.734-0.36-1.187
		c0-0.8,0.267-1.413,0.787-1.854c0.52-0.44,1.213-0.667,2.066-0.667s1.547,0.227,2.066,0.667
		C788,65.974,788.266,66.587,788.266,67.387z M786.667,71.414c0-0.414-0.12-0.734-0.347-0.974c-0.24-0.239-0.546-0.359-0.92-0.359
		c-0.373,0-0.68,0.12-0.906,0.359c-0.228,0.24-0.347,0.561-0.347,0.974c0,0.4,0.12,0.733,0.347,0.959
		c0.239,0.24,0.546,0.36,0.92,0.36c0.373,0,0.68-0.12,0.906-0.36C786.56,72.134,786.667,71.813,786.667,71.414z M786.466,67.467
		c0-0.36-0.093-0.653-0.293-0.88c-0.187-0.214-0.44-0.32-0.773-0.32c-0.32,0-0.587,0.106-0.773,0.32
		c-0.187,0.213-0.267,0.506-0.267,0.88c0,0.373,0.093,0.667,0.28,0.894c0.187,0.213,0.44,0.333,0.773,0.333
		c0.333,0,0.586-0.12,0.772-0.333C786.373,68.134,786.466,67.84,786.466,67.467z"/>
	<path d="M810.506,73.986h-6.133v-1.173l2.907-3.12c0.427-0.48,0.72-0.88,0.894-1.213c0.187-0.333,0.267-0.64,0.267-0.92
		c0-0.387-0.094-0.693-0.307-0.934c-0.2-0.24-0.493-0.36-0.867-0.36c-0.413,0-0.733,0.133-0.946,0.413
		c-0.213,0.294-0.32,0.667-0.32,1.134h-1.76l-0.013-0.041c-0.014-0.813,0.253-1.493,0.8-2.053c0.56-0.561,1.307-0.854,2.239-0.854
		c0.934,0,1.654,0.253,2.187,0.733c0.533,0.48,0.787,1.121,0.787,1.921c0,0.546-0.146,1.04-0.44,1.506
		c-0.306,0.453-0.799,1.053-1.479,1.799l-1.6,1.748l0.013,0.026h3.773V73.986z"/>
	<path d="M814.227,72.733c0.48,0,0.867-0.173,1.16-0.533c0.293-0.347,0.453-0.84,0.453-1.494v-0.453
		c-0.213,0.253-0.453,0.453-0.72,0.586c-0.28,0.134-0.586,0.2-0.907,0.2c-0.826,0-1.493-0.28-1.973-0.827
		c-0.48-0.546-0.72-1.28-0.72-2.213c0-0.894,0.293-1.64,0.854-2.24c0.574-0.586,1.293-0.893,2.173-0.893
		c0.92,0,1.653,0.32,2.227,0.959c0.573,0.627,0.867,1.521,0.867,2.654v2.133c0,1.08-0.32,1.947-0.96,2.574
		c-0.64,0.626-1.467,0.933-2.453,0.933c-0.307,0-0.64-0.027-0.96-0.093c-0.333-0.067-0.64-0.16-0.933-0.28l0.213-1.308
		c0.267,0.094,0.534,0.174,0.8,0.228C813.6,72.707,813.893,72.733,814.227,72.733z M814.52,69.72c0.293,0,0.561-0.067,0.773-0.174
		c0.227-0.107,0.4-0.253,0.547-0.44V68.28c0-0.667-0.12-1.16-0.346-1.507c-0.24-0.333-0.547-0.506-0.947-0.506
		c-0.36,0-0.653,0.16-0.88,0.506c-0.227,0.333-0.347,0.748-0.347,1.227c0,0.507,0.106,0.92,0.307,1.24
		C813.84,69.56,814.133,69.72,814.52,69.72z"/>
	<path d="M832.414,68.733h1.013c0.427,0,0.734-0.12,0.947-0.333c0.2-0.227,0.307-0.546,0.307-0.933c0-0.374-0.107-0.653-0.307-0.88
		c-0.213-0.214-0.506-0.32-0.893-0.32c-0.347,0-0.627,0.094-0.854,0.293s-0.347,0.453-0.347,0.773h-1.747l-0.014-0.041
		c-0.026-0.693,0.24-1.28,0.814-1.733c0.56-0.454,1.253-0.693,2.093-0.693c0.934,0,1.667,0.227,2.227,0.667
		c0.56,0.453,0.827,1.08,0.827,1.906c0,0.387-0.12,0.761-0.373,1.121c-0.24,0.347-0.587,0.627-1.014,0.827
		c0.493,0.173,0.88,0.439,1.146,0.813c0.254,0.36,0.387,0.786,0.387,1.28c0,0.813-0.307,1.467-0.894,1.934
		c-0.6,0.466-1.373,0.707-2.307,0.707c-0.84,0-1.547-0.227-2.146-0.667c-0.6-0.44-0.893-1.066-0.866-1.866l0.013-0.041h1.747
		c0,0.347,0.12,0.627,0.36,0.854c0.253,0.227,0.56,0.333,0.947,0.333c0.413,0,0.747-0.12,0.986-0.347
		c0.24-0.227,0.36-0.547,0.36-0.934c0-0.479-0.12-0.827-0.36-1.04c-0.24-0.213-0.587-0.333-1.04-0.333h-1.013V68.733z"/>
	<path d="M843.893,70.493c0,1.187-0.267,2.094-0.813,2.707c-0.547,0.613-1.281,0.92-2.213,0.92c-0.934,0-1.681-0.307-2.227-0.92
		c-0.547-0.613-0.827-1.521-0.827-2.707v-1.986c0-1.187,0.28-2.08,0.827-2.707c0.546-0.613,1.28-0.934,2.213-0.934
		c0.934,0,1.667,0.32,2.227,0.934c0.546,0.626,0.813,1.52,0.813,2.707V70.493z M842.107,68.32c0-0.707-0.107-1.227-0.32-1.56
		c-0.214-0.333-0.533-0.493-0.934-0.493c-0.4,0-0.707,0.16-0.92,0.493c-0.213,0.32-0.32,0.854-0.32,1.56v2.347
		c0,0.72,0.107,1.24,0.32,1.573c0.213,0.333,0.52,0.493,0.934,0.493c0.399,0,0.706-0.16,0.92-0.493
		c0.213-0.333,0.32-0.854,0.32-1.573V68.32z"/>
</g>
</svg>
