<?xml version="1.0" encoding="utf-8"?>
<!-- Generator: Adobe Illustrator 16.2.0, SVG Export Plug-In . SVG Version: 6.00 Build 0)  -->
<!DOCTYPE svg PUBLIC "-//W3C//DTD SVG 1.1//EN" "http://www.w3.org/Graphics/SVG/1.1/DTD/svg11.dtd">
<svg version="1.1" id="Layer_1" xmlns="http://www.w3.org/2000/svg" xmlns:xlink="http://www.w3.org/1999/xlink" x="0px" y="0px"
	 width="100px" height="100px" viewBox="0 0 100 100" enable-background="new 0 0 100 100" xml:space="preserve">
<g>
	<path fill-rule="evenodd" clip-rule="evenodd" fill="#DD0000" d="M14.641,14.631c19.52-19.508,51.212-19.508,70.719,0
		c19.521,19.522,19.521,51.217,0,70.739c-19.507,19.507-51.199,19.507-70.719,0C-4.88,65.848-4.88,34.153,14.641,14.631z"/>
	<path fill-rule="evenodd" clip-rule="evenodd" fill="#FFFFFF" d="M53.946,81.009l-8.147-0.187l-0.932-9.334
		c-2.201-0.521-4.32-1.389-6.294-2.574l-7.613,5.827l-5.707-5.827l5.88-7.413c-1.173-1.934-2.041-4-2.56-6.161L19,53.94l0.186-8.134
		l9.333-0.946c0.52-2.16,1.361-4.241,2.52-6.188l-5.759-7.813l5.906-5.601l7.214,5.947c1.946-1.2,4.04-2.08,6.213-2.627l1.44-9.587
		l8.147,0.213l0.906,9.307c2.174,0.506,4.28,1.36,6.24,2.533l7.813-5.747l5.599,5.92l-5.946,7.201
		c1.2,1.947,2.081,4.054,2.628,6.227L81,46.073l-0.2,8.147l-9.307,0.92c-0.52,2.186-1.387,4.306-2.587,6.293l5.827,7.641
		l-5.84,5.681l-7.374-5.895c-1.946,1.188-4.026,2.054-6.173,2.573L53.946,81.009z M62.026,62.035c6.641-6.641,6.641-17.416,0-24.055
		c-6.627-6.641-17.413-6.641-24.052,0c-6.641,6.64-6.641,17.414,0,24.055C44.613,68.661,55.399,68.661,62.026,62.035z M41.227,58.78
		c-4.827-4.84-4.827-12.707,0-17.534c4.84-4.84,12.707-4.84,17.532,0c4.842,4.827,4.842,12.694,0,17.534
		C53.934,63.608,46.066,63.608,41.227,58.78z M51.479,58.861l1.24-1.228l1.227,1.228l1.84-1.841l1.227,1.227l1.24-1.227l-1.24-1.24
		l1.854-1.84l-1.241-1.227l1.241-1.239l-1.241-1.228l-3.066,3.08l-7.387-7.387l3.08-3.066l-1.227-1.227l-1.24,1.227l-1.226-1.227
		l-1.84,1.84l-1.241-1.24l-1.227,1.24l1.227,1.227l-1.838,1.84l1.227,1.24l-1.227,1.227l1.227,1.227l3.08-3.066l7.374,7.374
		l-3.067,3.08L51.479,58.861z M42.227,57.341l-0.013-2.227v0.014v2.187L42.227,57.341z"/>
</g>
</svg>
