<?xml version="1.0" encoding="utf-8"?>
<!-- Generator: Adobe Illustrator 16.2.0, SVG Export Plug-In . SVG Version: 6.00 Build 0)  -->
<!DOCTYPE svg PUBLIC "-//W3C//DTD SVG 1.1//EN" "http://www.w3.org/Graphics/SVG/1.1/DTD/svg11.dtd">
<svg version="1.1" id="Layer_1" xmlns="http://www.w3.org/2000/svg" xmlns:xlink="http://www.w3.org/1999/xlink" x="0px" y="0px"
	 width="100.2px" height="100.195px" viewBox="0 0 100.2 100.195" enable-background="new 0 0 100.2 100.195" xml:space="preserve">
<g>
	<polygon fill="#DD0000" points="81.045,99.529 81.045,90.341 73.004,90.341 73.004,84.754 81.045,84.754 81.045,76.005 
		87.166,76.005 87.166,84.754 95.154,84.754 95.154,90.341 87.166,90.341 87.166,99.529 	"/>
	<path fill-rule="evenodd" clip-rule="evenodd" fill="#B2B2B2" d="M14.663,85.527c-19.55-19.55-19.55-51.302,0-70.865
		c19.562-19.55,51.314-19.55,70.864,0c15.883,15.883,18.869,39.779,8.974,58.675c-6.947-5.026-16.735-4.415-22.988,1.854
		c-5.816,5.813-6.762,14.654-2.842,21.456C50.628,103.821,29.264,100.115,14.663,85.527z M37.773,78.086l4.267-4.256l4.254,4.256
		l4.267-4.256L39.919,63.19l25.537-25.538l10.642,10.642l4.267-4.254l-4.267-4.268l4.267-4.254l-6.387-6.387l4.267-4.254
		l-4.267-4.254l-4.254,4.254l-6.375-6.375l-4.267,4.254l-4.267-4.254l-4.255,4.254l10.642,10.642l-25.55,25.523L25.023,48.294
		l-4.267,4.254l4.267,4.267l-4.267,4.268l6.388,6.374l-4.268,4.255l4.268,4.267l4.254-4.267L37.773,78.086z"/>
</g>
</svg>
