<?xml version="1.0" encoding="utf-8"?>
<!-- Generator: Adobe Illustrator 16.2.0, SVG Export Plug-In . SVG Version: 6.00 Build 0)  -->
<!DOCTYPE svg PUBLIC "-//W3C//DTD SVG 1.1//EN" "http://www.w3.org/Graphics/SVG/1.1/DTD/svg11.dtd">
<svg version="1.1" id="Layer_1" xmlns="http://www.w3.org/2000/svg" xmlns:xlink="http://www.w3.org/1999/xlink" x="0px" y="0px"
	 width="182.8px" height="35.621px" viewBox="0 0 182.8 35.621" enable-background="new 0 0 182.8 35.621" xml:space="preserve">
<path fill-rule="evenodd" clip-rule="evenodd" fill="#CCCCCC" d="M166.179,34.97c-1.025-0.933-1.106-2.506-0.172-3.531l8.489-9.358
	c-62.5,4.932-85.052,4.732-172.595-17.154c-1.346-0.333-2.16-1.693-1.827-3.026c0.333-1.346,1.694-2.159,3.026-1.826
	c43.973,10.997,71.296,16.448,95.459,18.554c23.833,2.08,44.668,0.907,75.482-1.533l-9.129-8.291
	c-1.026-0.919-1.094-2.506-0.175-3.532c0.935-1.013,2.507-1.093,3.532-0.159l13.717,12.449c1.013,0.919,1.091,2.506,0.159,3.532
	l-12.449,13.701C168.779,35.824,167.191,35.902,166.179,34.97z"/>
</svg>
