<?xml version="1.0" encoding="utf-8"?>
<!-- Generator: Adobe Illustrator 16.2.0, SVG Export Plug-In . SVG Version: 6.00 Build 0)  -->
<!DOCTYPE svg PUBLIC "-//W3C//DTD SVG 1.1//EN" "http://www.w3.org/Graphics/SVG/1.1/DTD/svg11.dtd">
<svg version="1.1" id="Layer_1" xmlns="http://www.w3.org/2000/svg" xmlns:xlink="http://www.w3.org/1999/xlink" x="0px" y="0px"
	 width="189.2px" height="35.678px" viewBox="0 0 189.2 35.678" enable-background="new 0 0 189.2 35.678" xml:space="preserve">
<path fill-rule="evenodd" clip-rule="evenodd" fill="#CCCCCC" d="M165.959,33.579c-0.227-1.358,0.708-2.639,2.067-2.865l12.436-2
	C120.497-4.381,53.8,0.737,3.483,22.25c-1.267,0.533-2.746-0.054-3.279-1.319c-0.546-1.266,0.04-2.746,1.306-3.279
	C53.04-4.381,121.564-9.673,183.249,24.542l-1.961-12.196c-0.227-1.359,0.708-2.639,2.067-2.865c1.358-0.227,2.64,0.706,2.866,2.065
	l2.944,18.287c0.227,1.359-0.706,2.641-2.064,2.866l-18.275,2.944C167.455,35.871,166.173,34.939,165.959,33.579z"/>
</svg>
