<?xml version="1.0" encoding="utf-8"?>
<!-- Generator: Adobe Illustrator 16.2.0, SVG Export Plug-In . SVG Version: 6.00 Build 0)  -->
<!DOCTYPE svg PUBLIC "-//W3C//DTD SVG 1.1//EN" "http://www.w3.org/Graphics/SVG/1.1/DTD/svg11.dtd">
<svg version="1.1" id="Layer_1" xmlns="http://www.w3.org/2000/svg" xmlns:xlink="http://www.w3.org/1999/xlink" x="0px" y="0px"
	 width="45px" height="45px" viewBox="0 0 45 45" enable-background="new 0 0 45 45" xml:space="preserve">
<g>
	<path fill-rule="evenodd" clip-rule="evenodd" fill="#B2B2B2" d="M0,22.5C0,10.09,10.081,0,22.494,0C34.921,0,45,10.09,45,22.5
		C45,34.909,34.921,45,22.494,45C10.081,45,0,34.909,0,22.5z"/>
	<path fill="#FFFFFF" d="M35.533,14.409l-5.999-5.025l-1.68,1.986l5.999,5.025L35.533,14.409z M17.12,11.37l-1.667-1.986
		l-5.986,5.012l1.68,2L17.12,11.37 M23.148,17.381h-1.961v7.811l6.2,3.719l0.975-1.6l-5.214-3.091V17.381 M22.494,12.17
		c-6.479,0-11.733,5.251-11.733,11.729c0,6.478,5.254,11.717,11.733,11.717s11.732-5.239,11.732-11.717
		C34.226,17.421,28.973,12.17,22.494,12.17 M22.494,33.016c-5.041,0-9.12-4.079-9.12-9.117s4.08-9.13,9.12-9.13
		c5.04,0,9.12,4.092,9.12,9.13S27.534,33.016,22.494,33.016L22.494,33.016z"/>
</g>
</svg>
