<?xml version="1.0" encoding="utf-8"?>
<!-- Generator: Adobe Illustrator 16.2.0, SVG Export Plug-In . SVG Version: 6.00 Build 0)  -->
<!DOCTYPE svg PUBLIC "-//W3C//DTD SVG 1.1//EN" "http://www.w3.org/Graphics/SVG/1.1/DTD/svg11.dtd">
<svg version="1.1" id="Layer_1" xmlns="http://www.w3.org/2000/svg" xmlns:xlink="http://www.w3.org/1999/xlink" x="0px" y="0px"
	 width="45px" height="45px" viewBox="0 0 45 45" enable-background="new 0 0 45 45" xml:space="preserve">
<g>
	<path fill-rule="evenodd" clip-rule="evenodd" fill="#B2B2B2" d="M0,22.507C0,34.92,10.081,45,22.508,45
		C34.919,45,45,34.92,45,22.507C45,10.08,34.919,0,22.508,0C10.081,0,0,10.08,0,22.507z"/>
	<path fill="#FFFFFF" d="M35.841,23.266c0,3.681-1.494,7.014-3.908,9.427c-0.519,0.506-1.359,0.506-1.881-0.013
		c-0.518-0.52-0.518-1.36,0-1.88c1.922-1.934,3.123-4.586,3.123-7.533c0-1.333-0.256-2.667-0.722-3.866l1.614-2.8
		C35.175,18.6,35.841,20.84,35.841,23.266 M22.508,9.933c2.411,0,4.667,0.667,6.625,1.76l-2.8,1.613
		c-1.158-0.453-2.492-0.707-3.825-0.707c-5.895,0-10.667,4.773-10.667,10.667c0,2.947,1.186,5.613,3.12,7.533h0.013
		c0.52,0.521,0.52,1.36,0,1.88c-0.521,0.52-1.374,0.52-1.894,0.013c-2.414-2.413-3.906-5.746-3.906-9.427
		C9.175,15.906,15.133,9.933,22.508,9.933 M22.508,27.266c-2.214,0-4-1.8-4-4c0-1.493,0.813-2.8,2-3.479l12.945-7.494l-7.372,12.773
		C25.415,26.373,24.068,27.266,22.508,27.266L22.508,27.266z"/>
</g>
</svg>
