<?xml version="1.0" encoding="utf-8"?>
<!-- Generator: Adobe Illustrator 16.2.0, SVG Export Plug-In . SVG Version: 6.00 Build 0)  -->
<!DOCTYPE svg PUBLIC "-//W3C//DTD SVG 1.1//EN" "http://www.w3.org/Graphics/SVG/1.1/DTD/svg11.dtd">
<svg version="1.1" id="Layer_1" xmlns="http://www.w3.org/2000/svg" xmlns:xlink="http://www.w3.org/1999/xlink" x="0px" y="0px"
	 width="100px" height="99.995px" viewBox="0 0 100 99.995" enable-background="new 0 0 100 99.995" xml:space="preserve">
<g>
	<path fill-rule="evenodd" clip-rule="evenodd" fill="#B2B2B2" d="M14.641,85.364C-4.88,65.843-4.88,34.15,14.641,14.63
		c19.52-19.506,51.212-19.506,70.719,0c15.841,15.84,18.826,39.693,8.961,58.56c-6.948-4.987-16.68-4.359-22.921,1.88
		c-5.799,5.787-6.759,14.601-2.88,21.387C50.534,103.616,29.201,99.909,14.641,85.364z M50,69.403c0.187,0,0.359,0,0.534,0l0,0
		c6.158-0.039,13.466-0.12,19.119-0.813c5.866-0.734,7.359-4.308,7.667-10.201c0.173-3.213,0.293-5.693,0.28-8.4
		c0.013-2.707-0.107-5.173-0.28-8.387c-0.308-5.893-1.801-9.48-7.667-10.2C64,30.71,56.692,30.63,50.534,30.603V30.59
		c-0.175,0.013-0.348,0.013-0.534,0.013c-0.173,0-0.347,0-0.521-0.013v0.013c-6.159,0.027-13.466,0.107-19.12,0.8
		c-5.866,0.72-7.359,4.307-7.667,10.2c-0.173,3.213-0.293,5.68-0.279,8.4c-0.014,2.693,0.105,5.173,0.279,8.386
		c0.307,5.894,1.801,9.467,7.667,10.201c5.654,0.692,12.961,0.773,19.12,0.813l0,0C49.653,69.403,49.827,69.403,50,69.403z
		 M44.466,58.203V41.697l14.267,8.252L44.466,58.203z"/>
	<polygon fill="#DD0000" points="80.919,99.403 80.919,90.216 72.894,90.216 72.894,84.616 80.919,84.616 80.919,75.882 
		87.054,75.882 87.054,84.616 95.039,84.616 95.039,90.216 87.054,90.216 87.054,99.403 	"/>
</g>
</svg>
