<?xml version="1.0" encoding="utf-8"?>
<!-- Generator: Adobe Illustrator 16.2.0, SVG Export Plug-In . SVG Version: 6.00 Build 0)  -->
<!DOCTYPE svg PUBLIC "-//W3C//DTD SVG 1.1//EN" "http://www.w3.org/Graphics/SVG/1.1/DTD/svg11.dtd">
<svg version="1.1" id="Layer_1" xmlns="http://www.w3.org/2000/svg" xmlns:xlink="http://www.w3.org/1999/xlink" x="0px" y="0px"
	 width="182.3px" height="37.391px" viewBox="0 0 182.3 37.391" enable-background="new 0 0 182.3 37.391" xml:space="preserve">
<path fill-rule="evenodd" clip-rule="evenodd" fill="#CCCCCC" d="M1.049,12.085c-1.12-0.8-1.386-2.36-0.587-3.493
	c0.8-1.12,2.36-1.386,3.493-0.586c44.005,31.301,114.591,33.673,169.887,0.107l-12.612-3.186c-1.333-0.347-2.146-1.706-1.799-3.04
	c0.333-1.333,1.692-2.146,3.025-1.813l17.957,4.545c1.347,0.346,2.146,1.707,1.813,3.04l-4.546,17.956
	c-0.334,1.333-1.692,2.146-3.039,1.813c-1.333-0.347-2.146-1.707-1.799-3.04l2.932-11.598C119.05,46.864,46.666,44.518,1.049,12.085
	z"/>
</svg>
