<?xml version="1.0" encoding="utf-8"?>
<!-- Generator: Adobe Illustrator 16.2.0, SVG Export Plug-In . SVG Version: 6.00 Build 0)  -->
<!DOCTYPE svg PUBLIC "-//W3C//DTD SVG 1.1//EN" "http://www.w3.org/Graphics/SVG/1.1/DTD/svg11.dtd">
<svg version="1.1" id="Layer_1" xmlns="http://www.w3.org/2000/svg" xmlns:xlink="http://www.w3.org/1999/xlink" x="0px" y="0px"
	 width="45px" height="45px" viewBox="0 0 45 45" enable-background="new 0 0 45 45" xml:space="preserve">
<g>
	<path fill-rule="evenodd" clip-rule="evenodd" fill="#B2B2B2" d="M0,22.494C0,34.92,10.08,45,22.494,45
		C34.918,45,45,34.92,45,22.494C45,10.08,34.918,0,22.494,0C10.08,0,0,10.08,0,22.494z"/>
	<path fill="#FFFFFF" d="M22.494,11.707c-1.388,0-2.508,1.133-2.508,2.52c0,1.373,1.12,2.506,2.508,2.506
		c1.386,0,2.506-1.133,2.506-2.506C25,12.84,23.879,11.707,22.494,11.707 M22.494,9.2c2.773,0,5.026,2.253,5.026,5.027
		c0,0.906-0.239,1.76-0.68,2.506h3.188c1.198,0,2.198,0.84,2.453,1.96c2.519,10.053,2.573,10.32,2.573,10.6
		c0,1.387-1.136,2.506-2.521,2.506h-20.08c-1.387,0-2.52-1.12-2.52-2.506c0-0.28,0.053-0.547,2.573-10.6
		c0.254-1.121,1.267-1.96,2.453-1.96h3.188c-0.441-0.747-0.681-1.6-0.681-2.506C17.467,11.453,19.72,9.2,22.494,9.2L22.494,9.2z"/>
</g>
</svg>
