<?xml version="1.0" encoding="utf-8"?>
<!-- Generator: Adobe Illustrator 16.2.0, SVG Export Plug-In . SVG Version: 6.00 Build 0)  -->
<!DOCTYPE svg PUBLIC "-//W3C//DTD SVG 1.1//EN" "http://www.w3.org/Graphics/SVG/1.1/DTD/svg11.dtd">
<svg version="1.1" id="Layer_1" xmlns="http://www.w3.org/2000/svg" xmlns:xlink="http://www.w3.org/1999/xlink" x="0px" y="0px"
	 width="100.001px" height="99.996px" viewBox="0 0 100.001 99.996" enable-background="new 0 0 100.001 99.996"
	 xml:space="preserve">
<g>
	<path fill-rule="evenodd" clip-rule="evenodd" fill="#B2B2B2" d="M14.64,85.363c-19.52-19.521-19.52-51.213,0-70.733
		c19.52-19.506,51.214-19.506,70.719,0c15.841,15.84,18.828,39.693,8.961,58.56c-6.948-4.986-16.68-4.36-22.921,1.879
		c-5.799,5.788-6.759,14.602-2.879,21.388C50.534,103.616,29.2,99.91,14.64,85.363z M78.039,63.723V30.27
		c0-3.08-2.492-5.573-5.573-5.573H27.547c-3.08,0-5.586,2.494-5.586,5.573v33.453c0,3.08,2.506,5.572,5.586,5.572h44.919
		C75.547,69.295,78.039,66.803,78.039,63.723z M30.32,60.936v-5.573h16.733v5.573H30.32z M30.32,49.79v-5.587H58.2v5.587H30.32z
		 M30.32,38.63v-5.574H58.2v5.574H30.32z M67.761,38.19l-5.094-5.094H72.84L67.761,38.19z"/>
	<path fill="#DD0000" d="M81.613,75.643c1.32,0,2.399,1.066,2.399,2.399v5.4c0,0,2.401-0.307,2.401,0.895
		c0,0,2.398-0.295,2.398,0.906c0,0,2.4-0.308,2.4,0.893c0,0,2.4-0.294,2.4,0.906v4.201c0,1.199-3.601,7.186-3.601,8.399h-9.599
		c0,0-2.401-8.399-6-10.801c0,0-1.201-7.199,4.799-1.214v-9.586C79.213,76.709,80.294,75.643,81.613,75.643L81.613,75.643z"/>
</g>
</svg>
