<?xml version="1.0" encoding="utf-8"?>
<!-- Generator: Adobe Illustrator 16.2.0, SVG Export Plug-In . SVG Version: 6.00 Build 0)  -->
<!DOCTYPE svg PUBLIC "-//W3C//DTD SVG 1.1//EN" "http://www.w3.org/Graphics/SVG/1.1/DTD/svg11.dtd">
<svg version="1.1" id="Layer_1" xmlns="http://www.w3.org/2000/svg" xmlns:xlink="http://www.w3.org/1999/xlink" x="0px" y="0px"
	 width="78.6px" height="130.737px" viewBox="0 0 78.6 130.737" enable-background="new 0 0 78.6 130.737" xml:space="preserve">
<path fill-rule="evenodd" clip-rule="evenodd" fill="#7D7D7D" d="M0.107,130.737l-0.107-1c1.32-0.133,2.64-0.319,3.933-0.52
	l0.16,0.986C2.773,130.417,1.44,130.59,0.107,130.737z M8.052,129.471l-0.213-0.973c1.306-0.28,2.599-0.574,3.866-0.92l0.267,0.973
	C10.679,128.884,9.372,129.204,8.052,129.471z M15.824,127.431l-0.293-0.946c1.266-0.414,2.519-0.84,3.759-1.307l0.347,0.946
	C18.383,126.591,17.118,127.031,15.824,127.431z M23.37,124.618l-0.4-0.92c1.227-0.52,2.426-1.08,3.613-1.653l0.439,0.894
	C25.822,123.525,24.61,124.085,23.37,124.618z M30.595,121.072l-0.493-0.866c1.16-0.653,2.306-1.32,3.426-2.013l0.533,0.853
	C32.915,119.752,31.768,120.419,30.595,121.072z M37.434,116.846l-0.573-0.826c1.093-0.76,2.159-1.534,3.226-2.333l0.599,0.799
	C39.62,115.286,38.527,116.073,37.434,116.846z M43.833,111.967l-0.64-0.76c1.013-0.853,2-1.733,2.986-2.626l0.667,0.733
	C45.859,110.221,44.859,111.114,43.833,111.967z M49.751,106.528l-0.707-0.707c0.92-0.933,1.84-1.906,2.733-2.879l0.733,0.667
	C51.618,104.608,50.685,105.582,49.751,106.528z M55.15,100.569l-0.773-0.64c0.854-1.013,1.68-2.053,2.48-3.106l0.8,0.6
	C56.843,98.489,56.004,99.542,55.15,100.569z M60.016,94.17l-0.826-0.574c0.76-1.08,1.493-2.187,2.2-3.306l0.854,0.533
	C61.523,91.957,60.776,93.077,60.016,94.17z M64.322,87.384l-0.866-0.506c0.667-1.133,1.307-2.306,1.919-3.479l0.88,0.466
	C65.642,85.051,64.989,86.225,64.322,87.384z M68.055,80.266l-0.907-0.426c0.573-1.2,1.12-2.4,1.64-3.626l0.919,0.386
	C69.175,77.84,68.628,79.066,68.055,80.266z M71.201,72.88l-0.933-0.36c0.48-1.239,0.92-2.479,1.346-3.746l0.946,0.32
	C72.134,70.361,71.681,71.627,71.201,72.88z M73.774,65.255l-0.96-0.28c0.374-1.267,0.72-2.546,1.053-3.84l0.973,0.253
	C74.507,62.682,74.147,63.976,73.774,65.255z M75.747,57.47l-0.973-0.2c0.28-1.293,0.533-2.6,0.76-3.906l0.987,0.16
	C76.28,54.857,76.027,56.164,75.747,57.47z M77.133,49.565l-0.987-0.147c0.173-1.307,0.333-2.626,0.467-3.946l0.987,0.094
	C77.467,46.912,77.32,48.232,77.133,49.565z M77.934,41.566l-1-0.067c0.08-1.32,0.146-2.64,0.173-3.973l1,0.026
	C78.066,38.9,78.013,40.233,77.934,41.566z M77.027,29.568l1-0.053c0.066,1.346,0.107,2.693,0.12,4.026h-1
	C77.133,32.221,77.093,30.901,77.027,29.568z M76.387,21.636l0.986-0.12c0.16,1.333,0.293,2.666,0.4,3.999l-1,0.08
	C76.667,24.276,76.533,22.957,76.387,21.636z M75.173,13.757l0.987-0.186c0.253,1.319,0.467,2.64,0.68,3.959l-1,0.16
	C75.64,16.384,75.427,15.078,75.173,13.757z M70.814,10.011L72.548,0L78.6,8.159l-3.413,0.813l0.16,0.667L74.36,9.865l-0.146-0.667
	L70.814,10.011z"/>
</svg>
