<?xml version="1.0" encoding="utf-8"?>
<!-- Generator: Adobe Illustrator 16.2.0, SVG Export Plug-In . SVG Version: 6.00 Build 0)  -->
<!DOCTYPE svg PUBLIC "-//W3C//DTD SVG 1.1//EN" "http://www.w3.org/Graphics/SVG/1.1/DTD/svg11.dtd">
<svg version="1.1" id="Layer_1" xmlns="http://www.w3.org/2000/svg" xmlns:xlink="http://www.w3.org/1999/xlink" x="0px" y="0px"
	 width="58.8px" height="330.723px" viewBox="0 0 58.8 330.723" enable-background="new 0 0 58.8 330.723" xml:space="preserve">
<path fill-rule="evenodd" clip-rule="evenodd" fill="#7D7D7D" d="M33.857,330.723l-0.933-0.36c0.479-1.239,0.959-2.478,1.425-3.73
	l0.933,0.36C34.816,328.245,34.337,329.483,33.857,330.723z M36.668,323.234l-0.933-0.346c0.454-1.24,0.894-2.492,1.333-3.758
	l0.946,0.333C37.575,320.729,37.121,321.982,36.668,323.234z M39.293,315.667l-0.946-0.307c0.427-1.266,0.84-2.532,1.239-3.797
	l0.959,0.306C40.133,313.134,39.72,314.4,39.293,315.667z M41.745,308.044l-0.959-0.292c0.386-1.266,0.772-2.545,1.146-3.824
	l0.959,0.28C42.518,305.5,42.131,306.766,41.745,308.044z M43.997,300.37l-0.959-0.28c0.36-1.28,0.72-2.559,1.066-3.851l0.959,0.267
	C44.716,297.798,44.37,299.077,43.997,300.37z M46.088,292.642l-0.973-0.253c0.333-1.292,0.667-2.585,0.986-3.877l0.973,0.239
	C46.755,290.057,46.421,291.35,46.088,292.642z M48.007,284.86l-0.972-0.226c0.306-1.293,0.6-2.585,0.893-3.891l0.973,0.226
	C48.607,282.262,48.313,283.568,48.007,284.86z M49.752,277.053l-0.973-0.213c0.28-1.293,0.547-2.599,0.813-3.904l0.986,0.2
	C50.312,274.441,50.032,275.747,49.752,277.053z M51.352,269.205l-0.986-0.187c0.253-1.306,0.493-2.611,0.733-3.917l0.986,0.173
	C51.845,266.593,51.605,267.898,51.352,269.205z M52.777,261.33l-0.986-0.16c0.227-1.319,0.44-2.625,0.653-3.944l0.986,0.16
	C53.217,258.705,53.004,260.024,52.777,261.33z M54.056,253.429l-0.985-0.147c0.186-1.319,0.386-2.638,0.572-3.957l0.986,0.146
	C54.443,250.791,54.256,252.109,54.056,253.429z M55.176,245.5l-1-0.12c0.173-1.32,0.346-2.638,0.506-3.971l0.985,0.12
	C55.509,242.862,55.349,244.181,55.176,245.5z M56.135,237.559l-0.986-0.106c0.146-1.333,0.293-2.651,0.426-3.971l0.986,0.093
	C56.429,234.907,56.295,236.24,56.135,237.559z M56.961,229.591l-1-0.08c0.12-1.333,0.24-2.652,0.346-3.984l1,0.08
	C57.201,226.939,57.081,228.272,56.961,229.591z M57.627,221.624l-0.999-0.08c0.093-1.319,0.187-2.651,0.28-3.984l0.986,0.066
	C57.814,218.958,57.721,220.291,57.627,221.624z M58.134,213.629l-0.986-0.054c0.066-1.319,0.133-2.652,0.2-3.984l1,0.04
	C58.281,210.964,58.214,212.296,58.134,213.629z M58.507,205.634l-1-0.027c0.053-1.333,0.093-2.665,0.133-3.997l0.999,0.026
	C58.6,202.969,58.561,204.302,58.507,205.634z M58.733,197.64l-0.999-0.014c0.013-1.333,0.04-2.665,0.053-3.998l1,0.014
	C58.773,194.975,58.747,196.307,58.733,197.64z M57.774,185.648l1-0.014c0.014,1.332,0.026,2.665,0.026,3.997h-0.999
	C57.801,188.299,57.788,186.966,57.774,185.648z M57.627,177.653l0.986-0.027c0.04,1.333,0.08,2.665,0.106,4.01l-0.999,0.014
	C57.694,180.318,57.654,178.985,57.627,177.653z M57.308,169.685l0.999-0.053c0.067,1.333,0.121,2.665,0.174,3.998l-1,0.04
	C57.441,172.336,57.375,171.004,57.308,169.685z M56.854,161.704l1-0.066c0.08,1.333,0.173,2.665,0.24,3.998l-0.986,0.053
	C57.028,164.369,56.948,163.036,56.854,161.704z M56.229,153.75l1-0.094c0.12,1.333,0.227,2.665,0.333,3.997l-0.999,0.08
	C56.455,156.4,56.349,155.068,56.229,153.75z M55.456,145.808l0.999-0.12c0.146,1.332,0.28,2.665,0.413,3.984l-0.999,0.107
	C55.735,148.446,55.602,147.127,55.456,145.808z M54.523,137.867l0.986-0.12c0.173,1.319,0.333,2.638,0.492,3.971l-0.985,0.12
	C54.856,140.505,54.696,139.186,54.523,137.867z M53.417,129.965l0.986-0.146c0.2,1.319,0.399,2.638,0.572,3.957l-0.985,0.133
	C53.803,132.59,53.617,131.285,53.417,129.965z M52.151,122.078l0.986-0.16c0.226,1.306,0.439,2.625,0.653,3.944l-0.986,0.16
	C52.591,124.702,52.378,123.396,52.151,122.078z M50.712,114.229l0.973-0.187c0.253,1.306,0.506,2.612,0.746,3.931l-0.986,0.173
	C51.206,116.841,50.965,115.535,50.712,114.229z M49.086,106.421l0.973-0.227c0.293,1.306,0.573,2.612,0.84,3.917l-0.986,0.2
	C49.646,109.02,49.366,107.713,49.086,106.421z M47.288,98.64l0.959-0.24c0.32,1.292,0.626,2.598,0.933,3.891l-0.973,0.226
	C47.901,101.225,47.594,99.932,47.288,98.64z M45.29,90.912l0.959-0.266c0.346,1.292,0.693,2.585,1.026,3.877l-0.973,0.24
	C45.982,93.483,45.636,92.191,45.29,90.912z M43.104,83.237l0.946-0.293c0.386,1.279,0.759,2.558,1.132,3.851l-0.959,0.266
	C43.851,85.782,43.477,84.503,43.104,83.237z M40.706,75.616l0.946-0.307c0.427,1.266,0.826,2.531,1.227,3.811l-0.947,0.307
	C41.532,78.147,41.119,76.881,40.706,75.616z M38.107,68.074l0.933-0.333c0.453,1.253,0.906,2.505,1.332,3.771l-0.946,0.333
	C39,70.579,38.547,69.327,38.107,68.074z M35.283,60.613l0.933-0.36c0.479,1.226,0.973,2.478,1.438,3.73l-0.933,0.347
	C36.255,63.091,35.776,61.852,35.283,60.613z M32.231,53.244l0.919-0.4c0.533,1.226,1.053,2.452,1.559,3.691l-0.919,0.387
	C33.271,55.683,32.764,54.457,32.231,53.244z M28.954,45.969l0.893-0.426c0.573,1.199,1.133,2.412,1.679,3.637l-0.906,0.413
	C30.073,48.381,29.513,47.168,28.954,45.969z M25.409,38.813l0.893-0.453c0.613,1.186,1.212,2.372,1.812,3.571l-0.906,0.453
	C26.622,41.186,26.022,40,25.409,38.813z M21.625,31.805l0.866-0.493c0.666,1.16,1.306,2.332,1.945,3.504l-0.879,0.48
	C22.918,34.124,22.278,32.951,21.625,31.805z M17.575,24.93l0.853-0.52c0.693,1.132,1.386,2.279,2.065,3.425l-0.866,0.52
	C18.96,27.195,18.268,26.063,17.575,24.93z M13.244,18.241l0.826-0.559c0.747,1.106,1.479,2.212,2.211,3.345l-0.839,0.533
	C14.71,20.439,13.978,19.333,13.244,18.241z M8.62,11.739l0.8-0.586c0.8,1.065,1.585,2.145,2.358,3.237l-0.813,0.573
	C10.193,13.884,9.407,12.805,8.62,11.739z M2.705,9.78L0,0l8.94,4.783L6.209,6.982l0.786,0.973L6.209,8.581L5.437,7.595L2.705,9.78z
	"/>
</svg>
