<?xml version="1.0" encoding="utf-8"?>
<!-- Generator: Adobe Illustrator 16.2.0, SVG Export Plug-In . SVG Version: 6.00 Build 0)  -->
<!DOCTYPE svg PUBLIC "-//W3C//DTD SVG 1.1//EN" "http://www.w3.org/Graphics/SVG/1.1/DTD/svg11.dtd">
<svg version="1.1" id="Layer_1" xmlns="http://www.w3.org/2000/svg" xmlns:xlink="http://www.w3.org/1999/xlink" x="0px" y="0px"
	 width="131.1px" height="53.691px" viewBox="0 0 131.1 53.691" enable-background="new 0 0 131.1 53.691" xml:space="preserve">
<path fill-rule="evenodd" clip-rule="evenodd" fill="#7D7D7D" d="M127.34,51.21l0.613-0.787c1.053,0.813,2.106,1.654,3.146,2.494
	l-0.626,0.773C129.433,52.851,128.394,52.024,127.34,51.21z M120.941,46.451l0.573-0.813c1.094,0.773,2.173,1.56,3.253,2.36
	l-0.6,0.8C123.1,48.011,122.02,47.224,120.941,46.451z M114.354,41.945l0.547-0.841c1.12,0.734,2.227,1.48,3.333,2.24l-0.56,0.827
	C116.567,43.411,115.46,42.678,114.354,41.945z M107.608,37.678l0.52-0.854c1.133,0.694,2.28,1.4,3.399,2.107l-0.533,0.854
	C109.875,39.064,108.741,38.371,107.608,37.678z M100.715,33.665l0.479-0.88c1.16,0.653,2.333,1.319,3.48,2l-0.494,0.854
	C103.021,34.972,101.861,34.305,100.715,33.665z M93.675,29.878l0.467-0.88c1.173,0.613,2.36,1.227,3.546,1.867l-0.479,0.88
	C96.035,31.118,94.861,30.491,93.675,29.878z M86.529,26.345l0.427-0.907c1.2,0.573,2.399,1.147,3.6,1.747l-0.44,0.893
	C88.915,27.492,87.729,26.905,86.529,26.345z M79.263,23.026l0.4-0.921c1.213,0.534,2.439,1.081,3.653,1.641l-0.414,0.906
	C81.689,24.105,80.476,23.559,79.263,23.026z M71.903,19.946l0.36-0.934c1.24,0.494,2.479,1,3.72,1.52l-0.387,0.92
	C74.356,20.946,73.129,20.438,71.903,19.946z M64.437,17.092l0.347-0.934c1.239,0.454,2.493,0.921,3.759,1.4l-0.36,0.933
	C66.93,18.012,65.677,17.545,64.437,17.092z M56.904,14.479l0.307-0.959c1.253,0.427,2.52,0.853,3.8,1.293l-0.333,0.947
	C59.41,15.319,58.157,14.893,56.904,14.479z M49.278,12.093l0.28-0.96c1.267,0.373,2.546,0.76,3.84,1.173l-0.293,0.947
	C51.811,12.853,50.544,12.466,49.278,12.093z M41.584,9.959L41.838,9c1.28,0.32,2.56,0.667,3.866,1.04L45.438,11
	C44.145,10.64,42.851,10.292,41.584,9.959z M33.825,8.093l0.214-0.973c1.28,0.28,2.586,0.586,3.907,0.907L37.718,9
	C36.398,8.679,35.105,8.386,33.825,8.093z M9.16,8L0,3.613L9.493,0L9.16,8z M25.999,6.533l0.174-0.987
	c1.293,0.227,2.6,0.48,3.946,0.747l-0.2,0.987C28.585,7.013,27.279,6.76,25.999,6.533z M18.119,5.307l0.133-0.987
	c1.281,0.16,2.614,0.347,3.974,0.56l-0.16,0.987C20.719,5.667,19.399,5.479,18.119,5.307z M10.2,4.546l0.053-1
	c1.281,0.08,2.614,0.187,4.014,0.32l-0.107,1C12.786,4.733,11.453,4.626,10.2,4.546z"/>
</svg>
