<?xml version="1.0" encoding="utf-8"?>
<!-- Generator: Adobe Illustrator 16.2.0, SVG Export Plug-In . SVG Version: 6.00 Build 0)  -->
<!DOCTYPE svg PUBLIC "-//W3C//DTD SVG 1.1//EN" "http://www.w3.org/Graphics/SVG/1.1/DTD/svg11.dtd">
<svg version="1.1" id="Layer_1" xmlns="http://www.w3.org/2000/svg" xmlns:xlink="http://www.w3.org/1999/xlink" x="0px" y="0px"
	 width="173.7px" height="110.461px" viewBox="0 0 173.7 110.461" enable-background="new 0 0 173.7 110.461" xml:space="preserve">
<path fill-rule="evenodd" clip-rule="evenodd" fill="#7D7D7D" d="M169.633,110.074l0.133-0.987c1.294,0.187,2.601,0.307,3.935,0.387
	l-0.041,0.987C172.287,110.394,170.939,110.261,169.633,110.074z M161.778,108.127l0.333-0.948c1.24,0.44,2.493,0.827,3.787,1.147
	l-0.24,0.96C164.338,108.967,163.044,108.581,161.778,108.127z M154.443,104.753l0.493-0.867c1.147,0.654,2.321,1.253,3.508,1.813
	l-0.414,0.907C156.804,106.047,155.617,105.42,154.443,104.753z M147.749,100.246l0.613-0.787c1.054,0.826,2.12,1.6,3.214,2.334
	l-0.561,0.826C149.909,101.873,148.815,101.085,147.749,100.246z M141.667,94.979l0.68-0.72c0.974,0.919,1.96,1.813,2.948,2.68
	l-0.654,0.747C143.628,96.818,142.641,95.912,141.667,94.979z M136.053,89.23l0.733-0.68c0.907,1,1.827,1.96,2.734,2.908
	l-0.708,0.693C137.879,91.204,136.973,90.23,136.053,89.23z M130.772,83.189l0.773-0.64c0.854,1.027,1.72,2.041,2.587,3.027
	l-0.747,0.653C132.505,85.243,131.639,84.216,130.772,83.189z M125.691,77.001l0.773-0.626c0.853,1.04,1.693,2.081,2.52,3.094
	l-0.773,0.64C127.371,79.082,126.531,78.042,125.691,77.001z M120.69,70.747l0.787-0.626c0.827,1.053,1.667,2.093,2.494,3.134
	l-0.786,0.626C122.357,72.84,121.53,71.8,120.69,70.747z M115.675,64.505l0.787-0.626c0.84,1.041,1.68,2.081,2.507,3.121
	l-0.774,0.627C117.369,66.586,116.529,65.559,115.675,64.505z M110.594,58.344l0.761-0.64c0.867,1.027,1.72,2.054,2.573,3.081
	l-0.773,0.626C112.302,60.398,111.461,59.371,110.594,58.344z M105.354,52.316l0.747-0.667c0.893,1,1.773,2,2.653,3.013l-0.76,0.654
	C107.127,54.317,106.247,53.317,105.354,52.316z M99.925,46.462l0.72-0.693c0.934,0.973,1.854,1.947,2.761,2.92l-0.734,0.68
	C101.766,48.396,100.859,47.436,99.925,46.462z M94.258,40.848l0.694-0.72c0.973,0.92,1.934,1.854,2.88,2.788l-0.707,0.72
	C96.179,42.701,95.232,41.768,94.258,40.848z M88.324,35.527l0.653-0.761c1.026,0.868,2.027,1.747,3.014,2.641l-0.667,0.747
	C90.337,37.26,89.351,36.394,88.324,35.527z M82.109,30.526l0.613-0.8c1.067,0.813,2.121,1.64,3.161,2.48l-0.627,0.773
	C84.23,32.152,83.176,31.339,82.109,30.526z M75.614,25.912l0.561-0.841c1.12,0.747,2.227,1.508,3.307,2.281l-0.573,0.813
	C77.828,27.405,76.735,26.645,75.614,25.912z M68.853,21.71l0.494-0.867c1.173,0.667,2.32,1.36,3.454,2.067l-0.533,0.84
	C71.147,23.058,70.014,22.377,68.853,21.71z M61.825,17.95l0.44-0.893c1.214,0.6,2.4,1.213,3.574,1.84l-0.48,0.88
	C64.199,19.15,63.025,18.55,61.825,17.95z M54.558,14.669l0.386-0.92c1.254,0.507,2.481,1.04,3.681,1.6l-0.414,0.907
	C57.024,15.709,55.797,15.176,54.558,14.669z M47.102,11.855l0.333-0.947c1.28,0.439,2.534,0.894,3.774,1.36l-0.347,0.934
	C49.623,12.735,48.382,12.282,47.102,11.855z M39.487,9.508l0.267-0.974c1.307,0.36,2.587,0.733,3.854,1.134l-0.293,0.947
	C42.062,10.229,40.781,9.855,39.487,9.508z M31.753,7.601l0.2-0.973c1.334,0.28,2.627,0.586,3.921,0.907l-0.24,0.959
	C34.353,8.188,33.06,7.895,31.753,7.601z M9.055,7.988L0,3.387L9.575,0L9.348,3.493l2.774,0.214l-0.093,1L9.282,4.494L9.055,7.988z
	 M23.911,6.147l0.16-0.987c1.333,0.214,2.654,0.44,3.947,0.681l-0.173,0.986C26.552,6.588,25.231,6.361,23.911,6.147z M16.003,5.081
	l0.107-0.987c1.347,0.147,2.68,0.307,3.987,0.48l-0.134,0.986C18.657,5.388,17.337,5.228,16.003,5.081z"/>
</svg>
