<?xml version="1.0" encoding="utf-8"?>
<!-- Generator: Adobe Illustrator 16.2.0, SVG Export Plug-In . SVG Version: 6.00 Build 0)  -->
<!DOCTYPE svg PUBLIC "-//W3C//DTD SVG 1.1//EN" "http://www.w3.org/Graphics/SVG/1.1/DTD/svg11.dtd">
<svg version="1.1" id="Layer_1" xmlns="http://www.w3.org/2000/svg" xmlns:xlink="http://www.w3.org/1999/xlink" x="0px" y="0px"
	 width="130px" height="87.612px" viewBox="0 0 130 87.612" enable-background="new 0 0 130 87.612" xml:space="preserve">
<path fill-rule="evenodd" clip-rule="evenodd" fill="#7D7D7D" d="M120.048,87.612l1.69-7.81L130,85.669L120.048,87.612z
	 M114.673,82.742l0.253-0.971c1.277,0.333,2.568,0.652,3.872,0.945l-0.226,0.971C117.268,83.394,115.964,83.075,114.673,82.742z
	 M106.969,80.6l0.293-0.958c1.264,0.386,2.541,0.745,3.818,1.104l-0.266,0.958C109.524,81.345,108.247,80.972,106.969,80.6z
	 M99.359,78.112l0.333-0.944c1.251,0.439,2.501,0.865,3.765,1.277l-0.306,0.945C101.874,78.977,100.61,78.551,99.359,78.112z
	 M91.869,75.291l0.373-0.931c1.224,0.505,2.461,0.984,3.712,1.45l-0.359,0.932C94.344,76.276,93.106,75.784,91.869,75.291z
	 M84.511,72.151l0.413-0.905c1.197,0.545,2.408,1.078,3.632,1.597l-0.386,0.918C86.946,73.242,85.722,72.697,84.511,72.151z
	 M77.287,68.692l0.452-0.891c1.184,0.599,2.368,1.184,3.566,1.757l-0.426,0.904C79.669,69.89,78.471,69.291,77.287,68.692z
	 M70.222,64.927l0.492-0.865c1.157,0.639,2.315,1.277,3.486,1.903l-0.466,0.878C72.551,66.218,71.379,65.579,70.222,64.927z
	 M63.33,60.869l0.519-0.852c1.131,0.706,2.262,1.384,3.406,2.063l-0.506,0.851C65.605,62.253,64.461,61.575,63.33,60.869z
	 M56.598,56.532l0.559-0.825c1.104,0.731,2.209,1.463,3.326,2.195l-0.545,0.838C58.82,58.009,57.703,57.276,56.598,56.532z
	 M50.066,51.915l0.585-0.798c1.064,0.785,2.142,1.557,3.233,2.328l-0.572,0.812C52.221,53.485,51.13,52.713,50.066,51.915z
	 M43.706,47.059l0.625-0.785c1.038,0.824,2.089,1.649,3.14,2.448l-0.612,0.798C45.808,48.708,44.757,47.884,43.706,47.059z
	 M37.546,41.95l0.652-0.759c1.011,0.865,2.022,1.729,3.047,2.568l-0.639,0.771C39.582,43.68,38.557,42.815,37.546,41.95z
	 M31.585,36.615l0.679-0.732c0.971,0.905,1.956,1.796,2.94,2.688l-0.665,0.745C33.541,38.424,32.557,37.52,31.585,36.615z
	 M25.825,31.067l0.705-0.706c0.931,0.945,1.876,1.862,2.834,2.794l-0.692,0.719C27.714,32.942,26.756,32.011,25.825,31.067z
	 M20.25,25.319l0.732-0.679c0.905,0.971,1.823,1.929,2.741,2.887l-0.705,0.692C22.086,27.262,21.168,26.304,20.25,25.319z
	 M14.888,19.385l0.758-0.651c0.865,0.998,1.743,1.996,2.634,2.98l-0.732,0.665C16.644,21.394,15.766,20.396,14.888,19.385z
	 M9.726,13.278l0.772-0.625c0.838,1.025,1.69,2.049,2.541,3.06l-0.758,0.639C11.416,15.341,10.564,14.316,9.726,13.278z
	 M4.763,7.012L5.561,6.4c0.798,1.051,1.61,2.102,2.435,3.14l-0.772,0.625C6.386,9.114,5.575,8.063,4.763,7.012z M0,0.585L0.812,0
	c0.771,1.078,1.556,2.156,2.342,3.22L2.355,3.819C1.557,2.741,0.772,1.663,0,0.585z"/>
</svg>
