<?xml version="1.0" encoding="utf-8"?>
<!-- Generator: Adobe Illustrator 16.2.0, SVG Export Plug-In . SVG Version: 6.00 Build 0)  -->
<!DOCTYPE svg PUBLIC "-//W3C//DTD SVG 1.1//EN" "http://www.w3.org/Graphics/SVG/1.1/DTD/svg11.dtd">
<svg version="1.1" id="Layer_1" xmlns="http://www.w3.org/2000/svg" xmlns:xlink="http://www.w3.org/1999/xlink" x="0px" y="0px"
	 width="178.1px" height="111.22px" viewBox="0 0 178.1 111.22" enable-background="new 0 0 178.1 111.22" xml:space="preserve">
<path fill-rule="evenodd" clip-rule="evenodd" fill="#7D7D7D" d="M0.84,111.22L0,110.687c0.68-1.12,1.374-2.253,2.08-3.4
	l0.853,0.521C2.227,108.954,1.533,110.101,0.84,111.22z M5.014,104.379l-0.853-0.52c0.693-1.121,1.386-2.254,2.094-3.414
	l0.854,0.533C6.401,102.125,5.708,103.259,5.014,104.379z M9.201,97.565l-0.853-0.521c0.707-1.12,1.414-2.253,2.134-3.4l0.84,0.534
	C10.602,95.324,9.895,96.445,9.201,97.565z M13.482,90.817l-0.84-0.547c0.707-1.107,1.44-2.227,2.187-3.347l0.84,0.547
	C14.923,88.59,14.189,89.71,13.482,90.817z M17.896,84.162l-0.827-0.56c0.747-1.093,1.52-2.187,2.294-3.293l0.813,0.573
	C19.404,81.988,18.643,83.083,17.896,84.162z M22.511,77.654l-0.8-0.6c0.787-1.067,1.587-2.134,2.4-3.201l0.8,0.6
	C24.098,75.521,23.298,76.588,22.511,77.654z M27.352,71.307l-0.774-0.627c0.827-1.04,1.667-2.081,2.521-3.107l0.773,0.64
	C29.019,69.24,28.178,70.266,27.352,71.307z M32.446,65.159l-0.747-0.653c0.867-1,1.747-2,2.654-3l0.747,0.667
	C34.193,63.172,33.313,64.172,32.446,65.159z M37.807,59.251l-0.72-0.68c0.92-0.974,1.854-1.921,2.8-2.881l0.707,0.707
	C39.647,57.344,38.727,58.304,37.807,59.251z M43.448,53.61l-0.694-0.72c0.96-0.92,1.934-1.84,2.934-2.747l0.68,0.747
	C45.368,51.796,44.395,52.69,43.448,53.61z M49.356,48.249l-0.653-0.761c1-0.866,2.027-1.733,3.067-2.586l0.627,0.773
	C51.37,46.529,50.343,47.382,49.356,48.249z M55.517,43.195l-0.614-0.8c1.054-0.813,2.121-1.614,3.201-2.414l0.587,0.8
	C57.624,41.581,56.557,42.381,55.517,43.195z M61.931,38.461l-0.573-0.827c1.094-0.761,2.2-1.507,3.321-2.254l0.56,0.84
	C64.119,36.954,63.012,37.7,61.931,38.461z M68.586,34.06l-0.533-0.854c1.133-0.707,2.267-1.4,3.427-2.08L72,31.979
	C70.84,32.66,69.706,33.353,68.586,34.06z M75.454,29.992l-0.494-0.88c1.16-0.64,2.334-1.28,3.521-1.907l0.467,0.88
	C77.774,28.712,76.601,29.352,75.454,29.992z M82.509,26.258l-0.454-0.893c1.187-0.587,2.387-1.174,3.614-1.747l0.427,0.906
	C84.882,25.098,83.682,25.671,82.509,26.258z M89.723,22.871l-0.4-0.919c1.2-0.534,2.44-1.054,3.681-1.574l0.387,0.92
	C92.151,21.817,90.924,22.337,89.723,22.871z M97.085,19.804l-0.36-0.934c1.227-0.479,2.48-0.959,3.748-1.426l0.347,0.947
	C99.565,18.844,98.312,19.324,97.085,19.804z M104.579,17.043l-0.333-0.947c1.254-0.427,2.521-0.854,3.814-1.267l0.307,0.947
	C107.087,16.189,105.82,16.617,104.579,17.043z M112.167,14.589l-0.28-0.959c1.267-0.374,2.547-0.747,3.841-1.12l0.28,0.96
	C114.715,13.843,113.435,14.216,112.167,14.589z M119.849,12.429l-0.254-0.974c1.28-0.333,2.587-0.667,3.894-0.987l0.24,0.973
	C122.423,11.762,121.129,12.082,119.849,12.429z M127.61,10.522l-0.213-0.974c1.28-0.293,2.587-0.574,3.907-0.854l0.214,0.987
	C130.198,9.949,128.904,10.242,127.61,10.522z M135.425,8.896l-0.187-0.987c1.294-0.253,2.614-0.494,3.934-0.733l0.187,0.987
	C138.026,8.402,136.719,8.642,135.425,8.896z M169.085,7.975l-0.267-3.494l-1.747,0.147l-0.08-1l1.76-0.133L168.485,0l9.615,3.281
	L169.085,7.975z M143.293,7.495l-0.16-0.986c1.307-0.214,2.627-0.414,3.961-0.614l0.146,0.987
	C145.907,7.081,144.587,7.282,143.293,7.495z M151.188,6.321l-0.133-0.987c1.32-0.173,2.64-0.346,3.974-0.506l0.12,1
	C153.815,5.988,152.495,6.147,151.188,6.321z M159.123,5.375l-0.107-1c1.32-0.134,2.64-0.267,3.987-0.401l0.094,1
	C161.764,5.094,160.43,5.228,159.123,5.375z"/>
</svg>
