<?xml version="1.0" encoding="utf-8"?>
<!-- Generator: Adobe Illustrator 16.2.0, SVG Export Plug-In . SVG Version: 6.00 Build 0)  -->
<!DOCTYPE svg PUBLIC "-//W3C//DTD SVG 1.1//EN" "http://www.w3.org/Graphics/SVG/1.1/DTD/svg11.dtd">
<svg version="1.1" id="Layer_1" xmlns="http://www.w3.org/2000/svg" xmlns:xlink="http://www.w3.org/1999/xlink" x="0px" y="0px"
	 width="194px" height="157.604px" viewBox="0 0 194 157.604" enable-background="new 0 0 194 157.604" xml:space="preserve">
<g>
	<path fill-rule="evenodd" clip-rule="evenodd" fill="#FFFFFF" d="M152.28,90.2c-15.626,5.653-34.706,8.96-55.28,8.96
		c-7.547,0.173-15.52,0.173-29.04-2.28C29.147,90.587,1,72,1,50.08C1,22.987,44.014,1,97,1c52.987,0,96,21.987,96,49.08
		c0,11.214-7.373,21.56-19.76,29.827c-7.227,25.56-16.6,51.133-33.867,76.693C149.027,132.627,153.533,108.214,152.28,90.2z"/>
	<path fill-rule="evenodd" clip-rule="evenodd" d="M138.44,156.228c8.414-20.894,12.894-42.081,13.041-58.987l-0.16-5.693
		L140.2,94.96c-13.013,3.333-27.693,5.213-43.186,5.213c-7.574,0.16-15.627,0.16-29.213-2.307C29.027,91.574,0,72.88,0,50.08
		C0,21.947,44.12,0,97,0c52.867,0,97,21.947,97,50.08c0,10.227-5.88,19.627-15.747,27.414l-4.16,3.027l-5.827,18.88
		c-6.507,19.24-15.054,38.494-28.067,57.76C139.533,158.146,138,157.333,138.44,156.228z M172.267,79.627
		c0.066-0.227,0.213-0.427,0.413-0.56c12.253-8.173,19.307-18.24,19.307-28.987C191.987,24.027,150.107,2,97,2S2,24.027,2,50.08
		c0,21.054,27.267,39.507,66.133,45.814c13.44,2.439,21.347,2.439,28.854,2.266c20.494,0,39.44-3.293,54.96-8.893
		c0.627-0.227,1.293,0.2,1.333,0.867c1.107,15.92-2.239,36.72-9.586,57.8L143.68,148l0.947-1.506
		C158.027,124.24,165.96,101.96,172.267,79.627z"/>
</g>
</svg>
