<?xml version="1.0" encoding="utf-8"?>
<!-- Generator: Adobe Illustrator 16.2.0, SVG Export Plug-In . SVG Version: 6.00 Build 0)  -->
<!DOCTYPE svg PUBLIC "-//W3C//DTD SVG 1.1//EN" "http://www.w3.org/Graphics/SVG/1.1/DTD/svg11.dtd">
<svg version="1.1" id="Layer_1" xmlns="http://www.w3.org/2000/svg" xmlns:xlink="http://www.w3.org/1999/xlink" x="0px" y="0px"
	 width="233px" height="151.865px" viewBox="0 0 233 151.865" enable-background="new 0 0 233 151.865" xml:space="preserve">
<g>
	<path fill-rule="evenodd" clip-rule="evenodd" fill="#FFFFFF" d="M170.36,112.293c-16.08,4.346-34.413,6.813-53.867,6.813
		c-9.066,0.2-18.653,0.2-34.92-2.76C34.867,108.773,1,86.427,1,60.053C1,27.453,52.746,1,116.493,1C180.253,1,232,27.453,232,60.053
		c0,20.08-19.64,37.827-49.613,48.494c6.293,13.68,15.973,28.52,28.013,42.307C194.426,138.92,181.573,125.893,170.36,112.293z"/>
	<path fill-rule="evenodd" clip-rule="evenodd" d="M209.799,151.653c-12.04-8.987-22.307-18.6-31.439-28.6l-8.36-9.654l-11.92,2.773
		c-12.92,2.547-26.933,3.934-41.573,3.934c-9.094,0.2-18.76,0.2-35.106-2.773C34.746,109.773,0,87.293,0,60.053
		C0,26.413,52.867,0,116.493,0C180.133,0,233,26.413,233,60.053c0,18.173-15.494,34.213-39.494,45.094l-9.733,3.919l4.826,9.44
		c5.907,10.52,13.56,21.4,22.547,31.694C211.933,151.094,210.746,152.374,209.799,151.653z M181.48,108.973
		c-0.253-0.533,0.013-1.173,0.573-1.373C211.959,96.96,231,79.44,231,60.053C231,28.493,180.373,2,116.493,2
		C52.626,2,2,28.493,2,60.053c0,25.494,32.986,47.733,79.746,55.32c16.187,2.933,25.707,2.933,34.747,2.733
		c19.374,0,37.614-2.453,53.601-6.773c0.387-0.106,0.786,0.027,1.04,0.32c8.374,10.173,17.667,20,28.494,29.293l4.014,3.214
		l-2.613-3.2C192.893,130.267,186.227,119.293,181.48,108.973z"/>
</g>
</svg>
