<?xml version="1.0" encoding="utf-8"?>
<!-- Generator: Adobe Illustrator 16.2.0, SVG Export Plug-In . SVG Version: 6.00 Build 0)  -->
<!DOCTYPE svg PUBLIC "-//W3C//DTD SVG 1.1//EN" "http://www.w3.org/Graphics/SVG/1.1/DTD/svg11.dtd">
<svg version="1.1" id="Layer_1" xmlns="http://www.w3.org/2000/svg" xmlns:xlink="http://www.w3.org/1999/xlink" x="0px" y="0px"
	 width="80px" height="80px" viewBox="0 0 80 80" enable-background="new 0 0 80 80" xml:space="preserve">
<g>
	<ellipse fill="#FF0000" cx="40" cy="40" rx="40.001" ry="40.001"/>
	<path marker-end="none" marker-start="none" fill="#FFFFFF" d="M39.523,57.723v-0.002c-5.631-0.027-12.302-0.104-17.464-0.74
		c-5.357-0.66-6.727-3.928-7.004-9.312c-0.153-2.933-0.271-5.194-0.259-7.667c-0.012-2.473,0.105-4.734,0.259-7.668
		c0.277-5.382,1.647-8.654,7.005-9.313c5.162-0.633,11.833-0.714,17.464-0.736v-0.006c0.158,0.003,0.314,0.003,0.477,0.003
		s0.319,0,0.479-0.003v0.005c5.631,0.022,12.299,0.103,17.465,0.736c5.357,0.66,6.729,3.931,7.004,9.313
		c0.154,2.934,0.27,5.195,0.259,7.668c0.011,2.472-0.104,4.735-0.259,7.667c-0.275,5.383-1.645,8.652-7.004,9.313
		c-5.166,0.635-11.834,0.713-17.465,0.74v0.002c-0.159,0-0.315-0.002-0.479-0.002S39.681,57.723,39.523,57.723z M34.939,47.496
		l13.034-7.538l-13.034-7.537V47.496z"/>
</g>
</svg>
