<?xml version="1.0" encoding="utf-8"?>
<!-- Generator: Adobe Illustrator 16.2.0, SVG Export Plug-In . SVG Version: 6.00 Build 0)  -->
<!DOCTYPE svg PUBLIC "-//W3C//DTD SVG 1.1//EN" "http://www.w3.org/Graphics/SVG/1.1/DTD/svg11.dtd">
<svg version="1.1" id="Layer_1" xmlns="http://www.w3.org/2000/svg" xmlns:xlink="http://www.w3.org/1999/xlink" x="0px" y="0px"
	 width="80px" height="80px" viewBox="0 0 80 80" enable-background="new 0 0 80 80" xml:space="preserve">
<g>
	<path marker-end="none" marker-start="none" fill="#E0218B" d="M39.999,0.006c22.087,0,39.994,17.907,39.994,39.994
		c0,22.087-17.906,39.994-39.994,39.994c-22.086,0-39.992-17.904-39.992-39.993C0.007,17.916,17.912,0.006,39.999,0.006
		L39.999,0.006z"/>
	<path marker-end="none" marker-start="none" fill="#FFFFFF" d="M55.665,52c0,1.996-1.67,3.666-3.667,3.666H28.001
		c-2,0-3.666-1.67-3.666-3.666V36.001h5.833c-0.502,1.166-0.835,2.667-0.835,4c0,5.831,4.833,10.665,10.665,10.665
		c5.831,0,10.663-4.834,10.663-10.665c0-1.333-0.329-2.833-0.829-4h5.833V52L55.665,52z M34.5,36.001
		c1.168-1.666,3.333-2.833,5.499-2.833c2.167,0,4.333,1.167,5.499,2.833c0.835,1.166,1.335,2.5,1.335,4
		c0,3.833-3.166,6.831-6.833,6.831c-3.665,0-6.831-2.998-6.831-6.831C33.167,38.501,33.668,37.167,34.5,36.001 M54.163,25.002h0.835
		v0.833v5.833h-6.669v-6.666H54.163z M51.998,20.503H28.001c-4.167,0-7.5,3.334-7.5,7.499v7.999V52c0,4.166,3.333,7.496,7.5,7.496
		h23.997c4.165,0,7.497-3.33,7.497-7.496V36.001v-8C59.495,23.837,56.163,20.503,51.998,20.503L51.998,20.503z"/>
</g>
</svg>
