<?xml version="1.0" encoding="utf-8"?>
<!-- Generator: Adobe Illustrator 16.2.0, SVG Export Plug-In . SVG Version: 6.00 Build 0)  -->
<!DOCTYPE svg PUBLIC "-//W3C//DTD SVG 1.1//EN" "http://www.w3.org/Graphics/SVG/1.1/DTD/svg11.dtd">
<svg version="1.1" id="Layer_1" xmlns="http://www.w3.org/2000/svg" xmlns:xlink="http://www.w3.org/1999/xlink" x="0px" y="0px"
	 width="80px" height="80px" viewBox="0 0 80 80" enable-background="new 0 0 80 80" xml:space="preserve">
<g>
	<ellipse fill="#F46600" cx="40" cy="40" rx="39.999" ry="39.999"/>
	<path marker-start="none" marker-end="none" fill="#FFFFFF" d="M25.358,67.078c-1.733-1.727-1.733-4.534,0-6.268l8.474-8.472
		c-3.01-0.685-5.948-1.894-8.81-3.608c-2.101-1.264-2.777-3.986-1.524-6.084c1.264-2.101,3.987-2.782,6.083-1.518
		c3.494,2.087,6.88,3.018,10.226,3c3.368-0.018,6.955-0.995,10.8-3.098c2.147-1.167,4.843-0.377,6.016,1.771
		c1.169,2.149,0.38,4.844-1.766,6.018c-2.871,1.566-5.791,2.727-8.748,3.422l8.563,8.568c1.729,1.732,1.729,4.541,0,6.268
		c-1.724,1.736-4.536,1.736-6.266,0l-8.394-8.393l-8.389,8.393C29.89,68.814,27.086,68.814,25.358,67.078z M24.676,24.932
		c0-8.47,6.876-15.337,15.337-15.337c8.469,0,15.34,6.867,15.34,15.337c0,8.47-6.871,15.341-15.34,15.341
		C31.552,40.273,24.676,33.402,24.676,24.932z M46.249,24.932c0-3.439-2.786-6.234-6.236-6.234c-3.44,0-6.234,2.795-6.234,6.234
		c0,3.444,2.794,6.24,6.234,6.24C43.463,31.172,46.249,28.376,46.249,24.932z"/>
</g>
</svg>
