<?xml version="1.0" encoding="utf-8"?>
<!-- Generator: Adobe Illustrator 16.2.0, SVG Export Plug-In . SVG Version: 6.00 Build 0)  -->
<!DOCTYPE svg PUBLIC "-//W3C//DTD SVG 1.1//EN" "http://www.w3.org/Graphics/SVG/1.1/DTD/svg11.dtd">
<svg version="1.1" id="Layer_1" xmlns="http://www.w3.org/2000/svg" xmlns:xlink="http://www.w3.org/1999/xlink" x="0px" y="0px"
	 width="80px" height="80px" viewBox="0 0 80 80" enable-background="new 0 0 80 80" xml:space="preserve">
<g>
	<path fill="#B2B2B2" d="M40-0.001C17.908-0.001-0.001,17.908-0.001,40S17.908,80.001,40,80.001S80.001,62.092,80.001,40
		S62.092-0.001,40-0.001z M62.027,21.174l-8.205,42.525c-0.018,0.085-0.045,0.17-0.08,0.248c-1.126,2.431-3.26,2.664-5.406,1.615
		c-0.063-0.03-0.124-0.066-0.184-0.111L36.96,56.828l-6.298,6.418c-0.156,0.156-0.354,0.261-0.573,0.303
		c-1.448,0.258-2.829-0.221-3.432-1.956l-4.458-14.196L10.25,42.854c-0.133-0.051-0.257-0.129-0.361-0.229
		c-1.878-1.825-1.224-3.53,0.146-4.779c0.094-0.086,0.202-0.154,0.319-0.2L57.59,18.621c1.1-0.479,2.359-0.774,3.346-0.135
		l0.058,0.037l0.104,0.079l0.049,0.042c0.693,0.583,0.892,1.479,0.898,2.317C62.049,21.032,62.042,21.104,62.027,21.174z"/>
	<path fill="#B2B2B2" d="M59.841,20.392l-0.063-0.122l-0.059-0.018c-0.136-0.021-0.507-0.022-1.31,0.327L11.351,39.53l-0.306,0.316
		c-0.203,0.262-0.244,0.488-0.08,0.773l0.288,0.348l12.183,4.625c0.186,0.071,0.345,0.195,0.464,0.35l28.507-19.125l-22.38,23.5
		l-1.414,10.431l0.059,0.185c0.135,0.391,0.292,0.559,0.635,0.567l0.106-0.011l6.693-6.818c0.376-0.384,0.98-0.423,1.405-0.095
		l11.825,9.11l-0.068-0.025c1.051,0.508,1.676,0.521,2.133,0.037l0.369-0.57L59.916,20.9l-0.021-0.285
		C59.877,20.517,59.859,20.446,59.841,20.392z"/>
</g>
</svg>
