<?xml version="1.0" encoding="utf-8"?>
<!-- Generator: Adobe Illustrator 16.2.0, SVG Export Plug-In . SVG Version: 6.00 Build 0)  -->
<!DOCTYPE svg PUBLIC "-//W3C//DTD SVG 1.1//EN" "http://www.w3.org/Graphics/SVG/1.1/DTD/svg11.dtd">
<svg version="1.1" id="Layer_1" xmlns="http://www.w3.org/2000/svg" xmlns:xlink="http://www.w3.org/1999/xlink" x="0px" y="0px"
	 width="80px" height="80px" viewBox="0 0 80 80" enable-background="new 0 0 80 80" xml:space="preserve">
<path fill="#B2B2B2" d="M40,0.001C17.909,0.001,0.001,17.909,0.001,40S17.909,79.999,40,79.999S79.999,62.091,79.999,40
	S62.091,0.001,40,0.001z M67.236,30.058c0,23.469-16.871,39.273-36.942,39.273c-8.467,0-14.755-2.661-20.874-5.733
	c7.067,0.498,13.54-1.117,19.207-5.535c-6.541-0.93-10.223-4.291-12.005-9.269c2.075,0.438,4.022,0.472,5.738-0.336
	c-5.272-1.864-10.593-5.261-10.204-13.138c1.805,0.963,3.682,1.595,5.671,1.671c-4.661-4.355-7.797-9.398-4.003-17.604
	c7.476,8.556,16.668,13.058,27.475,13.737c-1.8-5.872,2.004-16.272,12.869-16.272c4.537,0,6.646,1.765,9.469,4.067
	c2.961-0.64,5.791-1.608,8.398-3.135c-0.928,2.647-2.536,5.183-5.6,7.468c2.703-0.381,5.246-1.112,7.602-2.195
	C72.061,25.681,69.938,28.164,67.236,30.058z"/>
</svg>
