<?xml version="1.0" encoding="utf-8"?>
<!-- Generator: Adobe Illustrator 16.2.0, SVG Export Plug-In . SVG Version: 6.00 Build 0)  -->
<!DOCTYPE svg PUBLIC "-//W3C//DTD SVG 1.1//EN" "http://www.w3.org/Graphics/SVG/1.1/DTD/svg11.dtd">
<svg version="1.1" id="Layer_1" xmlns="http://www.w3.org/2000/svg" xmlns:xlink="http://www.w3.org/1999/xlink" x="0px" y="0px"
	 width="80px" height="80px" viewBox="0 0 80 80" enable-background="new 0 0 80 80" xml:space="preserve">
<g>
	<path marker-start="none" marker-end="none" fill="#00A9F0" d="M80,40c0,22.09-17.908,40-40,40C17.909,80,0,62.09,0,40
		C0,17.909,17.909,0,40,0C62.092,0,80,17.909,80,40L80,40z"/>
	<path marker-start="none" marker-end="none" fill="#FEFEFE" d="M51.234,51.531c-1.434,1.63-3.233,2.671-5.277,3.261
		c-3.838,1.104-7.719,1.144-11.541-0.009c-3.48-1.049-6.045-3.204-7.066-6.814c-0.723-2.563,0.928-4.48,3.483-4.177
		c1.102,0.127,1.827,0.796,2.343,1.716c0.326,0.576,0.596,1.186,0.885,1.777c0.947,1.943,2.473,3.04,4.642,3.279
		c1.776,0.194,3.497,0.069,5.137-0.672c0.639-0.287,1.198-0.685,1.657-1.217c1.226-1.418,1.006-3.43-0.501-4.543
		c-1.459-1.082-3.207-1.367-4.907-1.748c-2.439-0.543-4.88-1.061-7.17-2.079c-2.368-1.057-4.288-2.59-4.91-5.264
		c-0.719-3.108,0.146-5.733,2.628-7.747c2.194-1.78,4.835-2.354,7.563-2.589c0.635-0.055,1.277-0.011,1.91-0.011
		c2.522-0.065,4.979,0.269,7.257,1.428c1.74,0.889,3.186,2.104,4.025,3.923c0.412,0.891,0.607,1.842,0.342,2.792
		c-0.319,1.151-1.104,1.956-2.297,2.196c-1.238,0.251-2.392,0.054-3.172-1.097c-0.373-0.546-0.732-1.107-1.064-1.68
		c-1.068-1.812-2.585-2.821-4.744-2.815c-0.983,0.003-1.963-0.027-2.93,0.204c-0.865,0.211-1.653,0.571-2.313,1.182
		c-1.169,1.088-1.126,2.582,0.124,3.575c0.823,0.655,1.796,1.02,2.805,1.278c2.36,0.6,4.737,1.16,7.098,1.778
		c1.282,0.333,2.51,0.838,3.696,1.436C54.473,41.673,54.079,48.294,51.234,51.531 M62.346,45.572
		c-0.142-0.328-0.205-0.629-0.131-0.99c0.536-2.658,0.557-5.315,0.116-7.994c-1.942-11.79-13.052-20.056-24.858-18.462
		c-0.693,0.094-1.266-0.015-1.885-0.345c-4.99-2.666-11.09-1.748-15.15,2.235c-3.993,3.922-5,10.055-2.44,15.051
		c0.27,0.526,0.354,0.999,0.23,1.583c-0.244,1.198-0.267,2.421-0.322,3.701c0.042,0.713,0.051,1.483,0.135,2.249
		c1.336,12.779,13.038,21.744,25.786,19.752c0.394-0.063,0.716,0.004,1.063,0.176c2.407,1.219,4.993,1.512,7.604,1.098
		C61.016,62.27,65.76,53.509,62.346,45.572L62.346,45.572z"/>
</g>
</svg>
