<?xml version="1.0" encoding="utf-8"?>
<!-- Generator: Adobe Illustrator 16.2.0, SVG Export Plug-In . SVG Version: 6.00 Build 0)  -->
<!DOCTYPE svg PUBLIC "-//W3C//DTD SVG 1.1//EN" "http://www.w3.org/Graphics/SVG/1.1/DTD/svg11.dtd">
<svg version="1.1" id="Layer_1" xmlns="http://www.w3.org/2000/svg" xmlns:xlink="http://www.w3.org/1999/xlink" x="0px" y="0px"
	 width="80px" height="80px" viewBox="0 0 80 80" enable-background="new 0 0 80 80" xml:space="preserve">
<g>
	<ellipse fill="#29B200" cx="40" cy="40" rx="40.001" ry="40.001"/>
	<path marker-start="none" marker-end="none" fill="#FFFFFF" d="M15.318,64.688l4.355-12.926
		c-5.488-9.197-4.274-21.296,3.646-29.214c9.354-9.354,24.537-9.354,33.888,0c9.355,9.354,9.355,24.534,0,33.886
		c-7.732,7.736-19.45,9.074-28.566,4.02L15.318,64.688z M54.639,53.866c7.934-7.933,7.934-20.814,0-28.748s-20.814-7.934-28.749,0
		c-7.112,7.109-7.851,18.192-2.218,26.13l-1.362,4.118c-0.003-0.003-0.008-0.011-0.011-0.013l-1.248,3.699l0.045-0.013l0,0
		l8.043-2.528C37.02,61.674,47.713,60.792,54.639,53.866z M44.954,50.494c-8.238-2.105-14.302-7.93-16.301-14.989
		c-0.584-2.059-0.171-4.576,1.999-6.12c0.505-0.433,1.188-0.688,2.186-0.625c0.522-0.018,0.952,0.042,1.499,0.563l1.999,4.559
		c0.211,0.583,0.221,1.166-0.062,1.749l-1.25,1.562c-0.332,0.339-0.296,0.803-0.124,1.311c1.862,3.111,4.427,5.445,7.933,6.744
		c0.459,0.104,0.916,0.215,1.373-0.248l1.875-2.188c0.335-0.318,0.745-0.424,1.247-0.248l4.813,2.309
		c0.229,0.229,0.447,0.473,0.498,0.876c-0.211,3.385-2.369,4.558-5.119,5.06C46.578,50.871,45.729,50.758,44.954,50.494z"/>
</g>
</svg>
