<?xml version="1.0" encoding="utf-8"?>
<!-- Generator: Adobe Illustrator 16.2.0, SVG Export Plug-In . SVG Version: 6.00 Build 0)  -->
<!DOCTYPE svg PUBLIC "-//W3C//DTD SVG 1.1//EN" "http://www.w3.org/Graphics/SVG/1.1/DTD/svg11.dtd">
<svg version="1.1" id="Layer_1" xmlns="http://www.w3.org/2000/svg" xmlns:xlink="http://www.w3.org/1999/xlink" x="0px" y="0px"
	 width="80px" height="80px" viewBox="0 0 80 80" enable-background="new 0 0 80 80" xml:space="preserve">
<g>
	<path fill="#B2B2B2" d="M48.938,38.894c-1.187-0.598-2.414-1.103-3.695-1.436c-2.361-0.618-4.738-1.178-7.098-1.778
		c-1.009-0.258-1.982-0.623-2.805-1.278c-1.25-0.993-1.293-2.487-0.124-3.575c0.66-0.611,1.448-0.971,2.313-1.182
		c0.967-0.231,1.947-0.201,2.93-0.204c2.159-0.006,3.676,1.003,4.744,2.815c0.332,0.573,0.69,1.134,1.063,1.68
		c0.779,1.151,1.935,1.348,3.172,1.097c1.192-0.24,1.979-1.045,2.297-2.196c0.266-0.95,0.07-1.901-0.342-2.792
		c-0.84-1.819-2.285-3.034-4.024-3.923c-2.278-1.159-4.735-1.493-7.257-1.428c-0.633,0-1.275-0.044-1.91,0.011
		c-2.728,0.235-5.369,0.809-7.563,2.589c-2.482,2.014-3.347,4.639-2.628,7.747c0.622,2.674,2.542,4.207,4.91,5.264
		c2.29,1.017,4.731,1.536,7.17,2.079c1.7,0.382,3.448,0.666,4.907,1.748c1.507,1.113,1.728,3.125,0.501,4.543
		c-0.459,0.532-1.02,0.931-1.657,1.218c-1.64,0.74-3.361,0.865-5.137,0.672c-2.169-0.238-3.695-1.336-4.642-3.278
		c-0.289-0.593-0.559-1.201-0.885-1.777c-0.516-0.92-1.241-1.589-2.343-1.716c-2.555-0.305-4.206,1.614-3.483,4.178
		c1.021,3.609,3.586,5.766,7.066,6.813c3.822,1.151,7.703,1.112,11.541,0.009c2.044-0.59,3.843-1.631,5.276-3.262
		C54.079,48.294,54.473,41.673,48.938,38.894z"/>
	<path fill="#B2B2B2" d="M40,0C17.909,0,0,17.909,0,40c0,22.09,17.909,40,40,40c22.092,0,40-17.91,40-40C80,17.909,62.092,0,40,0z
		 M52.494,63.626c-2.611,0.414-5.197,0.121-7.604-1.099c-0.349-0.172-0.67-0.238-1.063-0.176
		c-12.748,1.992-24.45-6.974-25.786-19.752c-0.084-0.767-0.093-1.535-0.135-2.25c0.055-1.28,0.078-2.503,0.322-3.701
		c0.124-0.584,0.04-1.057-0.23-1.583c-2.56-4.996-1.553-11.129,2.44-15.051c4.06-3.983,10.16-4.901,15.15-2.235
		c0.619,0.33,1.192,0.439,1.885,0.345c11.806-1.594,22.916,6.672,24.858,18.462c0.44,2.679,0.42,5.336-0.116,7.994
		c-0.074,0.36-0.011,0.662,0.131,0.989C65.76,53.509,61.016,62.27,52.494,63.626z"/>
</g>
</svg>
