<?xml version="1.0" encoding="utf-8"?>
<!-- Generator: Adobe Illustrator 16.2.0, SVG Export Plug-In . SVG Version: 6.00 Build 0)  -->
<!DOCTYPE svg PUBLIC "-//W3C//DTD SVG 1.1//EN" "http://www.w3.org/Graphics/SVG/1.1/DTD/svg11.dtd">
<svg version="1.1" id="Layer_1" xmlns="http://www.w3.org/2000/svg" xmlns:xlink="http://www.w3.org/1999/xlink" x="0px" y="0px"
	 width="80px" height="80px" viewBox="0 0 80 80" enable-background="new 0 0 80 80" xml:space="preserve">
<g>
	<ellipse fill="#5B7AA8" cx="40" cy="40" rx="40" ry="40"/>
	<path marker-end="none" marker-start="none" fill="#FFFFFF" d="M19.427,24.994h-8.775c-2.057-0.135-2.145,0.714-1.881,1.741
		c6.938,13.337,12.922,28.201,27.236,30.582h5.155c1.559,0,2.613-0.914,2.301-2.51c0-2.029,0.555-3.203,1.463-4.598
		c0.653-1.098,1.58-1.098,2.785,0c3.053,2.938,5.982,7.146,9.335,7.107h9.194c2.021,0,2.669-1.851,1.324-4.041
		c-2.316-3.248-5.176-6.137-8.082-8.988c-1.359-1.208-0.92-2.566,0-3.969c3.402-4.422,6.97-8.905,8.636-12.677
		c0.879-1.702-0.067-2.786-1.67-2.786l-9.964,0.21c-0.942,0-1.74,0.207-2.156,1.113c-1.784,4.697-4.505,9.085-7.939,13.233
		c-1.129,0.83-2.785,0.21-2.785-1.393V27.01c0-2.298-0.67-2.91-1.742-3.131c-3.693-0.277-12.015-1.207-13.239,1.811
		c3.872,0.095,4.391,5.572,2.93,13.307c-0.544,1.808-1.875,1.44-3.206-0.21c-2.716-3.483-4.936-8.149-6.965-12.332
		C20.821,25.686,20.267,24.994,19.427,24.994z"/>
</g>
</svg>
