<?xml version="1.0" encoding="utf-8"?>
<!-- Generator: Adobe Illustrator 16.2.0, SVG Export Plug-In . SVG Version: 6.00 Build 0)  -->
<!DOCTYPE svg PUBLIC "-//W3C//DTD SVG 1.1//EN" "http://www.w3.org/Graphics/SVG/1.1/DTD/svg11.dtd">
<svg version="1.1" id="Layer_1" xmlns="http://www.w3.org/2000/svg" xmlns:xlink="http://www.w3.org/1999/xlink" x="0px" y="0px"
	 width="80px" height="80px" viewBox="0 0 80 80" enable-background="new 0 0 80 80" xml:space="preserve">
<path fill="#B2B2B2" d="M40,0C17.909,0,0,17.909,0,40c0,22.092,17.909,40,40,40c22.092,0,40-17.908,40-40C80,17.909,62.092,0,40,0z
	 M59.482,44.287c2.906,2.852,5.766,5.74,8.082,8.988c1.345,2.188,0.697,4.041-1.324,4.041h-9.194
	c-3.353,0.039-6.282-4.17-9.335-7.107c-1.205-1.098-2.132-1.098-2.785,0c-0.908,1.395-1.463,2.568-1.463,4.598
	c0.313,1.596-0.742,2.51-2.301,2.51h-5.155C21.693,54.936,15.709,40.072,8.771,26.735c-0.264-1.027-0.176-1.876,1.881-1.741h8.775
	c0.84,0,1.394,0.692,1.955,1.461c2.029,4.183,4.249,8.849,6.965,12.332c1.331,1.65,2.662,2.018,3.206,0.21
	c1.461-7.735,0.942-13.212-2.93-13.307c1.224-3.018,9.546-2.088,13.238-1.811c1.072,0.221,1.742,0.833,1.742,3.131v11.008
	c0,1.603,1.655,2.223,2.785,1.393c3.434-4.148,6.154-8.536,7.938-13.233c0.416-0.906,1.214-1.113,2.155-1.113l9.963-0.21
	c1.604,0,2.551,1.084,1.672,2.786c-1.666,3.772-5.234,8.255-8.637,12.677C58.563,41.721,58.123,43.079,59.482,44.287z"/>
</svg>
