<?xml version="1.0" encoding="utf-8"?>
<!-- Generator: Adobe Illustrator 16.2.0, SVG Export Plug-In . SVG Version: 6.00 Build 0)  -->
<!DOCTYPE svg PUBLIC "-//W3C//DTD SVG 1.1//EN" "http://www.w3.org/Graphics/SVG/1.1/DTD/svg11.dtd">
<svg version="1.1" id="Layer_1" xmlns="http://www.w3.org/2000/svg" xmlns:xlink="http://www.w3.org/1999/xlink" x="0px" y="0px"
	 width="80px" height="80px" viewBox="0 0 80 80" enable-background="new 0 0 80 80" xml:space="preserve">
<g>
	<path fill="#3B5998" d="M42.444,79.906l-15.57-2.088c-5.611-1.957-10.771-5.113-15.162-9.504
		c-15.609-15.611-15.609-40.963,0-56.575c15.61-15.61,40.963-15.61,56.576,0c15.609,15.612,15.609,40.963,0,56.575
		C61.456,75.145,52.765,78.986,42.444,79.906z M27.136,77.9L27.136,77.9"/>
	<path marker-end="none" marker-start="none" fill="#FFFFFF" d="M26.879,77.768l0.005-23.689h-6.917V41.822h7.288
		c0-3.534,0.09-6.374,0.09-9.275c0-8.471,5.244-13.765,13.985-13.765c3.175,0,7.019-0.014,11.521-0.014l0.147,12.166h-7.136
		c-2.787,0-3.95,1.308-3.95,3.54v7.351h10.917l-1.146,12.252H42.45v25.817C37.197,80.213,31.899,79.506,26.879,77.768z"/>
</g>
</svg>
