<?xml version="1.0" encoding="utf-8"?>
<!-- Generator: Adobe Illustrator 16.2.0, SVG Export Plug-In . SVG Version: 6.00 Build 0)  -->
<!DOCTYPE svg PUBLIC "-//W3C//DTD SVG 1.1//EN" "http://www.w3.org/Graphics/SVG/1.1/DTD/svg11.dtd">
<svg version="1.1" id="Layer_1" xmlns="http://www.w3.org/2000/svg" xmlns:xlink="http://www.w3.org/1999/xlink" x="0px" y="0px"
	 width="80px" height="80px" viewBox="0 0 80 80" enable-background="new 0 0 80 80" xml:space="preserve">
<g>
	<path fill="#B2B2B2" d="M40.013,31.172c3.45,0,6.236-2.796,6.236-6.24c0-3.439-2.786-6.234-6.236-6.234
		c-3.44,0-6.234,2.795-6.234,6.234C33.779,28.376,36.573,31.172,40.013,31.172z"/>
	<path fill="#B2B2B2" d="M40,0.001C17.909,0.001,0.001,17.909,0.001,40S17.909,79.999,40,79.999S79.999,62.091,79.999,40
		S62.091,0.001,40,0.001z M40.013,9.595c8.469,0,15.34,6.867,15.34,15.337c0,8.47-6.871,15.341-15.34,15.341
		c-8.461,0-15.337-6.871-15.337-15.341C24.676,16.462,31.552,9.595,40.013,9.595z M54.672,60.809c1.729,1.732,1.729,4.541,0,6.27
		c-1.725,1.734-4.535,1.734-6.266,0l-8.394-8.395l-8.389,8.395c-1.733,1.736-4.537,1.736-6.265,0.001
		c-1.733-1.728-1.733-4.534,0-6.269l8.474-8.473c-3.01-0.686-5.948-1.895-8.81-3.607c-2.101-1.265-2.777-3.985-1.524-6.084
		c1.264-2.102,3.987-2.783,6.083-1.519c3.494,2.087,6.88,3.019,10.226,3c3.368-0.019,6.955-0.995,10.8-3.099
		c2.146-1.167,4.843-0.377,6.016,1.771c1.169,2.149,0.38,4.845-1.766,6.019c-2.871,1.565-5.791,2.728-8.748,3.423L54.672,60.809z"/>
</g>
</svg>
