<?xml version="1.0" encoding="utf-8"?>
<!-- Generator: Adobe Illustrator 16.2.0, SVG Export Plug-In . SVG Version: 6.00 Build 0)  -->
<!DOCTYPE svg PUBLIC "-//W3C//DTD SVG 1.1//EN" "http://www.w3.org/Graphics/SVG/1.1/DTD/svg11.dtd">
<svg version="1.1" id="Layer_1" xmlns="http://www.w3.org/2000/svg" xmlns:xlink="http://www.w3.org/1999/xlink" x="0px" y="0px"
	 width="80px" height="80px" viewBox="0 0 80 80" enable-background="new 0 0 80 80" xml:space="preserve">
<g>
	<ellipse fill="#239ED9" cx="40" cy="40" rx="40.001" ry="40.001"/>
	<path marker-start="none" marker-end="none" fill="#FFFFFF" d="M48.336,65.563c-0.063-0.031-0.124-0.067-0.184-0.112L36.96,56.828
		l-6.298,6.418c-0.156,0.156-0.354,0.261-0.573,0.303c-1.448,0.258-2.829-0.221-3.432-1.956l-4.458-14.196L10.25,42.854
		c-0.133-0.051-0.257-0.129-0.361-0.23c-1.878-1.825-1.224-3.53,0.146-4.779c0.094-0.086,0.202-0.154,0.319-0.2L57.59,18.621
		c1.1-0.479,2.359-0.774,3.346-0.135l0.056,0.037l0.106,0.079l0.049,0.042c0.693,0.583,0.89,1.479,0.898,2.317
		c0.004,0.071-0.003,0.143-0.018,0.213l-8.205,42.525c-0.018,0.085-0.045,0.17-0.08,0.248
		C52.616,66.378,50.482,66.611,48.336,65.563z M51.4,63.697l0.369-0.571l8.147-42.227l-0.021-0.285
		c-0.018-0.097-0.035-0.168-0.054-0.222l-0.063-0.122l-0.059-0.018c-0.136-0.021-0.507-0.022-1.31,0.327L11.351,39.53l-0.306,0.316
		c-0.203,0.262-0.244,0.488-0.08,0.773l0.288,0.348l12.183,4.625c0.186,0.071,0.345,0.195,0.464,0.35l28.507-19.125l-22.38,23.499
		l-1.414,10.43l0.059,0.184c0.135,0.391,0.292,0.559,0.635,0.568l0.106-0.01l6.693-6.819c0.376-0.384,0.98-0.423,1.405-0.095
		l11.825,9.111l-0.068-0.026C50.318,64.167,50.943,64.182,51.4,63.697z"/>
</g>
</svg>
