<?xml version="1.0" encoding="utf-8"?>
<!-- Generator: Adobe Illustrator 16.2.0, SVG Export Plug-In . SVG Version: 6.00 Build 0)  -->
<!DOCTYPE svg PUBLIC "-//W3C//DTD SVG 1.1//EN" "http://www.w3.org/Graphics/SVG/1.1/DTD/svg11.dtd">
<svg version="1.1" id="Layer_1" xmlns="http://www.w3.org/2000/svg" xmlns:xlink="http://www.w3.org/1999/xlink" x="0px" y="0px"
	 width="80px" height="80px" viewBox="0 0 80 80" enable-background="new 0 0 80 80" xml:space="preserve">
<path fill="#B2B2B2" d="M68.288,11.77c-15.613-15.61-40.967-15.61-56.576,0c-15.608,15.612-15.608,40.964,0,56.576
	c4.392,4.392,9.551,7.547,15.162,9.504l0.282,0.039c-0.092-0.031-0.187-0.058-0.278-0.09l0.006-23.688h-6.917V41.854h7.289
	c0-3.534,0.09-6.375,0.09-9.275c0-8.471,5.244-13.765,13.984-13.765c3.176,0,7.021-0.014,11.521-0.014l0.146,12.166H45.86
	c-2.785,0-3.949,1.308-3.949,3.54v7.351h10.918l-1.146,12.252H42.45v25.817c-0.024,0.002-0.049,0-0.074,0.002l0.066,0.01
	c10.322-0.92,19.015-4.762,25.847-11.592C83.896,52.733,83.896,27.382,68.288,11.77z"/>
</svg>
