<?xml version="1.0" encoding="utf-8"?>
<!-- Generator: Adobe Illustrator 16.2.0, SVG Export Plug-In . SVG Version: 6.00 Build 0)  -->
<!DOCTYPE svg PUBLIC "-//W3C//DTD SVG 1.1//EN" "http://www.w3.org/Graphics/SVG/1.1/DTD/svg11.dtd">
<svg version="1.1" id="Layer_1" xmlns="http://www.w3.org/2000/svg" xmlns:xlink="http://www.w3.org/1999/xlink" x="0px" y="0px"
	 width="80px" height="80px" viewBox="0 0 80 80" enable-background="new 0 0 80 80" xml:space="preserve">
<g>
	<path fill="#B2B2B2" d="M50.661,40.001c0,5.831-4.832,10.665-10.663,10.665c-5.832,0-10.665-4.834-10.665-10.665
		c0-1.333,0.333-2.834,0.835-4h-5.833V52c0,1.996,1.666,3.666,3.666,3.666h23.997c1.997,0,3.667-1.67,3.667-3.666V36.001h-5.833
		C50.332,37.168,50.661,38.668,50.661,40.001z"/>
	<polygon fill="#B2B2B2" points="54.998,25.835 54.998,25.002 54.163,25.002 48.329,25.002 48.329,31.668 54.998,31.668 	"/>
	<path fill="#B2B2B2" d="M40,46.832c3.667,0,6.833-2.998,6.833-6.831c0-1.5-0.5-2.834-1.335-4c-1.166-1.666-3.332-2.833-5.499-2.833
		c-2.166,0-4.331,1.167-5.499,2.833c-0.832,1.166-1.333,2.5-1.331,4C33.169,43.834,36.335,46.832,40,46.832z"/>
	<path fill="#B2B2B2" d="M39.999,0.006c-22.087,0-39.992,17.91-39.992,39.995c0,22.089,17.906,39.993,39.992,39.993
		c22.088,0,39.994-17.907,39.994-39.994S62.086,0.006,39.999,0.006z M59.495,36.001V52c0,4.166-3.332,7.496-7.497,7.496H28.001
		c-4.167,0-7.5-3.33-7.5-7.496V36.001v-7.999c0-4.165,3.333-7.499,7.5-7.499h23.997c4.165,0,7.497,3.334,7.497,7.498V36.001z"/>
</g>
</svg>
