<?xml version="1.0" encoding="utf-8"?>
<!-- Generator: Adobe Illustrator 16.2.0, SVG Export Plug-In . SVG Version: 6.00 Build 0)  -->
<!DOCTYPE svg PUBLIC "-//W3C//DTD SVG 1.1//EN" "http://www.w3.org/Graphics/SVG/1.1/DTD/svg11.dtd">
<svg version="1.1" id="Layer_1" xmlns="http://www.w3.org/2000/svg" xmlns:xlink="http://www.w3.org/1999/xlink" x="0px" y="0px"
	 width="80px" height="80px" viewBox="0 0 80 80" enable-background="new 0 0 80 80" xml:space="preserve">
<g>
	<path fill="#B2B2B2" d="M25.89,25.118c-7.112,7.109-7.851,18.192-2.218,26.13l-1.362,4.118c-0.003-0.003-0.008-0.011-0.011-0.013
		l-1.248,3.699l0.045-0.015l8.043-2.526c7.881,5.161,18.574,4.279,25.5-2.646c7.934-7.934,7.934-20.814,0-28.748
		C46.705,17.183,33.825,17.184,25.89,25.118z M47.52,50.809c-0.94,0.063-1.791-0.051-2.564-0.313
		c-8.238-2.104-14.302-7.931-16.301-14.989c-0.584-2.059-0.171-4.576,1.999-6.12c0.505-0.433,1.188-0.688,2.186-0.625
		c0.522-0.018,0.952,0.042,1.499,0.563l1.999,4.559c0.211,0.583,0.221,1.166-0.062,1.749l-1.25,1.562
		c-0.332,0.339-0.296,0.803-0.124,1.311c1.862,3.111,4.427,5.445,7.933,6.744c0.459,0.104,0.916,0.215,1.373-0.248l1.875-2.188
		c0.335-0.317,0.745-0.424,1.247-0.248l4.813,2.31c0.229,0.229,0.446,0.474,0.498,0.876C52.428,49.134,50.27,50.307,47.52,50.809z"
		/>
	<path fill="#B2B2B2" d="M40-0.001C17.908-0.001-0.001,17.908-0.001,40S17.908,80.001,40,80.001S80.001,62.092,80.001,40
		S62.092-0.001,40-0.001z M57.207,56.434c-7.732,7.736-19.45,9.074-28.566,4.021l-13.323,4.232l4.355-12.926
		c-5.488-9.197-4.274-21.296,3.646-29.214c9.354-9.354,24.537-9.354,33.888,0C66.563,31.902,66.563,47.082,57.207,56.434z"/>
</g>
</svg>
