<?xml version="1.0" encoding="utf-8"?>
<!-- Generator: Adobe Illustrator 16.2.0, SVG Export Plug-In . SVG Version: 6.00 Build 0)  -->
<!DOCTYPE svg PUBLIC "-//W3C//DTD SVG 1.1//EN" "http://www.w3.org/Graphics/SVG/1.1/DTD/svg11.dtd">
<svg version="1.1" id="Layer_1" xmlns="http://www.w3.org/2000/svg" xmlns:xlink="http://www.w3.org/1999/xlink" x="0px" y="0px"
	 width="80px" height="80px" viewBox="0 0 80 80" enable-background="new 0 0 80 80" xml:space="preserve">
<g id="Document" transform="scale(1 -1)">
	<g id="Spread" transform="translate(0 -1683.78)">
		<g id="Layer_1_1_">
			<path marker-start="none" marker-end="none" fill="#B2B2B2" d="M0,1643.78c0,22.081,17.923,40,40.001,40
				c22.076,0,39.999-17.919,39.999-40c0-22.079-17.923-40-39.999-40C17.924,1603.78,0,1621.701,0,1643.78z M63.096,1629.927v27.72
				c0,2.56-2.074,4.613-4.617,4.613h-36.96c-2.563,0-4.616-2.054-4.616-4.613v-27.72c0-2.561,2.068-4.627,4.616-4.627h36.96
				C61.029,1625.301,63.096,1627.367,63.096,1629.927z M39.999,1641.474L21.52,1653.02v4.627l18.479-11.56l18.479,11.56v-4.627
				L39.999,1641.474z"/>
		</g>
	</g>
</g>
</svg>
