<?xml version="1.0" encoding="utf-8"?>
<!-- Generator: Adobe Illustrator 16.2.0, SVG Export Plug-In . SVG Version: 6.00 Build 0)  -->
<!DOCTYPE svg PUBLIC "-//W3C//DTD SVG 1.1//EN" "http://www.w3.org/Graphics/SVG/1.1/DTD/svg11.dtd">
<svg version="1.1" id="Layer_1" xmlns="http://www.w3.org/2000/svg" xmlns:xlink="http://www.w3.org/1999/xlink" x="0px" y="0px"
	 width="14.2px" height="53.516px" viewBox="0 0 14.2 53.516" enable-background="new 0 0 14.2 53.516" xml:space="preserve">
<path fill-rule="evenodd" clip-rule="evenodd" fill="#DD0000" d="M0.026,47.005c-0.279-3.248,1.684-6.166,4.601-7.252L6.59,0h1.021
	L9.56,39.753c2.506,0.928,4.376,3.235,4.615,6.072c0.332,3.899-2.572,7.346-6.484,7.665C3.792,53.821,0.345,50.917,0.026,47.005z
	 M7.398,49.962c1.962-0.16,3.421-1.883,3.249-3.845c-0.159-1.962-1.883-3.421-3.845-3.249c-1.962,0.159-3.421,1.883-3.249,3.845
	C3.712,48.676,5.436,50.134,7.398,49.962z M5.582,46.541c-0.08-0.835,0.544-1.577,1.393-1.644c0.835-0.08,1.578,0.543,1.644,1.393
	c0.08,0.835-0.544,1.577-1.392,1.644C6.391,48.014,5.648,47.39,5.582,46.541z"/>
</svg>
