<?xml version="1.0" encoding="utf-8"?>
<!-- Generator: Adobe Illustrator 16.2.0, SVG Export Plug-In . SVG Version: 6.00 Build 0)  -->
<!DOCTYPE svg PUBLIC "-//W3C//DTD SVG 1.1//EN" "http://www.w3.org/Graphics/SVG/1.1/DTD/svg11.dtd">
<svg version="1.1" id="Layer_1" xmlns="http://www.w3.org/2000/svg" xmlns:xlink="http://www.w3.org/1999/xlink" x="0px" y="0px"
	 width="30px" height="197.322px" viewBox="0 0 30 197.322" enable-background="new 0 0 30 197.322" xml:space="preserve">
<path fill-rule="evenodd" clip-rule="evenodd" fill="#DD0000" d="M0.053,183.581c-0.572-6.845,3.542-12.996,9.667-15.299L13.929,0
	h2.144l4.207,168.282c5.247,1.983,9.175,6.831,9.667,12.782c0.692,8.256-5.433,15.513-13.688,16.205
	C8.003,197.962,0.746,191.823,0.053,183.581z M15.633,189.813c4.141-0.347,7.217-3.982,6.871-8.123
	c-0.346-4.141-3.995-7.217-8.136-6.871c-4.127,0.346-7.203,3.995-6.857,8.135C7.856,187.083,11.492,190.159,15.633,189.813z
	 M11.784,182.596c-0.146-1.785,1.171-3.342,2.943-3.489c1.785-0.147,3.342,1.172,3.489,2.943c0.146,1.771-1.172,3.342-2.943,3.489
	C13.502,185.685,11.931,184.367,11.784,182.596z"/>
</svg>
