<?xml version="1.0" encoding="utf-8"?>
<!-- Generator: Adobe Illustrator 16.2.0, SVG Export Plug-In . SVG Version: 6.00 Build 0)  -->
<!DOCTYPE svg PUBLIC "-//W3C//DTD SVG 1.1//EN" "http://www.w3.org/Graphics/SVG/1.1/DTD/svg11.dtd">
<svg version="1.1" id="Layer_1" xmlns="http://www.w3.org/2000/svg" xmlns:xlink="http://www.w3.org/1999/xlink" x="0px" y="0px"
	 width="70px" height="78.749px" viewBox="0 0 70 78.749" enable-background="new 0 0 70 78.749" xml:space="preserve">
<path fill-rule="evenodd" clip-rule="evenodd" fill="#FFFFFF" d="M20.106,78.749l-0.625-8.014c-1.184,2.693-4.803,4.844-7.157,2.994
	L1.371,62.775c-2.014-2.312-1.633-5.862,0-8.801l11.238-17.43c2.313-2.64,5.333-4.612,10.231-4.612H24.8l7.782,18.49l-2.857,7.809
	c-0.204,0.559,0.082,1.172,0.626,1.375l5.184,1.891c0.558,0.205,1.17-0.082,1.375-0.639l3.156-8.598
	c0.204-0.559-0.082-1.172-0.639-1.375l-1.905-0.709l7.688-18.244h1.959c4.897,0,7.905,1.973,10.217,4.612l11.239,17.43
	c1.634,2.938,2.026,6.489,0,8.801L57.685,73.729c-2.354,1.85-5.987-0.301-7.156-2.994l-0.627,8.014H20.106z M19.181,66.965
	l-1.523-19.619l-7.497,10.519l8.979,9.048C19.153,66.926,19.167,66.953,19.181,66.965z M50.869,66.913l8.979-9.048l-7.496-10.519
	l-1.539,19.619C50.841,66.953,50.856,66.926,50.869,66.913z M35.004,48.938l-7.17-17.006h14.326L35.004,48.938z M22.637,12.354
	C22.637,5.537,28.174,0,35.004,0c6.816,0,12.354,5.537,12.354,12.354c0,6.816-5.538,12.354-12.354,12.354
	C28.174,24.708,22.637,19.17,22.637,12.354z"/>
</svg>
