<?xml version="1.0" encoding="utf-8"?>
<!-- Generator: Adobe Illustrator 16.2.0, SVG Export Plug-In . SVG Version: 6.00 Build 0)  -->
<!DOCTYPE svg PUBLIC "-//W3C//DTD SVG 1.1//EN" "http://www.w3.org/Graphics/SVG/1.1/DTD/svg11.dtd">
<svg version="1.1" id="Layer_1" xmlns="http://www.w3.org/2000/svg" xmlns:xlink="http://www.w3.org/1999/xlink" x="0px" y="0px"
	 width="1267.5px" height="382.933px" viewBox="0 0 1267.5 382.933" enable-background="new 0 0 1267.5 382.933"
	 xml:space="preserve">
<path fill-rule="evenodd" clip-rule="evenodd" fill="#CCCCCC" d="M679.606,380.349L666.599,205.26l1.001-0.067l13.006,175.088
	L679.606,380.349z M474.476,333.484l-0.934-0.373l90.046-224.113l0.934,0.374L474.476,333.484z M594.563,316.343l-0.987-0.121
	L620.59,85.106l0.987,0.121L594.563,316.343z M1109.024,299.681L815.876,82.571l0.6-0.813l293.148,217.11L1109.024,299.681z
	 M708.635,241.358L673.617,97.286l0.974-0.227l35.018,144.073L708.635,241.358z M4.999,215.679l-0.454-0.894L368.73,27.691
	l0.453,0.894L4.999,215.679z M1222.187,164.666L1059.105,93.63l0.4-0.92l163.083,71.036L1222.187,164.666z M943.019,110.626
	L734.914,2.571l0.454-0.894l208.105,108.055L943.019,110.626z M104.956,56.638l-0.267-0.974L274.775,8.641l0.267,0.974
	L104.956,56.638z"/>
</svg>
