<?xml version="1.0" encoding="utf-8"?>
<!-- Generator: Adobe Illustrator 16.2.0, SVG Export Plug-In . SVG Version: 6.00 Build 0)  -->
<!DOCTYPE svg PUBLIC "-//W3C//DTD SVG 1.1//EN" "http://www.w3.org/Graphics/SVG/1.1/DTD/svg11.dtd">
<svg version="1.1" id="Layer_1" xmlns="http://www.w3.org/2000/svg" xmlns:xlink="http://www.w3.org/1999/xlink" x="0px" y="0px"
	 width="45.442px" height="50px" viewBox="0 0 45.442 50" enable-background="new 0 0 45.442 50" xml:space="preserve">
<path fill="#FFFFFF" d="M29.537,23.32V50h-4.544v-11.36h-4.544V50h-4.544V23.32c-4.708-2.476-7.959-7.401-7.959-13.088V9.102h4.544
	v1.129c0,5.687,4.544,10.231,10.231,10.231c5.687,0,10.231-4.544,10.231-10.231V9.102h4.545v1.129
	C37.497,15.918,34.244,20.844,29.537,23.32 M45.442,0v11.374h-4.544V6.816H4.544v4.558H0V0h4.544v4.544h36.354V0H45.442
	 M22.721,9.102c-2.517,0-4.544,2.014-4.544,4.544c0,2.517,2.027,4.544,4.544,4.544c2.517,0,4.544-2.027,4.544-4.544
	C27.265,11.116,25.238,9.102,22.721,9.102L22.721,9.102z"/>
</svg>
