<?xml version="1.0" encoding="utf-8"?>
<!-- Generator: Adobe Illustrator 16.2.0, SVG Export Plug-In . SVG Version: 6.00 Build 0)  -->
<!DOCTYPE svg PUBLIC "-//W3C//DTD SVG 1.1//EN" "http://www.w3.org/Graphics/SVG/1.1/DTD/svg11.dtd">
<svg version="1.1" id="Layer_1" xmlns="http://www.w3.org/2000/svg" xmlns:xlink="http://www.w3.org/1999/xlink" x="0px" y="0px"
	 width="1600.5px" height="575.878px" viewBox="0 0 1600.5 575.878" enable-background="new 0 0 1600.5 575.878"
	 xml:space="preserve">
<g>
	<path fill-rule="evenodd" clip-rule="evenodd" fill="#CCCCCC" d="M266.896,17.604c0-2.174,1.761-3.935,3.935-3.935
		c2.188,0,3.948,1.761,3.948,3.935s-1.761,3.948-3.948,3.948C268.657,21.553,266.896,19.779,266.896,17.604z"/>
	<path fill-rule="evenodd" clip-rule="evenodd" fill="#CCCCCC" d="M334.925,67.626c0-2.174,1.761-3.935,3.935-3.935
		c2.188,0,3.948,1.761,3.948,3.935c0,2.174-1.761,3.948-3.948,3.948C336.686,71.574,334.925,69.8,334.925,67.626z"/>
	<path fill-rule="evenodd" clip-rule="evenodd" fill="#CCCCCC" d="M120.834,178.673c0-2.174,1.761-3.935,3.935-3.935
		c2.188,0,3.948,1.761,3.948,3.935c0,2.174-1.761,3.949-3.948,3.949C122.595,182.621,120.834,180.847,120.834,178.673z"/>
	<path fill-rule="evenodd" clip-rule="evenodd" fill="#CCCCCC" d="M143.844,40.614c0-2.174,1.761-3.935,3.935-3.935
		c2.188,0,3.948,1.761,3.948,3.935s-1.761,3.948-3.948,3.948C145.605,44.563,143.844,42.788,143.844,40.614z"/>
	<path fill-rule="evenodd" clip-rule="evenodd" fill="#CCCCCC" d="M62.81,319.733c0-2.174,1.761-3.935,3.935-3.935
		c2.188,0,3.948,1.761,3.948,3.935c0,2.174-1.761,3.948-3.948,3.948C64.571,323.681,62.81,321.907,62.81,319.733z"/>
	<path fill-rule="evenodd" clip-rule="evenodd" fill="#CCCCCC" d="M327.922,358.749c0-2.174,1.761-3.935,3.935-3.935
		c2.188,0,3.948,1.761,3.948,3.935c0,2.174-1.761,3.948-3.948,3.948C329.683,362.698,327.922,360.924,327.922,358.749z"/>
	<path fill-rule="evenodd" clip-rule="evenodd" fill="#CCCCCC" d="M302.912,496.808c0-2.174,1.761-3.935,3.935-3.935
		c2.187,0,3.948,1.761,3.948,3.935c0,2.174-1.761,3.948-3.948,3.948C304.673,500.756,302.912,498.982,302.912,496.808z"/>
	<path fill-rule="evenodd" clip-rule="evenodd" fill="#CCCCCC" d="M562.022,534.824c0-2.174,1.761-3.935,3.935-3.935
		c2.188,0,3.948,1.761,3.948,3.935c0,2.174-1.76,3.948-3.948,3.948C563.783,538.772,562.022,536.998,562.022,534.824z"/>
	<path fill-rule="evenodd" clip-rule="evenodd" fill="#CCCCCC" d="M669.067,492.806c0-2.174,1.76-3.936,3.935-3.936
		c2.188,0,3.948,1.761,3.948,3.936c0,2.174-1.76,3.948-3.948,3.948C670.828,496.755,669.067,494.98,669.067,492.806z"/>
	<path fill-rule="evenodd" clip-rule="evenodd" fill="#CCCCCC" d="M631.051,382.76c0-2.174,1.761-3.935,3.935-3.935
		c2.188,0,3.948,1.761,3.948,3.935s-1.76,3.948-3.948,3.948C632.813,386.708,631.051,384.934,631.051,382.76z"/>
	<path fill-rule="evenodd" clip-rule="evenodd" fill="#CCCCCC" d="M812.128,368.754c0-2.174,1.761-3.936,3.936-3.936
		c2.188,0,3.948,1.761,3.948,3.936c0,2.174-1.761,3.948-3.948,3.948C813.889,372.702,812.128,370.927,812.128,368.754z"/>
	<path fill-rule="evenodd" clip-rule="evenodd" fill="#CCCCCC" d="M905.167,301.725c0-2.174,1.761-3.936,3.936-3.936
		c2.188,0,3.948,1.761,3.948,3.936c0,2.174-1.761,3.948-3.948,3.948C906.928,305.674,905.167,303.899,905.167,301.725z"/>
	<path fill-rule="evenodd" clip-rule="evenodd" fill="#CCCCCC" d="M756.104,210.686c0-2.174,1.76-3.935,3.935-3.935
		c2.188,0,3.948,1.761,3.948,3.935c0,2.174-1.76,3.948-3.948,3.948C757.865,214.635,756.104,212.861,756.104,210.686z"/>
	<path fill-rule="evenodd" clip-rule="evenodd" fill="#CCCCCC" d="M937.181,158.664c0-2.174,1.761-3.935,3.936-3.935
		c2.188,0,3.948,1.761,3.948,3.935s-1.761,3.948-3.948,3.948C938.942,162.613,937.181,160.839,937.181,158.664z"/>
	<path fill-rule="evenodd" clip-rule="evenodd" fill="#CCCCCC" d="M961.191,107.643c0-2.174,1.761-3.936,3.935-3.936
		c2.188,0,3.949,1.761,3.949,3.936c0,2.174-1.761,3.948-3.949,3.948C962.952,111.591,961.191,109.817,961.191,107.643z"/>
	<path fill-rule="evenodd" clip-rule="evenodd" fill="#CCCCCC" d="M1040.225,37.613c0-2.174,1.76-3.935,3.935-3.935
		c2.188,0,3.948,1.761,3.948,3.935c0,2.174-1.76,3.948-3.948,3.948C1041.985,41.561,1040.225,39.787,1040.225,37.613z"/>
	<path fill-rule="evenodd" clip-rule="evenodd" fill="#CCCCCC" d="M1190.289,5.599c0-2.174,1.761-3.935,3.936-3.935
		c2.188,0,3.948,1.761,3.948,3.935s-1.761,3.948-3.948,3.948C1192.049,9.548,1190.289,7.773,1190.289,5.599z"/>
	<path fill-rule="evenodd" clip-rule="evenodd" fill="#CCCCCC" d="M1071.238,184.676c0-2.174,1.76-3.936,3.935-3.936
		c2.188,0,3.948,1.761,3.948,3.936c0,2.174-1.76,3.948-3.948,3.948C1072.999,188.624,1071.238,186.849,1071.238,184.676z"/>
	<path fill-rule="evenodd" clip-rule="evenodd" fill="#CCCCCC" d="M1014.214,349.745c0-2.174,1.761-3.935,3.936-3.935
		c2.188,0,3.948,1.761,3.948,3.935c0,2.174-1.761,3.948-3.948,3.948C1015.975,353.694,1014.214,351.92,1014.214,349.745z"/>
	<path fill-rule="evenodd" clip-rule="evenodd" fill="#CCCCCC" d="M1099.25,454.79c0-2.174,1.761-3.936,3.936-3.936
		c2.188,0,3.948,1.761,3.948,3.936c0,2.174-1.761,3.948-3.948,3.948C1101.011,458.739,1099.25,456.964,1099.25,454.79z"/>
	<path fill-rule="evenodd" clip-rule="evenodd" fill="#CCCCCC" d="M1000.208,513.815c0-2.174,1.761-3.935,3.935-3.935
		c2.188,0,3.949,1.761,3.949,3.935s-1.761,3.948-3.949,3.948C1001.969,517.763,1000.208,515.99,1000.208,513.815z"/>
	<path fill-rule="evenodd" clip-rule="evenodd" fill="#CCCCCC" d="M950.187,569.839c0-2.174,1.761-3.936,3.936-3.936
		c2.188,0,3.948,1.761,3.948,3.936c0,2.174-1.761,3.948-3.948,3.948C951.947,573.787,950.187,572.013,950.187,569.839z"/>
	<path fill-rule="evenodd" clip-rule="evenodd" fill="#CCCCCC" d="M785.117,568.839c0-2.174,1.76-3.936,3.935-3.936
		c2.188,0,3.948,1.761,3.948,3.936c0,2.174-1.76,3.948-3.948,3.948C786.877,572.787,785.117,571.012,785.117,568.839z"/>
	<path fill-rule="evenodd" clip-rule="evenodd" fill="#CCCCCC" d="M766.108,492.806c0-2.174,1.761-3.936,3.936-3.936
		c2.188,0,3.948,1.761,3.948,3.936c0,2.174-1.761,3.948-3.948,3.948C767.869,496.755,766.108,494.98,766.108,492.806z"/>
	<path fill-rule="evenodd" clip-rule="evenodd" fill="#CCCCCC" d="M1188.288,382.76c0-2.174,1.76-3.935,3.935-3.935
		c2.188,0,3.948,1.761,3.948,3.935s-1.76,3.948-3.948,3.948C1190.048,386.708,1188.288,384.934,1188.288,382.76z"/>
	<path fill-rule="evenodd" clip-rule="evenodd" fill="#CCCCCC" d="M1334.35,342.742c0-2.174,1.76-3.935,3.935-3.935
		c2.188,0,3.948,1.761,3.948,3.935c0,2.174-1.76,3.948-3.948,3.948C1336.11,346.691,1334.35,344.917,1334.35,342.742z"/>
	<path fill-rule="evenodd" clip-rule="evenodd" fill="#CCCCCC" d="M1241.311,220.691c0-2.174,1.76-3.935,3.935-3.935
		c2.188,0,3.948,1.761,3.948,3.935s-1.76,3.948-3.948,3.948C1243.071,224.639,1241.311,222.865,1241.311,220.691z"/>
	<path fill-rule="evenodd" clip-rule="evenodd" fill="#CCCCCC" d="M1384.371,191.678c0-2.174,1.761-3.936,3.936-3.936
		c2.188,0,3.948,1.761,3.948,3.936c0,2.174-1.761,3.948-3.948,3.948C1386.132,195.627,1384.371,193.852,1384.371,191.678z"/>
	<path fill-rule="evenodd" clip-rule="evenodd" fill="#CCCCCC" d="M1465.406,154.663c0-2.174,1.76-3.936,3.935-3.936
		c2.188,0,3.948,1.761,3.948,3.936c0,2.174-1.76,3.948-3.948,3.948C1467.166,158.611,1465.406,156.837,1465.406,154.663z"/>
	<path fill-rule="evenodd" clip-rule="evenodd" fill="#CCCCCC" d="M1473.409,101.64c0-2.174,1.76-3.935,3.935-3.935
		c2.188,0,3.948,1.761,3.948,3.935c0,2.174-1.76,3.949-3.948,3.949C1475.169,105.589,1473.409,103.814,1473.409,101.64z"/>
	<path fill-rule="evenodd" clip-rule="evenodd" fill="#CCCCCC" d="M1590.459,337.74c0-2.174,1.76-3.936,3.935-3.936
		c2.188,0,3.948,1.761,3.948,3.936c0,2.174-1.76,3.948-3.948,3.948C1592.219,341.689,1590.459,339.914,1590.459,337.74z"/>
	<path fill-rule="evenodd" clip-rule="evenodd" fill="#CCCCCC" d="M1464.405,422.777c0-2.174,1.76-3.936,3.935-3.936
		c2.188,0,3.948,1.761,3.948,3.936c0,2.174-1.76,3.948-3.948,3.948C1466.166,426.725,1464.405,424.95,1464.405,422.777z"/>
	<path fill-rule="evenodd" clip-rule="evenodd" fill="#CCCCCC" d="M1330.348,125.65c0-2.174,1.761-3.935,3.935-3.935
		c2.188,0,3.949,1.761,3.949,3.935c0,2.174-1.761,3.948-3.949,3.948C1332.109,129.598,1330.348,127.824,1330.348,125.65z"/>
	<path fill-rule="evenodd" clip-rule="evenodd" fill="#CCCCCC" d="M75.815,457.791c0-2.174,1.761-3.935,3.935-3.935
		c2.188,0,3.948,1.761,3.948,3.935c0,2.174-1.761,3.948-3.948,3.948C77.576,461.74,75.815,459.966,75.815,457.791z"/>
	<path fill-rule="evenodd" clip-rule="evenodd" fill="#CCCCCC" d="M23.793,118.647c0-2.174,1.761-3.935,3.935-3.935
		c2.188,0,3.948,1.761,3.948,3.935c0,2.174-1.761,3.948-3.948,3.948C25.554,122.595,23.793,120.822,23.793,118.647z"/>
	<path fill-rule="evenodd" clip-rule="evenodd" fill="#CCCCCC" d="M1553.443,224.692c0-2.174,1.761-3.935,3.936-3.935
		c2.188,0,3.948,1.761,3.948,3.935c0,2.174-1.761,3.949-3.948,3.949C1555.204,228.641,1553.443,226.866,1553.443,224.692z"/>
</g>
</svg>
