<?xml version="1.0" encoding="utf-8"?>
<!-- Generator: Adobe Illustrator 16.2.0, SVG Export Plug-In . SVG Version: 6.00 Build 0)  -->
<!DOCTYPE svg PUBLIC "-//W3C//DTD SVG 1.1//EN" "http://www.w3.org/Graphics/SVG/1.1/DTD/svg11.dtd">
<svg version="1.1" xmlns="http://www.w3.org/2000/svg" xmlns:xlink="http://www.w3.org/1999/xlink" x="0px" y="0px" width="1800px"
	 height="451.255px" viewBox="0 0 1800 451.255" enable-background="new 0 0 1800 451.255" xml:space="preserve">
<g id="Layer_1">
	<g>
		<path fill-rule="evenodd" clip-rule="evenodd" d="M0,451.255v-46.196l867.056-44.434l19.611,90.63H0z M0,366.356v-48.521
			L831.866,197.96l19.131,88.399L0,366.356z M0,283.073v-33.585L805.615,76.629l12.372,57.152L0,283.073z"/>
		<polygon fill-rule="evenodd" clip-rule="evenodd" fill="#DD0000" points="886.667,451.255 867.056,360.625 0,405.059 0,366.356 
			850.998,286.359 831.866,197.947 1217.701,142.345 1147.444,73.65 817.987,133.781 805.535,76.643 1161.498,0 1800,451.255 		"/>
		<path fill-rule="evenodd" clip-rule="evenodd" fill="#FFFFFF" d="M972.782,350.646h316.66c17.969,0,32.557-14.589,32.557-32.557
			v-1.255c0-17.969-14.588-32.57-32.557-32.57h-316.66c-17.982,0-32.57,14.602-32.57,32.57v1.255
			C940.212,336.057,954.8,350.646,972.782,350.646z"/>
		<polygon fill="#DD0000" points="1066.178,328.936 1061.476,328.936 1061.476,309.151 1051.937,309.151 1051.937,328.936 
			1047.248,328.936 1047.248,305.531 1066.178,305.531 		"/>
		<path fill="#DD0000" d="M1090.8,319.345c0,2.872-0.909,5.237-2.726,7.107c-1.816,1.884-4.181,2.818-7.081,2.818
			c-2.885,0-5.223-0.935-7.014-2.818c-1.803-1.87-2.711-4.235-2.711-7.107v-4.222c0-2.858,0.909-5.224,2.699-7.107
			c1.79-1.87,4.127-2.818,7.014-2.818c2.899,0,5.263,0.948,7.08,2.818c1.831,1.884,2.739,4.249,2.739,7.107V319.345z
			 M1086.111,315.096c0-1.817-0.454-3.313-1.376-4.476c-0.909-1.176-2.165-1.764-3.754-1.764c-1.604,0-2.833,0.588-3.714,1.75
			c-0.881,1.163-1.322,2.659-1.322,4.489v4.249c0,1.843,0.454,3.353,1.336,4.528c0.895,1.162,2.124,1.75,3.713,1.75
			c1.604,0,2.859-0.588,3.768-1.75c0.895-1.176,1.349-2.685,1.349-4.528V315.096z"/>
		<polygon fill="#DD0000" points="1110.278,318.65 1100.592,318.65 1100.592,325.316 1111.921,325.316 1111.921,328.936 
			1095.903,328.936 1095.903,305.531 1111.881,305.531 1111.881,309.151 1100.592,309.151 1100.592,315.029 1110.278,315.029 		"/>
		<polygon fill="#DD0000" points="1124.479,313.827 1128.861,305.531 1134.324,305.531 1127.378,317.14 1134.726,328.936 
			1129.062,328.936 1124.546,320.493 1120.03,328.936 1114.54,328.936 1121.66,317.14 1114.726,305.531 1120.15,305.531 		"/>
		<path fill="#DD0000" d="M1151.158,323.887h-8.216l-1.59,5.049h-4.742l8.055-23.405h4.81l8.016,23.405h-4.743L1151.158,323.887z
			 M1144.104,320.213h5.892l-2.886-9.192h-0.094L1144.104,320.213z"/>
		<path fill="#DD0000" d="M1179.988,305.531v23.405h-4.689v-19.785h-6.653v7.04c0,4.515-0.682,7.775-2.044,9.766
			c-1.376,1.977-3.473,2.979-6.306,2.979h-0.694v-3.62h0.641c1.469,0,2.458-0.654,2.952-1.963c0.508-1.296,0.761-3.687,0.761-7.174
			v-10.647H1179.988z"/>
		<polygon fill="#DD0000" points="1199.839,305.531 1204.555,305.531 1204.555,328.936 1199.839,328.936 1199.839,313.333 
			1199.746,313.32 1190.314,328.936 1185.638,328.936 1185.638,305.531 1190.314,305.531 1190.314,321.122 1190.408,321.134 		"/>
		<path fill="#DD0000" d="M1214.976,320.867h-4.702v-15.336h4.702V320.867z M1214.976,328.936h-4.702v-4.115h4.702V328.936z"/>
	</g>
</g>
<g id="Guides">
</g>
</svg>
