<?xml version="1.0" encoding="utf-8"?>
<!-- Generator: Adobe Illustrator 16.2.0, SVG Export Plug-In . SVG Version: 6.00 Build 0)  -->
<!DOCTYPE svg PUBLIC "-//W3C//DTD SVG 1.1//EN" "http://www.w3.org/Graphics/SVG/1.1/DTD/svg11.dtd">
<svg version="1.1" xmlns="http://www.w3.org/2000/svg" xmlns:xlink="http://www.w3.org/1999/xlink" x="0px" y="0px" width="1800px"
	 height="451.256px" viewBox="0 0 1800 451.256" enable-background="new 0 0 1800 451.256" xml:space="preserve">
<g id="Layer_1">
	<g>
		<g>
			<path fill-rule="evenodd" clip-rule="evenodd" d="M0,451.256v-46.197l867.055-44.434l19.611,90.631H0z M0,366.356v-48.521
				L831.866,197.96l19.131,88.399L0,366.356z M0,283.073v-33.585L805.615,76.63l12.371,57.151L0,283.073z"/>
			<polygon fill-rule="evenodd" clip-rule="evenodd" fill="#DD0000" points="886.667,451.256 867.055,360.625 0,405.059 0,366.356 
				850.997,286.359 831.866,197.947 1217.701,142.345 1147.443,73.651 817.986,133.781 805.535,76.643 1161.498,0 1800,451.256 			
				"/>
		</g>
		<path fill-rule="evenodd" clip-rule="evenodd" fill="#FFFFFF" d="M972.782,350.646h316.66c17.969,0,32.557-14.588,32.557-32.558
			v-1.255c0-17.969-14.588-32.57-32.557-32.57h-316.66c-17.982,0-32.57,14.601-32.57,32.57v1.255
			C940.211,336.057,954.8,350.646,972.782,350.646z"/>
		<g>
			<path fill="#DD0000" d="M1046.58,320.961l0.027,0.093c0.04,2.525-0.722,4.516-2.298,5.998c-1.59,1.483-3.781,2.218-6.586,2.218
				c-2.819,0-5.104-0.908-6.854-2.712c-1.764-1.816-2.646-4.141-2.646-7v-4.636c0-2.846,0.855-5.17,2.579-6.987
				c1.709-1.831,3.941-2.738,6.68-2.738c2.899,0,5.157,0.748,6.787,2.23c1.63,1.483,2.418,3.5,2.378,6.065l-0.04,0.093h-4.556
				c0-1.536-0.374-2.726-1.109-3.54c-0.749-0.829-1.897-1.229-3.46-1.229c-1.403,0-2.512,0.561-3.34,1.709
				c-0.829,1.136-1.243,2.592-1.243,4.356v4.676c0,1.777,0.441,3.246,1.31,4.381c0.868,1.149,2.03,1.71,3.514,1.71
				c1.469,0,2.551-0.388,3.259-1.176c0.695-0.788,1.042-1.963,1.042-3.513H1046.58z"/>
			<polygon fill="#DD0000" points="1070.306,328.936 1065.63,328.936 1065.63,319.21 1056.078,319.21 1056.078,328.936 
				1051.389,328.936 1051.389,305.531 1056.078,305.531 1056.078,315.59 1065.63,315.59 1065.63,305.531 1070.306,305.531 			"/>
			<path fill="#DD0000" d="M1094.941,319.344c0,2.872-0.909,5.237-2.726,7.107c-1.817,1.884-4.168,2.818-7.081,2.818
				c-2.873,0-5.224-0.935-7.014-2.818c-1.804-1.871-2.698-4.235-2.698-7.107v-4.222c0-2.858,0.895-5.224,2.685-7.107
				c1.791-1.87,4.128-2.818,7.014-2.818c2.899,0,5.264,0.948,7.094,2.818c1.816,1.884,2.726,4.249,2.726,7.107V319.344z
				 M1090.252,315.096c0-1.817-0.455-3.313-1.363-4.476c-0.922-1.176-2.165-1.764-3.768-1.764c-1.589,0-2.833,0.588-3.714,1.75
				c-0.868,1.163-1.309,2.659-1.309,4.489v4.248c0,1.844,0.441,3.354,1.336,4.529c0.881,1.163,2.125,1.751,3.701,1.751
				c1.616,0,2.858-0.588,3.768-1.751c0.895-1.175,1.349-2.685,1.349-4.529V315.096z"/>
			<path fill="#DD0000" d="M1118.854,319.344c0,2.872-0.909,5.237-2.726,7.107c-1.804,1.884-4.168,2.818-7.067,2.818
				c-2.885,0-5.223-0.935-7.027-2.818c-1.803-1.871-2.698-4.235-2.698-7.107v-4.222c0-2.858,0.895-5.224,2.685-7.107
				c1.804-1.87,4.142-2.818,7.014-2.818c2.912,0,5.277,0.948,7.094,2.818c1.817,1.884,2.726,4.249,2.726,7.107V319.344z
				 M1114.165,315.096c0-1.817-0.454-3.313-1.363-4.476c-0.908-1.176-2.164-1.764-3.767-1.764c-1.59,0-2.832,0.588-3.701,1.75
				c-0.882,1.163-1.322,2.659-1.322,4.489v4.248c0,1.844,0.44,3.354,1.336,4.529c0.881,1.163,2.124,1.751,3.713,1.751
				c1.603,0,2.859-0.588,3.754-1.751c0.895-1.175,1.349-2.685,1.349-4.529V315.096z"/>
			<path fill="#DD0000" d="M1151.251,320.961l0.027,0.093c0.054,2.525-0.722,4.516-2.298,5.998
				c-1.577,1.483-3.781,2.218-6.586,2.218c-2.819,0-5.103-0.908-6.854-2.712c-1.763-1.816-2.645-4.141-2.645-7v-4.636
				c0-2.846,0.868-5.17,2.579-6.987c1.71-1.831,3.941-2.738,6.68-2.738c2.898,0,5.157,0.748,6.787,2.23s2.417,3.5,2.378,6.065
				l-0.04,0.093h-4.556c0-1.536-0.374-2.726-1.108-3.54c-0.735-0.829-1.897-1.229-3.46-1.229c-1.402,0-2.511,0.561-3.34,1.709
				c-0.828,1.136-1.243,2.592-1.243,4.356v4.676c0,1.777,0.441,3.246,1.31,4.381c0.869,1.149,2.044,1.71,3.513,1.71
				c1.47,0,2.552-0.388,3.26-1.176c0.694-0.788,1.055-1.963,1.055-3.513H1151.251z"/>
			<polygon fill="#DD0000" points="1174.978,328.936 1170.302,328.936 1170.302,319.21 1160.75,319.21 1160.75,328.936 
				1156.061,328.936 1156.061,305.531 1160.75,305.531 1160.75,315.59 1170.302,315.59 1170.302,305.531 1174.978,305.531 			"/>
			<path fill="#DD0000" d="M1199.612,319.344c0,2.872-0.908,5.237-2.726,7.107c-1.816,1.884-4.167,2.818-7.067,2.818
				c-2.885,0-5.223-0.935-7.027-2.818c-1.803-1.871-2.699-4.235-2.699-7.107v-4.222c0-2.858,0.896-5.224,2.686-7.107
				c1.803-1.87,4.141-2.818,7.014-2.818c2.912,0,5.264,0.948,7.093,2.818c1.817,1.884,2.726,4.249,2.726,7.107V319.344z
				 M1194.923,315.096c0-1.817-0.454-3.313-1.362-4.476c-0.909-1.176-2.164-1.764-3.767-1.764c-1.59,0-2.833,0.588-3.701,1.75
				c-0.882,1.163-1.323,2.659-1.323,4.489v4.248c0,1.844,0.441,3.354,1.336,4.529c0.882,1.163,2.125,1.751,3.714,1.751
				c1.604,0,2.859-0.588,3.755-1.751c0.895-1.175,1.349-2.685,1.349-4.529V315.096z"/>
			<path fill="#DD0000" d="M1223.539,319.344c0,2.872-0.908,5.237-2.726,7.107c-1.816,1.884-4.181,2.818-7.08,2.818
				c-2.886,0-5.224-0.935-7.027-2.818c-1.79-1.871-2.699-4.235-2.699-7.107v-4.222c0-2.858,0.895-5.224,2.699-7.107
				c1.791-1.87,4.128-2.818,7.014-2.818c2.899,0,5.264,0.948,7.081,2.818c1.816,1.884,2.738,4.249,2.738,7.107V319.344z
				 M1218.836,315.096c0-1.817-0.454-3.313-1.363-4.476c-0.908-1.176-2.164-1.764-3.754-1.764c-1.603,0-2.832,0.588-3.714,1.75
				c-0.882,1.163-1.323,2.659-1.323,4.489v4.248c0,1.844,0.441,3.354,1.336,4.529c0.895,1.163,2.124,1.751,3.714,1.751
				c1.603,0,2.858-0.588,3.753-1.751c0.909-1.175,1.35-2.685,1.35-4.529V315.096z"/>
			<path fill="#DD0000" d="M1233.292,320.867h-4.689v-15.336h4.689V320.867z M1233.292,328.936h-4.689v-4.115h4.689V328.936z"/>
		</g>
	</g>
</g>
<g id="Guides">
</g>
</svg>
