<?xml version="1.0" encoding="utf-8"?>
<!-- Generator: Adobe Illustrator 16.2.0, SVG Export Plug-In . SVG Version: 6.00 Build 0)  -->
<!DOCTYPE svg PUBLIC "-//W3C//DTD SVG 1.1//EN" "http://www.w3.org/Graphics/SVG/1.1/DTD/svg11.dtd">
<svg version="1.1" id="Layer_1" xmlns="http://www.w3.org/2000/svg" xmlns:xlink="http://www.w3.org/1999/xlink" x="0px" y="0px"
	 width="1545.5px" height="579.461px" viewBox="0 0 1545.5 579.461" enable-background="new 0 0 1545.5 579.461"
	 xml:space="preserve">
<g>
	<g>
		<path fill-rule="evenodd" clip-rule="evenodd" fill="#B2B2B2" d="M201.405,170.527c0-9.11,7.389-16.513,16.513-16.513
			c9.11,0,16.5,7.402,16.5,16.513c0,9.11-7.389,16.499-16.5,16.499C208.794,187.025,201.405,179.637,201.405,170.527z"/>
		<g>
			<path fill="#FFFFFF" d="M220.505,170.887v10.15h-1.734v-4.321h-1.721v4.321h-1.734v-10.15c-1.788-0.947-3.028-2.815-3.028-4.989
				v-0.427h1.734v0.427c0,2.174,1.721,3.895,3.895,3.895c2.161,0,3.882-1.721,3.882-3.895v-0.427h1.734v0.427
				C223.533,168.072,222.292,169.94,220.505,170.887 M226.561,162.017v4.321h-1.734v-1.734h-13.832v1.734h-1.734v-4.321h1.734v1.72
				h13.832v-1.72H226.561 M217.917,165.471c-0.96,0-1.734,0.774-1.734,1.734c0,0.96,0.774,1.721,1.734,1.721
				c0.947,0,1.721-0.76,1.721-1.721C219.638,166.245,218.865,165.471,217.917,165.471L217.917,165.471z"/>
		</g>
	</g>
	<g>
		<path fill-rule="evenodd" clip-rule="evenodd" fill="#B2B2B2" d="M588.549,458.634c0-8.003,6.496-14.513,14.512-14.513
			c8.003,0,14.499,6.51,14.499,14.513s-6.496,14.498-14.499,14.498C595.044,473.132,588.549,466.637,588.549,458.634z"/>
		<g>
			<path fill="#FFFFFF" d="M605.341,458.874v8.922h-1.521v-3.801h-1.52v3.801h-1.521v-8.922c-1.574-0.827-2.667-2.481-2.667-4.389
				v-0.374h1.521v0.374c0,1.907,1.52,3.428,3.428,3.428c1.894,0,3.415-1.521,3.415-3.428v-0.374h1.521v0.374
				C607.996,456.393,606.902,458.047,605.341,458.874 M610.65,451.071v3.802h-1.52v-1.521h-12.151v1.521h-1.521v-3.802h1.521v1.521
				h12.151v-1.521H610.65 M603.06,454.112c-0.854,0-1.521,0.68-1.521,1.521c0,0.84,0.667,1.521,1.521,1.521
				c0.84,0,1.521-0.681,1.521-1.521C604.581,454.792,603.901,454.112,603.06,454.112L603.06,454.112z"/>
		</g>
	</g>
	<g>
		<path fill-rule="evenodd" clip-rule="evenodd" fill="#B2B2B2" d="M958.686,442.627c0-6.349,5.148-11.511,11.511-11.511
			c6.35,0,11.498,5.162,11.498,11.511s-5.148,11.511-11.498,11.511C963.834,454.139,958.686,448.977,958.686,442.627z"/>
		<g>
			<path fill="#FFFFFF" d="M971.997,442.988v7.069h-1.2v-3.014h-1.214v3.014h-1.2v-7.069c-1.254-0.667-2.108-1.974-2.108-3.482
				v-0.293h1.201v0.293c0,1.508,1.2,2.721,2.721,2.721c1.507,0,2.708-1.213,2.708-2.721v-0.293h1.201v0.293
				C974.105,441.014,973.251,442.321,971.997,442.988 M976.213,436.799v3.015h-1.201V438.6h-9.644v1.214h-1.2v-3.015h1.2v1.2h9.644
				v-1.2H976.213 M970.197,439.213c-0.68,0-1.214,0.534-1.214,1.2c0,0.667,0.534,1.201,1.214,1.201c0.667,0,1.2-0.534,1.2-1.201
				C971.397,439.747,970.864,439.213,970.197,439.213L970.197,439.213z"/>
		</g>
	</g>
	<g>
		<path fill-rule="evenodd" clip-rule="evenodd" fill="#B2B2B2" d="M1006.704,134.513c0-9.11,7.389-16.513,16.513-16.513
			c9.11,0,16.5,7.403,16.5,16.513c0,9.11-7.39,16.5-16.5,16.5C1014.093,151.013,1006.704,143.624,1006.704,134.513z"/>
		<g>
			<path fill="#FFFFFF" d="M1025.804,134.673v10.15h-1.734v-4.322h-1.721v4.322h-1.733v-10.15c-1.788-0.947-3.029-2.828-3.029-4.989
				v-0.427h1.734v0.427c0,2.161,1.721,3.895,3.895,3.895c2.161,0,3.881-1.733,3.881-3.895v-0.427h1.734v0.427
				C1028.832,131.846,1027.591,133.726,1025.804,134.673 M1031.86,125.804v4.321h-1.734v-1.734h-13.832v1.734h-1.733v-4.321h1.733
				v1.72h13.832v-1.72H1031.86 M1023.217,129.258c-0.961,0-1.734,0.774-1.734,1.734c0,0.961,0.773,1.721,1.734,1.721
				c0.947,0,1.72-0.76,1.72-1.721C1024.937,130.032,1024.163,129.258,1023.217,129.258L1023.217,129.258z"/>
		</g>
	</g>
	<g>
		<path fill-rule="evenodd" clip-rule="evenodd" fill="#B2B2B2" d="M112.372,331.586c0-7.457,6.056-13.512,13.511-13.512
			c7.443,0,13.498,6.056,13.498,13.512c0,7.456-6.055,13.498-13.498,13.498C118.427,345.084,112.372,339.042,112.372,331.586z"/>
		<g>
			<path fill="#FFFFFF" d="M128.004,331.466v8.311h-1.414v-3.548h-1.427v3.548h-1.414v-8.311c-1.467-0.773-2.468-2.307-2.468-4.081
				v-0.36h1.414v0.36c0,1.774,1.414,3.188,3.188,3.188c1.761,0,3.175-1.413,3.175-3.188v-0.36h1.414v0.36
				C130.471,329.159,129.458,330.693,128.004,331.466 M132.953,324.197v3.535h-1.414v-1.414h-11.324v1.414h-1.414v-3.535h1.414
				v1.414h11.324v-1.414H132.953 M125.883,327.025c-0.787,0-1.427,0.64-1.427,1.427c0,0.774,0.64,1.414,1.427,1.414
				c0.774,0,1.414-0.64,1.414-1.414C127.297,327.665,126.657,327.025,125.883,327.025L125.883,327.025z"/>
		</g>
	</g>
	<g>
		<path fill-rule="evenodd" clip-rule="evenodd" fill="#B2B2B2" d="M515.521,344.591c0-7.457,6.055-13.512,13.511-13.512
			c7.443,0,13.499,6.056,13.499,13.512c0,7.456-6.056,13.498-13.499,13.498C521.577,358.089,515.521,352.047,515.521,344.591z"/>
		<g>
			<path fill="#FFFFFF" d="M531.154,344.071v8.31h-1.413v-3.547h-1.414v3.547h-1.427v-8.31c-1.454-0.773-2.467-2.308-2.467-4.082
				v-0.36h1.413v0.36c0,1.774,1.414,3.188,3.188,3.188c1.76,0,3.174-1.414,3.174-3.188v-0.36h1.414v0.36
				C533.621,341.763,532.621,343.297,531.154,344.071 M536.103,336.801v3.548h-1.414v-1.427h-11.325v1.427h-1.414v-3.548h1.414
				v1.415h11.325v-1.415H536.103 M529.033,339.629c-0.787,0-1.427,0.641-1.427,1.428c0,0.774,0.64,1.414,1.427,1.414
				c0.774,0,1.414-0.64,1.414-1.414C530.447,340.27,529.807,339.629,529.033,339.629L529.033,339.629z"/>
		</g>
	</g>
	<g>
		<path fill-rule="evenodd" clip-rule="evenodd" fill="#B2B2B2" d="M925.674,316.581c0-8.563,6.949-15.513,15.5-15.513
			c8.563,0,15.512,6.95,15.512,15.513c0,8.563-6.949,15.499-15.512,15.499C932.623,332.08,925.674,325.144,925.674,316.581z"/>
		<g>
			<path fill="#FFFFFF" d="M943.613,316.781v9.537h-1.627v-4.068h-1.614v4.068h-1.627v-9.537c-1.68-0.894-2.854-2.655-2.854-4.681
				v-0.414h1.627v0.414c0,2.026,1.627,3.654,3.655,3.654c2.04,0,3.668-1.628,3.668-3.654v-0.414h1.614v0.414
				C946.455,314.126,945.294,315.887,943.613,316.781 M949.309,308.444v4.055h-1.627v-1.626h-13.005v1.626h-1.627v-4.055h1.627
				v1.627h13.005v-1.627H949.309 M941.173,311.686c-0.895,0-1.615,0.733-1.615,1.626c0,0.907,0.72,1.628,1.615,1.628
				c0.906,0,1.626-0.721,1.626-1.628C942.8,312.419,942.079,311.686,941.173,311.686L941.173,311.686z"/>
		</g>
	</g>
	<g>
		<path fill-rule="evenodd" clip-rule="evenodd" fill="#B2B2B2" d="M920.672,13.468c0-6.349,5.148-11.511,11.511-11.511
			c6.35,0,11.498,5.161,11.498,11.511c0,6.349-5.148,11.511-11.498,11.511C925.82,24.979,920.672,19.817,920.672,13.468z"/>
		<g>
			<path fill="#FFFFFF" d="M933.983,13.829v7.069h-1.2v-3.014h-1.214v3.014h-1.2v-7.069c-1.254-0.667-2.108-1.974-2.108-3.482
				v-0.293h1.201v0.293c0,1.508,1.2,2.721,2.721,2.721c1.507,0,2.708-1.213,2.708-2.721v-0.293h1.201v0.293
				C936.091,11.854,935.237,13.162,933.983,13.829 M938.198,7.639v3.015h-1.201V9.44h-9.644v1.214h-1.2V7.639h1.2v1.2h9.644v-1.2
				H938.198 M932.182,10.054c-0.68,0-1.214,0.533-1.214,1.2c0,0.667,0.534,1.2,1.214,1.2c0.667,0,1.201-0.533,1.201-1.2
				C933.383,10.587,932.849,10.054,932.182,10.054L932.182,10.054z"/>
		</g>
	</g>
	<g>
		<path fill-rule="evenodd" clip-rule="evenodd" fill="#B2B2B2" d="M626.563,191.535c0-6.35,5.148-11.512,11.511-11.512
			c6.349,0,11.498,5.162,11.498,11.512c0,6.349-5.148,11.511-11.498,11.511C631.711,203.045,626.563,197.883,626.563,191.535z"/>
		<g>
			<path fill="#FFFFFF" d="M639.874,191.094v7.07h-1.2v-3.015h-1.214v3.015h-1.2v-7.07c-1.254-0.667-2.107-1.974-2.107-3.481v-0.294
				h1.2v0.294c0,1.507,1.2,2.721,2.721,2.721c1.507,0,2.708-1.214,2.708-2.721v-0.294h1.2v0.294
				C641.982,189.12,641.128,190.427,639.874,191.094 M644.089,184.905v3.015h-1.201v-1.214h-9.644v1.214h-1.2v-3.015h1.2v1.201
				h9.644v-1.201H644.089 M638.073,187.319c-0.68,0-1.214,0.533-1.214,1.2s0.534,1.201,1.214,1.201c0.667,0,1.2-0.534,1.2-1.201
				S638.74,187.319,638.073,187.319L638.073,187.319z"/>
		</g>
	</g>
	<g>
		<path fill-rule="evenodd" clip-rule="evenodd" fill="#B2B2B2" d="M748.608,565.673c0-6.35,5.148-11.511,11.511-11.511
			c6.349,0,11.498,5.162,11.498,11.511c0,6.349-5.148,11.511-11.498,11.511C753.756,577.184,748.608,572.022,748.608,565.673z"/>
		<g>
			<path fill="#FFFFFF" d="M761.92,566.034v7.069h-1.201v-3.014h-1.214v3.014h-1.2v-7.069c-1.254-0.667-2.107-1.974-2.107-3.482
				v-0.293h1.2v0.293c0,1.508,1.2,2.721,2.721,2.721c1.507,0,2.707-1.213,2.707-2.721v-0.293h1.201v0.293
				C764.027,564.06,763.173,565.367,761.92,566.034 M766.135,559.844v3.015h-1.201v-1.214h-9.644v1.214h-1.201v-3.015h1.201v1.2
				h9.644v-1.2H766.135 M760.119,562.259c-0.68,0-1.214,0.533-1.214,1.2s0.534,1.2,1.214,1.2c0.667,0,1.2-0.533,1.2-1.2
				S760.785,562.259,760.119,562.259L760.119,562.259z"/>
		</g>
	</g>
	<g>
		<path fill-rule="evenodd" clip-rule="evenodd" fill="#B2B2B2" d="M1519.894,154.521c0-6.349,5.148-11.511,11.511-11.511
			c6.349,0,11.498,5.162,11.498,11.511s-5.148,11.511-11.498,11.511C1525.043,166.031,1519.894,160.87,1519.894,154.521z"/>
		<g>
			<path fill="#FFFFFF" d="M1533.206,154.881v7.069h-1.2v-3.014h-1.214v3.014h-1.2v-7.069c-1.254-0.667-2.107-1.974-2.107-3.482
				v-0.293h1.2v0.293c0,1.508,1.2,2.721,2.721,2.721c1.507,0,2.708-1.213,2.708-2.721v-0.293h1.201v0.293
				C1535.313,152.907,1534.459,154.214,1533.206,154.881 M1537.421,148.692v3.015h-1.201v-1.214h-9.644v1.214h-1.2v-3.015h1.2v1.2
				h9.644v-1.2H1537.421 M1531.405,151.106c-0.681,0-1.213,0.534-1.213,1.2c0,0.667,0.533,1.201,1.213,1.201
				c0.667,0,1.2-0.534,1.2-1.201C1532.605,151.64,1532.072,151.106,1531.405,151.106L1531.405,151.106z"/>
		</g>
	</g>
	<g>
		<path fill-rule="evenodd" clip-rule="evenodd" fill="#B2B2B2" d="M1471.876,410.616c0-6.349,5.148-11.511,11.511-11.511
			c6.35,0,11.498,5.162,11.498,11.511c0,6.349-5.148,11.511-11.498,11.511C1477.025,422.126,1471.876,416.964,1471.876,410.616z"/>
		<g>
			<path fill="#FFFFFF" d="M1485.188,410.976v7.069h-1.2v-3.014h-1.214v3.014h-1.2v-7.069c-1.254-0.667-2.108-1.974-2.108-3.482
				v-0.293h1.201v0.293c0,1.508,1.2,2.721,2.721,2.721c1.507,0,2.708-1.213,2.708-2.721v-0.293h1.201v0.293
				C1487.296,409.002,1486.442,410.309,1485.188,410.976 M1489.403,404.787v3.015h-1.201v-1.214h-9.644v1.214h-1.2v-3.015h1.2v1.201
				h9.644v-1.201H1489.403 M1483.387,407.201c-0.681,0-1.213,0.533-1.213,1.2s0.532,1.2,1.213,1.2c0.667,0,1.201-0.533,1.201-1.2
				S1484.054,407.201,1483.387,407.201L1483.387,407.201z"/>
		</g>
	</g>
</g>
</svg>
