<svg xmlns="http://www.w3.org/2000/svg" width="1200" height="993.75" viewBox="0 0 960.000000 795.000000"><g transform="matrix(.1 0 0-.1 0 795)"><path d="m7760 7577c-82-19-144-54-208-119-150-152-230-380-235-670l-2-142-57-17-58-17-19 43c-25 57-53 73-127 76-49 2-68-2-92-19-37-27-171-48-201-32-91 48-241-88-241-219 0-47-2-50-32-60-253-80-2510-741-2517-737-5 3-21 36-35 72-60 150-101 179-239 172-96-4-121-21-167-114-61-123-63-126-120-118-42 5-56 3-93-20-48-28-97-79-97-101 0-28-19-24-56 11-51 46-138 86-247 113-86 21-90 24-145 82-65 71-156 138-238 176-52 25-71 28-159 28-91 0-106-3-166-31-85-41-141-91-200-181-47-72-101-204-121-296-9-43-12-48-32-43-103 31-163 37-242 25-61-9-96-9-146 0-107 18-225 14-274-9-56-28-130-108-161-176-24-54-25-61-19-173 5-72 3-134-3-163-41-181-53-473-26-626 8-46 34-154 57-240l43-157-2-165c-1-105-7-179-15-203-12-36-18-40-98-68-121-44-119-43-204-14-54 19-86 24-109 20-40-9-67-32-67-57 0-24-15-52-50-98-25-32-27-42-26-110 1-41 7-84 13-96 20-35 129-130 175-153 25-11 71-26 104-32 128-22 252-77 344-151 136-110 335-103 416 14 41 58 37 107-30 440l-56 278 10 137c13 153 17 178 54 276 14 37 26 79 26 92 0 13 3 26 8 29 4 2 40-16 80-42l72-46-6-765c-4-421-9-914-13-1094l-6-329-287-126c-158-70-289-131-291-137-1-5 0-99 3-209l5-199 161-55 160-56 366 177c201 97 368 177 372 177 4 0 476-160 1049-356 573-196 1212-414 1421-485l378-129 157 121c86 67 162 129 169 137 9 12 12 140 12 565 0 518 1 548 18 543 62-19 163-26 227-16 77 12 44-3 752 343 509 249 612 307 686 386 39 41 46 56 52 105 20 159-37 285-144 317l-38 11-5 102c-6 111-27 179-78 256-28 42-29 46-13 55 38 21 113 106 138 154 54 108 63 207 39 437-6 56-3 69 39 175 65 164 73 219 57 377-16 162-12 196 33 255 44 58 56 117 33 171-20 48-20 77 0 124 16 37 20 58 49 277 18 131 14 231-12 378-9 55-14 123-11 180 3 78 9 103 36 162 31 66 32 71 21 117-10 38-10 64 0 127 9 52 11 108 6 160-7 80-7 81 18 90 57 22 57 22 82-74 109-426 394-704 673-655 130 22 218 86 309 222 63 94 105 202 133 339 19 92 21 124 16 284-3 99-9 199-12 223-5 31-3 42 7 42 18 0 559 160 582 171 28 15 23 94-8 124-13 14-28 25-34 25-5 0-138-38-296-85-157-47-289-85-293-85-4 0-18 28-31 63-88 230-223 394-396 477-93 45-170 56-255 37m245-83c71-35 183-141 245-233 272-405 263-1080-19-1362-88-88-150-112-271-107-69 3-96 9-142 32-163 82-322 305-393 550-28 98-31 136-13 136 27 0 463 134 470 144 18 27 8 86-19 116l-28 31-230-69-230-68-3 95c-9 264 75 518 218 662 88 89 142 110 265 106 75-3 100-8 150-33m1046-391c5-14 9-33 7-41-4-17-576-188-588-175-4 4-10 24-14 43l-6 36 272 81c150 44 283 81 296 82 16 1 26-7 33-26m-1201-373c7-16 10-36 7-44-3-7-36-23-74-34-37-11-172-51-299-89l-232-69-12 35c-6 20-14 42-16 49-3 7 2 12 13 13 10 0 142 38 293 83 151 46 282 84 291 85 10 0 22-12 29-29m-731-61c10-11 35-64 56-117 31-82 37-113 42-202 3-64 1-120-6-145-8-29-8-56 1-102 10-55 9-65-5-81-50-55-64-178-43-382 23-220 23-266 3-435-10-82-21-169-24-193-3-35-7-41-18-32-24 20-26-6-5-95 11-47 20-96 20-109 0-13-17-45-38-72-62-79-75-145-51-265 19-98 13-209-16-294-35-106-65-162-75-144-22 35-22-13 0-142 21-128 22-148 11-216-7-41-19-96-27-123-17-58-89-158-131-182l-31-18-88 102c-97 110-189 193-241 215-112 46-297 55-417 19-125-37-133-38-151-20-18 18-45 12-45-10 0-9 12-23 26-33 25-16 31-16 153 15 69 18 142 32 161 32h35l-55-31c-30-16-64-39-75-49-27-26-105-28-105-4 0 24-34 12-38-13-4-24 31-53 64-53 21 0 19-5-22-77-93-163-128-279-105-344 10-28 9-35-10-55-26-28-35-111-19-188 9-45 21-69 50-100 36-38 43-41 90-41 42 0 55 4 71 24 23 29 26 81 3 81-8 0-20-13-25-29-13-37-33-45-76-30-49 16-76 74-77 166-1 71 0 73 39 113l39 40-22 20c-12 12-22 31-22 44 0 77 130 334 210 416 61 62 105 80 201 80 88 0 128-27 301-204 169-173 204-224 232-337 21-84 21-242 0-323-47-183-145-311-296-385-173-85-324-76-471 29-63 45-155 163-180 231-34 90-116 161-204 175-33 5-46 0-100-36-80-54-117-62-228-48l-90 11-105-54-104-54-119-4c-207-6-311 28-480 157-59 45-125 91-146 102-45 23-134 123-179 202-71 124-122 293-137 458-4 41-13 91-20 111-12 34-12 37 6 42 28 8 23 21-19 51-79 55-104 89-119 167-15 81-34 119-124 240-34 46-73 104-85 129-37 72-71 217-109 465-19 126-39 255-44 285-5 30-8 56-6 58 1 1 17-20 35-48 31-48 50-57 50-22 0 32-39 80-109 136-80 64-93 85-111 176-13 70-30 110-60 140-21 21-57 17-63-9-3-9-5-2-6 15-2 48 24 98 71 138 23 20 45 36 50 36 5 0 21-9 37-20 23-18 32-19 56-10 21 8 26 13 16 19-9 6 12 23 71 55 85 46 127 80 114 93-3 4-27-3-52-16-26-12-48-20-51-18-10 10 27 77 51 92 14 9 54 22 89 28 56 9 68 8 103-9 21-10 48-34 60-51 32-48 98-223 97-258-1-16-24-92-52-168-61-165-65-214-25-346 50-162 157-337 274-446 65-61 92-142 109-335 6-58 13-120 17-137 6-29 4-33-16-33-30 0-21-21 21-45 52-30 219-202 289-296 73-99 116-180 140-267 14-51 15-62 4-58-8 3-21 9-29 12-17 7-19-9-5-37 16-29 58-46 168-69 165-33 232-70 296-163 31-44 37-63 42-127 6-65 3-85-19-148-29-83-20-103 24-54 27 30 59 115 59 155 0 32-38 150-57 178-62 90-142 153-218 170-53 12-57 15-91 70-47 79-61 147-47 238 6 40 23 94 37 121 14 27 26 54 26 60 0 22-22 8-55-37-66-92-84-267-36-362 14-27 18-42 10-39-25 8-49 55-69 133-26 103-57 164-126 249-55 68-58 85-15 86 8 0 37 17 65 39 28 21 66 46 85 56 36 18 110 24 149 11 16-5 22-3 22 8 0 22-41 30-120 23-75-6-119-24-165-67-18-17-47-31-72-35-37-6-43-4-59 20-9 14-47 48-85 76-37 28-70 57-73 64-3 9 23 29 80 60 58 32 89 55 100 76 18 36 82 68 134 69 63 0 104-19 174-80 38-33 73-60 77-60 3 0 12 6 18 14 17 20-102 118-176 146-97 36-173 17-262-64-25-24-74-57-109-74l-63-31-9 25c-11 28-13 97-4 130 5 19 17 23 92 33 48 6 111 8 140 4 35-4 52-2 52 5 0 17-62 25-174 20l-104-3-6 58c-3 32-15 79-26 104-15 35-17 49-9 59 17 21 32 17 62-17 28-32 50-34 55-6 5 25-44 50-111 56-34 3-62 11-62 16 0 6 45 15 100 22 153 17 151 18 174-21 40-64 172-126 269-126 30 0 33-2 27-21-7-21-5-21 26-13 31 8 177 9 185 2 2-2-4-25-14-50-16-45-16-50 6-122 12-42 22-82 22-90 0-8-20-33-45-57-48-46-48-71 2-47 30 14 82 99 83 134 0 11-9 48-21 81-44 133-19 151 174 129 132-15 232-40 296-75l34-18-49-8c-91-13-164-57-164-98 0-19 1-19 18-4 52 47 203 69 331 47 157-26 283-117 478-343 88-102 125-133 143-122 7 4-1 20-21 43-30 33-31 37-14 47 39 22 95 78 125 126 18 27 35 49 39 49 15 0 121 109 121 124 0 27-20 18-68-31-26-27-47-42-50-35-2 6 6 54 18 106 21 92 22 96 5 146-21 62-17 104 21 228 47 155 83 205 192 270 73 45 111 42 137-9 22-41 19-69-14-140-55-118-65-244-21-244 11 0 17 19 22 79 6 60 16 97 44 157 27 57 35 85 30 106-3 15-34 82-67 149-60 117-62 122-67 217-5 96-12 114-31 79-23-42-23-116-2-179 30-90 28-115-15-153-57-50-68-40-76 68-3 51-9 100-12 109-21 54 44 280 144 498 68 148 83 220 69 324-5 35-7 66-4 69 8 8 65-49 65-65 0-7 7-13 15-13 24 0 18 45-11 80-14 17-79 62-144 100-120 71-130 81-130 143 0 28 19 41 81 54 24 4 25 3 21-26-3-23 0-31 12-31 8 0 20 9 27 21 15 30 2 137-21 158-76 71-105 84-105 46 0-10-11-22-24-27-23-8-23-7-19 40 7 74 43 139 89 162 50 26 75 25 124-5 49-30 75-32 82-5 3 12 14 20 27 20 11 1 41 12 66 25 59 32 131 34 159 4m-439-291c23-39 25-58 6-58-12 0-2625-779-2668-795-14-6-16-1-11 34 3 23 1 47-5 54-9 10 259 93 1306 404 724 215 1325 391 1335 392 9 1 26-13 37-31m-120-173c0-68 16-93 82-123 52-24 62-33 86-82 24-50 27-65 26-160 0-121-11-154-98-310-91-163-110-219-110-335 0-55 3-146 8-202l9-102-76-124c-92-153-100-184-102-417-2-187-2-187-65-327-24-54-40-75-63-86-16-8-35-13-41-11-6 2-54 52-106 110-52 59-111 119-130 134-57 45-137 81-236 105-104 26-100 24-170 81-29 23-74 49-100 58-91 29-278 56-500 71-122 8-240 17-264 21-67 11-130 60-163 127-33 68-55 82-265 174-158 69-191 90-267 168-27 28-62 60-78 71-24 16-28 28-33 85-4 39-2 86 5 115 18 76 78 228 93 237 7 4 339 104 738 223 399 119 968 289 1265 379 297 89 543 163 548 164 4 1 7-19 7-44m-4095-300c81-21 155-67 235-145 212-208 341-553 340-915 0-196-24-315-95-460-57-118-117-185-203-227-60-30-75-33-157-33-85 0-96 2-168 38-126 62-250 193-340 357-38 71-102 235-112 290l-6 35 206 60c187 54 208 62 221 87 25 49 15 92-29 121-22 14-36 11-222-43-109-33-202-57-205-55-13 8-18 187-9 290 27 308 160 536 348 596 70 22 120 23 196 4m513-301c106-29 234-127 219-168-3-7-39-22-80-34-42-12-82-24-89-27-8-3-19 11-30 37-10 24-40 81-68 127-27 46-50 86-50 88 0 2 8 2 18-1 9-2 46-12 80-22m330-211c28-73 29-72-113-114-71-21-133-39-136-39-9 0-31 91-24 98 5 5 240 79 256 81 4 1 11-11 17-26m-1698-5c102 1 172-2 204-11l48-13 2-187 2-187-31-9c-255-70-512-147-517-156-4-5-8-31-8-56 0-64 30-103 74-95 28 5 37 0 90-53l59-59-39-11c-21-5-56-13-78-17-35-6-41-12-64-63-27-59-39-146-28-207 10-48 74-116 153-160 72-41 70-33 26-159-47-136-53-170-59-325l-6-155 56-282c31-155 56-295 56-310 0-42-34-90-81-114-36-18-55-21-123-17-88 5-119 17-201 79-96 72-196 119-289 134-101 16-167 49-245 121l-55 51-1 69c-1 62 2 72 26 99 14 17 29 42 33 56 10 43 44 79 74 78 35-1 95-22 99-36 4-11-31-27-79-37-31-7-35-18-14-35 19-16 86 2 146 39 41 25 119 54 210 77 53 13 67 52 80 218 14 169 12 189-50 430-60 236-75 346-66 490 10 146 40 357 48 328 7-27 28-31 28-5 0 9-7 62-15 116-20 130-19 172 5 224 25 56 115 150 148 156 15 2 72 1 127-2 55-4 170-6 255-4m1730-120c0-8-53-30-123-54-67-22-130-44-139-48-15-7-18-3-18 16 0 22 10 27 123 60 135 40 157 44 157 26m43-96c25-25 45-61 62-112 34-99 75-369 75-498v-103l-57-67-57-67-80-6c-47-3-100-14-126-26-60-26-143-104-205-190l-50-70-83-1c-65-1-92 3-123 18-21 11-39 24-39 28 0 4 22 15 49 25 104 36 221 181 280 344 35 93 61 214 61 277 0 42 2 45 33 51 17 4 73 21 123 38l91 31 38-32c40-36 58-37 63-4 8 52-152 78-245 40-41-17-43-17-43 0 0 23 32 70 66 97 25 20 27 45 4 45-18 0-82-64-103-104l-22-41-7 125c-5 86-3 129 4 138 30 35 178 100 233 101 12 1 38-16 58-37m-1033-102c6-12 10-33 8-48-3-26-11-29-233-95-126-37-335-99-463-137-129-39-238-70-243-70-5 0-9 10-9 23 0 12-6 34-14 48l-13 26 146 42c80 23 290 84 466 135 176 52 325 95 332 95 7 1 17-8 23-19m1721-223c20-15 62-36 95-47 76-26 274-121 274-132 0-4-20-8-45-8-24 0-81-7-126-16l-80-17-40 39c-44 43-48 54-18 54 39 0 13 25-30 28-36 3-45 8-65 40-24 39-76 150-76 161 1 3 18-12 38-35 20-22 53-53 73-67m-2161-32c0-35 63-208 108-296l48-95-13-49c-7-28-12-72-11-100 2-60 2-60-107 2-116 66-183 123-333 282l-133 141 58 16c32 9 128 37 213 64 184 56 170 54 170 35m-520-74c0-37-10-44-32-24-18 16-25 73-11 87 12 12 43-34 43-63m268-309c96-98 262-226 340-263 45-22 51-28 57-64 15-91 22-103 78-119 83-24 249-95 272-115 36-33 65-43 187-62 65-11 134-25 151-33 18-7 72-43 120-81 93-70 149-99 309-159 100-37 139-43 181-27 18 7 44 3 101-15 51-16 102-24 154-25 115-1 119-4 168-92 60-109 92-146 198-232 50-40 135-121 189-180 55-58 115-114 135-124 21-11 72-48 116-83 186-150 225-170 368-188 180-22 288-10 403 46 99 47 146 62 175 53 14-4 54-7 90-8 70-1 118 16 179 63 44 33 102 35 146 5 34-24 87-101 130-191 104-216 327-334 538-284 73 17 180 67 252 116 101 69 189 217 221 367 17 81 17 81 43 71 69-26 104-97 104-210 0-69-3-82-27-112-50-66-195-146-781-433l-590-288h-120c-103 1-130 4-195 27-57 20-297 164-1000 599-1130 699-1564 966-2320 1432-322 198-595 369-607 380-54 48-65 142-28 235 16 39 19 41 93 60 42 11 78 20 80 21 2 1 42-39 90-87m1901-87l23-54-47-58c-158-193-193-452-84-616 17-26 42-56 55-66 39-31 28-31-46-4-65 24-74 25-123 14-47-12-58-11-117 9-121 42-244 106-315 165-93 77-146 100-294 125-122 20-145 29-213 81-36 28-188 96-238 105-24 5-32 13-39 43-23 84-33 175-26 228l7 57 36-45c138-170 287-259 435-259 53 0 67-4 83-21 22-26 110-69 139-69 11 0 30 7 42 15 27 19 70 3 75-29 6-43 35-18 108 92 102 153 157 192 292 207l58 6-39-73c-46-85-77-182-87-267-3-34-10-61-15-61-45 0-117 27-159 61-43 34-51 37-57 23-4-12 4-26 27-45 46-39 143-89 172-89 24 0 25-4 31-75 8-92 28-145 56-145 28 0 30 16 8 89-50 176 25 471 164 643 30 37 57 67 60 68 3 0 16-25 28-55m70-136c13-17 21-33 18-35-3-3-26-4-51-2l-46 3 22 32c13 18 26 33 29 33 3 0 15-14 28-31m55-95c12-3 34-23 50-44 32-43 96-184 96-211 0-10 17-39 37-66 62-81 90-163 102-293 9-100 54-294 76-330 12-20-6-9-69 40-80 63-101 91-165 218-47 94-111 182-132 182-17 0-9-37 13-65l22-28-24 6c-14 4-37 7-52 7-33 0-131 87-158 140-50 99-46 250 12 388l31 75 70-7c39-4 80-9 91-12m-1676-339l162-100v-872c0-479 4-874 8-877 4-2 145 56 312 131l304 135 150-27c83-14 152-28 154-30 2-2 0-74-4-160l-7-157-194-93c-152-74-194-98-191-111 2-14 233-90 1056-348 879-277 1052-334 1052-349 0-21 27-34 41-20 6 6 6 208 0 564-5 305-8 555-6 557 1 1 87-50 191-115 104-64 213-126 242-138 29-12 55-25 58-28 3-3 3-251-1-551l-8-546-136-107c-75-58-141-110-147-114-7-6-573 183-1434 477l-1422 486-362-176c-199-97-369-176-377-176-8 0-70 20-139 44l-125 44-8 58c-4 33-6 113-5 178l3 119 280 125c154 68 285 129 292 135 8 9 13 295 18 1100l8 1087 37-22c20-13 110-68 198-123m365-227c84-51 622-383 1197-738 575-356 1086-671 1135-702l90-55 6-304c10-470 11-764 2-763-4 1-447 139-983 307-536 168-987 309-1002 313-16 3-28 9-28 13 0 3 78 44 173 91l172 85 3 193c1 105-1 192-6 192-4 0-83 13-175 29l-167 30-292-129-291-129 4 829c2 457 6 830 7 830 2 0 72-41 155-92"/><path d="m7762 7474c2-11 23-22 58-31 262-66 428-400 447-899 7-171-5-279-43-394-31-92-102-201-160-243-46-34-56-57-26-57 26 0 113 86 156 153 89 139 128 359 107 602-30 351-109 587-243 731-70 74-122 108-209 135-75 23-91 24-87 3"/><path d="m6706 6581c-3-4 1-16 8-26 12-16 20-18 62-9 58 11 60 30 4 26-22-1-40 2-40 8 0 12-27 13-34 1"/><path d="m6885 6531c-15-25 37-171 61-171 16 0 19 36 4 45-5 3-17 31-26 63-20 64-29 79-39 63"/><path d="m3710 5785c0-18 55-47 82-43 34 5 34 28 1 28-16 0-38 7-49 15-24 19-34 19-34 0"/><path d="m3810 5583c-17-57-23-174-11-205 6-16 18-28 27-28 13 0 15 5 8 28-11 35-11 122 0 190 10 62-7 73-24 15"/><path d="m3390 5537c0-7 7-23 16-35 19-28 77-32 72-4-2 10-11 16-22 14-10-2-25 6-33 17-16 24-33 28-33 8"/><path d="m7052 4807c-30-32-32-107-2-107 16 0 20 7 20 33 0 18 7 43 16 55 14 21 12 42-5 42-4 0-17-10-29-23"/><path d="m3740 4609c0-79 111-379 140-379 32 0 9 82-46 161-16 23-30 66-40 120-16 94-29 129-44 129-5 0-10-14-10-31"/><path d="m6996 4613c-3-3-6-14-6-23 0-53-34-126-82-174l-50-51 5-62c5-72 33-126 66-131 28-4 47 12 72 61 23 44 19 67-11 67-14 0-20-7-20-23 0-29-23-62-38-53-6 3-16 31-23 60-12 54-12 55 23 103 50 68 77 126 84 177 6 40-4 65-20 49"/><path d="m3965 4591c-3-6 4-37 15-70 22-67 24-113 10-215-19-128-16-245 8-298 37-85 65-52 37 43-17 55-18 73-7 197 8 96 8 161 1 216-13 102-42 161-64 127"/><path d="m4443 4506c-42-19-60-50-66-118-5-53-4-57 12-49 10 6 23 32 30 65 14 63 38 86 89 86 22 0 32 4 30 13-6 17-58 19-95 3"/><path d="m4702 4433c-47-23-63-51-55-96 6-37 26-50 36-23 3 8 3 24 0 35-6 25 20 59 55 72 23 9 30 29 10 29-7 0-28-8-46-17"/><path d="m5190 4001c0-16 88-54 189-81 89-24 135-52 264-156 101-82 135-85 47-4-100 92-225 173-326 210-100 36-174 50-174 31"/><path d="m4040 3886c0-9 5-25 12-36 10-16 9-23-10-43-25-27-29-47-7-47 42 0 63 130 23 138-11 2-18-3-18-12"/><path d="m4094 3715c-4-9-4-38-2-66 4-39 20-74 82-175 42-68 76-131 76-139 0-20-22-65-31-65-8 0-15 7-48 50-17 22-20 23-26 8-7-19 20-61 56-86 48-34 106 25 93 94-6 35-90 178-146 247-26 33-29 45-26 89 2 34-1 52-9 55-7 3-16-3-19-12"/><path d="m5746 3552c-17-34-39-57-74-79-56-35-110-109-150-208-13-33-37-90-53-128-32-72-31-94 2-74 25 15 51 63 90 170 45 122 70 159 148 216 55 39 72 58 80 86 10 37 6 65-10 65-5 0-20-22-33-48"/><path d="m5736 3358c9-48 9-111-1-313-8-157-1-204 34-217 20-7 22-6 16 9-18 46-27 136-21 213 19 263 19 274 3 313-22 52-42 49-31-5"/><path d="m4690 2875c0-24 64-118 96-144 41-33 90-51 135-51 58 0 52 26-8 35-78 11-117 38-164 110-43 65-59 78-59 50"/><path d="m2292 5860c2-8 36-24 76-36 230-70 384-298 461-680 45-227 52-465 16-614-26-109-79-205-151-275-35-34-64-65-64-69 0-3 9-6 20-6 29 0 130 106 167 175 94 179 113 420 58 740-39 226-122 445-218 571-81 107-209 188-318 201-41 5-51 3-47-7"/><path d="m1379 5250c-38-44-53-53-111-69-85-23-118-44-118-76 0-41 20-40 60 4 32 35 43 41 78 41 61 0 88 14 126 67 65 89 37 115-35 33"/><path d="m1201 4682c-45-64-64-148-69-312-4-131-1-174 17-269 25-129 61-248 101-337 29-65 46-82 62-66 7 7-7 51-42 137-55 137-92 292-109 457-12 120-2 194 42 321 34 99 34 119-2 69"/><path d="m1363 3435c-10-28 16-259 32-274 24-24 30-4 16 57-21 97-31 182-25 208 7 27-13 34-23 9"/><path d="m1216 3367c-5-10-6-39-2-65 10-75-8-92-95-92-52 0-69-3-69-14 0-19 22-26 78-26 90 0 137 56 113 132-5 18-12 44-14 58-3 22-5 23-11 7"/></g></svg>