<svg xmlns="http://www.w3.org/2000/svg" width="1200" height="1106.25" viewBox="0 0 960.000000 885.000000"><g transform="matrix(.1 0 0-.1 0 885)"><path d="m3952 8420c-150-40-256-122-311-240-37-79-41-219-11-400 12-74 27-141 33-150 6-8 30-36 52-61l40-46v-185c0-234 13-216-273-368l-147-78 3-44 4-45-43-7c-80-13-149-56-249-157-143-143-172-208-211-464-14-95-31-167-54-225-52-134-59-167-59-285 1-123 15-187 71-330 33-82 36-99 36-190 0-55-8-149-17-209-20-120-19-189 8-421 33-295 45-341 156-620 27-68 51-146 55-180 12-103 36-207 57-248 11-22 16-43 11-47-4-4-80-25-168-45-88-21-261-62-385-92-124-29-234-55-244-56-16-2-21 10-33 68-17 80-71 232-116 320-99 198-251 346-383 376-92 21-303-20-402-78-91-53-204-228-263-408-49-145-69-267-76-450l-6-150-96-23c-53-13-170-39-260-57-90-19-170-40-179-47-22-19-52-88-52-123 0-37 30-104 58-128 20-18 27-17 264 38 298 70 514 124 676 172 108 32 125 40 134 62 23 60-24 212-68 219-16 2-351-78-438-104-16-5-18-2-13 22 4 16 22 124 42 239 19 116 44 244 56 285 48 178 164 352 271 406 40 20 242 75 284 77 14 0 123-65 190-114 77-57 142-135 190-231 126-251 179-471 178-748 0-188-12-275-60-442-85-296-225-471-396-494-28-4-48-3-48 3 0 5 16 25 36 44 49 47 119 145 144 204 30 70 77 254 96 375 22 139 22 410 1 547-49 312-159 587-279 698-50 46-121 85-134 73-2-2 39-62 92-133 114-153 139-201 192-365 63-197 77-290 76-540 0-231-11-323-60-494-28-99-44-133-116-253-27-45-56-103-64-127-14-42-17-44-47-41-18 2-61 7-95 10-86 7-141 33-213 102-102 97-167 219-238 449-21 66-40 109-56 124-14 13-27 21-30 18-7-7 21-136 51-237 89-294 269-513 446-545 58-10 293 12 356 34 155 55 312 316 374 622 21 102 23 141 23 396v282l35 6c98 17 1013 233 1077 255 18 6 45 25 60 43 26 31 34 34 99 38 118 8 204 73 204 155v34l-62-45c-35-25-100-68-146-96-79-47-87-50-153-50-62 0-70 2-65 18 3 9 10 46 17 81l12 64-34 28c-42 35-45 35-53 2-19-78-68-222-87-253l-21-34-20 37c-10 21-36 114-58 206-22 98-58 218-86 287-80 203-101 296-140 638-16 141-16 157 1 315 10 100 16 211 13 277-4 98-8 118-41 199-88 210-83 425 12 642 29 67 40 117 61 278 6 43 22 104 35 134 35 75 167 204 263 256 67 35 79 47 127 121 61 92 103 124 229 174 97 38 151 75 171 117 23 48 38 181 33 309-2 63 0 114 4 114 13 0 66-72 104-142 59-108 109-158 201-201 98-46 177-66 273-72l75-4 12-58c23-109 14-174-29-220-27-29-48-28-178 2-58 14-124 25-147 25h-43v45c0 79-48 175-135 270-46 51-44 40 39-154 36-85 65-156 63-157-7-7-224-44-258-44-38 0-39-1-39-33 0-19 2-36 5-39 3-3 56 6 118 20 163 36 287 36 391-1 116-41 178-21 259 82 34 43 55 61 71 61 95 0 306 62 306 89 0 30-231 1-309-38-22-12-43-21-46-21-3 0-5 17-5 38-1 20-5 57-10 82-4 25-7 47-5 49 2 1 34-8 72-20 81-28 245-34 301-10 40 17 41 31 2 31-36 0-323 40-329 45-2 3 10 35 27 72 16 38 28 70 26 72-2 2-47-25-100-59l-96-62-92 27c-118 36-262 98-293 127-14 13-44 62-66 109-42 86-43 87-137 150-88 59-95 67-98 100-2 20 6 63 17 95 12 32 21 62 21 67 0 9-25 6-79-9l-24-7 5 114c10 207 71 304 248 394 76 38 168 55 311 55h126l81-80c94-92 93-90 147-353 40-195 42-247 15-429-31-209-24-267 20-151 77 205 74 391-13 752-31 133-32 136-85 193-36 38-76 69-120 90-64 32-68 32-221 35-130 3-168 0-229-17m-2436-5525c7-22 14-43 14-46 0-11-239-77-560-155-85-20-192-50-237-65-46-15-83-27-84-26-6 11-25 144-22 150 2 4 18 7 35 7 42 0 194 32 478 100 248 60 338 79 354 76 4-1 14-20 22-41m-946-194c26-49-1-127-37-105-22 13-30 88-12 110 16 20 36 18 49-5"/><path d="m4952 7035c14-8 66-28 115-43 48-16 113-42 143-57 108-54 217-197 271-352 16-47 19-84 19-231v-176l59-100c98-166 109-207 121-447 9-180 28-281 60-329 9-13 11-13 20 0 29 45 24 232-10 385-11 50-29 143-40 208-21 134-40 179-116 277l-54 70 22 52c34 85 31 217-10 335-64 189-139 307-227 359-67 39-184 64-299 64-94-1-99-2-74-15"/><path d="m4950 6882c0-22 224-140 234-123 8 12-64 77-111 101-48 25-123 38-123 22"/><path d="m3377 6632c-26-18-28-36-2-26 22 9 125-15 179-40 87-42 86-41 75-132-18-151-62-278-146-416-40-67-38-89 10-119 18-10 35-19 38-19 3 0 9 28 12 62 4 49 18 87 66 182 69 139 84 195 85 321 1 77-2 95-22 126-29 48-84 70-187 76-67 4-84 1-108-15"/><path d="m4474 6490c59-216 69-308 44-391-11-38-13-39-106-70-109-35-176-66-220-104-47-39-112-64-189-71-81-8-81-8-195 79-81 62-122 88-173 107-23 9-25 7-25-15 0-42 132-154 260-221 47-24 66-29 130-28 91 0 144 21 233 93 43 34 89 58 151 80 48 17 102 39 118 49 45 26 99 122 112 199 14 81-36 213-107 280-36 35-39 36-33 13"/><path d="m5185 6318c-13-42-86-228-90-228-3 0-25 10-49 22l-45 21-85-25-84-26-54 19c-58 20-168 26-168 9 0-15 159-90 191-90 15 0 82 14 149 31 67 17 123 29 125 27 7-8 66-334 73-409 16-156-18-292-97-381-36-41-151-113-161-101-4 4-20 62-35 128-41 180-42 180-60 0-8-80-46-163-77-169-13-3-67-10-121-16-54-6-122-18-150-28-50-18-55-18-122 0-38 9-74 18-79 18-15 0 24-38 78-75l51-35 140 30c155 33 245 61 290 89 27 16 34 17 69 4 54-18 62-17 112 19 24 17 47 28 51 25 3-4 12-103 19-220 7-116 16-228 19-248l6-36-79-31c-114-45-221-79-310-98-88-19-275-22-342-6-25 6-115 18-200 26-85 9-182 23-214 31-63 17-146 58-170 84-10 11-20 70-30 178-24 237-46 336-96 420-11 18-18 34-17 35 1 1 75 4 164 7l162 6-44 46-44 47-98-15c-97-14-161-29-182-42-7-5-4-27 10-71 77-252 106-473 80-625-13-76-86-245-106-245-21 0-65 67-65 97 0 16-16 114-35 217-39 210-43 283-19 371 9 33 20 76 25 95 9 38 26 259 32 430l4 105-55 38c-30 21-56 36-58 34-2-1 3-25 11-52 17-56 19-162 5-369-11-162-30-268-62-354l-20-54-33 32c-31 30-32 34-38 140-7 122-28 193-76 264-39 57-56 60-47 9 17-100 45-306 52-377l7-78 38 6c48 8 48 7 9-109-41-121-37-135 11-42l40 78 43-31c60-43 65-73 76-430 5-162 14-320 20-350 27-140 66-234 127-301 20-22 34-42 31-44-2-3-36 4-74 15-87 25-84 25-84-7 0-71-3-69 142-60 73 4 133 9 134 10 1 1 5 16 9 34l6 32-58 3-58 3-27 67c-43 107-78 263-90 401-11 121-11 129 8 147 34 34 46 29 64-30 10-32 20-49 23-40 3 8 17 55 32 103l26 88 44-7 44-6 3 56 3 56 44-29c83-55 209-86 532-131 242-33 308-26 584 60l160 50 72-73 73-72-11-95c-6-52-17-123-25-158l-14-63 41-70c23-38 45-72 50-75 30-18-2-32-138-58-143-28-536-123-773-187-108-29-122-30-240-25-69 3-153 12-187 19-44 10-65 11-72 4-22-22-10-35 42-47 100-24 126-39 137-79 35-131 35-243 0-311-40-79-92-98-300-111-164-11-260-25-260-39 0-12 91-30 185-37 99-7 205 9 293 44 88 35 178 122 212 206 13 31 30 57 38 57 8 0 125 32 260 71 136 38 314 84 397 100 160 32 333 75 429 109 33 11 61 18 63 16 2-2 8-35 14-72 13-98 43-191 80-249 29-46 30-50 14-60-10-5-93-60-185-121-91-61-193-122-226-135-86-34-200-31-368 9-70 17-130 33-132 35-9 9 51 71 95 98 24 16 85 42 135 59 76 25 95 36 112 63 24 37 74 169 74 194 0 24-48-24-111-112l-51-72-77-18c-42-9-104-29-138-42l-62-25-15-66c-8-37-18-102-21-144-8-89-12-94-105-137-119-56-274-81-500-81-96-1-103-2-85-16 11-8 49-24 85-35 97-30 242-28 394 6 65 15 120 24 123 21 10-10-48-300-78-391-17-49-54-133-83-185-69-122-88-169-176-435-47-141-100-279-150-385-112-236-125-284-125-450 1-89 5-145 14-165 12-28 14-28 21-10 5 11 18 90 30 175 24 177 58 317 94 389 46 89 48 80 44-145l-4-209-57-153c-57-154-79-242-92-360l-7-63 48 3 49 3 7 72c9 92 38 206 91 358l42 120v290c1 283 2 293 28 392 50 187 144 441 201 542 30 53 65 123 79 157 35 83 65 235 73 374l6 115 51 53c53 54 67 62 67 38 0-7 46-90 102-182 56-93 109-189 119-214 9-25 24-96 33-157 8-61 25-137 36-170 54-149 68-193 75-242 6-44 10-52 25-48 11 3 17 0 15-7-2-6 25-42 60-81l65-70v50c0 76-26 170-75 275-37 78-49 121-70 244-15 82-35 172-46 200-31 85-119 219-218 335-103 120-156 194-142 199 5 2 55-18 112-44 92-42 114-48 189-52 59-3 105 1 150 13 89 22 250 102 340 168 41 30 76 54 77 54 1-1 6-92 12-202 6-110 14-226 17-257l6-58h-29c-15 0-33-4-39-8-7-4-30-54-53-112-22-58-51-118-64-134-22-27-25-28-58-17-45 15-88 60-130 136-40 75-37 71-50 58-16-16 53-179 93-220 76-79 164-36 262 125 21 34 41 62 45 62 12 0 61-170 61-211 0-19-11-107-25-195-44-279-44-447 1-684 12-63 17-164 19-390 4-415 27-532 119-632 43-47 46-48 103-48h58l-62 58c-68 63-84 90-106 177-23 90-27 151-37 515-7 239-14 358-26 415-25 125-30 434-9 565 30 182 30 228 2 353-21 92-28 157-37 362-7 138-15 270-19 295-6 42-4 48 29 90 21 25 45 58 55 73 18 28 18 28-12 60-17 18-43 56-57 85-28 55-79 252-66 252 24 0 210 36 368 71l183 41 69-46c132-89 161-92 312-40 190 66 302 145 353 248l26 52 197 48c108 27 248 61 311 78 62 16 114 28 116 26 1-2 23-70 50-153 105-333 203-492 368-602l72-48 134-3c250-8 347 36 465 211 130 192 199 459 209 807l3 125 115 22c63 12 180 39 262 60l147 37v29c0 25-3 29-22 24-148-32-459-108-480-116-15-5-29-7-32-3-2 4-7 37-11 73l-7 66 139 32c76 18 200 49 276 68 136 36 137 36 137 64 0 16-2 29-5 29-3 0-37-9-77-20-40-10-149-35-241-55-154-33-171-38-194-65-14-17-28-30-32-30-4 0-13 30-20 67-16 88-75 269-116 359-71 155-188 285-312 346-62 30-75 33-158 32-95 0-217-27-305-67-67-31-158-129-207-222-103-201-153-416-154-662 0-73-3-133-5-133-41 0-565-129-624-154-10-4-39 20-89 75l-75 81-55-5c-31-4-103-22-161-41-58-19-108-32-111-28-34 39-133 170-144 192-8 15-19 76-25 136-17 171-31 213-122 358-45 72-93 157-108 189l-26 58-31-39-31-39 32-59c17-32 62-111 99-174 78-135 110-217 131-331 19-107 28-132 121-321 86-174 92-180 195-193 30-3 64-9 75-12 38-11-3 24-96 83-50 31-89 58-87 59 2 2 64 25 139 52l136 49 63-72c109-123 120-162 69-262-53-107-178-199-351-258-105-36-108-35-174 49-31 39-59 72-63 72-3 0-100-24-216-52-115-29-286-68-380-87-423-87-527-112-1083-262-67-18-147-36-177-39l-55-7 1 28c3 76 1 75 159 106 79 16 183 42 230 59 198 71 271 91 482 133 123 25 242 52 266 60 23 8 149 38 280 67 195 42 457 111 470 124 5 5-31 125-38 125-4 0-30-18-58-40l-50-40-28 47c-15 27-60 93-100 148-95 133-126 185-165 279-18 44-57 116-86 160-47 70-57 94-74 174-28 139-47 207-74 268-32 73-112 478-166 843l-13 83 47 42 46 41-17 77c-19 86-27 100-37 66m2935-885c186-99 295-251 375-521 100-340 98-721-6-1042-42-128-83-202-153-277-84-91-155-123-294-136-132-11-188 0-269 52-123 80-215 209-288 405-31 85-74 246-75 282 0 6 48 20 108 32 59 12 158 36 220 53 110 31 113 33 128 68 27 64 27 87 3 148-13 32-26 62-30 66-6 8-280-49-428-88l-53-14 6 32c4 18 20 121 37 230 48 319 106 479 216 597 87 95 215 149 355 150 70 0 83-3 148-37m-2935-85c55-243 121-494 145-552 18-42 53-110 79-153 26-43 71-123 100-179 29-55 86-142 127-193 82-103 158-210 152-217-2-2-92-19-200-38-107-19-216-40-242-47-27-7-51-8-55-3-4 5-19 48-34 95-25 83-25 89-11 140 8 30 18 104 21 164l5 110-46 38c-25 21-52 50-60 65-27 54-51 260-51 437 0 146 3 183 24 263 23 92 36 112 46 70m2627-875c21-19 24-76 6-90-7-6-31-15-53-20-22-6-152-40-290-76-137-36-356-90-486-121-130-30-244-58-253-62-15-6-17 1-14 61l3 67 310 79c171 44 398 100 505 125 107 25 197 47 199 50 11 10 56 3 73-13m-2817-2553c-3-5-12-10-18-10-7 0-6 4 3 10 19 12 23 12 15 0"/><path d="m7940 5409c0-17 20-51 75-124 247-329 344-773 265-1210-32-176-101-364-179-487-22-34-38-64-36-66 8-9 65 31 102 71 52 56 77 104 120 232 45 132 72 297 80 475 12 301-42 564-171 834-62 130-116 202-188 251-56 37-68 42-68 24"/><path d="m3293 5997c-26-40-83-153-83-166 0-10 69-3 82 8 4 3 12 38 18 76 6 39 14 80 17 93 8 32-9 27-34-11"/><path d="m5240 5980c0-61 85-375 110-403 4-4 18-3 32 2l26 10-19 88c-10 48-29 126-42 173-14 47-28 97-31 113-4 18-13 27-25 27-11 0-26 3-35 6-12 4-16 0-16-16"/><path d="m4783 5912c-36-41-47-47-81-47h-40l33-38c38-45 58-105 53-167l-3-45-80-3c-72-3-83-6-110-31-16-16-79-63-138-106-125-89-111-88-238-5-40 27-76 44-78 39-7-20 23-71 62-104 22-19 68-44 104-56l63-21 55 50c30 28 76 58 102 68 27 9 62 30 78 45 17 15 57 34 90 44 33 9 80 27 103 41l44 24 116-16c64-8 134-19 156-24 22-5 42-7 45-4 2 2-6 16-20 30-38 42-100 64-195 71-66 5-87 10-91 22-3 9-18 45-35 80l-29 65 43 37c24 21 50 38 58 38 8 1 44-8 79-19 36-11 67-18 69-16 11 12-136 97-163 95-5-1-29-22-52-47"/><path d="m4394 5787c-147-189-159-206-151-213 12-12 120 71 180 140 34 39 88 98 120 130 31 33 54 63 50 67-5 3-26 9-49 13l-40 6-110-143"/><path d="m3661 5708c-51-19-53-21-47-50 3-17 6-46 6-64 0-29 5-36 40-54 63-32 134-42 218-30 41 5 78 13 83 16 5 3 0 23-12 45-15 31-24 39-37 34-70-29-191-37-217-15-33 27-8 92 46 121l34 18h-30c-16 0-54-9-84-21"/><path d="m5472 5410l-24-20 62-75c68-83 117-121 169-131 30-6 33-5 28 10-4 9-14 59-24 109l-17 92-11-38c-6-21-15-39-19-39-5 0-37 25-72 56-34 31-64 56-66 56-2-1-13-9-26-20"/><path d="m4190 5254c-8-1-50-6-94-9l-79-7 35-35c46-46 106-55 166-24 37 19 72 54 72 73 0 8-69 9-100 2"/><path d="m3807 5194c-8-8 13-76 33-105 33-45 115-82 198-87 57-4 74-2 70 8-7 21-290 195-301 184"/><path d="m4300 4935c0-29 5-37 25-45 35-13 55-3 55 29 0 35-17 51-52 51-25 0-28-3-28-35"/><path d="m4811 4899c-24-16-49-46-57-64-15-37-19-85-6-85 4 0 30 33 59 73 81 113 82 133 4 76"/><path d="m4286 4823c32-139 134-243 238-243h49l-64 57c-35 31-98 92-139 135-41 43-78 78-83 78-4 0-5-12-1-27"/><path d="m4981 4439c-392-136-629-141-1010-20-52 16-97 28-101 26-10-6-78-148-95-199-37-113-32-155 21-156 19 0 22 7 26 58 5 53 57 205 78 226 6 6 213-65 228-79 2-2-4-18-13-36-23-44-98-123-170-177-90-68-175-143-175-153 0-17 25-9 125 40 145 70 240 163 270 265 10 31 17 40 31 38 70-11 297-13 381-2 92 11 325 65 385 89 30 11 118 88 118 102 0 12-2 11-99-22"/><path d="m4990 4153c-271-26-427-56-604-113-99-32-128-46-156-75-30-31-31-35-13-35 11 0 103 23 204 51 101 28 225 59 274 70 95 20 266 26 249 9-5-5-59-28-119-50-153-58-286-122-359-174-57-41-106-86-93-86 5 0 87 35 442 188 77 33 159 66 183 73l42 12v69c0 37-3 67-7 66-5 0-24-3-43-5"/><path d="m3485 3308c-16-4-102-24-190-44-233-52-545-128-743-181-157-42-174-49-187-73-8-15-11-30-8-34 16-16 95 0 381 74 169 44 358 91 421 105l114 25 56-53c64-61 109-93 118-83 3 3 1 25-6 48-13 41-43 77-91 110-25 17-24 17 47 17 60 1 76 5 98 24 19 16 26 30 23 48-3 23-6 25-33 17"/><path d="m3566 2830c-3-8-7-127-9-265l-3-250-31-87c-36-101-56-212-77-425-14-140-21-169-86-374-85-266-100-333-100-449 0-104 14-185 72-412l43-168h33c17 0 32 3 32 8 0 4-14 54-30 112-90 315-105 492-56 683 23 90 67 222 118 350 6 15 14 24 18 20 4-4 31-76 60-160 47-137 55-153 80-162 16-5 31-7 33-4 3 2-6 37-19 76-33 95-89 311-108 416-30 161-19 249 65 506 41 125 43 135 42 250-1 94-7 141-26 217-29 110-43 142-51 118"/><path d="m3968 2294c-31-13-92-29-135-36-43-6-79-12-81-13-6-4-28-205-22-205 4 0 24 29 45 65 33 57 43 66 79 76 22 5 64 17 93 25 28 7 57 14 65 14 7 0 29-25 48-55 32-50 50-67 50-48 0 24-66 203-75 202-5-1-36-12-67-25"/><path d="m4896 1874c-19-96-28-178-33-324-7-203-2-224 108-440 54-106 83-175 91-217 6-35 15-63 19-63 4 0 15 20 24 45 26 66 16 118-48 252-75 157-100 291-103 540-2 167-3 173-27 204l-25 32-6-29"/><path d="m3800 1870c0-23 57-69 94-76 30-5 44-2 64 13 46 34 40 50-20 58-29 3-72 9-95 12-30 4-43 2-43-7"/><path d="m5093 688c0-74-7-153-17-198-9-41-16-78-16-82 0-5 18-8 40-8 49 0 47-9 55 228l5 182h-33-33l-1-122"/></g></svg>