<svg xmlns="http://www.w3.org/2000/svg" width="651.25" height="1200" viewBox="0 0 521.000000 960.000000"><g transform="matrix(.1 0 0-.1 0 960)"><path d="m1945 9153c-75-9-176-38-239-70-166-84-260-261-241-458 11-126 46-330 58-347 7-9 34-41 61-72l48-56-6-122c-9-155-24-265-42-300-20-38-72-71-183-115-104-41-137-68-294-246-38-43-132-126-215-191-181-141-216-174-248-237-50-99-65-217-55-424 3-69-1-98-31-205-49-174-69-292-75-457-7-171-3-188 85-393 66-153 67-156 67-245 0-53-10-143-24-220-43-230-31-558 26-720 13-36 12-41-3-50-169-100-256-211-323-410-87-261-79-527 24-741 40-83 126-182 191-220 52-30 136-41 187-25 33 11 77 56 77 78 0 4-46 8-102 8-87 0-110 4-145 22-105 56-192 227-215 425-21 173 24 423 99 558 39 68 218 263 237 257 20-7 27-79 35-332 7-221 11-263 35-362 14-62 35-174 46-249 10-74 25-143 31-152 65-86 119-114 285-147 70-14 129-23 132-21 2 3-5 21-17 40-28 45-97 78-224 106-114 25-109 18-126 165-16 132-38 238-63 305-18 47-22 90-28 290-8 234-8 235-53 418-63 249-70 312-64 510 4 142 12 204 51 415 25 137 46 252 46 255 0 3-16-10-36-29-20-18-38-29-40-24-23 60-81 227-101 290-33 107-33 190 0 409 15 98 27 191 27 207 0 38 17 37 74-6 26-21 46-30 46-23 0 7-11 69-25 138-35 175-42 316-21 413 14 63 25 87 63 133 68 84 191 175 330 246 121 62 123 63 123 98 1 95 90 187 289 300 87 49 137 83 146 100 33 65 47 154 47 306-1 83-2 155-3 160-5 29 6 20 49-37 27-35 63-92 81-126 39-73 127-160 197-196 79-40 187-68 286-75l91-7 17-63c10-35 25-81 35-102l17-38-35-54c-54-81-56-81-194-52-65 14-146 28-181 32l-63 7-4 57c-2 33-14 80-28 110-26 57-135 208-149 208-11 0-2-32 20-75 32-63 121-298 116-306-3-5-13-9-22-9-9 0-79-10-154-22l-138-21v-32c0-17 2-34 5-37 3-3 70 8 148 24 182 38 255 39 377 5 91-26 193-35 215-19 6 4 26 31 45 61 41 65 95 93 233 122 157 32 320 20 456-35l54-21 2-140c3-146 21-261 56-362 36-104 38-96-16-73-26 11-50 19-52 16-3-2 5-7 16-11 12-3 21-11 21-17 0-6-16-62-36-124-36-112-37-114-63-106-27 7-86 8-261 2-104-4-131 2-211 47-3 2-10-13-16-32l-11-36 56-25c107-48 130-50 225-25 124 33 164 31 199-8 15-17 28-40 28-50 0-11 14-88 32-173 42-209 44-336 6-427-26-61-100-190-137-240-18-23-22-24-77-15l-57 9-13 64c-21 100-56 211-65 205-5-3-9-31-9-62-1-78-24-204-44-235-24-35-56-45-172-50-64-3-112-11-131-21-51-26-104-29-177-11-37 9-70 15-72 12-10-9 70-76 120-101l48-25 67 33c54 27 81 34 152 38 91 6 156 28 215 73l32 25 65-29 65-29 39 48c56 72 63 67 65-50 1-55 2-108 2-117 1-15-6-17-34-15l-35 4 32-34c50-52 70-133 57-234-6-53-9-58-52-85-59-37-163-71-342-111-174-39-250-40-410-9-63 13-176 26-250 31-186 11-284 44-356 122-31 33-31 33-42 203-16 226-43 337-108 437-10 15-15 30-12 33 14 14 159 25 251 19 53-4 97-3 97 0 0 11-94 116-103 116-5 0-35-15-66-34l-58-34-67 39c-37 21-70 39-72 39-2 0 3-14 11-30 9-17 13-34 11-39-3-5-29-11-57-15-49-7-51-8-44-33 3-14 33-87 67-162 90-204 87-189 89-400 1-218 2-214-107-362-35-48-64-89-64-93 0-4 35 17 78 47 42 30 91 61 108 70 27 14 32 23 38 67 4 27 9 50 12 50 3 0 20-11 38-25 75-57 236-103 436-125 58-7 132-18 165-25 187-41 322-26 646 76 70 21 133 39 140 39 8 0 48-33 88-74l74-75-6-88c-4-48-16-124-27-169l-20-80 65-148c84-187 130-326 149-443 17-106 38-158 88-224l35-46-56-25c-31-14-109-64-174-112-115-85-213-141-291-166-64-20-171-14-318 19-76 17-147 31-158 31-23 0-19 19 17 68 36 48 86 77 198 112 55 18 108 40 117 49 32 31 87 147 113 235 14 49 23 91 21 93-7 7-81-91-137-183-29-47-62-92-74-99-11-7-65-25-119-40-55-15-118-35-141-45-38-16-44-23-54-67-6-26-15-87-21-136-13-127-18-133-145-199-137-71-145-72-134-15 44 234 1 510-107 685-71 113-174 169-318 173-54 2-72-3-113-26-157-92-290-322-329-568-20-125-14-350 11-447 31-116 88-224 156-295 116-121 207-143 335-81 137 65 252 204 320 385l33 86 95 3c87 2 96 1 96-15 0-36-48-289-70-371-12-45-42-120-66-165-125-234-151-300-273-679-31-95-72-197-105-260-108-202-156-364-159-533-2-67 3-102 16-137 33-85 36-77 68 177 12 94 32 207 45 253 27 92 78 202 95 202 8 0 10-67 7-222l-4-223-43-110c-23-60-54-141-67-180-25-70-54-229-54-295v-35l49 3 50 4 6 56c15 139 38 239 75 339 76 200 75 195 72 520-3 342-3 347 109 680 53 161 84 233 138 332 115 208 134 269 155 502 14 149 27 203 62 257 14 21 17 21 42 8 44-23 97-85 157-186 32-52 70-113 85-136 40-57 57-120 75-266 17-141 21-154 125-378 40-85 84-181 98-212 15-32 30-58 33-58 13 0 39 81 39 119 0 45-26 123-69 209-55 110-71 160-86 286-8 68-22 145-30 172-26 89-207 369-337 524-33 40-57 74-54 77 2 3 33-6 68-20 179-72 272-83 406-52 113 27 281 114 390 203 29 24 55 42 56 40 2-2 8-95 15-208 6-113 14-240 18-283l6-79-43 3c-49 4-46 8-79-106-27-92-79-179-110-183-59-9-121 46-174 154-21 43-37 64-47 62-18-4-18-3 21-106 35-94 82-162 121-176 38-13 101 8 147 49 21 19 58 70 82 114 24 44 48 79 52 78 13-4 67-146 73-192 3-22-3-94-14-160-41-243-47-303-46-485 0-155 4-202 23-290 21-94 24-145 31-485 9-381 12-419 51-551 18-61 30-80 73-122 46-45 56-50 108-55 32-3 60-2 62 2 2 3-24 30-59 59-67 57-89 95-120 217-19 74-24 158-29 530-4 257-8 307-31 445-25 144-30 214-28 415 1 147 5 183 30 294 29 133 28 162-16 305-29 92-31 108-31 256 0 169-15 387-31 459-9 39-8 46 8 54 35 20 83 79 95 118 12 40 11 40-30 77-51 46-82 98-82 138 0 58-47 217-118 399-111 285-109 276-84 381 39 164 35 201-32 303-86 129-99 183-116 475-13 232-10 248 61 444 67 182 75 236 54 348-9 49-28 134-42 189-32 129-34 225-5 282 12 23 26 44 31 47 4 3 17 37 27 76 10 38 21 70 25 70 4 0 18-19 32-43 34-57 122-139 184-171 28-14 80-33 115-42 34-9 68-18 75-20 31-8-41-162-153-327-42-61-89-137-105-169-31-61-63-178-49-178 5 0 20 25 34 55 43 95 84 145 296 360 236 240 257 265 305 366 35 75 70 199 56 199-5 0-25-26-46-57-38-57-199-279-216-298-9-9-68 50-69 70 0 6 15 16 33 24 57 25 162 142 200 223 53 112 70 193 70 338 1 132-10 208-44 311-17 50-18 64-7 70 58 38 329 121 344 106 5-4 124-461 124-473 0-3 16 8 35 23 20 16 33 34 31 43-2 8-24 89-49 180-25 91-49 183-53 205-9 39-10 40-59 47-27 3-76 7-107 7-31 1-59 5-62 10-8 12 45 140 86 208 37 62 181 203 206 203 26 0 145-64 206-110 143-108 221-285 233-526 10-198-39-355-147-464-81-83-143-95-284-54-27 8-50 13-52 11-17-18-76-245-115-442-54-271-92-399-162-546-55-115-118-199-253-339l-104-107-73-6c-61-5-76-3-97 14-51 39-261 179-269 179-5 0-32 38-60 85-55 89-78 108-67 54 3-17 6-57 6-89 0-51 2-58 27-71 15-8 81-55 148-104 133-100 214-141 296-151 53-6 56-5 134 47 260 174 475 534 531 888 23 146 86 468 94 481 6 10 16 9 45 0 100-33 246 17 331 114 88 100 122 212 131 423 11 277-46 456-195 614-86 92-148 122-251 123-67 1-85-3-142-31-121-60-175-136-228-325l-28-103-64-12c-35-6-86-14-114-17l-50-7-18 45c-24 59-113 141-206 190l-73 38-64-16c-208-53-280-121-349-333-9-29-20-53-24-53-5 0-47 18-95 41-48 22-112 49-143 60l-56 19-126-25c-113-23-214-49-263-70-16-6-18 1-18 84 0 62 4 91 11 91 7 0 54-13 106-30 110-35 174-38 221-10 60 37 44 45-124 65-149 17-156 19-151 39 3 12 17 62 31 111 45 153 79 367 80 495 0 96-5 137-32 250-18 74-37 167-42 205-14 93-48 161-115 224-78 74-144 101-268 112-103 8-167 9-222 2m411-140c45-43 90-96 102-118 11-22 38-130 61-241 32-156 41-222 41-300 0-110-26-280-65-422-14-51-25-95-25-98 0-2-30-19-67-37l-67-34-140 47c-187 63-224 81-268 126-20 22-55 78-78 125l-41 87-107 68c-59 37-109 69-111 71-2 1 8 50 23 109 16 58 26 107 23 110-2 2-15 1-28-4-13-5-36-12-51-16l-28-6v72c0 240 79 382 262 472 96 48 183 64 348 65l136 1 80-77m1252-1213c108-54 205-155 261-272 63-132 76-191 75-358 0-130-3-154-27-225-89-269-255-364-449-258-101 55-193 197-239 369-29 110-36 303-15 404 19 93 72 201 128 265 48 55 133 114 164 114 12 1 58-17 102-39m-1697-3980c124-122 161-239 162-500 0-174-15-268-64-385-53-128-181-267-278-301-83-30-188-9-259 51-49 42-113 162-144 271-20 68-23 101-22 234 1 133 4 168 26 251 32 119 82 228 136 295 44 56 138 131 229 181l57 32 45-32c25-18 76-61 112-97"/><path d="m2404 7043c42-138 60-227 60-308 1-49-5-106-12-125-12-34-17-37-125-73-111-37-174-69-252-126-48-36-137-61-218-61-58 0-60 1-170 83-62 46-134 103-162 127l-50 43-3-31c-4-37 25-97 65-133 35-33 163-118 223-150 37-19 60-23 125-23 100 1 171 26 245 90 62 53 96 71 207 109 103 35 139 65 183 151 31 61 35 76 34 144-1 93-27 163-89 243-45 56-72 74-61 40"/><path d="m1458 7023c-23-6-110-169-141-263-27-84-43-190-27-190 12 0 79 99 112 165 26 53 118 277 118 288 0 8-34 7-62 0"/><path d="m4120 6705c0-6-9-66-20-134-29-178-34-258-21-335 12-71 29-122 36-114 12 12 45 273 45 359 0 99-15 207-31 224-6 6-9 6-9 0"/><path d="m2755 6420c-33-22-79-45-103-52l-43-11 29-31c47-49 64-92 66-165l1-66-84-3c-81-3-85-4-130-42-25-21-74-52-108-69-43-22-73-46-100-80-21-28-44-50-50-51-7 0-61 29-119 65-59 36-110 65-115 65-12 0 7-46 33-82 28-40 100-85 167-104 53-16 54-16 75 9 33 39 111 94 153 107 21 7 54 27 73 45 22 20 54 37 85 44 28 7 80 26 118 43l67 31 88-12c48-7 125-21 171-32 46-10 86-17 88-15 2 2-11 21-29 42-47 53-103 75-212 81l-92 6-37 81c-20 44-37 86-37 91 0 6 24 29 54 53l54 42 68-30c37-17 72-29 77-27 16 5-103 107-126 107-12 0-49-18-82-40"/><path d="m2289 6243c-81-104-145-190-143-192 2-2 47 22 101 55 60 36 102 69 112 87 34 62 105 148 147 179 24 17 41 35 37 39-5 4-30 10-58 13l-50 6-146-187"/><path d="m1041 6335c-46-14-85-26-88-28-2-3-3-36-1-75l3-70 105 99c116 109 115 112-19 74"/><path d="m1234 6282l-41-16 45-93 45-94-12-167c-6-92-11-232-9-312l2-145-36-90c-20-49-54-133-76-186-40-92-68-209-51-209 5 0 26 31 46 70 21 38 41 70 45 70 11 0 49-111 68-200 42-202 34-395-22-565-30-92-32-110-32-225 0-139 16-216 64-309 15-31 40-67 55-81l28-25-6 25c-74 324-80 425-34 582 67 225 58 457-29 752l-36 119 37 126c20 69 51 178 70 241l33 114-28 36-29 36 15 100c17 126 17 211 0 295-15 69-54 170-65 168-3-1-25-8-47-17"/><path d="m1513 6198l-53-10v-68c0-65 2-70 31-91 42-29 140-59 197-59 45 0 157 22 168 33 8 7-39 77-51 77-5 0-28-7-50-15-52-19-139-19-175 0-31 16-72 63-65 75 3 4 31 18 62 30 32 13 62 27 68 32 12 10-65 8-132-4"/><path d="m610 5918c0-7 7-56 15-108 8-52 15-116 15-142 0-42 3-48 24-54 54-13 61-5 61 76 0 87-22 155-67 206-31 35-48 43-48 22"/><path d="m2135 5700c-33-4-92-8-132-9-79-1-95-11-67-43 41-44 118-61 177-39 34 13 97 70 97 87 0 8-3 13-7 13-5-1-35-5-68-9"/><path d="m1690 5600c0-94 101-166 246-177 51-4 74-2 74 5 0 18-283 202-311 202-5 0-9-14-9-30"/><path d="m2220 5355c0-29 5-37 26-45 36-14 42-13 49 10 9 30-20 70-50 70-22 0-25-4-25-35"/><path d="m2778 5324c-41-29-88-112-88-153 1-24 5-22 50 29 58 65 108 150 88 150-7 0-30-12-50-26"/><path d="m2197 5238c9-49 39-105 99-184 58-77 72-84 173-84h45l-45 36c-24 20-94 88-156 150-61 63-114 114-117 114-3 0-3-15 1-32"/><path d="m3015 4834c-71-27-278-85-375-105-52-11-156-23-231-26-166-7-279 10-491 73-81 24-152 44-157 44-5 0-41-56-80-124-65-113-71-129-71-180 0-32 4-56 10-56 27 0 68 32 74 57 10 40 77 216 87 227 7 8 222-66 242-83 8-8-80-141-126-189-18-19-81-57-147-88-110-53-180-104-180-131 0-18 221 60 300 107 36 21 87 61 113 89 47 50 97 139 97 174 0 15 6 16 58 10 31-5 140-8 242-7 210 1 317 18 488 79 83 30 104 42 152 90 58 59 58 62-5 39"/><path d="m1403 4503c1-65-1-246-6-403l-7-285 24 46c51 95 61 157 61 384 0 190-2 217-22 281-13 39-29 77-37 83-13 11-14-4-13-106"/><path d="m2910 4503c-217-20-453-71-660-141-112-38-115-39-118-70-2-18 1-32 7-32 6 0 105 27 220 59 115 33 246 67 291 75 108 21 280 32 280 19 0-6-69-36-152-68-233-88-346-148-440-233-69-62-43-63 81-1 137 67 434 196 534 230l67 24v72 73l-37-2c-21 0-54-3-73-5"/><path d="m3070 4129c-94-34-285-67-535-94-297-32-537-65-549-75-15-15 77-33 169-34 50 0 155 9 235 21 80 12 217 27 305 33 165 10 249 27 320 62 69 35 152 111 118 107-5 0-33-9-63-20"/><path d="m1106 4103c-17-5-18-12-13-87 6-83 28-161 65-232 26-49 26-45 2 150-11 88-20 163-20 168 0 8-4 9-34 1"/><path d="m871 3862c-23-56 16-125 58-103 51 28 31 131-24 131-15 0-26-9-34-28"/><path d="m1367 2453c-36-135-54-245-76-473l-18-195-76-230c-93-284-112-369-110-500 1-115 14-189 79-440l46-180 34-1c19 0 34 4 34 10 0 5-20 84-44 175-114 423-107 570 46 971 23 58 44 109 48 113 4 4 24-41 45-100 21-59 53-137 70-173 36-72 74-124 75-101 0 8-29 130-65 271-88 349-97 410-79 525 7 50 29 155 49 234 33 133 34 146 20 167-9 13-24 24-34 24-15 0-23-19-44-97"/><path d="m1753 2486l-152-51-3-110c-2-60-1-113 2-117 4-5 23 28 45 72l39 79 105 36c100 33 107 34 119 18 72-102 122-151 108-105-16 49-96 227-103 228-4 0-76-22-160-50"/><path d="m2870 2077c0-1-9-65-20-142-11-77-23-203-26-280-9-175-3-198 116-440 49-99 96-205 104-235 39-142 44-339 12-475-8-33-13-62-11-65 2-3 24-4 49-2l46 4v237c0 319-5 344-90 521-76 158-79 171-111 400-17 120-20 182-16 274 6 115 5 120-19 162-22 38-34 52-34 41"/><path d="m1694 2024c5-10 12-34 16-52 5-19 10-36 13-38 17-18 157 47 157 72 0 6-26 14-57 18-32 4-76 9-97 13-36 6-39 4-32-13"/></g></svg>