<svg xmlns="http://www.w3.org/2000/svg" width="997.5" height="1200" viewBox="0 0 798.000000 960.000000"><g transform="matrix(.1 0 0-.1 0 960)"><path d="m4965 8322c-244-84-448-381-433-629 7-99 44-175 107-214 89-57 170-61 284-15 31 13 57 20 57 16 0-4 16-31 35-60l35-51-21-42c-41-81-86-124-218-206-118-75-201-145-201-172 0-5-21 8-48 30-76 65-245 131-332 131-26 0-43 11-90 60-77 79-142 110-235 110-93 0-200-24-247-55-43-29-69-30-153-10-33 8-79 15-103 15-37 0-45 4-62 32-18 30-23 49-50 183-15 72-45 104-146 157-90 47-160 62-270 56-146-7-249-69-306-186-32-65-33-69-31-187 1-66 3-130 5-143 3-22-5-25-167-66-269-68-388-123-417-189-18-43-15-121 6-185 16-47 32-65 142-163l124-111-44-42c-41-40-126-191-126-223 0-11-5-13-18-8-46 21-112 28-155 18l-45-10-4 86c-5 94-27 152-76 199-94 88-258 83-415-14-32-20-60-34-61-33-2 2-15 23-30 46-22 36-24 46-15 67 16 34 6 64-35 112-24 29-32 44-25 55 13 21 11 110-5 163-72 238-365 239-602 2-138-138-206-282-207-436 0-97 16-147 66-198 104-109 265-105 429 11 15 10 22 7 48-24 16-20 56-53 88-74l59-38-19-60c-22-72-24-189-3-248 32-89 133-159 231-159 62 0 141 23 215 61l56 30 74-40c111-59 165-71 368-80 182-9 204-7 295 25 42 15 54 26 88 80 37 58 49 68 156 130 64 38 140 87 169 111l54 44 79-73 80-72v-378c0-294-3-380-12-383-7-2-157-50-333-107l-320-104-3-98-3-98 67-71c37-40 73-75 79-79 6-4 319 94 695 217 376 123 686 222 688 220 3-2 8-41 13-87 20-196 76-308 153-308 10 0 27-25 44-62 16-35 48-87 71-116 64-81 71-104 71-249 0-70 5-146 10-167 10-45 11-42-74-251-130-319-141-472-61-877 19-95 43-242 55-327 21-147 21-156 5-221-18-74-15-159 11-260 8-30 14-100 14-156 0-89 3-106 25-145 46-81 58-114 71-201 15-103 21-115 76-162 53-46 123-80 168-82 19 0 48-6 63-13 40-16 97-14 118 5 11 10 48 19 91 24 63 7 76 12 98 37 23 26 28 28 61 19 51-13 88 0 131 45 50 52 50 84 2 130-20 18-46 57-59 84-14 32-41 66-73 92-40 34-61 64-102 148-42 83-70 124-138 198-47 50-91 107-99 124-8 21-15 93-18 200-3 93-8 194-10 226-4 52-3 58 18 67 12 5 317 125 677 266 360 141 663 260 673 266 14 7 17 23 17 106 0 53-4 102-8 107-11 17-188 125-203 125-8 0-174-63-369-140-195-76-354-138-355-137 0 1 2 229 5 506l5 503 415 147c228 81 429 155 445 163 59 31 95 86 95 144v36l68-63c37-35 99-80 137-100l70-36 3-64c2-36-4-139-12-229-22-255 4-391 101-536 49-74 79-173 107-363 20-137-1-289-60-440-74-188-70-282 16-354 43-37 87-42 189-23 125 23 194 21 281-9 40-14 78-29 84-34 6-5 52-31 101-59 83-45 98-50 195-61 58-7 120-17 137-22 18-6 61-11 95-11 72-1 123 20 183 77 34 31 37 39 32 71-10 61-89 125-172 139-39 7-144 48-214 83-19 9-69 57-112 105-46 53-121 122-187 173-61 46-120 97-132 114-47 66-62 265-39 495 20 186 13 632-12 825-26 199-26 239-3 307 18 52 18 53-9 160-33 128-63 197-104 238-16 17-81 55-144 86-96 48-130 71-214 149-88 81-116 100-238 160-76 38-178 83-227 101-50 17-90 35-90 39 0 16-97 53-239 90-80 22-202 59-271 83-103 37-134 52-176 90-46 41-60 48-143 66-109 24-113 26-143 71-13 19-40 43-60 53-26 13-62 53-126 140-84 114-112 158-112 171 0 3 14 6 31 6 17 0 78 12 136 26 83 21 116 25 161 19 138-17 164-6 208 91 12 28 42 73 65 100 61 70 90 119 149 252 29 64 54 119 56 121 2 2 16-10 33-26 69-70 173-90 279-54 268 91 482 416 441 671-16 101-56 160-133 196-99 46-224 26-350-58-33-21-65-37-71-34-33 12-127 80-140 100-15 22-15 30-1 84 20 75 20 174 2 236-32 105-119 166-235 166-37-1-89-8-116-18m180-33c93-26 154-140 140-263-3-34-9-73-12-88-5-26-6-27-34-13-51 27-74 19-135-42-65-66-114-146-114-185 0-16-10-38-21-49-18-18-21-30-17-71l5-50-46-20c-136-59-268-19-316 96-21 50-21 174 1 246 56 191 217 370 384 427 73 25 107 28 165 12m107-401c9-7 28-32 42-56 22-35 91-91 130-105 5-2-16-34-46-72-30-37-68-92-82-121-15-30-31-54-35-54-4 0-16 9-25 19-15 17-16 24-5 63 7 23 33 73 58 111 45 68 48 87 13 68-16-9-74-114-110-201-11-25-11-25-11 7-1 21-9 38-26 51l-24 19 17 53c11 35 34 72 66 107 27 30 46 56 43 59-3 3-19-2-37-11-37-19-82-87-100-150-7-25-14-45-16-45-1 0-19 9-38 21-69 40-56 89 53 192 62 59 99 72 133 45m573-69c59-16 119-83 135-149 37-153-41-362-189-510-160-159-357-197-458-88-116 124-39 427 157 612 122 115 250 164 355 135m-727-219c44-28 60-44 56-55-11-27-55-30-96-7-29 16-38 17-38 6 0-24 45-44 110-48 45-3 67-10 80-24 11-11 24-22 30-24 7-2 5-25-7-73-21-83-21-84-34-65-6 9-7 44-4 85 7 75-3 79-25 12-14-45-6-107 19-139 10-13 24-54 31-91l12-68-75-152c-55-111-101-186-170-277-52-69-101-131-109-138-10-8-24-9-49-2-57 17-115 11-236-21-65-17-125-28-139-25-23 6-24 10-24 96v90h45c24 0 55 5 69 11 39 18 60 89 25 89-5 0-9-6-9-14 0-23-24-35-82-42l-56-7-20 44c-29 66-106 162-146 183-33 18-36 22-30 52 3 17 1 41-5 53-7 12-9 21-7 21 3 0 56-14 118-31 182-50 242-91 273-187 17-53 41-77 69-66 21 8 20 14-9 54-56 76-17 132 167 244 112 67 179 133 214 211 23 49 27 53 44 43 36-23 32 0-9 55-76 104-101 150-101 187 0 71 32 76 118 20m-2026-4c125-51 180-111 198-214 6-37 20-86 30-110 22-49 23-47-63-56-131-14-218-59-356-183-44-40-88-73-99-73-29 0-103 34-131 60-76 73-105 316-52 436 35 77 113 140 206 165 62 17 196 4 267-25m973-391c60-42 141-133 151-172 4-13 4-30 0-38-5-14-9-14-42 0-45 19-127 21-122 3 3-7 22-14 44-16 37-2 159-56 170-74 3-4-4-8-15-8-12 0-21-5-21-10 0-17 31-24 51-12 16 10 22 6 49-33 60-87 80-143 80-225 0-137 37-230 156-389 30-39 54-74 54-77 0-3-21-4-47-2l-48 3v48c0 63-19 55-23-10l-3-50-77-22c-109-32-304-115-391-167l-73-44-45 15c-25 9-71 18-102 21-58 7-166-10-176-27-14-21 8-25 64-11 55 13 67 13 136-3 76-18 88-27 58-43-37-21-175-170-197-213l-23-46-27 63c-16 35-37 75-47 88-27 35-198 162-299 224-91 55-112 63-290 112-63 17-120 33-127 35-8 2-2 34 19 102 41 135 44 142 72 153 30 11 41 29 28 42-14 14-72-22-93-59-10-15-29-67-44-116-53-176-136-266-377-408-74-43-116-75-134-101-15-21-31-38-35-38-17 0-9 24 18 52 25 27 26 28 6 28-27 0-60-41-73-91-15-55-44-62-245-55-182 6-259 20-368 69l-68 30 64 66c91 93 155 193 182 286 12 38 15 40 61 47 79 13 123 1 186-49 52-40 178-106 187-98 7 8-12 25-62 53-28 16-63 41-76 56l-24 25 23 63c43 120 115 204 210 246 19 9 71 25 115 37 87 24 97 41 23 39-27-1-48 2-48 7 0 6 10 48 21 94 17 68 29 94 60 129 54 61 126 105 219 132 97 28 102 31 197 133 52 57 94 91 135 112 62 31 232 76 327 85 78 8 230-28 262-62 12-13 26-24 31-24 16 0 8 29-13 43-20 15-20 15 8 34 57 40 157 63 259 60 64-2 76-6 129-42m-1435-202c21-28 89-73 111-73 36 0 19-17-28-30-85-22-171-70-218-121-46-49-84-118-85-151 0-10-4-18-10-18-5 0-56 38-112 85-56 47-107 84-112 82-27-9-7-33 98-122 110-92 116-99 116-135 0-35-3-39-41-54-41-17-42-17-68 7-14 13-71 63-126 111-110 97-134 135-134 221-2 109 54 142 358 220l206 52 15-27c8-14 22-35 30-47m-1556-60c58-40 86-100 86-185v-68h-37c-21 0-49-6-63-13-20-10-32-10-60 0-19 7-46 12-59 13-57 1-181-186-181-274 0-49 27-97 69-122 17-10 31-22 31-26 0-5-21-21-46-37-95-61-222-67-296-15-64 45-83 91-82 199 0 99 20 161 85 272 73 124 235 252 355 282 68 17 152 6 198-26m-91-293c7 0 20-7 29-14 16-12 15-16-22-55-72-76-141-163-137-174 8-24 25-15 57 30 42 59 118 141 142 154 20 11 64-8 88-35 11-14 5-24-42-69-72-69-119-140-125-188-3-21-2-39 3-39 5 0 26 33 46 73 22 41 60 94 91 125l53 52 37-31c20-17 37-36 37-42-1-7-20-26-44-44-47-34-106-115-106-146 0-31 23-14 51 36 28 52 86 117 105 117 6 0 16-6 22-13 9-10 0-25-37-65-39-41-76-93-137-190-1-2-17 3-35 11-19 8-87 66-152 129-89 88-117 122-117 141 0 43 90 207 125 228 16 11 36 17 43 14 8-3 19-5 25-5m186-15c16-14 40-42 52-61 19-32 20-37 7-51-14-13-19-10-44 28-16 24-48 52-72 65-37 20-40 24-25 33 29 17 49 13 82-14m496-176c170-46 198-269 64-496-56-94-171-203-263-247-160-79-298-57-358 57-32 61-30 187 4 278 80 216 309 411 488 418 14 0 43-4 65-10m3045-377l25-16-50-9c-67-11-81-27-24-27 50-1 90-10 169-39 30-11 75-25 99-31 26-7 56-24 75-44 25-26 70-48 221-104 105-39 245-85 313-103l124-33-84-17c-115-23-211-70-250-123-39-52-84-150-103-223-20-76-58-351-51-369 3-9 17-13 35-12 39 4 44-13 8-25-25-8-38-1-140 76-61 46-124 92-140 102-34 22-66 16-159-27l-68-31 6-66 7-66-31 41c-69 94-138 125-318 143-134 13-245-8-310-60-91-72-155-189-163-299l-6-75-18 32c-27 51-53 302-38 381 6 35 14 98 18 140 6 86-10 133-61 181-33 31-33 15-1-45 22-41 36-118 19-101-15 15-54 126-75 213-20 84-22 100-10 142 41 154 327 368 626 468 160 53 297 63 355 26m-1398-310c186-154 346-285 356-291 12-6 24-35 36-88 10-43 32-111 48-152 16-40 28-77 26-81-2-4-100 78-218 182-118 104-262 231-320 282-58 51-183 161-278 246l-174 152 32 33 32 33 62-17c57-16 85-38 398-299m-132 214c278-167 313-192 370-264 33-41 100-161 100-177 0-3-44 32-97 78-54 46-179 150-278 232-99 81-187 154-195 162-26 26 37 6 100-31m-8-372l38-34 2-232c3-226 4-233 23-232 11 1 99 28 196 59l177 58 88-79c49-43 91-82 92-86 7-15-8-58-19-58-6 0-313-99-682-220l-672-220-57 57-58 57v72c0 70 1 72 28 79 15 3 165 51 335 106l307 100v375 376l83-73c45-39 99-87 119-105m2706-43c219-91 325-155 427-261 50-52 80-72 172-116 107-50 115-56 150-111 41-64 91-202 100-274 5-42 1-54-32-107-41-68-58-142-32-142 9 0 19 6 24 13 4 7 13-34 19-93 7-58 17-145 23-195 14-118 13-329-3-595-13-215-8-386 13-497 18-94 40-122 163-213 62-46 162-132 223-190 117-112 154-133 320-179 78-21 155-74 155-105 0-13-6-29-14-35-11-9-15-6-19 17-6 31-40 52-85 52-15 1-51 9-81 19-53 18-87 18-75 0 3-5 15-9 27-9 12 0 36-9 52-20 19-13 47-20 78-20 41 0 49-3 59-25 26-57-52-101-137-76-79 24-121 30-203 31-94 0-129 13-163 62-22 30-24 31-29 11-5-21-9-19-90 29-129 77-198 105-245 99-5-1-3-6 5-11 12-7 8-10-15-11-16 0-70-4-120-9-110-10-163 1-202 42-25 26-28 36-27 91 1 51 8 77 42 148 23 47 48 112 57 145 34 128 29 326-11 485-18 71-17 81 2 47 19-37 44-37 44 0 0 31-12 50-81 134-58 69-103 161-126 254-24 98-23 314 1 472l19 122h56c106 0 110 35 4 42-82 6-183 56-288 144-44 37-103 78-131 91-50 23-74 27-322 53-118 13-156 24-267 81l-81 41 18 116c25 172 45 250 79 322 50 107 91 140 214 172 112 29 186 20 333-41m-2587-58c8-9 68-64 134-121 66-58 123-108 128-112 6-5-264-100-287-100-3 0-6 79-6 175 0 96 4 175 9 175 5 0 15-8 22-17m1711-536c137-115 199-138 266-97 32 20 32 20 82 0 92-36 207-60 342-69 174-13 171-12 166-73-5-52-31-88-80-114-22-11-911-330-941-337-4-1-10 37-13 86-4 67-2 88 8 92 7 2 194 63 416 135 281 92 402 136 402 146 0 8-6 14-13 14-8 0-193-59-412-131-313-103-400-128-406-117-5 7-9 32-9 55 0 24-6 78-14 120-15 82-40 313-34 318 10 9 116 44 133 44 11 0 59-32 107-72m-468 29c130-64 209-230 236-495 17-175 13-289-12-341l-22-45-4 35c-5 46-17 58-32 30-8-16-10-52-5-119l6-96-37-60c-66-106-84-147-84-191 0-96-26-172-93-271-69-102-149-363-151-492-1-81 18-111 21-33 5 111 91 370 162 489l40 66 6-34c15-86 22-229 14-289-9-61-27-105-99-238-39-71-43-129-31-432 12-312 15-326 110-439 96-112 133-165 170-239 18-35 58-89 92-124 33-33 69-78 79-99 11-21 26-42 33-46 22-13 47-56 47-79 0-27-53-74-83-74-12 0-37 9-55 20-44 27-49 26-66-15-17-41-47-55-115-55-26 0-56-7-67-15-25-19-64-19-100 0-16 8-39 15-52 15-37 0-171 69-190 98-11 18-16 42-15 77 3 69-11 118-60 200l-41 70 2 102c2 82-2 113-18 155-23 62-24 66-8 50 7-7 18-12 25-12 23 0 14 39-17 72-35 36-36 49-14 126 28 95 14 272-41 542-75 358-73 518 7 770 16 52 33 99 38 103 4 5 10-11 14-33 7-47 61-193 84-227 8-13 20-23 26-23 7 0-5 51-32 133-49 148-55 213-27 298 19 57 20 81 10 245-5 78-4 117 4 133 16 29-12 90-90 198-63 87-94 152-124 261-23 82-11 139 45 222 79 116 146 141 362 136 82-3 105-7 152-30m-590-361c6-28 5-29-9-11-8 11-15 29-15 40 0 28 16 8 24-29m953-914c-6-554-6-557 40-533 32 17 718 285 728 285 6 0 43-21 83-47l73-46-3-76-3-76-660-259c-363-142-662-259-664-259-2 0-1 24 1 53 3 36 21 86 61 167 78 159 92 228 82 400-16 284-7 366 59 503 25 52 52 125 60 163 9 38 27 96 40 129 14 33 26 67 26 76 0 8 12 20 28 26 59 24 56 60 49-506"/><path d="m5028 8215c-141-53-304-244-369-434-26-75-25-231 2-231 4 0 6 29 2 64-7 81 9 149 58 250 50 100 94 160 170 230 79 74 148 109 219 112 30 1 56 6 58 11 4 14-101 13-140-2"/><path d="m5702 7762c-23-9-70-37-103-62-175-128-319-415-280-557 18-67 28-51 23 40-3 68 0 93 20 148 42 113 96 199 182 285 100 100 167 137 248 138 39 1 58 5 58 14 0 18-96 14-148-6"/><path d="m5008 6938c-37-73-97-144-153-184-16-12-27-25-24-28 14-14 59 8 98 47 47 47 124 188 119 217-2 14-15-2-40-52"/><path d="m4803 6625c-18-8-33-18-33-24 0-20 22-23 53-8 18 9 40 18 50 21 10 3 15 10 12 16-9 14-44 12-82-5"/><path d="m3002 7503c-12-10-45-63-74-118-30-55-66-118-81-140-29-42-33-60-17-70 16-10 98 114 120 181 25 74 57 124 88 140 35 17 38 24 10 24-14 0-35-8-46-17"/><path d="m3716 7071c-4-5 5-22 18-38 24-27 26-28 131-28 105 0 106 0 83 19-19 15-35 18-96 14-67-5-77-3-102 19-16 13-31 19-34 14"/><path d="m3649 7053c-1-5-1-12 0-16 4-23-22-46-61-52-54-10-170-49-208-72-17-9-48-43-70-74-81-115-140-151-258-156-46-1-88-5-93-9-24-15 10-24 90-24 120 0 165 23 273 141 92 100 145 132 247 150 36 7 72 20 82 30 20 20 27 89 9 89-5 0-11-3-11-7"/><path d="m3750 6931c30-52 21-65-89-130-97-57-144-102-139-133 5-28 22-22 33 13 15 44 46 66 113 80 76 16 87 23 106 63 22 46 20 88-5 120-31 39-43 31-19-13"/><path d="m3850 6926c0-42 103-82 185-71 40 5 55 3 65-9 7-9 16-16 21-16 15 0 10 19-11 40-17 17-33 20-101 20-62 0-87 4-107 18-46 32-52 34-52 18"/><path d="m4146 6822c-3-6 14-26 39-47 35-28 45-43 45-66 0-30 17-40 26-14 14 36-91 157-110 127"/><path d="m3903 6810c3-8 17-42 31-75 40-94 32-170-21-194-13-6-44-11-69-11-58 0-112-46-119-102-6-52-20-75-58-95-34-17-23-29 18-19 28 7 75 80 75 117 0 46 34 69 102 69 26 0 59 9 83 23 34 19 41 29 47 66 9 51-5 122-32 166-22 36-67 79-57 55"/><path d="m2770 6666c-65-24-195-103-198-120-5-26 23-19 106 27 109 62 165 82 190 68 11-6 28-11 37-11 21 0 31 30 14 41-21 13-109 10-149-5"/><path d="m4010 6637c0-21 44-57 71-57 13 0 42 5 64 11 33 9 45 8 72-6 32-18 63-15 63 6 0 6-6 9-12 6-7-2-24 4-37 14-26 21-86 25-138 10-26-8-37-6-58 11-19 14-25 16-25 5"/><path d="m3330 6618c-30-12-72-22-92-22-44-1-51-16-17-33 29-15 64-7 105 24 18 13 45 23 63 23 22 0 31 4 29 13-7 19-29 18-88-5"/><path d="m3510 6610c-8-14-9-60-4-138 6-110 5-119-15-144-12-14-35-29-51-33-46-10-37-29 11-22 48 6 84 37 99 83 9 27 8 49-9 114-15 59-18 88-11 106 19 50 3 77-20 34"/><path d="m4020 6555c0-3 11-22 24-43 13-20 27-55 31-77 8-49 30-85 51-85 13 0 14 3 4 14-6 8-18 43-26 78-10 40-25 73-41 90-25 26-43 35-43 23"/><path d="m4277 6554c-3-4 0-16 8-28 9-12 15-43 15-74 0-70 24-67 28 4 3 64-27 122-51 98"/><path d="m2970 6525c0-22 38-39 100-45 50-5 55-7 58-32 5-41-47-93-108-108-61-15-56-35 6-26 37 5 45 2 59-16 8-13 15-41 15-63 0-22 9-59 20-82 15-34 24-43 45-43 32 0 34 27 1 39-26 11-36 36-36 97 0 27-7 51-21 68l-21 27 27 29c26 27 28 28 61 14 39-16 110-19 119-4 4 6-6 10-23 10-68 0-112 34-112 85 0 21 56 37 71 19 16-20 29-18 29 5 0 29-24 32-123 16-89-14-93-14-119 5-32 24-48 25-48 5"/><path d="m3280 6487c0-8 12-25 27-37 30-23 66-22 132 6 53 22 26 37-34 19-51-16-79-13-107 13-16 14-18 14-18-1"/><path d="m4147 6363c7-17 65-27 117-19 29 5 52 3 65-6 27-16 39-2 18 20-14 14-36 17-111 17-71 1-93-2-89-12"/><path d="m2560 6351c-5-11-10-36-10-56 0-42-46-147-85-193-15-18-45-42-66-53-71-36-38-54 36-20 44 20 101 78 116 120 21 53 49 189 43 205-8 21-21 20-34-3"/><path d="m4080 6326c-6-18-22-29-52-37-45-13-98-54-98-76 0-20 14-16 40 12 17 18 34 25 61 25 43 0 79 35 79 76 0 31-18 31-30 0"/><path d="m4130 6320c0-5 9-14 20-20 10-6 33-39 50-75 21-43 37-65 49-65 9 0 21-4 27-9 15-15 124-18 124-3 0 8-19 12-63 12-56 0-66 3-90 28-15 15-27 37-27 48 0 24-56 94-76 94-8 0-14-4-14-10"/><path d="m4350 6295c0-8 5-15 10-15 20 0 50-41 50-67 0-16 4-35 10-43 14-22 24 12 16 54-11 56-86 118-86 71"/><path d="m3500 6248c1-21 43-66 71-76 38-15 129 1 129 22 0 9-17 13-64 12-57-1-68 2-93 27-32 30-43 34-43 15"/><path d="m3304 6181c21-20 151-24 151-3 0 9-24 14-84 16-77 4-82 3-67-13"/><path d="m3719 6184c-11-13-11-15 2-13 7 2 28-11 46-29 40-41 88-43 131-8 20 18 36 23 53 19 23-5 23-5 7 12-16 17-18 17-58-4-54-28-73-27-113 9-39 34-49 36-68 14"/><path d="m4227 6131c-2-11-23-29-46-40-36-19-57-51-32-51 20 0 101 72 101 90 0 26-16 26-23 1"/><path d="m3968 6125c-9-10 12-89 29-107 14-16 43-25 43-13 0 2-11 21-25 41-14 20-25 47-25 60 0 23-10 31-22 19"/><path d="m1820 5894c0-21 82-55 149-61 45-4 66-1 105 17 46 22 66 44 52 57-3 4-30-3-59-15-65-27-117-28-190-3-49 17-57 18-57 5"/><path d="m2148 5712c-69-19-75-32-15-32 41 0 87 21 87 41 0 11 1 11-72-9"/><path d="m875 6893c-151-62-325-254-385-426-26-74-27-207-1-207 3 0 6 37 6 83 0 74 4 89 38 161 76 160 192 288 317 349 53 26 76 32 128 31 81-1 78 20-4 23-36 2-74-4-99-14"/><path d="m1520 6397c-79-33-135-74-215-159-143-152-215-331-182-452 13-45 22-20 18 49-4 87 26 172 98 283 69 104 171 201 257 243 51 26 76 32 129 32 65 0 85 9 43 21-43 11-93 5-148-17"/><path d="m4435 6008c-11-6-38-28-60-49-45-43-71-54-169-75-101-21-157-56-260-165-99-104-155-194-159-255-4-65 18-47 63 53 38 85 56 110 129 186 99 102 128 119 236 142 77 15 149 54 233 124 35 30 25 59-13 39"/><path d="m4801 5903c-81-21-394-139-486-182-103-49-145-84-145-122 0-16 2-29 5-29 3 0 34 24 68 53 70 59 130 87 383 177 194 70 254 95 254 109 0 14-12 13-79-6"/><path d="m4875 5811c-28-18-127-41-238-57-39-5-64-18-124-66-71-57-133-88-175-88-11 0-18-5-15-12 7-20 97-14 142 10 22 11 58 37 80 58 53 49 75 57 235 89 75 15 143 33 152 42 44 40-2 59-57 24"/><path d="m4996 5706c-19-29-45-77-57-107-25-64-38-202-20-214 18-11 22-3 32 77 16 117 28 158 65 219 18 31 34 62 34 68 0 24-20 9-54-43"/><path d="m4345 5404c-24-25-1-44 52-44 85 0 147-48 202-158 42-82 66-110 83-94 10 10 8 22-17 67-16 30-51 84-77 120-40 54-60 72-111 96-70 33-108 37-132 13"/><path d="m6294 5217c-4-11 6-49 26-100 29-72 34-95 36-187 2-70 6-106 14-108 25-9 31 25 24 138-7 124-26 193-68 245-22 27-25 28-32 12"/><path d="m5902 4968c-14-14-16-38-2-38 5 0 34-9 63-20 37-14 74-39 114-79 69-67 126-91 214-91 44 0 58 4 63 17 11 27-8 35-57 23-64-17-98-3-187 76-108 95-184 136-208 112"/><path d="m6467 3004c-4-4-7-17-7-29 0-13-7-39-15-58-33-80-12-113 68-110 67 3 88 23 25 23-50 0-83 21-75 49 27 92 30 112 21 121-6 6-13 7-17 4"/><path d="m4451 4476c-22-29-61-71-87-94-74-63-38-104 38-42 42 34 118 146 118 172 0 33-29 18-69-36"/><path d="m4586 4503c-14-14-4-39 39-91 38-45 45-61 45-97 0-43 19-73 40-60 38 23-32 195-99 241-10 8-21 10-25 7"/><path d="m4380 3927c0-42 63-80 126-75 32 2 40 7 42 27 3 22 1 23-30 17-26-5-46 0-82 19-54 29-56 29-56 12"/><path d="m4317 2272c-15-32-52-90-82-130-30-39-55-74-55-77 0-3 9-5 20-5 33 0 137 162 156 243 11 46-9 30-39-31"/><path d="m4657 1543c-14-13-6-33 13-33 13 0 25-12 34-35 14-34 38-46 51-25 9 14-21 65-49 84-27 17-39 20-49 9"/><path d="m4374 1516c-4-10-2-22 4-28 19-19 272-8 272 12 0 20-32 32-67 25-55-10-112-10-160-1-36 7-44 6-49-8"/></g></svg>