<?xml version="1.0" encoding="utf-8"?>
<!-- Generator: Adobe Illustrator 16.2.0, SVG Export Plug-In . SVG Version: 6.00 Build 0)  -->
<!DOCTYPE svg PUBLIC "-//W3C//DTD SVG 1.1//EN" "http://www.w3.org/Graphics/SVG/1.1/DTD/svg11.dtd">
<svg version="1.1" id="Layer_1" xmlns="http://www.w3.org/2000/svg" xmlns:xlink="http://www.w3.org/1999/xlink" x="0px" y="0px"
	 width="36px" height="36px" viewBox="0 0 36 36" enable-background="new 0 0 36 36" xml:space="preserve">
<path fill="#FFFFFF" d="M30.251,25.003h-4.204v2.807h4.204 M30.251,29.207h-8.406V32h8.406 M30.251,20.8h-8.406v2.807h8.406
	 M30.251,8.204h-4.204v2.807h4.204 M30.251,4h-8.406v2.807h8.406 M30.251,16.61h-4.204v2.793h4.204 M30.251,12.407h-8.406V15.2
	h8.406 M8.542,11.011h4.204c1.548,0,2.793,1.244,2.793,2.792v7.702h-2.102V32H7.837V21.505H5.749v-7.702
	C5.749,12.254,6.994,11.011,8.542,11.011 M10.645,4c2.488,0,3.733,3.028,1.991,4.798c-1.771,1.742-4.799,0.498-4.799-1.991
	C7.837,5.258,9.096,4,10.645,4L10.645,4z"/>
</svg>
