<?xml version="1.0" encoding="utf-8"?>
<!-- Generator: Adobe Illustrator 16.2.0, SVG Export Plug-In . SVG Version: 6.00 Build 0)  -->
<!DOCTYPE svg PUBLIC "-//W3C//DTD SVG 1.1//EN" "http://www.w3.org/Graphics/SVG/1.1/DTD/svg11.dtd">
<svg version="1.1" id="Layer_1" xmlns="http://www.w3.org/2000/svg" xmlns:xlink="http://www.w3.org/1999/xlink" x="0px" y="0px"
	 width="36px" height="36px" viewBox="0 0 36 36" enable-background="new 0 0 36 36" xml:space="preserve">
<path fill="#FFFFFF" d="M32,19.848c0,3.867-1.573,7.373-4.106,9.906c-0.547,0.533-1.428,0.533-1.975-0.013
	c-0.547-0.547-0.547-1.427,0-1.974c2.027-2.04,3.281-4.826,3.281-7.919c0-1.4-0.267-2.8-0.76-4.053l1.692-2.947
	C31.293,14.954,32,17.301,32,19.848 M18,5.848c2.534,0,4.894,0.707,6.96,1.853l-2.947,1.693C20.8,8.914,19.399,8.647,18,8.647
	c-6.188,0-11.2,5.027-11.2,11.201c0,3.093,1.239,5.893,3.267,7.919h0.015c0.545,0.547,0.545,1.427,0,1.974
	c-0.547,0.546-1.44,0.546-1.987,0.013C5.56,27.221,4,23.714,4,19.848C4,12.114,10.267,5.848,18,5.848 M18,24.047
	c-2.32,0-4.2-1.88-4.2-4.2c0-1.561,0.854-2.934,2.094-3.654l13.6-7.866l-7.746,13.413C21.039,23.114,19.626,24.047,18,24.047
	L18,24.047z"/>
</svg>
