<?xml version="1.0" encoding="utf-8"?>
<!-- Generator: Adobe Illustrator 16.2.0, SVG Export Plug-In . SVG Version: 6.00 Build 0)  -->
<!DOCTYPE svg PUBLIC "-//W3C//DTD SVG 1.1//EN" "http://www.w3.org/Graphics/SVG/1.1/DTD/svg11.dtd">
<svg version="1.1" id="Layer_1" xmlns="http://www.w3.org/2000/svg" xmlns:xlink="http://www.w3.org/1999/xlink" x="0px" y="0px"
	 width="36px" height="36px" viewBox="0 0 36 36" enable-background="new 0 0 36 36" xml:space="preserve">
<path fill-rule="evenodd" clip-rule="evenodd" fill="#FFFFFF" d="M13.534,31.75v-3.399c-0.12,0.026-0.253,0.04-0.399,0.04h-2.652
	c-3.118,0-5.639-2.533-5.639-5.651V12.621c0-3.119,2.521-5.638,5.639-5.638h2.652c1.079,0,1.945,0.879,1.945,1.946
	c0,1.079-0.866,1.946-1.945,1.946h-2.652c-0.974,0-1.746,0.787-1.746,1.746v10.118c0,0.973,0.772,1.746,1.746,1.746h2.652
	c0.146,0,0.279,0.013,0.399,0.054v-3.399c0.2-0.426,0.773-0.24,0.999,0l4.426,4.438c0.521,0.507,0.547,1.2,0,1.733l-4.426,4.439
	C14.308,31.976,13.734,32.176,13.534,31.75z M20.905,26.444c0-1.079,0.867-1.959,1.946-1.959h2.666c0.961,0,1.747-0.773,1.747-1.746
	V12.621c0-0.959-0.786-1.746-1.747-1.746h-2.666c-0.32,0-0.626-0.08-0.893-0.213v4.199c-0.201,0.426-0.773,0.227-1,0l-4.426-4.438
	c-0.532-0.534-0.52-1.227,0-1.733l4.426-4.439c0.227-0.227,0.799-0.426,1,0V7.21c0.267-0.147,0.572-0.227,0.893-0.227h2.666
	c3.119,0,5.639,2.519,5.639,5.638v10.118c0,3.119-2.52,5.651-5.639,5.651h-2.666C21.772,28.39,20.905,27.524,20.905,26.444z"/>
</svg>
