<?xml version="1.0" encoding="utf-8"?>
<!-- Generator: Adobe Illustrator 16.2.0, SVG Export Plug-In . SVG Version: 6.00 Build 0)  -->
<!DOCTYPE svg PUBLIC "-//W3C//DTD SVG 1.1//EN" "http://www.w3.org/Graphics/SVG/1.1/DTD/svg11.dtd">
<svg version="1.1" id="Layer_1" xmlns="http://www.w3.org/2000/svg" xmlns:xlink="http://www.w3.org/1999/xlink" x="0px" y="0px"
	 width="36px" height="36px" viewBox="0 0 36 36" enable-background="new 0 0 36 36" xml:space="preserve">
<path fill="#FFFFFF" d="M18,4c1.467,0,2.666,1.2,2.666,2.667c0,1.48-1.199,2.667-2.666,2.667c-1.479,0-2.666-1.187-2.666-2.667
	C15.334,5.2,16.521,4,18,4 M18,29.333c5.881,0,10.666-4.773,10.666-10.667c0-2.946-1.199-5.613-3.119-7.547l1.881-1.879
	c2.412,2.414,3.906,5.747,3.906,9.426C31.334,26.041,25.359,32,18,32c-7.373,0-13.334-5.959-13.334-13.333h2.668
	C7.334,24.56,12.107,29.333,18,29.333 M8.586,11.133c-0.52-0.52-0.52-1.373,0-1.893c0.521-0.52,1.361-0.52,1.881,0l8.961,7.173
	l0.465,0.373c1.041,1.04,1.041,2.747,0,3.773c-1.039,1.04-2.732,1.04-3.773,0l-0.371-0.466L8.586,11.133L8.586,11.133z"/>
</svg>
