<?xml version="1.0" encoding="utf-8"?>
<!-- Generator: Adobe Illustrator 16.2.0, SVG Export Plug-In . SVG Version: 6.00 Build 0)  -->
<!DOCTYPE svg PUBLIC "-//W3C//DTD SVG 1.1//EN" "http://www.w3.org/Graphics/SVG/1.1/DTD/svg11.dtd">
<svg version="1.1" id="Layer_1" xmlns="http://www.w3.org/2000/svg" xmlns:xlink="http://www.w3.org/1999/xlink" x="0px" y="0px"
	 width="36px" height="36px" viewBox="0 0 36 36" enable-background="new 0 0 36 36" xml:space="preserve">
<path fill="#FFFFFF" d="M23.601,29.2V32H6.8C5.253,32,4,30.747,4,29.2V11h2.8v18.2H23.601z M16.466,11.12l4.334,4.32l9.227-9.227
	L32,8.2L20.8,19.4l-6.307-6.293L16.466,11.12 M29.2,23.6v-8.4H32v8.4c0,1.546-1.267,2.8-2.8,2.8H12.399
	c-1.56,0-2.799-1.253-2.799-2.8V6.8c0-1.547,1.239-2.8,2.799-2.8h11.201v2.8H12.399v16.8H29.2L29.2,23.6z"/>
</svg>
