<?xml version="1.0" encoding="utf-8"?>
<!-- Generator: Adobe Illustrator 16.2.0, SVG Export Plug-In . SVG Version: 6.00 Build 0)  -->
<!DOCTYPE svg PUBLIC "-//W3C//DTD SVG 1.1//EN" "http://www.w3.org/Graphics/SVG/1.1/DTD/svg11.dtd">
<svg version="1.1" id="Layer_1" xmlns="http://www.w3.org/2000/svg" xmlns:xlink="http://www.w3.org/1999/xlink" x="0px" y="0px"
	 width="36px" height="36px" viewBox="0 0 36 36" enable-background="new 0 0 36 36" xml:space="preserve">
<path fill="#FFFFFF" d="M22.279,3h-8.572v2.867h8.572V3z M16.574,21.574h2.854V13h-2.854 M28.041,12.133l2.025-2.026
	c-0.639-0.733-1.279-1.387-2.014-2.013l-2.025,2.053c-2.213-1.8-5-2.854-8.025-2.854c-7.107,0-12.855,5.76-12.855,12.854
	C5.146,27.253,10.895,33,18.002,33c7.133,0,12.852-5.747,12.852-12.854C30.854,17.12,29.801,14.333,28.041,12.133 M18.002,30.146
	c-5.521,0-10-4.48-10-10s4.479-10,10-10c5.518,0,10,4.48,10,10S23.52,30.146,18.002,30.146L18.002,30.146z"/>
</svg>
