<?xml version="1.0" encoding="utf-8"?>
<!-- Generator: Adobe Illustrator 16.2.0, SVG Export Plug-In . SVG Version: 6.00 Build 0)  -->
<!DOCTYPE svg PUBLIC "-//W3C//DTD SVG 1.1//EN" "http://www.w3.org/Graphics/SVG/1.1/DTD/svg11.dtd">
<svg version="1.1" id="Layer_1" xmlns="http://www.w3.org/2000/svg" xmlns:xlink="http://www.w3.org/1999/xlink" x="0px" y="0px"
	 width="36px" height="36px" viewBox="0 0 36 36" enable-background="new 0 0 36 36" xml:space="preserve">
<path fill="#FFFFFF" d="M17.993,8.908c-1.436,0-2.597,1.16-2.597,2.596c0,1.436,1.161,2.609,2.597,2.609
	c1.437,0,2.609-1.174,2.609-2.609C20.603,10.068,19.43,8.908,17.993,8.908 M17.993,6.298c2.872,0,5.205,2.334,5.205,5.206
	c0,0.952-0.248,1.836-0.704,2.609h3.301c1.242,0,2.277,0.87,2.541,2.016C30.944,26.554,31,26.816,31,27.106
	c0,1.436-1.159,2.596-2.61,2.596H7.596C6.16,29.702,5,28.542,5,27.106c0-0.29,0.041-0.553,2.651-10.978
	c0.262-1.146,1.312-2.016,2.541-2.016h3.301c-0.456-0.773-0.69-1.657-0.69-2.609C12.802,8.632,15.121,6.298,17.993,6.298
	L17.993,6.298z"/>
</svg>
