<?xml version="1.0" encoding="utf-8"?>
<!-- Generator: Adobe Illustrator 16.2.0, SVG Export Plug-In . SVG Version: 6.00 Build 0)  -->
<!DOCTYPE svg PUBLIC "-//W3C//DTD SVG 1.1//EN" "http://www.w3.org/Graphics/SVG/1.1/DTD/svg11.dtd">
<svg version="1.1" id="Layer_1" xmlns="http://www.w3.org/2000/svg" xmlns:xlink="http://www.w3.org/1999/xlink" x="0px" y="0px"
	 width="36px" height="36px" viewBox="0 0 36 36" enable-background="new 0 0 36 36" xml:space="preserve">
<path fill-rule="evenodd" clip-rule="evenodd" fill="#FFFFFF" d="M12.672,34l-1.279-7.64c-2.469-1.933-4.053-4.974-4.053-8.347
	c0-3.399,1.584-6.427,4.053-8.359L12.672,2h10.654l1.266,7.654c2.48,1.933,4.068,4.96,4.068,8.359c0,3.373-1.588,6.414-4.068,8.347
	L23.326,34H12.672z M25.992,18.013c0-4.427-3.572-8.013-8-8.013c-4.414,0-7.986,3.586-7.986,8.013c0,4.414,3.572,7.987,7.986,7.987
	C22.42,26,25.992,22.427,25.992,18.013z M19.965,22.867l-3.387-3.387c-0.279-0.28-0.439-0.667-0.439-1.066V13.2
	c0-0.826,0.666-1.506,1.494-1.506c0.826,0,1.506,0.68,1.506,1.506V17.8l2.947,2.946c0.586,0.587,0.586,1.533,0,2.12
	C21.5,23.453,20.553,23.453,19.965,22.867z"/>
</svg>
