<?xml version="1.0" encoding="utf-8"?>
<!-- Generator: Adobe Illustrator 16.2.0, SVG Export Plug-In . SVG Version: 6.00 Build 0)  -->
<!DOCTYPE svg PUBLIC "-//W3C//DTD SVG 1.1//EN" "http://www.w3.org/Graphics/SVG/1.1/DTD/svg11.dtd">
<svg version="1.1" id="Layer_1" xmlns="http://www.w3.org/2000/svg" xmlns:xlink="http://www.w3.org/1999/xlink" x="0px" y="0px"
	 width="36px" height="36px" viewBox="0 0 36 36" enable-background="new 0 0 36 36" xml:space="preserve">
<path fill="#FFFFFF" d="M30.263,18.006c0-1.125-0.676-2.087-1.65-2.512c0.2,0.8,0.287,1.65,0.287,2.512c0,0.851-0.087,1.7-0.287,2.5
	C29.587,20.093,30.263,19.119,30.263,18.006 M5.725,18.006c0,1.113,0.675,2.087,1.65,2.5c-0.2-0.8-0.288-1.65-0.288-2.5
	c0-0.862,0.088-1.712,0.288-2.512C6.4,15.918,5.725,16.881,5.725,18.006 M11.862,20.731c1.025,2.412,3.401,4.087,6.138,4.087
	c2.725,0,5.088-1.675,6.125-4.087H11.862 M14.587,14.256c-0.938,0-1.711,0.763-1.711,1.7s0.774,1.7,1.711,1.7s1.701-0.763,1.701-1.7
	S15.524,14.256,14.587,14.256 M21.4,14.256c-0.938,0-1.701,0.763-1.701,1.7s0.763,1.7,1.701,1.7s1.712-0.763,1.712-1.7
	S22.337,14.256,21.4,14.256 M3,18.006c0-2.475,1.625-4.562,3.887-5.225C8.85,8.606,13.088,5.731,18,5.731
	c4.9,0,9.15,2.875,11.113,7.05C31.362,13.444,33,15.531,33,18.006c0,2.463-1.638,4.55-3.887,5.213
	C27.15,27.394,22.9,30.269,18,30.269c-4.912,0-9.15-2.875-11.113-7.05C4.625,22.556,3,20.469,3,18.006L3,18.006z"/>
</svg>
