<?xml version="1.0" encoding="utf-8"?>
<!-- Generator: Adobe Illustrator 16.2.0, SVG Export Plug-In . SVG Version: 6.00 Build 0)  -->
<!DOCTYPE svg PUBLIC "-//W3C//DTD SVG 1.1//EN" "http://www.w3.org/Graphics/SVG/1.1/DTD/svg11.dtd">
<svg version="1.1" id="Layer_1" xmlns="http://www.w3.org/2000/svg" xmlns:xlink="http://www.w3.org/1999/xlink" x="0px" y="0px"
	 width="14.28px" height="20px" viewBox="0 0 14.28 20" enable-background="new 0 0 14.28 20" xml:space="preserve">
<g>
	<path fill="#B0B0B0" d="M11.426,0h2.854v2.867h-2.854V0z M11.426,2.867 M5.707,0H8.56v2.867H5.707V0z M0,0h2.854v2.867H0V0z
		 M11.426,5.72h2.854v2.854h-2.854V5.72z M5.707,5.72H8.56v2.854H5.707V5.72z M0,5.72h2.854v2.854H0V5.72z M11.426,11.44h2.854
		v2.853h-2.854V11.44z M5.707,11.44H8.56v2.853H5.707V11.44z M0,11.44h2.854v2.853H0V11.44z M11.426,17.146h2.854V20h-2.854V17.146z
		 M5.707,17.146H8.56V20H5.707V17.146z M0,17.146h2.854V20H0V17.146z"/>
</g>
</svg>
