<?xml version="1.0" encoding="utf-8"?>
<!-- Generator: Adobe Illustrator 16.2.0, SVG Export Plug-In . SVG Version: 6.00 Build 0)  -->
<!DOCTYPE svg PUBLIC "-//W3C//DTD SVG 1.1//EN" "http://www.w3.org/Graphics/SVG/1.1/DTD/svg11.dtd">
<svg version="1.1" id="Layer_1" xmlns="http://www.w3.org/2000/svg" xmlns:xlink="http://www.w3.org/1999/xlink" x="0px" y="0px"
	 width="87.8px" height="91.194px" viewBox="0 0 87.8 91.194" enable-background="new 0 0 87.8 91.194" xml:space="preserve">
<g>
	<path fill-rule="evenodd" clip-rule="evenodd" fill="#FFFFFF" d="M37.995,34.222c11.389-11.39,29.873-11.39,41.263,0
		c11.389,11.389,11.389,29.873,0,41.276c-11.39,11.389-29.874,11.389-41.263,0C26.605,64.095,26.605,45.611,37.995,34.222z"/>
	<g>
		<path fill="#FF5B00" d="M53.119,77.071v-3.388c0-2.547,0.359-4.641,1.066-6.295c0.693-1.64,1.587-3.014,2.641-4.107
			c1.066-1.107,2.107-2.068,3.147-2.881c1.054-0.854,1.974-1.708,2.734-2.588c0.773-0.866,1.147-1.92,1.147-3.134
			c0-1.28-0.427-2.321-1.267-3.148c-0.853-0.826-2.067-1.24-3.681-1.24c-2,0-3.481,0.64-4.468,1.92
			c-0.974,1.294-1.467,3.121-1.467,5.495H42.383c0-3.854,0.693-7.095,2.093-9.722c1.401-2.627,3.348-4.614,5.829-5.935
			c2.494-1.333,5.361-2,8.602-2c3.347,0,6.174,0.64,8.469,1.92c2.293,1.294,4.041,3.027,5.228,5.228
			c1.187,2.201,1.787,4.695,1.787,7.482c0,2.094-0.307,3.841-0.92,5.241c-0.613,1.401-1.387,2.588-2.321,3.561
			c-0.92,0.987-1.88,1.88-2.84,2.708c-0.8,0.68-1.547,1.374-2.254,2.081s-1.294,1.494-1.733,2.374
			c-0.454,0.868-0.681,1.907-0.681,3.107v3.321H53.119z M58.56,91.194c-1.84,0-3.374-0.587-4.587-1.76
			c-1.227-1.174-1.84-2.681-1.84-4.521c0-1.774,0.613-3.268,1.84-4.508c1.213-1.227,2.747-1.854,4.587-1.854
			c1.841,0,3.375,0.627,4.628,1.854c1.254,1.24,1.867,2.734,1.867,4.508c0,1.84-0.613,3.347-1.867,4.521
			C61.934,90.607,60.4,91.194,58.56,91.194z"/>
	</g>
</g>
</svg>
