<?xml version="1.0" encoding="utf-8"?>
<!-- Generator: Adobe Illustrator 16.2.0, SVG Export Plug-In . SVG Version: 6.00 Build 0)  -->
<!DOCTYPE svg PUBLIC "-//W3C//DTD SVG 1.1//EN" "http://www.w3.org/Graphics/SVG/1.1/DTD/svg11.dtd">
<svg version="1.1" id="Layer_1" xmlns="http://www.w3.org/2000/svg" xmlns:xlink="http://www.w3.org/1999/xlink" x="0px" y="0px"
	 width="77px" height="73.034px" viewBox="0 0 77 73.034" enable-background="new 0 0 77 73.034" xml:space="preserve">
<g>
	<polygon fill-rule="evenodd" clip-rule="evenodd" fill="#0068DD" points="0.491,73.034 0.491,65.431 34.693,65.431 34.693,11.112 
		42.297,11.112 42.297,65.431 76.5,65.431 76.5,73.034 	"/>
	<g>
		<path fill-rule="evenodd" clip-rule="evenodd" fill="#FF5B00" d="M26.41,12.005C26.41,5.375,31.785,0,38.416,0
			c6.629,0,12.005,5.375,12.005,12.005c0,6.617-5.376,12.006-12.005,12.006C31.785,24.011,26.41,18.622,26.41,12.005z"/>
		<path fill-rule="evenodd" clip-rule="evenodd" fill="#FFFFFF" d="M31.678,12.005c0-3.722,3.015-6.736,6.737-6.736
			c3.722,0,6.736,3.014,6.736,6.736c0,3.708-3.015,6.723-6.736,6.723C34.693,18.729,31.678,15.714,31.678,12.005z"/>
	</g>
</g>
</svg>
