<?xml version="1.0" encoding="utf-8"?>
<!-- Generator: Adobe Illustrator 16.2.0, SVG Export Plug-In . SVG Version: 6.00 Build 0)  -->
<!DOCTYPE svg PUBLIC "-//W3C//DTD SVG 1.1//EN" "http://www.w3.org/Graphics/SVG/1.1/DTD/svg11.dtd">
<svg version="1.1" id="Layer_1" xmlns="http://www.w3.org/2000/svg" xmlns:xlink="http://www.w3.org/1999/xlink" x="0px" y="0px"
	 width="67px" height="74.344px" viewBox="0 0 67 74.344" enable-background="new 0 0 67 74.344" xml:space="preserve">
<g>
	<path fill-rule="evenodd" clip-rule="evenodd" fill="#FFFFFF" d="M67,50.874c0-13.021-10.542-23.511-23.524-23.511
		c-12.915,0-23.458,10.49-23.458,23.511c0,12.929,10.543,23.471,23.458,23.471C56.458,74.344,67,63.802,67,50.874z"/>
	<path fill-rule="evenodd" clip-rule="evenodd" fill="#FF5B00" d="M62.269,73.878l-10.382-10.21l-0.4-0.04
		c-4.891,3.025-11.089,3.012-15.94-0.067c-6.97-4.438-9.13-13.688-4.665-20.712c4.358-6.917,13.674-9.09,20.698-4.665
		c6.958,4.398,9.103,13.688,4.665,20.712l0.28,0.173l-0.227,0.227l10.249,10.315L62.269,73.878z M51.74,50.914
		c0-4.531-3.666-8.184-8.184-8.184c-4.505,0-8.17,3.652-8.17,8.184c0,4.505,3.666,8.17,8.17,8.17
		C48.074,59.084,51.74,55.418,51.74,50.914z"/>
</g>
</svg>
