<?xml version="1.0" encoding="utf-8"?>
<!-- Generator: Adobe Illustrator 25.0.0, SVG Export Plug-In . SVG Version: 6.00 Build 0)  -->
<svg version="1.1" id="Layer_1" xmlns="http://www.w3.org/2000/svg" xmlns:xlink="http://www.w3.org/1999/xlink" x="0px" y="0px"
	 viewBox="0 0 45 45" style="enable-background:new 0 0 45 45;" xml:space="preserve">
<style type="text/css">
	.st0{fill-rule:evenodd;clip-rule:evenodd;fill:#FFFFFF;}
</style>
<g>
	<path class="st0" d="M14.2,16.7c2.9-1.7,5.6-3.2,8.3-4.8c2.8,1.6,5.4,3.1,8.3,4.8c-2.9,1.7-5.6,3.2-8.3,4.8
		C19.8,19.9,17.1,18.4,14.2,16.7z M23.7,33.1v-9.6c2.7-1.5,5.3-3.1,8.2-4.8v9.7C29.3,29.9,26.6,31.5,23.7,33.1z M13.1,28.4v-9.6
		c2.9,1.7,5.6,3.2,8.3,4.8v9.7C18.4,31.4,15.7,29.9,13.1,28.4z M37.2,41.7l-5.7-7.2c-0.6-0.6-0.6-1.7,0-2.3c0.6-0.6,1.7-0.6,2.3,0
		l5.7,7.2c0.6,0.6,0.6,1.7,0,2.3C38.9,42.4,37.8,42.4,37.2,41.7z M5.5,41.7c-0.6-0.6-0.6-1.7,0-2.3l5.7-7.2c0.6-0.6,1.7-0.6,2.3,0
		c0.6,0.6,0.6,1.7,0,2.3l-5.7,7.2C7.2,42.4,6.1,42.4,5.5,41.7z M37.2,3.3l-5.7,7.2c-0.6,0.6-0.6,1.7,0,2.3c0.6,0.6,1.7,0.6,2.3,0
		l5.7-7.2c0.6-0.6,0.6-1.7,0-2.3S37.8,2.6,37.2,3.3z M5.5,3.3C4.8,3.9,4.8,5,5.5,5.6l5.7,7.2c0.6,0.6,1.7,0.6,2.3,0
		c0.6-0.6,0.6-1.7,0-2.3L7.8,3.3C7.2,2.6,6.1,2.6,5.5,3.3z"/>
</g>
</svg>
