<?xml version="1.0" encoding="utf-8"?>
<!-- Generator: Adobe Illustrator 25.0.0, SVG Export Plug-In . SVG Version: 6.00 Build 0)  -->
<svg version="1.1" id="Layer_1" xmlns="http://www.w3.org/2000/svg" xmlns:xlink="http://www.w3.org/1999/xlink" x="0px" y="0px"
	 viewBox="0 0 25 25" style="enable-background:new 0 0 25 25;" xml:space="preserve">
<style type="text/css">
	.st0{fill:#FF8200;}
</style>
<path class="st0" d="M20.5,12.6c0,2.2-0.9,4.2-2.3,5.7c-0.3,0.3-0.8,0.3-1.1,0c-0.3-0.3-0.3-0.8,0-1.1c1.2-1.2,1.9-2.7,1.9-4.5
	c0-0.8-0.2-1.6-0.4-2.3l1-1.7C20.1,9.8,20.5,11.1,20.5,12.6 M12.5,4.6c1.5,0,2.8,0.4,4,1.1l-1.7,1c-0.7-0.3-1.5-0.4-2.3-0.4
	C9,6.2,6.1,9,6.1,12.6c0,1.8,0.7,3.4,1.9,4.5h0c0.3,0.3,0.3,0.8,0,1.1c-0.3,0.3-0.8,0.3-1.1,0c-1.4-1.4-2.3-3.4-2.3-5.7
	C4.5,8.1,8.1,4.6,12.5,4.6 M12.5,15c-1.3,0-2.4-1.1-2.4-2.4c0-0.9,0.5-1.7,1.2-2.1L19.1,6l-4.4,7.7C14.2,14.4,13.4,15,12.5,15
	L12.5,15z"/>
</svg>
