<?xml version="1.0" encoding="utf-8"?>
<!-- Generator: Adobe Illustrator 25.0.0, SVG Export Plug-In . SVG Version: 6.00 Build 0)  -->
<svg version="1.1" id="Layer_1" xmlns="http://www.w3.org/2000/svg" xmlns:xlink="http://www.w3.org/1999/xlink" x="0px" y="0px"
	 viewBox="0 0 25 25" style="enable-background:new 0 0 25 25;" xml:space="preserve">
<style type="text/css">
	.st0{fill:#FFFFFF;}
</style>
<path class="st0" d="M16.3,10.7c-0.5,1.8-3.2,0.9-4.1,0.7l0.8-3.2C13.8,8.3,16.8,8.8,16.3,10.7 M15.8,15.8c-0.5,2-3.9,0.9-4.9,0.6
	l0.9-3.5C12.8,13.2,16.3,13.8,15.8,15.8 M19.5,10.7c0.3-1.9-1.2-3-3.2-3.7l0.7-2.6L15.3,4l-0.6,2.6c-0.4-0.1-0.9-0.2-1.3-0.3L14,3.6
	l-1.6-0.4l-0.7,2.6c-0.4-0.1-0.7-0.2-1-0.2v0L8.5,5.1L8.1,6.8c0,0,1.2,0.3,1.2,0.3C9.9,7.2,10,7.7,10,8l-0.8,3c0.1,0,0.1,0,0.2,0.1
	c-0.1,0-0.1,0-0.2-0.1l-1.1,4.2c-0.1,0.2-0.3,0.5-0.7,0.4c0,0-1.2-0.3-1.2-0.3l-0.8,1.8l2.1,0.5C8,17.8,8.4,17.9,8.7,18l-0.7,2.7
	L9.7,21l0.7-2.6c0.4,0.1,0.9,0.2,1.3,0.3L11,21.4l1.6,0.4l0.7-2.7c2.7,0.5,4.8,0.3,5.7-2.2c0.7-2,0-3.1-1.5-3.9
	C18.5,12.8,19.3,12.1,19.5,10.7L19.5,10.7z"/>
</svg>
