<?xml version="1.0" encoding="utf-8"?>
<!-- Generator: Adobe Illustrator 25.0.0, SVG Export Plug-In . SVG Version: 6.00 Build 0)  -->
<svg version="1.1" id="Layer_1" xmlns="http://www.w3.org/2000/svg" xmlns:xlink="http://www.w3.org/1999/xlink" x="0px" y="0px"
	 viewBox="0 0 25 25" style="enable-background:new 0 0 25 25;" xml:space="preserve">
<style type="text/css">
	.st0{fill-rule:evenodd;clip-rule:evenodd;fill:#FFFFFF;}
</style>
<g>
	<path class="st0" d="M12.5,6.3c-0.8,0-1.5,0.7-1.5,1.5s0.7,1.5,1.5,1.5c0.8,0,1.5-0.7,1.5-1.5S13.3,6.3,12.5,6.3 M12.5,4.8
		c1.7,0,3,1.3,3,3c0,0.5-0.1,1.1-0.4,1.5H17c0.7,0,1.3,0.5,1.5,1.2c1.5,6,1.5,6.2,1.5,6.3c0,0.8-0.7,1.5-1.5,1.5h-12
		c-0.8,0-1.5-0.7-1.5-1.5c0-0.2,0-0.3,1.5-6.3C6.7,9.8,7.3,9.2,8,9.2h1.9C9.6,8.8,9.5,8.3,9.5,7.8C9.5,6.1,10.8,4.8,12.5,4.8
		L12.5,4.8z"/>
</g>
</svg>
