<?xml version="1.0" encoding="utf-8"?>
<!-- Generator: Adobe Illustrator 25.0.0, SVG Export Plug-In . SVG Version: 6.00 Build 0)  -->
<svg version="1.1" id="Layer_1" xmlns="http://www.w3.org/2000/svg" xmlns:xlink="http://www.w3.org/1999/xlink" x="0px" y="0px"
	 viewBox="0 0 25 25" style="enable-background:new 0 0 25 25;" xml:space="preserve">
<style type="text/css">
	.st0{fill:#00BFBF;}
</style>
<g>
	<path class="st0" d="M18.2,13.2c0-0.2,0.1-0.5,0.1-0.7s0-0.5-0.1-0.8l1.6-1.3c0.1-0.1,0.2-0.3,0.1-0.5l-1.5-2.7
		c-0.1-0.2-0.3-0.2-0.5-0.2L16,7.9c-0.4-0.3-0.8-0.6-1.3-0.8l-0.3-2c0-0.2-0.2-0.3-0.4-0.3H11c-0.2,0-0.4,0.1-0.4,0.3l-0.3,2
		C9.8,7.4,9.4,7.6,9,7.9L7.1,7.1c-0.2-0.1-0.4,0-0.5,0.2L5.1,10C5,10.2,5,10.4,5.2,10.5l1.6,1.3c0,0.3-0.1,0.5-0.1,0.8
		s0,0.5,0.1,0.7l-1.6,1.3C5,14.6,5,14.9,5.1,15l1.5,2.7c0.1,0.2,0.3,0.2,0.5,0.2L9,17.1c0.4,0.3,0.8,0.6,1.3,0.8l0.3,2.1
		c0,0.2,0.2,0.3,0.4,0.3H14c0.2,0,0.4-0.1,0.4-0.3l0.3-2.1c0.5-0.2,0.9-0.5,1.3-0.8l1.9,0.8c0.2,0.1,0.4,0,0.5-0.2l1.5-2.7
		c0.1-0.2,0.1-0.4-0.1-0.5L18.2,13.2z M12.5,15.2c-1.5,0-2.7-1.2-2.7-2.7s1.2-2.7,2.7-2.7s2.7,1.2,2.7,2.7S14,15.2,12.5,15.2
		L12.5,15.2z"/>
</g>
</svg>
