<?xml version="1.0" encoding="utf-8"?>
<!-- Generator: Adobe Illustrator 25.0.0, SVG Export Plug-In . SVG Version: 6.00 Build 0)  -->
<svg version="1.1" id="Layer_1" xmlns="http://www.w3.org/2000/svg" xmlns:xlink="http://www.w3.org/1999/xlink" x="0px" y="0px"
	 viewBox="0 0 22 14.61" style="enable-background:new 0 0 22 14.61;" xml:space="preserve">
<style type="text/css">
	.st0{fill-rule:evenodd;clip-rule:evenodd;fill:#FFFFFF;}
	.st1{fill-rule:evenodd;clip-rule:evenodd;fill:#BA0000;}
	.st2{fill-rule:evenodd;clip-rule:evenodd;fill:#191980;}
	.st3{fill-rule:evenodd;clip-rule:evenodd;fill:none;stroke:#E3E3E3;stroke-miterlimit:10;}
</style>
<g>
	<rect x="0.96" y="1.03" class="st0" width="20.29" height="12.55"/>
	<path class="st1" d="M0.96,13.62v-0.95h20.31v0.95H0.96z M0.96,11.66v-0.98h20.31v0.98H0.96z M0.96,9.67V8.71h20.31v0.97H0.96z
		 M0.96,7.75V6.77h20.31v0.98H0.96z M0.96,5.82V4.84h20.31v0.98H0.96z M0.96,3.89V2.92h20.31v0.97H0.96z M0.96,1.97V0.99h20.31v0.98
		H0.96z"/>
	<rect x="0.99" y="1" class="st2" width="8.1" height="6.8"/>
	<path class="st0" d="M1.89,7.47L1.63,7.29L1.37,7.47l0.11-0.3L1.22,6.98h0.31l0.11-0.3l0.1,0.3l0.31,0.01L1.79,7.17L1.89,7.47z
		 M3.25,7.47L2.99,7.29L2.73,7.47l0.1-0.3L2.58,6.98H2.9l0.1-0.3l0.11,0.3l0.31,0.01L3.15,7.17L3.25,7.47z M4.61,7.47L4.35,7.29
		L4.09,7.47l0.1-0.3L3.94,6.98h0.31l0.1-0.3l0.1,0.3l0.31,0.01L4.51,7.17L4.61,7.47z M5.97,7.47L5.71,7.29L5.45,7.47l0.1-0.3
		L5.3,6.98h0.31l0.1-0.3l0.1,0.3l0.31,0.01L5.88,7.17L5.97,7.47z M7.32,7.47L7.07,7.29L6.81,7.47l0.1-0.3L6.67,6.98h0.31l0.1-0.3
		l0.1,0.3l0.31,0.01L7.24,7.17L7.32,7.47z M8.68,7.47L8.43,7.29L8.18,7.47l0.1-0.3L8.01,6.98h0.31l0.11-0.3l0.1,0.3l0.31,0.01
		L8.58,7.17L8.68,7.47z M2.53,6.75L2.28,6.56L2.02,6.75l0.1-0.3L1.86,6.26h0.33l0.1-0.3l0.1,0.3h0.31L2.43,6.45L2.53,6.75z
		 M3.89,6.75L3.64,6.56L3.39,6.75l0.1-0.3L3.22,6.26h0.31l0.11-0.3l0.1,0.3h0.31L3.79,6.45L3.89,6.75z M5.25,6.75L4.99,6.56
		L4.75,6.75l0.1-0.3L4.58,6.26H4.9L5,5.96l0.1,0.3h0.31L5.15,6.45L5.25,6.75z M6.61,6.75L6.35,6.56L6.09,6.75l0.11-0.3L5.94,6.26
		h0.31l0.11-0.3l0.1,0.3h0.31L6.52,6.45L6.61,6.75z M7.97,6.75L7.71,6.56L7.45,6.75l0.11-0.3L7.3,6.26h0.31l0.1-0.3l0.11,0.3h0.31
		L7.88,6.45L7.97,6.75z M1.89,6.09L1.63,5.92L1.37,6.09l0.11-0.3L1.22,5.62h0.31l0.11-0.3l0.1,0.3h0.31L1.79,5.79L1.89,6.09z
		 M3.25,6.09L2.99,5.92L2.73,6.09l0.1-0.3L2.58,5.62H2.9l0.1-0.3l0.11,0.3h0.31L3.15,5.79L3.25,6.09z M4.61,6.09L4.35,5.92
		L4.09,6.09l0.1-0.3L3.94,5.62h0.31l0.1-0.3l0.1,0.3h0.31L4.51,5.79L4.61,6.09z M5.97,6.09L5.71,5.92L5.45,6.09l0.1-0.3L5.3,5.62
		h0.31l0.1-0.3l0.1,0.3h0.31L5.88,5.79L5.97,6.09z M7.32,6.09L7.07,5.92L6.81,6.09l0.1-0.3L6.67,5.62h0.31l0.1-0.3l0.1,0.3h0.31
		L7.24,5.79L7.32,6.09z M8.68,6.09L8.43,5.92L8.18,6.09l0.1-0.3L8.01,5.62h0.31l0.11-0.3l0.1,0.3h0.31L8.58,5.79L8.68,6.09z
		 M2.53,5.37L2.28,5.18L2.02,5.37l0.1-0.3L1.86,4.88h0.33l0.1-0.3l0.1,0.3L2.69,4.9L2.43,5.07L2.53,5.37z M3.89,5.37L3.64,5.18
		L3.39,5.37l0.1-0.3L3.22,4.88h0.31l0.11-0.3l0.1,0.3L4.05,4.9L3.79,5.07L3.89,5.37z M5.25,5.37L4.99,5.18L4.75,5.37l0.1-0.3
		L4.58,4.88H4.9L5,4.58l0.1,0.3L5.41,4.9L5.15,5.07L5.25,5.37z M6.61,5.37L6.35,5.18L6.09,5.37l0.11-0.3L5.94,4.88h0.31l0.11-0.3
		l0.1,0.3L6.77,4.9L6.52,5.07L6.61,5.37z M7.97,5.37L7.71,5.18L7.45,5.37l0.11-0.3L7.3,4.88h0.31l0.1-0.3l0.11,0.3L8.14,4.9
		L7.88,5.07L7.97,5.37z M1.89,4.73L1.63,4.54L1.37,4.72l0.11-0.3L1.22,4.24h0.31l0.11-0.3l0.1,0.3h0.31L1.79,4.43L1.89,4.73z
		 M3.25,4.73L2.99,4.54L2.73,4.72l0.1-0.3L2.58,4.24H2.9l0.1-0.3l0.11,0.3h0.31L3.15,4.43L3.25,4.73z M4.61,4.73L4.35,4.54
		L4.09,4.72l0.1-0.3L3.94,4.24h0.31l0.1-0.3l0.1,0.3h0.31L4.51,4.43L4.61,4.73z M5.97,4.73L5.71,4.54L5.45,4.72l0.1-0.3L5.3,4.24
		h0.31l0.1-0.3l0.1,0.3h0.31L5.88,4.43L5.97,4.73z M7.32,4.73L7.07,4.54L6.81,4.72l0.1-0.3L6.67,4.24h0.31l0.1-0.3l0.1,0.3h0.31
		L7.24,4.43L7.32,4.73z M8.68,4.73L8.43,4.54L8.18,4.72l0.1-0.3L8.01,4.24h0.31l0.11-0.3l0.1,0.3h0.31L8.58,4.43L8.68,4.73z M2.53,4
		L2.28,3.82L2.02,4l0.1-0.3L1.86,3.51h0.33l0.1-0.29l0.1,0.29l0.31,0.01L2.43,3.7L2.53,4z M3.89,4L3.64,3.82L3.39,4l0.1-0.3
		L3.22,3.51h0.31l0.11-0.29l0.1,0.29l0.31,0.01L3.79,3.7L3.89,4z M5.25,4L4.99,3.82L4.75,4l0.1-0.3L4.58,3.51H4.9L5,3.22l0.1,0.29
		l0.31,0.01L5.15,3.7L5.25,4z M6.61,4L6.35,3.82L6.09,4L6.2,3.7L5.94,3.51h0.31l0.11-0.29l0.1,0.29l0.31,0.01L6.52,3.7L6.61,4z
		 M7.97,4L7.71,3.82L7.45,4l0.11-0.3L7.3,3.51h0.31l0.1-0.29l0.11,0.29l0.31,0.01L7.88,3.7L7.97,4z M1.89,3.36L1.63,3.17L1.37,3.36
		l0.11-0.3L1.22,2.87h0.31l0.11-0.3l0.1,0.3h0.31L1.79,3.06L1.89,3.36z M3.25,3.36L2.99,3.17L2.73,3.36l0.1-0.3L2.58,2.87H2.9
		l0.1-0.3l0.11,0.3h0.31L3.15,3.06L3.25,3.36z M4.61,3.36L4.35,3.17L4.09,3.36l0.1-0.3L3.94,2.87h0.31l0.1-0.3l0.1,0.3h0.31
		L4.51,3.06L4.61,3.36z M5.97,3.36L5.71,3.17L5.45,3.36l0.1-0.3L5.3,2.87h0.31l0.1-0.3l0.1,0.3h0.31L5.88,3.06L5.97,3.36z
		 M7.32,3.36L7.07,3.17L6.81,3.36l0.1-0.3L6.67,2.87h0.31l0.1-0.3l0.1,0.3h0.31L7.24,3.06L7.32,3.36z M8.68,3.36L8.43,3.17
		L8.18,3.36l0.1-0.3L8.01,2.87h0.31l0.11-0.3l0.1,0.3h0.31L8.58,3.06L8.68,3.36z M2.53,2.64L2.28,2.45L2.02,2.62l0.1-0.3L1.86,2.15
		h0.33l0.1-0.3l0.1,0.3h0.31L2.43,2.34L2.53,2.64z M3.89,2.64L3.64,2.45L3.39,2.62l0.1-0.3L3.22,2.15h0.31l0.11-0.3l0.1,0.3h0.31
		L3.79,2.34L3.89,2.64z M5.25,2.64L4.99,2.45L4.75,2.62l0.1-0.3L4.58,2.15H4.9L5,1.85l0.1,0.3h0.31L5.15,2.34L5.25,2.64z M6.61,2.64
		L6.35,2.45L6.09,2.62l0.11-0.3L5.94,2.15h0.31l0.11-0.3l0.1,0.3h0.31L6.52,2.34L6.61,2.64z M7.97,2.64L7.71,2.45L7.45,2.62
		l0.11-0.3L7.3,2.15h0.31l0.1-0.3l0.11,0.3h0.31L7.88,2.34L7.97,2.64z M1.89,1.98L1.63,1.81L1.37,1.98l0.11-0.3L1.22,1.49h0.31
		l0.11-0.3l0.1,0.3l0.31,0.01L1.79,1.68L1.89,1.98z M3.25,1.98L2.99,1.81L2.73,1.98l0.1-0.3L2.58,1.49H2.9l0.1-0.3l0.11,0.3
		l0.31,0.01L3.15,1.68L3.25,1.98z M4.61,1.98L4.35,1.81L4.09,1.98l0.1-0.3L3.94,1.49h0.31l0.1-0.3l0.1,0.3l0.31,0.01L4.51,1.68
		L4.61,1.98z M5.97,1.98L5.71,1.81L5.45,1.98l0.1-0.3L5.3,1.49h0.31l0.1-0.3l0.1,0.3l0.31,0.01L5.88,1.68L5.97,1.98z M7.32,1.98
		L7.07,1.81L6.81,1.98l0.1-0.3L6.67,1.49h0.31l0.1-0.3l0.1,0.3l0.31,0.01L7.24,1.68L7.32,1.98z M8.68,1.98L8.43,1.81L8.18,1.98
		l0.1-0.3L8.01,1.49h0.31l0.11-0.3l0.1,0.3l0.31,0.01L8.58,1.68L8.68,1.98z"/>
	<rect x="0.5" y="0.5" class="st3" width="21" height="13.61"/>
</g>
</svg>
