<?xml version="1.0" encoding="utf-8"?>
<!-- Generator: Adobe Illustrator 25.0.0, SVG Export Plug-In . SVG Version: 6.00 Build 0)  -->
<svg version="1.1" id="Layer_1" xmlns="http://www.w3.org/2000/svg" xmlns:xlink="http://www.w3.org/1999/xlink" x="0px" y="0px"
	 viewBox="0 0 820 360.9" style="enable-background:new 0 0 820 360.9;" xml:space="preserve">
<style type="text/css">
	.st0{fill-rule:evenodd;clip-rule:evenodd;fill:#0066DB;}
	.st1{fill-rule:evenodd;clip-rule:evenodd;fill:#E3E3E3;}
	.st2{fill:#B0B0B0;}
</style>
<g>
	<path class="st0" d="M0,327.6c0-1.1,0.9-2,2-2l343.8-4.2l34.1-1.4l20.9-0.7h29.9l18.8-2.3l11.3-1l5.6-1.9c0.2-0.1,0.5-0.1,0.7-0.1
		l4.7,0.2l1.1-1.1c0.3-0.4,0.8-0.6,1.3-0.6l3.7-0.4l0.5-0.1l0.6-1.9c0.3-1,1.3-1.6,2.3-1.3l2.1,0.5l1.2,0.9l0.4-0.1l1,0.1l0.5-1.6
		l1.3-0.5l0-0.6c0-1.1,1-2,2.1-1.9l0.9,0l0.1-0.4c0.4-0.4,1-0.7,1.6-0.7l0.1,0l0.7-1.2l0.2-0.1l0.1-0.8l1-0.9l0-0.4
		c-0.1-0.7,0.2-1.3,0.7-1.7l1.4-0.3l0.2-0.8c0.2-1,1.2-1.6,2.2-1.5l0.3,0l0-0.2c0.4-0.5,0.9-0.8,1.6-0.8h0.1l0.5-1.5
		c0.3-1,1.3-1.6,2.3-1.4l0.4,0.1l1-1l2.2-0.3l0.2-1.1l1.2-1l0.2-0.5l1.3-1c0.3-0.6,0.8-1,1.5-1.1l1.5-0.3l0.9-0.7
		c0.1-0.1,0.3-0.2,0.5-0.3l0.7-0.3l0.4-0.5l0.2-0.1l0.1-2.2c0-0.2,0-0.4,0.1-0.6l0.7-2.2c0.3-0.9,1.2-1.5,2.2-1.3l0.9,0.1l0.8-0.8
		h0.1l0.7-1.4c0.3-0.6,0.9-1,1.5-1.1l1-0.1c0.2,0,0.4,0,0.5,0l1,0.1l0-2.6c0-1.1,0.9-1.9,1.9-2l0.2,0l0.6-2.3
		c0.2-0.8,0.9-1.4,1.8-1.5l0.1,0l0.2-0.9c0.1-0.9,0.8-1.5,1.6-1.7l0.6-0.1l0.2-1.1c0.2-1,1.1-1.8,2.2-1.7l0.3,0l0.5-0.8l1.2-0.4
		l0.2-1.2c0.1-1,1-1.8,2.1-1.7l1.7,0.1c0.7,0,1.4,0.4,1.7,1.1l0.7,1.5l2.7,0.1c0.9,0,1.7,0.7,1.9,1.6l0.6,3l1.2,0.3
		c0.4,0.3,0.7,0.7,0.8,1.1l1.4,5.3c0,0.2,0.1,0.3,0.1,0.5v1l1.3,0.5l0,0.1l0.8-0.3l0.2,0l0-0.3c0.1-0.8,0.8-1.5,1.6-1.6l2.1-0.4
		c0.6-0.1,1.1,0,1.6,0.4l0.2,0.2l0.1-0.6c0.2-1,1-1.6,2-1.6l4.5,0.1l0-0.8c-0.1-1.2,1-2.2,2.2-2.1l4.9,0.6l0.2-1.6
		c0.2-1,1.1-1.8,2.1-1.7l2.2,0.1l0.3-4.4c0.1-1,0.9-1.8,1.9-1.9l2.2-0.1l0.3,0.1l0.2-2.4c0-0.6,0.4-1.2,0.8-1.5l0.7-0.1l0.6-8
		c0.1-1.1,1-1.9,2-1.8l2.2,0.1l0.3,0.1l-0.1-6c0-1.2,1.1-2.2,2.3-2l0.5,0.1l0.1-0.3l2-1.2l-0.2-3.2c0-0.7,0.3-1.3,0.8-1.7l0.7-0.1
		l0.5-8.1c0.1-1.1,1-1.9,2.1-1.8l0.2,0l0.3-5.5c0-0.5,0.3-1,0.7-1.4l1-0.4l0.1-0.7c0.1-1,1-1.8,2-1.8h0.7l0.4-4.1
		c0.1-1.1,1-1.9,2.1-1.8l2.2,0.1c1,0.1,1.8,0.9,1.9,1.9l0.2,4.3l0.3-0.1l1.6-0.1l1.9,1.2l0.5-0.7l0.9-0.1l0-5.4
		c0-0.6,0.2-1.1,0.6-1.5l1.1-0.4l0.1-6c0-1,0.8-1.9,1.9-2l1.1-0.1l0.2-4.2c0.1-1.1,1-2,2.2-1.9l0.4,0l0.4-0.5
		c0.5-0.6,1.2-0.9,1.9-0.7l1.5,0.3l0.1,0l0.6-6.9c0.1-1,0.9-1.7,1.8-1.8l2.6-0.2c1.2-0.1,2.1,0.8,2.2,2l0.2,13.8l0.1,0l0.2-8.7
		c0-1.1,0.9-1.9,2-1.9h1.4l0.2-0.3c0.4-0.4,0.9-0.7,1.5-0.7h1.3c1.1,0,1.9,0.8,2,1.8l0.5,6.5l0.4,0l1,0.3l0.2-3.7
		c0-1,0.9-1.9,1.9-1.9l1.6-0.1l0.8-12.1c0.1-1.2,1.2-2,2.3-1.8l1.7,0.3c0.9,0.1,1.5,0.8,1.7,1.7l0.3,1.8l0.2-0.1l0.1-0.9
		c0.1-0.5,0.3-1,0.6-1.3l0.6-0.2l-0.1-0.7c-0.1-1.3,1-2.3,2.3-2.1l1.3,0.2l1.1-13.7c0.1-1.1,1.1-1.9,2.2-1.8l1.9,0.2l-0.1-3.8
		c0-1.2,1.1-2.2,2.3-2l2.3,0.3c1,0.1,1.7,0.9,1.7,1.9l0.5,18.6l0.4-0.1l0.9-11.7c0.1-1.1,1.1-1.9,2.2-1.8l1.5,0.1
		c0.9,0.1,1.6,0.7,1.8,1.6l0.6,2.9l0.6-15.2c0-0.6,0.3-1.1,0.6-1.4l1-0.4l0.2-0.7c0.3-1,1.2-1.6,2.2-1.4l0.4,0.1l0.2-3
		c0-0.5,0.3-1,0.6-1.3l1.1-0.5l0.2-1.1c0.2-0.9,1-1.6,2-1.6h2.6l0.6,0.2l0.3-0.8l1.1-0.5l0.2-9.1c0-1,0.8-1.8,1.7-1.9l0.6-0.1
		l0.5-2.2c0.2-0.9,1-1.5,1.9-1.5h2.8l0-10.6c0-1.1,0.9-2,2-2h2.3c1.1,0,2,0.9,2,2l0.7,32h0.1c1.1,0,1.9,0.9,1.9,1.9l0.3,8.1l1.4,0.1
		c1.1,0.1,1.9,0.9,1.9,2l0.4,45.5l1,0.3l0-0.1c0.1-0.6,0.4-1.1,0.8-1.4l0.4-0.1l0.8-7.5c0.1-0.5,0.3-1,0.7-1.3l0.7-0.3l0.3-15.7
		c0-1.1,0.9-2,2-2h0.1l0.3-4.8c0.1-0.9,0.7-1.6,1.6-1.8l0.4-0.1l0.3-3.9c0.1-0.6,0.3-1.1,0.7-1.4l1.1-0.3l0.8-5.2c0.1-1,1-1.7,2-1.7
		l0.3,0l0.1-0.8c0.1-0.5,0.3-1,0.7-1.3l0.9-0.3l0.3-10.8l1.6-1.8l0.3-5.4c0-0.2,0.1-0.4,0.1-0.6l0.7-1.8c0.3-0.8,1-1.3,1.9-1.3h2.6
		l0.2,0.1l0.3-11.1c0-0.9,0.6-1.6,1.4-1.8l4.3-1.3l0.7-18.3c0-1,0.9-1.9,1.9-1.9l1.9-0.1l0.6-9.5c0.1-1,0.9-1.8,1.9-1.9l2.8-0.1
		c1.1,0,2.1,0.9,2,2.1l-0.1,2.2l0.3,0l0.3,0.2l-0.2-7.5c0-1.3,1.1-2.3,2.4-2l2.2,0.4l0.3,0.2l0.3-8.9c0-1.1,1-2,2.1-1.9l0.3,0l0-10
		c0-1.1,0.9-2,2-2h2.1c1.1,0,1.9,0.8,2,1.9l0.4,6.6l0.7-0.2l1.5,0.1c0.9,0.1,1.7,0.8,1.8,1.7l0.6,4.3l0.4,0c0.9,0,1.7,0.7,1.9,1.6
		l0.5,2.3l1.7,1.5l0.6,2.8c0,0.1,0,0.3,0,0.4l0,3.6l0.1,0l0.5,0l0.5-1.1c0.3-0.3,0.8-0.6,1.3-0.6h0.1l0.3-20.4c0-1.1,0.8-1.9,1.9-2
		l0.7,0l0.2-7.5c0-1.1,0.9-1.9,1.9-1.9l1.5-0.1l0.7,0.2l0.1-12.5l0.9-1.2l-0.5-14.4c0-0.5,0.2-1,0.5-1.4l1.3-0.6l0.1-8.5
		c0-1.1,0.9-1.9,2-2l2.8-0.1l0.3,0.2l0.1-0.3c0.3-1,1.3-1.7,2.3-1.5l1.1,0.2c0.9,0.2,1.6,0.9,1.6,1.8l1,11.9l0.8-0.3l2.3,0.1
		l0.5,0.2l0.5-17.2c0-1.1,1-2,2.1-1.9c1.1,0,2,1,1.9,2l-0.9,30.1c0,0.9-0.7,1.7-1.5,1.9l-1.1,0.3c-1.2,0.3-2.3-0.6-2.4-1.8l-0.1-1.2
		l-0.6,1.2c-0.4,0.3-0.8,0.5-1.4,0.5h-0.9c-1,0-1.9-0.8-2-1.8l-1.7-19.7l-0.2,0.1c-0.4,0.2-0.9,0.2-1.4,0.1L796,11l-0.1,8.1
		c0,0.5-0.2,1-0.5,1.3l-1.2,0.5l0.5,13.6l-1,1.3l-0.2,19.4c0,0.7-0.4,1.4-1,1.7l-0.6,0.3c-0.8,0.4-1.8,0.3-2.4-0.4l-0.1-0.1
		l-0.1,1.8c0,1-0.9,1.9-1.9,1.9l-0.6,0l-0.2,20.5c0,1.1-0.9,1.9-1.9,2l-0.1,0l-0.6,1.3c-0.4,0.3-0.9,0.5-1.4,0.5l-0.3,0l0,2
		c0,1.1-0.9,1.9-1.9,2l-1.9,0.1c-1.1,0-2.1-0.9-2.1-2l-0.1-9.5l-0.3-1.2l-1.7-1.5l-0.5-2.1l-0.5,0c-1,0-1.8-0.8-1.9-1.7l-0.1-0.8
		l-2.2,0.3c-0.6,0.1-1.1-0.1-1.5-0.4l-0.1-0.3l-0.1,0.3c-0.4,0.4-0.9,0.6-1.5,0.5l-0.4,0l-0.5,11.9c0,1-0.8,1.8-1.8,1.9l-1.3,0.1
		l-1.4-0.9l0.2,5.3c0,1-0.7,1.9-1.7,2l-1.7,0.3c-0.7,0.1-1.5-0.2-1.9-0.8l-0.3-0.5l-1.3-0.1l-0.9-0.4l-0.4,5.9
		c-0.1,1-0.9,1.8-1.9,1.9l-1.8,0.1l-0.7,17.8c0,0.9-0.6,1.6-1.4,1.8l-4.3,1.3l-0.4,14.1c0,1-0.7,1.8-1.7,1.9l-2.1,0.3
		c-0.6,0.1-1.2-0.1-1.6-0.5l-0.1-0.1l-0.2,4.5l-1.5,1.7l-0.3,11.2c0,0.6-0.3,1.1-0.7,1.4l-1.3,0.4l-0.1,0.8c-0.2,1-1,1.7-2,1.7
		l-0.3,0l-0.7,5.2c-0.1,0.5-0.4,1-0.8,1.3l-0.9,0.2l-0.3,3.5c-0.1,0.9-0.7,1.6-1.6,1.8l-0.4,0.1l-0.3,5.2c-0.1,1.1-0.9,1.9-2,1.9
		h-0.1l-0.3,15.5c0,0.5-0.2,1-0.6,1.4l-0.9,0.4l-0.8,7.6c-0.1,0.6-0.4,1.1-0.8,1.4l-0.4,0.1l-0.6,5.5c-0.1,0.9-0.9,1.7-1.8,1.8
		l-1.8,0.1c-1.1,0.1-2.1-0.8-2.1-1.9l-0.1-3.5l-1.5-0.4c-0.4-0.4-0.7-0.9-0.7-1.5l-0.5-45.9l-1.4-0.1c-1-0.1-1.8-0.9-1.9-1.9
		l-0.3-8.1l-0.1,0l-1.1-0.5v2.6c0,1.2-1,2.1-2.2,2l-1.8-0.2c-1-0.1-1.8-1-1.8-2l0.1-21.1l-1.5,1.3l-0.2,0l-0.2,9.2
		c0,0.5-0.2,1-0.6,1.4l-1.1,0.5l0,1.4c0,0.6-0.3,1.1-0.7,1.4l-0.5,0.2l-0.3,2.5c-0.3,2.3-3.6,2.3-4,0l-0.4-2.9l-1.1,0.9l-0.2,3.7
		c-0.1,1.1-1.1,2-2.3,1.8l-0.8-0.1l-0.1,0.4l-1.2,0.9l-0.6,16.3c0,1-0.8,1.8-1.8,1.9l-1.7,0.1c-0.6,0.1-1.2-0.2-1.6-0.6l-0.4-0.4
		l-1-0.3l-0.6,7.5c0,0.5-0.3,1-0.7,1.3l-1,0.4l-0.2,2.9c0,0.2,0,0.3-0.1,0.5l-0.8,2.4c-0.2,0.5-0.5,0.9-1,1.2l-1.3,0.6
		c-1.3,0.6-2.8-0.3-2.8-1.7l-0.5-20.6l-0.6,0.2l-2.1-0.2l-1.2,14.8l-0.7,0.8l-0.4,2.7c-0.2,1.7-2.2,2.2-3.3,1.3l-0.5-1l-0.7,1.3
		c-0.4,0.3-1,0.5-1.5,0.4l-0.4-0.1l-1.3,1h-1.6l-0.8-0.3l-0.5,7.5c-0.1,1-0.9,1.8-1.9,1.9l-1.6,0.1l-0.6,12.5c0,0.3-0.1,0.6-0.3,0.9
		l-2,3.5c-1,1.8-3.7,1.1-3.7-0.9l-0.3-10.4l-0.3,0c-1.1,0.1-2.1-0.7-2.2-1.8l-0.5-5.9l-0.3,0.1h-0.4l-0.2,8.5c0,0.5-0.2,1-0.6,1.4
		l-1,0.4l-0.2,5.6c0,1-0.8,1.8-1.7,1.9l-2,0.3c-1.2,0.2-2.2-0.8-2.2-1.9l-0.2-12.3l-0.2,0.4c-0.3,0.3-0.8,0.5-1.3,0.6l-1.3,0.1
		c-0.7,0-1.3-0.3-1.7-0.8l-0.1-0.2l-0.1,0.1l-1.1,0.5l-0.2,4.2c0,1-0.8,1.8-1.8,1.9l-1,0.1l-0.1,6.1c0,0.6-0.3,1.1-0.6,1.4l-1,0.4
		l0.1,5.9c0,1.3-1.3,2.3-2.6,1.9l-0.4-0.1l-0.8,0.8l-2.4,0.4l-1.1-0.6l-0.3,0.8c-0.3,0.3-0.8,0.6-1.3,0.6l-2.1,0.1
		c-1.1,0.1-2.1-0.8-2.1-1.9l-0.1-1.4l-1.1,0.4h-0.7l-0.1,0.6c-0.1,0.5-0.3,1-0.7,1.3l-0.9,0.3l-0.4,5.7c-0.1,1.1-1,1.9-2.1,1.9
		l-0.2,0l-0.5,8.1c0,0.6-0.4,1.2-0.9,1.5l-0.4,0.1l0.2,3.2c0.1,1.2-1,2.2-2.2,2.1l-0.7-0.1l-0.1,0.3l-1.9,1.1l0.1,6.8
		c0,1.2-1,2.1-2.2,2l-1.3-0.1c-0.4,0-0.8-0.2-1.1-0.5l0,0l-0.6,7.7c-0.1,0.6-0.4,1.2-0.9,1.5l-0.7,0.1l-0.2,2.8
		c-0.1,0.7-0.5,1.4-1.2,1.7l-0.9,0.4c-0.7,0.3-1.6,0.2-2.2-0.4l-0.3,4.2c-0.1,1.1-1,1.9-2.1,1.9l-2.4-0.1l-0.1,0.9
		c0,0.2-0.1,0.4-0.2,0.6l-0.7,1.3c-0.5,1-1.8,1.4-2.7,0.8l-0.9-0.5l-2.3-0.3l0,0.6c0.1,1.2-0.9,2.1-2.1,2.1l-5-0.1l-0.1,0.8
		c-0.1,0.7-0.6,1.3-1.3,1.5l-1.3,0.5c-0.6,0.2-1.3,0.1-1.9-0.3l-0.9-0.6l-0.1,0.5c-0.2,1-1,1.7-2,1.7H556l-0.3,2.9
		c-0.1,0.9-0.8,1.7-1.8,1.8l-1.1,0.1c-1.1,0.1-2.1-0.7-2.2-1.8l-0.3-3.4h-0.1c-1.1,0-1.9-0.9-1.9-2v-2.6l-0.9-3.4l-1.4-0.4
		c-0.4-0.3-0.7-0.7-0.8-1.2l-0.6-3.2l-2.3-0.1l-1.6-1l-0.7,1.1l-1.6,0.2l-0.4,0.5l-1.4,0.6l-0.1,0.9c-0.1,0.9-0.8,1.5-1.6,1.7
		l-0.6,0.1l-0.2,1.1c-0.1,0.9-0.9,1.6-1.8,1.7l-0.3,0l-0.7,2.4l-1.6,1.3l-0.1,5.1c0,1.4-1.3,2.3-2.6,1.9l-1-0.3
		c-0.5-0.2-1-0.6-1.2-1.1l-0.3-0.6l-0.3,1.1c-0.2,0.6-0.6,1-1.1,1.2h-0.7l-1.6,1l-0.7-0.1l-0.1,0.4l-0.1,3.2l-1.1,1.3l-0.7,0.9
		c-0.2,0.2-0.5,0.4-0.8,0.6l-0.9,0.4l-1.1,0.8c-0.3,0.2-0.6,0.4-0.9,0.4l-1.1,0.2l-1,0.8l-0.1,0.2l-0.9,0.6l-0.3,1.5
		c-0.2,0.8-0.8,1.5-1.7,1.6l-2.3,0.3l-0.7,1.1c-0.4,0.3-1,0.4-1.5,0.3l-0.1,0l-0.3,1.1l-1.6,1.2l-0.2,0.7c-0.4,0.5-1,0.7-1.7,0.7
		l-0.7-0.1l-0.2,0.8c-0.1,0.5-0.5,1-0.9,1.3l-0.8,0.1l-0.2,0.7l-0.8,0.5l-0.1,0.6c-0.1,0.7-0.5,1.2-1.1,1.5v0.2
		c0,0.6-0.3,1.1-0.6,1.5l-1.4,0.5l-0.1,0.4c-0.4,0.4-1,0.7-1.6,0.7l-0.7,0l0,0.6c0,0.6-0.3,1.1-0.7,1.5l-0.9,0.3l0,0.1
		c0.1,1.3-0.9,2.3-2.2,2.2l-2.7-0.3l-0.3,0.2c-0.5,0.3-1.1,0.4-1.6,0.3l-1.3-1l-0.2,0.7c-0.2,0.7-0.8,1.2-1.5,1.3l-1.8,0.4
		c-0.1,0-0.2,0-0.2,0l-3,0.3l-1.2,1.3c-0.4,0.4-1,0.7-1.5,0.6l-5.2-0.2l-5.5,1.9c-0.2,0.1-0.3,0.1-0.5,0.1l-11.4,1l-18.9,2.4
		c-0.1,0-0.2,0-0.2,0h-30l-20.9,0.7l-34.1,1.3L2,329.6C0.9,329.6,0,328.7,0,327.6z"/>
	<rect x="2" y="342.3" class="st1" width="817.8" height="2"/>
	<g>
		<path class="st2" d="M358.5,360.7c0-0.6,0.1-1,0.2-1.5c0.2-0.4,0.4-0.8,0.6-1.1c0.3-0.3,0.6-0.6,0.9-0.9c0.3-0.2,0.7-0.5,1-0.7
			c0.3-0.2,0.6-0.4,0.8-0.6c0.3-0.2,0.5-0.4,0.6-0.7c0.2-0.2,0.2-0.5,0.2-0.8c0-0.4-0.1-0.7-0.4-1c-0.3-0.3-0.7-0.4-1.2-0.4
			c-0.5,0-0.9,0.1-1.2,0.3c-0.3,0.2-0.5,0.5-0.6,0.9l-0.9-0.4c0.2-0.5,0.5-0.9,1-1.3c0.5-0.3,1.1-0.5,1.8-0.5c0.6,0,1,0.1,1.4,0.3
			s0.7,0.5,0.9,0.9c0.2,0.4,0.3,0.8,0.3,1.3c0,0.5-0.1,0.9-0.3,1.3c-0.2,0.3-0.5,0.6-0.9,0.9c-0.4,0.3-0.7,0.5-1.1,0.7
			c-0.3,0.2-0.7,0.4-0.9,0.6c-0.3,0.2-0.5,0.5-0.7,0.7c-0.2,0.3-0.3,0.5-0.4,0.9h4.4v1H358.5z"/>
		<path class="st2" d="M368.9,360.9c-0.6,0-1-0.1-1.4-0.4c-0.4-0.3-0.7-0.6-0.9-1c-0.2-0.4-0.4-0.9-0.5-1.4c-0.1-0.5-0.1-1-0.1-1.5
			c0-0.4,0-0.8,0.1-1.2s0.1-0.8,0.3-1.2c0.1-0.4,0.3-0.7,0.5-1c0.2-0.3,0.5-0.5,0.8-0.7c0.3-0.2,0.7-0.3,1.2-0.3
			c0.6,0,1,0.1,1.4,0.4c0.4,0.3,0.7,0.6,0.9,1s0.4,0.9,0.5,1.4c0.1,0.5,0.1,1,0.1,1.5c0,0.4,0,0.7-0.1,1.1c-0.1,0.4-0.1,0.8-0.3,1.2
			c-0.1,0.4-0.3,0.7-0.5,1c-0.2,0.3-0.5,0.5-0.8,0.7C369.7,360.8,369.3,360.9,368.9,360.9z M368.9,359.9c0.4,0,0.7-0.1,0.9-0.3
			c0.2-0.2,0.4-0.5,0.6-0.8c0.1-0.3,0.2-0.7,0.3-1.1c0.1-0.4,0.1-0.8,0.1-1.1c0-0.4,0-0.8-0.1-1.2c-0.1-0.4-0.2-0.8-0.3-1.1
			c-0.1-0.3-0.3-0.6-0.6-0.8c-0.2-0.2-0.5-0.3-0.9-0.3c-0.4,0-0.7,0.1-0.9,0.3c-0.3,0.2-0.4,0.5-0.6,0.8c-0.1,0.3-0.2,0.7-0.3,1.1
			c-0.1,0.4-0.1,0.8-0.1,1.2c0,0.4,0,0.8,0.1,1.2c0.1,0.4,0.1,0.8,0.3,1.1c0.1,0.3,0.3,0.6,0.6,0.8
			C368.2,359.8,368.5,359.9,368.9,359.9z"/>
		<path class="st2" d="M374.6,360.7V354h-1.4v-0.7c0.3,0,0.5,0,0.7-0.1c0.2-0.1,0.4-0.2,0.6-0.3c0.2-0.1,0.3-0.3,0.4-0.6h0.8v8.4
			H374.6z"/>
		<path class="st2" d="M380.8,360.9c-0.5,0-0.9-0.1-1.2-0.2c-0.4-0.2-0.7-0.4-0.9-0.7c-0.2-0.3-0.4-0.6-0.5-1
			c-0.1-0.4-0.2-0.8-0.2-1.3c0-0.9,0.2-1.7,0.5-2.4c0.3-0.8,0.9-1.4,1.5-1.9c0.7-0.5,1.5-0.9,2.4-1.1v0.9c-0.5,0.1-1,0.3-1.4,0.6
			c-0.4,0.3-0.8,0.6-1.1,1.1c-0.3,0.4-0.5,0.9-0.6,1.4c0.2-0.2,0.4-0.4,0.7-0.5c0.3-0.1,0.7-0.2,1.1-0.2c0.5,0,0.9,0.1,1.3,0.4
			c0.4,0.2,0.7,0.6,0.9,1c0.2,0.4,0.3,0.8,0.3,1.3c0,0.5-0.1,1-0.4,1.4s-0.6,0.7-1,1C381.8,360.8,381.3,360.9,380.8,360.9z
			 M380.8,359.9c0.3,0,0.7-0.1,0.9-0.2c0.3-0.1,0.5-0.3,0.6-0.6c0.2-0.3,0.2-0.6,0.2-0.9c0-0.5-0.2-0.9-0.5-1.3
			c-0.3-0.3-0.8-0.5-1.3-0.5c-0.3,0-0.7,0.1-0.9,0.2c-0.3,0.1-0.5,0.3-0.6,0.6c-0.2,0.3-0.2,0.6-0.2,0.9c0,0.3,0.1,0.6,0.2,0.9
			s0.4,0.5,0.6,0.6C380.1,359.8,380.5,359.9,380.8,359.9z"/>
		<path class="st2" d="M483.3,360.7c0-0.6,0.1-1,0.2-1.5c0.1-0.4,0.4-0.8,0.6-1.1c0.3-0.3,0.6-0.6,0.9-0.9c0.3-0.2,0.7-0.5,1-0.7
			c0.3-0.2,0.6-0.4,0.8-0.6c0.3-0.2,0.5-0.4,0.6-0.7c0.2-0.2,0.2-0.5,0.2-0.8c0-0.4-0.1-0.7-0.4-1c-0.3-0.3-0.7-0.4-1.2-0.4
			c-0.5,0-0.9,0.1-1.2,0.3c-0.3,0.2-0.5,0.5-0.6,0.9l-0.9-0.4c0.2-0.5,0.5-0.9,1-1.3c0.5-0.3,1.1-0.5,1.8-0.5c0.6,0,1,0.1,1.4,0.3
			s0.7,0.5,0.9,0.9c0.2,0.4,0.3,0.8,0.3,1.3c0,0.5-0.1,0.9-0.3,1.3c-0.2,0.3-0.5,0.6-0.9,0.9c-0.4,0.3-0.7,0.5-1.1,0.7
			c-0.3,0.2-0.7,0.4-0.9,0.6c-0.3,0.2-0.5,0.5-0.7,0.7c-0.2,0.3-0.3,0.5-0.4,0.9h4.4v1H483.3z"/>
		<path class="st2" d="M493.6,360.9c-0.6,0-1-0.1-1.4-0.4c-0.4-0.3-0.7-0.6-0.9-1c-0.2-0.4-0.4-0.9-0.5-1.4c-0.1-0.5-0.1-1-0.1-1.5
			c0-0.4,0-0.8,0.1-1.2s0.1-0.8,0.3-1.2c0.1-0.4,0.3-0.7,0.5-1c0.2-0.3,0.5-0.5,0.8-0.7c0.3-0.2,0.7-0.3,1.2-0.3
			c0.6,0,1,0.1,1.4,0.4c0.4,0.3,0.7,0.6,0.9,1s0.4,0.9,0.5,1.4c0.1,0.5,0.1,1,0.1,1.5c0,0.4,0,0.7-0.1,1.1c-0.1,0.4-0.2,0.8-0.3,1.2
			c-0.1,0.4-0.3,0.7-0.5,1c-0.2,0.3-0.5,0.5-0.8,0.7C494.5,360.8,494.1,360.9,493.6,360.9z M493.6,359.9c0.4,0,0.7-0.1,0.9-0.3
			c0.2-0.2,0.4-0.5,0.6-0.8c0.1-0.3,0.2-0.7,0.3-1.1c0.1-0.4,0.1-0.8,0.1-1.1c0-0.4,0-0.8-0.1-1.2c-0.1-0.4-0.2-0.8-0.3-1.1
			c-0.1-0.3-0.3-0.6-0.6-0.8c-0.2-0.2-0.5-0.3-0.9-0.3c-0.4,0-0.7,0.1-0.9,0.3c-0.3,0.2-0.4,0.5-0.6,0.8c-0.1,0.3-0.2,0.7-0.3,1.1
			c-0.1,0.4-0.1,0.8-0.1,1.2c0,0.4,0,0.8,0.1,1.2c0.1,0.4,0.2,0.8,0.3,1.1c0.1,0.3,0.3,0.6,0.6,0.8S493.3,359.9,493.6,359.9z"/>
		<path class="st2" d="M499.4,360.7V354H498v-0.7c0.3,0,0.5,0,0.8-0.1c0.2-0.1,0.4-0.2,0.6-0.3c0.2-0.1,0.3-0.3,0.4-0.6h0.8v8.4
			H499.4z"/>
		<path class="st2" d="M505.6,360.9c-0.6,0-1-0.1-1.5-0.3c-0.4-0.2-0.8-0.5-1-0.9c-0.2-0.4-0.4-0.8-0.4-1.3c0-0.5,0.1-1,0.4-1.4
			c0.3-0.4,0.6-0.7,1-0.9c-0.2-0.1-0.4-0.3-0.6-0.4c-0.2-0.2-0.3-0.4-0.4-0.6c-0.1-0.2-0.1-0.5-0.1-0.7c0-0.4,0.1-0.8,0.3-1.1
			c0.2-0.3,0.5-0.6,0.9-0.8c0.4-0.2,0.8-0.3,1.3-0.3s0.9,0.1,1.3,0.3c0.4,0.2,0.7,0.5,0.9,0.8c0.2,0.3,0.3,0.7,0.3,1.1
			c0,0.3,0,0.5-0.1,0.7c-0.1,0.2-0.2,0.4-0.4,0.6c-0.2,0.2-0.4,0.3-0.6,0.4c0.4,0.2,0.8,0.5,1.1,0.9c0.3,0.4,0.4,0.8,0.4,1.4
			c0,0.5-0.1,0.9-0.4,1.3c-0.2,0.4-0.6,0.7-1,0.9C506.7,360.8,506.2,360.9,505.6,360.9z M505.6,359.9c0.3,0,0.6-0.1,0.9-0.2
			c0.3-0.1,0.5-0.3,0.6-0.6c0.1-0.3,0.2-0.5,0.2-0.9c0-0.3-0.1-0.6-0.2-0.8s-0.3-0.5-0.6-0.6c-0.3-0.1-0.6-0.2-0.9-0.2
			c-0.3,0-0.7,0.1-0.9,0.2c-0.3,0.2-0.5,0.4-0.6,0.6c-0.1,0.3-0.2,0.5-0.2,0.8c0,0.3,0.1,0.6,0.2,0.9c0.1,0.2,0.4,0.4,0.6,0.6
			C505,359.8,505.3,359.9,505.6,359.9z M505.6,355.7c0.4,0,0.7-0.1,1-0.4c0.3-0.2,0.4-0.5,0.4-0.9c0-0.4-0.1-0.7-0.4-0.9
			c-0.3-0.2-0.6-0.3-1-0.3s-0.7,0.1-1,0.3c-0.3,0.2-0.4,0.5-0.4,0.9c0,0.3,0.1,0.6,0.4,0.9S505.2,355.7,505.6,355.7z"/>
		<path class="st2" d="M608.8,360.7c0-0.6,0.1-1,0.2-1.5c0.2-0.4,0.4-0.8,0.6-1.1c0.3-0.3,0.6-0.6,0.9-0.9c0.3-0.2,0.7-0.5,1-0.7
			c0.3-0.2,0.6-0.4,0.8-0.6c0.3-0.2,0.5-0.4,0.6-0.7c0.2-0.2,0.2-0.5,0.2-0.8c0-0.4-0.1-0.7-0.4-1c-0.3-0.3-0.7-0.4-1.2-0.4
			c-0.5,0-0.9,0.1-1.2,0.3c-0.3,0.2-0.5,0.5-0.6,0.9l-0.9-0.4c0.2-0.5,0.5-0.9,1-1.3c0.5-0.3,1.1-0.5,1.8-0.5c0.6,0,1,0.1,1.4,0.3
			s0.7,0.5,0.9,0.9c0.2,0.4,0.3,0.8,0.3,1.3c0,0.5-0.1,0.9-0.3,1.3c-0.2,0.3-0.5,0.6-0.9,0.9c-0.4,0.3-0.7,0.5-1.1,0.7
			c-0.3,0.2-0.7,0.4-0.9,0.6s-0.5,0.5-0.7,0.7c-0.2,0.3-0.3,0.5-0.4,0.9h4.4v1H608.8z"/>
		<path class="st2" d="M619.1,360.9c-0.6,0-1-0.1-1.4-0.4c-0.4-0.3-0.7-0.6-0.9-1c-0.2-0.4-0.4-0.9-0.5-1.4c-0.1-0.5-0.1-1-0.1-1.5
			c0-0.4,0-0.8,0.1-1.2s0.1-0.8,0.3-1.2c0.1-0.4,0.3-0.7,0.5-1c0.2-0.3,0.5-0.5,0.8-0.7c0.3-0.2,0.7-0.3,1.2-0.3
			c0.6,0,1,0.1,1.4,0.4c0.4,0.3,0.7,0.6,0.9,1c0.2,0.4,0.4,0.9,0.5,1.4c0.1,0.5,0.1,1,0.1,1.5c0,0.4,0,0.7-0.1,1.1
			c-0.1,0.4-0.1,0.8-0.3,1.2c-0.1,0.4-0.3,0.7-0.5,1c-0.2,0.3-0.5,0.5-0.8,0.7C620,360.8,619.6,360.9,619.1,360.9z M619.1,359.9
			c0.4,0,0.7-0.1,0.9-0.3c0.2-0.2,0.4-0.5,0.6-0.8c0.1-0.3,0.2-0.7,0.3-1.1s0.1-0.8,0.1-1.1c0-0.4,0-0.8-0.1-1.2
			c-0.1-0.4-0.2-0.8-0.3-1.1c-0.1-0.3-0.3-0.6-0.6-0.8c-0.2-0.2-0.5-0.3-0.9-0.3c-0.4,0-0.7,0.1-0.9,0.3c-0.2,0.2-0.4,0.5-0.6,0.8
			c-0.1,0.3-0.2,0.7-0.3,1.1c0,0.4-0.1,0.8-0.1,1.2c0,0.4,0,0.8,0.1,1.2c0.1,0.4,0.1,0.8,0.3,1.1c0.1,0.3,0.3,0.6,0.6,0.8
			C618.4,359.8,618.7,359.9,619.1,359.9z"/>
		<path class="st2" d="M623.8,360.7c0-0.6,0.1-1,0.2-1.5c0.2-0.4,0.4-0.8,0.6-1.1c0.3-0.3,0.6-0.6,0.9-0.9c0.3-0.2,0.7-0.5,1-0.7
			c0.3-0.2,0.6-0.4,0.8-0.6c0.3-0.2,0.5-0.4,0.6-0.7c0.2-0.2,0.3-0.5,0.3-0.8c0-0.4-0.1-0.7-0.5-1c-0.3-0.3-0.7-0.4-1.2-0.4
			c-0.5,0-0.9,0.1-1.2,0.3c-0.3,0.2-0.5,0.5-0.6,0.9l-0.9-0.4c0.2-0.5,0.5-0.9,1-1.3c0.5-0.3,1.1-0.5,1.8-0.5c0.6,0,1,0.1,1.4,0.3
			s0.7,0.5,0.9,0.9c0.2,0.4,0.3,0.8,0.3,1.3c0,0.5-0.1,0.9-0.3,1.3c-0.2,0.3-0.5,0.6-0.9,0.9c-0.3,0.3-0.7,0.5-1.1,0.7
			c-0.3,0.2-0.7,0.4-0.9,0.6c-0.3,0.2-0.5,0.5-0.7,0.7c-0.2,0.3-0.3,0.5-0.4,0.9h4.4v1H623.8z"/>
		<path class="st2" d="M634.1,360.9c-0.6,0-1-0.1-1.4-0.4c-0.4-0.3-0.7-0.6-0.9-1c-0.2-0.4-0.4-0.9-0.5-1.4c-0.1-0.5-0.1-1-0.1-1.5
			c0-0.4,0-0.8,0.1-1.2c0.1-0.4,0.1-0.8,0.3-1.2c0.1-0.4,0.3-0.7,0.5-1c0.2-0.3,0.5-0.5,0.8-0.7c0.3-0.2,0.7-0.3,1.2-0.3
			c0.6,0,1,0.1,1.4,0.4c0.4,0.3,0.7,0.6,0.9,1c0.2,0.4,0.4,0.9,0.5,1.4c0.1,0.5,0.1,1,0.1,1.5c0,0.4,0,0.7-0.1,1.1s-0.1,0.8-0.3,1.2
			c-0.1,0.4-0.3,0.7-0.5,1c-0.2,0.3-0.5,0.5-0.8,0.7C635,360.8,634.6,360.9,634.1,360.9z M634.1,359.9c0.4,0,0.7-0.1,0.9-0.3
			c0.2-0.2,0.4-0.5,0.6-0.8c0.1-0.3,0.2-0.7,0.3-1.1c0-0.4,0.1-0.8,0.1-1.1c0-0.4,0-0.8-0.1-1.2c-0.1-0.4-0.1-0.8-0.3-1.1
			c-0.1-0.3-0.3-0.6-0.6-0.8c-0.2-0.2-0.5-0.3-0.9-0.3c-0.4,0-0.7,0.1-0.9,0.3s-0.4,0.5-0.6,0.8c-0.1,0.3-0.2,0.7-0.3,1.1
			c-0.1,0.4-0.1,0.8-0.1,1.2c0,0.4,0,0.8,0.1,1.2c0.1,0.4,0.2,0.8,0.3,1.1c0.1,0.3,0.3,0.6,0.6,0.8
			C633.5,359.8,633.8,359.9,634.1,359.9z"/>
		<path class="st2" d="M792.1,360.7c0-0.6,0.1-1,0.2-1.5c0.2-0.4,0.4-0.8,0.6-1.1c0.3-0.3,0.6-0.6,0.9-0.9c0.3-0.2,0.7-0.5,1-0.7
			c0.3-0.2,0.6-0.4,0.8-0.6c0.3-0.2,0.5-0.4,0.6-0.7c0.2-0.2,0.2-0.5,0.2-0.8c0-0.4-0.1-0.7-0.4-1c-0.3-0.3-0.7-0.4-1.2-0.4
			c-0.5,0-0.9,0.1-1.2,0.3s-0.5,0.5-0.6,0.9l-0.9-0.4c0.2-0.5,0.5-0.9,1-1.3c0.5-0.3,1.1-0.5,1.8-0.5c0.6,0,1,0.1,1.5,0.3
			c0.4,0.2,0.7,0.5,0.9,0.9c0.2,0.4,0.3,0.8,0.3,1.3c0,0.5-0.1,0.9-0.3,1.3c-0.2,0.3-0.5,0.6-0.9,0.9c-0.3,0.3-0.7,0.5-1.1,0.7
			c-0.3,0.2-0.7,0.4-0.9,0.6c-0.3,0.2-0.5,0.5-0.7,0.7c-0.2,0.3-0.3,0.5-0.4,0.9h4.4v1H792.1z"/>
		<path class="st2" d="M802.5,360.9c-0.6,0-1-0.1-1.4-0.4c-0.4-0.3-0.7-0.6-0.9-1c-0.2-0.4-0.4-0.9-0.5-1.4s-0.1-1-0.1-1.5
			c0-0.4,0-0.8,0.1-1.2c0.1-0.4,0.1-0.8,0.3-1.2c0.1-0.4,0.3-0.7,0.5-1c0.2-0.3,0.5-0.5,0.8-0.7c0.3-0.2,0.7-0.3,1.2-0.3
			c0.6,0,1,0.1,1.4,0.4c0.4,0.3,0.7,0.6,0.9,1c0.2,0.4,0.4,0.9,0.5,1.4c0.1,0.5,0.1,1,0.1,1.5c0,0.4,0,0.7-0.1,1.1s-0.1,0.8-0.3,1.2
			c-0.1,0.4-0.3,0.7-0.5,1c-0.2,0.3-0.5,0.5-0.8,0.7C803.3,360.8,802.9,360.9,802.5,360.9z M802.5,359.9c0.4,0,0.7-0.1,0.9-0.3
			c0.2-0.2,0.4-0.5,0.6-0.8c0.1-0.3,0.2-0.7,0.3-1.1s0.1-0.8,0.1-1.1c0-0.4,0-0.8-0.1-1.2c-0.1-0.4-0.1-0.8-0.3-1.1
			c-0.1-0.3-0.3-0.6-0.6-0.8c-0.2-0.2-0.5-0.3-0.9-0.3c-0.4,0-0.7,0.1-0.9,0.3c-0.2,0.2-0.4,0.5-0.6,0.8c-0.1,0.3-0.2,0.7-0.3,1.1
			c-0.1,0.4-0.1,0.8-0.1,1.2c0,0.4,0,0.8,0.1,1.2c0.1,0.4,0.1,0.8,0.3,1.1c0.1,0.3,0.3,0.6,0.6,0.8
			C801.8,359.8,802.1,359.9,802.5,359.9z"/>
		<path class="st2" d="M807.1,360.7c0-0.6,0.1-1,0.2-1.5c0.2-0.4,0.4-0.8,0.6-1.1c0.3-0.3,0.6-0.6,0.9-0.9c0.3-0.2,0.7-0.5,1-0.7
			c0.3-0.2,0.6-0.4,0.8-0.6c0.3-0.2,0.5-0.4,0.6-0.7c0.2-0.2,0.2-0.5,0.2-0.8c0-0.4-0.1-0.7-0.4-1c-0.3-0.3-0.7-0.4-1.2-0.4
			c-0.5,0-0.9,0.1-1.2,0.3c-0.3,0.2-0.5,0.5-0.6,0.9l-0.9-0.4c0.2-0.5,0.5-0.9,1-1.3c0.5-0.3,1.1-0.5,1.8-0.5c0.6,0,1,0.1,1.4,0.3
			s0.7,0.5,0.9,0.9c0.2,0.4,0.3,0.8,0.3,1.3c0,0.5-0.1,0.9-0.3,1.3c-0.2,0.3-0.5,0.6-0.9,0.9c-0.4,0.3-0.7,0.5-1.1,0.7
			c-0.3,0.2-0.7,0.4-0.9,0.6s-0.5,0.5-0.7,0.7c-0.2,0.3-0.3,0.5-0.4,0.9h4.4v1H807.1z"/>
		<path class="st2" d="M817.1,360.9c-0.7,0-1.3-0.2-1.8-0.5c-0.5-0.3-0.8-0.8-1.1-1.5l1-0.4c0.4,0.9,1,1.4,1.9,1.4
			c0.6,0,1-0.1,1.3-0.4c0.3-0.3,0.5-0.6,0.5-1.1c0-0.5-0.1-0.9-0.5-1.1c-0.3-0.3-0.7-0.4-1.3-0.4h-0.6v-1h0.5c0.5,0,0.8-0.1,1.1-0.4
			c0.3-0.3,0.4-0.6,0.4-1c0-0.4-0.1-0.7-0.4-1c-0.3-0.3-0.6-0.4-1-0.4c-0.4,0-0.7,0.1-1,0.3c-0.3,0.2-0.5,0.5-0.7,0.8l-1-0.4
			c0.2-0.5,0.5-1,1-1.3c0.5-0.3,1-0.5,1.6-0.5c0.5,0,0.9,0.1,1.3,0.3c0.4,0.2,0.7,0.5,0.9,0.8c0.2,0.3,0.3,0.7,0.3,1.1
			c0,0.4-0.1,0.7-0.3,1.1c-0.2,0.3-0.5,0.6-0.8,0.7c0.5,0.2,0.8,0.5,1,0.8c0.2,0.4,0.4,0.8,0.4,1.3c0,0.5-0.1,0.9-0.4,1.3
			c-0.3,0.4-0.6,0.7-1,0.9S817.7,360.9,817.1,360.9z"/>
		<path class="st2" d="M124,360.7c0-0.6,0.1-1,0.2-1.5c0.2-0.4,0.4-0.8,0.6-1.1c0.3-0.3,0.6-0.6,0.9-0.9c0.3-0.2,0.7-0.5,1-0.7
			c0.3-0.2,0.6-0.4,0.8-0.6c0.3-0.2,0.5-0.4,0.6-0.7c0.2-0.2,0.2-0.5,0.2-0.8c0-0.4-0.1-0.7-0.4-1c-0.3-0.3-0.7-0.4-1.2-0.4
			c-0.5,0-0.9,0.1-1.2,0.3c-0.3,0.2-0.5,0.5-0.6,0.9l-0.9-0.4c0.2-0.5,0.5-0.9,1-1.3c0.5-0.3,1.1-0.5,1.8-0.5c0.6,0,1,0.1,1.4,0.3
			c0.4,0.2,0.7,0.5,0.9,0.9c0.2,0.4,0.3,0.8,0.3,1.3c0,0.5-0.1,0.9-0.3,1.3c-0.2,0.3-0.5,0.6-0.9,0.9c-0.4,0.3-0.7,0.5-1.1,0.7
			c-0.3,0.2-0.7,0.4-0.9,0.6c-0.3,0.2-0.5,0.5-0.7,0.7c-0.2,0.3-0.3,0.5-0.4,0.9h4.4v1H124z"/>
		<path class="st2" d="M134.3,360.9c-0.6,0-1-0.1-1.4-0.4c-0.4-0.3-0.7-0.6-0.9-1c-0.2-0.4-0.4-0.9-0.5-1.4c-0.1-0.5-0.1-1-0.1-1.5
			c0-0.4,0-0.8,0.1-1.2c0.1-0.4,0.1-0.8,0.3-1.2c0.1-0.4,0.3-0.7,0.5-1c0.2-0.3,0.5-0.5,0.8-0.7c0.3-0.2,0.7-0.3,1.2-0.3
			c0.6,0,1,0.1,1.4,0.4c0.4,0.3,0.7,0.6,0.9,1s0.4,0.9,0.5,1.4c0.1,0.5,0.1,1,0.1,1.5c0,0.4,0,0.7-0.1,1.1c-0.1,0.4-0.1,0.8-0.3,1.2
			c-0.1,0.4-0.3,0.7-0.5,1c-0.2,0.3-0.5,0.5-0.8,0.7C135.2,360.8,134.8,360.9,134.3,360.9z M134.3,359.9c0.4,0,0.7-0.1,0.9-0.3
			c0.2-0.2,0.4-0.5,0.6-0.8c0.1-0.3,0.2-0.7,0.3-1.1c0.1-0.4,0.1-0.8,0.1-1.1c0-0.4,0-0.8-0.1-1.2c-0.1-0.4-0.2-0.8-0.3-1.1
			c-0.1-0.3-0.3-0.6-0.6-0.8c-0.2-0.2-0.5-0.3-0.9-0.3c-0.4,0-0.7,0.1-0.9,0.3c-0.3,0.2-0.4,0.5-0.6,0.8c-0.1,0.3-0.2,0.7-0.3,1.1
			c-0.1,0.4-0.1,0.8-0.1,1.2c0,0.4,0,0.8,0.1,1.2c0.1,0.4,0.1,0.8,0.3,1.1c0.1,0.3,0.3,0.6,0.6,0.8
			C133.6,359.8,134,359.9,134.3,359.9z"/>
		<path class="st2" d="M140,360.7V354h-1.4v-0.7c0.3,0,0.5,0,0.7-0.1c0.2-0.1,0.4-0.2,0.6-0.3c0.2-0.1,0.3-0.3,0.4-0.6h0.8v8.4H140z
			"/>
		<path class="st2" d="M143.5,360.7c0-0.6,0.1-1,0.2-1.5c0.2-0.4,0.4-0.8,0.6-1.1c0.3-0.3,0.6-0.6,0.9-0.9c0.3-0.2,0.7-0.5,1-0.7
			c0.3-0.2,0.6-0.4,0.8-0.6c0.3-0.2,0.5-0.4,0.6-0.7c0.2-0.2,0.2-0.5,0.2-0.8c0-0.4-0.1-0.7-0.4-1c-0.3-0.3-0.7-0.4-1.2-0.4
			c-0.5,0-0.9,0.1-1.2,0.3s-0.5,0.5-0.6,0.9l-0.9-0.4c0.2-0.5,0.5-0.9,1-1.3c0.5-0.3,1.1-0.5,1.8-0.5c0.6,0,1,0.1,1.4,0.3
			s0.7,0.5,0.9,0.9c0.2,0.4,0.3,0.8,0.3,1.3c0,0.5-0.1,0.9-0.3,1.3c-0.2,0.3-0.5,0.6-0.9,0.9c-0.4,0.3-0.7,0.5-1.1,0.7
			c-0.3,0.2-0.7,0.4-0.9,0.6s-0.5,0.5-0.7,0.7c-0.2,0.3-0.3,0.5-0.4,0.9h4.4v1H143.5z"/>
		<path class="st2" d="M248.8,360.7c0-0.6,0.1-1,0.2-1.5c0.1-0.4,0.4-0.8,0.6-1.1c0.3-0.3,0.6-0.6,0.9-0.9c0.3-0.2,0.7-0.5,1-0.7
			c0.3-0.2,0.6-0.4,0.8-0.6c0.3-0.2,0.5-0.4,0.6-0.7c0.2-0.2,0.2-0.5,0.2-0.8c0-0.4-0.1-0.7-0.4-1c-0.3-0.3-0.7-0.4-1.2-0.4
			c-0.5,0-0.9,0.1-1.2,0.3c-0.3,0.2-0.5,0.5-0.6,0.9l-0.9-0.4c0.2-0.5,0.5-0.9,1-1.3c0.5-0.3,1.1-0.5,1.8-0.5c0.6,0,1,0.1,1.4,0.3
			c0.4,0.2,0.7,0.5,0.9,0.9c0.2,0.4,0.3,0.8,0.3,1.3c0,0.5-0.1,0.9-0.3,1.3c-0.2,0.3-0.5,0.6-0.9,0.9c-0.4,0.3-0.7,0.5-1.1,0.7
			c-0.3,0.2-0.7,0.4-0.9,0.6c-0.3,0.2-0.5,0.5-0.7,0.7c-0.2,0.3-0.3,0.5-0.4,0.9h4.4v1H248.8z"/>
		<path class="st2" d="M259.1,360.9c-0.6,0-1-0.1-1.4-0.4c-0.4-0.3-0.7-0.6-0.9-1c-0.2-0.4-0.4-0.9-0.5-1.4c-0.1-0.5-0.1-1-0.1-1.5
			c0-0.4,0-0.8,0.1-1.2c0.1-0.4,0.1-0.8,0.3-1.2c0.1-0.4,0.3-0.7,0.5-1c0.2-0.3,0.5-0.5,0.8-0.7c0.3-0.2,0.7-0.3,1.2-0.3
			c0.6,0,1,0.1,1.4,0.4c0.4,0.3,0.7,0.6,0.9,1s0.4,0.9,0.5,1.4c0.1,0.5,0.1,1,0.1,1.5c0,0.4,0,0.7-0.1,1.1c-0.1,0.4-0.2,0.8-0.3,1.2
			c-0.1,0.4-0.3,0.7-0.5,1c-0.2,0.3-0.5,0.5-0.8,0.7C260,360.8,259.6,360.9,259.1,360.9z M259.1,359.9c0.4,0,0.7-0.1,0.9-0.3
			c0.2-0.2,0.4-0.5,0.6-0.8c0.1-0.3,0.2-0.7,0.3-1.1c0.1-0.4,0.1-0.8,0.1-1.1c0-0.4,0-0.8-0.1-1.2c-0.1-0.4-0.2-0.8-0.3-1.1
			c-0.1-0.3-0.3-0.6-0.6-0.8c-0.2-0.2-0.5-0.3-0.9-0.3s-0.7,0.1-0.9,0.3c-0.3,0.2-0.4,0.5-0.6,0.8c-0.1,0.3-0.2,0.7-0.3,1.1
			c-0.1,0.4-0.1,0.8-0.1,1.2c0,0.4,0,0.8,0.1,1.2c0.1,0.4,0.2,0.8,0.3,1.1c0.1,0.3,0.3,0.6,0.6,0.8S258.7,359.9,259.1,359.9z"/>
		<path class="st2" d="M264.8,360.7V354h-1.4v-0.7c0.3,0,0.5,0,0.8-0.1c0.2-0.1,0.4-0.2,0.6-0.3c0.2-0.1,0.3-0.3,0.4-0.6h0.8v8.4
			H264.8z"/>
		<path class="st2" d="M272,360.7v-2.1h-4.3V358l4.3-5.7h1v5.4h1.2v0.9H273v2.1H272z M269.1,357.7h2.9v-3.9L269.1,357.7z"/>
		<path class="st2" d="M14.2,360.7c0-0.6,0.1-1,0.2-1.5c0.2-0.4,0.4-0.8,0.6-1.1c0.3-0.3,0.6-0.6,0.9-0.9c0.3-0.2,0.7-0.5,1-0.7
			c0.3-0.2,0.6-0.4,0.8-0.6c0.3-0.2,0.5-0.4,0.6-0.7c0.2-0.2,0.2-0.5,0.2-0.8c0-0.4-0.1-0.7-0.4-1c-0.3-0.3-0.7-0.4-1.2-0.4
			c-0.5,0-0.9,0.1-1.2,0.3c-0.3,0.2-0.5,0.5-0.6,0.9l-0.9-0.4c0.2-0.5,0.5-0.9,1-1.3c0.5-0.3,1.1-0.5,1.8-0.5c0.6,0,1,0.1,1.4,0.3
			c0.4,0.2,0.7,0.5,0.9,0.9c0.2,0.4,0.3,0.8,0.3,1.3c0,0.5-0.1,0.9-0.3,1.3c-0.2,0.3-0.5,0.6-0.9,0.9c-0.4,0.3-0.7,0.5-1.1,0.7
			c-0.3,0.2-0.7,0.4-0.9,0.6s-0.5,0.5-0.7,0.7c-0.2,0.3-0.3,0.5-0.4,0.9h4.4v1H14.2z"/>
		<path class="st2" d="M24.5,360.9c-0.6,0-1-0.1-1.4-0.4c-0.4-0.3-0.7-0.6-0.9-1c-0.2-0.4-0.4-0.9-0.5-1.4c-0.1-0.5-0.1-1-0.1-1.5
			c0-0.4,0-0.8,0.1-1.2s0.1-0.8,0.3-1.2c0.1-0.4,0.3-0.7,0.5-1c0.2-0.3,0.5-0.5,0.8-0.7c0.3-0.2,0.7-0.3,1.2-0.3
			c0.6,0,1,0.1,1.4,0.4c0.4,0.3,0.7,0.6,0.9,1s0.4,0.9,0.5,1.4c0.1,0.5,0.1,1,0.1,1.5c0,0.4,0,0.7-0.1,1.1c-0.1,0.4-0.1,0.8-0.3,1.2
			c-0.1,0.4-0.3,0.7-0.5,1c-0.2,0.3-0.5,0.5-0.8,0.7C25.4,360.8,25,360.9,24.5,360.9z M24.5,359.9c0.4,0,0.7-0.1,0.9-0.3
			c0.2-0.2,0.4-0.5,0.6-0.8c0.1-0.3,0.2-0.7,0.3-1.1c0.1-0.4,0.1-0.8,0.1-1.1c0-0.4,0-0.8-0.1-1.2c-0.1-0.4-0.2-0.8-0.3-1.1
			c-0.1-0.3-0.3-0.6-0.6-0.8c-0.2-0.2-0.5-0.3-0.9-0.3c-0.4,0-0.7,0.1-0.9,0.3c-0.3,0.2-0.4,0.5-0.6,0.8c-0.1,0.3-0.2,0.7-0.3,1.1
			c-0.1,0.4-0.1,0.8-0.1,1.2c0,0.4,0,0.8,0.1,1.2c0.1,0.4,0.1,0.8,0.3,1.1c0.1,0.3,0.3,0.6,0.6,0.8
			C23.9,359.8,24.2,359.9,24.5,359.9z"/>
		<path class="st2" d="M30.3,360.7V354h-1.4v-0.7c0.3,0,0.5,0,0.7-0.1c0.2-0.1,0.4-0.2,0.6-0.3c0.2-0.1,0.3-0.3,0.4-0.6h0.8v8.4
			H30.3z"/>
		<path class="st2" d="M36.7,360.9c-0.6,0-1-0.1-1.4-0.4c-0.4-0.3-0.7-0.6-0.9-1c-0.2-0.4-0.4-0.9-0.5-1.4c-0.1-0.5-0.1-1-0.1-1.5
			c0-0.4,0-0.8,0.1-1.2s0.1-0.8,0.3-1.2c0.1-0.4,0.3-0.7,0.5-1c0.2-0.3,0.5-0.5,0.9-0.7c0.3-0.2,0.7-0.3,1.2-0.3
			c0.6,0,1,0.1,1.4,0.4c0.4,0.3,0.7,0.6,0.9,1c0.2,0.4,0.4,0.9,0.5,1.4c0.1,0.5,0.1,1,0.1,1.5c0,0.4,0,0.7-0.1,1.1s-0.1,0.8-0.3,1.2
			c-0.1,0.4-0.3,0.7-0.5,1c-0.2,0.3-0.5,0.5-0.8,0.7C37.6,360.8,37.2,360.9,36.7,360.9z M36.7,359.9c0.4,0,0.7-0.1,0.9-0.3
			c0.2-0.2,0.4-0.5,0.5-0.8c0.1-0.3,0.2-0.7,0.3-1.1s0.1-0.8,0.1-1.1c0-0.4,0-0.8-0.1-1.2s-0.1-0.8-0.3-1.1
			c-0.1-0.3-0.3-0.6-0.6-0.8c-0.2-0.2-0.5-0.3-0.9-0.3c-0.4,0-0.7,0.1-0.9,0.3s-0.4,0.5-0.6,0.8c-0.1,0.3-0.2,0.7-0.3,1.1
			c-0.1,0.4-0.1,0.8-0.1,1.2c0,0.4,0,0.8,0.1,1.2c0.1,0.4,0.1,0.8,0.3,1.1c0.1,0.3,0.3,0.6,0.6,0.8S36.3,359.9,36.7,359.9z"/>
	</g>
</g>
</svg>
