<?xml version="1.0" encoding="utf-8"?>
<!-- Generator: Adobe Illustrator 25.0.0, SVG Export Plug-In . SVG Version: 6.00 Build 0)  -->
<svg version="1.1" id="Layer_1" xmlns="http://www.w3.org/2000/svg" xmlns:xlink="http://www.w3.org/1999/xlink" x="0px" y="0px"
	 viewBox="0 0 990 439" style="enable-background:new 0 0 990 439;" xml:space="preserve">
<style type="text/css">
	.st0{opacity:0.2;fill-rule:evenodd;clip-rule:evenodd;fill:#0066DB;enable-background:new    ;}
	.st1{opacity:0.2;fill-rule:evenodd;clip-rule:evenodd;fill:#D10000;enable-background:new    ;}
	.st2{opacity:0.2;fill-rule:evenodd;clip-rule:evenodd;fill:#FF5900;enable-background:new    ;}
	.st3{fill-rule:evenodd;clip-rule:evenodd;fill:#CCCCCC;}
	.st4{fill-rule:evenodd;clip-rule:evenodd;fill:#0066DB;}
	.st5{fill-rule:evenodd;clip-rule:evenodd;fill:#FF5900;}
	.st6{fill-rule:evenodd;clip-rule:evenodd;fill:#D10000;}
	.st7{fill-rule:evenodd;clip-rule:evenodd;fill:#B0B0B0;}
</style>
<g>
	<polygon class="st0" points="811.8,437.4 811.8,157.9 814.1,157.7 814.4,151.5 816,151.5 816.2,142.9 818.6,142.9 819.4,142.1 
		820.7,142.1 821.4,149.2 823.8,149 824.2,151.2 826.1,148.3 826.8,144.6 830.2,144.5 831.2,133 832.9,133.2 833.5,137 835.2,137 
		835.4,136 837.1,136.2 837.4,133.8 838.8,133.8 838.6,131.8 840.3,132 840.9,135.9 841.5,132.6 841.9,133.1 843.3,119.1 
		847.4,119.4 847.3,114.5 849.6,114.7 850.4,129.6 851.7,129.2 852.5,127.2 852.8,123.3 854.4,123.3 855.5,120.5 857,120.6 
		857.8,124.1 858.8,124.1 859.8,125 861.5,124.8 862.2,110.2 863.4,110.3 864,108.5 866.5,108.8 866.8,104.6 868.2,104.5 
		868.7,102.4 871.4,102.4 872.2,107.3 872.7,104.1 873.7,104.1 873.7,101.4 875.4,101.4 875.7,92.4 877.6,92.2 878.5,89.3 
		881.4,89.3 881.3,110.2 883.1,110.3 883.3,78.8 885.6,78.8 886.3,106.9 888.3,97 888.7,105.2 891.9,105.4 892.4,111.8 894.5,111.6 
		894.7,116.3 896.5,107.9 897.3,102 898.3,102.2 899.3,94.5 900.6,94.5 901,96.6 903,96.6 903.4,107.6 905.2,99 905.7,94.6 
		907.3,94.7 908.3,99 910.4,89 910.8,85.2 912.4,85.3 912.7,83 914.2,82.8 914.6,87.1 915.2,85.6 917.8,85.6 917.8,88 919.9,87.8 
		920.3,74.9 926,73.5 926.7,57.2 930.5,57.1 931.2,57.7 934,57.7 933.9,61.1 936.1,61.2 936.9,52.2 938.6,62 938.3,53.5 940.5,53.8 
		941.6,56.6 942.9,56.5 943.4,45 945.9,45.1 945.9,35.1 948,35.1 948.8,45.1 951.1,44.9 950.9,41.9 952.4,42 953.3,30.4 955.4,30.4 
		956.2,33.5 957.6,33.5 958.3,35.8 958.3,43.9 960.2,43.8 960.3,40.4 962.7,40.5 962.7,39.1 964.7,39 965,37 967.5,36.9 967.7,29.2 
		969.2,29.2 970,33.5 971.1,34.5 971.7,34.2 971.9,17.3 972.9,17.1 972.3,12.6 974.1,12.4 974.2,4 977.1,3.9 977.8,4.8 978.8,4.4 
		979.4,2.5 980.5,2.7 982.5,14.1 983.4,14.1 984.2,5.6 986.5,5.7 987.5,15.1 988.6,14.9 989.6,0 989.9,1.7 989.9,437.4 	"/>
	<polygon class="st1" points="468.2,438.7 468.2,412.6 473.9,412.7 475.5,411.2 479.3,410.8 481.1,410.5 482,407.9 484.1,408.3 
		484.9,409.5 485.9,409 489.3,409.3 489.1,407.2 490.9,407.4 491,405.1 493.7,405.2 493.5,404.2 495.4,404.4 495.4,403.1 
		496.5,402.6 496.8,401 497.9,400.8 497.7,399.4 499.4,399.7 500,397.5 502.4,397.8 502.1,396.8 503.7,396.8 504.6,394.3 
		506.5,394.6 506.7,393.5 510.4,393.1 510.8,390.9 511.7,390.9 512.1,390 513,389.9 513.4,389.2 515.4,388.9 516.7,388 517.9,387.6 
		518.6,386.9 519.2,386.7 519.4,383.8 520.1,381.8 522.5,382.1 522.9,381.1 523.6,381.4 524,380.3 524.7,379.2 525.7,379 
		527.1,379.2 528,380.8 529,381.1 529,375.2 530.7,375.1 531.7,371.9 533.4,371.8 533.8,369.6 535.8,369.3 536.2,367.1 537.7,367.3 
		538.9,365.8 540.3,366.1 540.7,363.6 542.4,363.7 543.7,365.9 547.6,366 548.6,370.1 550.3,369.9 551.7,374.5 551.7,377 553.6,377 
		554.1,381.5 555.2,381.4 555.7,377.3 557.6,377.4 558,375.6 560.1,375.3 561.8,376.4 563.1,376 563.6,373.9 570.3,374.1 
		570.2,371.5 575.2,372 576.4,372.6 577.1,371.5 577.5,369.2 581.8,369.4 582.2,363.9 584.4,363.7 585.4,364.6 586.3,364.3 
		586.7,360.1 588.1,360.5 588.8,351.8 591,351.9 592,352.7 593.4,352.8 593.3,345.1 595.3,345.3 596,343.8 598.2,344 598,339.3 
		599.3,339.6 600,330.9 602.2,331 602.7,324.5 604.2,324.6 604.4,322.6 606.9,322.6 607.5,317.5 609.7,317.6 610.1,325.1 
		612.2,324.9 612.3,322.8 613.9,322.8 614.7,324.3 617,324 617.3,323 619.2,323.4 619.1,316.7 620.7,316.8 620.9,309.9 623.7,309.8 
		624,304.6 625.5,304.8 626.6,303.6 628,303.8 628.9,304.9 630.2,304.8 631,296.3 633.6,296.2 634,316.3 636,316.1 636.3,309.7 
		637.9,309.7 638.1,300.6 640.5,300.6 641.3,299.8 642.6,299.8 643.3,307.2 645.7,307 646,317.9 648,314.9 648.7,302.4 652.1,302.3 
		653.1,290.3 654.8,290.5 655.4,294.4 657.1,294.4 657.3,293.4 659,293.6 659.3,291.2 660.6,291.2 660.4,289 662.2,289.2 
		662.8,293.3 663.3,289.8 663.8,290.3 665.2,275.8 669.3,276.1 669.2,270.9 671.5,271.2 672.3,295.4 673.6,294.9 674.4,292.9 
		674.7,288.8 676.3,288.8 677.3,277.2 678.9,277.3 679.7,281 680.7,281 681.7,281.9 683.4,281.8 684,266.5 685.3,266.5 685.9,264.7 
		688.4,265 688.7,260.6 690.1,260.5 690.6,258.3 693.2,258.3 694,263.4 694.6,260.1 695.5,260.1 695.6,257.3 697.3,257.3 
		697.6,247.9 699.5,247.6 700.3,244.6 703.3,244.6 703.2,266.4 705,266.6 705.2,233.7 707.4,233.7 708.2,263 710.2,263.1 
		710.6,271.7 713.8,271.9 714.3,313.2 716.4,312.9 716.6,317.8 718.4,317.7 719.2,311.5 720.2,311.7 721.2,303.7 722.5,303.7 
		722.9,288.6 724.9,288.6 725.3,282.8 727.1,282.5 727.6,277.9 729.2,278 730.2,272 732.3,272.1 732.7,269.9 734.3,270 734.6,259 
		736.1,258.7 736.5,252.8 737.1,251.3 739.7,251.3 739.7,253.8 741.8,253.5 742.2,240.1 747.9,238.6 748.6,221.6 752.4,221.4 
		753.1,211.6 755.9,211.6 755.8,215.1 758,215.3 758.8,216.4 760.5,216.1 760.2,207.2 762.4,207.6 763.5,210.5 764.8,210.4 
		765.3,198.4 767.8,198.5 767.8,188 769.9,188 770.7,198.5 773,198.2 772.8,195.1 774.3,195.2 775.2,200.4 777.3,200.4 778.1,203.6 
		779.5,203.6 780.1,206 780.2,214.4 782.1,214.4 782.2,210.9 784.5,210.9 784.6,209.4 786.6,209.4 786.8,190.1 789.3,189.9 
		789.6,181.9 791.1,181.8 791.9,186.3 793,187.4 793.6,187.1 793.8,169.4 794.8,169.2 794.2,155.9 796,155.7 796.1,146.9 
		798.9,146.8 799.7,147.8 800.7,147.3 801.2,145.4 802.4,145.5 804.4,166.1 805.3,166.1 806,157.2 808.3,157.3 809.4,167.2 
		810.5,166.9 811.5,140.9 811.8,146.8 811.8,438.7 	"/>
	<polygon class="st2" points="0,438.4 0,422.6 346.8,419 380.9,417.8 401.9,417.2 432,417.2 450.9,415.2 462.4,414.3 468.2,412.6 
		468.2,438.4 	"/>
	<path class="st3" d="M808.4,439v-2h4v2H808.4z M816.4,439v-2h4v2H816.4z M824.4,439v-2h4v2H824.4z M832.5,439v-2h4v2H832.5z
		 M840.5,439v-2h4v2H840.5z M848.5,439v-2h4v2H848.5z M856.5,439v-2h4v2H856.5z M864.5,439v-2h4v2H864.5z M872.5,439v-2h4v2H872.5z
		 M880.5,439v-2h4v2H880.5z M888.5,439v-2h4v2H888.5z M896.5,439v-2h4v2H896.5z M904.5,439v-2h4v2H904.5z M912.5,439v-2h4v2H912.5z
		 M920.5,439v-2h4v2H920.5z M928.5,439v-2h4v2H928.5z M936.5,439v-2h4v2H936.5z M944.5,439v-2h4v2H944.5z M952.5,439v-2h4v2H952.5z
		 M960.5,439v-2h4v2H960.5z M968.5,439v-2h4v2H968.5z M976.5,439v-2h4v2H976.5z M984.5,439v-2h4v2H984.5z"/>
	<path class="st4" d="M811.6,158c0-0.3,0.2-0.5,0.5-0.5l2-0.2c0.3,0,0.5,0.2,0.5,0.4c0,0.3-0.2,0.5-0.4,0.6l-2,0.2
		C811.9,158.4,811.7,158.2,811.6,158z M813.7,155.7l0.1-2c0-0.3,0.3-0.5,0.5-0.5c0.3,0,0.5,0.2,0.5,0.5l-0.1,2
		c0,0.3-0.3,0.5-0.5,0.5C813.9,156.2,813.7,156,813.7,155.7z M813.9,151.7v-0.2c0-0.3,0.2-0.5,0.5-0.5h1.3l0.3-0.3
		c0.3,0,0.5,0.2,0.5,0.5v0.3c0,0.3-0.2,0.5-0.5,0.5h-1.4l-0.2,0.2C814.1,152.2,813.9,152,813.9,151.7z M823.5,150.3l-0.1-0.8h-0.3
		c-0.3,0-0.5-0.2-0.5-0.5s0.2-0.5,0.5-0.5l0.7-0.1c0.3,0,0.5,0.2,0.5,0.4l0.1,0.9l1-1.5c0.2-0.2,0.5-0.3,0.7-0.1s0.3,0.5,0.1,0.7
		l-1.1,1.7c-0.1,0.2-0.5,0.3-0.7,0.1l-0.1-0.4l-0.3,0.4C823.8,150.8,823.6,150.6,823.5,150.3z M815.5,149.3l0.1-2
		c0-0.3,0.2-0.5,0.5-0.5s0.5,0.2,0.5,0.5l-0.1,2c0,0.3-0.2,0.5-0.5,0.5S815.5,149.6,815.5,149.3z M820.9,149l-0.2-2
		c0-0.3,0.2-0.5,0.5-0.5s0.5,0.2,0.5,0.5l0.2,2c0,0.3-0.2,0.5-0.5,0.5C821.1,149.4,820.9,149.2,820.9,149z M825.9,146.6l0.4-2
		c0-0.3,0.3-0.5,0.6-0.4c0.3,0,0.5,0.3,0.4,0.6l-0.4,2c-0.1,0.3-0.3,0.5-0.6,0.4C826,147.2,825.8,146.9,825.9,146.6z M815.7,145.3
		l0.1-2c0-0.3,0.2-0.5,0.5-0.5s0.5,0.2,0.5,0.5l-0.1,2c0,0.3-0.2,0.5-0.5,0.5S815.7,145.6,815.7,145.3z M820.5,145l-0.2-2
		c0-0.3,0.2-0.5,0.5-0.5s0.5,0.2,0.5,0.4l0.2,2c0,0.3-0.2,0.5-0.5,0.5C820.7,145.5,820.5,145.3,820.5,145z M828.2,144.6
		c0-0.3,0.2-0.5,0.5-0.5h1.2l0.5-0.4c0.3,0,0.5,0.3,0.5,0.5v0.4c0,0.3-0.2,0.5-0.5,0.5l-1.6,0.1
		C828.4,145.1,828.2,144.9,828.2,144.6z M817.3,142.9c0-0.3,0.2-0.5,0.5-0.5h0.6l0.7-0.6c0.1-0.1,0.2-0.1,0.3-0.1h0.1
		c0.3,0,0.5,0.2,0.5,0.5l-0.3,0.3h0.1l-0.8,0.8c-0.1,0.1-0.2,0.1-0.3,0.1h-0.8C817.6,143.4,817.3,143.2,817.3,142.9z M829.9,142.1
		l0.2-2c0-0.3,0.3-0.5,0.5-0.5c0.3,0,0.5,0.3,0.5,0.5l-0.2,2c0,0.3-0.3,0.5-0.5,0.5C830.1,142.6,829.9,142.3,829.9,142.1z
		 M830.3,138.1l0.2-2c0-0.3,0.3-0.5,0.5-0.5c0.3,0,0.5,0.3,0.5,0.5l-0.2,2c0,0.3-0.3,0.5-0.5,0.5
		C830.4,138.6,830.2,138.3,830.3,138.1z M834.4,137l0.3-0.3l0.2-0.8c0.1-0.3,0.3-0.4,0.5-0.4l0.7,0.1c0.3,0,0.5,0.3,0.4,0.6
		c0,0.3-0.3,0.5-0.6,0.4h-0.3l-0.2,0.6c-0.1,0.2-0.3,0.4-0.5,0.4h-0.3C834.7,137.5,834.4,137.2,834.4,137z M832.9,136.4l-0.4-2
		c0-0.3,0.1-0.5,0.4-0.6c0.3-0.1,0.5,0.1,0.6,0.4l0.4,2c0.1,0.3-0.1,0.5-0.4,0.6C833.3,136.9,833,136.7,832.9,136.4z M840.4,135.5
		l-0.3-2c0-0.3,0.1-0.5,0.4-0.6l0.4,0.3l0.1-0.7c0.1-0.4,0.6-0.6,0.9-0.3l0.1,0.1v0.3h0.1l-0.3,1.9l-0.4,0.3l0.1,0.5
		c0,0.3-0.1,0.5-0.4,0.6C840.6,135.9,840.4,135.8,840.4,135.5z M836.7,135.1l0.2-1.3c0-0.3,0.2-0.4,0.5-0.4h0.7
		c0.3,0,0.5,0.2,0.5,0.5s-0.2,0.5-0.5,0.5h-0.2l-0.1,0.9c0,0.3-0.3,0.5-0.6,0.4C836.9,135.7,836.7,135.4,836.7,135.1z M830.6,134.1
		l0.1-1.1c0-0.3,0.3-0.5,0.6-0.5l0.9,0.1c0.3,0,0.5,0.3,0.4,0.6c0,0.3-0.3,0.5-0.6,0.4h-0.3l-0.1,0.6c0,0.3-0.3,0.5-0.5,0.5
		C830.8,134.6,830.6,134.4,830.6,134.1z M838.1,132.6l-0.1-0.8c0-0.3,0.2-0.6,0.6-0.5l1.2,0.2c0.3,0,0.5,0.3,0.4,0.6
		c0,0.3-0.3,0.5-0.6,0.4l-0.6-0.1v0.1c0,0.3-0.2,0.5-0.4,0.5C838.4,133.1,838.2,132.9,838.1,132.6z M841.6,131.6l0.2-2
		c0-0.3,0.3-0.5,0.5-0.4c0.3,0,0.5,0.3,0.5,0.5l-0.2,2c0,0.3-0.3,0.5-0.5,0.5C841.8,132.1,841.6,131.9,841.6,131.6z M850.9,129.5
		c-0.1-0.3,0-0.5,0.3-0.7h0.1l0.6-1.3c0.1-0.3,0.4-0.4,0.7-0.3s0.4,0.4,0.3,0.7l-0.6,1.5c-0.1,0.1-0.1,0.2-0.3,0.3l-0.3,0.1
		C851.3,129.8,851,129.7,850.9,129.5z M849.8,128.7l-0.1-2c0-0.3,0.2-0.5,0.5-0.5s0.5,0.2,0.5,0.5l0.1,2c0,0.3-0.2,0.5-0.5,0.5
		C850.1,129.2,849.9,129,849.8,128.7z M842,127.6l0.2-2c0-0.3,0.3-0.5,0.5-0.5c0.3,0,0.5,0.3,0.5,0.5l-0.2,2c0,0.3-0.3,0.5-0.5,0.5
		C842.1,128.1,841.9,127.9,842,127.6z M852.1,125.6l0.2-2c0-0.3,0.3-0.5,0.5-0.5c0.3,0,0.5,0.3,0.5,0.5l-0.2,2
		c0,0.3-0.3,0.5-0.5,0.5C852.3,126.1,852.1,125.9,852.1,125.6z M860.9,124.9L860.9,124.9l0.2-1.9c0-0.3,0.2-0.5,0.5-0.5
		s0.5,0.2,0.5,0.5l-0.1,1.9c0,0.3-0.2,0.5-0.5,0.5h-0.1C861.1,125.4,860.9,125.2,860.9,124.9z M849.6,124.7l-0.1-2
		c0-0.3,0.2-0.5,0.5-0.5s0.5,0.2,0.5,0.5l0.1,2c0,0.3-0.2,0.5-0.5,0.5S849.7,125,849.6,124.7z M859.1,125l-0.5-0.5h-0.7
		c-0.2,0-0.5-0.1-0.5-0.4V124c-0.1-0.3,0.1-0.5,0.4-0.6l0.2,0.1l0.9-0.1c0.1,0,0.3,0,0.4,0.1l0.7,0.6c0.2,0.2,0.2,0.5,0.1,0.7
		C859.7,125.2,859.3,125.2,859.1,125z M842.4,123.6l0.2-2c0-0.3,0.3-0.5,0.5-0.4c0.3,0,0.5,0.3,0.5,0.5l-0.2,2
		c0,0.3-0.3,0.5-0.5,0.4C842.5,124.2,842.3,123.9,842.4,123.6z M853.9,123.1l0.7-1.9c0.1-0.3,0.4-0.4,0.6-0.3
		c0.3,0.1,0.4,0.4,0.3,0.6l-0.7,1.9c-0.1,0.3-0.4,0.4-0.7,0.3C854,123.6,853.8,123.4,853.9,123.1z M856.9,122.2l-0.2-1.1h-0.2
		c-0.3,0-0.5-0.3-0.5-0.5c0-0.3,0.3-0.5,0.5-0.5h0.5c0.2,0,0.4,0.2,0.5,0.4l0.3,1.4c0.1,0.3-0.1,0.5-0.4,0.6
		C857.2,122.6,856.9,122.4,856.9,122.2z M861.2,121l0.1-2c0-0.3,0.2-0.5,0.5-0.5s0.5,0.2,0.5,0.5l-0.1,2c0,0.3-0.3,0.5-0.5,0.5
		C861.4,121.5,861.2,121.2,861.2,121z M849.4,120.7l-0.1-2c0-0.3,0.2-0.5,0.5-0.5s0.5,0.2,0.5,0.5l0.1,2c0,0.3-0.2,0.5-0.5,0.5
		S849.5,121,849.4,120.7z M842.7,119.7l0.1-0.6c0-0.3,0.3-0.5,0.5-0.4l1.4,0.1c0.3,0,0.5,0.3,0.5,0.5c0,0.3-0.3,0.5-0.5,0.5
		l-0.9-0.1v0.1c0,0.3-0.3,0.5-0.5,0.5C842.9,120.2,842.7,119.9,842.7,119.7z M847.4,119.9l-0.7-0.1c-0.3,0-0.5-0.3-0.5-0.5
		c0-0.3,0.3-0.5,0.5-0.5h0.2v-0.7c0-0.3,0.2-0.5,0.5-0.5s0.5,0.2,0.5,0.5v1.3C847.9,119.7,847.7,119.9,847.4,119.9z M861.4,117
		l0.1-2c0-0.3,0.3-0.5,0.5-0.5c0.3,0,0.5,0.3,0.5,0.5l-0.1,2c0,0.3-0.2,0.5-0.5,0.5C861.6,117.5,861.3,117.2,861.4,117z
		 M849.2,116.7l-0.1-2l-0.1-0.1c0-0.3,0.3-0.5,0.6-0.4c0.2,0,0.4,0.2,0.4,0.5l0.1,2c0,0.3-0.2,0.5-0.5,0.5S849.3,117,849.2,116.7z
		 M894.2,116.3v-0.8l0.3-0.3v-0.1c0.1-0.3,0.3-0.4,0.6-0.4c0.3,0.1,0.4,0.3,0.4,0.6l-0.3,1.1C895.1,117,894.2,116.9,894.2,116.3z
		 M846.9,116.2v-1.7c0-0.3,0.3-0.5,0.6-0.5h0.3c0.3,0,0.5,0.3,0.4,0.6l-0.3,0.2v1.4c0,0.3-0.2,0.5-0.5,0.5
		C847.1,116.7,846.9,116.5,846.9,116.2z M894.1,113.5l-0.1-1.8l-0.1-0.1c0-0.3,0.2-0.5,0.4-0.6h0.1c0.3,0,0.6,0.2,0.6,0.5v0.9
		l0.3-1.3c0.1-0.3,0.3-0.4,0.6-0.4c0.3,0.1,0.4,0.3,0.4,0.6l-0.4,1.9c-0.1,0.3-0.3,0.4-0.6,0.4l-0.2-0.3c0,0.3-0.2,0.5-0.5,0.5
		C894.3,114,894.1,113.8,894.1,113.5z M861.5,113l0.1-2c0-0.3,0.3-0.5,0.5-0.5c0.3,0,0.5,0.2,0.5,0.5l-0.1,2c0,0.3-0.2,0.5-0.5,0.5
		S861.5,113.2,861.5,113z M891.9,111.9l-0.1-2c0-0.3,0.2-0.5,0.5-0.5s0.5,0.2,0.5,0.5l0.1,2l-0.4,0.5
		C892.2,112.4,891.9,112.2,891.9,111.9z M882.6,110.3v-1.9c0-0.3,0.2-0.5,0.5-0.5s0.5,0.2,0.5,0.5v2c0,0.3-0.3,0.5-0.5,0.5
		L882.6,110.3z M862.9,110.1l0.6-1.7c0.1-0.2,0.3-0.3,0.5-0.3h0.2c0.3,0,0.5,0.3,0.4,0.5l-0.2,0.2l-0.6,1.6
		c-0.1,0.3-0.4,0.4-0.6,0.3C863,110.6,862.8,110.4,862.9,110.1z M880.8,110v-2c0-0.3,0.2-0.5,0.5-0.5s0.5,0.2,0.5,0.5v2
		c0,0.3-0.2,0.5-0.5,0.5S880.8,110.3,880.8,110z M895.7,109.2l0.3-1.4l0.1-0.6c0-0.3,0.3-0.5,0.6-0.4c0.3,0,0.5,0.3,0.4,0.6L897,108
		l-0.3,1.4c-0.1,0.3-0.3,0.4-0.6,0.4C895.8,109.7,895.7,109.5,895.7,109.2z M866.4,109.3h-0.3c-0.3,0-0.5-0.3-0.4-0.5l0.3-0.3
		l0.1-1.3c0-0.3,0.3-0.5,0.5-0.5c0.3,0,0.5,0.3,0.5,0.5l-0.1,1.7C867,109.1,866.7,109.3,866.4,109.3z M891.6,107.9l-0.1-2
		c0-0.3,0.2-0.5,0.5-0.5s0.5,0.2,0.5,0.5l0.1,2c0,0.3-0.2,0.5-0.5,0.5C891.9,108.4,891.6,108.2,891.6,107.9z M902.9,107.6V107
		l0.2-0.2l0.2-0.7c0.1-0.3,0.3-0.5,0.6-0.4s0.4,0.3,0.4,0.6l-0.3,1.4C903.8,108.3,902.9,108.2,902.9,107.6z M871.7,107l0.2-1.1
		l-0.5-0.4l-0.3-2c0-0.3,0.1-0.5,0.4-0.6c0.3,0,0.5,0.1,0.6,0.4l0.2,1.4l0.3-0.2c0.3,0,0.5,0.3,0.4,0.6l-0.3,2
		c-0.1,0.3-0.3,0.5-0.6,0.4C871.8,107.6,871.7,107.3,871.7,107z M885.8,106.9l-0.1-1.9c0-0.3,0.2-0.5,0.5-0.5l0.3-1.3l-0.3,0.3
		c-0.3,0-0.5-0.2-0.5-0.5l-0.1-2c0-0.3,0.2-0.5,0.5-0.5s0.5,0.2,0.5,0.5v1.7l0.5-0.3c0.3,0.1,0.4,0.3,0.4,0.6l-0.4,2l-0.4,0.3
		l0.1,1.7v0.1C886.7,107.6,885.8,107.5,885.8,106.9z M882.6,106.3v-2c0-0.3,0.2-0.5,0.5-0.5s0.5,0.2,0.5,0.5v2
		c0,0.3-0.2,0.5-0.5,0.5C882.9,106.8,882.6,106.6,882.6,106.3z M880.8,106v-2c0-0.3,0.2-0.5,0.5-0.5s0.5,0.2,0.5,0.5v2
		c0,0.3-0.2,0.5-0.5,0.5S880.8,106.3,880.8,106z M896.4,105.3l0.3-2c0-0.3,0.3-0.5,0.6-0.4c0.3,0,0.5,0.3,0.4,0.6l-0.3,2
		c0,0.3-0.3,0.5-0.6,0.4C896.5,105.8,896.3,105.6,896.4,105.3z M890.4,105.8l-1.8-0.1c-0.3,0-0.5-0.2-0.5-0.5V105
		c0-0.3,0.2-0.5,0.5-0.5l0.3,0.2l1.6,0.1c0.3,0,0.5,0.3,0.5,0.5C890.9,105.6,890.7,105.8,890.4,105.8z M866.3,105.1l0.1-0.6
		c0-0.3,0.2-0.5,0.5-0.5l1.4-0.1c0.3,0,0.5,0.2,0.5,0.5s-0.2,0.5-0.5,0.5h-1v0.1c0,0.3-0.3,0.5-0.5,0.5
		C866.5,105.6,866.3,105.4,866.3,105.1z M902.8,105l-0.1-2c0-0.3,0.2-0.5,0.5-0.5s0.5,0.2,0.5,0.5v0.5l0.3-1.3
		c0.1-0.3,0.3-0.4,0.6-0.4c0.3,0.1,0.5,0.3,0.4,0.6l-0.4,1.9c-0.1,0.3-0.3,0.5-0.6,0.4l-0.2-0.3v0.6c0,0.3-0.2,0.5-0.5,0.5
		C903.1,105.5,902.8,105.3,902.8,105z M873.1,104.1l0.1-1.9c0-0.3,0.2-0.5,0.5-0.5s0.5,0.2,0.5,0.5l-0.1,2c0,0.3-0.2,0.5-0.5,0.5
		C873.3,104.6,873.1,104.4,873.1,104.1z M888.1,103l-0.1-2l-0.6,0.4c-0.3-0.1-0.4-0.3-0.4-0.6l0.4-2l0.5-0.3l-0.1-1.6h0.1l-0.1-0.1
		c0.1-0.6,1-0.5,1,0.1l0.1,2c0,0.3-0.2,0.5-0.5,0.5l-0.1-0.1l-0.3,1.6l0.5-0.5c0.3,0,0.5,0.2,0.5,0.5l0.1,2c0,0.3-0.2,0.5-0.5,0.5
		S888.1,103.2,888.1,103z M868.2,102.5v-0.2c0.1-0.2,0.3-0.4,0.5-0.4h1.8c0.3,0,0.5,0.2,0.5,0.5s-0.2,0.5-0.5,0.5h-1.7l-0.3,0.2
		C868.3,103,868.1,102.7,868.2,102.5z M882.7,102.3v-2c0-0.3,0.2-0.5,0.5-0.5s0.5,0.2,0.5,0.5v2c0,0.3-0.2,0.5-0.5,0.5
		S882.7,102.6,882.7,102.3z M898.3,102.7l-0.4-0.1c-0.3-0.1-0.5-0.3-0.4-0.6l0.5-0.3l0.1-1.2c0-0.3,0.3-0.5,0.5-0.4
		c0.3,0,0.5,0.3,0.4,0.6l-0.2,1.6C898.8,102.5,898.5,102.7,898.3,102.7z M880.8,102v-2c0-0.3,0.2-0.5,0.5-0.5s0.5,0.2,0.5,0.5v2
		c0,0.3-0.2,0.5-0.5,0.5S880.8,102.3,880.8,102z M874.5,101.4l0.4-0.4v-1.2c0-0.3,0.2-0.5,0.5-0.5s0.5,0.2,0.5,0.5l-0.1,1.6
		c0,0.3-0.2,0.5-0.5,0.5H875C874.7,101.9,874.5,101.7,874.5,101.4z M902.7,101l-0.1-2c0-0.3,0.2-0.5,0.5-0.5s0.5,0.2,0.5,0.5l0.1,2
		c0,0.3-0.2,0.5-0.5,0.5S902.7,101.3,902.7,101z M904.5,100.2l0.3-1.3l0.1-0.6c0-0.3,0.3-0.5,0.5-0.5c0.3,0,0.5,0.3,0.4,0.6
		l-0.1,0.6l0,0l-0.3,1.3c-0.1,0.3-0.3,0.4-0.6,0.4S904.4,100.5,904.5,100.2z M885.6,99l-0.1-2c0-0.3,0.2-0.5,0.5-0.5
		s0.5,0.2,0.5,0.5l0.1,2c0,0.3-0.2,0.5-0.5,0.5S885.6,99.3,885.6,99z M907.8,98.6l0.2-0.9v0.1c-0.3,0.1-0.5-0.1-0.6-0.4l-0.5-1.9
		c-0.1-0.3,0.1-0.5,0.4-0.6c0.3-0.1,0.5,0.1,0.6,0.4l0.3,1.4c0.1-0.3,0.3-0.5,0.6-0.4s0.4,0.3,0.4,0.6l-0.4,2
		c-0.1,0.3-0.3,0.4-0.6,0.4C908,99.2,907.8,98.9,907.8,98.6z M898.3,98.5l0.2-2c0-0.3,0.3-0.5,0.6-0.4c0.3,0,0.5,0.3,0.4,0.6l-0.3,2
		c0,0.3-0.3,0.5-0.5,0.4C898.4,99.1,898.2,98.8,898.3,98.5z M882.7,98.3v-2c0-0.3,0.2-0.5,0.5-0.5s0.5,0.2,0.5,0.5v2
		c0,0.3-0.2,0.5-0.5,0.5S882.7,98.6,882.7,98.3z M880.8,98v-2c0-0.3,0.2-0.5,0.5-0.5s0.5,0.2,0.5,0.5v2c0,0.3-0.2,0.5-0.5,0.5
		C881.1,98.5,880.8,98.3,880.8,98z M875,97.8l0.1-2c0-0.3,0.2-0.5,0.5-0.5s0.5,0.2,0.5,0.5l-0.1,2c0,0.3-0.2,0.5-0.5,0.5
		S875,98.1,875,97.8z M902.6,97.1h-1.2c-0.3,0-0.5-0.2-0.5-0.5s0.2-0.5,0.5-0.5h1.6c0.3,0,0.5,0.2,0.5,0.5V97c0,0.3-0.2,0.5-0.5,0.5
		L902.6,97.1z M905,96.3l0.2-1.8c0-0.3,0.3-0.5,0.6-0.4h0.2c0.3,0,0.5,0.3,0.4,0.5l-0.2,0.2l-0.2,1.6c0,0.3-0.3,0.5-0.5,0.4
		C905.2,96.8,905,96.6,905,96.3z M900.2,95.1L900.2,95.1l-0.9-0.1l-0.1,0.1c-0.3,0-0.5-0.3-0.4-0.6v-0.1c0-0.2,0.2-0.4,0.5-0.4h1.4
		c0.2,0,0.5,0.2,0.5,0.4l0.1,0.5c0,0.3-0.1,0.5-0.4,0.6C900.5,95.6,900.3,95.4,900.2,95.1z M885.5,95.1l-0.1-2
		c0-0.3,0.2-0.5,0.5-0.5s0.5,0.2,0.5,0.5l0.1,2c0,0.3-0.2,0.5-0.5,0.5C885.7,95.5,885.5,95.3,885.5,95.1z M908.7,94.7l0.4-2
		c0.1-0.3,0.3-0.4,0.6-0.4s0.4,0.3,0.4,0.6l-0.4,2c-0.1,0.3-0.3,0.4-0.6,0.4C908.8,95.3,908.6,95,908.7,94.7z M882.7,94.3v-2
		c0-0.3,0.2-0.5,0.5-0.5s0.5,0.2,0.5,0.5v2c0,0.3-0.2,0.5-0.5,0.5S882.7,94.6,882.7,94.3z M880.8,94v-2c0-0.3,0.2-0.5,0.5-0.5
		s0.5,0.2,0.5,0.5v2c0,0.3-0.2,0.5-0.5,0.5C881.1,94.5,880.8,94.3,880.8,94z M875.1,93.8l0.1-1.5c0-0.3,0.2-0.5,0.4-0.5l0.5-0.1
		c0.3,0,0.5,0.2,0.5,0.4c0,0.3-0.2,0.5-0.4,0.5h-0.1v1c0,0.3-0.2,0.5-0.5,0.5C875.3,94.3,875.1,94.1,875.1,93.8z M877.3,91.4
		l0.6-1.9c0.1-0.3,0.4-0.4,0.6-0.3c0.3,0.1,0.4,0.3,0.3,0.6l-0.6,1.9c-0.1,0.3-0.4,0.4-0.6,0.3S877.2,91.7,877.3,91.4z M885.4,91
		l-0.1-2c0-0.3,0.2-0.5,0.5-0.5s0.5,0.2,0.5,0.5l0.1,2c0,0.3-0.2,0.5-0.5,0.5C885.6,91.5,885.4,91.3,885.4,91z M909.5,90.8l0.4-1.8
		v-0.1c0-0.3,0.3-0.5,0.5-0.4c0.3,0,0.5,0.3,0.5,0.5v0.1v0.1l-0.4,1.9c-0.1,0.3-0.3,0.4-0.6,0.4C909.6,91.3,909.4,91.1,909.5,90.8z
		 M882.7,90.3v-2c0-0.3,0.2-0.5,0.5-0.5s0.5,0.2,0.5,0.5v2c0,0.3-0.2,0.5-0.5,0.5S882.7,90.6,882.7,90.3z M880.9,90v-0.2h-0.8
		c-0.3,0-0.5-0.2-0.5-0.5s0.2-0.5,0.5-0.5h1.3c0.3,0,0.5,0.2,0.5,0.5V90c0,0.3-0.2,0.5-0.5,0.5C881.1,90.5,880.9,90.2,880.9,90z
		 M917.3,87.9v-2c0-0.3,0.2-0.5,0.5-0.5s0.5,0.2,0.5,0.5v2c0,0.3-0.2,0.5-0.5,0.5S917.3,88.2,917.3,87.9z M919.2,87.8l0.2-0.3
		l0.1-1.6c0-0.3,0.2-0.5,0.5-0.5s0.5,0.2,0.5,0.5l-0.1,1.8c0,0.2-0.2,0.4-0.4,0.5h-0.2C919.5,88.3,919.2,88.1,919.2,87.8z M885.3,87
		l-0.1-2c0-0.3,0.2-0.5,0.5-0.5s0.5,0.2,0.5,0.5l0.1,2c0,0.3-0.2,0.5-0.5,0.5S885.3,87.3,885.3,87z M910.1,86.9l0.2-1.8
		c0-0.3,0.3-0.5,0.5-0.5h0.2c0.3,0,0.5,0.3,0.5,0.5l-0.2,0.2l-0.2,1.6c0,0.3-0.3,0.5-0.5,0.4S910.1,87.2,910.1,86.9z M914.3,86.5
		l0.2-0.5l0,0c-0.3,0-0.5-0.2-0.5-0.5l-0.1-2c0-0.3,0.2-0.5,0.5-0.5s0.5,0.2,0.5,0.5l0.1,1.8l0.3-0.2h0.9c0.3,0,0.5,0.2,0.5,0.5
		s-0.2,0.5-0.5,0.5h-0.5l-0.3,0.8c-0.1,0.2-0.4,0.4-0.7,0.2C914.3,87,914.2,86.7,914.3,86.5z M882.7,86.3v-2c0-0.3,0.2-0.5,0.5-0.5
		s0.5,0.2,0.5,0.5v2c0,0.3-0.2,0.5-0.5,0.5C883,86.8,882.7,86.6,882.7,86.3z M912,84.6l0.3-1.7c0-0.2,0.2-0.4,0.4-0.4h0.3
		c0.3,0,0.5,0.1,0.6,0.4l-0.3,0.4l-0.2,1.5c0,0.3-0.3,0.5-0.6,0.4C912.1,85.2,912,84.9,912,84.6z M919.5,84l0.1-2
		c0-0.3,0.2-0.5,0.5-0.5s0.5,0.2,0.5,0.5l-0.1,2c0,0.3-0.2,0.5-0.5,0.5S919.5,84.2,919.5,84z M885.2,83l-0.1-2
		c0-0.3,0.2-0.5,0.5-0.5s0.5,0.2,0.5,0.5l0.1,2c0,0.3-0.2,0.5-0.5,0.5S885.2,83.3,885.2,83z M882.7,82.3v-2c0-0.3,0.2-0.5,0.5-0.5
		s0.5,0.2,0.5,0.5v2c0,0.3-0.2,0.5-0.5,0.5C883,82.8,882.7,82.6,882.7,82.3z M919.7,80l0.1-2c0-0.3,0.2-0.5,0.5-0.5s0.5,0.2,0.5,0.5
		l-0.1,2c0,0.3-0.2,0.5-0.5,0.5S919.6,80.2,919.7,80z M885.4,79.3h-1.6c-0.3,0-0.5-0.2-0.5-0.5s0.2-0.5,0.5-0.5h1.8
		c0.3,0,0.5,0.2,0.5,0.5V79c0,0.3-0.2,0.5-0.5,0.5L885.4,79.3z M919.8,76v-1.1c0-0.2,0.2-0.4,0.4-0.5l0.9-0.2
		c0.3-0.1,0.5,0.1,0.6,0.4s-0.1,0.5-0.4,0.6l-0.5,0.1V76c0,0.3-0.2,0.5-0.5,0.5S919.8,76.2,919.8,76z M922.7,74.3
		c-0.1-0.3,0.1-0.5,0.4-0.6l1.9-0.5c0.3-0.1,0.5,0.1,0.6,0.4s-0.1,0.5-0.4,0.6l-1.9,0.5C923,74.8,922.7,74.6,922.7,74.3z
		 M925.5,72.4l0.1-2c0-0.3,0.3-0.5,0.5-0.5c0.3,0,0.5,0.3,0.5,0.5l-0.1,2c0,0.3-0.2,0.5-0.5,0.5S925.5,72.7,925.5,72.4z M925.7,68.4
		l0.1-2c0-0.3,0.2-0.5,0.5-0.5s0.5,0.2,0.5,0.5l-0.1,2c0,0.3-0.2,0.5-0.5,0.5S925.7,68.7,925.7,68.4z M925.9,64.4l0.1-2
		c0-0.3,0.2-0.5,0.5-0.5s0.5,0.2,0.5,0.5l-0.1,2c0,0.3-0.3,0.5-0.5,0.5C926.1,64.9,925.9,64.7,925.9,64.4z M938.1,61.3v-0.4
		l-0.2-0.1l-0.3-2c-0.1-0.3,0.1-0.5,0.4-0.6c0.3-0.1,0.5,0.1,0.6,0.4v0.2l0.4,0.4l0.1,2c0,0.3-0.2,0.5-0.5,0.5
		C938.4,61.8,938.1,61.6,938.1,61.3z M936,61.7h-0.3c-0.3,0-0.5-0.3-0.5-0.5l0.4-0.3l0.1-1.3c0-0.3,0.3-0.5,0.5-0.5
		c0.3,0,0.5,0.3,0.5,0.5l-0.2,1.6C936.5,61.5,936.3,61.7,936,61.7z M933.4,60.9l0.1-2c0-0.3,0.3-0.5,0.5-0.5c0.3,0,0.5,0.3,0.5,0.5
		l-0.1,2c0,0.3-0.2,0.5-0.5,0.5C933.6,61.4,933.4,61.1,933.4,60.9z M926.1,60.4l0.1-2c0-0.3,0.3-0.5,0.5-0.5c0.3,0,0.5,0.3,0.5,0.5
		l-0.1,2c0,0.3-0.2,0.5-0.5,0.5S926.1,60.7,926.1,60.4z M930.8,57.7c0-0.3,0.2-0.5,0.5-0.5h2c0.3,0,0.5,0.2,0.5,0.5
		s-0.2,0.5-0.5,0.5h-2C931,58.2,930.8,58,930.8,57.7z M935.9,57.5l0.2-2c0-0.3,0.3-0.5,0.5-0.5l0.3,0.4l-0.1-0.6
		c-0.1-0.3,0.1-0.5,0.4-0.6c0.3,0,0.5,0.1,0.6,0.4l0.1,0.5l0.4-0.4c0.3,0,0.5,0.2,0.5,0.5l0.1,2c0,0.3-0.2,0.5-0.5,0.5
		s-0.5-0.2-0.5-0.5V57l-0.1,0.2c-0.3,0.1-0.5-0.1-0.6-0.4l-0.1-0.9l-0.2,1.7c0,0.3-0.3,0.5-0.5,0.4
		C936.1,58.1,935.9,57.8,935.9,57.5z M927,57.2c0-0.3,0.2-0.5,0.5-0.5l2-0.1c0.3,0,0.5,0.2,0.5,0.5s-0.2,0.5-0.5,0.5l-2,0.1
		C927.2,57.7,927,57.5,927,57.2z M941.2,56.8l-0.4-1c-0.1-0.3,0-0.5,0.3-0.7c0.3-0.1,0.5,0,0.7,0.3l0.3,0.7l0.5-0.1
		c0.3,0,0.5,0.2,0.5,0.5s-0.2,0.5-0.5,0.5l-0.9,0.1C941.4,57.2,941.2,57,941.2,56.8z M942.5,54.9l0.1-2c0-0.3,0.2-0.5,0.5-0.5
		s0.5,0.2,0.5,0.5l-0.1,2c0,0.3-0.2,0.5-0.5,0.5S942.5,55.2,942.5,54.9z M940.4,54.3l-2-0.3c-0.3,0-0.5-0.3-0.4-0.6
		c0-0.3,0.3-0.5,0.6-0.4l2,0.3c0.3,0,0.5,0.3,0.4,0.6S940.6,54.3,940.4,54.3z M936.3,53.6l0.1-1.4c0.1-0.6,0.9-0.6,1,0l0.1,0.6
		l-0.2,0.2l-0.1,0.7c0,0.3-0.3,0.5-0.5,0.5C936.5,54.1,936.3,53.8,936.3,53.6z M942.7,50.9l0.1-2c0-0.3,0.2-0.5,0.5-0.5
		s0.5,0.3,0.5,0.5l-0.1,2c0,0.3-0.3,0.5-0.5,0.5C942.9,51.4,942.7,51.2,942.7,50.9z M942.9,46.9L943,45c0-0.3,0.3-0.5,0.5-0.5h0.1
		c0.3,0,0.5,0.3,0.5,0.5l-0.1,0.1l-0.1,1.8c0,0.3-0.3,0.5-0.5,0.5C943.1,47.4,942.8,47.2,942.9,46.9z M945.9,45.6h-0.3
		c-0.3,0-0.5-0.2-0.5-0.5l0.3-0.3v-1.3c0-0.3,0.2-0.5,0.5-0.5s0.5,0.2,0.5,0.5v1.7C946.4,45.4,946.1,45.6,945.9,45.6z M949.8,45
		c0-0.3,0.2-0.5,0.4-0.5h0.3l-0.1-0.7c0-0.3,0.2-0.5,0.5-0.5s0.5,0.2,0.5,0.5l0.1,1.2c0,0.3-0.2,0.5-0.5,0.5l-0.8,0.1
		C950,45.5,949.8,45.3,949.8,45z M948.3,44.6l-0.2-2c0-0.3,0.2-0.5,0.5-0.5s0.5,0.2,0.5,0.5l0.2,2c0,0.3-0.2,0.5-0.5,0.5
		S948.3,44.9,948.3,44.6z M957.8,43.8v-2c0-0.3,0.2-0.5,0.5-0.5s0.5,0.2,0.5,0.5v2c0,0.3-0.2,0.5-0.5,0.5
		C958.1,44.3,957.8,44.1,957.8,43.8z M959.7,43.7v-2c0-0.3,0.2-0.5,0.5-0.5s0.5,0.2,0.5,0.5v2c0,0.3-0.2,0.5-0.5,0.5
		S959.7,44,959.7,43.7z M952.4,42.5l-1.3-0.1c-0.3,0-0.5-0.3-0.5-0.5c0-0.3,0.3-0.5,0.5-0.5l0.8,0.1v-0.1c0-0.3,0.3-0.5,0.5-0.5
		c0.3,0,0.5,0.3,0.5,0.5l-0.1,0.7C952.9,42.3,952.7,42.5,952.4,42.5z M945.4,41.5v-2c0-0.3,0.2-0.5,0.5-0.5s0.5,0.2,0.5,0.5v2
		c0,0.3-0.2,0.5-0.5,0.5C945.6,42,945.4,41.8,945.4,41.5z M947.9,40.6l-0.2-2c0-0.3,0.2-0.5,0.5-0.5s0.5,0.2,0.5,0.5l0.2,2
		c0,0.3-0.2,0.5-0.5,0.5C948.2,41.1,947.9,40.9,947.9,40.6z M962.6,41h-1.7c-0.3,0-0.5-0.2-0.5-0.5s0.2-0.5,0.5-0.5h1.3l0.4-0.4
		c0.3,0,0.5,0.3,0.5,0.5v0.3C963.1,40.8,962.9,41,962.6,41z M957.8,39.8v-2c0-0.3,0.2-0.5,0.5-0.5s0.5,0.2,0.5,0.5v2
		c0,0.3-0.2,0.5-0.5,0.5S957.8,40.1,957.8,39.8z M952.1,39.3l0.1-2c0-0.3,0.3-0.5,0.5-0.5c0.3,0,0.5,0.3,0.5,0.5l-0.2,2
		c0,0.3-0.3,0.5-0.5,0.5C952.3,39.8,952.1,39.6,952.1,39.3z M963.1,39c0-0.3,0.2-0.5,0.5-0.5h0.6l0.1-0.5c0-0.3,0.3-0.5,0.6-0.4
		c0.3,0,0.5,0.3,0.4,0.6l-0.1,0.9c0,0.2-0.2,0.4-0.5,0.4h-1.1C963.4,39.5,963.1,39.3,963.1,39z M945.4,37.5v-2
		c0-0.3,0.2-0.5,0.5-0.5s0.5,0.2,0.5,0.5v2c0,0.3-0.2,0.5-0.5,0.5C945.6,38,945.4,37.8,945.4,37.5z M965.4,37c0-0.3,0.2-0.5,0.5-0.5
		l1.1-0.1c0-0.3,0.2-0.5,0.5-0.5s0.5,0.2,0.5,0.5v0.5c0,0.3-0.2,0.5-0.5,0.5l-1.5,0.1C965.7,37.5,965.4,37.3,965.4,37z M947.6,36.6
		l-0.1-1c-0.3,0-0.5-0.2-0.5-0.5s0.2-0.5,0.5-0.5h0.5c0.3,0,0.5,0.2,0.5,0.5l0.1,1.5c0,0.3-0.2,0.5-0.5,0.5
		C947.9,37.1,947.6,36.9,947.6,36.6z M957.9,35.9L957.9,35.9l-0.6-1.9c-0.1-0.3,0.1-0.5,0.4-0.6c0.3-0.1,0.5,0.1,0.6,0.3l0.5,1.9
		v0.1c0,0.3-0.2,0.5-0.5,0.5L957.9,35.9z M952.4,35.3l0.2-2c0-0.3,0.3-0.5,0.5-0.5c0.3,0,0.5,0.3,0.5,0.5l-0.1,2
		c0,0.3-0.3,0.5-0.5,0.5C952.6,35.9,952.4,35.6,952.4,35.3z M967,34.4l0.1-2c0-0.3,0.2-0.5,0.5-0.5s0.5,0.2,0.5,0.5l-0.1,2
		c0,0.3-0.2,0.5-0.5,0.5C967.3,35,967,34.7,967,34.4z M970.8,34.8l-0.5-0.4c-0.2-0.2-0.2-0.5,0-0.7s0.5-0.2,0.7-0.1l0.2,0.2v-0.4
		c0-0.3,0.2-0.5,0.5-0.5s0.5,0.2,0.5,0.5v0.7c0,0.2-0.1,0.4-0.3,0.4l-0.6,0.3C971.1,35,970.9,35,970.8,34.8z M955.7,33.4l-0.5-1.9
		c-0.1-0.3,0.1-0.5,0.3-0.6c0.3-0.1,0.5,0.1,0.6,0.3l0.5,1.9c0.1,0.3-0.1,0.5-0.3,0.6C956,33.8,955.8,33.7,955.7,33.4z M969.3,32.5
		l-0.3-2c0-0.3,0.1-0.5,0.4-0.6c0.3,0,0.5,0.1,0.6,0.4l0.3,2c0,0.3-0.1,0.5-0.4,0.6C969.6,32.9,969.3,32.7,969.3,32.5z M971.3,31.5
		v-2c0-0.3,0.2-0.5,0.5-0.5s0.5,0.2,0.5,0.5v2c0,0.3-0.2,0.5-0.5,0.5S971.2,31.7,971.3,31.5z M952.7,31.3l0.1-1
		c0-0.3,0.2-0.5,0.5-0.5h1c0.3,0,0.5,0.2,0.5,0.5s-0.2,0.5-0.5,0.5h-0.5v0.5c0,0.3-0.3,0.5-0.5,0.5
		C952.9,31.9,952.7,31.6,952.7,31.3z M967.2,30.4v-1.3c0-0.3,0.2-0.5,0.5-0.5h0.8c0.3,0,0.5,0.2,0.5,0.5s-0.2,0.5-0.5,0.5h-0.3v0.8
		c0,0.3-0.2,0.5-0.5,0.5C967.4,31,967.2,30.7,967.2,30.4z M971.3,27.5v-2c0-0.3,0.2-0.5,0.5-0.5s0.5,0.2,0.5,0.5v2
		c0,0.3-0.2,0.5-0.5,0.5S971.3,27.7,971.3,27.5z M971.3,23.5v-2c0-0.3,0.2-0.5,0.5-0.5s0.5,0.2,0.5,0.5v2c0,0.3-0.2,0.5-0.5,0.5
		C971.6,24,971.3,23.7,971.3,23.5z M971.4,19.5v-2c0-0.3,0.2-0.5,0.5-0.5s0.5,0.2,0.5,0.5v2c0,0.3-0.2,0.5-0.5,0.5
		C971.6,20,971.4,19.7,971.4,19.5z M972.3,16.3l-0.2-2c0-0.3,0.2-0.5,0.4-0.6c0.3,0,0.5,0.2,0.5,0.4l0.2,2c0,0.3-0.2,0.5-0.4,0.6
		C972.5,16.7,972.3,16.6,972.3,16.3z M988,15l0.2-0.2l0.1-1.7c0-0.3,0.3-0.5,0.5-0.5c0.3,0,0.5,0.3,0.5,0.5l-0.1,1.8
		c0,0.2-0.2,0.4-0.4,0.5h-0.2C988.3,15.5,988,15.3,988,15z M982,14.2l-0.3-1.7c-0.1-0.3,0.1-0.5,0.4-0.6c0.3,0,0.5,0.1,0.6,0.4
		l0.3,1.6l0.3,0.3c0,0.3-0.2,0.5-0.5,0.5h-0.2C982.3,14.6,982.1,14.4,982,14.2z M986.9,14.2l-0.2-2c0-0.3,0.2-0.5,0.5-0.5
		s0.5,0.2,0.5,0.4l0.2,2c0,0.3-0.2,0.5-0.4,0.5C987.1,14.7,986.9,14.5,986.9,14.2z M983,12.7l0.2-2c0-0.3,0.3-0.5,0.5-0.5
		c0.3,0,0.5,0.3,0.5,0.5l-0.2,2c0,0.3-0.3,0.5-0.5,0.5C983.2,13.3,983,13,983,12.7z M972.1,12.6c0-0.3,0.2-0.5,0.5-0.5l1-0.1v-0.1
		c0-0.3,0.2-0.5,0.5-0.5s0.5,0.2,0.5,0.5v0.6c0,0.3-0.2,0.5-0.5,0.5l-1.4,0.1C972.4,13.1,972.2,12.8,972.1,12.6z M988.4,11.1l0.1-2
		c0-0.3,0.3-0.5,0.5-0.5c0.3,0,0.5,0.3,0.5,0.5l-0.1,2c0,0.3-0.3,0.5-0.5,0.5C988.6,11.6,988.3,11.3,988.4,11.1z M981.4,10.5l-0.3-2
		c0-0.3,0.1-0.5,0.4-0.6c0.3-0.1,0.5,0.1,0.6,0.4l0.3,2c0.1,0.3-0.1,0.5-0.4,0.6C981.7,11,981.4,10.8,981.4,10.5z M986.4,10.2
		l-0.2-2c0-0.3,0.2-0.5,0.4-0.5c0.3,0,0.5,0.2,0.6,0.4l0.2,2c0,0.3-0.2,0.5-0.4,0.5C986.7,10.7,986.5,10.5,986.4,10.2z M973.6,9.9
		v-2c0-0.3,0.2-0.5,0.5-0.5s0.5,0.2,0.5,0.5v2c0,0.3-0.2,0.5-0.5,0.5S973.6,10.2,973.6,9.9z M983.4,8.8l0.2-2c0-0.3,0.3-0.5,0.5-0.5
		c0.3,0,0.5,0.3,0.5,0.5l-0.2,2c0,0.3-0.3,0.5-0.5,0.5C983.6,9.3,983.4,9,983.4,8.8z M988.6,7.1l0.1-2c0-0.3,0.3-0.5,0.5-0.5
		c0.3,0,0.5,0.3,0.5,0.5l-0.1,2c0,0.3-0.3,0.5-0.5,0.5C988.8,7.6,988.6,7.3,988.6,7.1z M980.7,6.6l-0.3-2c-0.1-0.3,0.1-0.5,0.4-0.6
		c0.3,0,0.5,0.1,0.6,0.4l0.3,2c0.1,0.3-0.1,0.5-0.4,0.6C981,7,980.7,6.8,980.7,6.6z M986,6.2L986,6.2l-1.1-0.1
		c-0.3,0-0.5-0.3-0.5-0.5c0-0.3,0.3-0.5,0.5-0.5l1.5,0.1c0.3,0,0.5,0.2,0.5,0.5l0.1,0.5c0,0.3-0.2,0.5-0.5,0.5
		C986.3,6.7,986,6.5,986,6.2z M973.7,5.9V4c0-0.3,0.2-0.5,0.5-0.5h0.1c0.3,0,0.5,0.2,0.5,0.5h-0.1v1.9c0,0.3-0.2,0.5-0.5,0.5
		S973.7,6.2,973.7,5.9z M977.4,5.1l-0.6-0.7h-0.5c-0.3,0-0.5-0.2-0.5-0.5s0.2-0.5,0.5-0.5h0.8c0.2,0,0.3,0.1,0.4,0.2l0.7,0.9
		l0.2,0.1c0.1,0.3,0,0.5-0.3,0.7H978C977.8,5.3,977.6,5.3,977.4,5.1z M978.6,3.3l0.3-0.9c0.1-0.2,0.3-0.4,0.6-0.4l1,0.1
		c0.3,0,0.5,0.3,0.4,0.6c0,0.3-0.3,0.5-0.6,0.4L979.7,3l-0.1,0.5c-0.1,0.3-0.3,0.4-0.6,0.3C978.7,3.9,978.5,3.6,978.6,3.3z
		 M988.9,3.1l0.1-2c0-0.3,0.3-0.5,0.5-0.5c0.3,0,0.5,0.3,0.5,0.5l-0.1,2c0,0.3-0.3,0.5-0.5,0.5C989.1,3.6,988.9,3.3,988.9,3.1z"/>
	<path class="st5" d="M0,420.6l346.7-3.6l34.1-1.2l21-0.6h30l18.9-2l11.3-0.9l5.6-1.7c1.1-0.3,2.2,0.3,2.5,1.3
		c0.3,1.1-0.3,2.2-1.3,2.5l-5.8,1.7c-0.1,0-0.3,0.1-0.4,0.1l-11.5,0.9l-18.9,2c-0.1,0-0.1,0-0.2,0h-30.1l-20.9,0.6l-34.2,1.2
		L0,424.6"/>
	<path class="st6" d="M468.4,410.6l4.8,0.2l1.1-1c0.3-0.3,0.7-0.5,1.2-0.5l3.7-0.3l0.5-0.1l0.6-1.6c0.3-0.9,1.3-1.5,2.3-1.3l2.1,0.4
		l1.1,0.8l0.4-0.1l1.1,0.1l0.4-1.2l1.3-0.5v-0.3c0-1.1,1-2,2.1-1.9h0.9l0.1-0.2c0.4-0.5,1-0.7,1.6-0.7h0.3l0.7-1l0.1-0.1l0.1-0.5
		c0.1-0.4,0.3-0.8,0.6-1.1l0.4-0.2l0.6-1.4l1.5-0.4l0.1-0.5c0.3-0.9,1.1-1.5,2.1-1.5h0.4c0.4-0.5,0.9-0.8,1.6-0.8h0.2l0.4-1.2
		c0.3-0.9,1.3-1.5,2.3-1.3h0.2l0.2-0.3c0.3-0.3,0.7-0.5,1.1-0.5l2.2-0.2l0.2-0.8c0.1-0.5,0.3-0.9,0.7-1.1l0.8-0.3
		c0.3-0.6,0.9-1,1.5-1.1h0.1l1.2-0.8l1.6-0.2l0.9-0.6c0.1-0.1,0.3-0.2,0.5-0.2l0.7-0.3l0.4-0.4l0.1-0.1l0.1-1.7
		c0-0.2,0.1-0.4,0.1-0.6l0.7-1.9c0.3-0.9,1.2-1.4,2.1-1.3l1.1,0.1l0.7-0.7h0.2l0.7-1.1c0.3-0.5,0.9-0.9,1.5-1l1-0.1
		c0.2,0,0.3,0,0.5,0l1,0.1v-2c0-1.1,0.9-1.9,1.9-2h0.2l0.6-1.9c0.3-0.8,1-1.3,1.8-1.4h0.1l0.1-0.6c0.2-0.8,0.8-1.5,1.7-1.6l0.6-0.1
		l0.1-0.8c0.2-1,1.1-1.7,2.1-1.6h0.5l0.5-0.7l1.2-0.4l0.1-0.8c0.2-1,1-1.7,2.1-1.7l1.7,0.1c0.7,0,1.3,0.4,1.7,1l0.7,1.2l2.8,0.1
		c0.9,0,1.7,0.7,1.9,1.6l0.6,2.4l1.2,0.3c0.4,0.3,0.7,0.6,0.8,1.1l1.4,4.5c0.1,0.2,0.1,0.4,0.1,0.6v0.6l1.3,0.5l0.8-0.3h0.3v-0.1
		c0.2-0.8,0.8-1.5,1.6-1.6l2.1-0.3c0.5-0.1,1,0,1.4,0.3l0.4,0.2l0.1-0.4c0.2-0.9,1.1-1.6,2-1.6l4.5,0.1v-0.4c-0.1-1.2,1-2.2,2.2-2.1
		l5,0.5l0.2-1.2c0.2-1,1.1-1.7,2.1-1.7l2.3,0.1l0.3-3.6c0.1-1,0.9-1.8,1.9-1.9l2.2-0.1l0.3,0.1l0.2-1.9c0-0.6,0.4-1.1,0.8-1.5
		l0.8-0.1l0.6-6.7c0.1-1.1,1-1.9,2-1.8l2.2,0.1l0.3,0.1V345c0-1.2,1-2.1,2.2-2l0.6,0.1l0.1-0.2c0.2-0.4,0.5-0.7,0.8-0.9l1.1-0.2
		l-0.1-2.4c0-0.7,0.3-1.3,0.7-1.7l0.8-0.2l0.5-6.8c0.1-1.1,1-1.9,2.1-1.8h0.3l0.3-4.5c0-0.5,0.3-1,0.7-1.3l1.1-0.4l0.1-0.4
		c0.1-1,1-1.7,2-1.7h0.7l0.3-3.3c0.1-1.1,1-1.8,2.1-1.8l2.2,0.1c1,0.1,1.9,0.9,1.9,1.9l0.1,3.5l0.3-0.1l1.6-0.1
		c0.8,0,1.5,0.4,1.9,1.1v0.1l0.5-0.7l0.9-0.1l-0.1-4.4c0-0.6,0.2-1.1,0.6-1.5l1.1-0.4l0.1-5c0-1,0.8-1.9,1.9-1.9l1.1-0.1l0.2-3.3
		c0.1-1.1,1-2,2.2-1.9h0.5l0.4-0.5c0.5-0.5,1.1-0.7,1.8-0.6l1.5,0.2l0.1,0.1l0.5-5.8c0.1-1,0.9-1.7,1.9-1.8l2.6-0.2
		c1.1-0.1,2.1,0.8,2.1,1.9l0.2,11.7h0.1l0.2-7.3c0-1.1,0.9-1.9,2-1.9h1.5l0.2-0.2c0.4-0.4,0.9-0.6,1.4-0.6h1.3c1,0,1.9,0.8,2,1.8
		l0.5,5.4h0.4l1,0.3l0.2-3c0.1-1,0.9-1.9,1.9-1.9l1.7-0.1l0.8-10.2c0.1-1.1,1.1-2,2.3-1.8l1.7,0.2c0.9,0.1,1.5,0.8,1.7,1.6l0.2,1.4
		l0.3-0.1l0.1-0.5c0.1-0.5,0.3-1,0.7-1.3l0.5-0.2V289c-0.1-1.3,1-2.3,2.3-2.2l1.4,0.2l1.1-11.6c0.1-1.1,1.1-1.9,2.2-1.8l1.9,0.2v-3
		c0-1.2,1.1-2.2,2.3-2l2.3,0.3c1,0.1,1.7,0.9,1.7,1.9l0.5,15.9l0.4-0.1l0.9-9.9c0.1-1.1,1.1-1.9,2.1-1.8l1.5,0.1
		c0.9,0.1,1.6,0.7,1.8,1.6l0.5,2.3h0.1l0.6-12.9c0-0.5,0.3-1,0.7-1.4l1.1-0.4l0.2-0.5c0.3-0.9,1.2-1.5,2.1-1.4l0.4,0.1l0.2-2.3
		c0-0.5,0.3-1,0.6-1.3l1.2-0.5l0.2-0.8c0.2-0.9,1-1.6,2-1.6h2.6l0.7,0.3l0.3-0.7l1.1-0.5l0.2-7.6c0-1,0.8-1.8,1.7-1.9l0.6-0.1
		l0.5-1.8c0.2-0.9,1-1.4,1.9-1.4h2.8v-8.9c0-1.1,0.9-2,2-2h2.3c1.1,0,2,0.9,2,1.9l0.7,27.5h0.1c1,0,1.9,0.9,1.9,1.9l0.3,6.8l1.5,0.1
		c1,0.1,1.9,0.9,1.9,2l0.5,39.1l1,0.3l0.8-1.3l0.4-0.1l0.7-6.4c0.1-0.5,0.3-0.9,0.7-1.3l0.7-0.3l0.3-13.4c0-1.1,0.9-2,2-2h0.2
		l0.3-3.9c0.1-0.9,0.7-1.7,1.6-1.8l0.4-0.1l0.3-3.1c0.1-0.5,0.3-1,0.7-1.3l1.1-0.3l0.7-4.3c0.2-1,1-1.7,2-1.7h0.4l0.1-0.5
		c0.1-0.5,0.4-0.9,0.7-1.2l0.9-0.3l0.3-9.1c0-0.5,0.2-0.9,0.5-1.3l1.1-0.6l0.3-4.4c0-0.2,0.1-0.5,0.2-0.7l0.7-1.5
		c0.3-0.7,1-1.2,1.8-1.2h2.6l0.2,0.1l0.3-9.4c0-0.9,0.6-1.7,1.5-1.9l4.2-1.1l0.7-15.6c0-1.1,0.9-1.9,1.9-1.9l1.9-0.1l0.6-8
		c0.1-1,0.9-1.8,1.9-1.9l2.8-0.1c1.1,0,2.1,0.9,2,2.1l-0.1,1.7h0.3l0.3,0.2l-0.2-6.2c-0.1-1.3,1.1-2.2,2.3-2l2.2,0.3l0.3,0.3
		l0.3-7.5c0.1-1.1,1-2,2.1-1.9h0.3V188c0-1.1,0.9-2,2-2h2.1c1.1,0,1.9,0.8,2,1.8l0.4,5.5l0.6-0.2l1.6,0.1c0.9,0.1,1.7,0.7,1.8,1.7
		l0.6,3.5h0.5c0.9,0,1.7,0.6,1.9,1.5l0.5,1.7l1.1,0.4c0.3,0.3,0.6,0.6,0.7,1.1l0.6,2.4c0,0.2,0.1,0.3,0.1,0.5v2.9h0.1h0.6l0.4-0.9
		c0.3-0.3,0.8-0.6,1.3-0.6l0,0l0.3-17.4c0-1.1,0.8-1.9,1.9-2h0.7l0.2-6.2c0-1.1,0.9-1.9,1.9-1.9l1.5-0.1l0.7,0.2l0.1-10.6
		c0-0.5,0.2-0.9,0.4-1.2l0.5-0.3l-0.5-12c0-0.5,0.2-1,0.5-1.4l1.3-0.6l0.1-7.1c0-1.1,0.9-1.9,2-2l2.8-0.1l0.4,0.2v-0.2
		c0.3-1,1.2-1.6,2.2-1.5l1.1,0.2c0.9,0.1,1.6,0.9,1.7,1.8l1,10.1l0.8-0.3l2.3,0.1l0.5,0.2l0.5-14.7c0-1.1,1-2,2.1-1.9s2,1,1.9,2.1
		l-0.9,26c0,0.9-0.7,1.7-1.6,1.9l-1.1,0.2c-1.2,0.2-2.3-0.6-2.4-1.8l-0.1-1l-0.6,1.2c-0.4,0.3-0.8,0.5-1.4,0.5h-0.9
		c-1,0-1.9-0.8-2-1.8l-1.7-16.9l-0.3,0.1c-0.8,0.3-1.8,0.1-2.3-0.6v-0.1l-0.1,6.8c0,0.5-0.2,1-0.5,1.3l-1.1,0.5l0.5,11.5
		c0,0.5-0.1,0.9-0.4,1.3l-0.6,0.4l-0.2,16.3c0,0.8-0.4,1.5-1.1,1.8l-0.6,0.3c-0.7,0.4-1.6,0.2-2.2-0.3l-0.3-0.2l-0.1,1.4
		c0,1-0.9,1.9-1.9,1.9h-0.6l-0.3,17.4c0,1.1-0.9,1.9-1.9,2h-0.3l-0.5,1c-0.4,0.3-0.9,0.6-1.4,0.5h-0.3v1.5c0,1.1-0.9,1.9-1.9,2
		l-1.9,0.1c-1.1,0-2.1-0.9-2.1-2l-0.1-8.2l-0.2-0.7l-1.1-0.4c-0.3-0.3-0.6-0.6-0.7-1.1l-0.4-1.7h-0.6c-1,0-1.8-0.7-1.9-1.7l-0.1-0.5
		l-2.3,0.2c-0.5,0.1-1.1-0.1-1.5-0.5l-0.1-0.3l-0.1,0.2c-0.4,0.4-0.9,0.6-1.5,0.5h-0.4l-0.5,10c0,1-0.8,1.8-1.8,1.9l-1.3,0.1
		c-0.5,0-0.9-0.1-1.2-0.3l-0.1-0.1l0.1,3.9c0,1-0.7,1.9-1.7,2.1l-1.7,0.2c-0.7,0.1-1.4-0.2-1.8-0.7l-0.3-0.4l-1.3-0.1l-0.9-0.5
		l-0.4,4.9c-0.1,1-0.9,1.8-1.9,1.9l-1.9,0.1l-0.7,15.2c0,0.9-0.7,1.6-1.5,1.9l-4.2,1.1l-0.4,11.9c0,1-0.8,1.8-1.7,1.9l-2.1,0.3
		c-0.6,0.1-1.2-0.1-1.6-0.5l-0.1-0.1l-0.2,3.7c0,0.5-0.2,0.9-0.5,1.2l-1,0.5l-0.3,9.4c0,0.6-0.3,1.1-0.7,1.4l-1.3,0.5l-0.1,0.5
		c-0.2,1-1,1.7-2,1.6h-0.4l-0.7,4.3c-0.1,0.5-0.4,1-0.8,1.3l-1,0.3l-0.3,2.8c-0.1,0.9-0.7,1.6-1.6,1.8l-0.3,0.1l-0.3,4.2
		c-0.1,1.1-0.9,1.9-2,1.9h-0.1l-0.3,13.2c0,0.5-0.2,1-0.6,1.4l-0.9,0.4l-0.8,6.4c-0.1,0.6-0.4,1.1-0.8,1.4l-0.4,0.1l-0.6,4.6
		c-0.1,0.9-0.9,1.7-1.9,1.7l-1.8,0.1c-1.1,0.1-2.1-0.8-2.1-1.9l-0.1-2.8l-1.5-0.4c-0.4-0.4-0.7-0.9-0.7-1.5l-0.5-39.4l-1.4-0.1
		c-1-0.1-1.8-0.9-1.9-1.9l-0.3-6.7h-0.1l-1.1-0.5v2c0,1.2-1,2.1-2.2,2l-1.8-0.2c-1-0.1-1.8-1-1.8-2l0.1-18.1l-1.5,1.3h-0.2l-0.2,7.7
		c0,0.5-0.3,1-0.6,1.4l-1.1,0.5v1c0,0.6-0.3,1.1-0.7,1.4l-0.5,0.2l-0.3,2c-0.3,2.2-3.6,2.2-3.9,0l-0.3-2.2l-0.3,0.5l-0.8,0.3
		l-0.2,2.8c-0.1,1.1-1.1,2-2.2,1.8l-0.9-0.1l-0.1,0.3c-0.1,0.4-0.4,0.8-0.8,1l-0.4,0.1l-0.6,13.5c0,1-0.8,1.8-1.9,1.9l-1.7,0.1
		c-0.5,0-1.1-0.2-1.5-0.5l-0.4-0.3h-0.1l-1-0.3l-0.6,6.3c-0.1,0.5-0.3,1-0.7,1.3l-1,0.4l-0.2,2.3c0,0.2-0.1,0.4-0.1,0.6l-0.8,2.1
		c-0.2,0.5-0.6,0.9-1.1,1.1l-1.3,0.5c-1.3,0.5-2.7-0.4-2.8-1.8l-0.5-17.6l-0.6,0.2l-2.1-0.2l-1.2,12.6l-0.7,0.9l-0.3,2.2
		c-0.3,1.7-2.2,2.1-3.3,1.3l-0.5-1l-0.7,1.3c-0.4,0.3-0.9,0.5-1.5,0.4h-0.2l-0.3,0.4c-0.3,0.3-0.8,0.4-1.2,0.4h-1.6l-0.8-0.3
		l-0.5,6.3c-0.1,1-0.9,1.8-1.9,1.8l-1.6,0.1L650,315c0,0.3-0.1,0.7-0.3,1l-1.9,3c-1.1,1.7-3.6,0.9-3.7-1l-0.3-8.8h-0.3
		c-1.1,0.1-2.1-0.7-2.2-1.8l-0.4-4.9l-0.3,0.1h-0.4l-0.2,7.1c0,0.5-0.2,1-0.6,1.4l-1,0.4l-0.2,4.7c0,1-0.8,1.8-1.8,1.9l-2,0.2
		c-1.2,0.1-2.2-0.8-2.2-1.9l-0.2-10.5l-0.2,0.4c-0.3,0.3-0.8,0.5-1.3,0.5l-1.3,0.1c-0.6,0-1.2-0.2-1.6-0.7l-0.2-0.3l-0.2,0.2
		l-1.1,0.4l-0.2,3.3c-0.1,1-0.9,1.8-1.9,1.9l-1,0.1l-0.1,5c0,0.6-0.3,1.1-0.6,1.4l-1,0.4v4.8c0,1.3-1.2,2.3-2.5,2l-0.6-0.1l-0.8,0.7
		l-2.4,0.4c-0.4,0.1-0.9,0-1.2-0.2l-0.1,0.3c-0.3,0.3-0.8,0.5-1.3,0.6l-2.1,0.1c-1.1,0.1-2.1-0.8-2.1-1.9v-1l-1.1,0.4h-0.7v0.3
		c-0.1,0.5-0.3,0.9-0.7,1.3l-0.9,0.3l-0.3,4.7c-0.1,1.1-1,1.9-2.1,1.9h-0.3l-0.5,6.8c-0.1,0.6-0.4,1.1-0.8,1.5l-0.4,0.1l0.1,2.6
		c0.1,1.2-1,2.2-2.2,2.1l-0.8-0.1l-0.1,0.2c-0.2,0.4-0.5,0.7-0.8,0.9l-1,0.2l0.1,5.5c0,1.2-1,2.1-2.2,2l-1.3-0.1
		c-0.4,0-0.7-0.2-1-0.4l-0.2-0.1l-0.6,6.5c-0.1,0.6-0.4,1.1-0.8,1.5l-0.7,0.1l-0.2,2.2c-0.1,0.7-0.5,1.4-1.3,1.7l-0.9,0.3
		c-0.7,0.3-1.4,0.2-2-0.3l-0.1-0.1l-0.3,3.5c-0.1,1.1-1,1.9-2.1,1.9l-2.5-0.1l-0.1,0.6c0,0.2-0.1,0.5-0.3,0.7l-0.7,1.1
		c-0.5,0.9-1.6,1.2-2.6,0.8l-0.9-0.4l-2.4-0.3v0.2c0.1,1.2-0.9,2.1-2,2.1l-5.1-0.1l-0.1,0.5c-0.2,0.7-0.7,1.3-1.4,1.5l-1.3,0.4
		c-0.6,0.2-1.2,0.1-1.7-0.2l-1-0.7l-0.1,0.3c-0.2,1-1,1.7-2,1.6h-0.1l-0.3,2.3c-0.1,0.9-0.8,1.7-1.8,1.8l-1.2,0.1
		c-1.1,0.1-2.1-0.7-2.2-1.8l-0.3-2.8h-0.1c-1.1,0-1.9-0.9-1.9-2v-2.2l-0.8-2.7H549c-1,0.1-1.9-0.6-2.2-1.5l-0.6-2.6l-2.4-0.1
		c-0.7,0-1.3-0.4-1.7-1l-0.6,0.9c-0.5,0.3-1,0.4-1.6,0.3h-0.1l-0.4,0.5l-1.4,0.6l-0.1,0.6c-0.1,0.9-0.8,1.5-1.7,1.6l-0.6,0.1
		l-0.1,0.7c-0.2,0.9-0.9,1.6-1.8,1.6h-0.3l-0.6,1.9l-1.5,1.2v4.2c0,1.3-1.3,2.3-2.6,1.9l-1-0.3c-0.5-0.1-1-0.5-1.2-1l-0.3-0.6l0,0
		l-0.3,0.9c-0.2,0.5-0.6,0.9-1.1,1.1h-0.5l-0.5,0.6c-0.4,0.2-0.8,0.3-1.3,0.3l-0.8-0.1l-0.1,0.2l-0.1,2.7c0,0.5-0.2,0.9-0.5,1.2
		l-1.1,0.7l-0.3,0.3c-0.2,0.2-0.5,0.4-0.7,0.5l-0.9,0.3l-1.1,0.7c-0.3,0.2-0.5,0.3-0.8,0.3l-1.2,0.2l-1,0.7l-0.1,0.1l-0.9,0.5
		l-0.3,1.1c-0.2,0.8-0.9,1.5-1.7,1.6l-2.3,0.3l-0.6,0.9c-0.4,0.3-1,0.4-1.5,0.3h-0.2l-0.3,0.9l-1.6,1.1l-0.1,0.5
		c-0.4,0.5-1,0.8-1.7,0.7l-0.8-0.1l-0.2,0.6c-0.1,0.5-0.5,0.9-0.9,1.2l-0.8,0.1l-0.2,0.5l-0.9,0.5l-0.1,0.3l-1.1,1.4
		c0,0.6-0.3,1.1-0.6,1.5l-1.4,0.5l-0.1,0.2c-0.4,0.4-1,0.7-1.6,0.7h-0.8v0.2c0,0.6-0.3,1.1-0.7,1.5l-1,0.3l-0.5,1.4
		c-0.4,0.4-1,0.7-1.6,0.6l-2.8-0.2l-0.4,0.2c-0.9,0.6-2.2,0.3-2.7-0.6l-0.1-0.1l-0.2,0.6c-0.2,0.7-0.8,1.1-1.5,1.3l-1.7,0.3
		c-0.1,0-0.1,0-0.2,0l-3.1,0.3l-1.2,1.1c-0.6,0.3-1.1,0.5-1.6,0.5l-5.6-0.2"/>
	<rect y="437" class="st7" width="812.4" height="2"/>
</g>
</svg>
