<?xml version="1.0" encoding="utf-8"?>
<!-- Generator: Adobe Illustrator 16.2.0, SVG Export Plug-In . SVG Version: 6.00 Build 0)  -->
<!DOCTYPE svg PUBLIC "-//W3C//DTD SVG 1.1//EN" "http://www.w3.org/Graphics/SVG/1.1/DTD/svg11.dtd">
<svg version="1.1" id="Layer_1" xmlns="http://www.w3.org/2000/svg" xmlns:xlink="http://www.w3.org/1999/xlink" x="0px" y="0px"
	 width="41.717px" height="41.987px" viewBox="0 0 41.717 41.987" enable-background="new 0 0 41.717 41.987" xml:space="preserve">
<g>
	<path fill="#0068DD" d="M36.234,19.925c-0.053-0.666-0.12-1.319-0.253-1.985c-0.134-0.667-0.333-1.319-0.546-1.986l3.584-4.144
		c0.32-0.387,0.307-0.946-0.013-1.346l-5.45-6.156c-0.333-0.4-0.907-0.466-1.319-0.201l-4.61,3.039
		c-1.213-0.574-2.438-1.04-3.798-1.292l-1.838-5.197c-0.174-0.466-0.667-0.733-1.173-0.64l-8.062,1.626
		c-0.506,0.107-0.853,0.56-0.84,1.053L12.25,8.2c-1.173,0.76-2.119,1.666-3.012,2.652L3.815,9.853
		c-0.48-0.094-0.986,0.199-1.132,0.692L0.058,18.34c-0.173,0.493,0.053,1.013,0.506,1.239l4.917,2.425
		c0.053,0.706,0.133,1.385,0.267,2.038c0.134,0.667,0.32,1.307,0.533,1.932l-3.584,4.211c-0.32,0.373-0.32,0.946,0.026,1.333
		l5.437,6.169c0.333,0.386,0.919,0.439,1.319,0.187l4.61-3.051c1.212,0.599,2.438,1.065,3.811,1.305l1.826,5.197
		c0.173,0.466,0.679,0.746,1.172,0.64l8.075-1.625c0.493-0.106,0.853-0.546,0.826-1.052l-0.333-5.49
		c1.173-0.786,2.119-1.666,3.012-2.691l5.423,1.026c0.479,0.066,0.986-0.2,1.146-0.693l2.625-7.795
		c0.146-0.493-0.066-1.012-0.506-1.238L36.234,19.925z M22.284,28.054c-3.891,0.786-7.688-1.732-8.475-5.637
		c-0.786-3.89,1.732-7.688,5.623-8.474c3.904-0.799,7.688,1.732,8.488,5.623C28.707,23.47,26.188,27.254,22.284,28.054
		L22.284,28.054z"/>
</g>
</svg>
