<?xml version="1.0" encoding="utf-8"?>
<!-- Generator: Adobe Illustrator 16.2.0, SVG Export Plug-In . SVG Version: 6.00 Build 0)  -->
<!DOCTYPE svg PUBLIC "-//W3C//DTD SVG 1.1//EN" "http://www.w3.org/Graphics/SVG/1.1/DTD/svg11.dtd">
<svg version="1.1" id="Layer_1" xmlns="http://www.w3.org/2000/svg" xmlns:xlink="http://www.w3.org/1999/xlink" x="0px" y="0px"
	 width="41.921px" height="41.461px" viewBox="0 0 41.921 41.461" enable-background="new 0 0 41.921 41.461" xml:space="preserve">
<g>
	<path fill="#FF5B00" d="M25.439,4.829l-2.638,4.744c-2.492-0.414-4.997,0.026-7.128,1.158l-3.851-3.77L9.423,8.893l2.892,4.531
		c-1.625,1.958-2.571,4.396-2.665,6.915L4.44,21.751l0.466,3.051l5.436-0.2c0.826,2.266,2.359,4.264,4.464,5.609l-1.226,5.304
		l2.918,1.119l2.638-4.73c2.465,0.4,4.957-0.053,7.089-1.172l3.877,3.798l2.412-1.933l-2.918-4.544
		c1.625-1.945,2.572-4.384,2.665-6.929l5.197-1.399l-0.48-3.052l-5.383,0.201c-0.826-2.266-2.385-4.291-4.503-5.636l1.226-5.291
		L25.439,4.829z M9.717,38.42c-0.48-0.173-0.747-0.68-0.64-1.173l1.253-5.356c-1.026-0.946-1.812-1.999-2.505-3.144l-5.53,0.093
		c-0.479-0.014-0.946-0.36-1.012-0.879l-1.266-8.115c-0.093-0.52,0.227-0.986,0.707-1.133l5.263-1.625l0.587-1.906l0.878-1.865
		l-2.837-4.69C4.36,8.2,4.44,7.64,4.854,7.307l6.396-5.156c0.4-0.333,0.986-0.307,1.333,0.04l4.037,3.757
		c1.292-0.373,2.572-0.613,3.971-0.626l2.665-4.811c0.254-0.439,0.8-0.626,1.28-0.439l7.662,2.958
		c0.48,0.187,0.746,0.693,0.653,1.186l-1.253,5.343c1.026,0.946,1.799,1.999,2.519,3.132l5.516-0.066
		c0.48-0.014,0.933,0.359,1,0.866l1.279,8.114c0.08,0.52-0.227,0.999-0.706,1.146l-5.25,1.559l-0.613,1.972l-0.866,1.865l2.837,4.69
		c0.253,0.426,0.16,0.986-0.253,1.319l-6.396,5.157c-0.387,0.333-0.973,0.293-1.333-0.04l-4.024-3.757
		c-1.292,0.359-2.585,0.613-3.971,0.626l-2.678,4.811c-0.253,0.426-0.787,0.626-1.266,0.439L9.717,38.42 M22.442,16.901
		c-2.119-0.826-4.504,0.226-5.316,2.344c-0.813,2.12,0.239,4.504,2.358,5.317c2.119,0.826,4.49-0.241,5.316-2.346
		C25.613,20.099,24.561,17.713,22.442,16.901 M23.92,13.063c4.238,1.626,6.343,6.396,4.704,10.634
		c-1.626,4.237-6.383,6.342-10.62,4.704c-4.237-1.639-6.355-6.396-4.717-10.633C14.926,13.529,19.684,11.425,23.92,13.063
		L23.92,13.063z"/>
</g>
</svg>
