<?xml version="1.0" encoding="utf-8"?>
<!-- Generator: Adobe Illustrator 25.0.0, SVG Export Plug-In . SVG Version: 6.00 Build 0)  -->
<svg version="1.1" id="Layer_1" xmlns="http://www.w3.org/2000/svg" xmlns:xlink="http://www.w3.org/1999/xlink" x="0px" y="0px"
	 viewBox="0 0 30 30" style="enable-background:new 0 0 30 30;" xml:space="preserve">
<style type="text/css">
	.st0{fill:#7D7D7D;}
</style>
<path class="st0" d="M15,1C7.3,1,1,7.3,1,15c0,7.7,6.3,14,14,14s14-6.3,14-14S22.7,1,15,1 M24.7,9.4h-4.1c-0.5-1.7-1.1-3.4-1.9-5
	C21.2,5.3,23.3,7.1,24.7,9.4 M15,3.9c1.2,1.7,2.1,3.5,2.7,5.5h-5.3C12.9,7.4,13.8,5.5,15,3.9 M4.2,17.8C3.9,16.9,3.8,16,3.8,15
	c0-1,0.1-1.9,0.4-2.8h4.7c-0.1,0.9-0.2,1.9-0.2,2.8c0,1,0.1,1.9,0.2,2.8 M5.3,20.6h4.1c0.5,1.8,1.1,3.4,2,5
	C8.8,24.7,6.6,22.9,5.3,20.6 M9.4,9.4H5.3c1.3-2.3,3.5-4.1,6.1-5C10.5,6,9.9,7.7,9.4,9.4 M15,26.1c-1.2-1.7-2.1-3.5-2.7-5.5h5.3
	C17.1,22.6,16.2,24.5,15,26.1 M18.3,17.8h-6.5c-0.1-0.9-0.2-1.8-0.2-2.8c0-0.9,0.1-1.9,0.2-2.8h6.5c0.1,0.9,0.2,1.9,0.2,2.8
	C18.5,16,18.4,16.9,18.3,17.8 M18.6,25.6c0.8-1.5,1.5-3.2,1.9-5h4.1C23.3,22.9,21.2,24.7,18.6,25.6 M21.1,17.8
	c0.1-0.9,0.2-1.8,0.2-2.8c0-0.9-0.1-1.9-0.2-2.8h4.7c0.2,0.9,0.4,1.8,0.4,2.8c0,1-0.1,1.9-0.4,2.8H21.1z"/>
</svg>
