<?xml version="1.0" encoding="utf-8"?>
<!-- Generator: Adobe Illustrator 16.2.0, SVG Export Plug-In . SVG Version: 6.00 Build 0)  -->
<!DOCTYPE svg PUBLIC "-//W3C//DTD SVG 1.1//EN" "http://www.w3.org/Graphics/SVG/1.1/DTD/svg11.dtd">
<svg version="1.1" id="Layer_1" xmlns="http://www.w3.org/2000/svg" xmlns:xlink="http://www.w3.org/1999/xlink" x="0px" y="0px"
	 width="36px" height="36px" viewBox="0 0 36 36" enable-background="new 0 0 36 36" xml:space="preserve">
<g>
	<path fill="#0068DD" d="M14.88,32.894c0-1.507,1.066-2.76,2.479-3.04v-1.32c-2.44-0.147-4.68-1.12-6.387-2.654l-0.946,0.947
		c0.346,0.506,0.52,1.094,0.52,1.707c0,0.827-0.32,1.6-0.907,2.186c-0.574,0.587-1.373,0.907-2.187,0.907
		c-0.827,0-1.6-0.32-2.186-0.907c-0.601-0.586-0.907-1.346-0.907-2.186c0-0.827,0.307-1.613,0.907-2.187
		c1.053-1.067,2.706-1.2,3.906-0.4l0.934-0.933c-1.533-1.707-2.507-3.947-2.654-6.387h-1.32c-0.28,1.413-1.533,2.479-3.04,2.479
		C1.387,21.106,0,19.72,0,18c0-1.707,1.387-3.093,3.093-3.093c1.507,0,2.76,1.067,3.04,2.48h1.32c0.147-2.44,1.121-4.68,2.654-6.387
		l-0.934-0.933c-0.52,0.347-1.12,0.506-1.707,0.506c-0.8,0-1.586-0.293-2.187-0.907C4.68,9.081,4.373,8.293,4.373,7.48
		c0-0.827,0.307-1.601,0.907-2.187c0.587-0.586,1.4-0.879,2.2-0.879c0.787,0,1.6,0.293,2.174,0.879
		C10.24,5.88,10.56,6.653,10.56,7.48c0,0.613-0.173,1.2-0.521,1.706l0.947,0.947c1.707-1.533,3.947-2.506,6.386-2.653V6.16
		c-1.414-0.28-2.48-1.533-2.48-3.04c0-1.706,1.387-3.106,3.107-3.106c1.707,0,3.093,1.4,3.093,3.106c0,1.507-1.066,2.76-2.48,3.04
		v1.32c2.44,0.146,4.68,1.12,6.387,2.653l0.947-0.947C25.6,8.68,25.426,8.094,25.426,7.48c0-0.827,0.32-1.601,0.907-2.187
		c1.16-1.187,3.213-1.187,4.373,0c0.6,0.586,0.907,1.347,0.907,2.187c0,0.827-0.307,1.6-0.907,2.186
		c-0.6,0.613-1.386,0.907-2.187,0.907c-0.586,0-1.187-0.159-1.707-0.506L25.88,11c1.533,1.707,2.506,3.946,2.653,6.387h1.32
		c0.28-1.413,1.533-2.48,3.04-2.48C34.6,14.907,36,16.293,36,18c0,1.72-1.4,3.106-3.107,3.106c-1.506,0-2.76-1.066-3.04-2.479
		h-1.347c-0.146,2.44-1.12,4.68-2.653,6.387l0.933,0.933c1.2-0.799,2.854-0.667,3.907,0.4c0.6,0.574,0.907,1.373,0.907,2.187
		c0,0.827-0.307,1.6-0.907,2.186c-0.586,0.587-1.347,0.907-2.187,0.907c-0.827,0-1.6-0.32-2.186-0.907
		c-0.587-0.586-0.907-1.359-0.907-2.186c0-0.613,0.173-1.201,0.52-1.707l-0.947-0.947c-1.707,1.534-3.947,2.507-6.387,2.654v1.32
		c1.413,0.28,2.48,1.533,2.48,3.04c0,1.707-1.387,3.093-3.093,3.093C16.267,35.987,14.88,34.6,14.88,32.894z M19.867,32.894
		c0-1.026-0.827-1.866-1.867-1.866c-1.027,0-1.854,0.84-1.854,1.866c0,1.027,0.827,1.854,1.854,1.854
		C19.04,34.747,19.867,33.92,19.867,32.894z M8.787,29.854c0.36-0.36,0.547-0.813,0.547-1.32s-0.187-0.96-0.533-1.32
		c-0.374-0.36-0.854-0.533-1.32-0.533c-0.48,0-0.947,0.173-1.32,0.533c-0.347,0.36-0.534,0.827-0.534,1.32
		c0,0.506,0.187,0.959,0.534,1.32C6.867,30.547,8.093,30.547,8.787,29.854z M29.854,29.84c0.346-0.347,0.533-0.787,0.533-1.307
		c0-0.506-0.187-0.96-0.533-1.32c-0.374-0.36-0.827-0.533-1.32-0.533c-0.48,0-0.947,0.173-1.32,0.533
		c-0.347,0.36-0.534,0.827-0.534,1.32c0,0.506,0.187,0.959,0.534,1.307C27.92,30.547,29.146,30.547,29.854,29.84z M27.307,18
		c0-5.133-4.16-9.293-9.307-9.293c-5.133,0-9.293,4.16-9.293,9.293c0,5.147,4.16,9.307,9.293,9.307
		C23.146,27.307,27.307,23.147,27.307,18z M4.987,18c0-1.026-0.84-1.853-1.867-1.853c-1.026,0-1.866,0.827-1.866,1.853
		c0,1.04,0.84,1.867,1.866,1.867C4.146,19.867,4.987,19.04,4.987,18z M34.747,18c0-1.026-0.827-1.853-1.854-1.853
		c-1.026,0-1.866,0.827-1.866,1.853c0,1.04,0.84,1.867,1.866,1.867C33.92,19.867,34.747,19.04,34.747,18z M8.8,8.8
		C9.146,8.44,9.333,7.974,9.333,7.48c0-0.507-0.187-0.96-0.533-1.307c-0.36-0.36-0.827-0.547-1.32-0.547
		c-0.507,0-0.96,0.187-1.32,0.547C5.813,6.52,5.626,6.96,5.626,7.48c0,0.506,0.187,0.959,0.534,1.319C6.893,9.52,8.066,9.52,8.8,8.8
		z M29.854,8.8c0.346-0.36,0.533-0.826,0.533-1.319c0-0.507-0.187-0.96-0.533-1.32c-0.36-0.347-0.814-0.533-1.32-0.533
		s-0.959,0.187-1.307,0.533c-0.36,0.36-0.547,0.8-0.547,1.32c0,0.506,0.187,0.959,0.534,1.319C27.947,9.52,29.12,9.52,29.854,8.8z
		 M19.867,3.12c0-1.026-0.827-1.854-1.867-1.854c-1.027,0-1.854,0.827-1.854,1.854c0,1.027,0.827,1.867,1.854,1.867
		C19.04,4.987,19.867,4.147,19.867,3.12z"/>
	<path fill="#0068DD" d="M9.947,18c0-4.439,3.613-8.054,8.053-8.054s8.066,3.614,8.066,8.054c0,4.44-3.626,8.067-8.066,8.067
		S9.947,22.44,9.947,18z M15.973,23.133l6.947-10.546h-2.266L13.72,23.133H15.973z M22.426,22.894
		c0.333-0.174,0.587-0.387,0.787-0.667c0.2-0.267,0.333-0.561,0.427-0.88c0.093-0.319,0.133-0.627,0.133-0.933
		c0-0.32-0.041-0.641-0.133-0.96c-0.093-0.32-0.24-0.613-0.44-0.88c-0.2-0.266-0.467-0.479-0.786-0.653
		c-0.333-0.16-0.72-0.24-1.187-0.24s-0.867,0.093-1.187,0.253c-0.319,0.173-0.586,0.399-0.786,0.68
		c-0.2,0.267-0.333,0.573-0.427,0.88c-0.094,0.32-0.133,0.627-0.133,0.921c0,0.426,0.08,0.84,0.24,1.266
		c0.16,0.414,0.426,0.76,0.799,1.04c0.374,0.28,0.867,0.414,1.494,0.414C21.707,23.133,22.107,23.053,22.426,22.894z M20.88,21.147
		c-0.08-0.08-0.147-0.173-0.187-0.307c-0.04-0.121-0.067-0.267-0.067-0.426c0-0.147,0.027-0.281,0.067-0.414
		c0.04-0.12,0.107-0.227,0.2-0.32c0.08-0.08,0.2-0.12,0.333-0.12s0.253,0.04,0.347,0.106c0.08,0.081,0.146,0.174,0.2,0.307
		c0.04,0.12,0.066,0.267,0.066,0.44c0,0.146-0.027,0.28-0.066,0.399c-0.041,0.133-0.107,0.24-0.2,0.32
		c-0.094,0.08-0.201,0.121-0.347,0.121S20.973,21.213,20.88,21.147z M16.613,17.76c0.32-0.173,0.574-0.387,0.773-0.667
		c0.2-0.267,0.346-0.56,0.426-0.88c0.094-0.307,0.134-0.613,0.134-0.906c0-0.32-0.04-0.627-0.134-0.947
		c-0.093-0.32-0.239-0.613-0.44-0.894c-0.2-0.267-0.466-0.48-0.787-0.64c-0.319-0.16-0.72-0.24-1.173-0.24
		c-0.467,0-0.867,0.08-1.187,0.253c-0.333,0.16-0.586,0.387-0.787,0.667c-0.2,0.28-0.347,0.574-0.44,0.894
		c-0.093,0.307-0.146,0.613-0.146,0.907c0,0.413,0.093,0.826,0.253,1.24c0.173,0.427,0.44,0.773,0.813,1.053
		s0.867,0.414,1.494,0.414C15.893,18.014,16.293,17.934,16.613,17.76z M15.066,16.027c-0.08-0.067-0.146-0.16-0.2-0.28
		c-0.04-0.134-0.066-0.28-0.066-0.44c0-0.147,0.026-0.28,0.066-0.414c0.04-0.133,0.106-0.227,0.2-0.307
		c0.094-0.08,0.201-0.12,0.347-0.12c0.133,0,0.24,0.026,0.333,0.094c0.08,0.08,0.146,0.173,0.2,0.307
		c0.04,0.12,0.066,0.266,0.066,0.44c0,0.146-0.026,0.28-0.066,0.413c-0.054,0.121-0.12,0.227-0.2,0.308
		c-0.093,0.066-0.2,0.106-0.333,0.106C15.28,16.133,15.16,16.106,15.066,16.027z"/>
</g>
</svg>
