<?xml version="1.0" encoding="utf-8"?>
<!-- Generator: Adobe Illustrator 16.2.0, SVG Export Plug-In . SVG Version: 6.00 Build 0)  -->
<!DOCTYPE svg PUBLIC "-//W3C//DTD SVG 1.1//EN" "http://www.w3.org/Graphics/SVG/1.1/DTD/svg11.dtd">
<svg version="1.1" id="Layer_1" xmlns="http://www.w3.org/2000/svg" xmlns:xlink="http://www.w3.org/1999/xlink" x="0px" y="0px"
	 width="36px" height="36px" viewBox="0 0 36 36" enable-background="new 0 0 36 36" xml:space="preserve">
<path fill="#FFFFFF" d="M24.807,24.131c0.719,0.013,0.985-0.133,0.945-0.573c-0.04-0.493-0.412-0.573-0.812-0.585
	c-0.625-0.013-0.985,0.213-0.958,0.625C24.022,24.131,24.408,24.131,24.807,24.131 M18.057,35.94v-3.169
	c-1.478-0.187-2.889-0.292-4.26-0.545c-4.447-0.853-8.321-2.73-11.25-6.298c-3.222-3.941-3.408-9.373-0.439-13.5
	c0.653-0.906,1.424-1.705,2.184-2.623C3.745,9.246,3.172,8.647,2.586,8.048C2.107,7.568,1.615,7.103,1.162,6.61
	C-0.476,4.826-0.369,1.75,1.429,0.06c0.212,0.186,0.426,0.373,0.625,0.572c1.385,1.372,2.756,2.783,4.154,4.127
	c1.225,1.186,1.478,2.53,0.905,4.088c-0.026,0.08-0.053,0.159-0.066,0.226C7.034,9.1,7.061,9.126,7.087,9.192
	C7.273,9.126,7.459,9.06,7.659,8.993c1.159-0.399,2.303-0.306,3.209,0.532c1.824,1.691,3.581,3.449,5.365,5.179
	c-1.225,1.451-3.528,1.917-5.073,1.265c-0.785-0.333-1.478-0.786-2.077-1.398c-0.999-1.025-2.023-2.023-3.128-3.142
	c-0.374,0.572-0.772,1.025-0.986,1.558c-1.518,3.754,1.119,7.203,4.62,7.203c8.055,0,16.123,0,24.178,0c0.226,0,0.439,0,0.652,0
	c1.305,0.054,1.851,0.865,1.451,2.077c-0.679,2.064-1.903,3.755-3.462,5.232c-2.542,2.383-5.591,3.768-9.013,4.567v-1.532
	c5.538-1.863,8.854-4.126,10.105-6.909c-0.479-0.133-0.852-0.146-1.185,0.333c-1.744,2.45-4.154,3.994-6.95,5.019
	c-0.599,0.227-1.211,0.413-1.957,0.653c-0.027-0.559-0.04-1.025-0.066-1.558c2.782-0.879,5.338-2.104,7.323-4.42
	c-0.653-0.2-1.092-0.107-1.545,0.32c-1.664,1.584-3.674,2.569-5.872,3.182c-0.2,0.053-0.413,0.133-0.692,0.212
	c-0.013,0.293-0.04,0.586-0.04,0.866c0,0.958,0,1.903,0,2.849C22.504,33.916,21.04,35.554,18.057,35.94L18.057,35.94z"/>
</svg>
