<?xml version="1.0" encoding="utf-8"?>
<!-- Generator: Adobe Illustrator 16.2.0, SVG Export Plug-In . SVG Version: 6.00 Build 0)  -->
<!DOCTYPE svg PUBLIC "-//W3C//DTD SVG 1.1//EN" "http://www.w3.org/Graphics/SVG/1.1/DTD/svg11.dtd">
<svg version="1.1" id="Layer_1" xmlns="http://www.w3.org/2000/svg" xmlns:xlink="http://www.w3.org/1999/xlink" x="0px" y="0px"
	 width="65px" height="64.807px" viewBox="0 0 65 64.807" enable-background="new 0 0 65 64.807" xml:space="preserve">
<g>
	<path fill="#FFFFFF" d="M27.278,11.979c3.745-3.387,7.104-9.638,0.453-11.649c-4.412-1.333-9.997,1.613-13.555,4.585
		C-1.592,18.163-9.615,63.426,19.561,64.719c11.795,0.521,17.554-8.676,20.992-14.128c0.813-1.626,0.027-1.985-1.426-0.879
		C20,64.186,5.419,52.083,5.246,38.222C12.43,30.771,22.16,24.44,31.463,22.374c3.04-0.679,1.014-2.705-2.585-2.239
		c-10.584,1.4-20.313,8.744-24.179,11.65C5.419,23.161,9.031,8.02,19.64,6.674c2.333-0.294,6.398,0.586,5.438,4.572
		C25.065,12.339,25.305,13.151,27.278,11.979z"/>
	<path fill="#FFFFFF" d="M37.5,58.268c-0.546-11.063,8.491-21.446,13.582-30.775c0.92-1.652,0.307-2.972-1.213-1.972L36.113,36.209
		c-3.464,1.04-2.039-3.092-0.025-5.291c4.053-4.425,7.37-7.371,15.635-13.049c1.332-0.839,2.998-1.399,3.186,1.679
		c1.839,13.542,3.465,27.124,9.929,39.732c1.306,3.105-5.638,6.558-6.251,1.693c-0.346-2.799-0.854-4.785-1.999-8.57
		c-2.479,5.931-5.545,11.276-11.155,12.222C39.34,65.652,37.701,62.12,37.5,58.268z M49.922,55.256
		c2.706-2.198,5.584-7.557,4.852-10.195c-0.865-3.132-1.905-5.784-2-10.689c-0.252-0.933-0.572-1.691-1.692-0.453
		c-3.56,4.625-5.824,9.21-8.117,13.968C40.206,53.657,41.006,62.52,49.922,55.256z"/>
	<path fill="#FFFFFF" d="M45.124,8.394c-2.878,1.438-3.505,3.278-1.985,5.504c0.521,1.133,1.6,1.932,5.051,1.373
		c0.92-1.025,1.627-2.319,1.68-3.973C48.803,9.299,47.43,7.94,45.124,8.394z"/>
	<path fill="#FFFFFF" d="M58.268,11.299c-0.121-3.731-1.308-4.544-3.053-3.812c-2.466,1.707-3.158,4.012-0.76,7.331
		C56.986,15.684,57.959,13.285,58.268,11.299z"/>
</g>
</svg>
