<?xml version="1.0" encoding="utf-8"?>
<!-- Generator: Adobe Illustrator 16.2.0, SVG Export Plug-In . SVG Version: 6.00 Build 0)  -->
<!DOCTYPE svg PUBLIC "-//W3C//DTD SVG 1.1//EN" "http://www.w3.org/Graphics/SVG/1.1/DTD/svg11.dtd">
<svg version="1.1" id="Layer_1" xmlns="http://www.w3.org/2000/svg" xmlns:xlink="http://www.w3.org/1999/xlink" x="0px" y="0px"
	 width="45px" height="44.852px" viewBox="0 0 45 44.852" enable-background="new 0 0 45 44.852" xml:space="preserve">
<path fill="#EBEBEB" d="M25.957,40.332c-0.04-0.759-0.014-1.505,0.08-2.265c-2.504,3.41-6.301,7.008-12.496,6.729
	C-6.656,43.902-1.101,12.569,9.81,3.403c2.465-2.064,6.328-4.103,9.379-3.171c4.609,1.387,2.278,5.716-0.307,8.061
	c-1.372,0.813-1.532,0.24-1.519-0.506c0.666-2.771-2.158-3.371-3.771-3.171C6.253,5.548,3.749,16.033,3.256,22.001
	c2.677-2.012,9.405-7.102,16.732-8.061c2.491-0.333,3.903,1.079,1.785,1.545c-6.434,1.427-13.175,5.81-18.145,10.965
	c0.12,9.539,10.072,17.852,23.154,8.18c1.786-5.542,5.94-10.777,8.579-15.6c0.625-1.146,0.213-2.053-0.84-1.373l-9.524,7.406
	c-2.397,0.72-1.412-2.145-0.013-3.664c2.811-3.063,5.102-5.102,10.816-9.031c0.92-0.586,2.078-0.974,2.211,1.158
	c1.266,9.38,2.385,18.771,6.875,27.496c0.905,2.158-3.904,4.543-4.33,1.187c-0.252-1.945-0.6-3.317-1.386-5.942
	c-1.719,4.104-3.837,7.808-7.728,8.46C27.234,45.434,26.089,42.996,25.957,40.332z M34.549,38.253
	c1.878-1.532,3.877-5.235,3.371-7.062c-0.6-2.171-1.318-4.009-1.398-7.406c-0.16-0.641-0.387-1.159-1.16-0.308
	c-2.463,3.197-4.035,6.368-5.621,9.658C27.834,37.147,28.381,43.276,34.549,38.253z M29.859,9.625
	c-1.053-1.546-0.625-2.825,1.386-3.811c1.585-0.319,2.53,0.625,3.276,2.012c-0.039,1.146-0.533,2.039-1.172,2.744
	C30.965,10.957,30.219,10.397,29.859,9.625z M37.693,10.251c-1.652-2.292-1.187-3.891,0.52-5.076
	c1.212-0.506,2.039,0.067,2.118,2.651C40.118,9.199,39.452,10.851,37.693,10.251z"/>
</svg>
