<?xml version="1.0" encoding="utf-8"?>
<!-- Generator: Adobe Illustrator 16.2.0, SVG Export Plug-In . SVG Version: 6.00 Build 0)  -->
<!DOCTYPE svg PUBLIC "-//W3C//DTD SVG 1.1//EN" "http://www.w3.org/Graphics/SVG/1.1/DTD/svg11.dtd">
<svg version="1.1" id="Layer_1" xmlns="http://www.w3.org/2000/svg" xmlns:xlink="http://www.w3.org/1999/xlink" x="0px" y="0px"
	 width="41.549px" height="55px" viewBox="0 0 41.549 55" enable-background="new 0 0 41.549 55" xml:space="preserve">
<path fill="#EBEBEB" d="M32.027,22.027c-1.347,5.387-9.64,2.653-12.333,1.986l2.373-9.52C24.76,15.16,33.427,16.414,32.027,22.027
	 M30.547,37.387c-1.467,5.92-11.427,2.72-14.667,1.92l2.613-10.494C21.733,29.613,32.093,31.213,30.547,37.387 M41.44,22.12
	c0.866-5.786-3.533-8.893-9.56-10.959l1.959-7.827l-4.773-1.187L27.173,9.76c-1.253-0.307-2.546-0.6-3.813-0.893l1.907-7.68
	L20.507,0l-1.96,7.827C17.521,7.6,16.494,7.36,15.507,7.12l0.014-0.026l-6.574-1.64L7.68,10.547c0,0,3.534,0.799,3.454,0.853
	c1.933,0.48,2.28,1.76,2.227,2.773l-2.227,8.92c0.133,0.026,0.307,0.08,0.493,0.16c-0.16-0.04-0.32-0.08-0.507-0.134L8.013,35.613
	c-0.24,0.586-0.84,1.48-2.186,1.133c0.04,0.08-3.467-0.866-3.467-0.866L0,41.346l6.2,1.547c1.146,0.28,2.28,0.587,3.4,0.88
	L7.627,51.68l4.76,1.187l1.947-7.826c1.307,0.346,2.56,0.68,3.8,0.986l-1.947,7.786L20.947,55l1.973-7.893
	c8.134,1.533,14.24,0.92,16.813-6.427c2.067-5.933-0.106-9.333-4.373-11.56C38.467,28.4,40.813,26.346,41.44,22.12L41.44,22.12z"/>
</svg>
