<?xml version="1.0" encoding="utf-8"?>
<!-- Generator: Adobe Illustrator 25.0.0, SVG Export Plug-In . SVG Version: 6.00 Build 0)  -->
<svg version="1.1" id="Layer_1" xmlns="http://www.w3.org/2000/svg" xmlns:xlink="http://www.w3.org/1999/xlink" x="0px" y="0px"
	 viewBox="0 0 22 22" style="enable-background:new 0 0 22 22;" xml:space="preserve">
<style type="text/css">
	.st0{fill:#00BFBF;}
</style>
<path class="st0" d="M11,5.5C8,5.5,5.5,8,5.5,11c0,3,2.5,5.5,5.5,5.5s5.5-2.5,5.5-5.5C16.5,8,14,5.5,11,5.5 M11,0C4.9,0,0,4.9,0,11
	c0,6.1,4.9,11,11,11c6.1,0,11-4.9,11-11C22,4.9,17.1,0,11,0 M11,19.8c-4.9,0-8.8-3.9-8.8-8.8c0-4.9,3.9-8.8,8.8-8.8
	c4.9,0,8.8,3.9,8.8,8.8C19.8,15.9,15.9,19.8,11,19.8L11,19.8z"/>
</svg>
