<?xml version="1.0" encoding="utf-8"?>
<!-- Generator: Adobe Illustrator 16.2.0, SVG Export Plug-In . SVG Version: 6.00 Build 0)  -->
<!DOCTYPE svg PUBLIC "-//W3C//DTD SVG 1.1//EN" "http://www.w3.org/Graphics/SVG/1.1/DTD/svg11.dtd">
<svg version="1.1" id="Layer_1" xmlns="http://www.w3.org/2000/svg" xmlns:xlink="http://www.w3.org/1999/xlink" x="0px" y="0px"
	 width="26px" height="26.01px" viewBox="0 0 26 26.01" enable-background="new 0 0 26 26.01" xml:space="preserve">
<g>
	<path fill-rule="evenodd" clip-rule="evenodd" fill="#FFFFFF" d="M4.868,4.864c4.493-4.48,11.774-4.48,16.268,0
		c4.494,4.494,4.494,11.788,0,16.269c-4.494,4.494-11.775,4.494-16.268,0C0.374,16.652,0.374,9.358,4.868,4.864z"/>
	<path fill-rule="evenodd" clip-rule="evenodd" fill="#FF5B00" d="M3.8,22.199c-5.067-5.081-5.067-13.308,0-18.389
		c5.081-5.081,13.322-5.081,18.389,0c5.081,5.081,5.081,13.308,0,18.389C17.122,27.28,8.881,27.28,3.8,22.199z M20.069,20.079
		c3.907-3.907,3.907-10.241,0-14.149c-3.894-3.907-10.242-3.907-14.135,0c-3.907,3.908-3.907,10.242,0,14.149
		C9.828,23.986,16.175,23.986,20.069,20.079z"/>
</g>
</svg>
