<?xml version="1.0" encoding="utf-8"?>
<!-- Generator: Adobe Illustrator 16.2.0, SVG Export Plug-In . SVG Version: 6.00 Build 0)  -->
<!DOCTYPE svg PUBLIC "-//W3C//DTD SVG 1.1//EN" "http://www.w3.org/Graphics/SVG/1.1/DTD/svg11.dtd">
<svg version="1.1" id="Layer_1" xmlns="http://www.w3.org/2000/svg" xmlns:xlink="http://www.w3.org/1999/xlink" x="0px" y="0px"
	 width="150px" height="71.483px" viewBox="0 0 150 71.483" enable-background="new 0 0 150 71.483" xml:space="preserve">
<g>
	<path fill-rule="evenodd" clip-rule="evenodd" fill="#FF5B00" d="M13.708,70.764L0.725,57.74c-0.973-0.973-0.96-2.546,0-3.506
		L13.749,41.25c0.959-0.973,2.533-0.973,3.506,0c0.96,0.973,0.96,2.546,0,3.506l-8.918,8.891l0.547-0.04
		c79.515,9.665,113.614-16.916,136.556-52.468c0.747-1.16,2.279-1.48,3.425-0.747c1.146,0.747,1.479,2.28,0.747,3.439
		C126.363,39.851,91.904,66.698,15.775,59.353L8.55,58.566l8.678,8.691c0.96,0.96,0.96,2.533-0.013,3.506
		C16.241,71.723,14.682,71.723,13.708,70.764z M6.124,55.86L5.99,55.994l0.16,0.16L6.124,55.86z"/>
</g>
</svg>
