<?xml version="1.0" encoding="utf-8"?>
<!-- Generator: Adobe Illustrator 16.2.0, SVG Export Plug-In . SVG Version: 6.00 Build 0)  -->
<!DOCTYPE svg PUBLIC "-//W3C//DTD SVG 1.1//EN" "http://www.w3.org/Graphics/SVG/1.1/DTD/svg11.dtd">
<svg version="1.1" id="Layer_1" xmlns="http://www.w3.org/2000/svg" xmlns:xlink="http://www.w3.org/1999/xlink" x="0px" y="0px"
	 width="123px" height="139.547px" viewBox="0 0 123 139.547" enable-background="new 0 0 123 139.547" xml:space="preserve">
<path fill="#0068DD" d="M0,72.42V33.084c0.027-3.467,1.307-6.974,3.708-9.668c1.747-1.96,4.133-3.507,6.974-4.147l2.56-0.306
	c13.188-0.827,26.923-7.535,38.964-15.802C54.166,1.947,56.873,0.4,60.727,0h1.414c3.774,0.387,6.562,1.867,8.508,3.081L70.9,3.254
	c11.923,8.161,25.67,14.882,38.845,15.708l2.562,0.306c2.854,0.654,5.227,2.187,6.973,4.147c2.414,2.694,3.681,6.201,3.722,9.668
	V72.42c0,20.722-10.108,47.338-58.713,67.127h-5.28C10.415,119.747,0,93.129,0,72.42z M108.999,72.42V33.164l-0.106-0.241
	c-14.803-0.906-29.11-7.427-40.979-14.895l-4.682-3.067l-1.386-0.748l-0.426-0.106l-0.24,0.066c-0.347,0.146-0.746,0.36-1.293,0.707
	c-12.602,8.628-28.87,17.002-45.805,18.042l-0.08,0.227V72.42c0,13.24,5.307,33.416,42.432,50.738l5.213,2.266l5.173-2.252
	C103.73,105.958,108.999,85.902,108.999,72.42z"/>
</svg>
