<?xml version="1.0" encoding="utf-8"?>
<!-- Generator: Adobe Illustrator 16.2.0, SVG Export Plug-In . SVG Version: 6.00 Build 0)  -->
<!DOCTYPE svg PUBLIC "-//W3C//DTD SVG 1.1//EN" "http://www.w3.org/Graphics/SVG/1.1/DTD/svg11.dtd">
<svg version="1.1" id="Layer_1" xmlns="http://www.w3.org/2000/svg" xmlns:xlink="http://www.w3.org/1999/xlink" x="0px" y="0px"
	 width="48.213px" height="48.28px" viewBox="0 0 48.213 48.28" enable-background="new 0 0 48.213 48.28" xml:space="preserve">
<path fill-rule="evenodd" clip-rule="evenodd" fill="#0066DB" d="M4.653,46.72c0-0.867,0.693-1.574,1.56-1.574h29.133
	c5.373,0,9.747-4.36,9.747-9.733V6.28c0-0.866,0.693-1.573,1.56-1.573c0.867,0,1.56,0.707,1.56,1.573v29.134
	c0,7.093-5.76,12.866-12.867,12.866H6.213C5.346,48.28,4.653,47.574,4.653,46.72z M0,42.506c0-0.854,0.693-1.56,1.56-1.56h33.266
	c3.374,0,6.107-2.734,6.107-6.107V1.56c0-0.854,0.706-1.56,1.573-1.56c0.853,0,1.56,0.707,1.56,1.56v33.28
	c0,5.093-4.133,9.227-9.24,9.227H1.56C0.693,44.066,0,43.373,0,42.506z"/>
</svg>
