<?xml version="1.0" encoding="utf-8"?>
<!-- Generator: Adobe Illustrator 16.2.0, SVG Export Plug-In . SVG Version: 6.00 Build 0)  -->
<!DOCTYPE svg PUBLIC "-//W3C//DTD SVG 1.1//EN" "http://www.w3.org/Graphics/SVG/1.1/DTD/svg11.dtd">
<svg version="1.1" id="Layer_1" xmlns="http://www.w3.org/2000/svg" xmlns:xlink="http://www.w3.org/1999/xlink" x="0px" y="0px"
	 width="70px" height="70px" viewBox="0 0 70 70" enable-background="new 0 0 70 70" xml:space="preserve">
<g>
	<path fill="#EBEBEB" d="M16,53v-4.747c0-5.24,8.494-9.493,19-9.493c10.494,0,19,4.253,19,9.493V53H16z M25.494,24.506
		C25.494,19.267,29.747,15,35,15c5.24,0,9.494,4.267,9.494,9.506c0,5.24-4.253,9.507-9.494,9.507
		C29.747,34.013,25.494,29.747,25.494,24.506z M32.68,30.013l2.96-3.894h1.733v3.894h2.534v-11.24h-5.733
		c-0.96,0-1.72,0.16-2.28,0.494c-0.56,0.346-0.959,0.786-1.2,1.346c-0.253,0.547-0.373,1.16-0.373,1.814
		c0,0.706,0.173,1.346,0.506,1.893c0.333,0.56,0.773,1,1.333,1.32c0.133,0.08,0.266,0.146,0.4,0.2l-3.04,4.173H32.68z M33.44,23.547
		c-0.173-0.12-0.307-0.28-0.374-0.48c-0.066-0.186-0.107-0.4-0.107-0.639c0-0.214,0.027-0.414,0.107-0.601
		c0.067-0.2,0.187-0.36,0.36-0.48c0.174-0.12,0.414-0.186,0.72-0.186h3.227v2.573h-3.227C33.84,23.733,33.613,23.667,33.44,23.547z"
		/>
</g>
</svg>
