<?xml version="1.0" encoding="utf-8"?>
<!-- Generator: Adobe Illustrator 16.2.0, SVG Export Plug-In . SVG Version: 6.00 Build 0)  -->
<!DOCTYPE svg PUBLIC "-//W3C//DTD SVG 1.1//EN" "http://www.w3.org/Graphics/SVG/1.1/DTD/svg11.dtd">
<svg version="1.1" id="Layer_1" xmlns="http://www.w3.org/2000/svg" xmlns:xlink="http://www.w3.org/1999/xlink" x="0px" y="0px"
	 width="35.08px" height="35.106px" viewBox="0 0 35.08 35.106" enable-background="new 0 0 35.08 35.106" xml:space="preserve">
<path fill-rule="evenodd" clip-rule="evenodd" fill="#5E9CE3" d="M3.387,33.973c0-0.626,0.52-1.133,1.147-1.133H25.72
	c3.907,0,7.08-3.187,7.08-7.093V4.56c0-0.626,0.52-1.133,1.147-1.133c0.626,0,1.133,0.507,1.133,1.133v21.187
	c0,5.174-4.2,9.36-9.36,9.36H4.534C3.907,35.106,3.387,34.6,3.387,33.973z M0,30.92c0-0.627,0.52-1.147,1.147-1.147h24.2
	c2.44,0,4.44-1.987,4.44-4.44v-24.2C29.787,0.506,30.293,0,30.92,0c0.626,0,1.133,0.506,1.133,1.133v24.2c0,3.707-3,6.72-6.706,6.72
	h-24.2C0.52,32.053,0,31.547,0,30.92z"/>
</svg>
