<?xml version="1.0" encoding="utf-8"?>
<!-- Generator: Adobe Illustrator 16.2.0, SVG Export Plug-In . SVG Version: 6.00 Build 0)  -->
<!DOCTYPE svg PUBLIC "-//W3C//DTD SVG 1.1//EN" "http://www.w3.org/Graphics/SVG/1.1/DTD/svg11.dtd">
<svg version="1.1" id="Layer_1" xmlns="http://www.w3.org/2000/svg" xmlns:xlink="http://www.w3.org/1999/xlink" x="0px" y="0px"
	 width="33.84px" height="33.854px" viewBox="0 0 33.84 33.854" enable-background="new 0 0 33.84 33.854" xml:space="preserve">
<path fill-rule="evenodd" clip-rule="evenodd" fill="#5E9CE3" d="M15.64,26.121c-0.52-2-0.52-4.041,0-6.121
	c0.6,0.267,1.267,0.32,1.827,0.214c-0.133,2.04,0.24,4.014,1.12,5.907C17.707,27.187,16.734,27.214,15.64,26.121z M9.52,22.533
	c1.041-1.786,2.494-3.239,4.32-4.333c0.24,0.587,0.64,1.08,1.146,1.44c-1.547,1.347-2.68,3-3.387,4.973
	C10.213,24.747,9.52,24.067,9.52,22.533z M18.187,20c0.586-0.227,1.08-0.626,1.44-1.133c1.346,1.534,3,2.68,4.973,3.387
	c0.146,1.374-0.547,2.08-2.08,2.08C20.734,23.28,19.293,21.827,18.187,20z M20,18.214c0.253-0.601,0.307-1.28,0.201-1.827
	c2.053,0.134,4.026-0.24,5.92-1.12c1.066,0.879,1.08,1.854,0,2.933C24.107,18.734,22.067,18.734,20,18.214z M7.72,15.654
	c2.014-0.533,4.053-0.533,6.12-0.014c-0.254,0.613-0.307,1.28-0.2,1.827c-2.054-0.133-4.026,0.24-5.92,1.134
	C6.654,17.707,6.64,16.734,7.72,15.654z M15.253,16.934c0-0.92,0.747-1.667,1.667-1.667c0.92,0,1.667,0.747,1.667,1.667
	s-0.746,1.667-1.667,1.667C16,18.601,15.253,17.854,15.253,16.934z M18.854,14.214c1.547-1.333,2.68-3,3.4-4.96
	c1.374-0.133,2.08,0.534,2.067,2.067c-1.04,1.8-2.494,3.24-4.32,4.333C19.76,15.067,19.36,14.574,18.854,14.214z M9.24,11.613
	c-0.133-1.386,0.547-2.093,2.08-2.093c1.787,1.053,3.227,2.506,4.333,4.333c-0.587,0.227-1.08,0.626-1.44,1.146
	C12.867,13.454,11.201,12.32,9.24,11.613z M18.201,13.854c-0.601-0.253-1.267-0.32-1.827-0.213c0.134-2.04-0.24-4.013-1.12-5.906
	c0.88-1.067,1.854-1.094,2.947,0C18.72,9.747,18.72,11.773,18.201,13.854z"/>
</svg>
