<?xml version="1.0" encoding="utf-8"?>
<!-- Generator: Adobe Illustrator 16.2.0, SVG Export Plug-In . SVG Version: 6.00 Build 0)  -->
<!DOCTYPE svg PUBLIC "-//W3C//DTD SVG 1.1//EN" "http://www.w3.org/Graphics/SVG/1.1/DTD/svg11.dtd">
<svg version="1.1" id="Layer_1" xmlns="http://www.w3.org/2000/svg" xmlns:xlink="http://www.w3.org/1999/xlink" x="0px" y="0px"
	 width="33.84px" height="33.854px" viewBox="0 0 33.84 33.854" enable-background="new 0 0 33.84 33.854" xml:space="preserve">
<path fill-rule="evenodd" clip-rule="evenodd" fill="#5E9CE3" d="M0,30.067V3.8C0,1.707,1.693,0,3.787,0h26.266
	c2.094,0,3.787,1.707,3.787,3.8v26.267c0,2.079-1.693,3.786-3.787,3.786H3.787C1.693,33.854,0,32.146,0,30.067z M6.44,28.64
	c0-0.893-0.733-1.613-1.626-1.613c-0.894,0-1.627,0.72-1.627,1.613c0,0.907,0.733,1.627,1.627,1.627
	C5.707,30.267,6.44,29.547,6.44,28.64z M30.654,28.64c0-0.893-0.734-1.613-1.627-1.613c-0.894,0-1.626,0.72-1.626,1.613
	c0,0.907,0.733,1.627,1.626,1.627C29.92,30.267,30.654,29.547,30.654,28.64z M24.934,24.947c4.44-4.426,4.44-11.613,0-16.04
	c-4.426-4.427-11.613-4.427-16.04,0c-4.427,4.426-4.427,11.613,0,16.04C13.32,29.374,20.507,29.374,24.934,24.947z M6.44,5.214
	c0-0.894-0.733-1.627-1.626-1.627c-0.894,0-1.627,0.733-1.627,1.627c0,0.893,0.733,1.613,1.627,1.613
	C5.707,6.827,6.44,6.107,6.44,5.214z M30.654,5.214c0-0.894-0.734-1.627-1.627-1.627c-0.894,0-1.626,0.733-1.626,1.627
	c0,0.893,0.733,1.613,1.626,1.613C29.92,6.827,30.654,6.107,30.654,5.214z"/>
</svg>
