<?xml version="1.0" encoding="utf-8"?>
<!-- Generator: Adobe Illustrator 25.0.0, SVG Export Plug-In . SVG Version: 6.00 Build 0)  -->
<svg version="1.1" id="Layer_1" xmlns="http://www.w3.org/2000/svg" xmlns:xlink="http://www.w3.org/1999/xlink" x="0px" y="0px"
	 viewBox="0 0 415 356.44" style="enable-background:new 0 0 415 356.44;" xml:space="preserve">
<style type="text/css">
	.st0{fill-rule:evenodd;clip-rule:evenodd;fill:#FF5B00;}
</style>
<path class="st0" d="M207.49,356.44l-1.39-1.2l1.03-1.2l-0.61-0.72l1.45-1.25H206v-5.76h3v4.89l6.21-5.33l1.95,2.27L207.49,356.44z
	 M201.55,351.33l-9.09-7.83l1.95-2.27l9.1,7.81L201.55,351.33z M221.7,344.23l-1.95-2.28l9.1-7.81l1.95,2.28L221.7,344.23z
	 M206,340.31v-12h3v12H206z M187.9,339.6l-9.09-7.81l1.95-2.28l9.1,7.83L187.9,339.6z M235.37,332.51l-1.96-2.28l9.1-7.83l1.95,2.28
	L235.37,332.51z M174.25,327.88l-9.1-7.83l1.96-2.27l9.1,7.81L174.25,327.88z M206,322.31v-12h3v12H206z M249.02,320.78l-1.96-2.28
	l9.1-7.81l1.95,2.28L249.02,320.78z M160.6,316.15l-9.1-7.81l1.96-2.28l9.1,7.81L160.6,316.15z M262.67,309.05l-1.96-2.27l9.1-7.83
	l1.96,2.28L262.67,309.05z M146.95,304.42l-9.1-7.81l1.96-2.28l9.09,7.83L146.95,304.42z M206,304.31v-12h3v12H206z M276.32,297.33
	l-1.96-2.28l9.1-7.81l1.96,2.27L276.32,297.33z M133.29,292.7l-9.1-7.81l1.96-2.28l9.09,7.81L133.29,292.7z M206,286.32v-12h3v12
	H206z M289.97,285.6l-1.95-2.28l9.09-7.81l1.96,2.28L289.97,285.6z M119.64,280.97l-9.1-7.81l1.95-2.28l9.1,7.83L119.64,280.97z
	 M303.62,273.88l-1.95-2.28l9.09-7.81l1.96,2.27L303.62,273.88z M105.99,269.25l-9.1-7.83l1.95-2.27l9.1,7.81L105.99,269.25z
	 M206,268.32v-12h3v12H206z M317.27,262.15l-1.95-2.28l9.1-7.81l1.95,2.28L317.27,262.15z M92.33,257.52l-9.09-7.81l1.95-2.28
	l9.1,7.81L92.33,257.52z M330.92,250.42l-1.95-2.27l9.1-7.83l1.95,2.28L330.92,250.42z M206,250.33v-12h3v12H206z M78.68,245.81
	l-9.09-7.83l1.95-2.28l9.1,7.83L78.68,245.81z M344.59,238.7l-1.96-2.28l9.1-7.81l1.95,2.27L344.59,238.7z M65.03,234.07l-9.1-7.81
	l1.96-2.28l9.1,7.81L65.03,234.07z M206,232.33v-12h3v12H206z M358.24,226.97l-1.96-2.27l9.1-7.83l1.95,2.28L358.24,226.97z
	 M51.38,222.34l-9.1-7.81l1.96-2.28l9.1,7.83L51.38,222.34z M371.89,215.25l-1.96-2.28l9.1-7.81l1.96,2.27L371.89,215.25z
	 M206,214.33v-12h3v12H206z M37.73,210.63l-9.1-7.83l1.96-2.27l9.09,7.81L37.73,210.63z M385.54,203.52l-1.96-2.28l9.1-7.81
	l1.96,2.28L385.54,203.52z M24.08,198.89l-9.1-7.81l1.96-2.28l9.09,7.83L24.08,198.89z M206,196.34v-12h3v12H206z M399.19,191.79
	l-1.95-2.27l9.09-7.83l1.96,2.28L399.19,191.79z M10.42,187.18L0,178.22l2.99-2.57l1.95,2.28l-0.33,0.29l1.57,1.35v-2.84h12v3H6.35
	l6.03,5.17L10.42,187.18z M412.84,180.07l-0.87-1.01l-0.25,0.29l-2.89-2.48v2.85h-6.73v-3h6.56l-5.2-4.47l1.95-2.28l9.6,8.24
	L412.84,180.07z M24.17,179.73v-3h12v3H24.17z M42.17,179.73v-3h12v3H42.17z M60.16,179.73v-3h12v3H60.16z M78.16,179.73v-3h12v3
	H78.16z M96.15,179.73v-3h12v3H96.15z M114.15,179.73v-3h12v3H114.15z M132.15,179.73v-3h12v3H132.15z M150.14,179.73v-3h12v3
	H150.14z M168.14,179.73v-3h12v3H168.14z M186.14,179.73v-3h12v3H186.14z M204.13,179.73v-3H206v-10.38h3v10.38h7.13v3H204.13z
	 M222.13,179.73v-3h12v3H222.13z M240.13,179.73v-3h12v3H240.13z M258.12,179.73v-3h12v3H258.12z M276.12,179.73v-3h12v3H276.12z
	 M294.12,179.73v-3h12v3H294.12z M312.11,179.73v-3h12v3H312.11z M330.11,179.73v-3h12v3H330.11z M348.11,179.73v-3h12v3H348.11z
	 M366.1,179.73v-3h12v3H366.1z M384.1,179.73v-3h12v3H384.1z M9.49,174.02l-1.96-2.28l9.1-7.81l1.95,2.28L9.49,174.02z
	 M398.9,168.34l-9.09-7.81l1.95-2.28l9.1,7.83L398.9,168.34z M23.14,162.29l-1.96-2.27l9.1-7.83l1.96,2.28L23.14,162.29z
	 M206,160.34v-12h3v12H206z M385.25,156.62l-9.09-7.83l1.95-2.27l9.1,7.81L385.25,156.62z M36.79,150.57l-1.96-2.28l9.1-7.81
	l1.96,2.27L36.79,150.57z M371.6,144.89l-9.1-7.81l1.96-2.28l9.1,7.81L371.6,144.89z M206,142.35v-12h3v12H206z M50.44,138.84
	l-1.96-2.28l9.1-7.81l1.96,2.28L50.44,138.84z M357.94,133.17l-9.1-7.83l1.96-2.27l9.1,7.81L357.94,133.17z M64.09,127.12
	l-1.95-2.28l9.09-7.81l1.96,2.27L64.09,127.12z M206,124.35v-12h3v12H206z M344.29,121.44l-9.1-7.81l1.96-2.28l9.1,7.81
	L344.29,121.44z M77.75,115.39l-1.95-2.28l9.09-7.81l1.96,2.28L77.75,115.39z M330.64,109.71l-9.1-7.81l1.96-2.28l9.09,7.83
	L330.64,109.71z M206,106.35v-12h3v12H206z M91.4,103.66l-1.95-2.27l9.1-7.83l1.95,2.28L91.4,103.66z M316.99,97.99l-9.1-7.83
	l1.96-2.27l9.09,7.81L316.99,97.99z M105.06,91.94l-1.96-2.28l9.1-7.81l1.95,2.27L105.06,91.94z M206,88.36v-12h3v12H206z
	 M303.34,86.26l-9.1-7.81l1.95-2.28l9.1,7.83L303.34,86.26z M118.71,80.21l-1.96-2.27l9.1-7.83l1.95,2.28L118.71,80.21z
	 M289.68,74.55l-9.09-7.83l1.95-2.27l9.1,7.81L289.68,74.55z M206,70.36v-12h3v12H206z M132.36,68.49l-1.96-2.28l9.1-7.81l1.96,2.27
	L132.36,68.49z M276.03,62.81L266.94,55l1.95-2.28l9.1,7.81L276.03,62.81z M146.01,56.76l-1.96-2.28l9.1-7.81l1.96,2.28
	L146.01,56.76z M206,52.36v-12h3v12H206z M262.38,51.1l-9.1-7.83l1.96-2.28l9.1,7.83L262.38,51.1z M159.66,45.04l-1.96-2.28
	l9.1-7.83l1.96,2.28L159.66,45.04z M248.73,39.37l-9.1-7.81l1.96-2.28l9.1,7.81L248.73,39.37z M206,34.37v-12h3v12H206z
	 M173.31,33.31l-1.95-2.28l9.09-7.81l1.96,2.28L173.31,33.31z M235.07,27.63l-9.1-7.81l1.96-2.28l9.09,7.83L235.07,27.63z
	 M186.96,21.58l-1.95-2.27l9.09-7.83l1.96,2.28L186.96,21.58z M206,16.37V5.24l-5.39,4.63l-1.95-2.28L207.49,0l2.23,1.92l-1.95,2.27
	l-0.28-0.23l-0.48,0.41H209v12H206z M221.42,15.92l-9.1-7.83l1.96-2.27l9.09,7.81L221.42,15.92z"/>
</svg>
