<?xml version="1.0" encoding="utf-8"?>
<!-- Generator: Adobe Illustrator 25.0.0, SVG Export Plug-In . SVG Version: 6.00 Build 0)  -->
<svg version="1.1" id="Layer_1" xmlns="http://www.w3.org/2000/svg" xmlns:xlink="http://www.w3.org/1999/xlink" x="0px" y="0px"
	 viewBox="0 0 39 39" style="enable-background:new 0 0 39 39;" xml:space="preserve">
<style type="text/css">
	.st0{fill-rule:evenodd;clip-rule:evenodd;fill:#309C33;}
	.st1{fill-rule:evenodd;clip-rule:evenodd;fill:#FFFFFF;}
</style>
<g>
	<circle class="st0" cx="19.5" cy="19.5" r="19.5"/>
	<path class="st1" d="M10.5,11.5c0-0.55,0.45-1,1-1h16c0.55,0,1,0.45,1,1c0,0.55-0.45,1-1,1h-16C10.95,12.5,10.5,12.05,10.5,11.5z
		 M10.5,15.5c0-0.55,0.45-1,1-1h12c0.55,0,1,0.45,1,1c0,0.55-0.45,1-1,1h-12C10.95,16.5,10.5,16.05,10.5,15.5z M10.5,19.5
		c0-0.55,0.45-1,1-1h16c0.55,0,1,0.45,1,1s-0.45,1-1,1h-16C10.95,20.5,10.5,20.05,10.5,19.5z M10.5,23.5c0-0.55,0.45-1,1-1h12
		c0.55,0,1,0.45,1,1c0,0.55-0.45,1-1,1h-12C10.95,24.5,10.5,24.05,10.5,23.5z M10.5,27.5c0-0.55,0.45-1,1-1h16c0.55,0,1,0.45,1,1
		s-0.45,1-1,1h-16C10.95,28.5,10.5,28.05,10.5,27.5z"/>
</g>
</svg>
