<?xml version="1.0" encoding="utf-8"?>
<!-- Generator: Adobe Illustrator 16.2.0, SVG Export Plug-In . SVG Version: 6.00 Build 0)  -->
<!DOCTYPE svg PUBLIC "-//W3C//DTD SVG 1.1//EN" "http://www.w3.org/Graphics/SVG/1.1/DTD/svg11.dtd">
<svg version="1.1" id="Layer_1" xmlns="http://www.w3.org/2000/svg" xmlns:xlink="http://www.w3.org/1999/xlink" x="0px" y="0px"
	 width="46.533px" height="46.533px" viewBox="0 0 46.533 46.533" enable-background="new 0 0 46.533 46.533" xml:space="preserve">
<path fill="#0066DB" d="M21.52,35.907c-0.72-2.76-0.72-5.56-0.014-8.414c0.827,0.36,1.747,0.439,2.507,0.293
	c-0.174,2.8,0.333,5.521,1.546,8.121C24.347,37.373,23.014,37.4,21.52,35.907z M13.093,30.973c1.44-2.467,3.44-4.453,5.947-5.959
	c0.319,0.799,0.866,1.493,1.573,1.973c-2.12,1.854-3.68,4.133-4.653,6.84C14.053,34.014,13.093,33.08,13.093,30.973z M25.014,27.493
	c0.813-0.32,1.493-0.866,1.986-1.573c1.84,2.133,4.121,3.693,6.827,4.667c0.2,1.893-0.733,2.867-2.854,2.867
	C28.506,32,26.533,30,25.014,27.493z M27.506,25.026c0.347-0.827,0.427-1.747,0.281-2.506c2.813,0.186,5.533-0.333,8.133-1.547
	c1.467,1.213,1.494,2.56,0,4.053C33.16,25.747,30.36,25.747,27.506,25.026z M10.627,21.506c2.76-0.72,5.56-0.72,8.414,0
	c-0.347,0.827-0.427,1.747-0.281,2.507c-2.813-0.187-5.533,0.333-8.133,1.546C9.16,24.347,9.133,23,10.627,21.506z M20.973,23.266
	c0-1.266,1.027-2.293,2.294-2.293c1.266,0,2.293,1.027,2.307,2.293c0,1.267-1.041,2.293-2.307,2.293
	C22,25.56,20.973,24.533,20.973,23.266z M25.934,19.533c2.12-1.84,3.68-4.12,4.667-6.827c1.894-0.186,2.867,0.747,2.854,2.854
	c-1.44,2.467-3.427,4.454-5.947,5.96C27.187,20.706,26.627,20.026,25.934,19.533z M12.707,15.946
	c-0.174-1.907,0.747-2.866,2.867-2.866c2.453,1.453,4.44,3.44,5.959,5.959c-0.813,0.32-1.493,0.867-1.986,1.56
	C17.693,18.479,15.414,16.92,12.707,15.946z M25.041,19.04C24.2,18.68,23.28,18.6,22.52,18.747c0.187-2.8-0.333-5.52-1.547-8.133
	c1.214-1.467,2.56-1.48,4.054,0C25.747,13.387,25.747,16.187,25.041,19.04z"/>
</svg>
