<?xml version="1.0" encoding="utf-8"?>
<!-- Generator: Adobe Illustrator 16.2.0, SVG Export Plug-In . SVG Version: 6.00 Build 0)  -->
<!DOCTYPE svg PUBLIC "-//W3C//DTD SVG 1.1//EN" "http://www.w3.org/Graphics/SVG/1.1/DTD/svg11.dtd">
<svg version="1.1" id="Layer_1" xmlns="http://www.w3.org/2000/svg" xmlns:xlink="http://www.w3.org/1999/xlink" x="0px" y="0px"
	 width="175px" height="175px" viewBox="0 0 175 175" enable-background="new 0 0 175 175" xml:space="preserve">
<g>
	<path fill="#FFFFFF" d="M80.03,58.273c5.344-4.838,10.156-13.781,0.64-16.66c-6.318-1.906-14.301,2.292-19.392,6.571
		c-22.564,18.952-34.026,83.712,7.716,85.552c16.874,0.746,25.109-12.409,30.015-20.219c1.173-2.332,0.041-2.826-2.026-1.267
		c-27.361,20.726-48.232,3.412-48.473-16.433C58.771,85.169,72.686,76.106,86,73.147c4.357-0.973,1.453-3.878-3.679-3.198
		C67.168,71.948,53.253,82.45,47.723,86.622c1.013-12.355,6.197-34.013,21.365-35.932c3.332-0.413,9.169,0.827,7.784,6.544
		C76.858,58.793,77.204,59.953,80.03,58.273z"/>
	<path fill="#FFFFFF" d="M94.65,124.514c-0.787-15.834,12.142-30.695,19.432-44.036c1.307-2.372,0.439-4.251-1.746-2.839
		l-19.671,15.3c-4.958,1.492-2.919-4.412-0.041-7.57c5.812-6.331,10.556-10.542,22.378-18.672c1.893-1.2,4.277-1.986,4.545,2.425
		c2.639,19.366,4.958,38.784,14.221,56.83c1.866,4.452-8.076,9.383-8.955,2.426c-0.508-4.012-1.227-6.864-2.854-12.262
		c-3.545,8.489-7.943,16.127-15.954,17.485C97.289,135.068,94.932,130.018,94.65,124.514z M112.416,120.193
		c3.865-3.145,8.011-10.809,6.943-14.594c-1.238-4.465-2.719-8.264-2.864-15.287c-0.36-1.332-0.813-2.413-2.413-0.652
		c-5.091,6.624-8.344,13.181-11.607,19.992C98.529,117.916,99.662,130.577,112.416,120.193z"/>
	<path fill="#FFFFFF" d="M105.564,53.155c-4.131,2.053-5.023,4.679-2.838,7.877c0.732,1.613,2.278,2.759,7.211,1.959
		c1.306-1.466,2.332-3.318,2.397-5.677C110.816,54.448,108.846,52.489,105.564,53.155z"/>
	<path fill="#FFFFFF" d="M124.357,57.314c-0.172-5.345-1.865-6.505-4.371-5.465c-3.519,2.439-4.504,5.731-1.092,10.489
		C122.532,63.578,123.932,60.152,124.357,57.314z"/>
</g>
</svg>
