<?xml version="1.0" encoding="utf-8"?>
<!-- Generator: Adobe Illustrator 25.0.0, SVG Export Plug-In . SVG Version: 6.00 Build 0)  -->
<svg version="1.1" id="Layer_1" xmlns="http://www.w3.org/2000/svg" xmlns:xlink="http://www.w3.org/1999/xlink" x="0px" y="0px"
	 viewBox="0 0 70 70" style="enable-background:new 0 0 70 70;" xml:space="preserve">
<style type="text/css">
	.st0{fill-rule:evenodd;clip-rule:evenodd;fill:#FFFFFF;}
</style>
<path class="st0" d="M13.4,48.7c-0.8-1.1-0.5-2.7,0.6-3.4c6.4-4.4,13.2-6.6,20.3-6.6c7.1,0,14.2,2.3,21.5,6.5
	c1.2,0.7,1.6,2.2,0.9,3.4c-0.7,1.2-2.2,1.6-3.4,0.9c-6.7-3.9-13-5.8-19-5.8c-6,0-11.7,1.8-17.4,5.8C15.8,50.1,14.2,49.8,13.4,48.7z
	 M21.6,26.3c-1.4-1.4-1.4-3.6,0-5c1.4-1.4,3.6-1.4,5,0c1.4,1.4,1.4,3.6,0,5C25.2,27.7,23,27.7,21.6,26.3z M43.4,26.3
	c-1.4-1.4-1.4-3.6,0-5c1.4-1.4,3.6-1.4,5,0c1.4,1.4,1.4,3.6,0,5C47,27.7,44.8,27.7,43.4,26.3z"/>
</svg>
