<?xml version="1.0" encoding="utf-8"?>
<!-- Generator: Adobe Illustrator 25.0.0, SVG Export Plug-In . SVG Version: 6.00 Build 0)  -->
<svg version="1.1" id="Layer_1" xmlns="http://www.w3.org/2000/svg" xmlns:xlink="http://www.w3.org/1999/xlink" x="0px" y="0px"
	 viewBox="0 0 70 70" style="enable-background:new 0 0 70 70;" xml:space="preserve">
<style type="text/css">
	.st0{fill-rule:evenodd;clip-rule:evenodd;fill:#FFFFFF;}
</style>
<path class="st0" d="M14.1,43.1c-1.1-0.8-1.4-2.3-0.6-3.4c0.8-1.1,2.3-1.4,3.4-0.6c5.7,3.9,11.5,5.8,17.4,5.8c6,0,12.3-1.9,19-5.8
	c1.2-0.7,2.7-0.3,3.4,0.9c0.7,1.2,0.3,2.7-0.9,3.4c-7.2,4.2-14.4,6.5-21.5,6.5C27.2,49.8,20.5,47.6,14.1,43.1z M21.6,26.3
	c-1.4-1.4-1.4-3.6,0-5s3.6-1.4,5,0c1.4,1.4,1.4,3.6,0,5C25.2,27.7,23,27.7,21.6,26.3z M43.4,26.3c-1.4-1.4-1.4-3.6,0-5s3.6-1.4,5,0
	s1.4,3.6,0,5S44.8,27.7,43.4,26.3z"/>
</svg>
