<?xml version="1.0" encoding="utf-8"?>
<!-- Generator: Adobe Illustrator 25.0.0, SVG Export Plug-In . SVG Version: 6.00 Build 0)  -->
<svg version="1.1" id="Layer_1" xmlns="http://www.w3.org/2000/svg" xmlns:xlink="http://www.w3.org/1999/xlink" x="0px" y="0px"
	 viewBox="0 0 70 70" style="enable-background:new 0 0 70 70;" xml:space="preserve">
<style type="text/css">
	.st0{fill:#FFFFFF;}
</style>
<g>
	<path class="st0" d="M31.7,43.5v-1.9c0-1.8,0.3-3.3,0.8-4.5c0.5-1.2,1.2-2.2,2-3s1.6-1.5,2.4-2.2c0.9-0.7,1.7-1.5,2.3-2.3
		c0.7-0.8,1-1.7,1-2.9c0-1.2-0.4-2.2-1.2-3c-0.8-0.8-2-1.2-3.5-1.2c-1.8,0-3.2,0.5-4.1,1.6c-0.9,1.1-1.4,2.5-1.4,4.4h-6.4
		c0-2.6,0.5-4.8,1.5-6.6c1-1.8,2.4-3.2,4.2-4.2c1.8-0.9,3.9-1.4,6.2-1.4c2.4,0,4.4,0.5,6.1,1.4c1.7,0.9,2.9,2.1,3.7,3.7
		c0.9,1.6,1.3,3.3,1.3,5.3c0,1.5-0.2,2.8-0.7,3.8s-1,1.9-1.7,2.7c-0.7,0.7-1.4,1.4-2.2,2.1c-0.6,0.6-1.3,1.1-1.8,1.7
		c-0.6,0.6-1.1,1.3-1.4,2c-0.4,0.8-0.5,1.7-0.5,2.7v1.9H31.7z M35,53.6c-1.2,0-2.2-0.4-3-1.2c-0.8-0.8-1.2-1.8-1.2-2.9
		c0-1.1,0.4-2.1,1.2-3c0.8-0.8,1.8-1.2,3-1.2c1.2,0,2.2,0.4,3,1.2c0.8,0.8,1.2,1.8,1.2,3c0,1.2-0.4,2.1-1.2,2.9
		C37.2,53.2,36.2,53.6,35,53.6z"/>
</g>
</svg>
