<?xml version="1.0" encoding="utf-8"?>
<!-- Generator: Adobe Illustrator 25.0.0, SVG Export Plug-In . SVG Version: 6.00 Build 0)  -->
<svg version="1.1" id="Layer_1" xmlns="http://www.w3.org/2000/svg" xmlns:xlink="http://www.w3.org/1999/xlink" x="0px" y="0px"
	 viewBox="0 0 70 70" style="enable-background:new 0 0 70 70;" xml:space="preserve">
<style type="text/css">
	.st0{fill-rule:evenodd;clip-rule:evenodd;fill:#FFFFFF;}
</style>
<path class="st0" d="M15.5,46.9c0-1.4,1.1-2.5,2.5-2.5H52c1.4,0,2.5,1.1,2.5,2.5c0,1.4-1.1,2.5-2.5,2.5H18
	C16.6,49.5,15.5,48.3,15.5,46.9z M21.3,26.7c-1.4-1.4-1.4-3.7,0-5.1c1.4-1.4,3.7-1.4,5.1,0c1.4,1.4,1.4,3.7,0,5.1
	C25,28.1,22.7,28.1,21.3,26.7z M43.6,26.7c-1.4-1.4-1.4-3.7,0-5.1c1.4-1.4,3.7-1.4,5.1,0c1.4,1.4,1.4,3.7,0,5.1S45,28.1,43.6,26.7z"
	/>
</svg>
