<?xml version="1.0" encoding="utf-8"?>
<!-- Generator: Adobe Illustrator 16.2.0, SVG Export Plug-In . SVG Version: 6.00 Build 0)  -->
<!DOCTYPE svg PUBLIC "-//W3C//DTD SVG 1.1//EN" "http://www.w3.org/Graphics/SVG/1.1/DTD/svg11.dtd">
<svg version="1.1" id="Layer_1" xmlns="http://www.w3.org/2000/svg" xmlns:xlink="http://www.w3.org/1999/xlink" x="0px" y="0px"
	 width="20px" height="20px" viewBox="0 0 20 20" enable-background="new 0 0 20 20" xml:space="preserve">
<path fill="#0068DD" d="M12.561,2.282c2.865,0,5.146,2.295,5.146,5.15c0,2.854-2.28,5.149-5.146,5.149
	c-2.854,0-5.135-2.295-5.135-5.149C7.426,4.577,9.707,2.282,12.561,2.282 M12.561,0C8.467,0,5.133,3.322,5.133,7.432
	c0,1.841,0.68,3.535,1.787,4.83l-0.307,0.32H5.707L0,18.292L1.707,20l5.72-5.71v-0.907l0.307-0.307
	c1.307,1.107,2.987,1.787,4.827,1.787c4.106,0,7.44-3.321,7.44-7.431C20,3.322,16.667,0,12.561,0L12.561,0z"/>
</svg>
