<?xml version="1.0" encoding="utf-8"?>
<!-- Generator: Adobe Illustrator 25.0.0, SVG Export Plug-In . SVG Version: 6.00 Build 0)  -->
<svg version="1.1" id="Layer_1" xmlns="http://www.w3.org/2000/svg" xmlns:xlink="http://www.w3.org/1999/xlink" x="0px" y="0px"
	 viewBox="0 0 160 160" style="enable-background:new 0 0 160 160;" xml:space="preserve">
<style type="text/css">
	.st0{fill:#7D7D7D;}
	.st1{fill-rule:evenodd;clip-rule:evenodd;fill:#FF5B00;}
	.st2{fill:#FFFFFF;}
</style>
<g>
	<path class="st0" d="M50,128.2H12.5v-10.7H50c0-3,2.4-5.4,5.4-5.4h5.4v-10.7H23.2c-3,0-5.4-2.4-5.4-5.4V74.6c0-2.9,2.4-5.3,5.4-5.3
		h69.7c1.5,12.3,10,22.4,21.3,26.3l0,0.5c0,3-2.4,5.4-5.4,5.4H71.4v10.7h5.4c3,0,5.4,2.4,5.4,5.4h37.5v10.7H82.2
		c0,3-2.4,5.4-5.4,5.4H55.4C52.4,133.6,50,131.2,50,128.2z M39.3,90.7V80H28.6v10.7H39.3z M55.4,90.7V80H50v10.7H55.4z M17.9,53.2
		V31.8c0-3,2.4-5.4,5.4-5.4h85.7c3,0,5.4,2.4,5.4,5.4l0,3.6c-10.4,3.5-18.4,12.3-20.8,23.2H23.2C20.3,58.6,17.9,56.2,17.9,53.2z
		 M39.3,47.9V37.1H28.6v10.7H39.3z M55.4,47.9V37.1H50v10.7H55.4z"/>
	<g>
		<circle class="st1" cx="124.5" cy="65.5" r="23"/>
		<g>
			<g>
				<polygon class="st2" points="120.3,78.6 120.3,69.6 111.4,69.6 111.4,61.4 120.3,61.4 120.3,52.4 128.7,52.4 128.7,61.4 
					137.6,61.4 137.6,69.6 128.7,69.6 128.7,78.6 				"/>
			</g>
		</g>
	</g>
</g>
</svg>
