<?xml version="1.0" encoding="utf-8"?>
<!-- Generator: Adobe Illustrator 25.0.0, SVG Export Plug-In . SVG Version: 6.00 Build 0)  -->
<svg version="1.1" id="Layer_1" xmlns="http://www.w3.org/2000/svg" xmlns:xlink="http://www.w3.org/1999/xlink" x="0px" y="0px"
	 viewBox="0 0 160 160" style="enable-background:new 0 0 160 160;" xml:space="preserve">
<style type="text/css">
	.st0{fill:#7D7D7D;}
	.st1{fill-rule:evenodd;clip-rule:evenodd;fill:#FF5B00;}
	.st2{fill:#FFFFFF;}
</style>
<g>
	<path class="st0" d="M70.6,139.8H21v-5.7h49.6c0-1.6,1.3-2.9,2.9-2.9h2.9v-5.7H56.2c-1.6,0-2.9-1.3-2.9-2.9v-11.5
		c0-1.6,1.3-2.9,2.9-2.9h46c1.6,0,2.9,1.3,2.9,2.9v11.5c0,1.6-1.3,2.9-2.9,2.9H82.1v5.7h2.9c1.6,0,2.9,1.3,2.9,2.9h49.6v5.7H87.8
		c0,1.6-1.3,2.9-2.9,2.9H73.4C71.9,142.7,70.6,141.4,70.6,139.8z M64.8,119.7V114h-5.7v5.7H64.8z M73.4,119.7V114h-2.9v5.7H73.4z
		 M5,78.7c0-18.8,15.3-34.1,34.1-34.1c6.8-16,22.5-27.3,40.9-27.3c23.4,0,42.5,18.1,44.3,41.1l3.4-0.2c15.1,0,27.3,12.2,27.3,27.3
		c0,15.1-12.2,27.3-27.3,27.3h-15.2V99.1h15.2c7.5,0,13.6-6.1,13.6-13.6c0-7.5-6.1-13.6-13.6-13.6h-13.6V65
		c0-18.8-15.3-34.1-34.1-34.1c-17.1,0-31,12.4-33.7,28.6c-2.2-0.8-4.7-1.3-7.2-1.3c-11.3,0-20.5,9.2-20.5,20.5
		c0,11.3,9.2,20.4,20.5,20.4h7.1v13.6h-7.1C20.3,112.7,5,97.5,5,78.7z M53.3,99.6V88.1c0-1.6,1.3-2.9,2.9-2.9h46
		c1.6,0,2.9,1.3,2.9,2.9v11.5c0,1.6-1.3,2.9-2.9,2.9h-46C54.6,102.5,53.3,101.2,53.3,99.6z M64.8,96.7V91h-5.7v5.7H64.8z M73.4,96.7
		V91h-2.9v5.7H73.4z"/>
	<path class="st1" d="M60.7,58.7c0-10.5,8.5-18.9,18.9-18.9c10.5,0,18.9,8.5,18.9,18.9c0,10.5-8.5,18.9-18.9,18.9
		C69.2,77.6,60.7,69.1,60.7,58.7z"/>
	<g>
		<g>
			<polygon class="st2" points="76.2,69.5 76.2,62 68.9,62 68.9,55.3 76.2,55.3 76.2,47.9 83.1,47.9 83.1,55.3 90.4,55.3 90.4,62 
				83.1,62 83.1,69.5 			"/>
		</g>
	</g>
</g>
</svg>
