<?xml version="1.0" encoding="utf-8"?>
<!-- Generator: Adobe Illustrator 16.2.0, SVG Export Plug-In . SVG Version: 6.00 Build 0)  -->
<!DOCTYPE svg PUBLIC "-//W3C//DTD SVG 1.1//EN" "http://www.w3.org/Graphics/SVG/1.1/DTD/svg11.dtd">
<svg version="1.1" id="Layer_1" xmlns="http://www.w3.org/2000/svg" xmlns:xlink="http://www.w3.org/1999/xlink" x="0px" y="0px"
	 width="135px" height="117.28px" viewBox="0 0 135 117.28" enable-background="new 0 0 135 117.28" xml:space="preserve">
<g>
	<path fill-rule="evenodd" clip-rule="evenodd" fill="#FFFFFF" d="M40.333,67.72c0-10.093,5.493-18.947,13.573-23.586l65.187-37.72
		c6.159-3.56,13.106,3.373,9.546,9.547L91.506,80.267l-1.719,2.853c-4.894,7.067-13.041,11.734-22.32,11.734
		C52.48,94.853,40.333,82.693,40.333,67.72z"/>
	<path fill="#FF5B00" d="M67.467,87.866c-11.133,0-20.146-9.027-20.146-20.146c0-7.521,4.093-14.107,10.066-17.533l65.2-37.72
		l-37.133,64.32C82.107,83.359,75.32,87.866,67.467,87.866L67.467,87.866z"/>
</g>
</svg>
