<?xml version="1.0" encoding="utf-8"?>
<!-- Generator: Adobe Illustrator 16.2.0, SVG Export Plug-In . SVG Version: 6.00 Build 0)  -->
<!DOCTYPE svg PUBLIC "-//W3C//DTD SVG 1.1//EN" "http://www.w3.org/Graphics/SVG/1.1/DTD/svg11.dtd">
<svg version="1.1" id="Layer_1" xmlns="http://www.w3.org/2000/svg" xmlns:xlink="http://www.w3.org/1999/xlink" x="0px" y="0px"
	 width="135px" height="117.28px" viewBox="0 0 135 117.28" enable-background="new 0 0 135 117.28" xml:space="preserve">
<path fill="#0068DD" d="M19.76,115.24c-26.347-26.347-26.347-69.12,0-95.479c26.36-26.347,69.12-26.347,95.48,0
	c26.346,26.359,26.346,69.132,0,95.479c-2.734,2.72-7.16,2.72-9.88,0c-2.733-2.734-2.733-7.16,0-9.88
	c20.893-20.893,20.893-54.813,0-75.706c-20.906-20.907-54.826-20.907-75.72,0c-20.894,20.893-20.894,54.813,0,75.706
	c2.733,2.72,2.733,7.146,0,9.88C26.92,117.96,22.494,117.96,19.76,115.24z"/>
</svg>
