<?xml version="1.0" encoding="utf-8"?>
<!-- Generator: Adobe Illustrator 16.2.0, SVG Export Plug-In . SVG Version: 6.00 Build 0)  -->
<!DOCTYPE svg PUBLIC "-//W3C//DTD SVG 1.1//EN" "http://www.w3.org/Graphics/SVG/1.1/DTD/svg11.dtd">
<svg version="1.1" id="Layer_1" xmlns="http://www.w3.org/2000/svg" xmlns:xlink="http://www.w3.org/1999/xlink" x="0px" y="0px"
	 width="113px" height="113.001px" viewBox="0 0 113 113.001" enable-background="new 0 0 113 113.001" xml:space="preserve">
<path fill-rule="evenodd" clip-rule="evenodd" fill="#E2E2E2" d="M16.551,96.45c-22.068-22.054-22.068-57.855,0-79.909
	c22.053-22.054,57.855-22.054,79.909,0c22.054,22.054,22.054,57.855,0,79.909C74.406,118.518,38.604,118.518,16.551,96.45z
	 M90.193,90.183c18.601-18.587,18.601-48.775,0-67.376c-18.601-18.6-48.775-18.6-67.375,0c-18.6,18.601-18.6,48.789,0,67.376
	C41.418,108.784,71.592,108.784,90.193,90.183z M27.991,85.01c-15.734-15.747-15.734-41.281,0-57.016
	c15.747-15.733,41.281-15.733,57.016,0c15.747,15.734,15.747,41.269,0,57.016C69.272,100.743,43.738,100.743,27.991,85.01z
	 M78.739,78.743c12.281-12.28,12.281-32.214,0-44.481c-12.267-12.281-32.201-12.281-44.481,0c-12.268,12.267-12.268,32.201,0,44.481
	C46.538,91.01,66.472,91.01,78.739,78.743z"/>
</svg>
